<svg xmlns="http://www.w3.org/2000/svg" class="w-full h-full leading-none markmap mm-lzdw27-1" style=""><style>.markmap{--markmap-max-width: 9999px;--markmap-a-color: #0097e6;--markmap-a-hover-color: #00a8ff;--markmap-code-bg: #f0f0f0;--markmap-code-color: #555;--markmap-highlight-bg: #ffeaa7;--markmap-table-border: 1px solid currentColor;--markmap-font: 300 16px/20px sans-serif;--markmap-circle-open-bg: #fff;--markmap-text-color: #333;--markmap-highlight-node-bg: #ff02;font:var(--markmap-font);color:var(--markmap-text-color)}.markmap-link{fill:none}.markmap-node&gt;circle{cursor:pointer}.markmap-foreign{display:inline-block}.markmap-foreign p{margin:0}.markmap-foreign a{color:var(--markmap-a-color)}.markmap-foreign a:hover{color:var(--markmap-a-hover-color)}.markmap-foreign code{padding:.25em;font-size:calc(1em - 2px);color:var(--markmap-code-color);background-color:var(--markmap-code-bg);border-radius:2px}.markmap-foreign pre{margin:0}.markmap-foreign pre&gt;code{display:block}.markmap-foreign del{text-decoration:line-through}.markmap-foreign em{font-style:italic}.markmap-foreign strong{font-weight:700}.markmap-foreign mark{background:var(--markmap-highlight-bg)}.markmap-foreign table,.markmap-foreign th,.markmap-foreign td{border-collapse:collapse;border:var(--markmap-table-border)}.markmap-foreign img{display:inline-block}.markmap-foreign svg{fill:currentColor}.markmap-foreign&gt;div{width:var(--markmap-max-width);text-align:left}.markmap-foreign&gt;div&gt;div{display:inline-block}.markmap-highlight rect{fill:var(--markmap-highlight-node-bg)}.markmap-dark .markmap{--markmap-code-bg: #1a1b26;--markmap-code-color: #ddd;--markmap-circle-open-bg: #444;--markmap-text-color: #eee}</style><g transform="translate(135.43002763420475,366.7922776820002) scale(0.40787062884948194)"><path class="markmap-link" data-depth="3" data-path="1.2.3" d="M326,-599.859C366,-599.859,366,-627.422,406,-627.422" stroke-width="1.375" stroke="rgb(148, 103, 189)"/><path class="markmap-link" data-depth="3" data-path="1.2.4" d="M326,-599.859C366,-599.859,366,-600.047,406,-600.047" stroke-width="1.375" stroke="rgb(255, 127, 14)"/><path class="markmap-link" data-depth="3" data-path="1.2.5" d="M326,-599.859C366,-599.859,366,-572.672,406,-572.672" stroke-width="1.375" stroke="rgb(44, 160, 44)"/><path class="markmap-link" data-depth="3" data-path="1.6.7" d="M374,-512.734C414,-512.734,414,-540.297,454,-540.297" stroke-width="1.375" stroke="rgb(148, 103, 189)"/><path class="markmap-link" data-depth="3" data-path="1.6.8" d="M374,-512.734C414,-512.734,414,-512.922,454,-512.922" stroke-width="1.375" stroke="rgb(140, 86, 75)"/><path class="markmap-link" data-depth="3" data-path="1.6.9" d="M374,-512.734C414,-512.734,414,-485.547,454,-485.547" stroke-width="1.375" stroke="rgb(148, 103, 189)"/><path class="markmap-link" data-depth="3" data-path="1.10.11" d="M351,-411.922C391,-411.922,391,-453.172,431,-453.172" stroke-width="1.375" stroke="rgb(31, 119, 180)"/><path class="markmap-link" data-depth="3" data-path="1.10.12" d="M351,-411.922C391,-411.922,391,-425.797,431,-425.797" stroke-width="1.375" stroke="rgb(255, 127, 14)"/><path class="markmap-link" data-depth="3" data-path="1.10.13" d="M351,-411.922C391,-411.922,391,-398.422,431,-398.422" stroke-width="1.375" stroke="rgb(44, 160, 44)"/><path class="markmap-link" data-depth="3" data-path="1.10.14" d="M351,-411.922C391,-411.922,391,-371.047,431,-371.047" stroke-width="1.375" stroke="rgb(214, 39, 40)"/><path class="markmap-link" data-depth="3" data-path="1.15.16" d="M351,-270.047C391,-270.047,391,-338.672,431,-338.672" stroke-width="1.375" stroke="rgb(140, 86, 75)"/><path class="markmap-link" data-depth="3" data-path="1.15.17" d="M351,-270.047C391,-270.047,391,-311.297,431,-311.297" stroke-width="1.375" stroke="rgb(227, 119, 194)"/><path class="markmap-link" data-depth="3" data-path="1.15.18" d="M351,-270.047C391,-270.047,391,-283.922,431,-283.922" stroke-width="1.375" stroke="rgb(127, 127, 127)"/><path class="markmap-link" data-depth="3" data-path="1.15.19" d="M351,-270.047C391,-270.047,391,-256.547,431,-256.547" stroke-width="1.375" stroke="rgb(188, 189, 34)"/><path class="markmap-link" data-depth="3" data-path="1.15.20" d="M351,-270.047C391,-270.047,391,-229.172,431,-229.172" stroke-width="1.375" stroke="rgb(23, 190, 207)"/><path class="markmap-link" data-depth="3" data-path="1.15.21" d="M351,-270.047C391,-270.047,391,-201.797,431,-201.797" stroke-width="1.375" stroke="rgb(31, 119, 180)"/><path class="markmap-link" data-depth="3" data-path="1.22.23" d="M358,-155.547C398,-155.547,398,-169.422,438,-169.422" stroke-width="1.375" stroke="rgb(44, 160, 44)"/><path class="markmap-link" data-depth="3" data-path="1.22.24" d="M358,-155.547C398,-155.547,398,-142.047,438,-142.047" stroke-width="1.375" stroke="rgb(214, 39, 40)"/><path class="markmap-link" data-depth="4" data-path="1.25.27.28" d="M646,-9.328C686,-9.328,686,-77.391,726,-77.391" stroke-width="1.1875" stroke="rgb(148, 103, 189)"/><path class="markmap-link" data-depth="4" data-path="1.25.27.29" d="M646,-9.328C686,-9.328,686,-50.203,726,-50.203" stroke-width="1.1875" stroke="rgb(140, 86, 75)"/><path class="markmap-link" data-depth="4" data-path="1.25.27.30" d="M646,-9.328C686,-9.328,686,-23.016,726,-23.016" stroke-width="1.1875" stroke="rgb(227, 119, 194)"/><path class="markmap-link" data-depth="4" data-path="1.25.27.31" d="M646,-9.328C686,-9.328,686,4.172,726,4.172" stroke-width="1.1875" stroke="rgb(127, 127, 127)"/><path class="markmap-link" data-depth="4" data-path="1.25.27.32" d="M646,-9.328C686,-9.328,686,31.359,726,31.359" stroke-width="1.1875" stroke="rgb(188, 189, 34)"/><path class="markmap-link" data-depth="4" data-path="1.25.27.33" d="M646,-9.328C686,-9.328,686,58.547,726,58.547" stroke-width="1.1875" stroke="rgb(23, 190, 207)"/><path class="markmap-link" data-depth="3" data-path="1.25.26" d="M475,-59.312C515,-59.312,515,-109.672,555,-109.672" stroke-width="1.375" stroke="rgb(140, 86, 75)"/><path class="markmap-link" data-depth="3" data-path="1.25.27" d="M475,-59.312C515,-59.312,515,-9.328,555,-9.328" stroke-width="1.375" stroke="rgb(227, 119, 194)"/><path class="markmap-link" data-depth="3" data-path="1.34.35" d="M399,132.078C439,132.078,439,90.828,479,90.828" stroke-width="1.375" stroke="rgb(31, 119, 180)"/><path class="markmap-link" data-depth="3" data-path="1.34.36" d="M399,132.078C439,132.078,439,118.203,479,118.203" stroke-width="1.375" stroke="rgb(255, 127, 14)"/><path class="markmap-link" data-depth="3" data-path="1.34.37" d="M399,132.078C439,132.078,439,145.578,479,145.578" stroke-width="1.375" stroke="rgb(44, 160, 44)"/><path class="markmap-link" data-depth="3" data-path="1.34.38" d="M399,132.078C439,132.078,439,172.953,479,172.953" stroke-width="1.375" stroke="rgb(31, 119, 180)"/><path class="markmap-link" data-depth="4" data-path="1.39.42.43" d="M643,278.672C683,278.672,683,264.984,723,264.984" stroke-width="1.1875" stroke="rgb(140, 86, 75)"/><path class="markmap-link" data-depth="4" data-path="1.39.42.44" d="M643,278.672C683,278.672,683,292.172,723,292.172" stroke-width="1.1875" stroke="rgb(227, 119, 194)"/><path class="markmap-link" data-depth="3" data-path="1.39.40" d="M337,242.188C377,242.188,377,205.328,417,205.328" stroke-width="1.375" stroke="rgb(44, 160, 44)"/><path class="markmap-link" data-depth="3" data-path="1.39.41" d="M337,242.188C377,242.188,377,232.703,417,232.703" stroke-width="1.375" stroke="rgb(214, 39, 40)"/><path class="markmap-link" data-depth="3" data-path="1.39.42" d="M337,242.188C377,242.188,377,278.672,417,278.672" stroke-width="1.375" stroke="rgb(148, 103, 189)"/><path class="markmap-link" data-depth="4" data-path="1.45.46.47" d="M609,351.641C649,351.641,649,324.359,689,324.359" stroke-width="1.1875" stroke="rgb(23, 190, 207)"/><path class="markmap-link" data-depth="4" data-path="1.45.46.48" d="M609,351.641C649,351.641,649,351.547,689,351.547" stroke-width="1.1875" stroke="rgb(31, 119, 180)"/><path class="markmap-link" data-depth="4" data-path="1.45.46.49" d="M609,351.641C649,351.641,649,378.734,689,378.734" stroke-width="1.1875" stroke="rgb(255, 127, 14)"/><path class="markmap-link" data-depth="4" data-path="1.45.50.51" d="M603,451.797C643,451.797,643,410.922,683,410.922" stroke-width="1.1875" stroke="rgb(214, 39, 40)"/><path class="markmap-link" data-depth="4" data-path="1.45.50.52" d="M603,451.797C643,451.797,643,438.109,683,438.109" stroke-width="1.1875" stroke="rgb(148, 103, 189)"/><path class="markmap-link" data-depth="4" data-path="1.45.50.53" d="M603,451.797C643,451.797,643,465.297,683,465.297" stroke-width="1.1875" stroke="rgb(140, 86, 75)"/><path class="markmap-link" data-depth="4" data-path="1.45.50.54" d="M603,451.797C643,451.797,643,492.484,683,492.484" stroke-width="1.1875" stroke="rgb(227, 119, 194)"/><path class="markmap-link" data-depth="3" data-path="1.45.46" d="M326,401.906C366,401.906,366,351.641,406,351.641" stroke-width="1.375" stroke="rgb(188, 189, 34)"/><path class="markmap-link" data-depth="3" data-path="1.45.50" d="M326,401.906C366,401.906,366,451.797,406,451.797" stroke-width="1.375" stroke="rgb(44, 160, 44)"/><path class="markmap-link" data-depth="4" data-path="1.55.56.57" d="M679,565.547C719,565.547,719,524.672,759,524.672" stroke-width="1.1875" stroke="rgb(23, 190, 207)"/><path class="markmap-link" data-depth="4" data-path="1.55.56.58" d="M679,565.547C719,565.547,719,551.859,759,551.859" stroke-width="1.1875" stroke="rgb(31, 119, 180)"/><path class="markmap-link" data-depth="4" data-path="1.55.56.59" d="M679,565.547C719,565.547,719,579.047,759,579.047" stroke-width="1.1875" stroke="rgb(255, 127, 14)"/><path class="markmap-link" data-depth="4" data-path="1.55.56.60" d="M679,565.547C719,565.547,719,606.234,759,606.234" stroke-width="1.1875" stroke="rgb(44, 160, 44)"/><path class="markmap-link" data-depth="4" data-path="1.55.61.62" d="M679,679.297C719,679.297,719,638.422,759,638.422" stroke-width="1.1875" stroke="rgb(148, 103, 189)"/><path class="markmap-link" data-depth="4" data-path="1.55.61.63" d="M679,679.297C719,679.297,719,665.609,759,665.609" stroke-width="1.1875" stroke="rgb(140, 86, 75)"/><path class="markmap-link" data-depth="4" data-path="1.55.61.64" d="M679,679.297C719,679.297,719,692.797,759,692.797" stroke-width="1.1875" stroke="rgb(227, 119, 194)"/><path class="markmap-link" data-depth="4" data-path="1.55.61.65" d="M679,679.297C719,679.297,719,719.984,759,719.984" stroke-width="1.1875" stroke="rgb(127, 127, 127)"/><path class="markmap-link" data-depth="3" data-path="1.55.56" d="M508,622.609C548,622.609,548,565.547,588,565.547" stroke-width="1.375" stroke="rgb(188, 189, 34)"/><path class="markmap-link" data-depth="3" data-path="1.55.61" d="M508,622.609C548,622.609,548,679.297,588,679.297" stroke-width="1.375" stroke="rgb(214, 39, 40)"/><path class="markmap-link" data-depth="2" data-path="1.2" d="M123,11.75C163,11.75,163,-599.859,203,-599.859" stroke-width="1.75" stroke="rgb(255, 127, 14)"/><path class="markmap-link" data-depth="2" data-path="1.6" d="M123,11.75C163,11.75,163,-512.734,203,-512.734" stroke-width="1.75" stroke="rgb(214, 39, 40)"/><path class="markmap-link" data-depth="2" data-path="1.10" d="M123,11.75C163,11.75,163,-411.922,203,-411.922" stroke-width="1.75" stroke="rgb(23, 190, 207)"/><path class="markmap-link" data-depth="2" data-path="1.15" d="M123,11.75C163,11.75,163,-270.047,203,-270.047" stroke-width="1.75" stroke="rgb(148, 103, 189)"/><path class="markmap-link" data-depth="2" data-path="1.22" d="M123,11.75C163,11.75,163,-155.547,203,-155.547" stroke-width="1.75" stroke="rgb(255, 127, 14)"/><path class="markmap-link" data-depth="2" data-path="1.25" d="M123,11.75C163,11.75,163,-59.312,203,-59.312" stroke-width="1.75" stroke="rgb(148, 103, 189)"/><path class="markmap-link" data-depth="2" data-path="1.34" d="M123,11.75C163,11.75,163,132.078,203,132.078" stroke-width="1.75" stroke="rgb(23, 190, 207)"/><path class="markmap-link" data-depth="2" data-path="1.39" d="M123,11.75C163,11.75,163,242.188,203,242.188" stroke-width="1.75" stroke="rgb(255, 127, 14)"/><path class="markmap-link" data-depth="2" data-path="1.45" d="M123,11.75C163,11.75,163,401.906,203,401.906" stroke-width="1.75" stroke="rgb(127, 127, 127)"/><path class="markmap-link" data-depth="2" data-path="1.55" d="M123,11.75C163,11.75,163,622.609,203,622.609" stroke-width="1.75" stroke="rgb(127, 127, 127)"/><g class="markmap-highlight"/><g data-depth="3" data-path="1.2.3" class="markmap-node" transform="translate(406, -649.109375)"><line stroke="#9467bd" stroke-width="1.375" x1="-1" x2="222" y1="21.6875" y2="21.6875"/><foreignObject class="markmap-foreign" x="8" y="0" style="opacity: 1;" width="204" height="21"><div xmlns="http://www.w3.org/1999/xhtml"><div xmlns="http://www.w3.org/1999/xhtml"><strong>血糖</strong> -&gt; 血液中的**<mark>葡萄糖</mark>**   </div></div></foreignObject></g><g data-depth="3" data-path="1.2.4" class="markmap-node" transform="translate(406, -621.734375)"><line stroke="#ff7f0e" stroke-width="1.375" x1="-1" x2="246" y1="21.6875" y2="21.6875"/><foreignObject class="markmap-foreign" x="8" y="0" style="opacity: 1;" width="228" height="21"><div xmlns="http://www.w3.org/1999/xhtml"><div xmlns="http://www.w3.org/1999/xhtml">正常值 -&gt; <mark><strong>3.89～6.11 mmol/L</strong></mark>   </div></div></foreignObject></g><g data-depth="3" data-path="1.2.5" class="markmap-node" transform="translate(406, -594.359375)"><line stroke="#2ca02c" stroke-width="1.375" x1="-1" x2="443" y1="21.6875" y2="21.6875"/><foreignObject class="markmap-foreign" x="8" y="0" style="opacity: 1;" width="425" height="21"><div xmlns="http://www.w3.org/1999/xhtml"><div xmlns="http://www.w3.org/1999/xhtml"><strong>肾糖阈</strong> -&gt; <strong><mark>8.89-10.00 mmol/L</mark></strong> -&gt; 超过此值 -&gt; 出现**<mark>尿糖</mark>**   </div></div></foreignObject></g><g data-depth="2" data-path="1.2" class="markmap-node" transform="translate(203, -621.734375)"><line stroke="#ff7f0e" stroke-width="1.75" x1="-1" x2="125" y1="21.875" y2="21.875"/><circle stroke-width="1.5" r="6" stroke="#ff7f0e" fill="var(--markmap-circle-open-bg)" cx="123" cy="21.875"/><foreignObject class="markmap-foreign" x="8" y="0" style="opacity: 1;" width="107" height="21"><div xmlns="http://www.w3.org/1999/xhtml"><div xmlns="http://www.w3.org/1999/xhtml"><strong>血糖基本概念</strong>   </div></div></foreignObject></g><g data-depth="3" data-path="1.6.7" class="markmap-node" transform="translate(454, -561.984375)"><line stroke="#9467bd" stroke-width="1.375" x1="-1" x2="483" y1="21.6875" y2="21.6875"/><foreignObject class="markmap-foreign" x="8" y="0" style="opacity: 1;" width="465" height="21"><div xmlns="http://www.w3.org/1999/xhtml"><div xmlns="http://www.w3.org/1999/xhtml">保证<strong>脑</strong>组织能量供应 -&gt; 脑不能利用脂肪酸 -&gt; 主要依赖**<mark>葡萄糖</mark>**   </div></div></foreignObject></g><g data-depth="3" data-path="1.6.8" class="markmap-node" transform="translate(454, -534.609375)"><line stroke="#8c564b" stroke-width="1.375" x1="-1" x2="405" y1="21.6875" y2="21.6875"/><foreignObject class="markmap-foreign" x="8" y="0" style="opacity: 1;" width="387" height="21"><div xmlns="http://www.w3.org/1999/xhtml"><div xmlns="http://www.w3.org/1999/xhtml">保证<strong>红细胞</strong>供能 -&gt; 无==<strong>线粒体</strong>== -&gt; 完全靠**<mark>糖酵解</mark>**   </div></div></foreignObject></g><g data-depth="3" data-path="1.6.9" class="markmap-node" transform="translate(454, -507.234375)"><line stroke="#9467bd" stroke-width="1.375" x1="-1" x2="328" y1="21.6875" y2="21.6875"/><foreignObject class="markmap-foreign" x="8" y="0" style="opacity: 1;" width="310" height="21"><div xmlns="http://www.w3.org/1999/xhtml"><div xmlns="http://www.w3.org/1999/xhtml">保证骨髓/神经组织供能 -&gt; 经常利用葡萄糖   </div></div></foreignObject></g><g data-depth="2" data-path="1.6" class="markmap-node" transform="translate(203, -534.609375)"><line stroke="#d62728" stroke-width="1.75" x1="-1" x2="173" y1="21.875" y2="21.875"/><circle stroke-width="1.5" r="6" stroke="#d62728" fill="var(--markmap-circle-open-bg)" cx="171" cy="21.875"/><foreignObject class="markmap-foreign" x="8" y="0" style="opacity: 1;" width="155" height="21"><div xmlns="http://www.w3.org/1999/xhtml"><div xmlns="http://www.w3.org/1999/xhtml"><strong>血糖恒定的生理意义</strong>   </div></div></foreignObject></g><g data-depth="3" data-path="1.10.11" class="markmap-node" transform="translate(431, -474.859375)"><line stroke="#1f77b4" stroke-width="1.375" x1="-1" x2="222" y1="21.6875" y2="21.6875"/><foreignObject class="markmap-foreign" x="8" y="0" style="opacity: 1;" width="204" height="21"><div xmlns="http://www.w3.org/1999/xhtml"><div xmlns="http://www.w3.org/1999/xhtml"><strong><mark>食物糖</mark></strong>（主要）-&gt; 消化吸收   </div></div></foreignObject></g><g data-depth="3" data-path="1.10.12" class="markmap-node" transform="translate(431, -447.484375)"><line stroke="#ff7f0e" stroke-width="1.375" x1="-1" x2="194" y1="21.6875" y2="21.6875"/><foreignObject class="markmap-foreign" x="8" y="0" style="opacity: 1;" width="176" height="21"><div xmlns="http://www.w3.org/1999/xhtml"><div xmlns="http://www.w3.org/1999/xhtml"><strong><mark>肝糖原分解</mark></strong> -&gt; 补充血糖   </div></div></foreignObject></g><g data-depth="3" data-path="1.10.13" class="markmap-node" transform="translate(431, -420.109375)"><line stroke="#2ca02c" stroke-width="1.375" x1="-1" x2="231" y1="21.6875" y2="21.6875"/><foreignObject class="markmap-foreign" x="8" y="0" style="opacity: 1;" width="213" height="21"><div xmlns="http://www.w3.org/1999/xhtml"><div xmlns="http://www.w3.org/1999/xhtml"><strong><mark>糖异生</mark></strong> -&gt; 非糖物质 -&gt; 葡萄糖   </div></div></foreignObject></g><g data-depth="3" data-path="1.10.14" class="markmap-node" transform="translate(431, -392.734375)"><line stroke="#d62728" stroke-width="1.375" x1="-1" x2="153" y1="21.6875" y2="21.6875"/><foreignObject class="markmap-foreign" x="8" y="0" style="opacity: 1;" width="135" height="21"><div xmlns="http://www.w3.org/1999/xhtml"><div xmlns="http://www.w3.org/1999/xhtml">**<mark>其他单糖</mark>**转化   </div></div></foreignObject></g><g data-depth="2" data-path="1.10" class="markmap-node" transform="translate(203, -433.796875)"><line stroke="#17becf" stroke-width="1.75" x1="-1" x2="150" y1="21.875" y2="21.875"/><circle stroke-width="1.5" r="6" stroke="#17becf" fill="var(--markmap-circle-open-bg)" cx="148" cy="21.875"/><foreignObject class="markmap-foreign" x="8" y="0" style="opacity: 1;" width="132" height="21"><div xmlns="http://www.w3.org/1999/xhtml"><div xmlns="http://www.w3.org/1999/xhtml"><strong>血糖来源（4条）</strong>   </div></div></foreignObject></g><g data-depth="3" data-path="1.15.16" class="markmap-node" transform="translate(431, -360.359375)"><line stroke="#8c564b" stroke-width="1.375" x1="-1" x2="300" y1="21.6875" y2="21.6875"/><foreignObject class="markmap-foreign" x="8" y="0" style="opacity: 1;" width="282" height="21"><div xmlns="http://www.w3.org/1999/xhtml"><div xmlns="http://www.w3.org/1999/xhtml"><strong><mark>氧化分解</mark></strong>（主要）-&gt; CO₂ + H₂O -&gt; 供能   </div></div></foreignObject></g><g data-depth="3" data-path="1.15.17" class="markmap-node" transform="translate(431, -332.984375)"><line stroke="#e377c2" stroke-width="1.375" x1="-1" x2="216" y1="21.6875" y2="21.6875"/><foreignObject class="markmap-foreign" x="8" y="0" style="opacity: 1;" width="198" height="21"><div xmlns="http://www.w3.org/1999/xhtml"><div xmlns="http://www.w3.org/1999/xhtml"><strong><mark>糖原合成</mark></strong> -&gt; 肝糖原/肌糖原   </div></div></foreignObject></g><g data-depth="3" data-path="1.15.18" class="markmap-node" transform="translate(431, -305.609375)"><line stroke="#7f7f7f" stroke-width="1.375" x1="-1" x2="297" y1="21.6875" y2="21.6875"/><foreignObject class="markmap-foreign" x="8" y="0" style="opacity: 1;" width="279" height="21"><div xmlns="http://www.w3.org/1999/xhtml"><div xmlns="http://www.w3.org/1999/xhtml"><strong><mark>磷酸戊糖途径</mark></strong> -&gt; NADPH + 核糖-5-磷酸   </div></div></foreignObject></g><g data-depth="3" data-path="1.15.19" class="markmap-node" transform="translate(431, -278.234375)"><line stroke="#bcbd22" stroke-width="1.375" x1="-1" x2="201" y1="21.6875" y2="21.6875"/><foreignObject class="markmap-foreign" x="8" y="0" style="opacity: 1;" width="183" height="21"><div xmlns="http://www.w3.org/1999/xhtml"><div xmlns="http://www.w3.org/1999/xhtml">转变成**<mark>其他糖类</mark>**物质   </div></div></foreignObject></g><g data-depth="3" data-path="1.15.20" class="markmap-node" transform="translate(431, -250.859375)"><line stroke="#17becf" stroke-width="1.375" x1="-1" x2="207" y1="21.6875" y2="21.6875"/><foreignObject class="markmap-foreign" x="8" y="0" style="opacity: 1;" width="189" height="21"><div xmlns="http://www.w3.org/1999/xhtml"><div xmlns="http://www.w3.org/1999/xhtml">转变成**<mark>脂肪/氨基酸</mark>**等   </div></div></foreignObject></g><g data-depth="3" data-path="1.15.21" class="markmap-node" transform="translate(431, -223.484375)"><line stroke="#1f77b4" stroke-width="1.375" x1="-1" x2="206" y1="21.6875" y2="21.6875"/><foreignObject class="markmap-foreign" x="8" y="0" style="opacity: 1;" width="188" height="21"><div xmlns="http://www.w3.org/1999/xhtml"><div xmlns="http://www.w3.org/1999/xhtml">超肾糖阈 -&gt; **<mark>尿糖</mark>**排出   </div></div></foreignObject></g><g data-depth="2" data-path="1.15" class="markmap-node" transform="translate(203, -291.921875)"><line stroke="#9467bd" stroke-width="1.75" x1="-1" x2="150" y1="21.875" y2="21.875"/><circle stroke-width="1.5" r="6" stroke="#9467bd" fill="var(--markmap-circle-open-bg)" cx="148" cy="21.875"/><foreignObject class="markmap-foreign" x="8" y="0" style="opacity: 1;" width="132" height="21"><div xmlns="http://www.w3.org/1999/xhtml"><div xmlns="http://www.w3.org/1999/xhtml"><strong>血糖去路（5条）</strong>   </div></div></foreignObject></g><g data-depth="3" data-path="1.22.23" class="markmap-node" transform="translate(438, -191.109375)"><line stroke="#2ca02c" stroke-width="1.375" x1="-1" x2="371" y1="21.6875" y2="21.6875"/><foreignObject class="markmap-foreign" x="8" y="0" style="opacity: 1;" width="353" height="21"><div xmlns="http://www.w3.org/1999/xhtml"><div xmlns="http://www.w3.org/1999/xhtml">神经系统 -&gt; <strong>激素</strong>（主要）-&gt; 组织器官（关键酶）   </div></div></foreignObject></g><g data-depth="3" data-path="1.22.24" class="markmap-node" transform="translate(438, -163.734375)"><line stroke="#d62728" stroke-width="1.375" x1="-1" x2="302" y1="21.6875" y2="21.6875"/><foreignObject class="markmap-foreign" x="8" y="0" style="opacity: 1;" width="284" height="21"><div xmlns="http://www.w3.org/1999/xhtml"><div xmlns="http://www.w3.org/1999/xhtml"><strong>肝脏</strong> -&gt; 调节血糖浓度**<mark>最重要的器官</mark>**   </div></div></foreignObject></g><g data-depth="2" data-path="1.22" class="markmap-node" transform="translate(203, -177.421875)"><line stroke="#ff7f0e" stroke-width="1.75" x1="-1" x2="157" y1="21.875" y2="21.875"/><circle stroke-width="1.5" r="6" stroke="#ff7f0e" fill="var(--markmap-circle-open-bg)" cx="155" cy="21.875"/><foreignObject class="markmap-foreign" x="8" y="0" style="opacity: 1;" width="139" height="21"><div xmlns="http://www.w3.org/1999/xhtml"><div xmlns="http://www.w3.org/1999/xhtml"><strong>血糖调节三级水平</strong>   </div></div></foreignObject></g><g data-depth="3" data-path="1.25.26" class="markmap-node" transform="translate(555, -131.359375)"><line stroke="#8c564b" stroke-width="1.375" x1="-1" x2="242" y1="21.6875" y2="21.6875"/><foreignObject class="markmap-foreign" x="8" y="0" style="opacity: 1;" width="224" height="21"><div xmlns="http://www.w3.org/1999/xhtml"><div xmlns="http://www.w3.org/1999/xhtml"><mark><strong>胰岛素</strong></mark> -&gt; 机体<strong>唯一降血糖</strong>激素   </div></div></foreignObject></g><g data-depth="4" data-path="1.25.27.28" class="markmap-node" transform="translate(726, -98.984375)"><line stroke="#9467bd" stroke-width="1.1875" x1="-1" x2="260" y1="21.59375" y2="21.59375"/><foreignObject class="markmap-foreign" x="8" y="0" style="opacity: 1;" width="242" height="21"><div xmlns="http://www.w3.org/1999/xhtml"><div xmlns="http://www.w3.org/1999/xhtml">促进葡萄糖<strong>转运入细胞</strong>（GLUT）   </div></div></foreignObject></g><g data-depth="4" data-path="1.25.27.29" class="markmap-node" transform="translate(726, -71.796875)"><line stroke="#8c564b" stroke-width="1.1875" x1="-1" x2="242" y1="21.59375" y2="21.59375"/><foreignObject class="markmap-foreign" x="8" y="0" style="opacity: 1;" width="224" height="21"><div xmlns="http://www.w3.org/1999/xhtml"><div xmlns="http://www.w3.org/1999/xhtml">促进<strong>糖原合成</strong> -&gt; 激活糖原合酶   </div></div></foreignObject></g><g data-depth="4" data-path="1.25.27.30" class="markmap-node" transform="translate(726, -44.609375)"><line stroke="#e377c2" stroke-width="1.1875" x1="-1" x2="251" y1="21.59375" y2="21.59375"/><foreignObject class="markmap-foreign" x="8" y="0" style="opacity: 1;" width="233" height="21"><div xmlns="http://www.w3.org/1999/xhtml"><div xmlns="http://www.w3.org/1999/xhtml">促进<strong>糖氧化分解</strong> -&gt; 激活PFK-1等   </div></div></foreignObject></g><g data-depth="4" data-path="1.25.27.31" class="markmap-node" transform="translate(726, -17.421875)"><line stroke="#7f7f7f" stroke-width="1.1875" x1="-1" x2="125" y1="21.59375" y2="21.59375"/><foreignObject class="markmap-foreign" x="8" y="0" style="opacity: 1;" width="107" height="21"><div xmlns="http://www.w3.org/1999/xhtml"><div xmlns="http://www.w3.org/1999/xhtml">促进<strong>脂肪合成</strong>   </div></div></foreignObject></g><g data-depth="4" data-path="1.25.27.32" class="markmap-node" transform="translate(726, 9.765625)"><line stroke="#bcbd22" stroke-width="1.1875" x1="-1" x2="109" y1="21.59375" y2="21.59375"/><foreignObject class="markmap-foreign" x="8" y="0" style="opacity: 1;" width="91" height="21"><div xmlns="http://www.w3.org/1999/xhtml"><div xmlns="http://www.w3.org/1999/xhtml"><strong>抑制糖异生</strong>   </div></div></foreignObject></g><g data-depth="4" data-path="1.25.27.33" class="markmap-node" transform="translate(726, 36.953125)"><line stroke="#17becf" stroke-width="1.1875" x1="-1" x2="402" y1="21.59375" y2="21.59375"/><foreignObject class="markmap-foreign" x="8" y="0" style="opacity: 1;" width="384" height="21"><div xmlns="http://www.w3.org/1999/xhtml"><div xmlns="http://www.w3.org/1999/xhtml">促进氨基酸进入肌组织合成蛋白质 -&gt; 减少糖异生原料   </div></div></foreignObject></g><g data-depth="3" data-path="1.25.27" class="markmap-node" transform="translate(555, -31.015625)"><line stroke="#e377c2" stroke-width="1.375" x1="-1" x2="93" y1="21.6875" y2="21.6875"/><circle stroke-width="1.5" r="6" stroke="#e377c2" fill="var(--markmap-circle-open-bg)" cx="91" cy="21.6875"/><foreignObject class="markmap-foreign" x="8" y="0" style="opacity: 1;" width="75" height="21"><div xmlns="http://www.w3.org/1999/xhtml"><div xmlns="http://www.w3.org/1999/xhtml">作用机制   </div></div></foreignObject></g><g data-depth="2" data-path="1.25" class="markmap-node" transform="translate(203, -81.1875)"><line stroke="#9467bd" stroke-width="1.75" x1="-1" x2="274" y1="21.875" y2="21.875"/><circle stroke-width="1.5" r="6" stroke="#9467bd" fill="var(--markmap-circle-open-bg)" cx="272" cy="21.875"/><foreignObject class="markmap-foreign" x="8" y="0" style="opacity: 1;" width="256" height="21"><div xmlns="http://www.w3.org/1999/xhtml"><div xmlns="http://www.w3.org/1999/xhtml"><strong>降低血糖的激素 — 胰岛素（唯一）</strong>   </div></div></foreignObject></g><g data-depth="3" data-path="1.34.35" class="markmap-node" transform="translate(479, 69.140625)"><line stroke="#1f77b4" stroke-width="1.375" x1="-1" x2="337" y1="21.6875" y2="21.6875"/><foreignObject class="markmap-foreign" x="8" y="0" style="opacity: 1;" width="319" height="21"><div xmlns="http://www.w3.org/1999/xhtml"><div xmlns="http://www.w3.org/1999/xhtml"><strong><mark>胰高血糖素</mark></strong> -&gt; 促进肝糖原分解 + 促进糖异生   </div></div></foreignObject></g><g data-depth="3" data-path="1.34.36" class="markmap-node" transform="translate(479, 96.515625)"><line stroke="#ff7f0e" stroke-width="1.375" x1="-1" x2="321" y1="21.6875" y2="21.6875"/><foreignObject class="markmap-foreign" x="8" y="0" style="opacity: 1;" width="303" height="21"><div xmlns="http://www.w3.org/1999/xhtml"><div xmlns="http://www.w3.org/1999/xhtml"><strong><mark>肾上腺素</mark></strong> -&gt; 促进肌糖原分解 + 促进糖异生   </div></div></foreignObject></g><g data-depth="3" data-path="1.34.37" class="markmap-node" transform="translate(479, 123.890625)"><line stroke="#2ca02c" stroke-width="1.375" x1="-1" x2="305" y1="21.6875" y2="21.6875"/><foreignObject class="markmap-foreign" x="8" y="0" style="opacity: 1;" width="287" height="21"><div xmlns="http://www.w3.org/1999/xhtml"><div xmlns="http://www.w3.org/1999/xhtml"><strong><mark>糖皮质激素</mark></strong> -&gt; 促进糖异生 + 抑制糖利用   </div></div></foreignObject></g><g data-depth="3" data-path="1.34.38" class="markmap-node" transform="translate(479, 151.265625)"><line stroke="#1f77b4" stroke-width="1.375" x1="-1" x2="194" y1="21.6875" y2="21.6875"/><foreignObject class="markmap-foreign" x="8" y="0" style="opacity: 1;" width="176" height="21"><div xmlns="http://www.w3.org/1999/xhtml"><div xmlns="http://www.w3.org/1999/xhtml"><strong><mark>生长激素</mark></strong> -&gt; 抑制糖利用   </div></div></foreignObject></g><g data-depth="2" data-path="1.34" class="markmap-node" transform="translate(203, 110.203125)"><line stroke="#17becf" stroke-width="1.75" x1="-1" x2="198" y1="21.875" y2="21.875"/><circle stroke-width="1.5" r="6" stroke="#17becf" fill="var(--markmap-circle-open-bg)" cx="196" cy="21.875"/><foreignObject class="markmap-foreign" x="8" y="0" style="opacity: 1;" width="180" height="21"><div xmlns="http://www.w3.org/1999/xhtml"><div xmlns="http://www.w3.org/1999/xhtml"><strong>升高血糖的激素（4种）</strong>   </div></div></foreignObject></g><g data-depth="3" data-path="1.39.40" class="markmap-node" transform="translate(417, 183.640625)"><line stroke="#2ca02c" stroke-width="1.375" x1="-1" x2="338" y1="21.6875" y2="21.6875"/><foreignObject class="markmap-foreign" x="8" y="0" style="opacity: 1;" width="320" height="21"><div xmlns="http://www.w3.org/1999/xhtml"><div xmlns="http://www.w3.org/1999/xhtml"><strong>葡萄糖耐量</strong> -&gt; 人体对摄入葡萄糖的耐受能力   </div></div></foreignObject></g><g data-depth="3" data-path="1.39.41" class="markmap-node" transform="translate(417, 211.015625)"><line stroke="#d62728" stroke-width="1.375" x1="-1" x2="423" y1="21.6875" y2="21.6875"/><foreignObject class="markmap-foreign" x="8" y="0" style="opacity: 1;" width="405" height="21"><div xmlns="http://www.w3.org/1999/xhtml"><div xmlns="http://www.w3.org/1999/xhtml">正常 -&gt; 一次性大量摄入葡萄糖 -&gt; 血糖不会持续大幅升高   </div></div></foreignObject></g><g data-depth="4" data-path="1.39.42.43" class="markmap-node" transform="translate(723, 243.390625)"><line stroke="#8c564b" stroke-width="1.1875" x1="-1" x2="438" y1="21.59375" y2="21.59375"/><foreignObject class="markmap-foreign" x="8" y="0" style="opacity: 1;" width="420" height="21"><div xmlns="http://www.w3.org/1999/xhtml"><div xmlns="http://www.w3.org/1999/xhtml">空腹取血 -&gt; 口服75g葡萄糖 -&gt; 30min/1h/2h/3h取血测血糖   </div></div></foreignObject></g><g data-depth="4" data-path="1.39.42.44" class="markmap-node" transform="translate(723, 270.578125)"><line stroke="#e377c2" stroke-width="1.1875" x1="-1" x2="454" y1="21.59375" y2="21.59375"/><foreignObject class="markmap-foreign" x="8" y="0" style="opacity: 1;" width="436" height="21"><div xmlns="http://www.w3.org/1999/xhtml"><div xmlns="http://www.w3.org/1999/xhtml">用于 -&gt; 血糖在6-7mmol/L之间怀疑糖尿病时 -&gt; 帮助明确诊断   </div></div></foreignObject></g><g data-depth="3" data-path="1.39.42" class="markmap-node" transform="translate(417, 256.984375)"><line stroke="#9467bd" stroke-width="1.375" x1="-1" x2="228" y1="21.6875" y2="21.6875"/><circle stroke-width="1.5" r="6" stroke="#9467bd" fill="var(--markmap-circle-open-bg)" cx="226" cy="21.6875"/><foreignObject class="markmap-foreign" x="8" y="0" style="opacity: 1;" width="210" height="21"><div xmlns="http://www.w3.org/1999/xhtml"><div xmlns="http://www.w3.org/1999/xhtml"><strong>OGTT(口服葡萄糖耐量实验)</strong>   </div></div></foreignObject></g><g data-depth="2" data-path="1.39" class="markmap-node" transform="translate(203, 220.3125)"><line stroke="#ff7f0e" stroke-width="1.75" x1="-1" x2="136" y1="21.875" y2="21.875"/><circle stroke-width="1.5" r="6" stroke="#ff7f0e" fill="var(--markmap-circle-open-bg)" cx="134" cy="21.875"/><foreignObject class="markmap-foreign" x="8" y="0" style="opacity: 1;" width="118" height="21"><div xmlns="http://www.w3.org/1999/xhtml"><div xmlns="http://www.w3.org/1999/xhtml"><strong>糖耐量与OGTT</strong>   </div></div></foreignObject></g><g data-depth="4" data-path="1.45.46.47" class="markmap-node" transform="translate(689, 302.765625)"><line stroke="#17becf" stroke-width="1.1875" x1="-1" x2="282" y1="21.59375" y2="21.59375"/><foreignObject class="markmap-foreign" x="8" y="0" style="opacity: 1;" width="264" height="21"><div xmlns="http://www.w3.org/1999/xhtml"><div xmlns="http://www.w3.org/1999/xhtml">诊断标准 -&gt; 空腹血糖 &gt; <strong><mark>7.1 mmol/L</mark></strong>   </div></div></foreignObject></g><g data-depth="4" data-path="1.45.46.48" class="markmap-node" transform="translate(689, 329.953125)"><line stroke="#1f77b4" stroke-width="1.1875" x1="-1" x2="146" y1="21.59375" y2="21.59375"/><foreignObject class="markmap-foreign" x="8" y="0" style="opacity: 1;" width="128" height="21"><div xmlns="http://www.w3.org/1999/xhtml"><div xmlns="http://www.w3.org/1999/xhtml">超肾糖阈 -&gt; <strong><mark>糖尿</mark></strong>   </div></div></foreignObject></g><g data-depth="4" data-path="1.45.46.49" class="markmap-node" transform="translate(689, 357.140625)"><line stroke="#ff7f0e" stroke-width="1.1875" x1="-1" x2="460" y1="21.59375" y2="21.59375"/><foreignObject class="markmap-foreign" x="8" y="0" style="opacity: 1;" width="442" height="21"><div xmlns="http://www.w3.org/1999/xhtml"><div xmlns="http://www.w3.org/1999/xhtml">持续性高血糖+糖尿 -&gt; 主要见于**<mark>糖尿病(diabetes mellitus)</mark>**   </div></div></foreignObject></g><g data-depth="3" data-path="1.45.46" class="markmap-node" transform="translate(406, 329.953125)"><line stroke="#bcbd22" stroke-width="1.375" x1="-1" x2="205" y1="21.6875" y2="21.6875"/><circle stroke-width="1.5" r="6" stroke="#bcbd22" fill="var(--markmap-circle-open-bg)" cx="203" cy="21.6875"/><foreignObject class="markmap-foreign" x="8" y="0" style="opacity: 1;" width="187" height="21"><div xmlns="http://www.w3.org/1999/xhtml"><div xmlns="http://www.w3.org/1999/xhtml"><strong>高血糖(hyperglycemia)</strong>   </div></div></foreignObject></g><g data-depth="4" data-path="1.45.50.51" class="markmap-node" transform="translate(683, 389.328125)"><line stroke="#d62728" stroke-width="1.1875" x1="-1" x2="250" y1="21.59375" y2="21.59375"/><foreignObject class="markmap-foreign" x="8" y="0" style="opacity: 1;" width="232" height="21"><div xmlns="http://www.w3.org/1999/xhtml"><div xmlns="http://www.w3.org/1999/xhtml">诊断标准 -&gt; 血糖 &lt; <strong><mark>2.8 mmol/L</mark></strong>   </div></div></foreignObject></g><g data-depth="4" data-path="1.45.50.52" class="markmap-node" transform="translate(683, 416.515625)"><line stroke="#9467bd" stroke-width="1.1875" x1="-1" x2="461" y1="21.59375" y2="21.59375"/><foreignObject class="markmap-foreign" x="8" y="0" style="opacity: 1;" width="443" height="21"><div xmlns="http://www.w3.org/1999/xhtml"><div xmlns="http://www.w3.org/1999/xhtml">症状 -&gt; 头晕、倦怠无力、心悸 -&gt; 严重时**<mark>昏迷</mark>**(低血糖休克)   </div></div></foreignObject></g><g data-depth="4" data-path="1.45.50.53" class="markmap-node" transform="translate(683, 443.703125)"><line stroke="#8c564b" stroke-width="1.1875" x1="-1" x2="455" y1="21.59375" y2="21.59375"/><foreignObject class="markmap-foreign" x="8" y="0" style="opacity: 1;" width="437" height="21"><div xmlns="http://www.w3.org/1999/xhtml"><div xmlns="http://www.w3.org/1999/xhtml">原因 -&gt; 脑细胞能量主要来自葡萄糖氧化 -&gt; 低血糖影响脑功能   </div></div></foreignObject></g><g data-depth="4" data-path="1.45.50.54" class="markmap-node" transform="translate(683, 470.890625)"><line stroke="#e377c2" stroke-width="1.1875" x1="-1" x2="194" y1="21.59375" y2="21.59375"/><foreignObject class="markmap-foreign" x="8" y="0" style="opacity: 1;" width="176" height="21"><div xmlns="http://www.w3.org/1999/xhtml"><div xmlns="http://www.w3.org/1999/xhtml">急救 -&gt; 静脉补充<strong>葡萄糖</strong>   </div></div></foreignObject></g><g data-depth="3" data-path="1.45.50" class="markmap-node" transform="translate(406, 430.109375)"><line stroke="#2ca02c" stroke-width="1.375" x1="-1" x2="199" y1="21.6875" y2="21.6875"/><circle stroke-width="1.5" r="6" stroke="#2ca02c" fill="var(--markmap-circle-open-bg)" cx="197" cy="21.6875"/><foreignObject class="markmap-foreign" x="8" y="0" style="opacity: 1;" width="181" height="21"><div xmlns="http://www.w3.org/1999/xhtml"><div xmlns="http://www.w3.org/1999/xhtml"><strong>低血糖(hypoglycemia)</strong>   </div></div></foreignObject></g><g data-depth="2" data-path="1.45" class="markmap-node" transform="translate(203, 380.03125)"><line stroke="#7f7f7f" stroke-width="1.75" x1="-1" x2="125" y1="21.875" y2="21.875"/><circle stroke-width="1.5" r="6" stroke="#7f7f7f" fill="var(--markmap-circle-open-bg)" cx="123" cy="21.875"/><foreignObject class="markmap-foreign" x="8" y="0" style="opacity: 1;" width="107" height="21"><div xmlns="http://www.w3.org/1999/xhtml"><div xmlns="http://www.w3.org/1999/xhtml"><strong>血糖水平异常</strong>   </div></div></foreignObject></g><g data-depth="4" data-path="1.55.56.57" class="markmap-node" transform="translate(759, 503.078125)"><line stroke="#17becf" stroke-width="1.1875" x1="-1" x2="194" y1="21.59375" y2="21.59375"/><foreignObject class="markmap-foreign" x="8" y="0" style="opacity: 1;" width="176" height="21"><div xmlns="http://www.w3.org/1999/xhtml"><div xmlns="http://www.w3.org/1999/xhtml">主要供能物质 -&gt; <strong><mark>葡萄糖</mark></strong>   </div></div></foreignObject></g><g data-depth="4" data-path="1.55.56.58" class="markmap-node" transform="translate(759, 530.265625)"><line stroke="#1f77b4" stroke-width="1.1875" x1="-1" x2="377" y1="21.59375" y2="21.59375"/><foreignObject class="markmap-foreign" x="8" y="0" style="opacity: 1;" width="359" height="21"><div xmlns="http://www.w3.org/1999/xhtml"><div xmlns="http://www.w3.org/1999/xhtml">糖代谢 -&gt; 氧化分解供能 -&gt; 多余合成**<mark>糖原/脂肪</mark>**   </div></div></foreignObject></g><g data-depth="4" data-path="1.55.56.59" class="markmap-node" transform="translate(759, 557.453125)"><line stroke="#ff7f0e" stroke-width="1.1875" x1="-1" x2="231" y1="21.59375" y2="21.59375"/><foreignObject class="markmap-foreign" x="8" y="0" style="opacity: 1;" width="213" height="21"><div xmlns="http://www.w3.org/1999/xhtml"><div xmlns="http://www.w3.org/1999/xhtml">脂肪代谢 -&gt; 外源脂肪 -&gt; 储存   </div></div></foreignObject></g><g data-depth="4" data-path="1.55.56.60" class="markmap-node" transform="translate(759, 584.640625)"><line stroke="#2ca02c" stroke-width="1.1875" x1="-1" x2="361" y1="21.59375" y2="21.59375"/><foreignObject class="markmap-foreign" x="8" y="0" style="opacity: 1;" width="343" height="21"><div xmlns="http://www.w3.org/1999/xhtml"><div xmlns="http://www.w3.org/1999/xhtml">激素 -&gt; ==<strong>胰岛素</strong>==分泌增加 -&gt; 胰高血糖素抑制   </div></div></foreignObject></g><g data-depth="3" data-path="1.55.56" class="markmap-node" transform="translate(588, 543.859375)"><line stroke="#bcbd22" stroke-width="1.375" x1="-1" x2="93" y1="21.6875" y2="21.6875"/><circle stroke-width="1.5" r="6" stroke="#bcbd22" fill="var(--markmap-circle-open-bg)" cx="91" cy="21.6875"/><foreignObject class="markmap-foreign" x="8" y="0" style="opacity: 1;" width="75" height="21"><div xmlns="http://www.w3.org/1999/xhtml"><div xmlns="http://www.w3.org/1999/xhtml"><strong>饱食状态</strong>   </div></div></foreignObject></g><g data-depth="4" data-path="1.55.61.62" class="markmap-node" transform="translate(759, 616.828125)"><line stroke="#9467bd" stroke-width="1.1875" x1="-1" x2="419" y1="21.59375" y2="21.59375"/><foreignObject class="markmap-foreign" x="8" y="0" style="opacity: 1;" width="401" height="21"><div xmlns="http://www.w3.org/1999/xhtml"><div xmlns="http://www.w3.org/1999/xhtml">肝糖原基本耗尽 -&gt; 血糖降低 -&gt; **<mark>胰高血糖素</mark>**分泌增加   </div></div></foreignObject></g><g data-depth="4" data-path="1.55.61.63" class="markmap-node" transform="translate(759, 644.015625)"><line stroke="#8c564b" stroke-width="1.1875" x1="-1" x2="279" y1="21.59375" y2="21.59375"/><foreignObject class="markmap-foreign" x="8" y="0" style="opacity: 1;" width="261" height="21"><div xmlns="http://www.w3.org/1999/xhtml"><div xmlns="http://www.w3.org/1999/xhtml">糖代谢 -&gt; <strong><mark>肝糖异生增强</mark></strong> -&gt; 维持血糖   </div></div></foreignObject></g><g data-depth="4" data-path="1.55.61.64" class="markmap-node" transform="translate(759, 671.203125)"><line stroke="#e377c2" stroke-width="1.1875" x1="-1" x2="343" y1="21.59375" y2="21.59375"/><foreignObject class="markmap-foreign" x="8" y="0" style="opacity: 1;" width="325" height="21"><div xmlns="http://www.w3.org/1999/xhtml"><div xmlns="http://www.w3.org/1999/xhtml">脂肪代谢 -&gt; <strong><mark>脂肪动员增强</mark></strong> -&gt; 肝酮体合成增强   </div></div></foreignObject></g><g data-depth="4" data-path="1.55.61.65" class="markmap-node" transform="translate(759, 698.390625)"><line stroke="#7f7f7f" stroke-width="1.1875" x1="-1" x2="375" y1="21.59375" y2="21.59375"/><foreignObject class="markmap-foreign" x="8" y="0" style="opacity: 1;" width="357" height="21"><div xmlns="http://www.w3.org/1999/xhtml"><div xmlns="http://www.w3.org/1999/xhtml">蛋白质代谢 -&gt; <strong><mark>蛋白质分解增强</mark></strong> -&gt; 提供生糖氨基酸   </div></div></foreignObject></g><g data-depth="3" data-path="1.55.61" class="markmap-node" transform="translate(588, 657.609375)"><line stroke="#d62728" stroke-width="1.375" x1="-1" x2="93" y1="21.6875" y2="21.6875"/><circle stroke-width="1.5" r="6" stroke="#d62728" fill="var(--markmap-circle-open-bg)" cx="91" cy="21.6875"/><foreignObject class="markmap-foreign" x="8" y="0" style="opacity: 1;" width="75" height="21"><div xmlns="http://www.w3.org/1999/xhtml"><div xmlns="http://www.w3.org/1999/xhtml"><strong>短期饥饿</strong>   </div></div></foreignObject></g><g data-depth="2" data-path="1.55" class="markmap-node" transform="translate(203, 600.734375)"><line stroke="#7f7f7f" stroke-width="1.75" x1="-1" x2="307" y1="21.875" y2="21.875"/><circle stroke-width="1.5" r="6" stroke="#7f7f7f" fill="var(--markmap-circle-open-bg)" cx="305" cy="21.875"/><foreignObject class="markmap-foreign" x="8" y="0" style="opacity: 1;" width="289" height="21"><div xmlns="http://www.w3.org/1999/xhtml"><div xmlns="http://www.w3.org/1999/xhtml"><strong>饱食/饥饿状态代谢趋势（论述题核心）</strong>   </div></div></foreignObject></g><g data-depth="1" data-path="1" class="markmap-node" transform="translate(0, -10.5)"><line stroke="#1f77b4" stroke-width="2.5" x1="-1" x2="125" y1="22.25" y2="22.25"/><circle stroke-width="1.5" r="6" stroke="#1f77b4" fill="var(--markmap-circle-open-bg)" cx="123" cy="22.25"/><foreignObject class="markmap-foreign" x="8" y="0" style="opacity: 1;" width="107" height="21"><div xmlns="http://www.w3.org/1999/xhtml"><div xmlns="http://www.w3.org/1999/xhtml">血糖及其调节   </div></div></foreignObject></g></g></svg>