<svg xmlns="http://www.w3.org/2000/svg" class="w-full h-full leading-none markmap mm-lzdw27-1" style=""><style>.markmap{--markmap-max-width: 9999px;--markmap-a-color: #0097e6;--markmap-a-hover-color: #00a8ff;--markmap-code-bg: #f0f0f0;--markmap-code-color: #555;--markmap-highlight-bg: #ffeaa7;--markmap-table-border: 1px solid currentColor;--markmap-font: 300 16px/20px sans-serif;--markmap-circle-open-bg: #fff;--markmap-text-color: #333;--markmap-highlight-node-bg: #ff02;font:var(--markmap-font);color:var(--markmap-text-color)}.markmap-link{fill:none}.markmap-node&gt;circle{cursor:pointer}.markmap-foreign{display:inline-block}.markmap-foreign p{margin:0}.markmap-foreign a{color:var(--markmap-a-color)}.markmap-foreign a:hover{color:var(--markmap-a-hover-color)}.markmap-foreign code{padding:.25em;font-size:calc(1em - 2px);color:var(--markmap-code-color);background-color:var(--markmap-code-bg);border-radius:2px}.markmap-foreign pre{margin:0}.markmap-foreign pre&gt;code{display:block}.markmap-foreign del{text-decoration:line-through}.markmap-foreign em{font-style:italic}.markmap-foreign strong{font-weight:700}.markmap-foreign mark{background:var(--markmap-highlight-bg)}.markmap-foreign table,.markmap-foreign th,.markmap-foreign td{border-collapse:collapse;border:var(--markmap-table-border)}.markmap-foreign img{display:inline-block}.markmap-foreign svg{fill:currentColor}.markmap-foreign&gt;div{width:var(--markmap-max-width);text-align:left}.markmap-foreign&gt;div&gt;div{display:inline-block}.markmap-highlight rect{fill:var(--markmap-highlight-node-bg)}.markmap-dark .markmap{--markmap-code-bg: #1a1b26;--markmap-code-color: #ddd;--markmap-circle-open-bg: #444;--markmap-text-color: #eee}</style><g transform="translate(70.14847280727724,384.86919958503523) scale(0.4685203204110061)"><path class="markmap-link" data-depth="3" data-path="1.2.3" d="M371,-439.5C411,-439.5,411,-467.062,451,-467.062" stroke-width="1.375" stroke="rgb(148, 103, 189)"/><path class="markmap-link" data-depth="3" data-path="1.2.4" d="M371,-439.5C411,-439.5,411,-439.687,451,-439.687" stroke-width="1.375" stroke="rgb(255, 127, 14)"/><path class="markmap-link" data-depth="3" data-path="1.2.5" d="M371,-439.5C411,-439.5,411,-412.312,451,-412.312" stroke-width="1.375" stroke="rgb(44, 160, 44)"/><path class="markmap-link" data-depth="4" data-path="1.6.8.9" d="M771,-306.781C811,-306.781,811,-347.656,851,-347.656" stroke-width="1.1875" stroke="rgb(227, 119, 194)"/><path class="markmap-link" data-depth="4" data-path="1.6.8.10" d="M771,-306.781C811,-306.781,811,-320.469,851,-320.469" stroke-width="1.1875" stroke="rgb(127, 127, 127)"/><path class="markmap-link" data-depth="4" data-path="1.6.8.11" d="M771,-306.781C811,-306.781,811,-293.281,851,-293.281" stroke-width="1.1875" stroke="rgb(188, 189, 34)"/><path class="markmap-link" data-depth="4" data-path="1.6.8.12" d="M771,-306.781C811,-306.781,811,-266.094,851,-266.094" stroke-width="1.1875" stroke="rgb(23, 190, 207)"/><path class="markmap-link" data-depth="4" data-path="1.6.13.14" d="M958,-206.625C998,-206.625,998,-233.906,1038,-233.906" stroke-width="1.1875" stroke="rgb(255, 127, 14)"/><path class="markmap-link" data-depth="4" data-path="1.6.13.15" d="M958,-206.625C998,-206.625,998,-206.719,1038,-206.719" stroke-width="1.1875" stroke="rgb(44, 160, 44)"/><path class="markmap-link" data-depth="4" data-path="1.6.13.16" d="M958,-206.625C998,-206.625,998,-179.531,1038,-179.531" stroke-width="1.1875" stroke="rgb(214, 39, 40)"/><path class="markmap-link" data-depth="3" data-path="1.6.7" d="M492,-263.406C532,-263.406,532,-379.937,572,-379.937" stroke-width="1.375" stroke="rgb(148, 103, 189)"/><path class="markmap-link" data-depth="3" data-path="1.6.8" d="M492,-263.406C532,-263.406,532,-306.781,572,-306.781" stroke-width="1.375" stroke="rgb(140, 86, 75)"/><path class="markmap-link" data-depth="3" data-path="1.6.13" d="M492,-263.406C532,-263.406,532,-206.625,572,-206.625" stroke-width="1.375" stroke="rgb(31, 119, 180)"/><path class="markmap-link" data-depth="3" data-path="1.6.17" d="M492,-263.406C532,-263.406,532,-147.25,572,-147.25" stroke-width="1.375" stroke="rgb(148, 103, 189)"/><path class="markmap-link" data-depth="4" data-path="1.18.24.25" d="M786,54.188C826,54.188,826,26.906,866,26.906" stroke-width="1.1875" stroke="rgb(44, 160, 44)"/><path class="markmap-link" data-depth="4" data-path="1.18.24.26" d="M786,54.188C826,54.188,826,54.094,866,54.094" stroke-width="1.1875" stroke="rgb(214, 39, 40)"/><path class="markmap-link" data-depth="4" data-path="1.18.24.27" d="M786,54.188C826,54.188,826,81.281,866,81.281" stroke-width="1.1875" stroke="rgb(148, 103, 189)"/><path class="markmap-link" data-depth="3" data-path="1.18.19" d="M492,-30.156C532,-30.156,532,-114.875,572,-114.875" stroke-width="1.375" stroke="rgb(227, 119, 194)"/><path class="markmap-link" data-depth="3" data-path="1.18.20" d="M492,-30.156C532,-30.156,532,-87.5,572,-87.5" stroke-width="1.375" stroke="rgb(127, 127, 127)"/><path class="markmap-link" data-depth="3" data-path="1.18.21" d="M492,-30.156C532,-30.156,532,-60.125,572,-60.125" stroke-width="1.375" stroke="rgb(188, 189, 34)"/><path class="markmap-link" data-depth="3" data-path="1.18.22" d="M492,-30.156C532,-30.156,532,-32.75,572,-32.75" stroke-width="1.375" stroke="rgb(23, 190, 207)"/><path class="markmap-link" data-depth="3" data-path="1.18.23" d="M492,-30.156C532,-30.156,532,-5.375,572,-5.375" stroke-width="1.375" stroke="rgb(31, 119, 180)"/><path class="markmap-link" data-depth="3" data-path="1.18.24" d="M492,-30.156C532,-30.156,532,54.188,572,54.188" stroke-width="1.375" stroke="rgb(255, 127, 14)"/><path class="markmap-link" data-depth="3" data-path="1.28.29" d="M473,113.75C513,113.75,513,113.563,553,113.563" stroke-width="1.375" stroke="rgb(227, 119, 194)"/><path class="markmap-link" data-depth="3" data-path="1.30.31" d="M508,187.188C548,187.188,548,145.938,588,145.938" stroke-width="1.375" stroke="rgb(188, 189, 34)"/><path class="markmap-link" data-depth="3" data-path="1.30.32" d="M508,187.188C548,187.188,548,173.313,588,173.313" stroke-width="1.375" stroke="rgb(23, 190, 207)"/><path class="markmap-link" data-depth="3" data-path="1.30.33" d="M508,187.188C548,187.188,548,200.688,588,200.688" stroke-width="1.375" stroke="rgb(31, 119, 180)"/><path class="markmap-link" data-depth="3" data-path="1.30.34" d="M508,187.188C548,187.188,548,228.063,588,228.063" stroke-width="1.375" stroke="rgb(255, 127, 14)"/><path class="markmap-link" data-depth="3" data-path="1.35.36" d="M355,301.688C395,301.688,395,260.438,435,260.438" stroke-width="1.375" stroke="rgb(214, 39, 40)"/><path class="markmap-link" data-depth="3" data-path="1.35.37" d="M355,301.688C395,301.688,395,287.813,435,287.813" stroke-width="1.375" stroke="rgb(148, 103, 189)"/><path class="markmap-link" data-depth="3" data-path="1.35.38" d="M355,301.688C395,301.688,395,315.188,435,315.188" stroke-width="1.375" stroke="rgb(140, 86, 75)"/><path class="markmap-link" data-depth="3" data-path="1.35.39" d="M355,301.688C395,301.688,395,342.563,435,342.563" stroke-width="1.375" stroke="rgb(227, 119, 194)"/><path class="markmap-link" data-depth="3" data-path="1.40.41" d="M371,388.813C411,388.813,411,374.938,451,374.938" stroke-width="1.375" stroke="rgb(188, 189, 34)"/><path class="markmap-link" data-depth="3" data-path="1.40.42" d="M371,388.813C411,388.813,411,402.313,451,402.313" stroke-width="1.375" stroke="rgb(23, 190, 207)"/><path class="markmap-link" data-depth="3" data-path="1.43.44" d="M451,462.25C491,462.25,491,434.688,531,434.688" stroke-width="1.375" stroke="rgb(255, 127, 14)"/><path class="markmap-link" data-depth="3" data-path="1.43.45" d="M451,462.25C491,462.25,491,462.063,531,462.063" stroke-width="1.375" stroke="rgb(44, 160, 44)"/><path class="markmap-link" data-depth="3" data-path="1.43.46" d="M451,462.25C491,462.25,491,489.438,531,489.438" stroke-width="1.375" stroke="rgb(214, 39, 40)"/><path class="markmap-link" data-depth="2" data-path="1.2" d="M184,11.75C224,11.75,224,-439.5,264,-439.5" stroke-width="1.75" stroke="rgb(255, 127, 14)"/><path class="markmap-link" data-depth="2" data-path="1.6" d="M184,11.75C224,11.75,224,-263.406,264,-263.406" stroke-width="1.75" stroke="rgb(214, 39, 40)"/><path class="markmap-link" data-depth="2" data-path="1.18" d="M184,11.75C224,11.75,224,-30.156,264,-30.156" stroke-width="1.75" stroke="rgb(140, 86, 75)"/><path class="markmap-link" data-depth="2" data-path="1.28" d="M184,11.75C224,11.75,224,113.75,264,113.75" stroke-width="1.75" stroke="rgb(140, 86, 75)"/><path class="markmap-link" data-depth="2" data-path="1.30" d="M184,11.75C224,11.75,224,187.188,264,187.188" stroke-width="1.75" stroke="rgb(127, 127, 127)"/><path class="markmap-link" data-depth="2" data-path="1.35" d="M184,11.75C224,11.75,224,301.688,264,301.688" stroke-width="1.75" stroke="rgb(44, 160, 44)"/><path class="markmap-link" data-depth="2" data-path="1.40" d="M184,11.75C224,11.75,224,388.813,264,388.813" stroke-width="1.75" stroke="rgb(127, 127, 127)"/><path class="markmap-link" data-depth="2" data-path="1.43" d="M184,11.75C224,11.75,224,462.25,264,462.25" stroke-width="1.75" stroke="rgb(31, 119, 180)"/><g class="markmap-highlight"/><g data-depth="3" data-path="1.2.3" class="markmap-node" transform="translate(451, -488.75)"><line stroke="#9467bd" stroke-width="1.375" x1="-1" x2="646" y1="21.6875" y2="21.6875"/><foreignObject class="markmap-foreign" x="8" y="0" style="opacity: 1;" width="628" height="21"><div xmlns="http://www.w3.org/1999/xhtml"><div xmlns="http://www.w3.org/1999/xhtml">缺氧/氧利用障碍 -&gt; 葡萄糖/糖原 -&gt; 分解为**<mark>丙酮酸</mark>** -&gt; 还原为**<mark>乳酸</mark>** -&gt; 产生少量能量   </div></div></foreignObject></g><g data-depth="3" data-path="1.2.4" class="markmap-node" transform="translate(451, -461.375)"><line stroke="#ff7f0e" stroke-width="1.375" x1="-1" x2="258" y1="21.6875" y2="21.6875"/><foreignObject class="markmap-foreign" x="8" y="0" style="opacity: 1;" width="240" height="21"><div xmlns="http://www.w3.org/1999/xhtml"><div xmlns="http://www.w3.org/1999/xhtml">从葡萄糖到丙酮酸 -&gt; 称为<strong>糖酵解</strong>   </div></div></foreignObject></g><g data-depth="3" data-path="1.2.5" class="markmap-node" transform="translate(451, -434)"><line stroke="#2ca02c" stroke-width="1.375" x1="-1" x2="178" y1="21.6875" y2="21.6875"/><foreignObject class="markmap-foreign" x="8" y="0" style="opacity: 1;" width="160" height="21"><div xmlns="http://www.w3.org/1999/xhtml"><div xmlns="http://www.w3.org/1999/xhtml"><strong>反应部位</strong> -&gt; <mark><strong>胞质溶胶</strong></mark>   </div></div></foreignObject></g><g data-depth="2" data-path="1.2" class="markmap-node" transform="translate(264, -461.375)"><line stroke="#ff7f0e" stroke-width="1.75" x1="-1" x2="109" y1="21.875" y2="21.875"/><circle stroke-width="1.5" r="6" stroke="#ff7f0e" fill="var(--markmap-circle-open-bg)" cx="107" cy="21.875"/><foreignObject class="markmap-foreign" x="8" y="0" style="opacity: 1;" width="91" height="21"><div xmlns="http://www.w3.org/1999/xhtml"><div xmlns="http://www.w3.org/1999/xhtml"><strong>糖酵解概念</strong>   </div></div></foreignObject></g><g data-depth="3" data-path="1.6.7" class="markmap-node" transform="translate(572, -401.625)"><line stroke="#9467bd" stroke-width="1.375" x1="-1" x2="315" y1="21.6875" y2="21.6875"/><foreignObject class="markmap-foreign" x="8" y="0" style="opacity: 1;" width="297" height="21"><div xmlns="http://www.w3.org/1999/xhtml"><div xmlns="http://www.w3.org/1999/xhtml">葡萄糖 -&gt; 2×3-磷酸甘油醛 -&gt; 消耗 <mark><strong>2 ATP</strong></mark>   </div></div></foreignObject></g><g data-depth="4" data-path="1.6.8.9" class="markmap-node" transform="translate(851, -369.25)"><line stroke="#e377c2" stroke-width="1.1875" x1="-1" x2="300" y1="21.59375" y2="21.59375"/><foreignObject class="markmap-foreign" x="8" y="0" style="opacity: 1;" width="282" height="21"><div xmlns="http://www.w3.org/1999/xhtml"><div xmlns="http://www.w3.org/1999/xhtml">催化：葡萄糖 -&gt; <strong><mark>葡糖-6-磷酸</mark></strong> -&gt; 不可逆   </div></div></foreignObject></g><g data-depth="4" data-path="1.6.8.10" class="markmap-node" transform="translate(851, -342.0625)"><line stroke="#7f7f7f" stroke-width="1.1875" x1="-1" x2="480" y1="21.59375" y2="21.59375"/><foreignObject class="markmap-foreign" x="8" y="0" style="opacity: 1;" width="462" height="21"><div xmlns="http://www.w3.org/1999/xhtml"><div xmlns="http://www.w3.org/1999/xhtml">肝内为**<mark>葡萄糖激酶</mark>**(HK-IV) -&gt; Km=10mmol/L -&gt; 维持血糖平衡   </div></div></foreignObject></g><g data-depth="4" data-path="1.6.8.11" class="markmap-node" transform="translate(851, -314.875)"><line stroke="#bcbd22" stroke-width="1.1875" x1="-1" x2="311" y1="21.59375" y2="21.59375"/><foreignObject class="markmap-foreign" x="8" y="0" style="opacity: 1;" width="293" height="21"><div xmlns="http://www.w3.org/1999/xhtml"><div xmlns="http://www.w3.org/1999/xhtml">变构抑制剂 -&gt; <strong><mark>葡糖-6-磷酸、长链脂肪酸</mark></strong>   </div></div></foreignObject></g><g data-depth="4" data-path="1.6.8.12" class="markmap-node" transform="translate(851, -287.6875)"><line stroke="#17becf" stroke-width="1.1875" x1="-1" x2="166" y1="21.59375" y2="21.59375"/><foreignObject class="markmap-foreign" x="8" y="0" style="opacity: 1;" width="148" height="21"><div xmlns="http://www.w3.org/1999/xhtml"><div xmlns="http://www.w3.org/1999/xhtml">必需激活剂 -&gt; <strong><mark>Mg²⁺</mark></strong>   </div></div></foreignObject></g><g data-depth="3" data-path="1.6.8" class="markmap-node" transform="translate(572, -328.46875)"><line stroke="#8c564b" stroke-width="1.375" x1="-1" x2="201" y1="21.6875" y2="21.6875"/><circle stroke-width="1.5" r="6" stroke="#8c564b" fill="var(--markmap-circle-open-bg)" cx="199" cy="21.6875"/><foreignObject class="markmap-foreign" x="8" y="0" style="opacity: 1;" width="183" height="21"><div xmlns="http://www.w3.org/1999/xhtml"><div xmlns="http://www.w3.org/1999/xhtml"><strong>关键酶1</strong>：<strong><mark>己糖激酶(HK)</mark></strong>   </div></div></foreignObject></g><g data-depth="4" data-path="1.6.13.14" class="markmap-node" transform="translate(1038, -255.5)"><line stroke="#ff7f0e" stroke-width="1.1875" x1="-1" x2="366" y1="21.59375" y2="21.59375"/><foreignObject class="markmap-foreign" x="8" y="0" style="opacity: 1;" width="348" height="21"><div xmlns="http://www.w3.org/1999/xhtml"><div xmlns="http://www.w3.org/1999/xhtml">催化：果糖-6-磷酸 -&gt; <strong><mark>果糖-1,6-双磷酸</mark></strong> -&gt; 不可逆   </div></div></foreignObject></g><g data-depth="4" data-path="1.6.13.15" class="markmap-node" transform="translate(1038, -228.3125)"><line stroke="#2ca02c" stroke-width="1.1875" x1="-1" x2="344" y1="21.59375" y2="21.59375"/><foreignObject class="markmap-foreign" x="8" y="0" style="opacity: 1;" width="326" height="21"><div xmlns="http://www.w3.org/1999/xhtml"><div xmlns="http://www.w3.org/1999/xhtml">变构激活剂 -&gt; <strong><mark>AMP、ADP、果糖-2,6-双磷酸</mark></strong>   </div></div></foreignObject></g><g data-depth="4" data-path="1.6.13.16" class="markmap-node" transform="translate(1038, -201.125)"><line stroke="#d62728" stroke-width="1.1875" x1="-1" x2="319" y1="21.59375" y2="21.59375"/><foreignObject class="markmap-foreign" x="8" y="0" style="opacity: 1;" width="301" height="21"><div xmlns="http://www.w3.org/1999/xhtml"><div xmlns="http://www.w3.org/1999/xhtml">变构抑制剂 -&gt; <strong><mark>ATP、柠檬酸、长链脂肪酸</mark></strong>   </div></div></foreignObject></g><g data-depth="3" data-path="1.6.13" class="markmap-node" transform="translate(572, -228.3125)"><line stroke="#1f77b4" stroke-width="1.375" x1="-1" x2="388" y1="21.6875" y2="21.6875"/><circle stroke-width="1.5" r="6" stroke="#1f77b4" fill="var(--markmap-circle-open-bg)" cx="386" cy="21.6875"/><foreignObject class="markmap-foreign" x="8" y="0" style="opacity: 1;" width="370" height="21"><div xmlns="http://www.w3.org/1999/xhtml"><div xmlns="http://www.w3.org/1999/xhtml"><strong>关键酶2</strong>：<strong><mark>磷酸果糖激酶-1(PFK-1)</mark></strong> -&gt; 最重要限速酶   </div></div></foreignObject></g><g data-depth="3" data-path="1.6.17" class="markmap-node" transform="translate(572, -168.9375)"><line stroke="#9467bd" stroke-width="1.375" x1="-1" x2="489" y1="21.6875" y2="21.6875"/><foreignObject class="markmap-foreign" x="8" y="0" style="opacity: 1;" width="471" height="21"><div xmlns="http://www.w3.org/1999/xhtml"><div xmlns="http://www.w3.org/1999/xhtml">醛缩酶 -&gt; 果糖-1,6-双磷酸 -&gt; 磷酸二羟丙酮 + 3-磷酸甘油醛 -&gt; 可逆   </div></div></foreignObject></g><g data-depth="2" data-path="1.6" class="markmap-node" transform="translate(264, -285.28125)"><line stroke="#d62728" stroke-width="1.75" x1="-1" x2="230" y1="21.875" y2="21.875"/><circle stroke-width="1.5" r="6" stroke="#d62728" fill="var(--markmap-circle-open-bg)" cx="228" cy="21.875"/><foreignObject class="markmap-foreign" x="8" y="0" style="opacity: 1;" width="212" height="21"><div xmlns="http://www.w3.org/1999/xhtml"><div xmlns="http://www.w3.org/1999/xhtml"><strong>第一阶段：耗能阶段（5步）</strong>   </div></div></foreignObject></g><g data-depth="3" data-path="1.18.19" class="markmap-node" transform="translate(572, -136.5625)"><line stroke="#e377c2" stroke-width="1.375" x1="-1" x2="241" y1="21.6875" y2="21.6875"/><foreignObject class="markmap-foreign" x="8" y="0" style="opacity: 1;" width="223" height="21"><div xmlns="http://www.w3.org/1999/xhtml"><div xmlns="http://www.w3.org/1999/xhtml">2×3-磷酸甘油醛 -&gt; 2×丙酮酸   </div></div></foreignObject></g><g data-depth="3" data-path="1.18.20" class="markmap-node" transform="translate(572, -109.1875)"><line stroke="#7f7f7f" stroke-width="1.375" x1="-1" x2="513" y1="21.6875" y2="21.6875"/><foreignObject class="markmap-foreign" x="8" y="0" style="opacity: 1;" width="495" height="21"><div xmlns="http://www.w3.org/1999/xhtml"><div xmlns="http://www.w3.org/1999/xhtml"><strong>第6步</strong>：3-磷酸甘油醛 -&gt; <strong>1,3-二磷酸甘油酸</strong>(高能化合物) -&gt; 生成NADH   </div></div></foreignObject></g><g data-depth="3" data-path="1.18.21" class="markmap-node" transform="translate(572, -81.8125)"><line stroke="#bcbd22" stroke-width="1.375" x1="-1" x2="619" y1="21.6875" y2="21.6875"/><foreignObject class="markmap-foreign" x="8" y="0" style="opacity: 1;" width="601" height="21"><div xmlns="http://www.w3.org/1999/xhtml"><div xmlns="http://www.w3.org/1999/xhtml"><strong>第7步</strong>：1,3-二磷酸甘油酸 -&gt; 3-磷酸甘油酸 -&gt; 第一个**<mark>底物水平磷酸化</mark>** -&gt; 产生 <strong>ATP</strong>   </div></div></foreignObject></g><g data-depth="3" data-path="1.18.22" class="markmap-node" transform="translate(572, -54.4375)"><line stroke="#17becf" stroke-width="1.375" x1="-1" x2="443" y1="21.6875" y2="21.6875"/><foreignObject class="markmap-foreign" x="8" y="0" style="opacity: 1;" width="425" height="21"><div xmlns="http://www.w3.org/1999/xhtml"><div xmlns="http://www.w3.org/1999/xhtml">第8步：3-磷酸甘油酸 -&gt; 2-磷酸甘油酸 -&gt; 磷酸甘油酸变位酶   </div></div></foreignObject></g><g data-depth="3" data-path="1.18.23" class="markmap-node" transform="translate(572, -27.0625)"><line stroke="#1f77b4" stroke-width="1.375" x1="-1" x2="321" y1="21.6875" y2="21.6875"/><foreignObject class="markmap-foreign" x="8" y="0" style="opacity: 1;" width="303" height="21"><div xmlns="http://www.w3.org/1999/xhtml"><div xmlns="http://www.w3.org/1999/xhtml">第9步：2-磷酸甘油酸 -&gt; <strong>PEP</strong>(高能化合物)   </div></div></foreignObject></g><g data-depth="4" data-path="1.18.24.25" class="markmap-node" transform="translate(866, 5.3125)"><line stroke="#2ca02c" stroke-width="1.1875" x1="-1" x2="459" y1="21.59375" y2="21.59375"/><foreignObject class="markmap-foreign" x="8" y="0" style="opacity: 1;" width="441" height="21"><div xmlns="http://www.w3.org/1999/xhtml"><div xmlns="http://www.w3.org/1999/xhtml">催化：PEP -&gt; <strong><mark>丙酮酸</mark></strong> -&gt; 不可逆 -&gt; 底物水平磷酸化 -&gt; 产生<strong>ATP</strong>   </div></div></foreignObject></g><g data-depth="4" data-path="1.18.24.26" class="markmap-node" transform="translate(866, 32.5)"><line stroke="#d62728" stroke-width="1.1875" x1="-1" x2="366" y1="21.59375" y2="21.59375"/><foreignObject class="markmap-foreign" x="8" y="0" style="opacity: 1;" width="348" height="21"><div xmlns="http://www.w3.org/1999/xhtml"><div xmlns="http://www.w3.org/1999/xhtml">变构抑制剂 -&gt; <strong><mark>ATP、柠檬酸、乙酰CoA、丙氨酸</mark></strong>   </div></div></foreignObject></g><g data-depth="4" data-path="1.18.24.27" class="markmap-node" transform="translate(866, 59.6875)"><line stroke="#9467bd" stroke-width="1.1875" x1="-1" x2="189" y1="21.59375" y2="21.59375"/><foreignObject class="markmap-foreign" x="8" y="0" style="opacity: 1;" width="171" height="21"><div xmlns="http://www.w3.org/1999/xhtml"><div xmlns="http://www.w3.org/1999/xhtml">共价修饰：<strong><mark>磷酸化失活</mark></strong>   </div></div></foreignObject></g><g data-depth="3" data-path="1.18.24" class="markmap-node" transform="translate(572, 32.5)"><line stroke="#ff7f0e" stroke-width="1.375" x1="-1" x2="216" y1="21.6875" y2="21.6875"/><circle stroke-width="1.5" r="6" stroke="#ff7f0e" fill="var(--markmap-circle-open-bg)" cx="214" cy="21.6875"/><foreignObject class="markmap-foreign" x="8" y="0" style="opacity: 1;" width="198" height="21"><div xmlns="http://www.w3.org/1999/xhtml"><div xmlns="http://www.w3.org/1999/xhtml"><strong>关键酶3</strong>：<strong><mark>丙酮酸激酶(PK)</mark></strong>   </div></div></foreignObject></g><g data-depth="2" data-path="1.18" class="markmap-node" transform="translate(264, -52.03125)"><line stroke="#8c564b" stroke-width="1.75" x1="-1" x2="230" y1="21.875" y2="21.875"/><circle stroke-width="1.5" r="6" stroke="#8c564b" fill="var(--markmap-circle-open-bg)" cx="228" cy="21.875"/><foreignObject class="markmap-foreign" x="8" y="0" style="opacity: 1;" width="212" height="21"><div xmlns="http://www.w3.org/1999/xhtml"><div xmlns="http://www.w3.org/1999/xhtml"><strong>第二阶段：产能阶段（5步）</strong>   </div></div></foreignObject></g><g data-depth="3" data-path="1.28.29" class="markmap-node" transform="translate(553, 91.875)"><line stroke="#e377c2" stroke-width="1.375" x1="-1" x2="389" y1="21.6875" y2="21.6875"/><foreignObject class="markmap-foreign" x="8" y="0" style="opacity: 1;" width="371" height="21"><div xmlns="http://www.w3.org/1999/xhtml"><div xmlns="http://www.w3.org/1999/xhtml">NADH+H⁺来自第6步 -&gt; 供氢给丙酮酸 -&gt; 还原为乳酸   </div></div></foreignObject></g><g data-depth="2" data-path="1.28" class="markmap-node" transform="translate(264, 91.875)"><line stroke="#8c564b" stroke-width="1.75" x1="-1" x2="211" y1="21.875" y2="21.875"/><circle stroke-width="1.5" r="6" stroke="#8c564b" fill="var(--markmap-circle-open-bg)" cx="209" cy="21.875"/><foreignObject class="markmap-foreign" x="8" y="0" style="opacity: 1;" width="193" height="21"><div xmlns="http://www.w3.org/1999/xhtml"><div xmlns="http://www.w3.org/1999/xhtml"><strong>第三阶段：丙酮酸 -&gt; 乳酸</strong>   </div></div></foreignObject></g><g data-depth="3" data-path="1.30.31" class="markmap-node" transform="translate(588, 124.25)"><line stroke="#bcbd22" stroke-width="1.375" x1="-1" x2="194" y1="21.6875" y2="21.6875"/><foreignObject class="markmap-foreign" x="8" y="0" style="opacity: 1;" width="176" height="21"><div xmlns="http://www.w3.org/1999/xhtml"><div xmlns="http://www.w3.org/1999/xhtml">方式 -&gt; <strong><mark>底物水平磷酸化</mark></strong>   </div></div></foreignObject></g><g data-depth="3" data-path="1.30.32" class="markmap-node" transform="translate(588, 151.625)"><line stroke="#17becf" stroke-width="1.375" x1="-1" x2="368" y1="21.6875" y2="21.6875"/><foreignObject class="markmap-foreign" x="8" y="0" style="opacity: 1;" width="350" height="21"><div xmlns="http://www.w3.org/1999/xhtml"><div xmlns="http://www.w3.org/1999/xhtml">净生成ATP -&gt; 从葡萄糖：<mark><strong>2 ATP</strong></mark> / 从糖原：<mark><strong>3 ATP</strong></mark>   </div></div></foreignObject></g><g data-depth="3" data-path="1.30.33" class="markmap-node" transform="translate(588, 179)"><line stroke="#1f77b4" stroke-width="1.375" x1="-1" x2="362" y1="21.6875" y2="21.6875"/><foreignObject class="markmap-foreign" x="8" y="0" style="opacity: 1;" width="344" height="21"><div xmlns="http://www.w3.org/1999/xhtml"><div xmlns="http://www.w3.org/1999/xhtml">3步不可逆反应 / 3个关键酶 -&gt; <strong><mark>HK、PFK-1、PK</mark></strong>   </div></div></foreignObject></g><g data-depth="3" data-path="1.30.34" class="markmap-node" transform="translate(588, 206.375)"><line stroke="#ff7f0e" stroke-width="1.375" x1="-1" x2="251" y1="21.6875" y2="21.6875"/><foreignObject class="markmap-foreign" x="8" y="0" style="opacity: 1;" width="233" height="21"><div xmlns="http://www.w3.org/1999/xhtml"><div xmlns="http://www.w3.org/1999/xhtml">PFK-1活性最低 -&gt; <strong><mark>最重要限速酶</mark></strong>   </div></div></foreignObject></g><g data-depth="2" data-path="1.30" class="markmap-node" transform="translate(264, 165.3125)"><line stroke="#7f7f7f" stroke-width="1.75" x1="-1" x2="246" y1="21.875" y2="21.875"/><circle stroke-width="1.5" r="6" stroke="#7f7f7f" fill="var(--markmap-circle-open-bg)" cx="244" cy="21.875"/><foreignObject class="markmap-foreign" x="8" y="0" style="opacity: 1;" width="228" height="21"><div xmlns="http://www.w3.org/1999/xhtml"><div xmlns="http://www.w3.org/1999/xhtml"><strong>糖酵解总产出（1分子葡萄糖）</strong>   </div></div></foreignObject></g><g data-depth="3" data-path="1.35.36" class="markmap-node" transform="translate(435, 238.75)"><line stroke="#d62728" stroke-width="1.375" x1="-1" x2="210" y1="21.6875" y2="21.6875"/><foreignObject class="markmap-foreign" x="8" y="0" style="opacity: 1;" width="192" height="21"><div xmlns="http://www.w3.org/1999/xhtml"><div xmlns="http://www.w3.org/1999/xhtml">缺氧时快速供能 -&gt; <strong><mark>不耗氧</mark></strong>   </div></div></foreignObject></g><g data-depth="3" data-path="1.35.37" class="markmap-node" transform="translate(435, 266.125)"><line stroke="#9467bd" stroke-width="1.375" x1="-1" x2="226" y1="21.6875" y2="21.6875"/><foreignObject class="markmap-foreign" x="8" y="0" style="opacity: 1;" width="208" height="21"><div xmlns="http://www.w3.org/1999/xhtml"><div xmlns="http://www.w3.org/1999/xhtml"><strong>成熟红细胞</strong> -&gt; <strong><mark>唯一供能途径</mark></strong>   </div></div></foreignObject></g><g data-depth="3" data-path="1.35.38" class="markmap-node" transform="translate(435, 293.5)"><line stroke="#8c564b" stroke-width="1.375" x1="-1" x2="349" y1="21.6875" y2="21.6875"/><foreignObject class="markmap-foreign" x="8" y="0" style="opacity: 1;" width="331" height="21"><div xmlns="http://www.w3.org/1999/xhtml"><div xmlns="http://www.w3.org/1999/xhtml"><strong>肿瘤细胞</strong> -&gt; <mark><strong>Warburg效应</strong></mark> -&gt; PET-CT诊断基础   </div></div></foreignObject></g><g data-depth="3" data-path="1.35.39" class="markmap-node" transform="translate(435, 320.875)"><line stroke="#e377c2" stroke-width="1.375" x1="-1" x2="354" y1="21.6875" y2="21.6875"/><foreignObject class="markmap-foreign" x="8" y="0" style="opacity: 1;" width="336" height="21"><div xmlns="http://www.w3.org/1999/xhtml"><div xmlns="http://www.w3.org/1999/xhtml">白细胞、骨髓细胞、神经细胞 -&gt; 重要供能途径   </div></div></foreignObject></g><g data-depth="2" data-path="1.35" class="markmap-node" transform="translate(264, 279.8125)"><line stroke="#2ca02c" stroke-width="1.75" x1="-1" x2="93" y1="21.875" y2="21.875"/><circle stroke-width="1.5" r="6" stroke="#2ca02c" fill="var(--markmap-circle-open-bg)" cx="91" cy="21.875"/><foreignObject class="markmap-foreign" x="8" y="0" style="opacity: 1;" width="75" height="21"><div xmlns="http://www.w3.org/1999/xhtml"><div xmlns="http://www.w3.org/1999/xhtml"><strong>生理意义</strong>   </div></div></foreignObject></g><g data-depth="3" data-path="1.40.41" class="markmap-node" transform="translate(451, 353.25)"><line stroke="#bcbd22" stroke-width="1.375" x1="-1" x2="210" y1="21.6875" y2="21.6875"/><foreignObject class="markmap-foreign" x="8" y="0" style="opacity: 1;" width="192" height="21"><div xmlns="http://www.w3.org/1999/xhtml"><div xmlns="http://www.w3.org/1999/xhtml">缺氧 -&gt; <mark><strong>乳酸</strong></mark>（无氧氧化）   </div></div></foreignObject></g><g data-depth="3" data-path="1.40.42" class="markmap-node" transform="translate(451, 380.625)"><line stroke="#17becf" stroke-width="1.375" x1="-1" x2="465" y1="21.6875" y2="21.6875"/><foreignObject class="markmap-foreign" x="8" y="0" style="opacity: 1;" width="447" height="21"><div xmlns="http://www.w3.org/1999/xhtml"><div xmlns="http://www.w3.org/1999/xhtml">有氧 -&gt; <strong>乙酰CoA</strong> -&gt; TCA循环+呼吸链 -&gt; CO₂+H₂O（有氧氧化）   </div></div></foreignObject></g><g data-depth="2" data-path="1.40" class="markmap-node" transform="translate(264, 366.9375)"><line stroke="#7f7f7f" stroke-width="1.75" x1="-1" x2="109" y1="21.875" y2="21.875"/><circle stroke-width="1.5" r="6" stroke="#7f7f7f" fill="var(--markmap-circle-open-bg)" cx="107" cy="21.875"/><foreignObject class="markmap-foreign" x="8" y="0" style="opacity: 1;" width="91" height="21"><div xmlns="http://www.w3.org/1999/xhtml"><div xmlns="http://www.w3.org/1999/xhtml"><strong>丙酮酸去路</strong>   </div></div></foreignObject></g><g data-depth="3" data-path="1.43.44" class="markmap-node" transform="translate(531, 413)"><line stroke="#ff7f0e" stroke-width="1.375" x1="-1" x2="297" y1="21.6875" y2="21.6875"/><foreignObject class="markmap-foreign" x="8" y="0" style="opacity: 1;" width="279" height="21"><div xmlns="http://www.w3.org/1999/xhtml"><div xmlns="http://www.w3.org/1999/xhtml"><mark><strong>HK</strong></mark> -&gt; 抑制剂：<strong><mark>G-6-P</mark></strong> -&gt; 产物反馈抑制   </div></div></foreignObject></g><g data-depth="3" data-path="1.43.45" class="markmap-node" transform="translate(531, 440.375)"><line stroke="#2ca02c" stroke-width="1.375" x1="-1" x2="431" y1="21.6875" y2="21.6875"/><foreignObject class="markmap-foreign" x="8" y="0" style="opacity: 1;" width="413" height="21"><div xmlns="http://www.w3.org/1999/xhtml"><div xmlns="http://www.w3.org/1999/xhtml"><mark><strong>PFK-1</strong></mark> -&gt; 激活：<strong><mark>AMP/ADP/F-2,6-BP</mark></strong> / 抑制：<strong><mark>ATP/柠檬酸</mark></strong>   </div></div></foreignObject></g><g data-depth="3" data-path="1.43.46" class="markmap-node" transform="translate(531, 467.75)"><line stroke="#d62728" stroke-width="1.375" x1="-1" x2="358" y1="21.6875" y2="21.6875"/><foreignObject class="markmap-foreign" x="8" y="0" style="opacity: 1;" width="340" height="21"><div xmlns="http://www.w3.org/1999/xhtml"><div xmlns="http://www.w3.org/1999/xhtml"><mark><strong>PK</strong></mark> -&gt; 抑制：<strong><mark>ATP/乙酰CoA</mark></strong> / 修饰：<strong><mark>磷酸化失活</mark></strong>   </div></div></foreignObject></g><g data-depth="2" data-path="1.43" class="markmap-node" transform="translate(264, 440.375)"><line stroke="#1f77b4" stroke-width="1.75" x1="-1" x2="189" y1="21.875" y2="21.875"/><circle stroke-width="1.5" r="6" stroke="#1f77b4" fill="var(--markmap-circle-open-bg)" cx="187" cy="21.875"/><foreignObject class="markmap-foreign" x="8" y="0" style="opacity: 1;" width="171" height="21"><div xmlns="http://www.w3.org/1999/xhtml"><div xmlns="http://www.w3.org/1999/xhtml"><strong>糖酵解关键酶调节速记</strong>   </div></div></foreignObject></g><g data-depth="1" data-path="1" class="markmap-node" transform="translate(0, -10.5)"><line stroke="#1f77b4" stroke-width="2.5" x1="-1" x2="186" y1="22.25" y2="22.25"/><circle stroke-width="1.5" r="6" stroke="#1f77b4" fill="var(--markmap-circle-open-bg)" cx="184" cy="22.25"/><foreignObject class="markmap-foreign" x="8" y="0" style="opacity: 1;" width="168" height="21"><div xmlns="http://www.w3.org/1999/xhtml"><div xmlns="http://www.w3.org/1999/xhtml">糖的无氧氧化 (糖酵解)   </div></div></foreignObject></g></g></svg>