<svg xmlns="http://www.w3.org/2000/svg" class="w-full h-full leading-none markmap mm-gpvzjv-1" style=""><style>.markmap{--markmap-max-width: 9999px;--markmap-a-color: #0097e6;--markmap-a-hover-color: #00a8ff;--markmap-code-bg: #f0f0f0;--markmap-code-color: #555;--markmap-highlight-bg: #ffeaa7;--markmap-table-border: 1px solid currentColor;--markmap-font: 300 16px/20px sans-serif;--markmap-circle-open-bg: #fff;--markmap-text-color: #333;--markmap-highlight-node-bg: #ff02;font:var(--markmap-font);color:var(--markmap-text-color)}.markmap-link{fill:none}.markmap-node&gt;circle{cursor:pointer}.markmap-foreign{display:inline-block}.markmap-foreign p{margin:0}.markmap-foreign a{color:var(--markmap-a-color)}.markmap-foreign a:hover{color:var(--markmap-a-hover-color)}.markmap-foreign code{padding:.25em;font-size:calc(1em - 2px);color:var(--markmap-code-color);background-color:var(--markmap-code-bg);border-radius:2px}.markmap-foreign pre{margin:0}.markmap-foreign pre&gt;code{display:block}.markmap-foreign del{text-decoration:line-through}.markmap-foreign em{font-style:italic}.markmap-foreign strong{font-weight:700}.markmap-foreign mark{background:var(--markmap-highlight-bg)}.markmap-foreign table,.markmap-foreign th,.markmap-foreign td{border-collapse:collapse;border:var(--markmap-table-border)}.markmap-foreign img{display:inline-block}.markmap-foreign svg{fill:currentColor}.markmap-foreign&gt;div{width:var(--markmap-max-width);text-align:left}.markmap-foreign&gt;div&gt;div{display:inline-block}.markmap-highlight rect{fill:var(--markmap-highlight-node-bg)}.markmap-dark .markmap{--markmap-code-bg: #1a1b26;--markmap-code-color: #ddd;--markmap-circle-open-bg: #444;--markmap-text-color: #eee}</style><g transform="translate(13.199000686862803,346.8100168336669) scale(0.45214920689003707)"><path class="markmap-link" data-depth="3" data-path="1.2.3" d="M366,-380.687C406,-380.687,406,-408.25,446,-408.25" stroke-width="1.375" stroke="rgb(148, 103, 189)"/><path class="markmap-link" data-depth="3" data-path="1.2.4" d="M366,-380.687C406,-380.687,406,-380.875,446,-380.875" stroke-width="1.375" stroke="rgb(140, 86, 75)"/><path class="markmap-link" data-depth="3" data-path="1.2.5" d="M366,-380.687C406,-380.687,406,-353.5,446,-353.5" stroke-width="1.375" stroke="rgb(227, 119, 194)"/><path class="markmap-link" data-depth="3" data-path="1.6.7" d="M350,-293.562C390,-293.562,390,-321.125,430,-321.125" stroke-width="1.375" stroke="rgb(188, 189, 34)"/><path class="markmap-link" data-depth="3" data-path="1.6.8" d="M350,-293.562C390,-293.562,390,-293.75,430,-293.75" stroke-width="1.375" stroke="rgb(23, 190, 207)"/><path class="markmap-link" data-depth="3" data-path="1.6.9" d="M350,-293.562C390,-293.562,390,-266.375,430,-266.375" stroke-width="1.375" stroke="rgb(31, 119, 180)"/><path class="markmap-link" data-depth="3" data-path="1.10.11" d="M398,-206.437C438,-206.437,438,-234,478,-234" stroke-width="1.375" stroke="rgb(44, 160, 44)"/><path class="markmap-link" data-depth="3" data-path="1.10.12" d="M398,-206.437C438,-206.437,438,-206.625,478,-206.625" stroke-width="1.375" stroke="rgb(214, 39, 40)"/><path class="markmap-link" data-depth="3" data-path="1.10.13" d="M398,-206.437C438,-206.437,438,-179.25,478,-179.25" stroke-width="1.375" stroke="rgb(148, 103, 189)"/><path class="markmap-link" data-depth="3" data-path="1.14.15" d="M366,-119.312C406,-119.312,406,-146.875,446,-146.875" stroke-width="1.375" stroke="rgb(188, 189, 34)"/><path class="markmap-link" data-depth="3" data-path="1.14.16" d="M366,-119.312C406,-119.312,406,-119.5,446,-119.5" stroke-width="1.375" stroke="rgb(23, 190, 207)"/><path class="markmap-link" data-depth="3" data-path="1.14.17" d="M366,-119.312C406,-119.312,406,-92.125,446,-92.125" stroke-width="1.375" stroke="rgb(31, 119, 180)"/><path class="markmap-link" data-depth="3" data-path="1.18.19" d="M382,-32.187C422,-32.187,422,-59.75,462,-59.75" stroke-width="1.375" stroke="rgb(23, 190, 207)"/><path class="markmap-link" data-depth="3" data-path="1.18.20" d="M382,-32.187C422,-32.187,422,-32.375,462,-32.375" stroke-width="1.375" stroke="rgb(31, 119, 180)"/><path class="markmap-link" data-depth="3" data-path="1.18.21" d="M382,-32.187C422,-32.187,422,-5,462,-5" stroke-width="1.375" stroke="rgb(255, 127, 14)"/><path class="markmap-link" data-depth="3" data-path="1.22.23" d="M350,54.938C390,54.938,390,27.375,430,27.375" stroke-width="1.375" stroke="rgb(188, 189, 34)"/><path class="markmap-link" data-depth="3" data-path="1.22.24" d="M350,54.938C390,54.938,390,54.75,430,54.75" stroke-width="1.375" stroke="rgb(23, 190, 207)"/><path class="markmap-link" data-depth="3" data-path="1.22.25" d="M350,54.938C390,54.938,390,82.125,430,82.125" stroke-width="1.375" stroke="rgb(31, 119, 180)"/><path class="markmap-link" data-depth="3" data-path="1.26.27" d="M382,142.063C422,142.063,422,114.5,462,114.5" stroke-width="1.375" stroke="rgb(44, 160, 44)"/><path class="markmap-link" data-depth="3" data-path="1.26.28" d="M382,142.063C422,142.063,422,141.875,462,141.875" stroke-width="1.375" stroke="rgb(214, 39, 40)"/><path class="markmap-link" data-depth="3" data-path="1.26.29" d="M382,142.063C422,142.063,422,169.25,462,169.25" stroke-width="1.375" stroke="rgb(148, 103, 189)"/><path class="markmap-link" data-depth="3" data-path="1.30.31" d="M382,229.188C422,229.188,422,201.625,462,201.625" stroke-width="1.375" stroke="rgb(227, 119, 194)"/><path class="markmap-link" data-depth="3" data-path="1.30.32" d="M382,229.188C422,229.188,422,229,462,229" stroke-width="1.375" stroke="rgb(227, 119, 194)"/><path class="markmap-link" data-depth="3" data-path="1.30.33" d="M382,229.188C422,229.188,422,256.375,462,256.375" stroke-width="1.375" stroke="rgb(148, 103, 189)"/><path class="markmap-link" data-depth="3" data-path="1.34.35" d="M382,316.313C422,316.313,422,288.75,462,288.75" stroke-width="1.375" stroke="rgb(127, 127, 127)"/><path class="markmap-link" data-depth="3" data-path="1.34.36" d="M382,316.313C422,316.313,422,316.125,462,316.125" stroke-width="1.375" stroke="rgb(188, 189, 34)"/><path class="markmap-link" data-depth="3" data-path="1.34.37" d="M382,316.313C422,316.313,422,343.5,462,343.5" stroke-width="1.375" stroke="rgb(140, 86, 75)"/><path class="markmap-link" data-depth="3" data-path="1.38.39" d="M398,403.438C438,403.438,438,375.875,478,375.875" stroke-width="1.375" stroke="rgb(127, 127, 127)"/><path class="markmap-link" data-depth="3" data-path="1.38.40" d="M398,403.438C438,403.438,438,403.25,478,403.25" stroke-width="1.375" stroke="rgb(188, 189, 34)"/><path class="markmap-link" data-depth="3" data-path="1.38.41" d="M398,403.438C438,403.438,438,430.625,478,430.625" stroke-width="1.375" stroke="rgb(23, 190, 207)"/><path class="markmap-link" data-depth="2" data-path="1.2" d="M195,11.75C235,11.75,235,-380.687,275,-380.687" stroke-width="1.75" stroke="rgb(255, 127, 14)"/><path class="markmap-link" data-depth="2" data-path="1.6" d="M195,11.75C235,11.75,235,-293.562,275,-293.562" stroke-width="1.75" stroke="rgb(127, 127, 127)"/><path class="markmap-link" data-depth="2" data-path="1.10" d="M195,11.75C235,11.75,235,-206.437,275,-206.437" stroke-width="1.75" stroke="rgb(255, 127, 14)"/><path class="markmap-link" data-depth="2" data-path="1.14" d="M195,11.75C235,11.75,235,-119.312,275,-119.312" stroke-width="1.75" stroke="rgb(127, 127, 127)"/><path class="markmap-link" data-depth="2" data-path="1.18" d="M195,11.75C235,11.75,235,-32.187,275,-32.187" stroke-width="1.75" stroke="rgb(188, 189, 34)"/><path class="markmap-link" data-depth="2" data-path="1.22" d="M195,11.75C235,11.75,235,54.938,275,54.938" stroke-width="1.75" stroke="rgb(127, 127, 127)"/><path class="markmap-link" data-depth="2" data-path="1.26" d="M195,11.75C235,11.75,235,142.063,275,142.063" stroke-width="1.75" stroke="rgb(255, 127, 14)"/><path class="markmap-link" data-depth="2" data-path="1.30" d="M195,11.75C235,11.75,235,229.188,275,229.188" stroke-width="1.75" stroke="rgb(140, 86, 75)"/><path class="markmap-link" data-depth="2" data-path="1.34" d="M195,11.75C235,11.75,235,316.313,275,316.313" stroke-width="1.75" stroke="rgb(227, 119, 194)"/><path class="markmap-link" data-depth="2" data-path="1.38" d="M195,11.75C235,11.75,235,403.438,275,403.438" stroke-width="1.75" stroke="rgb(227, 119, 194)"/><g class="markmap-highlight"/><g data-depth="3" data-path="1.2.3" class="markmap-node" transform="translate(446, -429.9375)"><line stroke="#9467bd" stroke-width="1.375" x1="-1" x2="525" y1="21.6875" y2="21.6875"/><foreignObject class="markmap-foreign" x="8" y="0" style="opacity: 1;" width="507" height="21"><div xmlns="http://www.w3.org/1999/xhtml"><div xmlns="http://www.w3.org/1999/xhtml">定义：心脏<strong>一次收缩和舒张</strong>构成的<strong>机械活动周期</strong>，包括<strong>收缩期</strong>和<strong>舒张期</strong>   </div></div></foreignObject></g><g data-depth="3" data-path="1.2.4" class="markmap-node" transform="translate(446, -402.5625)"><line stroke="#8c564b" stroke-width="1.375" x1="-1" x2="517" y1="21.6875" y2="21.6875"/><foreignObject class="markmap-foreign" x="8" y="0" style="opacity: 1;" width="499" height="21"><div xmlns="http://www.w3.org/1999/xhtml"><div xmlns="http://www.w3.org/1999/xhtml">正常值/公式：与心率成<strong>反比</strong>，心率 75 次/min 时为 <strong>0.8s</strong>（60s ÷ 75）   </div></div></foreignObject></g><g data-depth="3" data-path="1.2.5" class="markmap-node" transform="translate(446, -375.1875)"><line stroke="#e377c2" stroke-width="1.375" x1="-1" x2="899" y1="21.6875" y2="21.6875"/><foreignObject class="markmap-foreign" x="8" y="0" style="opacity: 1;" width="881" height="21"><div xmlns="http://www.w3.org/1999/xhtml"><div xmlns="http://www.w3.org/1999/xhtml">生理意义/特征：心脏泵血活动的<strong>基本时间单位</strong>；收缩期<strong>短于</strong>舒张期；心动过速时<strong>舒张期缩短比例更大</strong>，不利于心脏长期工作   </div></div></foreignObject></g><g data-depth="2" data-path="1.2" class="markmap-node" transform="translate(275, -402.5625)"><line stroke="#ff7f0e" stroke-width="1.75" x1="-1" x2="93" y1="21.875" y2="21.875"/><circle stroke-width="1.5" r="6" stroke="#ff7f0e" fill="var(--markmap-circle-open-bg)" cx="91" cy="21.875"/><foreignObject class="markmap-foreign" x="8" y="0" style="opacity: 1;" width="75" height="21"><div xmlns="http://www.w3.org/1999/xhtml"><div xmlns="http://www.w3.org/1999/xhtml"><strong>心动周期</strong>   </div></div></foreignObject></g><g data-depth="3" data-path="1.6.7" class="markmap-node" transform="translate(430, -342.8125)"><line stroke="#bcbd22" stroke-width="1.375" x1="-1" x2="349" y1="21.6875" y2="21.6875"/><foreignObject class="markmap-foreign" x="8" y="0" style="opacity: 1;" width="331" height="21"><div xmlns="http://www.w3.org/1999/xhtml"><div xmlns="http://www.w3.org/1999/xhtml">定义：<strong>单位体表面积</strong>（每平方米）的<strong>心输出量</strong>   </div></div></foreignObject></g><g data-depth="3" data-path="1.6.8" class="markmap-node" transform="translate(430, -315.4375)"><line stroke="#17becf" stroke-width="1.375" x1="-1" x2="655" y1="21.6875" y2="21.6875"/><foreignObject class="markmap-foreign" x="8" y="0" style="opacity: 1;" width="637" height="21"><div xmlns="http://www.w3.org/1999/xhtml"><div xmlns="http://www.w3.org/1999/xhtml">正常值/公式：CI = <strong>CO ÷ 体表面积</strong>；静息心指数 <strong>3.0~3.5 L/(min·m²)</strong>（中等身材成人）   </div></div></foreignObject></g><g data-depth="3" data-path="1.6.9" class="markmap-node" transform="translate(430, -288.0625)"><line stroke="#1f77b4" stroke-width="1.375" x1="-1" x2="762" y1="21.6875" y2="21.6875"/><foreignObject class="markmap-foreign" x="8" y="0" style="opacity: 1;" width="744" height="21"><div xmlns="http://www.w3.org/1999/xhtml"><div xmlns="http://www.w3.org/1999/xhtml">生理意义/特征：评价<strong>不同身材个体</strong>的心功能，<strong>消除体型差异</strong>影响；CI &lt; <strong>2.5</strong> L/(min·m²) 提示心功能不全   </div></div></foreignObject></g><g data-depth="2" data-path="1.6" class="markmap-node" transform="translate(275, -315.4375)"><line stroke="#7f7f7f" stroke-width="1.75" x1="-1" x2="77" y1="21.875" y2="21.875"/><circle stroke-width="1.5" r="6" stroke="#7f7f7f" fill="var(--markmap-circle-open-bg)" cx="75" cy="21.875"/><foreignObject class="markmap-foreign" x="8" y="0" style="opacity: 1;" width="59" height="21"><div xmlns="http://www.w3.org/1999/xhtml"><div xmlns="http://www.w3.org/1999/xhtml"><strong>心指数</strong>   </div></div></foreignObject></g><g data-depth="3" data-path="1.10.11" class="markmap-node" transform="translate(478, -255.6875)"><line stroke="#2ca02c" stroke-width="1.375" x1="-1" x2="834" y1="21.6875" y2="21.6875"/><foreignObject class="markmap-foreign" x="8" y="0" style="opacity: 1;" width="816" height="21"><div xmlns="http://www.w3.org/1999/xhtml"><div xmlns="http://www.w3.org/1999/xhtml">定义：通过改变<strong>心肌细胞初长度</strong>（前负荷）而引起心肌收缩强度改变，进而调节<strong>搏出量</strong>的机制，又称 <strong>Starling 机制</strong>   </div></div></foreignObject></g><g data-depth="3" data-path="1.10.12" class="markmap-node" transform="translate(478, -228.3125)"><line stroke="#d62728" stroke-width="1.375" x1="-1" x2="573" y1="21.6875" y2="21.6875"/><foreignObject class="markmap-foreign" x="8" y="0" style="opacity: 1;" width="555" height="21"><div xmlns="http://www.w3.org/1999/xhtml"><div xmlns="http://www.w3.org/1999/xhtml">正常值/公式：前负荷改变 -&gt; 初长度改变 -&gt; 收缩力改变；<strong>不依赖神经体液</strong>因素   </div></div></foreignObject></g><g data-depth="3" data-path="1.10.13" class="markmap-node" transform="translate(478, -200.9375)"><line stroke="#9467bd" stroke-width="1.375" x1="-1" x2="979" y1="21.6875" y2="21.6875"/><foreignObject class="markmap-foreign" x="8" y="0" style="opacity: 1;" width="961" height="21"><div xmlns="http://www.w3.org/1999/xhtml"><div xmlns="http://www.w3.org/1999/xhtml">生理意义/特征：对搏出量进行<strong>精细调节</strong>，使<strong>心室射血量</strong>与<strong>静脉回心血量</strong>保持<strong>平衡</strong>；保证<strong>左右心室</strong>输出量一致；是心脏的<strong>内在适应性</strong>调节   </div></div></foreignObject></g><g data-depth="2" data-path="1.10" class="markmap-node" transform="translate(275, -228.3125)"><line stroke="#ff7f0e" stroke-width="1.75" x1="-1" x2="125" y1="21.875" y2="21.875"/><circle stroke-width="1.5" r="6" stroke="#ff7f0e" fill="var(--markmap-circle-open-bg)" cx="123" cy="21.875"/><foreignObject class="markmap-foreign" x="8" y="0" style="opacity: 1;" width="107" height="21"><div xmlns="http://www.w3.org/1999/xhtml"><div xmlns="http://www.w3.org/1999/xhtml"><strong>异长自身调节</strong>   </div></div></foreignObject></g><g data-depth="3" data-path="1.14.15" class="markmap-node" transform="translate(446, -168.5625)"><line stroke="#bcbd22" stroke-width="1.375" x1="-1" x2="847" y1="21.6875" y2="21.6875"/><foreignObject class="markmap-foreign" x="8" y="0" style="opacity: 1;" width="829" height="21"><div xmlns="http://www.w3.org/1999/xhtml"><div xmlns="http://www.w3.org/1999/xhtml">定义：兴奋在<strong>房室交界区</strong>传导速度<strong>最慢</strong>（仅约 0.02~0.05 m/s），耗时约 <strong>0.1s</strong>，使心房兴奋传递到心室出现<strong>延迟</strong>的现象   </div></div></foreignObject></g><g data-depth="3" data-path="1.14.16" class="markmap-node" transform="translate(446, -141.1875)"><line stroke="#17becf" stroke-width="1.375" x1="-1" x2="454" y1="21.6875" y2="21.6875"/><foreignObject class="markmap-foreign" x="8" y="0" style="opacity: 1;" width="436" height="21"><div xmlns="http://www.w3.org/1999/xhtml"><div xmlns="http://www.w3.org/1999/xhtml">正常值/公式：延搁时间约 <strong>0.1s</strong>（房室交界区传导速度最慢）   </div></div></foreignObject></g><g data-depth="3" data-path="1.14.17" class="markmap-node" transform="translate(446, -113.8125)"><line stroke="#1f77b4" stroke-width="1.375" x1="-1" x2="866" y1="21.6875" y2="21.6875"/><foreignObject class="markmap-foreign" x="8" y="0" style="opacity: 1;" width="848" height="21"><div xmlns="http://www.w3.org/1999/xhtml"><div xmlns="http://www.w3.org/1999/xhtml">生理意义/特征：保证<strong>心房收缩完毕后</strong>心室才开始收缩 -&gt; 实现房室<strong>顺序收缩</strong> -&gt; 心室有充分时间<strong>充盈</strong> -&gt; 防止房室<strong>同时收缩</strong>   </div></div></foreignObject></g><g data-depth="2" data-path="1.14" class="markmap-node" transform="translate(275, -141.1875)"><line stroke="#7f7f7f" stroke-width="1.75" x1="-1" x2="93" y1="21.875" y2="21.875"/><circle stroke-width="1.5" r="6" stroke="#7f7f7f" fill="var(--markmap-circle-open-bg)" cx="91" cy="21.875"/><foreignObject class="markmap-foreign" x="8" y="0" style="opacity: 1;" width="75" height="21"><div xmlns="http://www.w3.org/1999/xhtml"><div xmlns="http://www.w3.org/1999/xhtml"><strong>房室延搁</strong>   </div></div></foreignObject></g><g data-depth="3" data-path="1.18.19" class="markmap-node" transform="translate(462, -81.4375)"><line stroke="#17becf" stroke-width="1.375" x1="-1" x2="557" y1="21.6875" y2="21.6875"/><foreignObject class="markmap-foreign" x="8" y="0" style="opacity: 1;" width="539" height="21"><div xmlns="http://www.w3.org/1999/xhtml"><div xmlns="http://www.w3.org/1999/xhtml">定义：一个<strong>心动周期</strong>中动脉血压的<strong>平均值</strong>（非收缩压与舒张压的简单平均）   </div></div></foreignObject></g><g data-depth="3" data-path="1.18.20" class="markmap-node" transform="translate(462, -54.0625)"><line stroke="#1f77b4" stroke-width="1.375" x1="-1" x2="793" y1="21.6875" y2="21.6875"/><foreignObject class="markmap-foreign" x="8" y="0" style="opacity: 1;" width="775" height="21"><div xmlns="http://www.w3.org/1999/xhtml"><div xmlns="http://www.w3.org/1999/xhtml">正常值/公式：MAP = <strong>舒张压 + 1/3 脉压</strong>（脉压 = 收缩压 - 舒张压）；正常值约 <strong>100 mmHg</strong>（≈ 70 + 1/3×40）   </div></div></foreignObject></g><g data-depth="3" data-path="1.18.21" class="markmap-node" transform="translate(462, -26.6875)"><line stroke="#ff7f0e" stroke-width="1.375" x1="-1" x2="659" y1="21.6875" y2="21.6875"/><foreignObject class="markmap-foreign" x="8" y="0" style="opacity: 1;" width="641" height="21"><div xmlns="http://www.w3.org/1999/xhtml"><div xmlns="http://www.w3.org/1999/xhtml">生理意义/特征：反映<strong>器官灌注压</strong>的核心指标；是计算<strong>搏功</strong>和评价组织<strong>血液供应</strong>的基础参数   </div></div></foreignObject></g><g data-depth="2" data-path="1.18" class="markmap-node" transform="translate(275, -54.0625)"><line stroke="#bcbd22" stroke-width="1.75" x1="-1" x2="109" y1="21.875" y2="21.875"/><circle stroke-width="1.5" r="6" stroke="#bcbd22" fill="var(--markmap-circle-open-bg)" cx="107" cy="21.875"/><foreignObject class="markmap-foreign" x="8" y="0" style="opacity: 1;" width="91" height="21"><div xmlns="http://www.w3.org/1999/xhtml"><div xmlns="http://www.w3.org/1999/xhtml"><strong>平均动脉压</strong>   </div></div></foreignObject></g><g data-depth="3" data-path="1.22.23" class="markmap-node" transform="translate(430, 5.6875)"><line stroke="#bcbd22" stroke-width="1.375" x1="-1" x2="573" y1="21.6875" y2="21.6875"/><foreignObject class="markmap-foreign" x="8" y="0" style="opacity: 1;" width="555" height="21"><div xmlns="http://www.w3.org/1999/xhtml"><div xmlns="http://www.w3.org/1999/xhtml">定义：<strong>微动脉</strong>与<strong>微静脉</strong>之间的<strong>血液循环</strong>，是血液与组织液进行<strong>物质交换</strong>的场所   </div></div></foreignObject></g><g data-depth="3" data-path="1.22.24" class="markmap-node" transform="translate(430, 33.0625)"><line stroke="#17becf" stroke-width="1.375" x1="-1" x2="902" y1="21.6875" y2="21.6875"/><foreignObject class="markmap-foreign" x="8" y="0" style="opacity: 1;" width="884" height="21"><div xmlns="http://www.w3.org/1999/xhtml"><div xmlns="http://www.w3.org/1999/xhtml">正常值/公式：由七部分组成：微动脉 + 后微动脉 + 毛细血管前括约肌 + 真毛细血管 + 通血毛细血管 + 动-静脉吻合支 + 微静脉   </div></div></foreignObject></g><g data-depth="3" data-path="1.22.25" class="markmap-node" transform="translate(430, 60.4375)"><line stroke="#1f77b4" stroke-width="1.375" x1="-1" x2="1039" y1="21.6875" y2="21.6875"/><foreignObject class="markmap-foreign" x="8" y="0" style="opacity: 1;" width="1021" height="21"><div xmlns="http://www.w3.org/1999/xhtml"><div xmlns="http://www.w3.org/1999/xhtml">生理意义/特征：实现<strong>物质交换</strong>（营养、O₂、CO₂、代谢产物）；三条通路：迂回通路（交换）、直捷通路（快速回流）、动-静脉短路（体温调节）   </div></div></foreignObject></g><g data-depth="2" data-path="1.22" class="markmap-node" transform="translate(275, 33.0625)"><line stroke="#7f7f7f" stroke-width="1.75" x1="-1" x2="77" y1="21.875" y2="21.875"/><circle stroke-width="1.5" r="6" stroke="#7f7f7f" fill="var(--markmap-circle-open-bg)" cx="75" cy="21.875"/><foreignObject class="markmap-foreign" x="8" y="0" style="opacity: 1;" width="59" height="21"><div xmlns="http://www.w3.org/1999/xhtml"><div xmlns="http://www.w3.org/1999/xhtml"><strong>微循环</strong>   </div></div></foreignObject></g><g data-depth="3" data-path="1.26.27" class="markmap-node" transform="translate(462, 92.8125)"><line stroke="#2ca02c" stroke-width="1.375" x1="-1" x2="445" y1="21.6875" y2="21.6875"/><foreignObject class="markmap-foreign" x="8" y="0" style="opacity: 1;" width="427" height="21"><div xmlns="http://www.w3.org/1999/xhtml"><div xmlns="http://www.w3.org/1999/xhtml">定义：<strong>中枢神经系统</strong>内与<strong>心血管反射</strong>有关的<strong>神经元集中</strong>部位   </div></div></foreignObject></g><g data-depth="3" data-path="1.26.28" class="markmap-node" transform="translate(462, 120.1875)"><line stroke="#d62728" stroke-width="1.375" x1="-1" x2="715" y1="21.6875" y2="21.6875"/><foreignObject class="markmap-foreign" x="8" y="0" style="opacity: 1;" width="697" height="21"><div xmlns="http://www.w3.org/1999/xhtml"><div xmlns="http://www.w3.org/1999/xhtml">正常值/公式：基本中枢位于<strong>延髓</strong>，包括心交感中枢、心迷走中枢（心抑制中枢）、交感缩血管中枢   </div></div></foreignObject></g><g data-depth="3" data-path="1.26.29" class="markmap-node" transform="translate(462, 147.5625)"><line stroke="#9467bd" stroke-width="1.375" x1="-1" x2="899" y1="21.6875" y2="21.6875"/><foreignObject class="markmap-foreign" x="8" y="0" style="opacity: 1;" width="881" height="21"><div xmlns="http://www.w3.org/1999/xhtml"><div xmlns="http://www.w3.org/1999/xhtml">生理意义/特征：持续发放<strong>紧张性冲动</strong>，维持心血管系统基础活动；延髓以上高位中枢（下丘脑、大脑皮层）起<strong>整合调节</strong>作用   </div></div></foreignObject></g><g data-depth="2" data-path="1.26" class="markmap-node" transform="translate(275, 120.1875)"><line stroke="#ff7f0e" stroke-width="1.75" x1="-1" x2="109" y1="21.875" y2="21.875"/><circle stroke-width="1.5" r="6" stroke="#ff7f0e" fill="var(--markmap-circle-open-bg)" cx="107" cy="21.875"/><foreignObject class="markmap-foreign" x="8" y="0" style="opacity: 1;" width="91" height="21"><div xmlns="http://www.w3.org/1999/xhtml"><div xmlns="http://www.w3.org/1999/xhtml"><strong>心血管中枢</strong>   </div></div></foreignObject></g><g data-depth="3" data-path="1.30.31" class="markmap-node" transform="translate(462, 179.9375)"><line stroke="#e377c2" stroke-width="1.375" x1="-1" x2="621" y1="21.6875" y2="21.6875"/><foreignObject class="markmap-foreign" x="8" y="0" style="opacity: 1;" width="603" height="21"><div xmlns="http://www.w3.org/1999/xhtml"><div xmlns="http://www.w3.org/1999/xhtml">定义：<strong>右心房</strong>和<strong>胸腔内大静脉</strong>的血压，反映<strong>右心功能</strong>与<strong>静脉回心血量</strong>之间的平衡关系   </div></div></foreignObject></g><g data-depth="3" data-path="1.30.32" class="markmap-node" transform="translate(462, 207.3125)"><line stroke="#e377c2" stroke-width="1.375" x1="-1" x2="279" y1="21.6875" y2="21.6875"/><foreignObject class="markmap-foreign" x="8" y="0" style="opacity: 1;" width="261" height="21"><div xmlns="http://www.w3.org/1999/xhtml"><div xmlns="http://www.w3.org/1999/xhtml">正常值/公式：正常值 <strong>4~12 cmH₂O</strong>   </div></div></foreignObject></g><g data-depth="3" data-path="1.30.33" class="markmap-node" transform="translate(462, 234.6875)"><line stroke="#9467bd" stroke-width="1.375" x1="-1" x2="1126" y1="21.6875" y2="21.6875"/><foreignObject class="markmap-foreign" x="8" y="0" style="opacity: 1;" width="1108" height="21"><div xmlns="http://www.w3.org/1999/xhtml"><div xmlns="http://www.w3.org/1999/xhtml">生理意义/特征：CVP**↑** -&gt; 回心血量↑ 或 右心功能↓；CVP**↓** -&gt; 回心血量不足或血容量减少；临床用于指导<strong>补液</strong>（CVP &lt; 5 cmH₂O 提示血容量不足）   </div></div></foreignObject></g><g data-depth="2" data-path="1.30" class="markmap-node" transform="translate(275, 207.3125)"><line stroke="#8c564b" stroke-width="1.75" x1="-1" x2="109" y1="21.875" y2="21.875"/><circle stroke-width="1.5" r="6" stroke="#8c564b" fill="var(--markmap-circle-open-bg)" cx="107" cy="21.875"/><foreignObject class="markmap-foreign" x="8" y="0" style="opacity: 1;" width="91" height="21"><div xmlns="http://www.w3.org/1999/xhtml"><div xmlns="http://www.w3.org/1999/xhtml"><strong>中心静脉压</strong>   </div></div></foreignObject></g><g data-depth="3" data-path="1.34.35" class="markmap-node" transform="translate(462, 267.0625)"><line stroke="#7f7f7f" stroke-width="1.375" x1="-1" x2="477" y1="21.6875" y2="21.6875"/><foreignObject class="markmap-foreign" x="8" y="0" style="opacity: 1;" width="459" height="21"><div xmlns="http://www.w3.org/1999/xhtml"><div xmlns="http://www.w3.org/1999/xhtml">定义：主导整个心脏<strong>节律性兴奋</strong>的自律细胞所在部位，即<strong>窦房结</strong>   </div></div></foreignObject></g><g data-depth="3" data-path="1.34.36" class="markmap-node" transform="translate(462, 294.4375)"><line stroke="#bcbd22" stroke-width="1.375" x1="-1" x2="821" y1="21.6875" y2="21.6875"/><foreignObject class="markmap-foreign" x="8" y="0" style="opacity: 1;" width="803" height="21"><div xmlns="http://www.w3.org/1999/xhtml"><div xmlns="http://www.w3.org/1999/xhtml">正常值/公式：窦房结自律性<strong>最高</strong>（约 <strong>100 次/min</strong>）&gt; 房室交界（40~60 次/min）&gt; 浦肯野纤维（15~40 次/min）   </div></div></foreignObject></g><g data-depth="3" data-path="1.34.37" class="markmap-node" transform="translate(462, 321.8125)"><line stroke="#8c564b" stroke-width="1.375" x1="-1" x2="1211" y1="21.6875" y2="21.6875"/><foreignObject class="markmap-foreign" x="8" y="0" style="opacity: 1;" width="1193" height="21"><div xmlns="http://www.w3.org/1999/xhtml"><div xmlns="http://www.w3.org/1999/xhtml">生理意义/特征：窦房结通过<strong>抢先占领</strong>和<strong>超速驱动压抑</strong>控制其他自律组织；窦房结以外的自律组织为<strong>潜在起搏点</strong>（异位起搏点）；窦房结功能障碍时潜在起搏点可取而代之   </div></div></foreignObject></g><g data-depth="2" data-path="1.34" class="markmap-node" transform="translate(275, 294.4375)"><line stroke="#e377c2" stroke-width="1.75" x1="-1" x2="109" y1="21.875" y2="21.875"/><circle stroke-width="1.5" r="6" stroke="#e377c2" fill="var(--markmap-circle-open-bg)" cx="107" cy="21.875"/><foreignObject class="markmap-foreign" x="8" y="0" style="opacity: 1;" width="91" height="21"><div xmlns="http://www.w3.org/1999/xhtml"><div xmlns="http://www.w3.org/1999/xhtml"><strong>正常起搏点</strong>   </div></div></foreignObject></g><g data-depth="3" data-path="1.38.39" class="markmap-node" transform="translate(478, 354.1875)"><line stroke="#7f7f7f" stroke-width="1.375" x1="-1" x2="701" y1="21.6875" y2="21.6875"/><foreignObject class="markmap-foreign" x="8" y="0" style="opacity: 1;" width="683" height="21"><div xmlns="http://www.w3.org/1999/xhtml"><div xmlns="http://www.w3.org/1999/xhtml">定义：<strong>主动脉</strong>和<strong>肺动脉</strong>主干及其<strong>大分支</strong>，管壁富含<strong>弹性纤维</strong>，具有<strong>扩张</strong>和<strong>弹性回缩</strong>能力的大血管   </div></div></foreignObject></g><g data-depth="3" data-path="1.38.40" class="markmap-node" transform="translate(478, 381.5625)"><line stroke="#bcbd22" stroke-width="1.375" x1="-1" x2="595" y1="21.6875" y2="21.6875"/><foreignObject class="markmap-foreign" x="8" y="0" style="opacity: 1;" width="577" height="21"><div xmlns="http://www.w3.org/1999/xhtml"><div xmlns="http://www.w3.org/1999/xhtml">正常值/公式：包括主动脉、肺动脉主干及大分支；管壁弹性纤维丰富、平滑肌少   </div></div></foreignObject></g><g data-depth="3" data-path="1.38.41" class="markmap-node" transform="translate(478, 408.9375)"><line stroke="#17becf" stroke-width="1.375" x1="-1" x2="1122" y1="21.6875" y2="21.6875"/><foreignObject class="markmap-foreign" x="8" y="0" style="opacity: 1;" width="1104" height="21"><div xmlns="http://www.w3.org/1999/xhtml"><div xmlns="http://www.w3.org/1999/xhtml">生理意义/特征：射血期<strong>扩张储存</strong>血液 -&gt; 将心室间断射血变为血管内<strong>连续血流</strong>；舒张期<strong>弹性回缩</strong> -&gt; 推动血液继续流动 -&gt; 维持<strong>舒张压</strong>；缓冲<strong>收缩压</strong>，减小脉压   </div></div></foreignObject></g><g data-depth="2" data-path="1.38" class="markmap-node" transform="translate(275, 381.5625)"><line stroke="#e377c2" stroke-width="1.75" x1="-1" x2="125" y1="21.875" y2="21.875"/><circle stroke-width="1.5" r="6" stroke="#e377c2" fill="var(--markmap-circle-open-bg)" cx="123" cy="21.875"/><foreignObject class="markmap-foreign" x="8" y="0" style="opacity: 1;" width="107" height="21"><div xmlns="http://www.w3.org/1999/xhtml"><div xmlns="http://www.w3.org/1999/xhtml"><strong>弹性储器血管</strong>   </div></div></foreignObject></g><g data-depth="1" data-path="1" class="markmap-node" transform="translate(0, -10.5)"><line stroke="#1f77b4" stroke-width="2.5" x1="-1" x2="197" y1="22.25" y2="22.25"/><circle stroke-width="1.5" r="6" stroke="#1f77b4" fill="var(--markmap-circle-open-bg)" cx="195" cy="22.25"/><foreignObject class="markmap-foreign" x="8" y="0" style="opacity: 1;" width="179" height="21"><div xmlns="http://www.w3.org/1999/xhtml"><div xmlns="http://www.w3.org/1999/xhtml">4.1 课后练习题名词解释   </div></div></foreignObject></g></g></svg>