<svg xmlns="http://www.w3.org/2000/svg" class="w-full h-full leading-none markmap mm-ki3lx0-1" style=""><style>.markmap{--markmap-max-width: 9999px;--markmap-a-color: #0097e6;--markmap-a-hover-color: #00a8ff;--markmap-code-bg: #f0f0f0;--markmap-code-color: #555;--markmap-highlight-bg: #ffeaa7;--markmap-table-border: 1px solid currentColor;--markmap-font: 300 16px/20px sans-serif;--markmap-circle-open-bg: #fff;--markmap-text-color: #333;--markmap-highlight-node-bg: #ff02;font:var(--markmap-font);color:var(--markmap-text-color)}.markmap-link{fill:none}.markmap-node&gt;circle{cursor:pointer}.markmap-foreign{display:inline-block}.markmap-foreign p{margin:0}.markmap-foreign a{color:var(--markmap-a-color)}.markmap-foreign a:hover{color:var(--markmap-a-hover-color)}.markmap-foreign code{padding:.25em;font-size:calc(1em - 2px);color:var(--markmap-code-color);background-color:var(--markmap-code-bg);border-radius:2px}.markmap-foreign pre{margin:0}.markmap-foreign pre&gt;code{display:block}.markmap-foreign del{text-decoration:line-through}.markmap-foreign em{font-style:italic}.markmap-foreign strong{font-weight:700}.markmap-foreign mark{background:var(--markmap-highlight-bg)}.markmap-foreign table,.markmap-foreign th,.markmap-foreign td{border-collapse:collapse;border:var(--markmap-table-border)}.markmap-foreign img{display:inline-block}.markmap-foreign svg{fill:currentColor}.markmap-foreign&gt;div{width:var(--markmap-max-width);text-align:left}.markmap-foreign&gt;div&gt;div{display:inline-block}.markmap-highlight rect{fill:var(--markmap-highlight-node-bg)}.markmap-dark .markmap{--markmap-code-bg: #1a1b26;--markmap-code-color: #ddd;--markmap-circle-open-bg: #444;--markmap-text-color: #eee}</style><g transform="translate(23.391787109321058,397.7779831514145) scale(0.5046957379577277)"><path class="markmap-link" data-depth="3" data-path="1.2.3" d="M581,-281.625C621,-281.625,621,-322.875,661,-322.875" stroke-width="1.375" stroke="rgb(148, 103, 189)"/><path class="markmap-link" data-depth="3" data-path="1.2.4" d="M581,-281.625C621,-281.625,621,-295.5,661,-295.5" stroke-width="1.375" stroke="rgb(127, 127, 127)"/><path class="markmap-link" data-depth="3" data-path="1.2.5" d="M581,-281.625C621,-281.625,621,-268.125,661,-268.125" stroke-width="1.375" stroke="rgb(188, 189, 34)"/><path class="markmap-link" data-depth="3" data-path="1.2.6" d="M581,-281.625C621,-281.625,621,-240.75,661,-240.75" stroke-width="1.375" stroke="rgb(255, 127, 14)"/><path class="markmap-link" data-depth="3" data-path="1.7.8" d="M629,-167.125C669,-167.125,669,-208.375,709,-208.375" stroke-width="1.375" stroke="rgb(255, 127, 14)"/><path class="markmap-link" data-depth="3" data-path="1.7.9" d="M629,-167.125C669,-167.125,669,-181,709,-181" stroke-width="1.375" stroke="rgb(44, 160, 44)"/><path class="markmap-link" data-depth="3" data-path="1.7.10" d="M629,-167.125C669,-167.125,669,-153.625,709,-153.625" stroke-width="1.375" stroke="rgb(214, 39, 40)"/><path class="markmap-link" data-depth="3" data-path="1.7.11" d="M629,-167.125C669,-167.125,669,-126.25,709,-126.25" stroke-width="1.375" stroke="rgb(148, 103, 189)"/><path class="markmap-link" data-depth="3" data-path="1.12.13" d="M613,-52.625C653,-52.625,653,-93.875,693,-93.875" stroke-width="1.375" stroke="rgb(127, 127, 127)"/><path class="markmap-link" data-depth="3" data-path="1.12.14" d="M613,-52.625C653,-52.625,653,-66.5,693,-66.5" stroke-width="1.375" stroke="rgb(188, 189, 34)"/><path class="markmap-link" data-depth="3" data-path="1.12.15" d="M613,-52.625C653,-52.625,653,-39.125,693,-39.125" stroke-width="1.375" stroke="rgb(23, 190, 207)"/><path class="markmap-link" data-depth="3" data-path="1.12.16" d="M613,-52.625C653,-52.625,653,-11.75,693,-11.75" stroke-width="1.375" stroke="rgb(148, 103, 189)"/><path class="markmap-link" data-depth="4" data-path="1.17.18.19" d="M909,34.219C949,34.219,949,20.531,989,20.531" stroke-width="1.1875" stroke="rgb(23, 190, 207)"/><path class="markmap-link" data-depth="4" data-path="1.17.18.20" d="M909,34.219C949,34.219,949,47.719,989,47.719" stroke-width="1.1875" stroke="rgb(31, 119, 180)"/><path class="markmap-link" data-depth="4" data-path="1.17.21.22" d="M893,93.594C933,93.594,933,79.906,973,79.906" stroke-width="1.1875" stroke="rgb(255, 127, 14)"/><path class="markmap-link" data-depth="4" data-path="1.17.21.23" d="M893,93.594C933,93.594,933,107.094,973,107.094" stroke-width="1.1875" stroke="rgb(44, 160, 44)"/><path class="markmap-link" data-depth="3" data-path="1.17.18" d="M645,64.094C685,64.094,685,34.219,725,34.219" stroke-width="1.375" stroke="rgb(148, 103, 189)"/><path class="markmap-link" data-depth="3" data-path="1.17.21" d="M645,64.094C685,64.094,685,93.594,725,93.594" stroke-width="1.375" stroke="rgb(127, 127, 127)"/><path class="markmap-link" data-depth="4" data-path="1.24.25.26" d="M877,152.969C917,152.969,917,139.281,957,139.281" stroke-width="1.1875" stroke="rgb(214, 39, 40)"/><path class="markmap-link" data-depth="4" data-path="1.24.25.27" d="M877,152.969C917,152.969,917,166.469,957,166.469" stroke-width="1.1875" stroke="rgb(148, 103, 189)"/><path class="markmap-link" data-depth="4" data-path="1.24.28.29" d="M915,212.344C955,212.344,955,198.656,995,198.656" stroke-width="1.1875" stroke="rgb(214, 39, 40)"/><path class="markmap-link" data-depth="4" data-path="1.24.28.30" d="M915,212.344C955,212.344,955,225.844,995,225.844" stroke-width="1.1875" stroke="rgb(148, 103, 189)"/><path class="markmap-link" data-depth="4" data-path="1.24.31.32" d="M877,258.125C917,258.125,917,258.031,957,258.031" stroke-width="1.1875" stroke="rgb(227, 119, 194)"/><path class="markmap-link" data-depth="3" data-path="1.24.25" d="M597,205.734C637,205.734,637,152.969,677,152.969" stroke-width="1.375" stroke="rgb(188, 189, 34)"/><path class="markmap-link" data-depth="3" data-path="1.24.28" d="M597,205.734C637,205.734,637,212.344,677,212.344" stroke-width="1.375" stroke="rgb(44, 160, 44)"/><path class="markmap-link" data-depth="3" data-path="1.24.31" d="M597,205.734C637,205.734,637,258.125,677,258.125" stroke-width="1.375" stroke="rgb(140, 86, 75)"/><path class="markmap-link" data-depth="3" data-path="1.33.34" d="M693,304.375C733,304.375,733,290.5,773,290.5" stroke-width="1.375" stroke="rgb(127, 127, 127)"/><path class="markmap-link" data-depth="3" data-path="1.33.35" d="M693,304.375C733,304.375,733,317.875,773,317.875" stroke-width="1.375" stroke="rgb(188, 189, 34)"/><path class="markmap-link" data-depth="2" data-path="1.2" d="M357,11.75C397,11.75,397,-281.625,437,-281.625" stroke-width="1.75" stroke="rgb(255, 127, 14)"/><path class="markmap-link" data-depth="2" data-path="1.7" d="M357,11.75C397,11.75,397,-167.125,437,-167.125" stroke-width="1.75" stroke="rgb(31, 119, 180)"/><path class="markmap-link" data-depth="2" data-path="1.12" d="M357,11.75C397,11.75,397,-52.625,437,-52.625" stroke-width="1.75" stroke="rgb(227, 119, 194)"/><path class="markmap-link" data-depth="2" data-path="1.17" d="M357,11.75C397,11.75,397,64.094,437,64.094" stroke-width="1.75" stroke="rgb(214, 39, 40)"/><path class="markmap-link" data-depth="2" data-path="1.24" d="M357,11.75C397,11.75,397,205.734,437,205.734" stroke-width="1.75" stroke="rgb(127, 127, 127)"/><path class="markmap-link" data-depth="2" data-path="1.33" d="M357,11.75C397,11.75,397,304.375,437,304.375" stroke-width="1.75" stroke="rgb(227, 119, 194)"/><g class="markmap-highlight"/><g data-depth="3" data-path="1.2.3" class="markmap-node" transform="translate(661, -344.5625)"><line stroke="#9467bd" stroke-width="1.375" x1="-1" x2="321" y1="21.6875" y2="21.6875"/><foreignObject class="markmap-foreign" x="8" y="0" style="opacity: 1;" width="303" height="21"><div xmlns="http://www.w3.org/1999/xhtml"><div xmlns="http://www.w3.org/1999/xhtml">设计：皮层联络区 + <strong>基底神经节</strong> + <strong>皮层小脑</strong></div></div></foreignObject></g><g data-depth="3" data-path="1.2.4" class="markmap-node" transform="translate(661, -317.1875)"><line stroke="#7f7f7f" stroke-width="1.375" x1="-1" x2="264" y1="21.6875" y2="21.6875"/><foreignObject class="markmap-foreign" x="8" y="0" style="opacity: 1;" width="246" height="21"><div xmlns="http://www.w3.org/1999/xhtml"><div xmlns="http://www.w3.org/1999/xhtml">实施/协调：皮层运动区 + <strong>脊髓小脑</strong></div></div></foreignObject></g><g data-depth="3" data-path="1.2.5" class="markmap-node" transform="translate(661, -289.8125)"><line stroke="#bcbd22" stroke-width="1.375" x1="-1" x2="147" y1="21.6875" y2="21.6875"/><foreignObject class="markmap-foreign" x="8" y="0" style="opacity: 1;" width="129" height="21"><div xmlns="http://www.w3.org/1999/xhtml"><div xmlns="http://www.w3.org/1999/xhtml">执行：<strong>脑干 + 脊髓</strong></div></div></foreignObject></g><g data-depth="3" data-path="1.2.6" class="markmap-node" transform="translate(661, -262.4375)"><line stroke="#ff7f0e" stroke-width="1.375" x1="-1" x2="322" y1="21.6875" y2="21.6875"/><foreignObject class="markmap-foreign" x="8" y="0" style="opacity: 1;" width="304" height="21"><div xmlns="http://www.w3.org/1999/xhtml"><div xmlns="http://www.w3.org/1999/xhtml">最高级中枢：大脑皮层；最基本中枢：脊髓</div></div></foreignObject></g><g data-depth="2" data-path="1.2" class="markmap-node" transform="translate(437, -303.5)"><line stroke="#ff7f0e" stroke-width="1.75" x1="-1" x2="146" y1="21.875" y2="21.875"/><circle stroke-width="1.5" r="6" stroke="#ff7f0e" fill="var(--markmap-circle-open-bg)" cx="144" cy="21.875"/><foreignObject class="markmap-foreign" x="8" y="0" style="opacity: 1;" width="128" height="21"><div xmlns="http://www.w3.org/1999/xhtml"><div xmlns="http://www.w3.org/1999/xhtml">运动调控三级水平</div></div></foreignObject></g><g data-depth="3" data-path="1.7.8" class="markmap-node" transform="translate(709, -230.0625)"><line stroke="#ff7f0e" stroke-width="1.375" x1="-1" x2="295" y1="21.6875" y2="21.6875"/><foreignObject class="markmap-foreign" x="8" y="0" style="opacity: 1;" width="277" height="21"><div xmlns="http://www.w3.org/1999/xhtml"><div xmlns="http://www.w3.org/1999/xhtml">易化区：范围<strong>广、强</strong> -&gt; 加强伸肌肌紧张</div></div></foreignObject></g><g data-depth="3" data-path="1.7.9" class="markmap-node" transform="translate(709, -202.6875)"><line stroke="#2ca02c" stroke-width="1.375" x1="-1" x2="263" y1="21.6875" y2="21.6875"/><foreignObject class="markmap-foreign" x="8" y="0" style="opacity: 1;" width="245" height="21"><div xmlns="http://www.w3.org/1999/xhtml"><div xmlns="http://www.w3.org/1999/xhtml">抑制区：范围<strong>小、弱</strong> -&gt; 肌张力降低</div></div></foreignObject></g><g data-depth="3" data-path="1.7.10" class="markmap-node" transform="translate(709, -175.3125)"><line stroke="#d62728" stroke-width="1.375" x1="-1" x2="386" y1="21.6875" y2="21.6875"/><foreignObject class="markmap-foreign" x="8" y="0" style="opacity: 1;" width="368" height="21"><div xmlns="http://www.w3.org/1999/xhtml"><div xmlns="http://www.w3.org/1999/xhtml">上级抑制：大脑皮层运动区、纹状体、小脑前叶蚓部</div></div></foreignObject></g><g data-depth="3" data-path="1.7.11" class="markmap-node" transform="translate(709, -147.9375)"><line stroke="#9467bd" stroke-width="1.375" x1="-1" x2="370" y1="21.6875" y2="21.6875"/><foreignObject class="markmap-foreign" x="8" y="0" style="opacity: 1;" width="352" height="21"><div xmlns="http://www.w3.org/1999/xhtml"><div xmlns="http://www.w3.org/1999/xhtml">上级易化：前庭核、小脑前叶两侧部、后叶中间部</div></div></foreignObject></g><g data-depth="2" data-path="1.7" class="markmap-node" transform="translate(437, -189)"><line stroke="#1f77b4" stroke-width="1.75" x1="-1" x2="194" y1="21.875" y2="21.875"/><circle stroke-width="1.5" r="6" stroke="#1f77b4" fill="var(--markmap-circle-open-bg)" cx="192" cy="21.875"/><foreignObject class="markmap-foreign" x="8" y="0" style="opacity: 1;" width="176" height="21"><div xmlns="http://www.w3.org/1999/xhtml"><div xmlns="http://www.w3.org/1999/xhtml">脑干网状结构调节肌紧张</div></div></foreignObject></g><g data-depth="3" data-path="1.12.13" class="markmap-node" transform="translate(693, -115.5625)"><line stroke="#7f7f7f" stroke-width="1.375" x1="-1" x2="258" y1="21.6875" y2="21.6875"/><foreignObject class="markmap-foreign" x="8" y="0" style="opacity: 1;" width="240" height="21"><div xmlns="http://www.w3.org/1999/xhtml"><div xmlns="http://www.w3.org/1999/xhtml">定位：<strong>中脑上、下丘之间</strong>切断脑干</div></div></foreignObject></g><g data-depth="3" data-path="1.12.14" class="markmap-node" transform="translate(693, -88.1875)"><line stroke="#bcbd22" stroke-width="1.375" x1="-1" x2="521" y1="21.6875" y2="21.6875"/><foreignObject class="markmap-foreign" x="8" y="0" style="opacity: 1;" width="503" height="21"><div xmlns="http://www.w3.org/1999/xhtml"><div xmlns="http://www.w3.org/1999/xhtml">现象：全身<strong>伸肌肌紧张亢进</strong> -&gt; 四肢伸直/头尾昂起/脊柱挺硬 -&gt; <strong>角弓反张</strong></div></div></foreignObject></g><g data-depth="3" data-path="1.12.15" class="markmap-node" transform="translate(693, -60.8125)"><line stroke="#17becf" stroke-width="1.375" x1="-1" x2="454" y1="21.6875" y2="21.6875"/><foreignObject class="markmap-foreign" x="8" y="0" style="opacity: 1;" width="436" height="21"><div xmlns="http://www.w3.org/1999/xhtml"><div xmlns="http://www.w3.org/1999/xhtml">机制：切除较多<strong>抑制系统</strong> -&gt; <strong>易化区 &gt;&gt; 抑制区</strong> -&gt; 牵张反射增强</div></div></foreignObject></g><g data-depth="3" data-path="1.12.16" class="markmap-node" transform="translate(693, -33.4375)"><line stroke="#9467bd" stroke-width="1.375" x1="-1" x2="505" y1="21.6875" y2="21.6875"/><foreignObject class="markmap-foreign" x="8" y="0" style="opacity: 1;" width="487" height="21"><div xmlns="http://www.w3.org/1999/xhtml"><div xmlns="http://www.w3.org/1999/xhtml">类型：α 僵直 + <strong>γ 僵直</strong>（经典僵直 -&gt; 网状脊髓束→γ↑→肌梭敏感↑）</div></div></foreignObject></g><g data-depth="2" data-path="1.12" class="markmap-node" transform="translate(437, -74.5)"><line stroke="#e377c2" stroke-width="1.75" x1="-1" x2="178" y1="21.875" y2="21.875"/><circle stroke-width="1.5" r="6" stroke="#e377c2" fill="var(--markmap-circle-open-bg)" cx="176" cy="21.875"/><foreignObject class="markmap-foreign" x="8" y="0" style="opacity: 1;" width="160" height="21"><div xmlns="http://www.w3.org/1999/xhtml"><div xmlns="http://www.w3.org/1999/xhtml">★去大脑僵直（必考）</div></div></foreignObject></g><g data-depth="4" data-path="1.17.18.19" class="markmap-node" transform="translate(989, -1.0625)"><line stroke="#17becf" stroke-width="1.1875" x1="-1" x2="279" y1="21.59375" y2="21.59375"/><foreignObject class="markmap-foreign" x="8" y="0" style="opacity: 1;" width="261" height="21"><div xmlns="http://www.w3.org/1999/xhtml"><div xmlns="http://www.w3.org/1999/xhtml">病变：<strong>黑质</strong>受损 -&gt; <strong>多巴胺能神经元↓</strong></div></div></foreignObject></g><g data-depth="4" data-path="1.17.18.20" class="markmap-node" transform="translate(989, 26.125)"><line stroke="#1f77b4" stroke-width="1.1875" x1="-1" x2="401" y1="21.59375" y2="21.59375"/><foreignObject class="markmap-foreign" x="8" y="0" style="opacity: 1;" width="383" height="21"><div xmlns="http://www.w3.org/1999/xhtml"><div xmlns="http://www.w3.org/1999/xhtml">症状：<strong>肌紧张↑</strong> + 随意运动<strong>减少</strong> + 静止性震颤 + 面具脸</div></div></foreignObject></g><g data-depth="3" data-path="1.17.18" class="markmap-node" transform="translate(725, 12.53125)"><line stroke="#9467bd" stroke-width="1.375" x1="-1" x2="186" y1="21.6875" y2="21.6875"/><circle stroke-width="1.5" r="6" stroke="#9467bd" fill="var(--markmap-circle-open-bg)" cx="184" cy="21.6875"/><foreignObject class="markmap-foreign" x="8" y="0" style="opacity: 1;" width="168" height="21"><div xmlns="http://www.w3.org/1999/xhtml"><div xmlns="http://www.w3.org/1999/xhtml">帕金森病（震颤麻痹）：</div></div></foreignObject></g><g data-depth="4" data-path="1.17.21.22" class="markmap-node" transform="translate(973, 58.3125)"><line stroke="#ff7f0e" stroke-width="1.1875" x1="-1" x2="430" y1="21.59375" y2="21.59375"/><foreignObject class="markmap-foreign" x="8" y="0" style="opacity: 1;" width="412" height="21"><div xmlns="http://www.w3.org/1999/xhtml"><div xmlns="http://www.w3.org/1999/xhtml">病变：<strong>纹状体</strong>受损 -&gt; 胆碱能/GABA 能↓ -&gt; 多巴胺相对<strong>亢进</strong></div></div></foreignObject></g><g data-depth="4" data-path="1.17.21.23" class="markmap-node" transform="translate(973, 85.5)"><line stroke="#2ca02c" stroke-width="1.1875" x1="-1" x2="274" y1="21.59375" y2="21.59375"/><foreignObject class="markmap-foreign" x="8" y="0" style="opacity: 1;" width="256" height="21"><div xmlns="http://www.w3.org/1999/xhtml"><div xmlns="http://www.w3.org/1999/xhtml">症状：<strong>肌紧张↓</strong> + 不自主<strong>舞蹈样</strong>动作</div></div></foreignObject></g><g data-depth="3" data-path="1.17.21" class="markmap-node" transform="translate(725, 71.90625)"><line stroke="#7f7f7f" stroke-width="1.375" x1="-1" x2="170" y1="21.6875" y2="21.6875"/><circle stroke-width="1.5" r="6" stroke="#7f7f7f" fill="var(--markmap-circle-open-bg)" cx="168" cy="21.6875"/><foreignObject class="markmap-foreign" x="8" y="0" style="opacity: 1;" width="152" height="21"><div xmlns="http://www.w3.org/1999/xhtml"><div xmlns="http://www.w3.org/1999/xhtml">亨庭顿病（舞蹈病）：</div></div></foreignObject></g><g data-depth="2" data-path="1.17" class="markmap-node" transform="translate(437, 42.21875)"><line stroke="#d62728" stroke-width="1.75" x1="-1" x2="210" y1="21.875" y2="21.875"/><circle stroke-width="1.5" r="6" stroke="#d62728" fill="var(--markmap-circle-open-bg)" cx="208" cy="21.875"/><foreignObject class="markmap-foreign" x="8" y="0" style="opacity: 1;" width="192" height="21"><div xmlns="http://www.w3.org/1999/xhtml"><div xmlns="http://www.w3.org/1999/xhtml">★基底神经节损伤两大疾病</div></div></foreignObject></g><g data-depth="4" data-path="1.24.25.26" class="markmap-node" transform="translate(957, 117.6875)"><line stroke="#d62728" stroke-width="1.1875" x1="-1" x2="162" y1="21.59375" y2="21.59375"/><foreignObject class="markmap-foreign" x="8" y="0" style="opacity: 1;" width="144" height="21"><div xmlns="http://www.w3.org/1999/xhtml"><div xmlns="http://www.w3.org/1999/xhtml">功能：<strong>维持身体平衡</strong></div></div></foreignObject></g><g data-depth="4" data-path="1.24.25.27" class="markmap-node" transform="translate(957, 144.875)"><line stroke="#9467bd" stroke-width="1.1875" x1="-1" x2="290" y1="21.59375" y2="21.59375"/><foreignObject class="markmap-foreign" x="8" y="0" style="opacity: 1;" width="272" height="21"><div xmlns="http://www.w3.org/1999/xhtml"><div xmlns="http://www.w3.org/1999/xhtml">损伤：平衡障碍、步态蹒跚、<strong>眼球震颤</strong></div></div></foreignObject></g><g data-depth="3" data-path="1.24.25" class="markmap-node" transform="translate(677, 131.28125)"><line stroke="#bcbd22" stroke-width="1.375" x1="-1" x2="202" y1="21.6875" y2="21.6875"/><circle stroke-width="1.5" r="6" stroke="#bcbd22" fill="var(--markmap-circle-open-bg)" cx="200" cy="21.6875"/><foreignObject class="markmap-foreign" x="8" y="0" style="opacity: 1;" width="184" height="21"><div xmlns="http://www.w3.org/1999/xhtml"><div xmlns="http://www.w3.org/1999/xhtml">前庭小脑（绒球小结叶）：</div></div></foreignObject></g><g data-depth="4" data-path="1.24.28.29" class="markmap-node" transform="translate(995, 177.0625)"><line stroke="#d62728" stroke-width="1.1875" x1="-1" x2="258" y1="21.59375" y2="21.59375"/><foreignObject class="markmap-foreign" x="8" y="0" style="opacity: 1;" width="240" height="21"><div xmlns="http://www.w3.org/1999/xhtml"><div xmlns="http://www.w3.org/1999/xhtml">功能：<strong>调节肌紧张</strong> + <strong>协调随意运动</strong></div></div></foreignObject></g><g data-depth="4" data-path="1.24.28.30" class="markmap-node" transform="translate(995, 204.25)"><line stroke="#9467bd" stroke-width="1.1875" x1="-1" x2="439" y1="21.59375" y2="21.59375"/><foreignObject class="markmap-foreign" x="8" y="0" style="opacity: 1;" width="421" height="21"><div xmlns="http://www.w3.org/1999/xhtml"><div xmlns="http://www.w3.org/1999/xhtml">损伤：意向性震颤、指鼻不稳、醉酒步态 -&gt; <strong>小脑性共济失调</strong></div></div></foreignObject></g><g data-depth="3" data-path="1.24.28" class="markmap-node" transform="translate(677, 190.65625)"><line stroke="#2ca02c" stroke-width="1.375" x1="-1" x2="240" y1="21.6875" y2="21.6875"/><circle stroke-width="1.5" r="6" stroke="#2ca02c" fill="var(--markmap-circle-open-bg)" cx="238" cy="21.6875"/><foreignObject class="markmap-foreign" x="8" y="0" style="opacity: 1;" width="222" height="21"><div xmlns="http://www.w3.org/1999/xhtml"><div xmlns="http://www.w3.org/1999/xhtml">脊髓小脑（前叶/后叶中间带）：</div></div></foreignObject></g><g data-depth="4" data-path="1.24.31.32" class="markmap-node" transform="translate(957, 236.4375)"><line stroke="#e377c2" stroke-width="1.1875" x1="-1" x2="210" y1="21.59375" y2="21.59375"/><foreignObject class="markmap-foreign" x="8" y="0" style="opacity: 1;" width="192" height="21"><div xmlns="http://www.w3.org/1999/xhtml"><div xmlns="http://www.w3.org/1999/xhtml">功能：运动<strong>设计</strong>和<strong>编制程序</strong></div></div></foreignObject></g><g data-depth="3" data-path="1.24.31" class="markmap-node" transform="translate(677, 236.4375)"><line stroke="#8c564b" stroke-width="1.375" x1="-1" x2="202" y1="21.6875" y2="21.6875"/><circle stroke-width="1.5" r="6" stroke="#8c564b" fill="var(--markmap-circle-open-bg)" cx="200" cy="21.6875"/><foreignObject class="markmap-foreign" x="8" y="0" style="opacity: 1;" width="184" height="21"><div xmlns="http://www.w3.org/1999/xhtml"><div xmlns="http://www.w3.org/1999/xhtml">皮层小脑（后叶外侧部）：</div></div></foreignObject></g><g data-depth="2" data-path="1.24" class="markmap-node" transform="translate(437, 183.859375)"><line stroke="#7f7f7f" stroke-width="1.75" x1="-1" x2="162" y1="21.875" y2="21.875"/><circle stroke-width="1.5" r="6" stroke="#7f7f7f" fill="var(--markmap-circle-open-bg)" cx="160" cy="21.875"/><foreignObject class="markmap-foreign" x="8" y="0" style="opacity: 1;" width="144" height="21"><div xmlns="http://www.w3.org/1999/xhtml"><div xmlns="http://www.w3.org/1999/xhtml">小脑三大分区与功能</div></div></foreignObject></g><g data-depth="3" data-path="1.33.34" class="markmap-node" transform="translate(773, 268.8125)"><line stroke="#7f7f7f" stroke-width="1.375" x1="-1" x2="485" y1="21.6875" y2="21.6875"/><foreignObject class="markmap-foreign" x="8" y="0" style="opacity: 1;" width="467" height="21"><div xmlns="http://www.w3.org/1999/xhtml"><div xmlns="http://www.w3.org/1999/xhtml">规律：<strong>左右交叉</strong>（上面部双侧）+ <strong>上下倒置</strong> + 面积 ∝ 运动<strong>精细程度</strong></div></div></foreignObject></g><g data-depth="3" data-path="1.33.35" class="markmap-node" transform="translate(773, 296.1875)"><line stroke="#bcbd22" stroke-width="1.375" x1="-1" x2="518" y1="21.6875" y2="21.6875"/><foreignObject class="markmap-foreign" x="8" y="0" style="opacity: 1;" width="500" height="21"><div xmlns="http://www.w3.org/1999/xhtml"><div xmlns="http://www.w3.org/1999/xhtml">传导束：皮层脊髓侧束（<strong>80%</strong> 交叉/精细）+ 前束（<strong>20%</strong> 不交叉/粗略）</div></div></foreignObject></g><g data-depth="2" data-path="1.33" class="markmap-node" transform="translate(437, 282.5)"><line stroke="#e377c2" stroke-width="1.75" x1="-1" x2="258" y1="21.875" y2="21.875"/><circle stroke-width="1.5" r="6" stroke="#e377c2" fill="var(--markmap-circle-open-bg)" cx="256" cy="21.875"/><foreignObject class="markmap-foreign" x="8" y="0" style="opacity: 1;" width="240" height="21"><div xmlns="http://www.w3.org/1999/xhtml"><div xmlns="http://www.w3.org/1999/xhtml">大脑皮层运动区（中央前回 4 区）</div></div></foreignObject></g><g data-depth="1" data-path="1" class="markmap-node" transform="translate(0, -10.5)"><line stroke="#1f77b4" stroke-width="2.5" x1="-1" x2="359" y1="22.25" y2="22.25"/><circle stroke-width="1.5" r="6" stroke="#1f77b4" fill="var(--markmap-circle-open-bg)" cx="357" cy="22.25"/><foreignObject class="markmap-foreign" x="8" y="0" style="opacity: 1;" width="341" height="21"><div xmlns="http://www.w3.org/1999/xhtml"><div xmlns="http://www.w3.org/1999/xhtml">脑干、基底核与小脑的运动调节 — 微型速记导图</div></div></foreignObject></g></g></svg>