<svg xmlns="http://www.w3.org/2000/svg" class="w-full h-full leading-none markmap mm-ki3lx0-1" style=""><style>.markmap{--markmap-max-width: 9999px;--markmap-a-color: #0097e6;--markmap-a-hover-color: #00a8ff;--markmap-code-bg: #f0f0f0;--markmap-code-color: #555;--markmap-highlight-bg: #ffeaa7;--markmap-table-border: 1px solid currentColor;--markmap-font: 300 16px/20px sans-serif;--markmap-circle-open-bg: #fff;--markmap-text-color: #333;--markmap-highlight-node-bg: #ff02;font:var(--markmap-font);color:var(--markmap-text-color)}.markmap-link{fill:none}.markmap-node&gt;circle{cursor:pointer}.markmap-foreign{display:inline-block}.markmap-foreign p{margin:0}.markmap-foreign a{color:var(--markmap-a-color)}.markmap-foreign a:hover{color:var(--markmap-a-hover-color)}.markmap-foreign code{padding:.25em;font-size:calc(1em - 2px);color:var(--markmap-code-color);background-color:var(--markmap-code-bg);border-radius:2px}.markmap-foreign pre{margin:0}.markmap-foreign pre&gt;code{display:block}.markmap-foreign del{text-decoration:line-through}.markmap-foreign em{font-style:italic}.markmap-foreign strong{font-weight:700}.markmap-foreign mark{background:var(--markmap-highlight-bg)}.markmap-foreign table,.markmap-foreign th,.markmap-foreign td{border-collapse:collapse;border:var(--markmap-table-border)}.markmap-foreign img{display:inline-block}.markmap-foreign svg{fill:currentColor}.markmap-foreign&gt;div{width:var(--markmap-max-width);text-align:left}.markmap-foreign&gt;div&gt;div{display:inline-block}.markmap-highlight rect{fill:var(--markmap-highlight-node-bg)}.markmap-dark .markmap{--markmap-code-bg: #1a1b26;--markmap-code-color: #ddd;--markmap-circle-open-bg: #444;--markmap-text-color: #eee}</style><g transform="translate(13.176491055719396,355.40303568620965) scale(0.5485899143376501)"><path class="markmap-link" data-depth="4" data-path="1.3.4.5" d="M645,-182.984C685,-182.984,685,-223.859,725,-223.859" stroke-width="1.1875" stroke="rgb(140, 86, 75)"/><path class="markmap-link" data-depth="4" data-path="1.3.4.6" d="M645,-182.984C685,-182.984,685,-196.672,725,-196.672" stroke-width="1.1875" stroke="rgb(227, 119, 194)"/><path class="markmap-link" data-depth="4" data-path="1.3.4.7" d="M645,-182.984C685,-182.984,685,-169.484,725,-169.484" stroke-width="1.1875" stroke="rgb(140, 86, 75)"/><path class="markmap-link" data-depth="4" data-path="1.3.4.8" d="M645,-182.984C685,-182.984,685,-142.297,725,-142.297" stroke-width="1.1875" stroke="rgb(227, 119, 194)"/><path class="markmap-link" data-depth="3" data-path="1.3.4" d="M469,-132.625C509,-132.625,509,-182.984,549,-182.984" stroke-width="1.375" stroke="rgb(148, 103, 189)"/><path class="markmap-link" data-depth="3" data-path="1.3.9" d="M469,-132.625C509,-132.625,509,-110.016,549,-110.016" stroke-width="1.375" stroke="rgb(23, 190, 207)"/><path class="markmap-link" data-depth="3" data-path="1.3.10" d="M469,-132.625C509,-132.625,509,-82.641,549,-82.641" stroke-width="1.375" stroke="rgb(31, 119, 180)"/><path class="markmap-link" data-depth="4" data-path="1.11.12.13" d="M831,-50.266C871,-50.266,871,-77.547,911,-77.547" stroke-width="1.1875" stroke="rgb(127, 127, 127)"/><path class="markmap-link" data-depth="4" data-path="1.11.12.14" d="M831,-50.266C871,-50.266,871,-50.359,911,-50.359" stroke-width="1.1875" stroke="rgb(188, 189, 34)"/><path class="markmap-link" data-depth="4" data-path="1.11.12.15" d="M831,-50.266C871,-50.266,871,-23.172,911,-23.172" stroke-width="1.1875" stroke="rgb(23, 190, 207)"/><path class="markmap-link" data-depth="3" data-path="1.11.12" d="M389,-6.703C429,-6.703,429,-50.266,469,-50.266" stroke-width="1.375" stroke="rgb(255, 127, 14)"/><path class="markmap-link" data-depth="3" data-path="1.11.16" d="M389,-6.703C429,-6.703,429,9.109,469,9.109" stroke-width="1.375" stroke="rgb(140, 86, 75)"/><path class="markmap-link" data-depth="3" data-path="1.11.17" d="M389,-6.703C429,-6.703,429,36.484,469,36.484" stroke-width="1.375" stroke="rgb(227, 119, 194)"/><path class="markmap-link" data-depth="4" data-path="1.18.23.24" d="M1002,178.359C1042,178.359,1042,164.672,1082,164.672" stroke-width="1.1875" stroke="rgb(255, 127, 14)"/><path class="markmap-link" data-depth="4" data-path="1.18.23.25" d="M1002,178.359C1042,178.359,1042,191.859,1082,191.859" stroke-width="1.1875" stroke="rgb(44, 160, 44)"/><path class="markmap-link" data-depth="3" data-path="1.18.19" d="M597,123.797C637,123.797,637,68.859,677,68.859" stroke-width="1.375" stroke="rgb(188, 189, 34)"/><path class="markmap-link" data-depth="3" data-path="1.18.20" d="M597,123.797C637,123.797,637,96.234,677,96.234" stroke-width="1.375" stroke="rgb(23, 190, 207)"/><path class="markmap-link" data-depth="3" data-path="1.18.21" d="M597,123.797C637,123.797,637,123.609,677,123.609" stroke-width="1.375" stroke="rgb(31, 119, 180)"/><path class="markmap-link" data-depth="3" data-path="1.18.22" d="M597,123.797C637,123.797,637,150.984,677,150.984" stroke-width="1.375" stroke="rgb(23, 190, 207)"/><path class="markmap-link" data-depth="3" data-path="1.18.23" d="M597,123.797C637,123.797,637,178.359,677,178.359" stroke-width="1.375" stroke="rgb(31, 119, 180)"/><path class="markmap-link" data-depth="3" data-path="1.26.27" d="M469,238.297C509,238.297,509,210.734,549,210.734" stroke-width="1.375" stroke="rgb(188, 189, 34)"/><path class="markmap-link" data-depth="3" data-path="1.26.28" d="M469,238.297C509,238.297,509,238.109,549,238.109" stroke-width="1.375" stroke="rgb(23, 190, 207)"/><path class="markmap-link" data-depth="3" data-path="1.26.29" d="M469,238.297C509,238.297,509,265.484,549,265.484" stroke-width="1.375" stroke="rgb(31, 119, 180)"/><path class="markmap-link" data-depth="2" data-path="1.2" d="M245,11.75C285,11.75,285,-215.547,325,-215.547" stroke-width="1.75" stroke="rgb(255, 127, 14)"/><path class="markmap-link" data-depth="2" data-path="1.3" d="M245,11.75C285,11.75,285,-132.625,325,-132.625" stroke-width="1.75" stroke="rgb(214, 39, 40)"/><path class="markmap-link" data-depth="2" data-path="1.11" d="M245,11.75C285,11.75,285,-6.703,325,-6.703" stroke-width="1.75" stroke="rgb(31, 119, 180)"/><path class="markmap-link" data-depth="2" data-path="1.18" d="M245,11.75C285,11.75,285,123.797,325,123.797" stroke-width="1.75" stroke="rgb(127, 127, 127)"/><path class="markmap-link" data-depth="2" data-path="1.26" d="M245,11.75C285,11.75,285,238.297,325,238.297" stroke-width="1.75" stroke="rgb(127, 127, 127)"/><g class="markmap-highlight"/><g data-depth="2" data-path="1.2" class="markmap-node" transform="translate(325, -237.421875)"><line stroke="#ff7f0e" stroke-width="1.75" x1="-1" x2="322" y1="21.875" y2="21.875"/><foreignObject class="markmap-foreign" x="8" y="0" style="opacity: 1;" width="304" height="21"><div xmlns="http://www.w3.org/1999/xhtml"><div xmlns="http://www.w3.org/1999/xhtml">丘脑定位：各种感觉的<strong>中继站</strong>（除<strong>嗅觉</strong>外）</div></div></foreignObject></g><g data-depth="4" data-path="1.3.4.5" class="markmap-node" transform="translate(725, -245.453125)"><line stroke="#8c564b" stroke-width="1.1875" x1="-1" x2="183" y1="21.59375" y2="21.59375"/><foreignObject class="markmap-foreign" x="8" y="0" style="opacity: 1;" width="165" height="21"><div xmlns="http://www.w3.org/1999/xhtml"><div xmlns="http://www.w3.org/1999/xhtml">三叉丘系 -&gt; <strong>后内侧腹核</strong></div></div></foreignObject></g><g data-depth="4" data-path="1.3.4.6" class="markmap-node" transform="translate(725, -218.265625)"><line stroke="#e377c2" stroke-width="1.1875" x1="-1" x2="199" y1="21.59375" y2="21.59375"/><foreignObject class="markmap-foreign" x="8" y="0" style="opacity: 1;" width="181" height="21"><div xmlns="http://www.w3.org/1999/xhtml"><div xmlns="http://www.w3.org/1999/xhtml">脊髓丘脑束 -&gt; <strong>后外侧腹核</strong></div></div></foreignObject></g><g data-depth="4" data-path="1.3.4.7" class="markmap-node" transform="translate(725, -191.078125)"><line stroke="#8c564b" stroke-width="1.1875" x1="-1" x2="151" y1="21.59375" y2="21.59375"/><foreignObject class="markmap-foreign" x="8" y="0" style="opacity: 1;" width="133" height="21"><div xmlns="http://www.w3.org/1999/xhtml"><div xmlns="http://www.w3.org/1999/xhtml">视觉 -&gt; <strong>外侧膝状体</strong></div></div></foreignObject></g><g data-depth="4" data-path="1.3.4.8" class="markmap-node" transform="translate(725, -163.890625)"><line stroke="#e377c2" stroke-width="1.1875" x1="-1" x2="151" y1="21.59375" y2="21.59375"/><foreignObject class="markmap-foreign" x="8" y="0" style="opacity: 1;" width="133" height="21"><div xmlns="http://www.w3.org/1999/xhtml"><div xmlns="http://www.w3.org/1999/xhtml">听觉 -&gt; <strong>内侧膝状体</strong></div></div></foreignObject></g><g data-depth="3" data-path="1.3.4" class="markmap-node" transform="translate(549, -204.671875)"><line stroke="#9467bd" stroke-width="1.375" x1="-1" x2="98" y1="21.6875" y2="21.6875"/><circle stroke-width="1.5" r="6" stroke="#9467bd" fill="var(--markmap-circle-open-bg)" cx="96" cy="21.6875"/><foreignObject class="markmap-foreign" x="8" y="0" style="opacity: 1;" width="80" height="21"><div xmlns="http://www.w3.org/1999/xhtml"><div xmlns="http://www.w3.org/1999/xhtml">传入通路：</div></div></foreignObject></g><g data-depth="3" data-path="1.3.9" class="markmap-node" transform="translate(549, -131.703125)"><line stroke="#17becf" stroke-width="1.375" x1="-1" x2="407" y1="21.6875" y2="21.6875"/><foreignObject class="markmap-foreign" x="8" y="0" style="opacity: 1;" width="389" height="21"><div xmlns="http://www.w3.org/1999/xhtml"><div xmlns="http://www.w3.org/1999/xhtml">功能：产生<strong>特定的感觉</strong> -&gt; 投射至大脑皮层<strong>特定感觉区域</strong></div></div></foreignObject></g><g data-depth="3" data-path="1.3.10" class="markmap-node" transform="translate(549, -104.328125)"><line stroke="#1f77b4" stroke-width="1.375" x1="-1" x2="178" y1="21.6875" y2="21.6875"/><foreignObject class="markmap-foreign" x="8" y="0" style="opacity: 1;" width="160" height="21"><div xmlns="http://www.w3.org/1999/xhtml"><div xmlns="http://www.w3.org/1999/xhtml">特点：<strong>点对点</strong>精确投射</div></div></foreignObject></g><g data-depth="2" data-path="1.3" class="markmap-node" transform="translate(325, -154.5)"><line stroke="#d62728" stroke-width="1.75" x1="-1" x2="146" y1="21.875" y2="21.875"/><circle stroke-width="1.5" r="6" stroke="#d62728" fill="var(--markmap-circle-open-bg)" cx="144" cy="21.875"/><foreignObject class="markmap-foreign" x="8" y="0" style="opacity: 1;" width="128" height="21"><div xmlns="http://www.w3.org/1999/xhtml"><div xmlns="http://www.w3.org/1999/xhtml">★特异感觉接替核</div></div></foreignObject></g><g data-depth="4" data-path="1.11.12.13" class="markmap-node" transform="translate(911, -99.140625)"><line stroke="#7f7f7f" stroke-width="1.1875" x1="-1" x2="151" y1="21.59375" y2="21.59375"/><foreignObject class="markmap-foreign" x="8" y="0" style="opacity: 1;" width="133" height="21"><div xmlns="http://www.w3.org/1999/xhtml"><div xmlns="http://www.w3.org/1999/xhtml">下丘脑 -&gt; <strong>丘脑前核</strong></div></div></foreignObject></g><g data-depth="4" data-path="1.11.12.14" class="markmap-node" transform="translate(911, -71.953125)"><line stroke="#bcbd22" stroke-width="1.1875" x1="-1" x2="151" y1="21.59375" y2="21.59375"/><foreignObject class="markmap-foreign" x="8" y="0" style="opacity: 1;" width="133" height="21"><div xmlns="http://www.w3.org/1999/xhtml"><div xmlns="http://www.w3.org/1999/xhtml">后腹核 -&gt; <strong>腹外侧核</strong></div></div></foreignObject></g><g data-depth="4" data-path="1.11.12.15" class="markmap-node" transform="translate(911, -44.765625)"><line stroke="#17becf" stroke-width="1.1875" x1="-1" x2="183" y1="21.59375" y2="21.59375"/><foreignObject class="markmap-foreign" x="8" y="0" style="opacity: 1;" width="165" height="21"><div xmlns="http://www.w3.org/1999/xhtml"><div xmlns="http://www.w3.org/1999/xhtml">内外侧膝状体 -&gt; <strong>丘脑枕</strong></div></div></foreignObject></g><g data-depth="3" data-path="1.11.12" class="markmap-node" transform="translate(469, -71.953125)"><line stroke="#ff7f0e" stroke-width="1.375" x1="-1" x2="364" y1="21.6875" y2="21.6875"/><circle stroke-width="1.5" r="6" stroke="#ff7f0e" fill="var(--markmap-circle-open-bg)" cx="362" cy="21.6875"/><foreignObject class="markmap-foreign" x="8" y="0" style="opacity: 1;" width="346" height="21"><div xmlns="http://www.w3.org/1999/xhtml"><div xmlns="http://www.w3.org/1999/xhtml">通路：感觉接替核 -&gt; <strong>联络核</strong> -&gt; 大脑皮层特定区域</div></div></foreignObject></g><g data-depth="3" data-path="1.11.16" class="markmap-node" transform="translate(469, -12.578125)"><line stroke="#8c564b" stroke-width="1.375" x1="-1" x2="370" y1="21.6875" y2="21.6875"/><foreignObject class="markmap-foreign" x="8" y="0" style="opacity: 1;" width="352" height="21"><div xmlns="http://www.w3.org/1999/xhtml"><div xmlns="http://www.w3.org/1999/xhtml">功能：协调各种感觉在<strong>丘脑和大脑皮层之间</strong>的联系</div></div></foreignObject></g><g data-depth="3" data-path="1.11.17" class="markmap-node" transform="translate(469, 14.796875)"><line stroke="#e377c2" stroke-width="1.375" x1="-1" x2="178" y1="21.6875" y2="21.6875"/><foreignObject class="markmap-foreign" x="8" y="0" style="opacity: 1;" width="160" height="21"><div xmlns="http://www.w3.org/1999/xhtml"><div xmlns="http://www.w3.org/1999/xhtml">特点：起<strong>联络协调</strong>作用</div></div></foreignObject></g><g data-depth="2" data-path="1.11" class="markmap-node" transform="translate(325, -28.578125)"><line stroke="#1f77b4" stroke-width="1.75" x1="-1" x2="66" y1="21.875" y2="21.875"/><circle stroke-width="1.5" r="6" stroke="#1f77b4" fill="var(--markmap-circle-open-bg)" cx="64" cy="21.875"/><foreignObject class="markmap-foreign" x="8" y="0" style="opacity: 1;" width="48" height="21"><div xmlns="http://www.w3.org/1999/xhtml"><div xmlns="http://www.w3.org/1999/xhtml">联络核</div></div></foreignObject></g><g data-depth="3" data-path="1.18.19" class="markmap-node" transform="translate(677, 47.171875)"><line stroke="#bcbd22" stroke-width="1.375" x1="-1" x2="412" y1="21.6875" y2="21.6875"/><foreignObject class="markmap-foreign" x="8" y="0" style="opacity: 1;" width="394" height="21"><div xmlns="http://www.w3.org/1999/xhtml"><div xmlns="http://www.w3.org/1999/xhtml">通路：<strong>脑干网状结构</strong> -&gt; 髓板内核群 -&gt; 大脑皮层<strong>广泛区域</strong></div></div></foreignObject></g><g data-depth="3" data-path="1.18.20" class="markmap-node" transform="translate(677, 74.546875)"><line stroke="#17becf" stroke-width="1.375" x1="-1" x2="194" y1="21.6875" y2="21.6875"/><foreignObject class="markmap-foreign" x="8" y="0" style="opacity: 1;" width="176" height="21"><div xmlns="http://www.w3.org/1999/xhtml"><div xmlns="http://www.w3.org/1999/xhtml">包括：<strong>中央中核</strong> + <strong>束旁核</strong></div></div></foreignObject></g><g data-depth="3" data-path="1.18.21" class="markmap-node" transform="translate(677, 101.921875)"><line stroke="#1f77b4" stroke-width="1.375" x1="-1" x2="242" y1="21.6875" y2="21.6875"/><foreignObject class="markmap-foreign" x="8" y="0" style="opacity: 1;" width="224" height="21"><div xmlns="http://www.w3.org/1999/xhtml"><div xmlns="http://www.w3.org/1999/xhtml">功能：<strong>维持大脑皮层的兴奋状态</strong></div></div></foreignObject></g><g data-depth="3" data-path="1.18.22" class="markmap-node" transform="translate(677, 129.296875)"><line stroke="#17becf" stroke-width="1.375" x1="-1" x2="210" y1="21.6875" y2="21.6875"/><foreignObject class="markmap-foreign" x="8" y="0" style="opacity: 1;" width="192" height="21"><div xmlns="http://www.w3.org/1999/xhtml"><div xmlns="http://www.w3.org/1999/xhtml">特点：弥散投射，无特异性</div></div></foreignObject></g><g data-depth="4" data-path="1.18.23.24" class="markmap-node" transform="translate(1082, 143.078125)"><line stroke="#ff7f0e" stroke-width="1.1875" x1="-1" x2="135" y1="21.59375" y2="21.59375"/><foreignObject class="markmap-foreign" x="8" y="0" style="opacity: 1;" width="117" height="21"><div xmlns="http://www.w3.org/1999/xhtml"><div xmlns="http://www.w3.org/1999/xhtml">损伤 -&gt; <strong>昏睡不醒</strong></div></div></foreignObject></g><g data-depth="4" data-path="1.18.23.25" class="markmap-node" transform="translate(1082, 170.265625)"><line stroke="#2ca02c" stroke-width="1.1875" x1="-1" x2="247" y1="21.59375" y2="21.59375"/><foreignObject class="markmap-foreign" x="8" y="0" style="opacity: 1;" width="229" height="21"><div xmlns="http://www.w3.org/1999/xhtml"><div xmlns="http://www.w3.org/1999/xhtml">易受<strong>巴比妥类安眠药</strong>抑制 -&gt; 催眠</div></div></foreignObject></g><g data-depth="3" data-path="1.18.23" class="markmap-node" transform="translate(677, 156.671875)"><line stroke="#1f77b4" stroke-width="1.375" x1="-1" x2="327" y1="21.6875" y2="21.6875"/><circle stroke-width="1.5" r="6" stroke="#1f77b4" fill="var(--markmap-circle-open-bg)" cx="325" cy="21.6875"/><foreignObject class="markmap-foreign" x="8" y="0" style="opacity: 1;" width="309" height="21"><div xmlns="http://www.w3.org/1999/xhtml"><div xmlns="http://www.w3.org/1999/xhtml">脑干网状结构<strong>上行激活系统</strong> -&gt; 维持<strong>觉醒状态</strong></div></div></foreignObject></g><g data-depth="2" data-path="1.18" class="markmap-node" transform="translate(325, 101.921875)"><line stroke="#7f7f7f" stroke-width="1.75" x1="-1" x2="274" y1="21.875" y2="21.875"/><circle stroke-width="1.5" r="6" stroke="#7f7f7f" fill="var(--markmap-circle-open-bg)" cx="272" cy="21.875"/><foreignObject class="markmap-foreign" x="8" y="0" style="opacity: 1;" width="256" height="21"><div xmlns="http://www.w3.org/1999/xhtml"><div xmlns="http://www.w3.org/1999/xhtml">★非特异性投射核群（髓板内核群）</div></div></foreignObject></g><g data-depth="3" data-path="1.26.27" class="markmap-node" transform="translate(549, 189.046875)"><line stroke="#bcbd22" stroke-width="1.375" x1="-1" x2="274" y1="21.6875" y2="21.6875"/><foreignObject class="markmap-foreign" x="8" y="0" style="opacity: 1;" width="256" height="21"><div xmlns="http://www.w3.org/1999/xhtml"><div xmlns="http://www.w3.org/1999/xhtml">特异接替 = <strong>产生特定感觉</strong>（点对点）</div></div></foreignObject></g><g data-depth="3" data-path="1.26.28" class="markmap-node" transform="translate(549, 216.421875)"><line stroke="#17becf" stroke-width="1.375" x1="-1" x2="226" y1="21.6875" y2="21.6875"/><foreignObject class="markmap-foreign" x="8" y="0" style="opacity: 1;" width="208" height="21"><div xmlns="http://www.w3.org/1999/xhtml"><div xmlns="http://www.w3.org/1999/xhtml">联络核 = <strong>协调联系</strong>（中转站）</div></div></foreignObject></g><g data-depth="3" data-path="1.26.29" class="markmap-node" transform="translate(549, 243.796875)"><line stroke="#1f77b4" stroke-width="1.375" x1="-1" x2="404" y1="21.6875" y2="21.6875"/><foreignObject class="markmap-foreign" x="8" y="0" style="opacity: 1;" width="386" height="21"><div xmlns="http://www.w3.org/1999/xhtml"><div xmlns="http://www.w3.org/1999/xhtml">非特异核群（髓板内核）= <strong>维持皮层兴奋/觉醒</strong>（弥散）</div></div></foreignObject></g><g data-depth="2" data-path="1.26" class="markmap-node" transform="translate(325, 216.421875)"><line stroke="#7f7f7f" stroke-width="1.75" x1="-1" x2="146" y1="21.875" y2="21.875"/><circle stroke-width="1.5" r="6" stroke="#7f7f7f" fill="var(--markmap-circle-open-bg)" cx="144" cy="21.875"/><foreignObject class="markmap-foreign" x="8" y="0" style="opacity: 1;" width="128" height="21"><div xmlns="http://www.w3.org/1999/xhtml"><div xmlns="http://www.w3.org/1999/xhtml">三大核团功能口诀</div></div></foreignObject></g><g data-depth="1" data-path="1" class="markmap-node" transform="translate(0, -10.5)"><line stroke="#1f77b4" stroke-width="2.5" x1="-1" x2="247" y1="22.25" y2="22.25"/><circle stroke-width="1.5" r="6" stroke="#1f77b4" fill="var(--markmap-circle-open-bg)" cx="245" cy="22.25"/><foreignObject class="markmap-foreign" x="8" y="0" style="opacity: 1;" width="229" height="21"><div xmlns="http://www.w3.org/1999/xhtml"><div xmlns="http://www.w3.org/1999/xhtml">丘脑的三大核团 — 微型速记导图</div></div></foreignObject></g></g></svg>