<svg xmlns="http://www.w3.org/2000/svg" class="w-full h-full leading-none markmap mm-rt305f-1" style=""><style>.markmap{--markmap-max-width: 9999px;--markmap-a-color: #0097e6;--markmap-a-hover-color: #00a8ff;--markmap-code-bg: #f0f0f0;--markmap-code-color: #555;--markmap-highlight-bg: #ffeaa7;--markmap-table-border: 1px solid currentColor;--markmap-font: 300 16px/20px sans-serif;--markmap-circle-open-bg: #fff;--markmap-text-color: #333;--markmap-highlight-node-bg: #ff02;font:var(--markmap-font);color:var(--markmap-text-color)}.markmap-link{fill:none}.markmap-node&gt;circle{cursor:pointer}.markmap-foreign{display:inline-block}.markmap-foreign p{margin:0}.markmap-foreign a{color:var(--markmap-a-color)}.markmap-foreign a:hover{color:var(--markmap-a-hover-color)}.markmap-foreign code{padding:.25em;font-size:calc(1em - 2px);color:var(--markmap-code-color);background-color:var(--markmap-code-bg);border-radius:2px}.markmap-foreign pre{margin:0}.markmap-foreign pre&gt;code{display:block}.markmap-foreign del{text-decoration:line-through}.markmap-foreign em{font-style:italic}.markmap-foreign strong{font-weight:700}.markmap-foreign mark{background:var(--markmap-highlight-bg)}.markmap-foreign table,.markmap-foreign th,.markmap-foreign td{border-collapse:collapse;border:var(--markmap-table-border)}.markmap-foreign img{display:inline-block}.markmap-foreign svg{fill:currentColor}.markmap-foreign&gt;div{width:var(--markmap-max-width);text-align:left}.markmap-foreign&gt;div&gt;div{display:inline-block}.markmap-highlight rect{fill:var(--markmap-highlight-node-bg)}.markmap-dark .markmap{--markmap-code-bg: #1a1b26;--markmap-code-color: #ddd;--markmap-circle-open-bg: #444;--markmap-text-color: #eee}</style><g transform="translate(33.50903305739,361.4131559694479) scale(0.5037915699633326)"><path class="markmap-link" data-depth="3" data-path="1.2.3" d="M517,-123.062C557,-123.062,557,-164.312,597,-164.312" stroke-width="1.375" stroke="rgb(148, 103, 189)"/><path class="markmap-link" data-depth="3" data-path="1.2.4" d="M517,-123.062C557,-123.062,557,-136.937,597,-136.937" stroke-width="1.375" stroke="rgb(140, 86, 75)"/><path class="markmap-link" data-depth="3" data-path="1.2.5" d="M517,-123.062C557,-123.062,557,-109.562,597,-109.562" stroke-width="1.375" stroke="rgb(227, 119, 194)"/><path class="markmap-link" data-depth="3" data-path="1.2.6" d="M517,-123.062C557,-123.062,557,-82.187,597,-82.187" stroke-width="1.375" stroke="rgb(23, 190, 207)"/><path class="markmap-link" data-depth="3" data-path="1.7.8" d="M565,-49.625C605,-49.625,605,-49.812,645,-49.812" stroke-width="1.375" stroke="rgb(255, 127, 14)"/><path class="markmap-link" data-depth="3" data-path="1.9.10" d="M517,10.5C557,10.5,557,-17.062,597,-17.062" stroke-width="1.375" stroke="rgb(214, 39, 40)"/><path class="markmap-link" data-depth="3" data-path="1.9.11" d="M517,10.5C557,10.5,557,10.313,597,10.313" stroke-width="1.375" stroke="rgb(148, 103, 189)"/><path class="markmap-link" data-depth="3" data-path="1.9.12" d="M517,10.5C557,10.5,557,37.688,597,37.688" stroke-width="1.375" stroke="rgb(140, 86, 75)"/><path class="markmap-link" data-depth="4" data-path="1.13.15.16" d="M909,129.625C949,129.625,949,102.344,989,102.344" stroke-width="1.1875" stroke="rgb(127, 127, 127)"/><path class="markmap-link" data-depth="4" data-path="1.13.15.17" d="M909,129.625C949,129.625,949,129.531,989,129.531" stroke-width="1.1875" stroke="rgb(188, 189, 34)"/><path class="markmap-link" data-depth="4" data-path="1.13.15.18" d="M909,129.625C949,129.625,949,156.719,989,156.719" stroke-width="1.1875" stroke="rgb(23, 190, 207)"/><path class="markmap-link" data-depth="4" data-path="1.13.19.20" d="M909,189C949,189,949,188.906,989,188.906" stroke-width="1.1875" stroke="rgb(255, 127, 14)"/><path class="markmap-link" data-depth="3" data-path="1.13.14" d="M661,145.813C701,145.813,701,70.063,741,70.063" stroke-width="1.375" stroke="rgb(127, 127, 127)"/><path class="markmap-link" data-depth="3" data-path="1.13.15" d="M661,145.813C701,145.813,701,129.625,741,129.625" stroke-width="1.375" stroke="rgb(188, 189, 34)"/><path class="markmap-link" data-depth="3" data-path="1.13.19" d="M661,145.813C701,145.813,701,189,741,189" stroke-width="1.375" stroke="rgb(31, 119, 180)"/><path class="markmap-link" data-depth="3" data-path="1.13.21" d="M661,145.813C701,145.813,701,221.188,741,221.188" stroke-width="1.375" stroke="rgb(44, 160, 44)"/><path class="markmap-link" data-depth="2" data-path="1.2" d="M309,11.75C349,11.75,349,-123.062,389,-123.062" stroke-width="1.75" stroke="rgb(255, 127, 14)"/><path class="markmap-link" data-depth="2" data-path="1.7" d="M309,11.75C349,11.75,349,-49.625,389,-49.625" stroke-width="1.75" stroke="rgb(31, 119, 180)"/><path class="markmap-link" data-depth="2" data-path="1.9" d="M309,11.75C349,11.75,349,10.5,389,10.5" stroke-width="1.75" stroke="rgb(214, 39, 40)"/><path class="markmap-link" data-depth="2" data-path="1.13" d="M309,11.75C349,11.75,349,145.813,389,145.813" stroke-width="1.75" stroke="rgb(227, 119, 194)"/><g class="markmap-highlight"/><g data-depth="3" data-path="1.2.3" class="markmap-node" transform="translate(597, -186)"><line stroke="#9467bd" stroke-width="1.375" x1="-1" x2="290" y1="21.6875" y2="21.6875"/><foreignObject class="markmap-foreign" x="8" y="0" style="opacity: 1;" width="272" height="21"><div xmlns="http://www.w3.org/1999/xhtml"><div xmlns="http://www.w3.org/1999/xhtml">来源：骨髓<strong>巨核细胞</strong>胞质小块（<strong>无核</strong>）</div></div></foreignObject></g><g data-depth="3" data-path="1.2.4" class="markmap-node" transform="translate(597, -158.625)"><line stroke="#8c564b" stroke-width="1.375" x1="-1" x2="256" y1="21.6875" y2="21.6875"/><foreignObject class="markmap-foreign" x="8" y="0" style="opacity: 1;" width="238" height="21"><div xmlns="http://www.w3.org/1999/xhtml"><div xmlns="http://www.w3.org/1999/xhtml">寿命：<strong>7~14天</strong>（仅前2天有功能）</div></div></foreignObject></g><g data-depth="3" data-path="1.2.5" class="markmap-node" transform="translate(597, -131.25)"><line stroke="#e377c2" stroke-width="1.375" x1="-1" x2="217" y1="21.6875" y2="21.6875"/><foreignObject class="markmap-foreign" x="8" y="0" style="opacity: 1;" width="199" height="21"><div xmlns="http://www.w3.org/1999/xhtml"><div xmlns="http://www.w3.org/1999/xhtml">正常值：<strong>(100~300)×10⁹/L</strong></div></div></foreignObject></g><g data-depth="3" data-path="1.2.6" class="markmap-node" transform="translate(597, -103.875)"><line stroke="#17becf" stroke-width="1.375" x1="-1" x2="378" y1="21.6875" y2="21.6875"/><foreignObject class="markmap-foreign" x="8" y="0" style="opacity: 1;" width="360" height="21"><div xmlns="http://www.w3.org/1999/xhtml"><div xmlns="http://www.w3.org/1999/xhtml">&lt; <strong>50×10⁹/L</strong> -&gt; 出血倾向 | &gt; <strong>1000×10⁹/L</strong> -&gt; 易血栓</div></div></foreignObject></g><g data-depth="2" data-path="1.2" class="markmap-node" transform="translate(389, -144.9375)"><line stroke="#ff7f0e" stroke-width="1.75" x1="-1" x2="130" y1="21.875" y2="21.875"/><circle stroke-width="1.5" r="6" stroke="#ff7f0e" fill="var(--markmap-circle-open-bg)" cx="128" cy="21.875"/><foreignObject class="markmap-foreign" x="8" y="0" style="opacity: 1;" width="112" height="21"><div xmlns="http://www.w3.org/1999/xhtml"><div xmlns="http://www.w3.org/1999/xhtml">血小板基本特征</div></div></foreignObject></g><g data-depth="3" data-path="1.7.8" class="markmap-node" transform="translate(645, -71.5)"><line stroke="#ff7f0e" stroke-width="1.375" x1="-1" x2="290" y1="21.6875" y2="21.6875"/><foreignObject class="markmap-foreign" x="8" y="0" style="opacity: 1;" width="272" height="21"><div xmlns="http://www.w3.org/1999/xhtml"><div xmlns="http://www.w3.org/1999/xhtml">① 黏附 ② 释放 ③ 聚集 ④ 收缩 ⑤ 吸附</div></div></foreignObject></g><g data-depth="2" data-path="1.7" class="markmap-node" transform="translate(389, -71.5)"><line stroke="#1f77b4" stroke-width="1.75" x1="-1" x2="178" y1="21.875" y2="21.875"/><circle stroke-width="1.5" r="6" stroke="#1f77b4" fill="var(--markmap-circle-open-bg)" cx="176" cy="21.875"/><foreignObject class="markmap-foreign" x="8" y="0" style="opacity: 1;" width="160" height="21"><div xmlns="http://www.w3.org/1999/xhtml"><div xmlns="http://www.w3.org/1999/xhtml">★血小板五大生理特性</div></div></foreignObject></g><g data-depth="3" data-path="1.9.10" class="markmap-node" transform="translate(597, -38.75)"><line stroke="#d62728" stroke-width="1.375" x1="-1" x2="194" y1="21.6875" y2="21.6875"/><foreignObject class="markmap-foreign" x="8" y="0" style="opacity: 1;" width="176" height="21"><div xmlns="http://www.w3.org/1999/xhtml"><div xmlns="http://www.w3.org/1999/xhtml">维持毛细血管内皮完整性</div></div></foreignObject></g><g data-depth="3" data-path="1.9.11" class="markmap-node" transform="translate(597, -11.375)"><line stroke="#9467bd" stroke-width="1.375" x1="-1" x2="130" y1="21.6875" y2="21.6875"/><foreignObject class="markmap-foreign" x="8" y="0" style="opacity: 1;" width="112" height="21"><div xmlns="http://www.w3.org/1999/xhtml"><div xmlns="http://www.w3.org/1999/xhtml">参与生理性止血</div></div></foreignObject></g><g data-depth="3" data-path="1.9.12" class="markmap-node" transform="translate(597, 16)"><line stroke="#8c564b" stroke-width="1.375" x1="-1" x2="114" y1="21.6875" y2="21.6875"/><foreignObject class="markmap-foreign" x="8" y="0" style="opacity: 1;" width="96" height="21"><div xmlns="http://www.w3.org/1999/xhtml"><div xmlns="http://www.w3.org/1999/xhtml">促进血液凝固</div></div></foreignObject></g><g data-depth="2" data-path="1.9" class="markmap-node" transform="translate(389, -11.375)"><line stroke="#d62728" stroke-width="1.75" x1="-1" x2="130" y1="21.875" y2="21.875"/><circle stroke-width="1.5" r="6" stroke="#d62728" fill="var(--markmap-circle-open-bg)" cx="128" cy="21.875"/><foreignObject class="markmap-foreign" x="8" y="0" style="opacity: 1;" width="112" height="21"><div xmlns="http://www.w3.org/1999/xhtml"><div xmlns="http://www.w3.org/1999/xhtml">血小板三大功能</div></div></foreignObject></g><g data-depth="3" data-path="1.13.14" class="markmap-node" transform="translate(741, 48.375)"><line stroke="#7f7f7f" stroke-width="1.375" x1="-1" x2="230" y1="21.6875" y2="21.6875"/><foreignObject class="markmap-foreign" x="8" y="0" style="opacity: 1;" width="212" height="21"><div xmlns="http://www.w3.org/1999/xhtml"><div xmlns="http://www.w3.org/1999/xhtml">出血时间：&lt; <strong>9min</strong>（模板法）</div></div></foreignObject></g><g data-depth="4" data-path="1.13.15.16" class="markmap-node" transform="translate(989, 80.75)"><line stroke="#7f7f7f" stroke-width="1.1875" x1="-1" x2="344" y1="21.59375" y2="21.59375"/><foreignObject class="markmap-foreign" x="8" y="0" style="opacity: 1;" width="326" height="21"><div xmlns="http://www.w3.org/1999/xhtml"><div xmlns="http://www.w3.org/1999/xhtml">血管损伤 -&gt; 暴露<strong>胶原</strong> -&gt; 血小板<strong>黏附/聚集/释放</strong></div></div></foreignObject></g><g data-depth="4" data-path="1.13.15.17" class="markmap-node" transform="translate(989, 107.9375)"><line stroke="#bcbd22" stroke-width="1.1875" x1="-1" x2="217" y1="21.59375" y2="21.59375"/><foreignObject class="markmap-foreign" x="8" y="0" style="opacity: 1;" width="199" height="21"><div xmlns="http://www.w3.org/1999/xhtml"><div xmlns="http://www.w3.org/1999/xhtml">释放 <strong>5-HT/TXA₂</strong> -&gt; <strong>血管收缩</strong></div></div></foreignObject></g><g data-depth="4" data-path="1.13.15.18" class="markmap-node" transform="translate(989, 135.125)"><line stroke="#17becf" stroke-width="1.1875" x1="-1" x2="362" y1="21.59375" y2="21.59375"/><foreignObject class="markmap-foreign" x="8" y="0" style="opacity: 1;" width="344" height="21"><div xmlns="http://www.w3.org/1999/xhtml"><div xmlns="http://www.w3.org/1999/xhtml">-&gt; 形成<strong>松软的血小板血栓</strong>（白色血栓/初期止血）</div></div></foreignObject></g><g data-depth="3" data-path="1.13.15" class="markmap-node" transform="translate(741, 107.9375)"><line stroke="#bcbd22" stroke-width="1.375" x1="-1" x2="170" y1="21.6875" y2="21.6875"/><circle stroke-width="1.5" r="6" stroke="#bcbd22" fill="var(--markmap-circle-open-bg)" cx="168" cy="21.6875"/><foreignObject class="markmap-foreign" x="8" y="0" style="opacity: 1;" width="152" height="21"><div xmlns="http://www.w3.org/1999/xhtml"><div xmlns="http://www.w3.org/1999/xhtml">第一期（一期止血）：</div></div></foreignObject></g><g data-depth="4" data-path="1.13.19.20" class="markmap-node" transform="translate(989, 167.3125)"><line stroke="#ff7f0e" stroke-width="1.1875" x1="-1" x2="444" y1="21.59375" y2="21.59375"/><foreignObject class="markmap-foreign" x="8" y="0" style="opacity: 1;" width="426" height="21"><div xmlns="http://www.w3.org/1999/xhtml"><div xmlns="http://www.w3.org/1999/xhtml">凝血系统激活 -&gt; <strong>纤维蛋白网</strong>形成 -&gt; 加固止血栓（红色血栓）</div></div></foreignObject></g><g data-depth="3" data-path="1.13.19" class="markmap-node" transform="translate(741, 167.3125)"><line stroke="#1f77b4" stroke-width="1.375" x1="-1" x2="170" y1="21.6875" y2="21.6875"/><circle stroke-width="1.5" r="6" stroke="#1f77b4" fill="var(--markmap-circle-open-bg)" cx="168" cy="21.6875"/><foreignObject class="markmap-foreign" x="8" y="0" style="opacity: 1;" width="152" height="21"><div xmlns="http://www.w3.org/1999/xhtml"><div xmlns="http://www.w3.org/1999/xhtml">第二期（二期止血）：</div></div></foreignObject></g><g data-depth="3" data-path="1.13.21" class="markmap-node" transform="translate(741, 199.5)"><line stroke="#2ca02c" stroke-width="1.375" x1="-1" x2="711" y1="21.6875" y2="21.6875"/><foreignObject class="markmap-foreign" x="8" y="0" style="opacity: 1;" width="693" height="21"><div xmlns="http://www.w3.org/1999/xhtml"><div xmlns="http://www.w3.org/1999/xhtml">完整链：损伤-&gt;胶原暴露-&gt;血小板激活-&gt;5-HT/TXA₂-&gt;血管收缩+血小板血栓-&gt;凝血系统-&gt;纤维蛋白网</div></div></foreignObject></g><g data-depth="2" data-path="1.13" class="markmap-node" transform="translate(389, 123.9375)"><line stroke="#e377c2" stroke-width="1.75" x1="-1" x2="274" y1="21.875" y2="21.875"/><circle stroke-width="1.5" r="6" stroke="#e377c2" fill="var(--markmap-circle-open-bg)" cx="272" cy="21.875"/><foreignObject class="markmap-foreign" x="8" y="0" style="opacity: 1;" width="256" height="21"><div xmlns="http://www.w3.org/1999/xhtml"><div xmlns="http://www.w3.org/1999/xhtml">★生理性止血三个基本过程（必考）</div></div></foreignObject></g><g data-depth="1" data-path="1" class="markmap-node" transform="translate(0, -10.5)"><line stroke="#1f77b4" stroke-width="2.5" x1="-1" x2="311" y1="22.25" y2="22.25"/><circle stroke-width="1.5" r="6" stroke="#1f77b4" fill="var(--markmap-circle-open-bg)" cx="309" cy="22.25"/><foreignObject class="markmap-foreign" x="8" y="0" style="opacity: 1;" width="293" height="21"><div xmlns="http://www.w3.org/1999/xhtml"><div xmlns="http://www.w3.org/1999/xhtml">血小板生理与生理性止血 — 微型速记导图</div></div></foreignObject></g></g></svg>