<svg xmlns="http://www.w3.org/2000/svg" class="w-full h-full leading-none markmap mm-7aew7z-1" style=""><style>.markmap{--markmap-max-width: 9999px;--markmap-a-color: #0097e6;--markmap-a-hover-color: #00a8ff;--markmap-code-bg: #f0f0f0;--markmap-code-color: #555;--markmap-highlight-bg: #ffeaa7;--markmap-table-border: 1px solid currentColor;--markmap-font: 300 16px/20px sans-serif;--markmap-circle-open-bg: #fff;--markmap-text-color: #333;--markmap-highlight-node-bg: #ff02;font:var(--markmap-font);color:var(--markmap-text-color)}.markmap-link{fill:none}.markmap-node&gt;circle{cursor:pointer}.markmap-foreign{display:inline-block}.markmap-foreign p{margin:0}.markmap-foreign a{color:var(--markmap-a-color)}.markmap-foreign a:hover{color:var(--markmap-a-hover-color)}.markmap-foreign code{padding:.25em;font-size:calc(1em - 2px);color:var(--markmap-code-color);background-color:var(--markmap-code-bg);border-radius:2px}.markmap-foreign pre{margin:0}.markmap-foreign pre&gt;code{display:block}.markmap-foreign del{text-decoration:line-through}.markmap-foreign em{font-style:italic}.markmap-foreign strong{font-weight:700}.markmap-foreign mark{background:var(--markmap-highlight-bg)}.markmap-foreign table,.markmap-foreign th,.markmap-foreign td{border-collapse:collapse;border:var(--markmap-table-border)}.markmap-foreign img{display:inline-block}.markmap-foreign svg{fill:currentColor}.markmap-foreign&gt;div{width:var(--markmap-max-width);text-align:left}.markmap-foreign&gt;div&gt;div{display:inline-block}.markmap-highlight rect{fill:var(--markmap-highlight-node-bg)}.markmap-dark .markmap{--markmap-code-bg: #1a1b26;--markmap-code-color: #ddd;--markmap-circle-open-bg: #444;--markmap-text-color: #eee}</style><g transform="translate(79.09838345104515,386.1762558950358) scale(0.4302595105700048)"><path class="markmap-link" data-depth="3" data-path="1.2.3" d="M499,-533.937C539,-533.937,539,-561.5,579,-561.5" stroke-width="1.375" stroke="rgb(148, 103, 189)"/><path class="markmap-link" data-depth="3" data-path="1.2.4" d="M499,-533.937C539,-533.937,539,-534.125,579,-534.125" stroke-width="1.375" stroke="rgb(140, 86, 75)"/><path class="markmap-link" data-depth="3" data-path="1.2.5" d="M499,-533.937C539,-533.937,539,-506.75,579,-506.75" stroke-width="1.375" stroke="rgb(188, 189, 34)"/><path class="markmap-link" data-depth="3" data-path="1.6.7" d="M419,-446.812C459,-446.812,459,-474.375,499,-474.375" stroke-width="1.375" stroke="rgb(140, 86, 75)"/><path class="markmap-link" data-depth="3" data-path="1.6.8" d="M419,-446.812C459,-446.812,459,-447,499,-447" stroke-width="1.375" stroke="rgb(227, 119, 194)"/><path class="markmap-link" data-depth="3" data-path="1.6.9" d="M419,-446.812C459,-446.812,459,-419.625,499,-419.625" stroke-width="1.375" stroke="rgb(127, 127, 127)"/><path class="markmap-link" data-depth="3" data-path="1.10.11" d="M547,-346C587,-346,587,-387.25,627,-387.25" stroke-width="1.375" stroke="rgb(23, 190, 207)"/><path class="markmap-link" data-depth="3" data-path="1.10.12" d="M547,-346C587,-346,587,-359.875,627,-359.875" stroke-width="1.375" stroke="rgb(31, 119, 180)"/><path class="markmap-link" data-depth="3" data-path="1.10.13" d="M547,-346C587,-346,587,-332.5,627,-332.5" stroke-width="1.375" stroke="rgb(255, 127, 14)"/><path class="markmap-link" data-depth="3" data-path="1.10.14" d="M547,-346C587,-346,587,-305.125,627,-305.125" stroke-width="1.375" stroke="rgb(44, 160, 44)"/><path class="markmap-link" data-depth="3" data-path="1.15.16" d="M670,-245.187C710,-245.187,710,-272.75,750,-272.75" stroke-width="1.375" stroke="rgb(148, 103, 189)"/><path class="markmap-link" data-depth="3" data-path="1.15.17" d="M670,-245.187C710,-245.187,710,-245.375,750,-245.375" stroke-width="1.375" stroke="rgb(140, 86, 75)"/><path class="markmap-link" data-depth="3" data-path="1.15.18" d="M670,-245.187C710,-245.187,710,-218,750,-218" stroke-width="1.375" stroke="rgb(227, 119, 194)"/><path class="markmap-link" data-depth="3" data-path="1.19.20" d="M515,-158.062C555,-158.062,555,-185.625,595,-185.625" stroke-width="1.375" stroke="rgb(188, 189, 34)"/><path class="markmap-link" data-depth="3" data-path="1.19.21" d="M515,-158.062C555,-158.062,555,-158.25,595,-158.25" stroke-width="1.375" stroke="rgb(23, 190, 207)"/><path class="markmap-link" data-depth="3" data-path="1.19.22" d="M515,-158.062C555,-158.062,555,-130.875,595,-130.875" stroke-width="1.375" stroke="rgb(31, 119, 180)"/><path class="markmap-link" data-depth="4" data-path="1.23.26.27" d="M845,-43.75C885,-43.75,885,-57.437,925,-57.437" stroke-width="1.1875" stroke="rgb(140, 86, 75)"/><path class="markmap-link" data-depth="4" data-path="1.23.26.28" d="M845,-43.75C885,-43.75,885,-30.25,925,-30.25" stroke-width="1.1875" stroke="rgb(227, 119, 194)"/><path class="markmap-link" data-depth="3" data-path="1.23.24" d="M497,11.188C537,11.188,537,-98.5,577,-98.5" stroke-width="1.375" stroke="rgb(44, 160, 44)"/><path class="markmap-link" data-depth="3" data-path="1.23.25" d="M497,11.188C537,11.188,537,-71.125,577,-71.125" stroke-width="1.375" stroke="rgb(214, 39, 40)"/><path class="markmap-link" data-depth="3" data-path="1.23.26" d="M497,11.188C537,11.188,537,-43.75,577,-43.75" stroke-width="1.375" stroke="rgb(148, 103, 189)"/><path class="markmap-link" data-depth="3" data-path="1.23.29" d="M497,11.188C537,11.188,537,-16.375,577,-16.375" stroke-width="1.375" stroke="rgb(127, 127, 127)"/><path class="markmap-link" data-depth="3" data-path="1.23.30" d="M497,11.188C537,11.188,537,11,577,11" stroke-width="1.375" stroke="rgb(188, 189, 34)"/><path class="markmap-link" data-depth="3" data-path="1.23.31" d="M497,11.188C537,11.188,537,38.375,577,38.375" stroke-width="1.375" stroke="rgb(23, 190, 207)"/><path class="markmap-link" data-depth="3" data-path="1.23.32" d="M497,11.188C537,11.188,537,65.75,577,65.75" stroke-width="1.375" stroke="rgb(31, 119, 180)"/><path class="markmap-link" data-depth="3" data-path="1.23.33" d="M497,11.188C537,11.188,537,93.125,577,93.125" stroke-width="1.375" stroke="rgb(255, 127, 14)"/><path class="markmap-link" data-depth="3" data-path="1.23.34" d="M497,11.188C537,11.188,537,120.5,577,120.5" stroke-width="1.375" stroke="rgb(44, 160, 44)"/><path class="markmap-link" data-depth="3" data-path="1.35.36" d="M546,194.125C586,194.125,586,152.875,626,152.875" stroke-width="1.375" stroke="rgb(148, 103, 189)"/><path class="markmap-link" data-depth="3" data-path="1.35.37" d="M546,194.125C586,194.125,586,180.25,626,180.25" stroke-width="1.375" stroke="rgb(140, 86, 75)"/><path class="markmap-link" data-depth="3" data-path="1.35.38" d="M546,194.125C586,194.125,586,207.625,626,207.625" stroke-width="1.375" stroke="rgb(227, 119, 194)"/><path class="markmap-link" data-depth="3" data-path="1.35.39" d="M546,194.125C586,194.125,586,235,626,235" stroke-width="1.375" stroke="rgb(127, 127, 127)"/><path class="markmap-link" data-depth="3" data-path="1.40.41" d="M751,322.313C791,322.313,791,267.375,831,267.375" stroke-width="1.375" stroke="rgb(23, 190, 207)"/><path class="markmap-link" data-depth="3" data-path="1.40.42" d="M751,322.313C791,322.313,791,294.75,831,294.75" stroke-width="1.375" stroke="rgb(31, 119, 180)"/><path class="markmap-link" data-depth="3" data-path="1.40.43" d="M751,322.313C791,322.313,791,322.125,831,322.125" stroke-width="1.375" stroke="rgb(255, 127, 14)"/><path class="markmap-link" data-depth="3" data-path="1.40.44" d="M751,322.313C791,322.313,791,349.5,831,349.5" stroke-width="1.375" stroke="rgb(44, 160, 44)"/><path class="markmap-link" data-depth="3" data-path="1.40.45" d="M751,322.313C791,322.313,791,376.875,831,376.875" stroke-width="1.375" stroke="rgb(214, 39, 40)"/><path class="markmap-link" data-depth="3" data-path="1.46.47" d="M451,409.438C491,409.438,491,409.25,531,409.25" stroke-width="1.375" stroke="rgb(140, 86, 75)"/><path class="markmap-link" data-depth="3" data-path="1.48.49" d="M435,469.563C475,469.563,475,442,515,442" stroke-width="1.375" stroke="rgb(127, 127, 127)"/><path class="markmap-link" data-depth="3" data-path="1.48.50" d="M435,469.563C475,469.563,475,469.375,515,469.375" stroke-width="1.375" stroke="rgb(188, 189, 34)"/><path class="markmap-link" data-depth="3" data-path="1.48.51" d="M435,469.563C475,469.563,475,496.75,515,496.75" stroke-width="1.375" stroke="rgb(23, 190, 207)"/><path class="markmap-link" data-depth="3" data-path="1.52.53" d="M429,556.688C469,556.688,469,529.125,509,529.125" stroke-width="1.375" stroke="rgb(255, 127, 14)"/><path class="markmap-link" data-depth="3" data-path="1.52.54" d="M429,556.688C469,556.688,469,556.5,509,556.5" stroke-width="1.375" stroke="rgb(44, 160, 44)"/><path class="markmap-link" data-depth="3" data-path="1.52.55" d="M429,556.688C469,556.688,469,583.875,509,583.875" stroke-width="1.375" stroke="rgb(214, 39, 40)"/><path class="markmap-link" data-depth="2" data-path="1.2" d="M248,11.75C288,11.75,288,-533.937,328,-533.937" stroke-width="1.75" stroke="rgb(255, 127, 14)"/><path class="markmap-link" data-depth="2" data-path="1.6" d="M248,11.75C288,11.75,288,-446.812,328,-446.812" stroke-width="1.75" stroke="rgb(148, 103, 189)"/><path class="markmap-link" data-depth="2" data-path="1.10" d="M248,11.75C288,11.75,288,-346,328,-346" stroke-width="1.75" stroke="rgb(188, 189, 34)"/><path class="markmap-link" data-depth="2" data-path="1.15" d="M248,11.75C288,11.75,288,-245.187,328,-245.187" stroke-width="1.75" stroke="rgb(214, 39, 40)"/><path class="markmap-link" data-depth="2" data-path="1.19" d="M248,11.75C288,11.75,288,-158.062,328,-158.062" stroke-width="1.75" stroke="rgb(127, 127, 127)"/><path class="markmap-link" data-depth="2" data-path="1.23" d="M248,11.75C288,11.75,288,11.188,328,11.188" stroke-width="1.75" stroke="rgb(255, 127, 14)"/><path class="markmap-link" data-depth="2" data-path="1.35" d="M248,11.75C288,11.75,288,194.125,328,194.125" stroke-width="1.75" stroke="rgb(214, 39, 40)"/><path class="markmap-link" data-depth="2" data-path="1.40" d="M248,11.75C288,11.75,288,322.313,328,322.313" stroke-width="1.75" stroke="rgb(188, 189, 34)"/><path class="markmap-link" data-depth="2" data-path="1.46" d="M248,11.75C288,11.75,288,409.438,328,409.438" stroke-width="1.75" stroke="rgb(148, 103, 189)"/><path class="markmap-link" data-depth="2" data-path="1.48" d="M248,11.75C288,11.75,288,469.563,328,469.563" stroke-width="1.75" stroke="rgb(227, 119, 194)"/><path class="markmap-link" data-depth="2" data-path="1.52" d="M248,11.75C288,11.75,288,556.688,328,556.688" stroke-width="1.75" stroke="rgb(31, 119, 180)"/><g class="markmap-highlight"/><g data-depth="3" data-path="1.2.3" class="markmap-node" transform="translate(579, -583.1875)"><line stroke="#9467bd" stroke-width="1.375" x1="-1" x2="290" y1="21.6875" y2="21.6875"/><foreignObject class="markmap-foreign" x="8" y="0" style="opacity: 1;" width="272" height="21"><div xmlns="http://www.w3.org/1999/xhtml"><div xmlns="http://www.w3.org/1999/xhtml">研究某一因素时 -&gt; <strong>固定其它因素不变</strong>   </div></div></foreignObject></g><g data-depth="3" data-path="1.2.4" class="markmap-node" transform="translate(579, -555.8125)"><line stroke="#8c564b" stroke-width="1.375" x1="-1" x2="173" y1="21.6875" y2="21.6875"/><foreignObject class="markmap-foreign" x="8" y="0" style="opacity: 1;" width="155" height="21"><div xmlns="http://www.w3.org/1999/xhtml"><div xmlns="http://www.w3.org/1999/xhtml">单底物、单产物反应   </div></div></foreignObject></g><g data-depth="3" data-path="1.2.5" class="markmap-node" transform="translate(579, -528.4375)"><line stroke="#bcbd22" stroke-width="1.375" x1="-1" x2="337" y1="21.6875" y2="21.6875"/><foreignObject class="markmap-foreign" x="8" y="0" style="opacity: 1;" width="319" height="21"><div xmlns="http://www.w3.org/1999/xhtml"><div xmlns="http://www.w3.org/1999/xhtml">反应速度取<strong>初速度</strong> -&gt; 底物消耗量在 <strong>5%</strong> 以内   </div></div></foreignObject></g><g data-depth="2" data-path="1.2" class="markmap-node" transform="translate(328, -555.8125)"><line stroke="#ff7f0e" stroke-width="1.75" x1="-1" x2="173" y1="21.875" y2="21.875"/><circle stroke-width="1.5" r="6" stroke="#ff7f0e" fill="var(--markmap-circle-open-bg)" cx="171" cy="21.875"/><foreignObject class="markmap-foreign" x="8" y="0" style="opacity: 1;" width="155" height="21"><div xmlns="http://www.w3.org/1999/xhtml"><div xmlns="http://www.w3.org/1999/xhtml"><strong>酶促反应动力学前提</strong>   </div></div></foreignObject></g><g data-depth="3" data-path="1.6.7" class="markmap-node" transform="translate(499, -496.0625)"><line stroke="#8c564b" stroke-width="1.375" x1="-1" x2="277" y1="21.6875" y2="21.6875"/><foreignObject class="markmap-foreign" x="8" y="0" style="opacity: 1;" width="259" height="21"><div xmlns="http://www.w3.org/1999/xhtml"><div xmlns="http://www.w3.org/1999/xhtml"><strong>一级反应</strong> -&gt; v = kc -&gt; V 与 [S] 成正比   </div></div></foreignObject></g><g data-depth="3" data-path="1.6.8" class="markmap-node" transform="translate(499, -468.6875)"><line stroke="#e377c2" stroke-width="1.375" x1="-1" x2="175" y1="21.6875" y2="21.6875"/><foreignObject class="markmap-foreign" x="8" y="0" style="opacity: 1;" width="157" height="21"><div xmlns="http://www.w3.org/1999/xhtml"><div xmlns="http://www.w3.org/1999/xhtml"><strong>二级反应</strong> -&gt; v = kc₁c₂   </div></div></foreignObject></g><g data-depth="3" data-path="1.6.9" class="markmap-node" transform="translate(499, -441.3125)"><line stroke="#7f7f7f" stroke-width="1.375" x1="-1" x2="291" y1="21.6875" y2="21.6875"/><foreignObject class="markmap-foreign" x="8" y="0" style="opacity: 1;" width="273" height="21"><div xmlns="http://www.w3.org/1999/xhtml"><div xmlns="http://www.w3.org/1999/xhtml"><strong>零级反应</strong> -&gt; v = k -&gt; V 与底物浓度无关   </div></div></foreignObject></g><g data-depth="2" data-path="1.6" class="markmap-node" transform="translate(328, -468.6875)"><line stroke="#9467bd" stroke-width="1.75" x1="-1" x2="93" y1="21.875" y2="21.875"/><circle stroke-width="1.5" r="6" stroke="#9467bd" fill="var(--markmap-circle-open-bg)" cx="91" cy="21.875"/><foreignObject class="markmap-foreign" x="8" y="0" style="opacity: 1;" width="75" height="21"><div xmlns="http://www.w3.org/1999/xhtml"><div xmlns="http://www.w3.org/1999/xhtml"><strong>反应级数</strong>   </div></div></foreignObject></g><g data-depth="3" data-path="1.10.11" class="markmap-node" transform="translate(627, -408.9375)"><line stroke="#17becf" stroke-width="1.375" x1="-1" x2="282" y1="21.6875" y2="21.6875"/><foreignObject class="markmap-foreign" x="8" y="0" style="opacity: 1;" width="264" height="21"><div xmlns="http://www.w3.org/1999/xhtml"><div xmlns="http://www.w3.org/1999/xhtml">[S] 较低 -&gt; V与[S]成正比 -&gt; <strong>一级反应</strong>   </div></div></foreignObject></g><g data-depth="3" data-path="1.10.12" class="markmap-node" transform="translate(627, -381.5625)"><line stroke="#1f77b4" stroke-width="1.375" x1="-1" x2="310" y1="21.6875" y2="21.6875"/><foreignObject class="markmap-foreign" x="8" y="0" style="opacity: 1;" width="292" height="21"><div xmlns="http://www.w3.org/1999/xhtml"><div xmlns="http://www.w3.org/1999/xhtml">[S] 增高 -&gt; V不成正比加速 -&gt; <strong>混合级反应</strong>   </div></div></foreignObject></g><g data-depth="3" data-path="1.10.13" class="markmap-node" transform="translate(627, -354.1875)"><line stroke="#ff7f0e" stroke-width="1.375" x1="-1" x2="428" y1="21.6875" y2="21.6875"/><foreignObject class="markmap-foreign" x="8" y="0" style="opacity: 1;" width="410" height="21"><div xmlns="http://www.w3.org/1999/xhtml"><div xmlns="http://www.w3.org/1999/xhtml">[S] 极高 -&gt; V达最大值(Vmax) -&gt; <strong>零级反应</strong> -&gt; <strong>底物饱和现象</strong>   </div></div></foreignObject></g><g data-depth="3" data-path="1.10.14" class="markmap-node" transform="translate(627, -326.8125)"><line stroke="#2ca02c" stroke-width="1.375" x1="-1" x2="189" y1="21.6875" y2="21.6875"/><foreignObject class="markmap-foreign" x="8" y="0" style="opacity: 1;" width="171" height="21"><div xmlns="http://www.w3.org/1999/xhtml"><div xmlns="http://www.w3.org/1999/xhtml">曲线类型：<strong>矩形双曲线</strong>   </div></div></foreignObject></g><g data-depth="2" data-path="1.10" class="markmap-node" transform="translate(328, -367.875)"><line stroke="#bcbd22" stroke-width="1.75" x1="-1" x2="221" y1="21.875" y2="21.875"/><circle stroke-width="1.5" r="6" stroke="#bcbd22" fill="var(--markmap-circle-open-bg)" cx="219" cy="21.875"/><foreignObject class="markmap-foreign" x="8" y="0" style="opacity: 1;" width="203" height="21"><div xmlns="http://www.w3.org/1999/xhtml"><div xmlns="http://www.w3.org/1999/xhtml"><strong>底物浓度对反应速度的影响</strong>   </div></div></foreignObject></g><g data-depth="3" data-path="1.15.16" class="markmap-node" transform="translate(750, -294.4375)"><line stroke="#9467bd" stroke-width="1.375" x1="-1" x2="295" y1="21.6875" y2="21.6875"/><foreignObject class="markmap-foreign" x="8" y="0" style="opacity: 1;" width="277" height="21"><div xmlns="http://www.w3.org/1999/xhtml"><div xmlns="http://www.w3.org/1999/xhtml">公式：<strong>V = (Vmax × [S]) / (Km + [S])</strong>   </div></div></foreignObject></g><g data-depth="3" data-path="1.15.17" class="markmap-node" transform="translate(750, -267.0625)"><line stroke="#8c564b" stroke-width="1.375" x1="-1" x2="331" y1="21.6875" y2="21.6875"/><foreignObject class="markmap-foreign" x="8" y="0" style="opacity: 1;" width="313" height="21"><div xmlns="http://www.w3.org/1999/xhtml"><div xmlns="http://www.w3.org/1999/xhtml">提出者：<strong>Michaelis</strong> 和 <strong>Menten</strong>（1913年）   </div></div></foreignObject></g><g data-depth="3" data-path="1.15.18" class="markmap-node" transform="translate(750, -239.6875)"><line stroke="#e377c2" stroke-width="1.375" x1="-1" x2="325" y1="21.6875" y2="21.6875"/><foreignObject class="markmap-foreign" x="8" y="0" style="opacity: 1;" width="307" height="21"><div xmlns="http://www.w3.org/1999/xhtml"><div xmlns="http://www.w3.org/1999/xhtml">前提：中间复合物学说 E + S ⇌ ES → E + P   </div></div></foreignObject></g><g data-depth="2" data-path="1.15" class="markmap-node" transform="translate(328, -267.0625)"><line stroke="#d62728" stroke-width="1.75" x1="-1" x2="344" y1="21.875" y2="21.875"/><circle stroke-width="1.5" r="6" stroke="#d62728" fill="var(--markmap-circle-open-bg)" cx="342" cy="21.875"/><foreignObject class="markmap-foreign" x="8" y="0" style="opacity: 1;" width="326" height="21"><div xmlns="http://www.w3.org/1999/xhtml"><div xmlns="http://www.w3.org/1999/xhtml"><strong>米-曼氏方程 (Michaelis-Menten equation)</strong>   </div></div></foreignObject></g><g data-depth="3" data-path="1.19.20" class="markmap-node" transform="translate(595, -207.3125)"><line stroke="#bcbd22" stroke-width="1.375" x1="-1" x2="476" y1="21.6875" y2="21.6875"/><foreignObject class="markmap-foreign" x="8" y="0" style="opacity: 1;" width="458" height="21"><div xmlns="http://www.w3.org/1999/xhtml"><div xmlns="http://www.w3.org/1999/xhtml"><strong>[S] &lt;&lt; Km</strong> -&gt; V ≈ (Vmax/Km) × [S] -&gt; <strong>一级反应</strong> -&gt; V与[S]成正比   </div></div></foreignObject></g><g data-depth="3" data-path="1.19.21" class="markmap-node" transform="translate(595, -179.9375)"><line stroke="#17becf" stroke-width="1.375" x1="-1" x2="397" y1="21.6875" y2="21.6875"/><foreignObject class="markmap-foreign" x="8" y="0" style="opacity: 1;" width="379" height="21"><div xmlns="http://www.w3.org/1999/xhtml"><div xmlns="http://www.w3.org/1999/xhtml"><strong>[S] &gt;&gt; Km</strong> -&gt; V ≈ Vmax -&gt; <strong>零级反应</strong> -&gt; 酶被底物饱和   </div></div></foreignObject></g><g data-depth="3" data-path="1.19.22" class="markmap-node" transform="translate(595, -152.5625)"><line stroke="#1f77b4" stroke-width="1.375" x1="-1" x2="198" y1="21.6875" y2="21.6875"/><foreignObject class="markmap-foreign" x="8" y="0" style="opacity: 1;" width="180" height="21"><div xmlns="http://www.w3.org/1999/xhtml"><div xmlns="http://www.w3.org/1999/xhtml"><strong>[S] = Km</strong> -&gt; V = <strong>Vmax/2</strong>   </div></div></foreignObject></g><g data-depth="2" data-path="1.19" class="markmap-node" transform="translate(328, -179.9375)"><line stroke="#7f7f7f" stroke-width="1.75" x1="-1" x2="189" y1="21.875" y2="21.875"/><circle stroke-width="1.5" r="6" stroke="#7f7f7f" fill="var(--markmap-circle-open-bg)" cx="187" cy="21.875"/><foreignObject class="markmap-foreign" x="8" y="0" style="opacity: 1;" width="171" height="21"><div xmlns="http://www.w3.org/1999/xhtml"><div xmlns="http://www.w3.org/1999/xhtml"><strong>米氏方程三种特殊情况</strong>   </div></div></foreignObject></g><g data-depth="3" data-path="1.23.24" class="markmap-node" transform="translate(577, -120.1875)"><line stroke="#2ca02c" stroke-width="1.375" x1="-1" x2="356" y1="21.6875" y2="21.6875"/><foreignObject class="markmap-foreign" x="8" y="0" style="opacity: 1;" width="338" height="21"><div xmlns="http://www.w3.org/1999/xhtml"><div xmlns="http://www.w3.org/1999/xhtml">定义 -&gt; 反应速度达到 <strong>Vmax 一半</strong>时的底物浓度   </div></div></foreignObject></g><g data-depth="3" data-path="1.23.25" class="markmap-node" transform="translate(577, -92.8125)"><line stroke="#d62728" stroke-width="1.375" x1="-1" x2="215" y1="21.6875" y2="21.6875"/><foreignObject class="markmap-foreign" x="8" y="0" style="opacity: 1;" width="197" height="21"><div xmlns="http://www.w3.org/1999/xhtml"><div xmlns="http://www.w3.org/1999/xhtml">单位：<strong>浓度单位</strong>（mol/L）   </div></div></foreignObject></g><g data-depth="4" data-path="1.23.26.27" class="markmap-node" transform="translate(925, -79.03125)"><line stroke="#8c564b" stroke-width="1.1875" x1="-1" x2="193" y1="21.59375" y2="21.59375"/><foreignObject class="markmap-foreign" x="8" y="0" style="opacity: 1;" width="175" height="21"><div xmlns="http://www.w3.org/1999/xhtml"><div xmlns="http://www.w3.org/1999/xhtml"><strong>Km 越小 -&gt; 亲和力越大</strong>   </div></div></foreignObject></g><g data-depth="4" data-path="1.23.26.28" class="markmap-node" transform="translate(925, -51.84375)"><line stroke="#e377c2" stroke-width="1.1875" x1="-1" x2="193" y1="21.59375" y2="21.59375"/><foreignObject class="markmap-foreign" x="8" y="0" style="opacity: 1;" width="175" height="21"><div xmlns="http://www.w3.org/1999/xhtml"><div xmlns="http://www.w3.org/1999/xhtml"><strong>Km 越大 -&gt; 亲和力越小</strong>   </div></div></foreignObject></g><g data-depth="3" data-path="1.23.26" class="markmap-node" transform="translate(577, -65.4375)"><line stroke="#9467bd" stroke-width="1.375" x1="-1" x2="270" y1="21.6875" y2="21.6875"/><circle stroke-width="1.5" r="6" stroke="#9467bd" fill="var(--markmap-circle-open-bg)" cx="268" cy="21.6875"/><foreignObject class="markmap-foreign" x="8" y="0" style="opacity: 1;" width="252" height="21"><div xmlns="http://www.w3.org/1999/xhtml"><div xmlns="http://www.w3.org/1999/xhtml">意义 -&gt; Km 反映酶与底物的<strong>亲和力</strong>   </div></div></foreignObject></g><g data-depth="3" data-path="1.23.29" class="markmap-node" transform="translate(577, -38.0625)"><line stroke="#7f7f7f" stroke-width="1.375" x1="-1" x2="194" y1="21.6875" y2="21.6875"/><foreignObject class="markmap-foreign" x="8" y="0" style="opacity: 1;" width="176" height="21"><div xmlns="http://www.w3.org/1999/xhtml"><div xmlns="http://www.w3.org/1999/xhtml">推导：Kₘ = (k₋₁ + k₂) / k₁   </div></div></foreignObject></g><g data-depth="3" data-path="1.23.30" class="markmap-node" transform="translate(577, -10.6875)"><line stroke="#bcbd22" stroke-width="1.375" x1="-1" x2="329" y1="21.6875" y2="21.6875"/><foreignObject class="markmap-foreign" x="8" y="0" style="opacity: 1;" width="311" height="21"><div xmlns="http://www.w3.org/1999/xhtml"><div xmlns="http://www.w3.org/1999/xhtml">当 k₋₁ &gt;&gt; k₂ 时 -&gt; Km ≈ Ks（ES解离常数）   </div></div></foreignObject></g><g data-depth="3" data-path="1.23.31" class="markmap-node" transform="translate(577, 16.6875)"><line stroke="#17becf" stroke-width="1.375" x1="-1" x2="350" y1="21.6875" y2="21.6875"/><foreignObject class="markmap-foreign" x="8" y="0" style="opacity: 1;" width="332" height="21"><div xmlns="http://www.w3.org/1999/xhtml"><div xmlns="http://www.w3.org/1999/xhtml">Km 是酶的<strong>特征性常数</strong> -&gt; 取决于酶与底物结构   </div></div></foreignObject></g><g data-depth="3" data-path="1.23.32" class="markmap-node" transform="translate(577, 44.0625)"><line stroke="#1f77b4" stroke-width="1.375" x1="-1" x2="189" y1="21.6875" y2="21.6875"/><foreignObject class="markmap-foreign" x="8" y="0" style="opacity: 1;" width="171" height="21"><div xmlns="http://www.w3.org/1999/xhtml"><div xmlns="http://www.w3.org/1999/xhtml">与酶和底物的<strong>浓度无关</strong>   </div></div></foreignObject></g><g data-depth="3" data-path="1.23.33" class="markmap-node" transform="translate(577, 71.4375)"><line stroke="#ff7f0e" stroke-width="1.375" x1="-1" x2="279" y1="21.6875" y2="21.6875"/><foreignObject class="markmap-foreign" x="8" y="0" style="opacity: 1;" width="261" height="21"><div xmlns="http://www.w3.org/1999/xhtml"><div xmlns="http://www.w3.org/1999/xhtml">受环境影响 -&gt; pH、温度、离子强度   </div></div></foreignObject></g><g data-depth="3" data-path="1.23.34" class="markmap-node" transform="translate(577, 98.8125)"><line stroke="#2ca02c" stroke-width="1.375" x1="-1" x2="339" y1="21.6875" y2="21.6875"/><foreignObject class="markmap-foreign" x="8" y="0" style="opacity: 1;" width="321" height="21"><div xmlns="http://www.w3.org/1999/xhtml"><div xmlns="http://www.w3.org/1999/xhtml"><strong>天然底物</strong> -&gt; 同一酶对多种底物中 <strong>Km 最小</strong>者   </div></div></foreignObject></g><g data-depth="2" data-path="1.23" class="markmap-node" transform="translate(328, -10.6875)"><line stroke="#ff7f0e" stroke-width="1.75" x1="-1" x2="171" y1="21.875" y2="21.875"/><circle stroke-width="1.5" r="6" stroke="#ff7f0e" fill="var(--markmap-circle-open-bg)" cx="169" cy="21.875"/><foreignObject class="markmap-foreign" x="8" y="0" style="opacity: 1;" width="153" height="21"><div xmlns="http://www.w3.org/1999/xhtml"><div xmlns="http://www.w3.org/1999/xhtml"><strong>Km 值（米氏常数）</strong>   </div></div></foreignObject></g><g data-depth="3" data-path="1.35.36" class="markmap-node" transform="translate(626, 131.1875)"><line stroke="#9467bd" stroke-width="1.375" x1="-1" x2="306" y1="21.6875" y2="21.6875"/><foreignObject class="markmap-foreign" x="8" y="0" style="opacity: 1;" width="288" height="21"><div xmlns="http://www.w3.org/1999/xhtml"><div xmlns="http://www.w3.org/1999/xhtml">定义 -&gt; 酶<strong>完全被底物饱和</strong>时的反应速度   </div></div></foreignObject></g><g data-depth="3" data-path="1.35.37" class="markmap-node" transform="translate(626, 158.5625)"><line stroke="#8c564b" stroke-width="1.375" x1="-1" x2="269" y1="21.6875" y2="21.6875"/><foreignObject class="markmap-foreign" x="8" y="0" style="opacity: 1;" width="251" height="21"><div xmlns="http://www.w3.org/1999/xhtml"><div xmlns="http://www.w3.org/1999/xhtml">与<strong>酶浓度成正比</strong>，与底物浓度无关   </div></div></foreignObject></g><g data-depth="3" data-path="1.35.38" class="markmap-node" transform="translate(626, 185.9375)"><line stroke="#e377c2" stroke-width="1.375" x1="-1" x2="122" y1="21.6875" y2="21.6875"/><foreignObject class="markmap-foreign" x="8" y="0" style="opacity: 1;" width="104" height="21"><div xmlns="http://www.w3.org/1999/xhtml"><div xmlns="http://www.w3.org/1999/xhtml">Vmax = <strong>k₂[E]</strong>   </div></div></foreignObject></g><g data-depth="3" data-path="1.35.39" class="markmap-node" transform="translate(626, 213.3125)"><line stroke="#7f7f7f" stroke-width="1.375" x1="-1" x2="425" y1="21.6875" y2="21.6875"/><foreignObject class="markmap-foreign" x="8" y="0" style="opacity: 1;" width="407" height="21"><div xmlns="http://www.w3.org/1999/xhtml"><div xmlns="http://www.w3.org/1999/xhtml"><strong>k₂ (转换数/kcat)</strong> -&gt; 每秒钟每个酶分子转换底物的<strong>分子数</strong>   </div></div></foreignObject></g><g data-depth="2" data-path="1.35" class="markmap-node" transform="translate(328, 172.25)"><line stroke="#d62728" stroke-width="1.75" x1="-1" x2="220" y1="21.875" y2="21.875"/><circle stroke-width="1.5" r="6" stroke="#d62728" fill="var(--markmap-circle-open-bg)" cx="218" cy="21.875"/><foreignObject class="markmap-foreign" x="8" y="0" style="opacity: 1;" width="202" height="21"><div xmlns="http://www.w3.org/1999/xhtml"><div xmlns="http://www.w3.org/1999/xhtml"><strong>Vmax 值（最大反应速度）</strong>   </div></div></foreignObject></g><g data-depth="3" data-path="1.40.41" class="markmap-node" transform="translate(831, 245.6875)"><line stroke="#17becf" stroke-width="1.375" x1="-1" x2="344" y1="21.6875" y2="21.6875"/><foreignObject class="markmap-foreign" x="8" y="0" style="opacity: 1;" width="326" height="21"><div xmlns="http://www.w3.org/1999/xhtml"><div xmlns="http://www.w3.org/1999/xhtml">公式：<strong>1/V = (Km/Vmax) × 1/[S] + 1/Vmax</strong>   </div></div></foreignObject></g><g data-depth="3" data-path="1.40.42" class="markmap-node" transform="translate(831, 273.0625)"><line stroke="#1f77b4" stroke-width="1.375" x1="-1" x2="213" y1="21.6875" y2="21.6875"/><foreignObject class="markmap-foreign" x="8" y="0" style="opacity: 1;" width="195" height="21"><div xmlns="http://www.w3.org/1999/xhtml"><div xmlns="http://www.w3.org/1999/xhtml">以 1/V 对 1/[S] 作图得<strong>直线</strong>   </div></div></foreignObject></g><g data-depth="3" data-path="1.40.43" class="markmap-node" transform="translate(831, 300.4375)"><line stroke="#ff7f0e" stroke-width="1.375" x1="-1" x2="167" y1="21.6875" y2="21.6875"/><foreignObject class="markmap-foreign" x="8" y="0" style="opacity: 1;" width="149" height="21"><div xmlns="http://www.w3.org/1999/xhtml"><div xmlns="http://www.w3.org/1999/xhtml"><strong>纵轴截距</strong> = <strong>1/Vmax</strong>   </div></div></foreignObject></g><g data-depth="3" data-path="1.40.44" class="markmap-node" transform="translate(831, 327.8125)"><line stroke="#2ca02c" stroke-width="1.375" x1="-1" x2="156" y1="21.6875" y2="21.6875"/><foreignObject class="markmap-foreign" x="8" y="0" style="opacity: 1;" width="138" height="21"><div xmlns="http://www.w3.org/1999/xhtml"><div xmlns="http://www.w3.org/1999/xhtml"><strong>横轴截距</strong> = <strong>-1/Km</strong>   </div></div></foreignObject></g><g data-depth="3" data-path="1.40.45" class="markmap-node" transform="translate(831, 355.1875)"><line stroke="#d62728" stroke-width="1.375" x1="-1" x2="152" y1="21.6875" y2="21.6875"/><foreignObject class="markmap-foreign" x="8" y="0" style="opacity: 1;" width="134" height="21"><div xmlns="http://www.w3.org/1999/xhtml"><div xmlns="http://www.w3.org/1999/xhtml"><strong>斜率</strong> = <strong>Km/Vmax</strong>   </div></div></foreignObject></g><g data-depth="2" data-path="1.40" class="markmap-node" transform="translate(328, 300.4375)"><line stroke="#bcbd22" stroke-width="1.75" x1="-1" x2="425" y1="21.875" y2="21.875"/><circle stroke-width="1.5" r="6" stroke="#bcbd22" fill="var(--markmap-circle-open-bg)" cx="423" cy="21.875"/><foreignObject class="markmap-foreign" x="8" y="0" style="opacity: 1;" width="407" height="21"><div xmlns="http://www.w3.org/1999/xhtml"><div xmlns="http://www.w3.org/1999/xhtml"><strong>Km 和 Vmax 的测定 — 双倒数作图法（林-贝氏作图法）</strong>   </div></div></foreignObject></g><g data-depth="3" data-path="1.46.47" class="markmap-node" transform="translate(531, 387.5625)"><line stroke="#8c564b" stroke-width="1.375" x1="-1" x2="261" y1="21.6875" y2="21.6875"/><foreignObject class="markmap-foreign" x="8" y="0" style="opacity: 1;" width="243" height="21"><div xmlns="http://www.w3.org/1999/xhtml"><div xmlns="http://www.w3.org/1999/xhtml">当 <strong>[S] &gt;&gt; [E]</strong> 时 -&gt; V 与 [E] <strong>成正比</strong>   </div></div></foreignObject></g><g data-depth="2" data-path="1.46" class="markmap-node" transform="translate(328, 387.5625)"><line stroke="#9467bd" stroke-width="1.75" x1="-1" x2="125" y1="21.875" y2="21.875"/><circle stroke-width="1.5" r="6" stroke="#9467bd" fill="var(--markmap-circle-open-bg)" cx="123" cy="21.875"/><foreignObject class="markmap-foreign" x="8" y="0" style="opacity: 1;" width="107" height="21"><div xmlns="http://www.w3.org/1999/xhtml"><div xmlns="http://www.w3.org/1999/xhtml"><strong>酶浓度的影响</strong>   </div></div></foreignObject></g><g data-depth="3" data-path="1.48.49" class="markmap-node" transform="translate(515, 420.3125)"><line stroke="#7f7f7f" stroke-width="1.375" x1="-1" x2="344" y1="21.6875" y2="21.6875"/><foreignObject class="markmap-foreign" x="8" y="0" style="opacity: 1;" width="326" height="21"><div xmlns="http://www.w3.org/1999/xhtml"><div xmlns="http://www.w3.org/1999/xhtml"><strong>双重效应</strong> -&gt; 升高温度 → 加快反应 + 增加变性   </div></div></foreignObject></g><g data-depth="3" data-path="1.48.50" class="markmap-node" transform="translate(515, 447.6875)"><line stroke="#bcbd22" stroke-width="1.375" x1="-1" x2="274" y1="21.6875" y2="21.6875"/><foreignObject class="markmap-foreign" x="8" y="0" style="opacity: 1;" width="256" height="21"><div xmlns="http://www.w3.org/1999/xhtml"><div xmlns="http://www.w3.org/1999/xhtml"><strong>最适温度</strong> -&gt; 反应速度最快时的温度   </div></div></foreignObject></g><g data-depth="3" data-path="1.48.51" class="markmap-node" transform="translate(515, 475.0625)"><line stroke="#17becf" stroke-width="1.375" x1="-1" x2="205" y1="21.6875" y2="21.6875"/><foreignObject class="markmap-foreign" x="8" y="0" style="opacity: 1;" width="187" height="21"><div xmlns="http://www.w3.org/1999/xhtml"><div xmlns="http://www.w3.org/1999/xhtml">最适温度<strong>不是</strong>特征性常数   </div></div></foreignObject></g><g data-depth="2" data-path="1.48" class="markmap-node" transform="translate(328, 447.6875)"><line stroke="#e377c2" stroke-width="1.75" x1="-1" x2="109" y1="21.875" y2="21.875"/><circle stroke-width="1.5" r="6" stroke="#e377c2" fill="var(--markmap-circle-open-bg)" cx="107" cy="21.875"/><foreignObject class="markmap-foreign" x="8" y="0" style="opacity: 1;" width="91" height="21"><div xmlns="http://www.w3.org/1999/xhtml"><div xmlns="http://www.w3.org/1999/xhtml"><strong>温度的影响</strong>   </div></div></foreignObject></g><g data-depth="3" data-path="1.52.53" class="markmap-node" transform="translate(509, 507.4375)"><line stroke="#ff7f0e" stroke-width="1.375" x1="-1" x2="229" y1="21.6875" y2="21.6875"/><foreignObject class="markmap-foreign" x="8" y="0" style="opacity: 1;" width="211" height="21"><div xmlns="http://www.w3.org/1999/xhtml"><div xmlns="http://www.w3.org/1999/xhtml">pH 改变酶和底物的<strong>解离状态</strong>   </div></div></foreignObject></g><g data-depth="3" data-path="1.52.54" class="markmap-node" transform="translate(509, 534.8125)"><line stroke="#2ca02c" stroke-width="1.375" x1="-1" x2="244" y1="21.6875" y2="21.6875"/><foreignObject class="markmap-foreign" x="8" y="0" style="opacity: 1;" width="226" height="21"><div xmlns="http://www.w3.org/1999/xhtml"><div xmlns="http://www.w3.org/1999/xhtml"><strong>最适 pH</strong> -&gt; 酶活性最大时的 pH   </div></div></foreignObject></g><g data-depth="3" data-path="1.52.55" class="markmap-node" transform="translate(509, 562.1875)"><line stroke="#d62728" stroke-width="1.375" x1="-1" x2="201" y1="21.6875" y2="21.6875"/><foreignObject class="markmap-foreign" x="8" y="0" style="opacity: 1;" width="183" height="21"><div xmlns="http://www.w3.org/1999/xhtml"><div xmlns="http://www.w3.org/1999/xhtml">最适 pH <strong>不是</strong>特征性常数   </div></div></foreignObject></g><g data-depth="2" data-path="1.52" class="markmap-node" transform="translate(328, 534.8125)"><line stroke="#1f77b4" stroke-width="1.75" x1="-1" x2="103" y1="21.875" y2="21.875"/><circle stroke-width="1.5" r="6" stroke="#1f77b4" fill="var(--markmap-circle-open-bg)" cx="101" cy="21.875"/><foreignObject class="markmap-foreign" x="8" y="0" style="opacity: 1;" width="85" height="21"><div xmlns="http://www.w3.org/1999/xhtml"><div xmlns="http://www.w3.org/1999/xhtml"><strong>pH 的影响</strong>   </div></div></foreignObject></g><g data-depth="1" data-path="1" class="markmap-node" transform="translate(0, -10.5)"><line stroke="#1f77b4" stroke-width="2.5" x1="-1" x2="250" y1="22.25" y2="22.25"/><circle stroke-width="1.5" r="6" stroke="#1f77b4" fill="var(--markmap-circle-open-bg)" cx="248" cy="22.25"/><foreignObject class="markmap-foreign" x="8" y="0" style="opacity: 1;" width="232" height="21"><div xmlns="http://www.w3.org/1999/xhtml"><div xmlns="http://www.w3.org/1999/xhtml">酶促反应动力学基础 (米氏方程)   </div></div></foreignObject></g></g></svg>