<svg xmlns="http://www.w3.org/2000/svg" class="w-full h-full leading-none markmap mm-7aew7z-1" style=""><style>.markmap{--markmap-max-width: 9999px;--markmap-a-color: #0097e6;--markmap-a-hover-color: #00a8ff;--markmap-code-bg: #f0f0f0;--markmap-code-color: #555;--markmap-highlight-bg: #ffeaa7;--markmap-table-border: 1px solid currentColor;--markmap-font: 300 16px/20px sans-serif;--markmap-circle-open-bg: #fff;--markmap-text-color: #333;--markmap-highlight-node-bg: #ff02;font:var(--markmap-font);color:var(--markmap-text-color)}.markmap-link{fill:none}.markmap-node&gt;circle{cursor:pointer}.markmap-foreign{display:inline-block}.markmap-foreign p{margin:0}.markmap-foreign a{color:var(--markmap-a-color)}.markmap-foreign a:hover{color:var(--markmap-a-hover-color)}.markmap-foreign code{padding:.25em;font-size:calc(1em - 2px);color:var(--markmap-code-color);background-color:var(--markmap-code-bg);border-radius:2px}.markmap-foreign pre{margin:0}.markmap-foreign pre&gt;code{display:block}.markmap-foreign del{text-decoration:line-through}.markmap-foreign em{font-style:italic}.markmap-foreign strong{font-weight:700}.markmap-foreign mark{background:var(--markmap-highlight-bg)}.markmap-foreign table,.markmap-foreign th,.markmap-foreign td{border-collapse:collapse;border:var(--markmap-table-border)}.markmap-foreign img{display:inline-block}.markmap-foreign svg{fill:currentColor}.markmap-foreign&gt;div{width:var(--markmap-max-width);text-align:left}.markmap-foreign&gt;div&gt;div{display:inline-block}.markmap-highlight rect{fill:var(--markmap-highlight-node-bg)}.markmap-dark .markmap{--markmap-code-bg: #1a1b26;--markmap-code-color: #ddd;--markmap-circle-open-bg: #444;--markmap-text-color: #eee}</style><g transform="translate(79.09838345104515,386.1762558950358) scale(0.4302595105700048)"><path class="markmap-link" data-depth="3" data-path="1.2.3" d="M403,-609.812C443,-609.812,443,-623.687,483,-623.687" stroke-width="1.375" stroke="rgb(148, 103, 189)"/><path class="markmap-link" data-depth="3" data-path="1.2.4" d="M403,-609.812C443,-609.812,443,-596.312,483,-596.312" stroke-width="1.375" stroke="rgb(140, 86, 75)"/><path class="markmap-link" data-depth="4" data-path="1.5.6.7" d="M686,-550.344C726,-550.344,726,-564.031,766,-564.031" stroke-width="1.1875" stroke="rgb(148, 103, 189)"/><path class="markmap-link" data-depth="4" data-path="1.5.6.8" d="M686,-550.344C726,-550.344,726,-536.844,766,-536.844" stroke-width="1.1875" stroke="rgb(140, 86, 75)"/><path class="markmap-link" data-depth="3" data-path="1.5.6" d="M451,-550.156C491,-550.156,491,-550.344,531,-550.344" stroke-width="1.375" stroke="rgb(227, 119, 194)"/><path class="markmap-link" data-depth="4" data-path="1.9.10.11" d="M686,-450.187C726,-450.187,726,-504.656,766,-504.656" stroke-width="1.1875" stroke="rgb(127, 127, 127)"/><path class="markmap-link" data-depth="4" data-path="1.9.10.12" d="M686,-450.187C726,-450.187,726,-477.469,766,-477.469" stroke-width="1.1875" stroke="rgb(188, 189, 34)"/><path class="markmap-link" data-depth="4" data-path="1.9.10.13" d="M686,-450.187C726,-450.187,726,-450.281,766,-450.281" stroke-width="1.1875" stroke="rgb(23, 190, 207)"/><path class="markmap-link" data-depth="4" data-path="1.9.10.14" d="M686,-450.187C726,-450.187,726,-423.094,766,-423.094" stroke-width="1.1875" stroke="rgb(31, 119, 180)"/><path class="markmap-link" data-depth="4" data-path="1.9.10.15" d="M686,-450.187C726,-450.187,726,-395.906,766,-395.906" stroke-width="1.1875" stroke="rgb(255, 127, 14)"/><path class="markmap-link" data-depth="4" data-path="1.9.16.17" d="M686,-336.437C726,-336.437,726,-363.719,766,-363.719" stroke-width="1.1875" stroke="rgb(214, 39, 40)"/><path class="markmap-link" data-depth="4" data-path="1.9.16.18" d="M686,-336.437C726,-336.437,726,-336.531,766,-336.531" stroke-width="1.1875" stroke="rgb(148, 103, 189)"/><path class="markmap-link" data-depth="4" data-path="1.9.16.19" d="M686,-336.437C726,-336.437,726,-309.344,766,-309.344" stroke-width="1.1875" stroke="rgb(140, 86, 75)"/><path class="markmap-link" data-depth="4" data-path="1.9.20.21" d="M782,-263.469C822,-263.469,822,-277.156,862,-277.156" stroke-width="1.1875" stroke="rgb(127, 127, 127)"/><path class="markmap-link" data-depth="4" data-path="1.9.20.22" d="M782,-263.469C822,-263.469,822,-249.969,862,-249.969" stroke-width="1.1875" stroke="rgb(188, 189, 34)"/><path class="markmap-link" data-depth="3" data-path="1.9.10" d="M467,-356.641C507,-356.641,507,-450.187,547,-450.187" stroke-width="1.375" stroke="rgb(227, 119, 194)"/><path class="markmap-link" data-depth="3" data-path="1.9.16" d="M467,-356.641C507,-356.641,507,-336.437,547,-336.437" stroke-width="1.375" stroke="rgb(44, 160, 44)"/><path class="markmap-link" data-depth="3" data-path="1.9.20" d="M467,-356.641C507,-356.641,507,-263.469,547,-263.469" stroke-width="1.375" stroke="rgb(227, 119, 194)"/><path class="markmap-link" data-depth="4" data-path="1.23.24.25" d="M734,-95.344C774,-95.344,774,-217.781,814,-217.781" stroke-width="1.1875" stroke="rgb(23, 190, 207)"/><path class="markmap-link" data-depth="4" data-path="1.23.24.26" d="M734,-95.344C774,-95.344,774,-190.594,814,-190.594" stroke-width="1.1875" stroke="rgb(31, 119, 180)"/><path class="markmap-link" data-depth="4" data-path="1.23.24.27" d="M734,-95.344C774,-95.344,774,-163.406,814,-163.406" stroke-width="1.1875" stroke="rgb(255, 127, 14)"/><path class="markmap-link" data-depth="4" data-path="1.23.24.28" d="M734,-95.344C774,-95.344,774,-136.219,814,-136.219" stroke-width="1.1875" stroke="rgb(44, 160, 44)"/><path class="markmap-link" data-depth="4" data-path="1.23.24.29" d="M734,-95.344C774,-95.344,774,-109.031,814,-109.031" stroke-width="1.1875" stroke="rgb(214, 39, 40)"/><path class="markmap-link" data-depth="4" data-path="1.23.24.30" d="M734,-95.344C774,-95.344,774,-81.844,814,-81.844" stroke-width="1.1875" stroke="rgb(148, 103, 189)"/><path class="markmap-link" data-depth="4" data-path="1.23.24.31" d="M734,-95.344C774,-95.344,774,-54.656,814,-54.656" stroke-width="1.1875" stroke="rgb(140, 86, 75)"/><path class="markmap-link" data-depth="4" data-path="1.23.24.32" d="M734,-95.344C774,-95.344,774,-27.469,814,-27.469" stroke-width="1.1875" stroke="rgb(227, 119, 194)"/><path class="markmap-link" data-depth="4" data-path="1.23.24.33" d="M734,-95.344C774,-95.344,774,-0.281,814,-0.281" stroke-width="1.1875" stroke="rgb(127, 127, 127)"/><path class="markmap-link" data-depth="4" data-path="1.23.24.34" d="M734,-95.344C774,-95.344,774,26.906,814,26.906" stroke-width="1.1875" stroke="rgb(188, 189, 34)"/><path class="markmap-link" data-depth="4" data-path="1.23.35.36" d="M750,154.344C790,154.344,790,59.094,830,59.094" stroke-width="1.1875" stroke="rgb(31, 119, 180)"/><path class="markmap-link" data-depth="4" data-path="1.23.35.37" d="M750,154.344C790,154.344,790,86.281,830,86.281" stroke-width="1.1875" stroke="rgb(255, 127, 14)"/><path class="markmap-link" data-depth="4" data-path="1.23.35.38" d="M750,154.344C790,154.344,790,113.469,830,113.469" stroke-width="1.1875" stroke="rgb(44, 160, 44)"/><path class="markmap-link" data-depth="4" data-path="1.23.35.39" d="M750,154.344C790,154.344,790,140.656,830,140.656" stroke-width="1.1875" stroke="rgb(214, 39, 40)"/><path class="markmap-link" data-depth="4" data-path="1.23.35.40" d="M750,154.344C790,154.344,790,167.844,830,167.844" stroke-width="1.1875" stroke="rgb(148, 103, 189)"/><path class="markmap-link" data-depth="4" data-path="1.23.35.41" d="M750,154.344C790,154.344,790,195.031,830,195.031" stroke-width="1.1875" stroke="rgb(140, 86, 75)"/><path class="markmap-link" data-depth="4" data-path="1.23.35.42" d="M750,154.344C790,154.344,790,222.219,830,222.219" stroke-width="1.1875" stroke="rgb(227, 119, 194)"/><path class="markmap-link" data-depth="4" data-path="1.23.35.43" d="M750,154.344C790,154.344,790,249.406,830,249.406" stroke-width="1.1875" stroke="rgb(127, 127, 127)"/><path class="markmap-link" data-depth="4" data-path="1.23.44.45" d="M750,376.844C790,376.844,790,281.594,830,281.594" stroke-width="1.1875" stroke="rgb(23, 190, 207)"/><path class="markmap-link" data-depth="4" data-path="1.23.44.46" d="M750,376.844C790,376.844,790,308.781,830,308.781" stroke-width="1.1875" stroke="rgb(31, 119, 180)"/><path class="markmap-link" data-depth="4" data-path="1.23.44.47" d="M750,376.844C790,376.844,790,335.969,830,335.969" stroke-width="1.1875" stroke="rgb(255, 127, 14)"/><path class="markmap-link" data-depth="4" data-path="1.23.44.48" d="M750,376.844C790,376.844,790,363.156,830,363.156" stroke-width="1.1875" stroke="rgb(44, 160, 44)"/><path class="markmap-link" data-depth="4" data-path="1.23.44.49" d="M750,376.844C790,376.844,790,390.344,830,390.344" stroke-width="1.1875" stroke="rgb(214, 39, 40)"/><path class="markmap-link" data-depth="4" data-path="1.23.44.50" d="M750,376.844C790,376.844,790,417.531,830,417.531" stroke-width="1.1875" stroke="rgb(148, 103, 189)"/><path class="markmap-link" data-depth="4" data-path="1.23.44.51" d="M750,376.844C790,376.844,790,444.719,830,444.719" stroke-width="1.1875" stroke="rgb(140, 86, 75)"/><path class="markmap-link" data-depth="4" data-path="1.23.44.52" d="M750,376.844C790,376.844,790,471.906,830,471.906" stroke-width="1.1875" stroke="rgb(227, 119, 194)"/><path class="markmap-link" data-depth="3" data-path="1.23.24" d="M547,140.938C587,140.938,587,-95.344,627,-95.344" stroke-width="1.375" stroke="rgb(44, 160, 44)"/><path class="markmap-link" data-depth="3" data-path="1.23.35" d="M547,140.938C587,140.938,587,154.344,627,154.344" stroke-width="1.375" stroke="rgb(23, 190, 207)"/><path class="markmap-link" data-depth="3" data-path="1.23.44" d="M547,140.938C587,140.938,587,376.844,627,376.844" stroke-width="1.375" stroke="rgb(188, 189, 34)"/><path class="markmap-link" data-depth="3" data-path="1.53.54" d="M515,531.75C555,531.75,555,504.188,595,504.188" stroke-width="1.375" stroke="rgb(188, 189, 34)"/><path class="markmap-link" data-depth="3" data-path="1.53.55" d="M515,531.75C555,531.75,555,531.563,595,531.563" stroke-width="1.375" stroke="rgb(23, 190, 207)"/><path class="markmap-link" data-depth="3" data-path="1.53.56" d="M515,531.75C555,531.75,555,558.938,595,558.938" stroke-width="1.375" stroke="rgb(31, 119, 180)"/><path class="markmap-link" data-depth="3" data-path="1.57.58" d="M403,632.563C443,632.563,443,591.313,483,591.313" stroke-width="1.375" stroke="rgb(44, 160, 44)"/><path class="markmap-link" data-depth="3" data-path="1.57.59" d="M403,632.563C443,632.563,443,618.688,483,618.688" stroke-width="1.375" stroke="rgb(214, 39, 40)"/><path class="markmap-link" data-depth="3" data-path="1.57.60" d="M403,632.563C443,632.563,443,646.063,483,646.063" stroke-width="1.375" stroke="rgb(148, 103, 189)"/><path class="markmap-link" data-depth="3" data-path="1.57.61" d="M403,632.563C443,632.563,443,673.438,483,673.438" stroke-width="1.375" stroke="rgb(140, 86, 75)"/><path class="markmap-link" data-depth="2" data-path="1.2" d="M248,11.75C288,11.75,288,-609.812,328,-609.812" stroke-width="1.75" stroke="rgb(255, 127, 14)"/><path class="markmap-link" data-depth="2" data-path="1.5" d="M248,11.75C288,11.75,288,-550.156,328,-550.156" stroke-width="1.75" stroke="rgb(44, 160, 44)"/><path class="markmap-link" data-depth="2" data-path="1.9" d="M248,11.75C288,11.75,288,-356.641,328,-356.641" stroke-width="1.75" stroke="rgb(214, 39, 40)"/><path class="markmap-link" data-depth="2" data-path="1.23" d="M248,11.75C288,11.75,288,140.938,328,140.938" stroke-width="1.75" stroke="rgb(255, 127, 14)"/><path class="markmap-link" data-depth="2" data-path="1.53" d="M248,11.75C288,11.75,288,531.75,328,531.75" stroke-width="1.75" stroke="rgb(127, 127, 127)"/><path class="markmap-link" data-depth="2" data-path="1.57" d="M248,11.75C288,11.75,288,632.563,328,632.563" stroke-width="1.75" stroke="rgb(255, 127, 14)"/><g class="markmap-highlight"/><g data-depth="3" data-path="1.2.3" class="markmap-node" transform="translate(483, -645.375)"><line stroke="#9467bd" stroke-width="1.375" x1="-1" x2="397" y1="21.6875" y2="21.6875"/><foreignObject class="markmap-foreign" x="8" y="0" style="opacity: 1;" width="379" height="21"><div xmlns="http://www.w3.org/1999/xhtml"><div xmlns="http://www.w3.org/1999/xhtml">使酶催化活性<strong>下降</strong>但不引起构象<strong>非常显著</strong>变化的物质   </div></div></foreignObject></g><g data-depth="3" data-path="1.2.4" class="markmap-node" transform="translate(483, -618)"><line stroke="#8c564b" stroke-width="1.375" x1="-1" x2="402" y1="21.6875" y2="21.6875"/><foreignObject class="markmap-foreign" x="8" y="0" style="opacity: 1;" width="384" height="21"><div xmlns="http://www.w3.org/1999/xhtml"><div xmlns="http://www.w3.org/1999/xhtml">与变性剂的区别 -&gt; 抑制剂有<strong>选择性</strong>，变性剂无选择性   </div></div></foreignObject></g><g data-depth="2" data-path="1.2" class="markmap-node" transform="translate(328, -631.6875)"><line stroke="#ff7f0e" stroke-width="1.75" x1="-1" x2="77" y1="21.875" y2="21.875"/><circle stroke-width="1.5" r="6" stroke="#ff7f0e" fill="var(--markmap-circle-open-bg)" cx="75" cy="21.875"/><foreignObject class="markmap-foreign" x="8" y="0" style="opacity: 1;" width="59" height="21"><div xmlns="http://www.w3.org/1999/xhtml"><div xmlns="http://www.w3.org/1999/xhtml"><strong>抑制剂</strong>   </div></div></foreignObject></g><g data-depth="4" data-path="1.5.6.7" class="markmap-node" transform="translate(766, -585.625)"><line stroke="#9467bd" stroke-width="1.1875" x1="-1" x2="365" y1="21.59375" y2="21.59375"/><foreignObject class="markmap-foreign" x="8" y="0" style="opacity: 1;" width="347" height="21"><div xmlns="http://www.w3.org/1999/xhtml"><div xmlns="http://www.w3.org/1999/xhtml"><strong>不可逆抑制</strong> -&gt; <strong>共价键</strong>结合 -&gt; 透析/超滤<strong>不能</strong>除去   </div></div></foreignObject></g><g data-depth="4" data-path="1.5.6.8" class="markmap-node" transform="translate(766, -558.4375)"><line stroke="#8c564b" stroke-width="1.1875" x1="-1" x2="365" y1="21.59375" y2="21.59375"/><foreignObject class="markmap-foreign" x="8" y="0" style="opacity: 1;" width="347" height="21"><div xmlns="http://www.w3.org/1999/xhtml"><div xmlns="http://www.w3.org/1999/xhtml"><strong>可逆抑制</strong> -&gt; <strong>非共价键</strong>结合 -&gt; 透析/超滤<strong>可以</strong>除去   </div></div></foreignObject></g><g data-depth="3" data-path="1.5.6" class="markmap-node" transform="translate(531, -572.03125)"><line stroke="#e377c2" stroke-width="1.375" x1="-1" x2="157" y1="21.6875" y2="21.6875"/><circle stroke-width="1.5" r="6" stroke="#e377c2" fill="var(--markmap-circle-open-bg)" cx="155" cy="21.6875"/><foreignObject class="markmap-foreign" x="8" y="0" style="opacity: 1;" width="139" height="21"><div xmlns="http://www.w3.org/1999/xhtml"><div xmlns="http://www.w3.org/1999/xhtml">按结合紧密程度分   </div></div></foreignObject></g><g data-depth="2" data-path="1.5" class="markmap-node" transform="translate(328, -572.03125)"><line stroke="#2ca02c" stroke-width="1.75" x1="-1" x2="125" y1="21.875" y2="21.875"/><circle stroke-width="1.5" r="6" stroke="#2ca02c" fill="var(--markmap-circle-open-bg)" cx="123" cy="21.875"/><foreignObject class="markmap-foreign" x="8" y="0" style="opacity: 1;" width="107" height="21"><div xmlns="http://www.w3.org/1999/xhtml"><div xmlns="http://www.w3.org/1999/xhtml"><strong>抑制作用分类</strong>   </div></div></foreignObject></g><g data-depth="4" data-path="1.9.10.11" class="markmap-node" transform="translate(766, -526.25)"><line stroke="#7f7f7f" stroke-width="1.1875" x1="-1" x2="173" y1="21.59375" y2="21.59375"/><foreignObject class="markmap-foreign" x="8" y="0" style="opacity: 1;" width="155" height="21"><div xmlns="http://www.w3.org/1999/xhtml"><div xmlns="http://www.w3.org/1999/xhtml">靶酶：<strong>乙酰胆碱酯酶</strong>   </div></div></foreignObject></g><g data-depth="4" data-path="1.9.10.12" class="markmap-node" transform="translate(766, -499.0625)"><line stroke="#bcbd22" stroke-width="1.1875" x1="-1" x2="423" y1="21.59375" y2="21.59375"/><foreignObject class="markmap-foreign" x="8" y="0" style="opacity: 1;" width="405" height="21"><div xmlns="http://www.w3.org/1999/xhtml"><div xmlns="http://www.w3.org/1999/xhtml">机制 -&gt; 与活性中心<strong>丝氨酸残基的羟基</strong>共价结合 -&gt; 酶失活   </div></div></foreignObject></g><g data-depth="4" data-path="1.9.10.13" class="markmap-node" transform="translate(766, -471.875)"><line stroke="#17becf" stroke-width="1.1875" x1="-1" x2="588" y1="21.59375" y2="21.59375"/><foreignObject class="markmap-foreign" x="8" y="0" style="opacity: 1;" width="570" height="21"><div xmlns="http://www.w3.org/1999/xhtml"><div xmlns="http://www.w3.org/1999/xhtml">后果 -&gt; <strong>乙酰胆碱堆积</strong> -&gt; 迷走神经兴奋 -&gt; 恶心呕吐、多汗、肌肉震颤、瞳孔缩小   </div></div></foreignObject></g><g data-depth="4" data-path="1.9.10.14" class="markmap-node" transform="translate(766, -444.6875)"><line stroke="#1f77b4" stroke-width="1.1875" x1="-1" x2="298" y1="21.59375" y2="21.59375"/><foreignObject class="markmap-foreign" x="8" y="0" style="opacity: 1;" width="280" height="21"><div xmlns="http://www.w3.org/1999/xhtml"><div xmlns="http://www.w3.org/1999/xhtml">解毒剂1 -&gt; <strong>阿托品</strong>（乙酰胆碱拮抗剂）   </div></div></foreignObject></g><g data-depth="4" data-path="1.9.10.15" class="markmap-node" transform="translate(766, -417.5)"><line stroke="#ff7f0e" stroke-width="1.1875" x1="-1" x2="344" y1="21.59375" y2="21.59375"/><foreignObject class="markmap-foreign" x="8" y="0" style="opacity: 1;" width="326" height="21"><div xmlns="http://www.w3.org/1999/xhtml"><div xmlns="http://www.w3.org/1999/xhtml">解毒剂2 -&gt; <strong>解磷定(PAM)</strong>（胆碱酯酶复活剂）   </div></div></foreignObject></g><g data-depth="3" data-path="1.9.10" class="markmap-node" transform="translate(547, -471.875)"><line stroke="#e377c2" stroke-width="1.375" x1="-1" x2="141" y1="21.6875" y2="21.6875"/><circle stroke-width="1.5" r="6" stroke="#e377c2" fill="var(--markmap-circle-open-bg)" cx="139" cy="21.6875"/><foreignObject class="markmap-foreign" x="8" y="0" style="opacity: 1;" width="123" height="21"><div xmlns="http://www.w3.org/1999/xhtml"><div xmlns="http://www.w3.org/1999/xhtml"><strong>有机磷农药</strong>中毒   </div></div></foreignObject></g><g data-depth="4" data-path="1.9.16.17" class="markmap-node" transform="translate(766, -385.3125)"><line stroke="#d62728" stroke-width="1.1875" x1="-1" x2="234" y1="21.59375" y2="21.59375"/><foreignObject class="markmap-foreign" x="8" y="0" style="opacity: 1;" width="216" height="21"><div xmlns="http://www.w3.org/1999/xhtml"><div xmlns="http://www.w3.org/1999/xhtml">代表离子：<strong>Hg²⁺</strong>、<strong>Ag⁺</strong>、<strong>As³⁺</strong>   </div></div></foreignObject></g><g data-depth="4" data-path="1.9.16.18" class="markmap-node" transform="translate(766, -358.125)"><line stroke="#9467bd" stroke-width="1.1875" x1="-1" x2="322" y1="21.59375" y2="21.59375"/><foreignObject class="markmap-foreign" x="8" y="0" style="opacity: 1;" width="304" height="21"><div xmlns="http://www.w3.org/1999/xhtml"><div xmlns="http://www.w3.org/1999/xhtml">机制 -&gt; 与酶分子<strong>巯基(-SH)</strong> 结合 -&gt; 酶失活   </div></div></foreignObject></g><g data-depth="4" data-path="1.9.16.19" class="markmap-node" transform="translate(766, -330.9375)"><line stroke="#8c564b" stroke-width="1.1875" x1="-1" x2="210" y1="21.59375" y2="21.59375"/><foreignObject class="markmap-foreign" x="8" y="0" style="opacity: 1;" width="192" height="21"><div xmlns="http://www.w3.org/1999/xhtml"><div xmlns="http://www.w3.org/1999/xhtml">解毒剂 -&gt; <strong>二巯基丁二酸钠</strong>   </div></div></foreignObject></g><g data-depth="3" data-path="1.9.16" class="markmap-node" transform="translate(547, -358.125)"><line stroke="#2ca02c" stroke-width="1.375" x1="-1" x2="141" y1="21.6875" y2="21.6875"/><circle stroke-width="1.5" r="6" stroke="#2ca02c" fill="var(--markmap-circle-open-bg)" cx="139" cy="21.6875"/><foreignObject class="markmap-foreign" x="8" y="0" style="opacity: 1;" width="123" height="21"><div xmlns="http://www.w3.org/1999/xhtml"><div xmlns="http://www.w3.org/1999/xhtml"><strong>重金属离子</strong>中毒   </div></div></foreignObject></g><g data-depth="4" data-path="1.9.20.21" class="markmap-node" transform="translate(862, -298.75)"><line stroke="#7f7f7f" stroke-width="1.1875" x1="-1" x2="231" y1="21.59375" y2="21.59375"/><foreignObject class="markmap-foreign" x="8" y="0" style="opacity: 1;" width="213" height="21"><div xmlns="http://www.w3.org/1999/xhtml"><div xmlns="http://www.w3.org/1999/xhtml">机制 -&gt; 与酶<strong>巯基</strong>结合 -&gt; 失活   </div></div></foreignObject></g><g data-depth="4" data-path="1.9.20.22" class="markmap-node" transform="translate(862, -271.5625)"><line stroke="#bcbd22" stroke-width="1.1875" x1="-1" x2="220" y1="21.59375" y2="21.59375"/><foreignObject class="markmap-foreign" x="8" y="0" style="opacity: 1;" width="202" height="21"><div xmlns="http://www.w3.org/1999/xhtml"><div xmlns="http://www.w3.org/1999/xhtml">解毒剂 -&gt; <strong>二巯基丙醇(BAL)</strong>   </div></div></foreignObject></g><g data-depth="3" data-path="1.9.20" class="markmap-node" transform="translate(547, -285.15625)"><line stroke="#e377c2" stroke-width="1.375" x1="-1" x2="237" y1="21.6875" y2="21.6875"/><circle stroke-width="1.5" r="6" stroke="#e377c2" fill="var(--markmap-circle-open-bg)" cx="235" cy="21.6875"/><foreignObject class="markmap-foreign" x="8" y="0" style="opacity: 1;" width="219" height="21"><div xmlns="http://www.w3.org/1999/xhtml"><div xmlns="http://www.w3.org/1999/xhtml"><strong>路易士气</strong>（含砷化合物）中毒   </div></div></foreignObject></g><g data-depth="2" data-path="1.9" class="markmap-node" transform="translate(328, -378.515625)"><line stroke="#d62728" stroke-width="1.75" x1="-1" x2="141" y1="21.875" y2="21.875"/><circle stroke-width="1.5" r="6" stroke="#d62728" fill="var(--markmap-circle-open-bg)" cx="139" cy="21.875"/><foreignObject class="markmap-foreign" x="8" y="0" style="opacity: 1;" width="123" height="21"><div xmlns="http://www.w3.org/1999/xhtml"><div xmlns="http://www.w3.org/1999/xhtml"><strong>不可逆抑制作用</strong>   </div></div></foreignObject></g><g data-depth="4" data-path="1.23.24.25" class="markmap-node" transform="translate(814, -239.375)"><line stroke="#17becf" stroke-width="1.1875" x1="-1" x2="274" y1="21.59375" y2="21.59375"/><foreignObject class="markmap-foreign" x="8" y="0" style="opacity: 1;" width="256" height="21"><div xmlns="http://www.w3.org/1999/xhtml"><div xmlns="http://www.w3.org/1999/xhtml">结合部位 -&gt; 与 <strong>E</strong> 结合（活性中心）   </div></div></foreignObject></g><g data-depth="4" data-path="1.23.24.26" class="markmap-node" transform="translate(814, -212.1875)"><line stroke="#1f77b4" stroke-width="1.1875" x1="-1" x2="359" y1="21.59375" y2="21.59375"/><foreignObject class="markmap-foreign" x="8" y="0" style="opacity: 1;" width="341" height="21"><div xmlns="http://www.w3.org/1999/xhtml"><div xmlns="http://www.w3.org/1999/xhtml">抑制剂与底物关系 -&gt; 结构<strong>相似</strong> -&gt; 竞争<strong>活性中心</strong>   </div></div></foreignObject></g><g data-depth="4" data-path="1.23.24.27" class="markmap-node" transform="translate(814, -185)"><line stroke="#ff7f0e" stroke-width="1.1875" x1="-1" x2="181" y1="21.59375" y2="21.59375"/><foreignObject class="markmap-foreign" x="8" y="0" style="opacity: 1;" width="163" height="21"><div xmlns="http://www.w3.org/1999/xhtml"><div xmlns="http://www.w3.org/1999/xhtml">能由增加[S]解除 -&gt; <strong>是</strong>   </div></div></foreignObject></g><g data-depth="4" data-path="1.23.24.28" class="markmap-node" transform="translate(814, -157.8125)"><line stroke="#2ca02c" stroke-width="1.1875" x1="-1" x2="125" y1="21.59375" y2="21.59375"/><foreignObject class="markmap-foreign" x="8" y="0" style="opacity: 1;" width="107" height="21"><div xmlns="http://www.w3.org/1999/xhtml"><div xmlns="http://www.w3.org/1999/xhtml"><strong>Vmax</strong> -&gt; <strong>不变</strong>   </div></div></foreignObject></g><g data-depth="4" data-path="1.23.24.29" class="markmap-node" transform="translate(814, -130.625)"><line stroke="#d62728" stroke-width="1.1875" x1="-1" x2="108" y1="21.59375" y2="21.59375"/><foreignObject class="markmap-foreign" x="8" y="0" style="opacity: 1;" width="90" height="21"><div xmlns="http://www.w3.org/1999/xhtml"><div xmlns="http://www.w3.org/1999/xhtml"><strong>Km</strong> -&gt; <strong>增大</strong>   </div></div></foreignObject></g><g data-depth="4" data-path="1.23.24.30" class="markmap-node" transform="translate(814, -103.4375)"><line stroke="#9467bd" stroke-width="1.1875" x1="-1" x2="183" y1="21.59375" y2="21.59375"/><foreignObject class="markmap-foreign" x="8" y="0" style="opacity: 1;" width="165" height="21"><div xmlns="http://www.w3.org/1999/xhtml"><div xmlns="http://www.w3.org/1999/xhtml">林-贝氏图斜率 -&gt; 增大   </div></div></foreignObject></g><g data-depth="4" data-path="1.23.24.31" class="markmap-node" transform="translate(814, -76.25)"><line stroke="#8c564b" stroke-width="1.1875" x1="-1" x2="210" y1="21.59375" y2="21.59375"/><foreignObject class="markmap-foreign" x="8" y="0" style="opacity: 1;" width="192" height="21"><div xmlns="http://www.w3.org/1999/xhtml"><div xmlns="http://www.w3.org/1999/xhtml">纵轴截距(1/Vmax) -&gt; 不变   </div></div></foreignObject></g><g data-depth="4" data-path="1.23.24.32" class="markmap-node" transform="translate(814, -49.0625)"><line stroke="#e377c2" stroke-width="1.1875" x1="-1" x2="200" y1="21.59375" y2="21.59375"/><foreignObject class="markmap-foreign" x="8" y="0" style="opacity: 1;" width="182" height="21"><div xmlns="http://www.w3.org/1999/xhtml"><div xmlns="http://www.w3.org/1999/xhtml">横轴截距(-1/Km) -&gt; 增大   </div></div></foreignObject></g><g data-depth="4" data-path="1.23.24.33" class="markmap-node" transform="translate(814, -21.875)"><line stroke="#7f7f7f" stroke-width="1.1875" x1="-1" x2="356" y1="21.59375" y2="21.59375"/><foreignObject class="markmap-foreign" x="8" y="0" style="opacity: 1;" width="338" height="21"><div xmlns="http://www.w3.org/1999/xhtml"><div xmlns="http://www.w3.org/1999/xhtml">实例 -&gt; <strong>磺胺类药物</strong> vs <strong>PABA</strong> 竞争<strong>二氢蝶酸合酶</strong>   </div></div></foreignObject></g><g data-depth="4" data-path="1.23.24.34" class="markmap-node" transform="translate(814, 5.3125)"><line stroke="#bcbd22" stroke-width="1.1875" x1="-1" x2="328" y1="21.59375" y2="21.59375"/><foreignObject class="markmap-foreign" x="8" y="0" style="opacity: 1;" width="310" height="21"><div xmlns="http://www.w3.org/1999/xhtml"><div xmlns="http://www.w3.org/1999/xhtml">实例 -&gt; <strong>丙二酸</strong> vs 琥珀酸竞争<strong>琥珀酸脱氢酶</strong>   </div></div></foreignObject></g><g data-depth="3" data-path="1.23.24" class="markmap-node" transform="translate(627, -117.03125)"><line stroke="#2ca02c" stroke-width="1.375" x1="-1" x2="109" y1="21.6875" y2="21.6875"/><circle stroke-width="1.5" r="6" stroke="#2ca02c" fill="var(--markmap-circle-open-bg)" cx="107" cy="21.6875"/><foreignObject class="markmap-foreign" x="8" y="0" style="opacity: 1;" width="91" height="21"><div xmlns="http://www.w3.org/1999/xhtml"><div xmlns="http://www.w3.org/1999/xhtml"><strong>竞争性抑制</strong>   </div></div></foreignObject></g><g data-depth="4" data-path="1.23.35.36" class="markmap-node" transform="translate(830, 37.5)"><line stroke="#1f77b4" stroke-width="1.1875" x1="-1" x2="350" y1="21.59375" y2="21.59375"/><foreignObject class="markmap-foreign" x="8" y="0" style="opacity: 1;" width="332" height="21"><div xmlns="http://www.w3.org/1999/xhtml"><div xmlns="http://www.w3.org/1999/xhtml">结合部位 -&gt; 与 <strong>E 和 ES</strong> 均结合（活性中心<strong>外</strong>）   </div></div></foreignObject></g><g data-depth="4" data-path="1.23.35.37" class="markmap-node" transform="translate(830, 64.6875)"><line stroke="#ff7f0e" stroke-width="1.1875" x1="-1" x2="258" y1="21.59375" y2="21.59375"/><foreignObject class="markmap-foreign" x="8" y="0" style="opacity: 1;" width="240" height="21"><div xmlns="http://www.w3.org/1999/xhtml"><div xmlns="http://www.w3.org/1999/xhtml">抑制剂与底物关系 -&gt; <strong>无竞争关系</strong>   </div></div></foreignObject></g><g data-depth="4" data-path="1.23.35.38" class="markmap-node" transform="translate(830, 91.875)"><line stroke="#2ca02c" stroke-width="1.1875" x1="-1" x2="275" y1="21.59375" y2="21.59375"/><foreignObject class="markmap-foreign" x="8" y="0" style="opacity: 1;" width="257" height="21"><div xmlns="http://www.w3.org/1999/xhtml"><div xmlns="http://www.w3.org/1999/xhtml">能由增加[S]解除 -&gt; <strong>否</strong>（取决于[I]）   </div></div></foreignObject></g><g data-depth="4" data-path="1.23.35.39" class="markmap-node" transform="translate(830, 119.0625)"><line stroke="#d62728" stroke-width="1.1875" x1="-1" x2="125" y1="21.59375" y2="21.59375"/><foreignObject class="markmap-foreign" x="8" y="0" style="opacity: 1;" width="107" height="21"><div xmlns="http://www.w3.org/1999/xhtml"><div xmlns="http://www.w3.org/1999/xhtml"><strong>Vmax</strong> -&gt; <strong>降低</strong>   </div></div></foreignObject></g><g data-depth="4" data-path="1.23.35.40" class="markmap-node" transform="translate(830, 146.25)"><line stroke="#9467bd" stroke-width="1.1875" x1="-1" x2="108" y1="21.59375" y2="21.59375"/><foreignObject class="markmap-foreign" x="8" y="0" style="opacity: 1;" width="90" height="21"><div xmlns="http://www.w3.org/1999/xhtml"><div xmlns="http://www.w3.org/1999/xhtml"><strong>Km</strong> -&gt; <strong>不变</strong>   </div></div></foreignObject></g><g data-depth="4" data-path="1.23.35.41" class="markmap-node" transform="translate(830, 173.4375)"><line stroke="#8c564b" stroke-width="1.1875" x1="-1" x2="183" y1="21.59375" y2="21.59375"/><foreignObject class="markmap-foreign" x="8" y="0" style="opacity: 1;" width="165" height="21"><div xmlns="http://www.w3.org/1999/xhtml"><div xmlns="http://www.w3.org/1999/xhtml">林-贝氏图斜率 -&gt; 增大   </div></div></foreignObject></g><g data-depth="4" data-path="1.23.35.42" class="markmap-node" transform="translate(830, 200.625)"><line stroke="#e377c2" stroke-width="1.1875" x1="-1" x2="210" y1="21.59375" y2="21.59375"/><foreignObject class="markmap-foreign" x="8" y="0" style="opacity: 1;" width="192" height="21"><div xmlns="http://www.w3.org/1999/xhtml"><div xmlns="http://www.w3.org/1999/xhtml">纵轴截距(1/Vmax) -&gt; 增大   </div></div></foreignObject></g><g data-depth="4" data-path="1.23.35.43" class="markmap-node" transform="translate(830, 227.8125)"><line stroke="#7f7f7f" stroke-width="1.1875" x1="-1" x2="200" y1="21.59375" y2="21.59375"/><foreignObject class="markmap-foreign" x="8" y="0" style="opacity: 1;" width="182" height="21"><div xmlns="http://www.w3.org/1999/xhtml"><div xmlns="http://www.w3.org/1999/xhtml">横轴截距(-1/Km) -&gt; 不变   </div></div></foreignObject></g><g data-depth="3" data-path="1.23.35" class="markmap-node" transform="translate(627, 132.65625)"><line stroke="#17becf" stroke-width="1.375" x1="-1" x2="125" y1="21.6875" y2="21.6875"/><circle stroke-width="1.5" r="6" stroke="#17becf" fill="var(--markmap-circle-open-bg)" cx="123" cy="21.6875"/><foreignObject class="markmap-foreign" x="8" y="0" style="opacity: 1;" width="107" height="21"><div xmlns="http://www.w3.org/1999/xhtml"><div xmlns="http://www.w3.org/1999/xhtml"><strong>非竞争性抑制</strong>   </div></div></foreignObject></g><g data-depth="4" data-path="1.23.44.45" class="markmap-node" transform="translate(830, 260)"><line stroke="#17becf" stroke-width="1.1875" x1="-1" x2="204" y1="21.59375" y2="21.59375"/><foreignObject class="markmap-foreign" x="8" y="0" style="opacity: 1;" width="186" height="21"><div xmlns="http://www.w3.org/1999/xhtml"><div xmlns="http://www.w3.org/1999/xhtml">结合部位 -&gt; 只与 <strong>ES</strong> 结合   </div></div></foreignObject></g><g data-depth="4" data-path="1.23.44.46" class="markmap-node" transform="translate(830, 287.1875)"><line stroke="#1f77b4" stroke-width="1.1875" x1="-1" x2="308" y1="21.59375" y2="21.59375"/><foreignObject class="markmap-foreign" x="8" y="0" style="opacity: 1;" width="290" height="21"><div xmlns="http://www.w3.org/1999/xhtml"><div xmlns="http://www.w3.org/1999/xhtml">抑制剂与底物关系 -&gt; 需先形成ES复合物   </div></div></foreignObject></g><g data-depth="4" data-path="1.23.44.47" class="markmap-node" transform="translate(830, 314.375)"><line stroke="#ff7f0e" stroke-width="1.1875" x1="-1" x2="181" y1="21.59375" y2="21.59375"/><foreignObject class="markmap-foreign" x="8" y="0" style="opacity: 1;" width="163" height="21"><div xmlns="http://www.w3.org/1999/xhtml"><div xmlns="http://www.w3.org/1999/xhtml">能由增加[S]解除 -&gt; <strong>否</strong>   </div></div></foreignObject></g><g data-depth="4" data-path="1.23.44.48" class="markmap-node" transform="translate(830, 341.5625)"><line stroke="#2ca02c" stroke-width="1.1875" x1="-1" x2="125" y1="21.59375" y2="21.59375"/><foreignObject class="markmap-foreign" x="8" y="0" style="opacity: 1;" width="107" height="21"><div xmlns="http://www.w3.org/1999/xhtml"><div xmlns="http://www.w3.org/1999/xhtml"><strong>Vmax</strong> -&gt; <strong>降低</strong>   </div></div></foreignObject></g><g data-depth="4" data-path="1.23.44.49" class="markmap-node" transform="translate(830, 368.75)"><line stroke="#d62728" stroke-width="1.1875" x1="-1" x2="108" y1="21.59375" y2="21.59375"/><foreignObject class="markmap-foreign" x="8" y="0" style="opacity: 1;" width="90" height="21"><div xmlns="http://www.w3.org/1999/xhtml"><div xmlns="http://www.w3.org/1999/xhtml"><strong>Km</strong> -&gt; <strong>降低</strong>   </div></div></foreignObject></g><g data-depth="4" data-path="1.23.44.50" class="markmap-node" transform="translate(830, 395.9375)"><line stroke="#9467bd" stroke-width="1.1875" x1="-1" x2="183" y1="21.59375" y2="21.59375"/><foreignObject class="markmap-foreign" x="8" y="0" style="opacity: 1;" width="165" height="21"><div xmlns="http://www.w3.org/1999/xhtml"><div xmlns="http://www.w3.org/1999/xhtml">林-贝氏图斜率 -&gt; 不变   </div></div></foreignObject></g><g data-depth="4" data-path="1.23.44.51" class="markmap-node" transform="translate(830, 423.125)"><line stroke="#8c564b" stroke-width="1.1875" x1="-1" x2="210" y1="21.59375" y2="21.59375"/><foreignObject class="markmap-foreign" x="8" y="0" style="opacity: 1;" width="192" height="21"><div xmlns="http://www.w3.org/1999/xhtml"><div xmlns="http://www.w3.org/1999/xhtml">纵轴截距(1/Vmax) -&gt; 增大   </div></div></foreignObject></g><g data-depth="4" data-path="1.23.44.52" class="markmap-node" transform="translate(830, 450.3125)"><line stroke="#e377c2" stroke-width="1.1875" x1="-1" x2="200" y1="21.59375" y2="21.59375"/><foreignObject class="markmap-foreign" x="8" y="0" style="opacity: 1;" width="182" height="21"><div xmlns="http://www.w3.org/1999/xhtml"><div xmlns="http://www.w3.org/1999/xhtml">横轴截距(-1/Km) -&gt; 增大   </div></div></foreignObject></g><g data-depth="3" data-path="1.23.44" class="markmap-node" transform="translate(627, 355.15625)"><line stroke="#bcbd22" stroke-width="1.375" x1="-1" x2="125" y1="21.6875" y2="21.6875"/><circle stroke-width="1.5" r="6" stroke="#bcbd22" fill="var(--markmap-circle-open-bg)" cx="123" cy="21.6875"/><foreignObject class="markmap-foreign" x="8" y="0" style="opacity: 1;" width="107" height="21"><div xmlns="http://www.w3.org/1999/xhtml"><div xmlns="http://www.w3.org/1999/xhtml"><strong>反竞争性抑制</strong>   </div></div></foreignObject></g><g data-depth="2" data-path="1.23" class="markmap-node" transform="translate(328, 119.0625)"><line stroke="#ff7f0e" stroke-width="1.75" x1="-1" x2="221" y1="21.875" y2="21.875"/><circle stroke-width="1.5" r="6" stroke="#ff7f0e" fill="var(--markmap-circle-open-bg)" cx="219" cy="21.875"/><foreignObject class="markmap-foreign" x="8" y="0" style="opacity: 1;" width="203" height="21"><div xmlns="http://www.w3.org/1999/xhtml"><div xmlns="http://www.w3.org/1999/xhtml"><strong>可逆抑制作用对比（必背）</strong>   </div></div></foreignObject></g><g data-depth="3" data-path="1.53.54" class="markmap-node" transform="translate(595, 482.5)"><line stroke="#bcbd22" stroke-width="1.375" x1="-1" x2="294" y1="21.6875" y2="21.6875"/><foreignObject class="markmap-foreign" x="8" y="0" style="opacity: 1;" width="276" height="21"><div xmlns="http://www.w3.org/1999/xhtml"><div xmlns="http://www.w3.org/1999/xhtml"><strong>竞大不不变（竞：Km↑ Vmax不变）</strong>   </div></div></foreignObject></g><g data-depth="3" data-path="1.53.55" class="markmap-node" transform="translate(595, 509.875)"><line stroke="#17becf" stroke-width="1.375" x1="-1" x2="294" y1="21.6875" y2="21.6875"/><foreignObject class="markmap-foreign" x="8" y="0" style="opacity: 1;" width="276" height="21"><div xmlns="http://www.w3.org/1999/xhtml"><div xmlns="http://www.w3.org/1999/xhtml"><strong>非不小不变（非：Vmax↓ Km不变）</strong>   </div></div></foreignObject></g><g data-depth="3" data-path="1.53.56" class="markmap-node" transform="translate(595, 537.25)"><line stroke="#1f77b4" stroke-width="1.375" x1="-1" x2="246" y1="21.6875" y2="21.6875"/><foreignObject class="markmap-foreign" x="8" y="0" style="opacity: 1;" width="228" height="21"><div xmlns="http://www.w3.org/1999/xhtml"><div xmlns="http://www.w3.org/1999/xhtml"><strong>反都小（反：Vmax↓ Km↓）</strong>   </div></div></foreignObject></g><g data-depth="2" data-path="1.53" class="markmap-node" transform="translate(328, 509.875)"><line stroke="#7f7f7f" stroke-width="1.75" x1="-1" x2="189" y1="21.875" y2="21.875"/><circle stroke-width="1.5" r="6" stroke="#7f7f7f" fill="var(--markmap-circle-open-bg)" cx="187" cy="21.875"/><foreignObject class="markmap-foreign" x="8" y="0" style="opacity: 1;" width="171" height="21"><div xmlns="http://www.w3.org/1999/xhtml"><div xmlns="http://www.w3.org/1999/xhtml"><strong>三种可逆抑制口诀记忆</strong>   </div></div></foreignObject></g><g data-depth="3" data-path="1.57.58" class="markmap-node" transform="translate(483, 569.625)"><line stroke="#2ca02c" stroke-width="1.375" x1="-1" x2="317" y1="21.6875" y2="21.6875"/><foreignObject class="markmap-foreign" x="8" y="0" style="opacity: 1;" width="299" height="21"><div xmlns="http://www.w3.org/1999/xhtml"><div xmlns="http://www.w3.org/1999/xhtml">使酶从无活性→有活性或活性增加的物质   </div></div></foreignObject></g><g data-depth="3" data-path="1.57.59" class="markmap-node" transform="translate(483, 597)"><line stroke="#d62728" stroke-width="1.375" x1="-1" x2="226" y1="21.6875" y2="21.6875"/><foreignObject class="markmap-foreign" x="8" y="0" style="opacity: 1;" width="208" height="21"><div xmlns="http://www.w3.org/1999/xhtml"><div xmlns="http://www.w3.org/1999/xhtml"><strong>必需激活剂</strong> -&gt; 没有就不工作   </div></div></foreignObject></g><g data-depth="3" data-path="1.57.60" class="markmap-node" transform="translate(483, 624.375)"><line stroke="#9467bd" stroke-width="1.375" x1="-1" x2="274" y1="21.6875" y2="21.6875"/><foreignObject class="markmap-foreign" x="8" y="0" style="opacity: 1;" width="256" height="21"><div xmlns="http://www.w3.org/1999/xhtml"><div xmlns="http://www.w3.org/1999/xhtml"><strong>非必需激活剂</strong> -&gt; 没有也有一定活性   </div></div></foreignObject></g><g data-depth="3" data-path="1.57.61" class="markmap-node" transform="translate(483, 651.75)"><line stroke="#8c564b" stroke-width="1.375" x1="-1" x2="317" y1="21.6875" y2="21.6875"/><foreignObject class="markmap-foreign" x="8" y="0" style="opacity: 1;" width="299" height="21"><div xmlns="http://www.w3.org/1999/xhtml"><div xmlns="http://www.w3.org/1999/xhtml">实例 -&gt; Mg²⁺、K⁺、Mn²⁺、Cl⁻、胆汁酸盐   </div></div></foreignObject></g><g data-depth="2" data-path="1.57" class="markmap-node" transform="translate(328, 610.6875)"><line stroke="#ff7f0e" stroke-width="1.75" x1="-1" x2="77" y1="21.875" y2="21.875"/><circle stroke-width="1.5" r="6" stroke="#ff7f0e" fill="var(--markmap-circle-open-bg)" cx="75" cy="21.875"/><foreignObject class="markmap-foreign" x="8" y="0" style="opacity: 1;" width="59" height="21"><div xmlns="http://www.w3.org/1999/xhtml"><div xmlns="http://www.w3.org/1999/xhtml"><strong>激活剂</strong>   </div></div></foreignObject></g><g data-depth="1" data-path="1" class="markmap-node" transform="translate(0,-10.5)"><line stroke="#1f77b4" stroke-width="2.5" x1="-1" x2="250" y1="22.25" y2="22.25"/><circle stroke-width="1.5" r="6" stroke="#1f77b4" fill="var(--markmap-circle-open-bg)" cx="248" cy="22.25"/><foreignObject class="markmap-foreign" x="8" y="0" style="opacity: 1;" width="232" height="21"><div xmlns="http://www.w3.org/1999/xhtml"><div xmlns="http://www.w3.org/1999/xhtml">酶的抑制作用对比 (必考重灾区)   </div></div></foreignObject></g></g></svg>