<svg xmlns="http://www.w3.org/2000/svg" class="w-full h-full leading-none markmap mm-7aew7z-1" style=""><style>.markmap{--markmap-max-width: 9999px;--markmap-a-color: #0097e6;--markmap-a-hover-color: #00a8ff;--markmap-code-bg: #f0f0f0;--markmap-code-color: #555;--markmap-highlight-bg: #ffeaa7;--markmap-table-border: 1px solid currentColor;--markmap-font: 300 16px/20px sans-serif;--markmap-circle-open-bg: #fff;--markmap-text-color: #333;--markmap-highlight-node-bg: #ff02;font:var(--markmap-font);color:var(--markmap-text-color)}.markmap-link{fill:none}.markmap-node&gt;circle{cursor:pointer}.markmap-foreign{display:inline-block}.markmap-foreign p{margin:0}.markmap-foreign a{color:var(--markmap-a-color)}.markmap-foreign a:hover{color:var(--markmap-a-hover-color)}.markmap-foreign code{padding:.25em;font-size:calc(1em - 2px);color:var(--markmap-code-color);background-color:var(--markmap-code-bg);border-radius:2px}.markmap-foreign pre{margin:0}.markmap-foreign pre&gt;code{display:block}.markmap-foreign del{text-decoration:line-through}.markmap-foreign em{font-style:italic}.markmap-foreign strong{font-weight:700}.markmap-foreign mark{background:var(--markmap-highlight-bg)}.markmap-foreign table,.markmap-foreign th,.markmap-foreign td{border-collapse:collapse;border:var(--markmap-table-border)}.markmap-foreign img{display:inline-block}.markmap-foreign svg{fill:currentColor}.markmap-foreign&gt;div{width:var(--markmap-max-width);text-align:left}.markmap-foreign&gt;div&gt;div{display:inline-block}.markmap-highlight rect{fill:var(--markmap-highlight-node-bg)}.markmap-dark .markmap{--markmap-code-bg: #1a1b26;--markmap-code-color: #ddd;--markmap-circle-open-bg: #444;--markmap-text-color: #eee}</style><g transform="translate(98.48613659629144,391.24488297690374) scale(0.5025290795679643)"><path class="markmap-link" data-depth="3" data-path="1.2.3" d="M358,-485.844C398,-485.844,398,-513.406,438,-513.406" stroke-width="1.375" stroke="rgb(148, 103, 189)"/><path class="markmap-link" data-depth="3" data-path="1.2.4" d="M358,-485.844C398,-485.844,398,-486.031,438,-486.031" stroke-width="1.375" stroke="rgb(140, 86, 75)"/><path class="markmap-link" data-depth="3" data-path="1.2.5" d="M358,-485.844C398,-485.844,398,-458.656,438,-458.656" stroke-width="1.375" stroke="rgb(188, 189, 34)"/><path class="markmap-link" data-depth="3" data-path="1.6.7" d="M427,-398.719C467,-398.719,467,-426.281,507,-426.281" stroke-width="1.375" stroke="rgb(140, 86, 75)"/><path class="markmap-link" data-depth="3" data-path="1.6.8" d="M427,-398.719C467,-398.719,467,-398.906,507,-398.906" stroke-width="1.375" stroke="rgb(227, 119, 194)"/><path class="markmap-link" data-depth="3" data-path="1.6.9" d="M427,-398.719C467,-398.719,467,-371.531,507,-371.531" stroke-width="1.375" stroke="rgb(127, 127, 127)"/><path class="markmap-link" data-depth="3" data-path="1.10.11" d="M427,-311.594C467,-311.594,467,-339.156,507,-339.156" stroke-width="1.375" stroke="rgb(23, 190, 207)"/><path class="markmap-link" data-depth="3" data-path="1.10.12" d="M427,-311.594C467,-311.594,467,-311.781,507,-311.781" stroke-width="1.375" stroke="rgb(31, 119, 180)"/><path class="markmap-link" data-depth="3" data-path="1.10.13" d="M427,-311.594C467,-311.594,467,-284.406,507,-284.406" stroke-width="1.375" stroke="rgb(255, 127, 14)"/><path class="markmap-link" data-depth="3" data-path="1.14.15" d="M501,-224.469C541,-224.469,541,-252.031,581,-252.031" stroke-width="1.375" stroke="rgb(31, 119, 180)"/><path class="markmap-link" data-depth="3" data-path="1.14.16" d="M501,-224.469C541,-224.469,541,-224.656,581,-224.656" stroke-width="1.375" stroke="rgb(255, 127, 14)"/><path class="markmap-link" data-depth="3" data-path="1.14.17" d="M501,-224.469C541,-224.469,541,-197.281,581,-197.281" stroke-width="1.375" stroke="rgb(44, 160, 44)"/><path class="markmap-link" data-depth="3" data-path="1.18.19" d="M481,-137.344C521,-137.344,521,-164.906,561,-164.906" stroke-width="1.375" stroke="rgb(148, 103, 189)"/><path class="markmap-link" data-depth="3" data-path="1.18.20" d="M481,-137.344C521,-137.344,521,-137.531,561,-137.531" stroke-width="1.375" stroke="rgb(140, 86, 75)"/><path class="markmap-link" data-depth="3" data-path="1.18.21" d="M481,-137.344C521,-137.344,521,-110.156,561,-110.156" stroke-width="1.375" stroke="rgb(227, 119, 194)"/><path class="markmap-link" data-depth="3" data-path="1.22.23" d="M390,-50.219C430,-50.219,430,-77.781,470,-77.781" stroke-width="1.375" stroke="rgb(188, 189, 34)"/><path class="markmap-link" data-depth="3" data-path="1.22.24" d="M390,-50.219C430,-50.219,430,-50.406,470,-50.406" stroke-width="1.375" stroke="rgb(127, 127, 127)"/><path class="markmap-link" data-depth="3" data-path="1.22.25" d="M390,-50.219C430,-50.219,430,-23.031,470,-23.031" stroke-width="1.375" stroke="rgb(188, 189, 34)"/><path class="markmap-link" data-depth="3" data-path="1.26.27" d="M442,36.906C482,36.906,482,9.344,522,9.344" stroke-width="1.375" stroke="rgb(31, 119, 180)"/><path class="markmap-link" data-depth="3" data-path="1.26.28" d="M442,36.906C482,36.906,482,36.719,522,36.719" stroke-width="1.375" stroke="rgb(255, 127, 14)"/><path class="markmap-link" data-depth="3" data-path="1.26.29" d="M442,36.906C482,36.906,482,64.094,522,64.094" stroke-width="1.375" stroke="rgb(44, 160, 44)"/><path class="markmap-link" data-depth="3" data-path="1.30.31" d="M310,137.719C350,137.719,350,96.469,390,96.469" stroke-width="1.375" stroke="rgb(214, 39, 40)"/><path class="markmap-link" data-depth="3" data-path="1.30.32" d="M310,137.719C350,137.719,350,123.844,390,123.844" stroke-width="1.375" stroke="rgb(148, 103, 189)"/><path class="markmap-link" data-depth="3" data-path="1.30.33" d="M310,137.719C350,137.719,350,151.219,390,151.219" stroke-width="1.375" stroke="rgb(140, 86, 75)"/><path class="markmap-link" data-depth="3" data-path="1.30.34" d="M310,137.719C350,137.719,350,178.594,390,178.594" stroke-width="1.375" stroke="rgb(214, 39, 40)"/><path class="markmap-link" data-depth="3" data-path="1.35.36" d="M434,252.219C474,252.219,474,210.969,514,210.969" stroke-width="1.375" stroke="rgb(148, 103, 189)"/><path class="markmap-link" data-depth="3" data-path="1.35.37" d="M434,252.219C474,252.219,474,238.344,514,238.344" stroke-width="1.375" stroke="rgb(140, 86, 75)"/><path class="markmap-link" data-depth="3" data-path="1.35.38" d="M434,252.219C474,252.219,474,265.719,514,265.719" stroke-width="1.375" stroke="rgb(227, 119, 194)"/><path class="markmap-link" data-depth="3" data-path="1.35.39" d="M434,252.219C474,252.219,474,293.094,514,293.094" stroke-width="1.375" stroke="rgb(127, 127, 127)"/><path class="markmap-link" data-depth="3" data-path="1.40.41" d="M436,380.406C476,380.406,476,325.469,516,325.469" stroke-width="1.375" stroke="rgb(23, 190, 207)"/><path class="markmap-link" data-depth="3" data-path="1.40.42" d="M436,380.406C476,380.406,476,352.844,516,352.844" stroke-width="1.375" stroke="rgb(31, 119, 180)"/><path class="markmap-link" data-depth="3" data-path="1.40.43" d="M436,380.406C476,380.406,476,380.219,516,380.219" stroke-width="1.375" stroke="rgb(255, 127, 14)"/><path class="markmap-link" data-depth="3" data-path="1.40.44" d="M436,380.406C476,380.406,476,407.594,516,407.594" stroke-width="1.375" stroke="rgb(44, 160, 44)"/><path class="markmap-link" data-depth="3" data-path="1.40.45" d="M436,380.406C476,380.406,476,434.969,516,434.969" stroke-width="1.375" stroke="rgb(214, 39, 40)"/><path class="markmap-link" data-depth="3" data-path="1.46.47" d="M374,508.594C414,508.594,414,467.344,454,467.344" stroke-width="1.375" stroke="rgb(140, 86, 75)"/><path class="markmap-link" data-depth="3" data-path="1.46.48" d="M374,508.594C414,508.594,414,494.719,454,494.719" stroke-width="1.375" stroke="rgb(188, 189, 34)"/><path class="markmap-link" data-depth="3" data-path="1.46.49" d="M374,508.594C414,508.594,414,522.094,454,522.094" stroke-width="1.375" stroke="rgb(23, 190, 207)"/><path class="markmap-link" data-depth="3" data-path="1.46.50" d="M374,508.594C414,508.594,414,549.469,454,549.469" stroke-width="1.375" stroke="rgb(148, 103, 189)"/><path class="markmap-link" data-depth="2" data-path="1.2" d="M171,11.75C211,11.75,211,-485.844,251,-485.844" stroke-width="1.75" stroke="rgb(255, 127, 14)"/><path class="markmap-link" data-depth="2" data-path="1.6" d="M171,11.75C211,11.75,211,-398.719,251,-398.719" stroke-width="1.75" stroke="rgb(148, 103, 189)"/><path class="markmap-link" data-depth="2" data-path="1.10" d="M171,11.75C211,11.75,211,-311.594,251,-311.594" stroke-width="1.75" stroke="rgb(188, 189, 34)"/><path class="markmap-link" data-depth="2" data-path="1.14" d="M171,11.75C211,11.75,211,-224.469,251,-224.469" stroke-width="1.75" stroke="rgb(23, 190, 207)"/><path class="markmap-link" data-depth="2" data-path="1.18" d="M171,11.75C211,11.75,211,-137.344,251,-137.344" stroke-width="1.75" stroke="rgb(214, 39, 40)"/><path class="markmap-link" data-depth="2" data-path="1.22" d="M171,11.75C211,11.75,211,-50.219,251,-50.219" stroke-width="1.75" stroke="rgb(127, 127, 127)"/><path class="markmap-link" data-depth="2" data-path="1.26" d="M171,11.75C211,11.75,211,36.906,251,36.906" stroke-width="1.75" stroke="rgb(23, 190, 207)"/><path class="markmap-link" data-depth="2" data-path="1.30" d="M171,11.75C211,11.75,211,137.719,251,137.719" stroke-width="1.75" stroke="rgb(44, 160, 44)"/><path class="markmap-link" data-depth="2" data-path="1.35" d="M171,11.75C211,11.75,211,252.219,251,252.219" stroke-width="1.75" stroke="rgb(214, 39, 40)"/><path class="markmap-link" data-depth="2" data-path="1.40" d="M171,11.75C211,11.75,211,380.406,251,380.406" stroke-width="1.75" stroke="rgb(188, 189, 34)"/><path class="markmap-link" data-depth="2" data-path="1.46" d="M171,11.75C211,11.75,211,508.594,251,508.594" stroke-width="1.75" stroke="rgb(148, 103, 189)"/><g class="markmap-highlight"/><g data-depth="3" data-path="1.2.3" class="markmap-node" transform="translate(438, -535.09375)"><line stroke="#9467bd" stroke-width="1.375" x1="-1" x2="615" y1="21.6875" y2="21.6875"/><foreignObject class="markmap-foreign" x="8" y="0" style="opacity: 1;" width="597" height="21"><div xmlns="http://www.w3.org/1999/xhtml"><div xmlns="http://www.w3.org/1999/xhtml">维持正常生理功能必需的微量有机物 -&gt; 体内<strong>不能合成或合成量很少</strong> -&gt; 必须食物供给   </div></div></foreignObject></g><g data-depth="3" data-path="1.2.4" class="markmap-node" transform="translate(438, -507.71875)"><line stroke="#8c564b" stroke-width="1.375" x1="-1" x2="464" y1="21.6875" y2="21.6875"/><foreignObject class="markmap-foreign" x="8" y="0" style="opacity: 1;" width="446" height="21"><div xmlns="http://www.w3.org/1999/xhtml"><div xmlns="http://www.w3.org/1999/xhtml"><strong>脂溶性</strong> -&gt; VitA、D、E、K -&gt; 不溶于水，与脂类共吸收，排泄慢   </div></div></foreignObject></g><g data-depth="3" data-path="1.2.5" class="markmap-node" transform="translate(438, -480.34375)"><line stroke="#bcbd22" stroke-width="1.375" x1="-1" x2="563" y1="21.6875" y2="21.6875"/><foreignObject class="markmap-foreign" x="8" y="0" style="opacity: 1;" width="545" height="21"><div xmlns="http://www.w3.org/1999/xhtml"><div xmlns="http://www.w3.org/1999/xhtml"><strong>水溶性</strong> -&gt; B族维生素 + VitC -&gt; 易随尿排出，需经常摄取，主要构成辅酶/辅基   </div></div></foreignObject></g><g data-depth="2" data-path="1.2" class="markmap-node" transform="translate(251, -507.71875)"><line stroke="#ff7f0e" stroke-width="1.75" x1="-1" x2="109" y1="21.875" y2="21.875"/><circle stroke-width="1.5" r="6" stroke="#ff7f0e" fill="var(--markmap-circle-open-bg)" cx="107" cy="21.875"/><foreignObject class="markmap-foreign" x="8" y="0" style="opacity: 1;" width="91" height="21"><div xmlns="http://www.w3.org/1999/xhtml"><div xmlns="http://www.w3.org/1999/xhtml"><strong>维生素总览</strong>   </div></div></foreignObject></g><g data-depth="3" data-path="1.6.7" class="markmap-node" transform="translate(507, -447.96875)"><line stroke="#8c564b" stroke-width="1.375" x1="-1" x2="273" y1="21.6875" y2="21.6875"/><foreignObject class="markmap-foreign" x="8" y="0" style="opacity: 1;" width="255" height="21"><div xmlns="http://www.w3.org/1999/xhtml"><div xmlns="http://www.w3.org/1999/xhtml">活性形式 -&gt; <strong>TPP</strong>（焦磷酸硫胺素）   </div></div></foreignObject></g><g data-depth="3" data-path="1.6.8" class="markmap-node" transform="translate(507, -420.59375)"><line stroke="#e377c2" stroke-width="1.375" x1="-1" x2="386" y1="21.6875" y2="21.6875"/><foreignObject class="markmap-foreign" x="8" y="0" style="opacity: 1;" width="368" height="21"><div xmlns="http://www.w3.org/1999/xhtml"><div xmlns="http://www.w3.org/1999/xhtml">辅酶功能 -&gt; <strong>α-酮酸氧化脱羧酶</strong>辅酶、<strong>转酮醇酶</strong>辅酶   </div></div></foreignObject></g><g data-depth="3" data-path="1.6.9" class="markmap-node" transform="translate(507, -393.21875)"><line stroke="#7f7f7f" stroke-width="1.375" x1="-1" x2="242" y1="21.6875" y2="21.6875"/><foreignObject class="markmap-foreign" x="8" y="0" style="opacity: 1;" width="224" height="21"><div xmlns="http://www.w3.org/1999/xhtml"><div xmlns="http://www.w3.org/1999/xhtml">缺乏症 -&gt; <strong>脚气病</strong>、末梢神经炎   </div></div></foreignObject></g><g data-depth="2" data-path="1.6" class="markmap-node" transform="translate(251, -420.59375)"><line stroke="#9467bd" stroke-width="1.75" x1="-1" x2="178" y1="21.875" y2="21.875"/><circle stroke-width="1.5" r="6" stroke="#9467bd" fill="var(--markmap-circle-open-bg)" cx="176" cy="21.875"/><foreignObject class="markmap-foreign" x="8" y="0" style="opacity: 1;" width="160" height="21"><div xmlns="http://www.w3.org/1999/xhtml"><div xmlns="http://www.w3.org/1999/xhtml"><strong>维生素 B₁（硫胺素）</strong>   </div></div></foreignObject></g><g data-depth="3" data-path="1.10.11" class="markmap-node" transform="translate(507, -360.84375)"><line stroke="#17becf" stroke-width="1.375" x1="-1" x2="491" y1="21.6875" y2="21.6875"/><foreignObject class="markmap-foreign" x="8" y="0" style="opacity: 1;" width="473" height="21"><div xmlns="http://www.w3.org/1999/xhtml"><div xmlns="http://www.w3.org/1999/xhtml">活性形式 -&gt; <strong>FMN</strong>（黄素单核苷酸）、<strong>FAD</strong>（黄素腺嘌呤二核苷酸）   </div></div></foreignObject></g><g data-depth="3" data-path="1.10.12" class="markmap-node" transform="translate(507, -333.46875)"><line stroke="#1f77b4" stroke-width="1.375" x1="-1" x2="407" y1="21.6875" y2="21.6875"/><foreignObject class="markmap-foreign" x="8" y="0" style="opacity: 1;" width="389" height="21"><div xmlns="http://www.w3.org/1999/xhtml"><div xmlns="http://www.w3.org/1999/xhtml">辅酶功能 -&gt; 氧化还原酶的<strong>辅基</strong> -&gt; 传递<strong>氢</strong>（氢传递体）   </div></div></foreignObject></g><g data-depth="3" data-path="1.10.13" class="markmap-node" transform="translate(507, -306.09375)"><line stroke="#ff7f0e" stroke-width="1.375" x1="-1" x2="322" y1="21.6875" y2="21.6875"/><foreignObject class="markmap-foreign" x="8" y="0" style="opacity: 1;" width="304" height="21"><div xmlns="http://www.w3.org/1999/xhtml"><div xmlns="http://www.w3.org/1999/xhtml">缺乏症 -&gt; <strong>口角炎、唇炎、阴囊炎、眼睑炎</strong>   </div></div></foreignObject></g><g data-depth="2" data-path="1.10" class="markmap-node" transform="translate(251, -333.46875)"><line stroke="#bcbd22" stroke-width="1.75" x1="-1" x2="178" y1="21.875" y2="21.875"/><circle stroke-width="1.5" r="6" stroke="#bcbd22" fill="var(--markmap-circle-open-bg)" cx="176" cy="21.875"/><foreignObject class="markmap-foreign" x="8" y="0" style="opacity: 1;" width="160" height="21"><div xmlns="http://www.w3.org/1999/xhtml"><div xmlns="http://www.w3.org/1999/xhtml"><strong>维生素 B₂（核黄素）</strong>   </div></div></foreignObject></g><g data-depth="3" data-path="1.14.15" class="markmap-node" transform="translate(581, -273.71875)"><line stroke="#1f77b4" stroke-width="1.375" x1="-1" x2="221" y1="21.6875" y2="21.6875"/><foreignObject class="markmap-foreign" x="8" y="0" style="opacity: 1;" width="203" height="21"><div xmlns="http://www.w3.org/1999/xhtml"><div xmlns="http://www.w3.org/1999/xhtml">活性形式 -&gt; <strong>NAD⁺</strong>、<strong>NADP⁺</strong>   </div></div></foreignObject></g><g data-depth="3" data-path="1.14.16" class="markmap-node" transform="translate(581, -246.34375)"><line stroke="#ff7f0e" stroke-width="1.375" x1="-1" x2="327" y1="21.6875" y2="21.6875"/><foreignObject class="markmap-foreign" x="8" y="0" style="opacity: 1;" width="309" height="21"><div xmlns="http://www.w3.org/1999/xhtml"><div xmlns="http://www.w3.org/1999/xhtml">辅酶功能 -&gt; 不需氧脱氢酶的<strong>辅酶</strong> -&gt; 传递<strong>氢</strong>   </div></div></foreignObject></g><g data-depth="3" data-path="1.14.17" class="markmap-node" transform="translate(581, -218.96875)"><line stroke="#2ca02c" stroke-width="1.375" x1="-1" x2="375" y1="21.6875" y2="21.6875"/><foreignObject class="markmap-foreign" x="8" y="0" style="opacity: 1;" width="357" height="21"><div xmlns="http://www.w3.org/1999/xhtml"><div xmlns="http://www.w3.org/1999/xhtml">缺乏症 -&gt; <strong>糙皮病（赖皮病）</strong> -&gt; 皮炎、腹泻、痴呆   </div></div></foreignObject></g><g data-depth="2" data-path="1.14" class="markmap-node" transform="translate(251, -246.34375)"><line stroke="#17becf" stroke-width="1.75" x1="-1" x2="252" y1="21.875" y2="21.875"/><circle stroke-width="1.5" r="6" stroke="#17becf" fill="var(--markmap-circle-open-bg)" cx="250" cy="21.875"/><foreignObject class="markmap-foreign" x="8" y="0" style="opacity: 1;" width="234" height="21"><div xmlns="http://www.w3.org/1999/xhtml"><div xmlns="http://www.w3.org/1999/xhtml"><strong>维生素 PP（尼克酸/尼克酰胺）</strong>   </div></div></foreignObject></g><g data-depth="3" data-path="1.18.19" class="markmap-node" transform="translate(561, -186.59375)"><line stroke="#9467bd" stroke-width="1.375" x1="-1" x2="290" y1="21.6875" y2="21.6875"/><foreignObject class="markmap-foreign" x="8" y="0" style="opacity: 1;" width="272" height="21"><div xmlns="http://www.w3.org/1999/xhtml"><div xmlns="http://www.w3.org/1999/xhtml">活性形式 -&gt; <strong>磷酸吡哆醛</strong>、<strong>磷酸吡哆胺</strong>   </div></div></foreignObject></g><g data-depth="3" data-path="1.18.20" class="markmap-node" transform="translate(561, -159.21875)"><line stroke="#8c564b" stroke-width="1.375" x1="-1" x2="649" y1="21.6875" y2="21.6875"/><foreignObject class="markmap-foreign" x="8" y="0" style="opacity: 1;" width="631" height="21"><div xmlns="http://www.w3.org/1999/xhtml"><div xmlns="http://www.w3.org/1999/xhtml">辅酶功能 -&gt; 氨基酸<strong>转氨酶</strong>和<strong>脱羧酶</strong>的辅酶 -&gt; <strong>ALA合酶</strong>的辅酶 -&gt; 同型半胱氨酸代谢酶辅酶   </div></div></foreignObject></g><g data-depth="3" data-path="1.18.21" class="markmap-node" transform="translate(561, -131.84375)"><line stroke="#e377c2" stroke-width="1.375" x1="-1" x2="482" y1="21.6875" y2="21.6875"/><foreignObject class="markmap-foreign" x="8" y="0" style="opacity: 1;" width="464" height="21"><div xmlns="http://www.w3.org/1999/xhtml"><div xmlns="http://www.w3.org/1999/xhtml">缺乏症 -&gt; 少见（低血色素小细胞性贫血、高同型半胱氨酸血症）   </div></div></foreignObject></g><g data-depth="2" data-path="1.18" class="markmap-node" transform="translate(251, -159.21875)"><line stroke="#d62728" stroke-width="1.75" x1="-1" x2="232" y1="21.875" y2="21.875"/><circle stroke-width="1.5" r="6" stroke="#d62728" fill="var(--markmap-circle-open-bg)" cx="230" cy="21.875"/><foreignObject class="markmap-foreign" x="8" y="0" style="opacity: 1;" width="214" height="21"><div xmlns="http://www.w3.org/1999/xhtml"><div xmlns="http://www.w3.org/1999/xhtml"><strong>维生素 B₆（吡哆醛/吡哆胺）</strong>   </div></div></foreignObject></g><g data-depth="3" data-path="1.22.23" class="markmap-node" transform="translate(470, -99.46875)"><line stroke="#bcbd22" stroke-width="1.375" x1="-1" x2="385" y1="21.6875" y2="21.6875"/><foreignObject class="markmap-foreign" x="8" y="0" style="opacity: 1;" width="367" height="21"><div xmlns="http://www.w3.org/1999/xhtml"><div xmlns="http://www.w3.org/1999/xhtml">活性形式 -&gt; <strong>CoA</strong>（辅酶A）、<strong>ACP</strong>（酰基载体蛋白）   </div></div></foreignObject></g><g data-depth="3" data-path="1.22.24" class="markmap-node" transform="translate(470, -72.09375)"><line stroke="#7f7f7f" stroke-width="1.375" x1="-1" x2="311" y1="21.6875" y2="21.6875"/><foreignObject class="markmap-foreign" x="8" y="0" style="opacity: 1;" width="293" height="21"><div xmlns="http://www.w3.org/1999/xhtml"><div xmlns="http://www.w3.org/1999/xhtml">辅酶功能 -&gt; 酰基转移酶辅酶 -&gt; 传递<strong>酰基</strong>   </div></div></foreignObject></g><g data-depth="3" data-path="1.22.25" class="markmap-node" transform="translate(470, -44.71875)"><line stroke="#bcbd22" stroke-width="1.375" x1="-1" x2="130" y1="21.6875" y2="21.6875"/><foreignObject class="markmap-foreign" x="8" y="0" style="opacity: 1;" width="112" height="21"><div xmlns="http://www.w3.org/1999/xhtml"><div xmlns="http://www.w3.org/1999/xhtml">缺乏症 -&gt; 少见   </div></div></foreignObject></g><g data-depth="2" data-path="1.22" class="markmap-node" transform="translate(251, -72.09375)"><line stroke="#7f7f7f" stroke-width="1.75" x1="-1" x2="141" y1="21.875" y2="21.875"/><circle stroke-width="1.5" r="6" stroke="#7f7f7f" fill="var(--markmap-circle-open-bg)" cx="139" cy="21.875"/><foreignObject class="markmap-foreign" x="8" y="0" style="opacity: 1;" width="123" height="21"><div xmlns="http://www.w3.org/1999/xhtml"><div xmlns="http://www.w3.org/1999/xhtml"><strong>泛酸（遍多酸）</strong>   </div></div></foreignObject></g><g data-depth="3" data-path="1.26.27" class="markmap-node" transform="translate(522, -12.34375)"><line stroke="#1f77b4" stroke-width="1.375" x1="-1" x2="322" y1="21.6875" y2="21.6875"/><foreignObject class="markmap-foreign" x="8" y="0" style="opacity: 1;" width="304" height="21"><div xmlns="http://www.w3.org/1999/xhtml"><div xmlns="http://www.w3.org/1999/xhtml">活性形式 -&gt; <strong>生物素</strong>（本身就是活性形式）   </div></div></foreignObject></g><g data-depth="3" data-path="1.26.28" class="markmap-node" transform="translate(522, 15.03125)"><line stroke="#ff7f0e" stroke-width="1.375" x1="-1" x2="315" y1="21.6875" y2="21.6875"/><foreignObject class="markmap-foreign" x="8" y="0" style="opacity: 1;" width="297" height="21"><div xmlns="http://www.w3.org/1999/xhtml"><div xmlns="http://www.w3.org/1999/xhtml">辅酶功能 -&gt; <strong>羧化酶</strong>辅基 -&gt; 参与 <strong>CO₂ 固定</strong>   </div></div></foreignObject></g><g data-depth="3" data-path="1.26.29" class="markmap-node" transform="translate(522, 42.40625)"><line stroke="#2ca02c" stroke-width="1.375" x1="-1" x2="130" y1="21.6875" y2="21.6875"/><foreignObject class="markmap-foreign" x="8" y="0" style="opacity: 1;" width="112" height="21"><div xmlns="http://www.w3.org/1999/xhtml"><div xmlns="http://www.w3.org/1999/xhtml">缺乏症 -&gt; 少见   </div></div></foreignObject></g><g data-depth="2" data-path="1.26" class="markmap-node" transform="translate(251, 15.03125)"><line stroke="#17becf" stroke-width="1.75" x1="-1" x2="193" y1="21.875" y2="21.875"/><circle stroke-width="1.5" r="6" stroke="#17becf" fill="var(--markmap-circle-open-bg)" cx="191" cy="21.875"/><foreignObject class="markmap-foreign" x="8" y="0" style="opacity: 1;" width="175" height="21"><div xmlns="http://www.w3.org/1999/xhtml"><div xmlns="http://www.w3.org/1999/xhtml"><strong>生物素（维生素H/B₇）</strong>   </div></div></foreignObject></g><g data-depth="3" data-path="1.30.31" class="markmap-node" transform="translate(390, 74.78125)"><line stroke="#d62728" stroke-width="1.375" x1="-1" x2="238" y1="21.6875" y2="21.6875"/><foreignObject class="markmap-foreign" x="8" y="0" style="opacity: 1;" width="220" height="21"><div xmlns="http://www.w3.org/1999/xhtml"><div xmlns="http://www.w3.org/1999/xhtml">活性形式 -&gt; <strong>FH₄</strong>（四氢叶酸）   </div></div></foreignObject></g><g data-depth="3" data-path="1.30.32" class="markmap-node" transform="translate(390, 102.15625)"><line stroke="#9467bd" stroke-width="1.375" x1="-1" x2="620" y1="21.6875" y2="21.6875"/><foreignObject class="markmap-foreign" x="8" y="0" style="opacity: 1;" width="602" height="21"><div xmlns="http://www.w3.org/1999/xhtml"><div xmlns="http://www.w3.org/1999/xhtml">辅酶功能 -&gt; <strong>一碳单位</strong>载体 -&gt; 一碳单位转移酶辅酶 -&gt; 参与嘌呤和胸腺嘧啶核苷酸合成   </div></div></foreignObject></g><g data-depth="3" data-path="1.30.33" class="markmap-node" transform="translate(390, 129.53125)"><line stroke="#8c564b" stroke-width="1.375" x1="-1" x2="235" y1="21.6875" y2="21.6875"/><foreignObject class="markmap-foreign" x="8" y="0" style="opacity: 1;" width="217" height="21"><div xmlns="http://www.w3.org/1999/xhtml"><div xmlns="http://www.w3.org/1999/xhtml">N⁵、N¹⁰ 是一碳单位结合位点   </div></div></foreignObject></g><g data-depth="3" data-path="1.30.34" class="markmap-node" transform="translate(390, 156.90625)"><line stroke="#d62728" stroke-width="1.375" x1="-1" x2="620" y1="21.6875" y2="21.6875"/><foreignObject class="markmap-foreign" x="8" y="0" style="opacity: 1;" width="602" height="21"><div xmlns="http://www.w3.org/1999/xhtml"><div xmlns="http://www.w3.org/1999/xhtml">缺乏症 -&gt; <strong>巨幼红细胞贫血</strong> -&gt; 高同型半胱氨酸血症 -&gt; 孕妇：胎儿脊柱裂和<strong>神经管缺陷</strong>   </div></div></foreignObject></g><g data-depth="2" data-path="1.30" class="markmap-node" transform="translate(251, 115.84375)"><line stroke="#2ca02c" stroke-width="1.75" x1="-1" x2="61" y1="21.875" y2="21.875"/><circle stroke-width="1.5" r="6" stroke="#2ca02c" fill="var(--markmap-circle-open-bg)" cx="59" cy="21.875"/><foreignObject class="markmap-foreign" x="8" y="0" style="opacity: 1;" width="43" height="21"><div xmlns="http://www.w3.org/1999/xhtml"><div xmlns="http://www.w3.org/1999/xhtml"><strong>叶酸</strong>   </div></div></foreignObject></g><g data-depth="3" data-path="1.35.36" class="markmap-node" transform="translate(514, 189.28125)"><line stroke="#9467bd" stroke-width="1.375" x1="-1" x2="342" y1="21.6875" y2="21.6875"/><foreignObject class="markmap-foreign" x="8" y="0" style="opacity: 1;" width="324" height="21"><div xmlns="http://www.w3.org/1999/xhtml"><div xmlns="http://www.w3.org/1999/xhtml">活性形式 -&gt; <strong>甲基钴胺素</strong>、<strong>5'-脱氧腺苷钴胺素</strong>   </div></div></foreignObject></g><g data-depth="3" data-path="1.35.37" class="markmap-node" transform="translate(514, 216.65625)"><line stroke="#8c564b" stroke-width="1.375" x1="-1" x2="688" y1="21.6875" y2="21.6875"/><foreignObject class="markmap-foreign" x="8" y="0" style="opacity: 1;" width="670" height="21"><div xmlns="http://www.w3.org/1999/xhtml"><div xmlns="http://www.w3.org/1999/xhtml">辅酶功能 -&gt; <strong>甲硫氨酸合成酶</strong>辅酶（同型半胱氨酸→甲硫氨酸）-&gt; <strong>L-甲基丙二酰CoA变位酶</strong>辅酶   </div></div></foreignObject></g><g data-depth="3" data-path="1.35.38" class="markmap-node" transform="translate(514, 244.03125)"><line stroke="#e377c2" stroke-width="1.375" x1="-1" x2="426" y1="21.6875" y2="21.6875"/><foreignObject class="markmap-foreign" x="8" y="0" style="opacity: 1;" width="408" height="21"><div xmlns="http://www.w3.org/1999/xhtml"><div xmlns="http://www.w3.org/1999/xhtml">特点 -&gt; 唯一含<strong>金属元素（钴）</strong> 的维生素 -&gt; 不存在于植物   </div></div></foreignObject></g><g data-depth="3" data-path="1.35.39" class="markmap-node" transform="translate(514, 271.40625)"><line stroke="#7f7f7f" stroke-width="1.375" x1="-1" x2="375" y1="21.6875" y2="21.6875"/><foreignObject class="markmap-foreign" x="8" y="0" style="opacity: 1;" width="357" height="21"><div xmlns="http://www.w3.org/1999/xhtml"><div xmlns="http://www.w3.org/1999/xhtml">缺乏症 -&gt; <strong>巨幼红细胞贫血</strong> -&gt; 高同型半胱氨酸血症   </div></div></foreignObject></g><g data-depth="2" data-path="1.35" class="markmap-node" transform="translate(251, 230.34375)"><line stroke="#d62728" stroke-width="1.75" x1="-1" x2="185" y1="21.875" y2="21.875"/><circle stroke-width="1.5" r="6" stroke="#d62728" fill="var(--markmap-circle-open-bg)" cx="183" cy="21.875"/><foreignObject class="markmap-foreign" x="8" y="0" style="opacity: 1;" width="167" height="21"><div xmlns="http://www.w3.org/1999/xhtml"><div xmlns="http://www.w3.org/1999/xhtml"><strong>维生素 B₁₂（钴胺素）</strong>   </div></div></foreignObject></g><g data-depth="3" data-path="1.40.41" class="markmap-node" transform="translate(516, 303.78125)"><line stroke="#17becf" stroke-width="1.375" x1="-1" x2="352" y1="21.6875" y2="21.6875"/><foreignObject class="markmap-foreign" x="8" y="0" style="opacity: 1;" width="334" height="21"><div xmlns="http://www.w3.org/1999/xhtml"><div xmlns="http://www.w3.org/1999/xhtml">活性形式 -&gt; <strong>L-抗坏血酸</strong>（本身就是活性形式）   </div></div></foreignObject></g><g data-depth="3" data-path="1.40.42" class="markmap-node" transform="translate(516, 331.15625)"><line stroke="#1f77b4" stroke-width="1.375" x1="-1" x2="632" y1="21.6875" y2="21.6875"/><foreignObject class="markmap-foreign" x="8" y="0" style="opacity: 1;" width="614" height="21"><div xmlns="http://www.w3.org/1999/xhtml"><div xmlns="http://www.w3.org/1999/xhtml">辅酶功能 -&gt; 羟化酶辅酶（如<strong>脯氨酸羟化酶</strong>、<strong>赖氨酸羟化酶</strong>）-&gt; <strong>抗氧化剂</strong> -&gt; 增强<strong>免疫力</strong>   </div></div></foreignObject></g><g data-depth="3" data-path="1.40.43" class="markmap-node" transform="translate(516, 358.53125)"><line stroke="#ff7f0e" stroke-width="1.375" x1="-1" x2="109" y1="21.6875" y2="21.6875"/><foreignObject class="markmap-foreign" x="8" y="0" style="opacity: 1;" width="91" height="21"><div xmlns="http://www.w3.org/1999/xhtml"><div xmlns="http://www.w3.org/1999/xhtml">对<strong>热不稳定</strong>   </div></div></foreignObject></g><g data-depth="3" data-path="1.40.44" class="markmap-node" transform="translate(516, 385.90625)"><line stroke="#2ca02c" stroke-width="1.375" x1="-1" x2="320" y1="21.6875" y2="21.6875"/><foreignObject class="markmap-foreign" x="8" y="0" style="opacity: 1;" width="302" height="21"><div xmlns="http://www.w3.org/1999/xhtml"><div xmlns="http://www.w3.org/1999/xhtml">C₂ 和 C₃ 羟基可氧化脱氢 ⇌ 脱氢抗坏血酸   </div></div></foreignObject></g><g data-depth="3" data-path="1.40.45" class="markmap-node" transform="translate(516, 413.28125)"><line stroke="#d62728" stroke-width="1.375" x1="-1" x2="210" y1="21.6875" y2="21.6875"/><foreignObject class="markmap-foreign" x="8" y="0" style="opacity: 1;" width="192" height="21"><div xmlns="http://www.w3.org/1999/xhtml"><div xmlns="http://www.w3.org/1999/xhtml">缺乏症 -&gt; <strong>坏血病(scurvy)</strong>   </div></div></foreignObject></g><g data-depth="2" data-path="1.40" class="markmap-node" transform="translate(251, 358.53125)"><line stroke="#bcbd22" stroke-width="1.75" x1="-1" x2="187" y1="21.875" y2="21.875"/><circle stroke-width="1.5" r="6" stroke="#bcbd22" fill="var(--markmap-circle-open-bg)" cx="185" cy="21.875"/><foreignObject class="markmap-foreign" x="8" y="0" style="opacity: 1;" width="169" height="21"><div xmlns="http://www.w3.org/1999/xhtml"><div xmlns="http://www.w3.org/1999/xhtml"><strong>维生素 C（抗坏血酸）</strong>   </div></div></foreignObject></g><g data-depth="3" data-path="1.46.47" class="markmap-node" transform="translate(454, 445.65625)"><line stroke="#8c564b" stroke-width="1.375" x1="-1" x2="193" y1="21.6875" y2="21.6875"/><foreignObject class="markmap-foreign" x="8" y="0" style="opacity: 1;" width="175" height="21"><div xmlns="http://www.w3.org/1999/xhtml"><div xmlns="http://www.w3.org/1999/xhtml"><strong>VitA</strong> -&gt; 视黄醛（视觉）   </div></div></foreignObject></g><g data-depth="3" data-path="1.46.48" class="markmap-node" transform="translate(454, 473.03125)"><line stroke="#bcbd22" stroke-width="1.375" x1="-1" x2="178" y1="21.6875" y2="21.6875"/><foreignObject class="markmap-foreign" x="8" y="0" style="opacity: 1;" width="160" height="21"><div xmlns="http://www.w3.org/1999/xhtml"><div xmlns="http://www.w3.org/1999/xhtml"><strong>VitD</strong> -&gt; 钙磷代谢调节   </div></div></foreignObject></g><g data-depth="3" data-path="1.46.49" class="markmap-node" transform="translate(454, 500.40625)"><line stroke="#17becf" stroke-width="1.375" x1="-1" x2="193" y1="21.6875" y2="21.6875"/><foreignObject class="markmap-foreign" x="8" y="0" style="opacity: 1;" width="175" height="21"><div xmlns="http://www.w3.org/1999/xhtml"><div xmlns="http://www.w3.org/1999/xhtml"><strong>VitE</strong> -&gt; 抗氧化、生育酚   </div></div></foreignObject></g><g data-depth="3" data-path="1.46.50" class="markmap-node" transform="translate(454, 527.78125)"><line stroke="#9467bd" stroke-width="1.375" x1="-1" x2="304" y1="21.6875" y2="21.6875"/><foreignObject class="markmap-foreign" x="8" y="0" style="opacity: 1;" width="286" height="21"><div xmlns="http://www.w3.org/1999/xhtml"><div xmlns="http://www.w3.org/1999/xhtml"><strong>VitK</strong> -&gt; 凝血因子合成（γ-羧化酶辅酶）   </div></div></foreignObject></g><g data-depth="2" data-path="1.46" class="markmap-node" transform="translate(251, 486.71875)"><line stroke="#9467bd" stroke-width="1.75" x1="-1" x2="125" y1="21.875" y2="21.875"/><circle stroke-width="1.5" r="6" stroke="#9467bd" fill="var(--markmap-circle-open-bg)" cx="123" cy="21.875"/><foreignObject class="markmap-foreign" x="8" y="0" style="opacity: 1;" width="107" height="21"><div xmlns="http://www.w3.org/1999/xhtml"><div xmlns="http://www.w3.org/1999/xhtml"><strong>脂溶性维生素</strong>   </div></div></foreignObject></g><g data-depth="1" data-path="1" class="markmap-node" transform="translate(0, -10.5)"><line stroke="#1f77b4" stroke-width="2.5" x1="-1" x2="173" y1="22.25" y2="22.25"/><circle stroke-width="1.5" r="6" stroke="#1f77b4" fill="var(--markmap-circle-open-bg)" cx="171" cy="22.25"/><foreignObject class="markmap-foreign" x="8" y="0" style="opacity: 1;" width="155" height="21"><div xmlns="http://www.w3.org/1999/xhtml"><div xmlns="http://www.w3.org/1999/xhtml">维生素与对应的辅酶   </div></div></foreignObject></g></g></svg>