<svg xmlns="http://www.w3.org/2000/svg" class="w-full h-full leading-none markmap mm-7aew7z-1" style=""><style>.markmap{--markmap-max-width: 9999px;--markmap-a-color: #0097e6;--markmap-a-hover-color: #00a8ff;--markmap-code-bg: #f0f0f0;--markmap-code-color: #555;--markmap-highlight-bg: #ffeaa7;--markmap-table-border: 1px solid currentColor;--markmap-font: 300 16px/20px sans-serif;--markmap-circle-open-bg: #fff;--markmap-text-color: #333;--markmap-highlight-node-bg: #ff02;font:var(--markmap-font);color:var(--markmap-text-color)}.markmap-link{fill:none}.markmap-node&gt;circle{cursor:pointer}.markmap-foreign{display:inline-block}.markmap-foreign p{margin:0}.markmap-foreign a{color:var(--markmap-a-color)}.markmap-foreign a:hover{color:var(--markmap-a-hover-color)}.markmap-foreign code{padding:.25em;font-size:calc(1em - 2px);color:var(--markmap-code-color);background-color:var(--markmap-code-bg);border-radius:2px}.markmap-foreign pre{margin:0}.markmap-foreign pre&gt;code{display:block}.markmap-foreign del{text-decoration:line-through}.markmap-foreign em{font-style:italic}.markmap-foreign strong{font-weight:700}.markmap-foreign mark{background:var(--markmap-highlight-bg)}.markmap-foreign table,.markmap-foreign th,.markmap-foreign td{border-collapse:collapse;border:var(--markmap-table-border)}.markmap-foreign img{display:inline-block}.markmap-foreign svg{fill:currentColor}.markmap-foreign&gt;div{width:var(--markmap-max-width);text-align:left}.markmap-foreign&gt;div&gt;div{display:inline-block}.markmap-highlight rect{fill:var(--markmap-highlight-node-bg)}.markmap-dark .markmap{--markmap-code-bg: #1a1b26;--markmap-code-color: #ddd;--markmap-circle-open-bg: #444;--markmap-text-color: #eee}</style><g transform="translate(31.09838345104515,386.1762558950358) scale(0.4302595105700048)"><path class="markmap-link" data-depth="4" data-path="1.2.4.5" d="M917,-286.984C957,-286.984,957,-300.672,997,-300.672" stroke-width="1.1875" stroke="rgb(127, 127, 127)"/><path class="markmap-link" data-depth="4" data-path="1.2.4.6" d="M917,-286.984C957,-286.984,957,-273.484,997,-273.484" stroke-width="1.1875" stroke="rgb(188, 189, 34)"/><path class="markmap-link" data-depth="3" data-path="1.2.3" d="M486,-309.781C526,-309.781,526,-332.953,566,-332.953" stroke-width="1.375" stroke="rgb(148, 103, 189)"/><path class="markmap-link" data-depth="3" data-path="1.2.4" d="M486,-309.781C526,-309.781,526,-286.984,566,-286.984" stroke-width="1.375" stroke="rgb(140, 86, 75)"/><path class="markmap-link" data-depth="4" data-path="1.7.8.9" d="M903,-214.016C943,-214.016,943,-241.297,983,-241.297" stroke-width="1.1875" stroke="rgb(255, 127, 14)"/><path class="markmap-link" data-depth="4" data-path="1.7.8.10" d="M903,-214.016C943,-214.016,943,-214.109,983,-214.109" stroke-width="1.1875" stroke="rgb(44, 160, 44)"/><path class="markmap-link" data-depth="4" data-path="1.7.8.11" d="M903,-214.016C943,-214.016,943,-186.922,983,-186.922" stroke-width="1.1875" stroke="rgb(214, 39, 40)"/><path class="markmap-link" data-depth="3" data-path="1.7.8" d="M486,-184.141C526,-184.141,526,-214.016,566,-214.016" stroke-width="1.375" stroke="rgb(31, 119, 180)"/><path class="markmap-link" data-depth="3" data-path="1.7.12" d="M486,-184.141C526,-184.141,526,-154.641,566,-154.641" stroke-width="1.375" stroke="rgb(148, 103, 189)"/><path class="markmap-link" data-depth="4" data-path="1.13.14.15" d="M748,-81.484C788,-81.484,788,-122.359,828,-122.359" stroke-width="1.1875" stroke="rgb(127, 127, 127)"/><path class="markmap-link" data-depth="4" data-path="1.13.14.16" d="M748,-81.484C788,-81.484,788,-95.172,828,-95.172" stroke-width="1.1875" stroke="rgb(188, 189, 34)"/><path class="markmap-link" data-depth="4" data-path="1.13.14.17" d="M748,-81.484C788,-81.484,788,-67.984,828,-67.984" stroke-width="1.1875" stroke="rgb(23, 190, 207)"/><path class="markmap-link" data-depth="4" data-path="1.13.14.18" d="M748,-81.484C788,-81.484,788,-40.797,828,-40.797" stroke-width="1.1875" stroke="rgb(31, 119, 180)"/><path class="markmap-link" data-depth="4" data-path="1.13.19.20" d="M800,32.266C840,32.266,840,-8.609,880,-8.609" stroke-width="1.1875" stroke="rgb(44, 160, 44)"/><path class="markmap-link" data-depth="4" data-path="1.13.19.21" d="M800,32.266C840,32.266,840,18.578,880,18.578" stroke-width="1.1875" stroke="rgb(214, 39, 40)"/><path class="markmap-link" data-depth="4" data-path="1.13.19.22" d="M800,32.266C840,32.266,840,45.766,880,45.766" stroke-width="1.1875" stroke="rgb(148, 103, 189)"/><path class="markmap-link" data-depth="4" data-path="1.13.19.23" d="M800,32.266C840,32.266,840,72.953,880,72.953" stroke-width="1.1875" stroke="rgb(140, 86, 75)"/><path class="markmap-link" data-depth="3" data-path="1.13.14" d="M518,-24.422C558,-24.422,558,-81.484,598,-81.484" stroke-width="1.375" stroke="rgb(227, 119, 194)"/><path class="markmap-link" data-depth="3" data-path="1.13.19" d="M518,-24.422C558,-24.422,558,32.266,598,32.266" stroke-width="1.375" stroke="rgb(255, 127, 14)"/><path class="markmap-link" data-depth="3" data-path="1.24.25" d="M438,119.578C478,119.578,478,64.641,518,64.641" stroke-width="1.375" stroke="rgb(127, 127, 127)"/><path class="markmap-link" data-depth="3" data-path="1.24.26" d="M438,119.578C478,119.578,478,92.016,518,92.016" stroke-width="1.375" stroke="rgb(188, 189, 34)"/><path class="markmap-link" data-depth="3" data-path="1.24.27" d="M438,119.578C478,119.578,478,119.391,518,119.391" stroke-width="1.375" stroke="rgb(23, 190, 207)"/><path class="markmap-link" data-depth="3" data-path="1.24.28" d="M438,119.578C478,119.578,478,146.766,518,146.766" stroke-width="1.375" stroke="rgb(31, 119, 180)"/><path class="markmap-link" data-depth="3" data-path="1.24.29" d="M438,119.578C478,119.578,478,174.141,518,174.141" stroke-width="1.375" stroke="rgb(255, 127, 14)"/><path class="markmap-link" data-depth="4" data-path="1.30.33.34" d="M609,293.453C649,293.453,649,266.172,689,266.172" stroke-width="1.1875" stroke="rgb(227, 119, 194)"/><path class="markmap-link" data-depth="4" data-path="1.30.33.35" d="M609,293.453C649,293.453,649,293.359,689,293.359" stroke-width="1.1875" stroke="rgb(127, 127, 127)"/><path class="markmap-link" data-depth="4" data-path="1.30.33.36" d="M609,293.453C649,293.453,649,320.547,689,320.547" stroke-width="1.1875" stroke="rgb(188, 189, 34)"/><path class="markmap-link" data-depth="4" data-path="1.30.37.38" d="M673,366.422C713,366.422,713,352.734,753,352.734" stroke-width="1.1875" stroke="rgb(31, 119, 180)"/><path class="markmap-link" data-depth="4" data-path="1.30.37.39" d="M673,366.422C713,366.422,713,379.922,753,379.922" stroke-width="1.1875" stroke="rgb(255, 127, 14)"/><path class="markmap-link" data-depth="4" data-path="1.30.40.41" d="M689,412.203C729,412.203,729,412.109,769,412.109" stroke-width="1.1875" stroke="rgb(214, 39, 40)"/><path class="markmap-link" data-depth="4" data-path="1.30.42.43" d="M609,458.172C649,458.172,649,444.484,689,444.484" stroke-width="1.1875" stroke="rgb(140, 86, 75)"/><path class="markmap-link" data-depth="4" data-path="1.30.42.44" d="M609,458.172C649,458.172,649,471.672,689,471.672" stroke-width="1.1875" stroke="rgb(227, 119, 194)"/><path class="markmap-link" data-depth="3" data-path="1.30.31" d="M406,332.531C446,332.531,446,206.516,486,206.516" stroke-width="1.375" stroke="rgb(214, 39, 40)"/><path class="markmap-link" data-depth="3" data-path="1.30.32" d="M406,332.531C446,332.531,446,233.891,486,233.891" stroke-width="1.375" stroke="rgb(148, 103, 189)"/><path class="markmap-link" data-depth="3" data-path="1.30.33" d="M406,332.531C446,332.531,446,293.453,486,293.453" stroke-width="1.375" stroke="rgb(140, 86, 75)"/><path class="markmap-link" data-depth="3" data-path="1.30.37" d="M406,332.531C446,332.531,446,366.422,486,366.422" stroke-width="1.375" stroke="rgb(23, 190, 207)"/><path class="markmap-link" data-depth="3" data-path="1.30.40" d="M406,332.531C446,332.531,446,412.203,486,412.203" stroke-width="1.375" stroke="rgb(44, 160, 44)"/><path class="markmap-link" data-depth="3" data-path="1.30.42" d="M406,332.531C446,332.531,446,458.172,486,458.172" stroke-width="1.375" stroke="rgb(148, 103, 189)"/><path class="markmap-link" data-depth="2" data-path="1.2" d="M203,11.75C243,11.75,243,-309.781,283,-309.781" stroke-width="1.75" stroke="rgb(255, 127, 14)"/><path class="markmap-link" data-depth="2" data-path="1.7" d="M203,11.75C243,11.75,243,-184.141,283,-184.141" stroke-width="1.75" stroke="rgb(23, 190, 207)"/><path class="markmap-link" data-depth="2" data-path="1.13" d="M203,11.75C243,11.75,243,-24.422,283,-24.422" stroke-width="1.75" stroke="rgb(140, 86, 75)"/><path class="markmap-link" data-depth="2" data-path="1.24" d="M203,11.75C243,11.75,243,119.578,283,119.578" stroke-width="1.75" stroke="rgb(227, 119, 194)"/><path class="markmap-link" data-depth="2" data-path="1.30" d="M203,11.75C243,11.75,243,332.531,283,332.531" stroke-width="1.75" stroke="rgb(44, 160, 44)"/><g class="markmap-highlight"/><g data-depth="3" data-path="1.2.3" class="markmap-node" transform="translate(566, -354.640625)"><line stroke="#9467bd" stroke-width="1.375" x1="-1" x2="375" y1="21.6875" y2="21.6875"/><foreignObject class="markmap-foreign" x="8" y="0" style="opacity: 1;" width="357" height="21"><div xmlns="http://www.w3.org/1999/xhtml"><div xmlns="http://www.w3.org/1999/xhtml"><strong>单纯酶</strong> -&gt; 仅由氨基酸残基组成 -&gt; 只有蛋白质部分   </div></div></foreignObject></g><g data-depth="4" data-path="1.2.4.5" class="markmap-node" transform="translate(997, -322.265625)"><line stroke="#7f7f7f" stroke-width="1.1875" x1="-1" x2="430" y1="21.59375" y2="21.59375"/><foreignObject class="markmap-foreign" x="8" y="0" style="opacity: 1;" width="412" height="21"><div xmlns="http://www.w3.org/1999/xhtml"><div xmlns="http://www.w3.org/1999/xhtml"><strong>酶蛋白(apoenzyme)</strong> -&gt; 决定<strong>反应特异性</strong> -&gt; 催化<strong>什么底物</strong>   </div></div></foreignObject></g><g data-depth="4" data-path="1.2.4.6" class="markmap-node" transform="translate(997, -295.078125)"><line stroke="#bcbd22" stroke-width="1.1875" x1="-1" x2="403" y1="21.59375" y2="21.59375"/><foreignObject class="markmap-foreign" x="8" y="0" style="opacity: 1;" width="385" height="21"><div xmlns="http://www.w3.org/1999/xhtml"><div xmlns="http://www.w3.org/1999/xhtml"><strong>辅助因子(cofactor)</strong> -&gt; 决定<strong>反应类型</strong> -&gt; 即<strong>酶催化类型</strong>   </div></div></foreignObject></g><g data-depth="3" data-path="1.2.4" class="markmap-node" transform="translate(566, -308.671875)"><line stroke="#8c564b" stroke-width="1.375" x1="-1" x2="353" y1="21.6875" y2="21.6875"/><circle stroke-width="1.5" r="6" stroke="#8c564b" fill="var(--markmap-circle-open-bg)" cx="351" cy="21.6875"/><foreignObject class="markmap-foreign" x="8" y="0" style="opacity: 1;" width="335" height="21"><div xmlns="http://www.w3.org/1999/xhtml"><div xmlns="http://www.w3.org/1999/xhtml"><strong>结合酶（缀合酶）</strong> -&gt; <strong>全酶</strong> = 酶蛋白 + 辅助因子   </div></div></foreignObject></g><g data-depth="2" data-path="1.2" class="markmap-node" transform="translate(283, -331.65625)"><line stroke="#ff7f0e" stroke-width="1.75" x1="-1" x2="205" y1="21.875" y2="21.875"/><circle stroke-width="1.5" r="6" stroke="#ff7f0e" fill="var(--markmap-circle-open-bg)" cx="203" cy="21.875"/><foreignObject class="markmap-foreign" x="8" y="0" style="opacity: 1;" width="187" height="21"><div xmlns="http://www.w3.org/1999/xhtml"><div xmlns="http://www.w3.org/1999/xhtml"><strong>酶的分类（按分子组成）</strong>   </div></div></foreignObject></g><g data-depth="4" data-path="1.7.8.9" class="markmap-node" transform="translate(983, -262.890625)"><line stroke="#ff7f0e" stroke-width="1.1875" x1="-1" x2="423" y1="21.59375" y2="21.59375"/><foreignObject class="markmap-foreign" x="8" y="0" style="opacity: 1;" width="405" height="21"><div xmlns="http://www.w3.org/1999/xhtml"><div xmlns="http://www.w3.org/1999/xhtml"><strong>金属酶</strong> -&gt; 金属离子与酶结合<strong>紧密</strong> -&gt; 如：<strong>超氧化物歧化酶</strong>   </div></div></foreignObject></g><g data-depth="4" data-path="1.7.8.10" class="markmap-node" transform="translate(983, -235.703125)"><line stroke="#2ca02c" stroke-width="1.1875" x1="-1" x2="423" y1="21.59375" y2="21.59375"/><foreignObject class="markmap-foreign" x="8" y="0" style="opacity: 1;" width="405" height="21"><div xmlns="http://www.w3.org/1999/xhtml"><div xmlns="http://www.w3.org/1999/xhtml"><strong>金属激活酶</strong> -&gt; 金属离子与酶结合<strong>不紧密</strong> -&gt; 如：<strong>己糖激酶</strong>   </div></div></foreignObject></g><g data-depth="4" data-path="1.7.8.11" class="markmap-node" transform="translate(983, -208.515625)"><line stroke="#d62728" stroke-width="1.1875" x1="-1" x2="508" y1="21.59375" y2="21.59375"/><foreignObject class="markmap-foreign" x="8" y="0" style="opacity: 1;" width="490" height="21"><div xmlns="http://www.w3.org/1999/xhtml"><div xmlns="http://www.w3.org/1999/xhtml">金属离子作用 -&gt; 传递电子 / 桥梁作用稳定构象 / 中和阴离子降低斥力   </div></div></foreignObject></g><g data-depth="3" data-path="1.7.8" class="markmap-node" transform="translate(566, -235.703125)"><line stroke="#1f77b4" stroke-width="1.375" x1="-1" x2="339" y1="21.6875" y2="21.6875"/><circle stroke-width="1.5" r="6" stroke="#1f77b4" fill="var(--markmap-circle-open-bg)" cx="337" cy="21.6875"/><foreignObject class="markmap-foreign" x="8" y="0" style="opacity: 1;" width="321" height="21"><div xmlns="http://www.w3.org/1999/xhtml"><div xmlns="http://www.w3.org/1999/xhtml"><strong>无机金属离子</strong> -&gt; 最常见的辅助因子 -&gt; 占 <strong>2/3</strong>   </div></div></foreignObject></g><g data-depth="3" data-path="1.7.12" class="markmap-node" transform="translate(566, -176.328125)"><line stroke="#9467bd" stroke-width="1.375" x1="-1" x2="503" y1="21.6875" y2="21.6875"/><foreignObject class="markmap-foreign" x="8" y="0" style="opacity: 1;" width="485" height="21"><div xmlns="http://www.w3.org/1999/xhtml"><div xmlns="http://www.w3.org/1999/xhtml"><strong>有机小分子化合物</strong> -&gt; 多为<strong>维生素</strong>或其衍生物 -&gt; 如醌类、卟啉衍生物   </div></div></foreignObject></g><g data-depth="2" data-path="1.7" class="markmap-node" transform="translate(283, -206.015625)"><line stroke="#17becf" stroke-width="1.75" x1="-1" x2="205" y1="21.875" y2="21.875"/><circle stroke-width="1.5" r="6" stroke="#17becf" fill="var(--markmap-circle-open-bg)" cx="203" cy="21.875"/><foreignObject class="markmap-foreign" x="8" y="0" style="opacity: 1;" width="187" height="21"><div xmlns="http://www.w3.org/1999/xhtml"><div xmlns="http://www.w3.org/1999/xhtml"><strong>辅助因子按化学本质分类</strong>   </div></div></foreignObject></g><g data-depth="4" data-path="1.13.14.15" class="markmap-node" transform="translate(828, -143.953125)"><line stroke="#7f7f7f" stroke-width="1.1875" x1="-1" x2="157" y1="21.59375" y2="21.59375"/><foreignObject class="markmap-foreign" x="8" y="0" style="opacity: 1;" width="139" height="21"><div xmlns="http://www.w3.org/1999/xhtml"><div xmlns="http://www.w3.org/1999/xhtml">与酶蛋白结合<strong>疏松</strong>   </div></div></foreignObject></g><g data-depth="4" data-path="1.13.14.16" class="markmap-node" transform="translate(828, -116.765625)"><line stroke="#bcbd22" stroke-width="1.1875" x1="-1" x2="205" y1="21.59375" y2="21.59375"/><foreignObject class="markmap-foreign" x="8" y="0" style="opacity: 1;" width="187" height="21"><div xmlns="http://www.w3.org/1999/xhtml"><div xmlns="http://www.w3.org/1999/xhtml">可用<strong>透析或超滤</strong>方法除去   </div></div></foreignObject></g><g data-depth="4" data-path="1.13.14.17" class="markmap-node" transform="translate(828, -89.578125)"><line stroke="#17becf" stroke-width="1.1875" x1="-1" x2="285" y1="21.59375" y2="21.59375"/><foreignObject class="markmap-foreign" x="8" y="0" style="opacity: 1;" width="267" height="21"><div xmlns="http://www.w3.org/1999/xhtml"><div xmlns="http://www.w3.org/1999/xhtml">作为辅助底物接受质子或基团后离开   </div></div></foreignObject></g><g data-depth="4" data-path="1.13.14.18" class="markmap-node" transform="translate(828, -62.390625)"><line stroke="#1f77b4" stroke-width="1.1875" x1="-1" x2="184" y1="21.59375" y2="21.59375"/><foreignObject class="markmap-foreign" x="8" y="0" style="opacity: 1;" width="166" height="21"><div xmlns="http://www.w3.org/1999/xhtml"><div xmlns="http://www.w3.org/1999/xhtml">实例：<strong>NAD⁺</strong>、<strong>NADP⁺</strong>   </div></div></foreignObject></g><g data-depth="3" data-path="1.13.14" class="markmap-node" transform="translate(598, -103.171875)"><line stroke="#e377c2" stroke-width="1.375" x1="-1" x2="152" y1="21.6875" y2="21.6875"/><circle stroke-width="1.5" r="6" stroke="#e377c2" fill="var(--markmap-circle-open-bg)" cx="150" cy="21.6875"/><foreignObject class="markmap-foreign" x="8" y="0" style="opacity: 1;" width="134" height="21"><div xmlns="http://www.w3.org/1999/xhtml"><div xmlns="http://www.w3.org/1999/xhtml"><strong>辅酶(coenzyme)</strong>   </div></div></foreignObject></g><g data-depth="4" data-path="1.13.19.20" class="markmap-node" transform="translate(880, -30.203125)"><line stroke="#2ca02c" stroke-width="1.1875" x1="-1" x2="157" y1="21.59375" y2="21.59375"/><foreignObject class="markmap-foreign" x="8" y="0" style="opacity: 1;" width="139" height="21"><div xmlns="http://www.w3.org/1999/xhtml"><div xmlns="http://www.w3.org/1999/xhtml">与酶蛋白结合<strong>紧密</strong>   </div></div></foreignObject></g><g data-depth="4" data-path="1.13.19.21" class="markmap-node" transform="translate(880, -3.015625)"><line stroke="#d62728" stroke-width="1.1875" x1="-1" x2="189" y1="21.59375" y2="21.59375"/><foreignObject class="markmap-foreign" x="8" y="0" style="opacity: 1;" width="171" height="21"><div xmlns="http://www.w3.org/1999/xhtml"><div xmlns="http://www.w3.org/1999/xhtml"><strong>不能</strong>用透析或超滤除去   </div></div></foreignObject></g><g data-depth="4" data-path="1.13.19.22" class="markmap-node" transform="translate(880, 24.171875)"><line stroke="#9467bd" stroke-width="1.1875" x1="-1" x2="221" y1="21.59375" y2="21.59375"/><foreignObject class="markmap-foreign" x="8" y="0" style="opacity: 1;" width="203" height="21"><div xmlns="http://www.w3.org/1999/xhtml"><div xmlns="http://www.w3.org/1999/xhtml">反应中与酶蛋白不发生解离   </div></div></foreignObject></g><g data-depth="4" data-path="1.13.19.23" class="markmap-node" transform="translate(880, 51.359375)"><line stroke="#8c564b" stroke-width="1.1875" x1="-1" x2="158" y1="21.59375" y2="21.59375"/><foreignObject class="markmap-foreign" x="8" y="0" style="opacity: 1;" width="140" height="21"><div xmlns="http://www.w3.org/1999/xhtml"><div xmlns="http://www.w3.org/1999/xhtml">实例：<strong>FAD</strong>、<strong>FMN</strong>   </div></div></foreignObject></g><g data-depth="3" data-path="1.13.19" class="markmap-node" transform="translate(598, 10.578125)"><line stroke="#ff7f0e" stroke-width="1.375" x1="-1" x2="204" y1="21.6875" y2="21.6875"/><circle stroke-width="1.5" r="6" stroke="#ff7f0e" fill="var(--markmap-circle-open-bg)" cx="202" cy="21.6875"/><foreignObject class="markmap-foreign" x="8" y="0" style="opacity: 1;" width="186" height="21"><div xmlns="http://www.w3.org/1999/xhtml"><div xmlns="http://www.w3.org/1999/xhtml"><strong>辅基(prosthetic group)</strong>   </div></div></foreignObject></g><g data-depth="2" data-path="1.13" class="markmap-node" transform="translate(283, -46.296875)"><line stroke="#8c564b" stroke-width="1.75" x1="-1" x2="237" y1="21.875" y2="21.875"/><circle stroke-width="1.5" r="6" stroke="#8c564b" fill="var(--markmap-circle-open-bg)" cx="235" cy="21.875"/><foreignObject class="markmap-foreign" x="8" y="0" style="opacity: 1;" width="219" height="21"><div xmlns="http://www.w3.org/1999/xhtml"><div xmlns="http://www.w3.org/1999/xhtml"><strong>辅助因子按结合紧密程度分类</strong>   </div></div></foreignObject></g><g data-depth="3" data-path="1.24.25" class="markmap-node" transform="translate(518, 42.953125)"><line stroke="#7f7f7f" stroke-width="1.375" x1="-1" x2="194" y1="21.6875" y2="21.6875"/><foreignObject class="markmap-foreign" x="8" y="0" style="opacity: 1;" width="176" height="21"><div xmlns="http://www.w3.org/1999/xhtml"><div xmlns="http://www.w3.org/1999/xhtml"><strong>单体酶</strong> -&gt; 仅有三级结构   </div></div></foreignObject></g><g data-depth="3" data-path="1.24.26" class="markmap-node" transform="translate(518, 70.328125)"><line stroke="#bcbd22" stroke-width="1.375" x1="-1" x2="274" y1="21.6875" y2="21.6875"/><foreignObject class="markmap-foreign" x="8" y="0" style="opacity: 1;" width="256" height="21"><div xmlns="http://www.w3.org/1999/xhtml"><div xmlns="http://www.w3.org/1999/xhtml"><strong>寡聚酶</strong> -&gt; 多个亚基以<strong>非共价键</strong>连接   </div></div></foreignObject></g><g data-depth="3" data-path="1.24.27" class="markmap-node" transform="translate(518, 97.703125)"><line stroke="#17becf" stroke-width="1.375" x1="-1" x2="338" y1="21.6875" y2="21.6875"/><foreignObject class="markmap-foreign" x="8" y="0" style="opacity: 1;" width="320" height="21"><div xmlns="http://www.w3.org/1999/xhtml"><div xmlns="http://www.w3.org/1999/xhtml"><strong>多酶体系</strong> -&gt; 参与某一代谢途径的一组相关酶   </div></div></foreignObject></g><g data-depth="3" data-path="1.24.28" class="markmap-node" transform="translate(518, 125.078125)"><line stroke="#1f77b4" stroke-width="1.375" x1="-1" x2="354" y1="21.6875" y2="21.6875"/><foreignObject class="markmap-foreign" x="8" y="0" style="opacity: 1;" width="336" height="21"><div xmlns="http://www.w3.org/1999/xhtml"><div xmlns="http://www.w3.org/1999/xhtml"><strong>多酶复合物</strong> -&gt; 催化相关反应的酶彼此聚集结合   </div></div></foreignObject></g><g data-depth="3" data-path="1.24.29" class="markmap-node" transform="translate(518, 152.453125)"><line stroke="#ff7f0e" stroke-width="1.375" x1="-1" x2="392" y1="21.6875" y2="21.6875"/><foreignObject class="markmap-foreign" x="8" y="0" style="opacity: 1;" width="374" height="21"><div xmlns="http://www.w3.org/1999/xhtml"><div xmlns="http://www.w3.org/1999/xhtml"><strong>多功能酶/串联酶</strong> -&gt; 多种催化功能存在于<strong>一条多肽链</strong>   </div></div></foreignObject></g><g data-depth="2" data-path="1.24" class="markmap-node" transform="translate(283, 97.703125)"><line stroke="#e377c2" stroke-width="1.75" x1="-1" x2="157" y1="21.875" y2="21.875"/><circle stroke-width="1.5" r="6" stroke="#e377c2" fill="var(--markmap-circle-open-bg)" cx="155" cy="21.875"/><foreignObject class="markmap-foreign" x="8" y="0" style="opacity: 1;" width="139" height="21"><div xmlns="http://www.w3.org/1999/xhtml"><div xmlns="http://www.w3.org/1999/xhtml"><strong>酶按分子结构分类</strong>   </div></div></foreignObject></g><g data-depth="3" data-path="1.30.31" class="markmap-node" transform="translate(486, 184.828125)"><line stroke="#d62728" stroke-width="1.375" x1="-1" x2="338" y1="21.6875" y2="21.6875"/><foreignObject class="markmap-foreign" x="8" y="0" style="opacity: 1;" width="320" height="21"><div xmlns="http://www.w3.org/1999/xhtml"><div xmlns="http://www.w3.org/1999/xhtml"><strong>必需基团</strong> -&gt; 酶发挥催化活性<strong>必需的</strong>化学基团   </div></div></foreignObject></g><g data-depth="3" data-path="1.30.32" class="markmap-node" transform="translate(486, 212.203125)"><line stroke="#9467bd" stroke-width="1.375" x1="-1" x2="668" y1="21.6875" y2="21.6875"/><foreignObject class="markmap-foreign" x="8" y="0" style="opacity: 1;" width="650" height="21"><div xmlns="http://www.w3.org/1999/xhtml"><div xmlns="http://www.w3.org/1999/xhtml"><strong>活性中心</strong> -&gt; 必需基团在空间上彼此靠近 -&gt; 形成<strong>口袋或裂穴</strong> -&gt; 与底物特异结合并转化为产物   </div></div></foreignObject></g><g data-depth="4" data-path="1.30.33.34" class="markmap-node" transform="translate(689, 244.578125)"><line stroke="#e377c2" stroke-width="1.1875" x1="-1" x2="205" y1="21.59375" y2="21.59375"/><foreignObject class="markmap-foreign" x="8" y="0" style="opacity: 1;" width="187" height="21"><div xmlns="http://www.w3.org/1999/xhtml"><div xmlns="http://www.w3.org/1999/xhtml">只占酶总体积的<strong>一小部分</strong>   </div></div></foreignObject></g><g data-depth="4" data-path="1.30.33.35" class="markmap-node" transform="translate(689, 271.765625)"><line stroke="#7f7f7f" stroke-width="1.1875" x1="-1" x2="141" y1="21.59375" y2="21.59375"/><foreignObject class="markmap-foreign" x="8" y="0" style="opacity: 1;" width="123" height="21"><div xmlns="http://www.w3.org/1999/xhtml"><div xmlns="http://www.w3.org/1999/xhtml">是<strong>三维</strong>空间结构   </div></div></foreignObject></g><g data-depth="4" data-path="1.30.33.36" class="markmap-node" transform="translate(689, 298.953125)"><line stroke="#bcbd22" stroke-width="1.1875" x1="-1" x2="237" y1="21.59375" y2="21.59375"/><foreignObject class="markmap-foreign" x="8" y="0" style="opacity: 1;" width="219" height="21"><div xmlns="http://www.w3.org/1999/xhtml"><div xmlns="http://www.w3.org/1999/xhtml">辅助因子参与活性中心的形成   </div></div></foreignObject></g><g data-depth="3" data-path="1.30.33" class="markmap-node" transform="translate(486, 271.765625)"><line stroke="#8c564b" stroke-width="1.375" x1="-1" x2="125" y1="21.6875" y2="21.6875"/><circle stroke-width="1.5" r="6" stroke="#8c564b" fill="var(--markmap-circle-open-bg)" cx="123" cy="21.6875"/><foreignObject class="markmap-foreign" x="8" y="0" style="opacity: 1;" width="107" height="21"><div xmlns="http://www.w3.org/1999/xhtml"><div xmlns="http://www.w3.org/1999/xhtml">活性中心特点   </div></div></foreignObject></g><g data-depth="4" data-path="1.30.37.38" class="markmap-node" transform="translate(753, 331.140625)"><line stroke="#1f77b4" stroke-width="1.1875" x1="-1" x2="210" y1="21.59375" y2="21.59375"/><foreignObject class="markmap-foreign" x="8" y="0" style="opacity: 1;" width="192" height="21"><div xmlns="http://www.w3.org/1999/xhtml"><div xmlns="http://www.w3.org/1999/xhtml"><strong>结合基团</strong> -&gt; 与底物相结合   </div></div></foreignObject></g><g data-depth="4" data-path="1.30.37.39" class="markmap-node" transform="translate(753, 358.328125)"><line stroke="#ff7f0e" stroke-width="1.1875" x1="-1" x2="258" y1="21.59375" y2="21.59375"/><foreignObject class="markmap-foreign" x="8" y="0" style="opacity: 1;" width="240" height="21"><div xmlns="http://www.w3.org/1999/xhtml"><div xmlns="http://www.w3.org/1999/xhtml"><strong>催化基团</strong> -&gt; 催化底物转变成产物   </div></div></foreignObject></g><g data-depth="3" data-path="1.30.37" class="markmap-node" transform="translate(486, 344.734375)"><line stroke="#17becf" stroke-width="1.375" x1="-1" x2="189" y1="21.6875" y2="21.6875"/><circle stroke-width="1.5" r="6" stroke="#17becf" fill="var(--markmap-circle-open-bg)" cx="187" cy="21.6875"/><foreignObject class="markmap-foreign" x="8" y="0" style="opacity: 1;" width="171" height="21"><div xmlns="http://www.w3.org/1999/xhtml"><div xmlns="http://www.w3.org/1999/xhtml">活性中心内的必需基团   </div></div></foreignObject></g><g data-depth="4" data-path="1.30.40.41" class="markmap-node" transform="translate(769, 390.515625)"><line stroke="#d62728" stroke-width="1.1875" x1="-1" x2="306" y1="21.59375" y2="21.59375"/><foreignObject class="markmap-foreign" x="8" y="0" style="opacity: 1;" width="288" height="21"><div xmlns="http://www.w3.org/1999/xhtml"><div xmlns="http://www.w3.org/1999/xhtml"><strong>结构必需基团</strong> -&gt; 维持活性中心精确构象   </div></div></foreignObject></g><g data-depth="3" data-path="1.30.40" class="markmap-node" transform="translate(486, 390.515625)"><line stroke="#2ca02c" stroke-width="1.375" x1="-1" x2="205" y1="21.6875" y2="21.6875"/><circle stroke-width="1.5" r="6" stroke="#2ca02c" fill="var(--markmap-circle-open-bg)" cx="203" cy="21.6875"/><foreignObject class="markmap-foreign" x="8" y="0" style="opacity: 1;" width="187" height="21"><div xmlns="http://www.w3.org/1999/xhtml"><div xmlns="http://www.w3.org/1999/xhtml">活性中心以外的必需基团   </div></div></foreignObject></g><g data-depth="4" data-path="1.30.42.43" class="markmap-node" transform="translate(689, 422.890625)"><line stroke="#8c564b" stroke-width="1.1875" x1="-1" x2="255" y1="21.59375" y2="21.59375"/><foreignObject class="markmap-foreign" x="8" y="0" style="opacity: 1;" width="237" height="21"><div xmlns="http://www.w3.org/1999/xhtml"><div xmlns="http://www.w3.org/1999/xhtml">催化基团 -&gt; <strong>35位Glu</strong>、<strong>52位Asp</strong>   </div></div></foreignObject></g><g data-depth="4" data-path="1.30.42.44" class="markmap-node" transform="translate(689, 450.078125)"><line stroke="#e377c2" stroke-width="1.1875" x1="-1" x2="273" y1="21.59375" y2="21.59375"/><foreignObject class="markmap-foreign" x="8" y="0" style="opacity: 1;" width="255" height="21"><div xmlns="http://www.w3.org/1999/xhtml"><div xmlns="http://www.w3.org/1999/xhtml">结合基团 -&gt; <strong>101位Asp</strong>、<strong>108位Trp</strong>   </div></div></foreignObject></g><g data-depth="3" data-path="1.30.42" class="markmap-node" transform="translate(486, 436.484375)"><line stroke="#9467bd" stroke-width="1.375" x1="-1" x2="125" y1="21.6875" y2="21.6875"/><circle stroke-width="1.5" r="6" stroke="#9467bd" fill="var(--markmap-circle-open-bg)" cx="123" cy="21.6875"/><foreignObject class="markmap-foreign" x="8" y="0" style="opacity: 1;" width="107" height="21"><div xmlns="http://www.w3.org/1999/xhtml"><div xmlns="http://www.w3.org/1999/xhtml">实例：<strong>溶菌酶</strong>   </div></div></foreignObject></g><g data-depth="2" data-path="1.30" class="markmap-node" transform="translate(283, 310.65625)"><line stroke="#2ca02c" stroke-width="1.75" x1="-1" x2="125" y1="21.875" y2="21.875"/><circle stroke-width="1.5" r="6" stroke="#2ca02c" fill="var(--markmap-circle-open-bg)" cx="123" cy="21.875"/><foreignObject class="markmap-foreign" x="8" y="0" style="opacity: 1;" width="107" height="21"><div xmlns="http://www.w3.org/1999/xhtml"><div xmlns="http://www.w3.org/1999/xhtml"><strong>酶的活性中心</strong>   </div></div></foreignObject></g><g data-depth="1" data-path="1" class="markmap-node" transform="translate(0, -10.5)"><line stroke="#1f77b4" stroke-width="2.5" x1="-1" x2="205" y1="22.25" y2="22.25"/><circle stroke-width="1.5" r="6" stroke="#1f77b4" fill="var(--markmap-circle-open-bg)" cx="203" cy="22.25"/><foreignObject class="markmap-foreign" x="8" y="0" style="opacity: 1;" width="187" height="21"><div xmlns="http://www.w3.org/1999/xhtml"><div xmlns="http://www.w3.org/1999/xhtml">酶的分子组成与活性中心   </div></div></foreignObject></g></g></svg>