<svg xmlns="http://www.w3.org/2000/svg" class="w-full h-full leading-none markmap mm-7aew7z-1" style=""><style>.markmap{--markmap-max-width: 9999px;--markmap-a-color: #0097e6;--markmap-a-hover-color: #00a8ff;--markmap-code-bg: #f0f0f0;--markmap-code-color: #555;--markmap-highlight-bg: #ffeaa7;--markmap-table-border: 1px solid currentColor;--markmap-font: 300 16px/20px sans-serif;--markmap-circle-open-bg: #fff;--markmap-text-color: #333;--markmap-highlight-node-bg: #ff02;font:var(--markmap-font);color:var(--markmap-text-color)}.markmap-link{fill:none}.markmap-node&gt;circle{cursor:pointer}.markmap-foreign{display:inline-block}.markmap-foreign p{margin:0}.markmap-foreign a{color:var(--markmap-a-color)}.markmap-foreign a:hover{color:var(--markmap-a-hover-color)}.markmap-foreign code{padding:.25em;font-size:calc(1em - 2px);color:var(--markmap-code-color);background-color:var(--markmap-code-bg);border-radius:2px}.markmap-foreign pre{margin:0}.markmap-foreign pre&gt;code{display:block}.markmap-foreign del{text-decoration:line-through}.markmap-foreign em{font-style:italic}.markmap-foreign strong{font-weight:700}.markmap-foreign mark{background:var(--markmap-highlight-bg)}.markmap-foreign table,.markmap-foreign th,.markmap-foreign td{border-collapse:collapse;border:var(--markmap-table-border)}.markmap-foreign img{display:inline-block}.markmap-foreign svg{fill:currentColor}.markmap-foreign&gt;div{width:var(--markmap-max-width);text-align:left}.markmap-foreign&gt;div&gt;div{display:inline-block}.markmap-highlight rect{fill:var(--markmap-highlight-node-bg)}.markmap-dark .markmap{--markmap-code-bg: #1a1b26;--markmap-code-color: #ddd;--markmap-circle-open-bg: #444;--markmap-text-color: #eee}</style><g transform="translate(31.09838345104515,386.1762558950358) scale(0.4302595105700048)"><path class="markmap-link" data-depth="3" data-path="1.2.3" d="M454,-248.547C494,-248.547,494,-289.797,534,-289.797" stroke-width="1.375" stroke="rgb(148, 103, 189)"/><path class="markmap-link" data-depth="3" data-path="1.2.4" d="M454,-248.547C494,-248.547,494,-262.422,534,-262.422" stroke-width="1.375" stroke="rgb(140, 86, 75)"/><path class="markmap-link" data-depth="3" data-path="1.2.5" d="M454,-248.547C494,-248.547,494,-235.047,534,-235.047" stroke-width="1.375" stroke="rgb(188, 189, 34)"/><path class="markmap-link" data-depth="3" data-path="1.2.6" d="M454,-248.547C494,-248.547,494,-207.672,534,-207.672" stroke-width="1.375" stroke="rgb(23, 190, 207)"/><path class="markmap-link" data-depth="4" data-path="1.7.8.9" d="M822,-134.516C862,-134.516,862,-175.391,902,-175.391" stroke-width="1.1875" stroke="rgb(255, 127, 14)"/><path class="markmap-link" data-depth="4" data-path="1.7.8.10" d="M822,-134.516C862,-134.516,862,-148.203,902,-148.203" stroke-width="1.1875" stroke="rgb(44, 160, 44)"/><path class="markmap-link" data-depth="4" data-path="1.7.8.11" d="M822,-134.516C862,-134.516,862,-121.016,902,-121.016" stroke-width="1.1875" stroke="rgb(214, 39, 40)"/><path class="markmap-link" data-depth="4" data-path="1.7.8.12" d="M822,-134.516C862,-134.516,862,-93.828,902,-93.828" stroke-width="1.1875" stroke="rgb(127, 127, 127)"/><path class="markmap-link" data-depth="5" data-path="1.7.13.14.15" d="M1020,-48.094C1060,-48.094,1060,-61.687,1100,-61.687" stroke-width="1.09375" stroke="rgb(31, 119, 180)"/><path class="markmap-link" data-depth="5" data-path="1.7.13.14.16" d="M1020,-48.094C1060,-48.094,1060,-34.594,1100,-34.594" stroke-width="1.09375" stroke="rgb(255, 127, 14)"/><path class="markmap-link" data-depth="5" data-path="1.7.13.17.18" d="M1004,11.094C1044,11.094,1044,-2.5,1084,-2.5" stroke-width="1.09375" stroke="rgb(214, 39, 40)"/><path class="markmap-link" data-depth="5" data-path="1.7.13.17.19" d="M1004,11.094C1044,11.094,1044,24.594,1084,24.594" stroke-width="1.09375" stroke="rgb(148, 103, 189)"/><path class="markmap-link" data-depth="4" data-path="1.7.13.14" d="M801,-18.406C841,-18.406,841,-48.094,881,-48.094" stroke-width="1.1875" stroke="rgb(23, 190, 207)"/><path class="markmap-link" data-depth="4" data-path="1.7.13.17" d="M801,-18.406C841,-18.406,841,11.094,881,11.094" stroke-width="1.1875" stroke="rgb(44, 160, 44)"/><path class="markmap-link" data-depth="3" data-path="1.7.8" d="M534,-24.969C574,-24.969,574,-134.516,614,-134.516" stroke-width="1.375" stroke="rgb(31, 119, 180)"/><path class="markmap-link" data-depth="3" data-path="1.7.13" d="M534,-24.969C574,-24.969,574,-18.406,614,-18.406" stroke-width="1.375" stroke="rgb(188, 189, 34)"/><path class="markmap-link" data-depth="3" data-path="1.7.20" d="M534,-24.969C574,-24.969,574,56.828,614,56.828" stroke-width="1.375" stroke="rgb(140, 86, 75)"/><path class="markmap-link" data-depth="3" data-path="1.7.21" d="M534,-24.969C574,-24.969,574,84.203,614,84.203" stroke-width="1.375" stroke="rgb(227, 119, 194)"/><path class="markmap-link" data-depth="4" data-path="1.22.23.24" d="M716,143.766C756,143.766,756,116.484,796,116.484" stroke-width="1.1875" stroke="rgb(23, 190, 207)"/><path class="markmap-link" data-depth="4" data-path="1.22.23.25" d="M716,143.766C756,143.766,756,143.672,796,143.672" stroke-width="1.1875" stroke="rgb(31, 119, 180)"/><path class="markmap-link" data-depth="4" data-path="1.22.23.26" d="M716,143.766C756,143.766,756,170.859,796,170.859" stroke-width="1.1875" stroke="rgb(255, 127, 14)"/><path class="markmap-link" data-depth="4" data-path="1.22.27.28" d="M748,257.516C788,257.516,788,203.047,828,203.047" stroke-width="1.1875" stroke="rgb(214, 39, 40)"/><path class="markmap-link" data-depth="4" data-path="1.22.27.29" d="M748,257.516C788,257.516,788,230.234,828,230.234" stroke-width="1.1875" stroke="rgb(148, 103, 189)"/><path class="markmap-link" data-depth="4" data-path="1.22.27.30" d="M748,257.516C788,257.516,788,257.422,828,257.422" stroke-width="1.1875" stroke="rgb(140, 86, 75)"/><path class="markmap-link" data-depth="4" data-path="1.22.27.31" d="M748,257.516C788,257.516,788,284.609,828,284.609" stroke-width="1.1875" stroke="rgb(227, 119, 194)"/><path class="markmap-link" data-depth="4" data-path="1.22.27.32" d="M748,257.516C788,257.516,788,311.797,828,311.797" stroke-width="1.1875" stroke="rgb(127, 127, 127)"/><path class="markmap-link" data-depth="4" data-path="1.22.33.34" d="M721,398.453C761,398.453,761,343.984,801,343.984" stroke-width="1.1875" stroke="rgb(23, 190, 207)"/><path class="markmap-link" data-depth="4" data-path="1.22.33.35" d="M721,398.453C761,398.453,761,371.172,801,371.172" stroke-width="1.1875" stroke="rgb(31, 119, 180)"/><path class="markmap-link" data-depth="4" data-path="1.22.33.36" d="M721,398.453C761,398.453,761,398.359,801,398.359" stroke-width="1.1875" stroke="rgb(255, 127, 14)"/><path class="markmap-link" data-depth="4" data-path="1.22.33.37" d="M721,398.453C761,398.453,761,425.547,801,425.547" stroke-width="1.1875" stroke="rgb(44, 160, 44)"/><path class="markmap-link" data-depth="4" data-path="1.22.33.38" d="M721,398.453C761,398.453,761,452.734,801,452.734" stroke-width="1.1875" stroke="rgb(214, 39, 40)"/><path class="markmap-link" data-depth="3" data-path="1.22.23" d="M390,271.297C430,271.297,430,143.766,470,143.766" stroke-width="1.375" stroke="rgb(188, 189, 34)"/><path class="markmap-link" data-depth="3" data-path="1.22.27" d="M390,271.297C430,271.297,430,257.516,470,257.516" stroke-width="1.375" stroke="rgb(44, 160, 44)"/><path class="markmap-link" data-depth="3" data-path="1.22.33" d="M390,271.297C430,271.297,430,398.453,470,398.453" stroke-width="1.375" stroke="rgb(188, 189, 34)"/><path class="markmap-link" data-depth="2" data-path="1.2" d="M187,11.75C227,11.75,227,-248.547,267,-248.547" stroke-width="1.75" stroke="rgb(255, 127, 14)"/><path class="markmap-link" data-depth="2" data-path="1.7" d="M187,11.75C227,11.75,227,-24.969,267,-24.969" stroke-width="1.75" stroke="rgb(23, 190, 207)"/><path class="markmap-link" data-depth="2" data-path="1.22" d="M187,11.75C227,11.75,227,271.297,267,271.297" stroke-width="1.75" stroke="rgb(127, 127, 127)"/><g class="markmap-highlight"/><g data-depth="3" data-path="1.2.3" class="markmap-node" transform="translate(534, -311.484375)"><line stroke="#9467bd" stroke-width="1.375" x1="-1" x2="173" y1="21.6875" y2="21.6875"/><foreignObject class="markmap-foreign" x="8" y="0" style="opacity: 1;" width="155" height="21"><div xmlns="http://www.w3.org/1999/xhtml"><div xmlns="http://www.w3.org/1999/xhtml">反应前后质和量<strong>不变</strong>   </div></div></foreignObject></g><g data-depth="3" data-path="1.2.4" class="markmap-node" transform="translate(534, -284.109375)"><line stroke="#8c564b" stroke-width="1.375" x1="-1" x2="221" y1="21.6875" y2="21.6875"/><foreignObject class="markmap-foreign" x="8" y="0" style="opacity: 1;" width="203" height="21"><div xmlns="http://www.w3.org/1999/xhtml"><div xmlns="http://www.w3.org/1999/xhtml">只能催化热力学<strong>允许</strong>的反应   </div></div></foreignObject></g><g data-depth="3" data-path="1.2.5" class="markmap-node" transform="translate(534, -256.734375)"><line stroke="#bcbd22" stroke-width="1.375" x1="-1" x2="301" y1="21.6875" y2="21.6875"/><foreignObject class="markmap-foreign" x="8" y="0" style="opacity: 1;" width="283" height="21"><div xmlns="http://www.w3.org/1999/xhtml"><div xmlns="http://www.w3.org/1999/xhtml">只缩短时间，<strong>不改变</strong>平衡点和平衡常数   </div></div></foreignObject></g><g data-depth="3" data-path="1.2.6" class="markmap-node" transform="translate(534, -229.359375)"><line stroke="#17becf" stroke-width="1.375" x1="-1" x2="391" y1="21.6875" y2="21.6875"/><foreignObject class="markmap-foreign" x="8" y="0" style="opacity: 1;" width="373" height="21"><div xmlns="http://www.w3.org/1999/xhtml"><div xmlns="http://www.w3.org/1999/xhtml">加速机制 -&gt; 降低反应的<strong>活化能</strong> -&gt; 酶能<strong>更有效</strong>地降低   </div></div></foreignObject></g><g data-depth="2" data-path="1.2" class="markmap-node" transform="translate(267, -270.421875)"><line stroke="#ff7f0e" stroke-width="1.75" x1="-1" x2="189" y1="21.875" y2="21.875"/><circle stroke-width="1.5" r="6" stroke="#ff7f0e" fill="var(--markmap-circle-open-bg)" cx="187" cy="21.875"/><foreignObject class="markmap-foreign" x="8" y="0" style="opacity: 1;" width="171" height="21"><div xmlns="http://www.w3.org/1999/xhtml"><div xmlns="http://www.w3.org/1999/xhtml"><strong>酶与一般催化剂的共性</strong>   </div></div></foreignObject></g><g data-depth="4" data-path="1.7.8.9" class="markmap-node" transform="translate(902, -196.984375)"><line stroke="#ff7f0e" stroke-width="1.1875" x1="-1" x2="231" y1="21.59375" y2="21.59375"/><foreignObject class="markmap-foreign" x="8" y="0" style="opacity: 1;" width="213" height="21"><div xmlns="http://www.w3.org/1999/xhtml"><div xmlns="http://www.w3.org/1999/xhtml">比非催化反应高 <strong>10⁸~10²⁰</strong> 倍   </div></div></foreignObject></g><g data-depth="4" data-path="1.7.8.10" class="markmap-node" transform="translate(902, -169.796875)"><line stroke="#2ca02c" stroke-width="1.1875" x1="-1" x2="231" y1="21.59375" y2="21.59375"/><foreignObject class="markmap-foreign" x="8" y="0" style="opacity: 1;" width="213" height="21"><div xmlns="http://www.w3.org/1999/xhtml"><div xmlns="http://www.w3.org/1999/xhtml">比一般催化剂高 <strong>10⁷~10¹³</strong> 倍   </div></div></foreignObject></g><g data-depth="4" data-path="1.7.8.11" class="markmap-node" transform="translate(902, -142.609375)"><line stroke="#d62728" stroke-width="1.1875" x1="-1" x2="269" y1="21.59375" y2="21.59375"/><foreignObject class="markmap-foreign" x="8" y="0" style="opacity: 1;" width="251" height="21"><div xmlns="http://www.w3.org/1999/xhtml"><div xmlns="http://www.w3.org/1999/xhtml">催化的反应条件<strong>温和</strong>（常温常压）   </div></div></foreignObject></g><g data-depth="4" data-path="1.7.8.12" class="markmap-node" transform="translate(902, -115.421875)"><line stroke="#7f7f7f" stroke-width="1.1875" x1="-1" x2="391" y1="21.59375" y2="21.59375"/><foreignObject class="markmap-foreign" x="8" y="0" style="opacity: 1;" width="373" height="21"><div xmlns="http://www.w3.org/1999/xhtml"><div xmlns="http://www.w3.org/1999/xhtml">高效性原因 -&gt; 更有效降低<strong>活化能</strong> -&gt; 促进形成<strong>过渡态</strong>   </div></div></foreignObject></g><g data-depth="3" data-path="1.7.8" class="markmap-node" transform="translate(614, -156.203125)"><line stroke="#1f77b4" stroke-width="1.375" x1="-1" x2="210" y1="21.6875" y2="21.6875"/><circle stroke-width="1.5" r="6" stroke="#1f77b4" fill="var(--markmap-circle-open-bg)" cx="208" cy="21.6875"/><foreignObject class="markmap-foreign" x="8" y="0" style="opacity: 1;" width="192" height="21"><div xmlns="http://www.w3.org/1999/xhtml"><div xmlns="http://www.w3.org/1999/xhtml"><strong>高效性</strong> -&gt; 极高的催化效率   </div></div></foreignObject></g><g data-depth="5" data-path="1.7.13.14.15" class="markmap-node" transform="translate(1100, -83.234375)"><line stroke="#1f77b4" stroke-width="1.09375" x1="-1" x2="471" y1="21.546875" y2="21.546875"/><foreignObject class="markmap-foreign" x="8" y="0" style="opacity: 1;" width="453" height="21"><div xmlns="http://www.w3.org/1999/xhtml"><div xmlns="http://www.w3.org/1999/xhtml"><strong>绝对特异性</strong> -&gt; 一种酶只作用于<strong>一种</strong>底物 -&gt; 如：<strong>脲酶</strong>只催化尿素   </div></div></foreignObject></g><g data-depth="5" data-path="1.7.13.14.16" class="markmap-node" transform="translate(1100, -56.140625)"><line stroke="#ff7f0e" stroke-width="1.09375" x1="-1" x2="487" y1="21.546875" y2="21.546875"/><foreignObject class="markmap-foreign" x="8" y="0" style="opacity: 1;" width="469" height="21"><div xmlns="http://www.w3.org/1999/xhtml"><div xmlns="http://www.w3.org/1999/xhtml"><strong>相对特异性</strong> -&gt; 作用于<strong>一类</strong>化合物或<strong>一种</strong>化学键 -&gt; 如：蛋白水解酶   </div></div></foreignObject></g><g data-depth="4" data-path="1.7.13.14" class="markmap-node" transform="translate(881, -69.6875)"><line stroke="#17becf" stroke-width="1.1875" x1="-1" x2="141" y1="21.59375" y2="21.59375"/><circle stroke-width="1.5" r="6" stroke="#17becf" fill="var(--markmap-circle-open-bg)" cx="139" cy="21.59375"/><foreignObject class="markmap-foreign" x="8" y="0" style="opacity: 1;" width="123" height="21"><div xmlns="http://www.w3.org/1999/xhtml"><div xmlns="http://www.w3.org/1999/xhtml">按特异性高低分   </div></div></foreignObject></g><g data-depth="5" data-path="1.7.13.17.18" class="markmap-node" transform="translate(1084, -24.046875)"><line stroke="#d62728" stroke-width="1.09375" x1="-1" x2="578" y1="21.546875" y2="21.546875"/><foreignObject class="markmap-foreign" x="8" y="0" style="opacity: 1;" width="560" height="21"><div xmlns="http://www.w3.org/1999/xhtml"><div xmlns="http://www.w3.org/1999/xhtml"><strong>立体异构体专一性</strong> -&gt; 如：延胡索酸酶仅催化<strong>反丁烯二酸</strong>，不能作用顺丁烯二酸   </div></div></foreignObject></g><g data-depth="5" data-path="1.7.13.17.19" class="markmap-node" transform="translate(1084, 3.046875)"><line stroke="#9467bd" stroke-width="1.09375" x1="-1" x2="532" y1="21.546875" y2="21.546875"/><foreignObject class="markmap-foreign" x="8" y="0" style="opacity: 1;" width="514" height="21"><div xmlns="http://www.w3.org/1999/xhtml"><div xmlns="http://www.w3.org/1999/xhtml"><strong>光学异构体专一性</strong> -&gt; 如：乳酸脱氢酶只能氧化<strong>L-乳酸</strong>，不能作用 D-乳酸   </div></div></foreignObject></g><g data-depth="4" data-path="1.7.13.17" class="markmap-node" transform="translate(881, -10.5)"><line stroke="#2ca02c" stroke-width="1.1875" x1="-1" x2="125" y1="21.59375" y2="21.59375"/><circle stroke-width="1.5" r="6" stroke="#2ca02c" fill="var(--markmap-circle-open-bg)" cx="123" cy="21.59375"/><foreignObject class="markmap-foreign" x="8" y="0" style="opacity: 1;" width="107" height="21"><div xmlns="http://www.w3.org/1999/xhtml"><div xmlns="http://www.w3.org/1999/xhtml">按立体异构分   </div></div></foreignObject></g><g data-depth="3" data-path="1.7.13" class="markmap-node" transform="translate(614, -40.09375)"><line stroke="#bcbd22" stroke-width="1.375" x1="-1" x2="189" y1="21.6875" y2="21.6875"/><circle stroke-width="1.5" r="6" stroke="#bcbd22" fill="var(--markmap-circle-open-bg)" cx="187" cy="21.6875"/><foreignObject class="markmap-foreign" x="8" y="0" style="opacity: 1;" width="171" height="21"><div xmlns="http://www.w3.org/1999/xhtml"><div xmlns="http://www.w3.org/1999/xhtml"><strong>高度专一性（特异性）</strong>   </div></div></foreignObject></g><g data-depth="3" data-path="1.7.20" class="markmap-node" transform="translate(614, 35.140625)"><line stroke="#8c564b" stroke-width="1.375" x1="-1" x2="422" y1="21.6875" y2="21.6875"/><foreignObject class="markmap-foreign" x="8" y="0" style="opacity: 1;" width="404" height="21"><div xmlns="http://www.w3.org/1999/xhtml"><div xmlns="http://www.w3.org/1999/xhtml"><strong>可调节性</strong> -&gt; 受多种因素调控 -&gt; 酶含量调节 + 酶活性调节   </div></div></foreignObject></g><g data-depth="3" data-path="1.7.21" class="markmap-node" transform="translate(614, 62.515625)"><line stroke="#e377c2" stroke-width="1.375" x1="-1" x2="442" y1="21.6875" y2="21.6875"/><foreignObject class="markmap-foreign" x="8" y="0" style="opacity: 1;" width="424" height="21"><div xmlns="http://www.w3.org/1999/xhtml"><div xmlns="http://www.w3.org/1999/xhtml"><strong>不稳定性</strong> -&gt; 对<strong>环境因素敏感</strong> -&gt; 强酸/强碱/高温 → 变性失活   </div></div></foreignObject></g><g data-depth="2" data-path="1.7" class="markmap-node" transform="translate(267, -46.84375)"><line stroke="#17becf" stroke-width="1.75" x1="-1" x2="269" y1="21.875" y2="21.875"/><circle stroke-width="1.5" r="6" stroke="#17becf" fill="var(--markmap-circle-open-bg)" cx="267" cy="21.875"/><foreignObject class="markmap-foreign" x="8" y="0" style="opacity: 1;" width="251" height="21"><div xmlns="http://www.w3.org/1999/xhtml"><div xmlns="http://www.w3.org/1999/xhtml"><strong>酶的特性（与一般催化剂的区别）</strong>   </div></div></foreignObject></g><g data-depth="4" data-path="1.22.23.24" class="markmap-node" transform="translate(796, 94.890625)"><line stroke="#17becf" stroke-width="1.1875" x1="-1" x2="162" y1="21.59375" y2="21.59375"/><foreignObject class="markmap-foreign" x="8" y="0" style="opacity: 1;" width="144" height="21"><div xmlns="http://www.w3.org/1999/xhtml"><div xmlns="http://www.w3.org/1999/xhtml">E + S ⇌ ES → E + P   </div></div></foreignObject></g><g data-depth="4" data-path="1.22.23.25" class="markmap-node" transform="translate(796, 122.078125)"><line stroke="#1f77b4" stroke-width="1.1875" x1="-1" x2="290" y1="21.59375" y2="21.59375"/><foreignObject class="markmap-foreign" x="8" y="0" style="opacity: 1;" width="272" height="21"><div xmlns="http://www.w3.org/1999/xhtml"><div xmlns="http://www.w3.org/1999/xhtml">有利于底物形成<strong>过渡态</strong> -&gt; 转变为产物   </div></div></foreignObject></g><g data-depth="4" data-path="1.22.23.26" class="markmap-node" transform="translate(796, 149.265625)"><line stroke="#ff7f0e" stroke-width="1.1875" x1="-1" x2="173" y1="21.59375" y2="21.59375"/><foreignObject class="markmap-foreign" x="8" y="0" style="opacity: 1;" width="155" height="21"><div xmlns="http://www.w3.org/1999/xhtml"><div xmlns="http://www.w3.org/1999/xhtml">酶释放后可<strong>循环利用</strong>   </div></div></foreignObject></g><g data-depth="3" data-path="1.22.23" class="markmap-node" transform="translate(470, 122.078125)"><line stroke="#bcbd22" stroke-width="1.375" x1="-1" x2="248" y1="21.6875" y2="21.6875"/><circle stroke-width="1.5" r="6" stroke="#bcbd22" fill="var(--markmap-circle-open-bg)" cx="246" cy="21.6875"/><foreignObject class="markmap-foreign" x="8" y="0" style="opacity: 1;" width="230" height="21"><div xmlns="http://www.w3.org/1999/xhtml"><div xmlns="http://www.w3.org/1999/xhtml"><strong>酶-底物复合物(E-S复合物)形成</strong>   </div></div></foreignObject></g><g data-depth="4" data-path="1.22.27.28" class="markmap-node" transform="translate(828, 181.453125)"><line stroke="#d62728" stroke-width="1.1875" x1="-1" x2="253" y1="21.59375" y2="21.59375"/><foreignObject class="markmap-foreign" x="8" y="0" style="opacity: 1;" width="235" height="21"><div xmlns="http://www.w3.org/1999/xhtml"><div xmlns="http://www.w3.org/1999/xhtml">酶与底物相互<strong>诱导、变形、适应</strong>   </div></div></foreignObject></g><g data-depth="4" data-path="1.22.27.29" class="markmap-node" transform="translate(828, 208.640625)"><line stroke="#9467bd" stroke-width="1.1875" x1="-1" x2="226" y1="21.59375" y2="21.59375"/><foreignObject class="markmap-foreign" x="8" y="0" style="opacity: 1;" width="208" height="21"><div xmlns="http://www.w3.org/1999/xhtml"><div xmlns="http://www.w3.org/1999/xhtml">酶构象改变 -&gt; 利于结合底物   </div></div></foreignObject></g><g data-depth="4" data-path="1.22.27.30" class="markmap-node" transform="translate(828, 235.828125)"><line stroke="#8c564b" stroke-width="1.1875" x1="-1" x2="359" y1="21.59375" y2="21.59375"/><foreignObject class="markmap-foreign" x="8" y="0" style="opacity: 1;" width="341" height="21"><div xmlns="http://www.w3.org/1999/xhtml"><div xmlns="http://www.w3.org/1999/xhtml">底物变形 -&gt; 处于<strong>不稳定过渡态</strong> -&gt; 易受催化攻击   </div></div></foreignObject></g><g data-depth="4" data-path="1.22.27.31" class="markmap-node" transform="translate(828, 263.015625)"><line stroke="#e377c2" stroke-width="1.1875" x1="-1" x2="258" y1="21.59375" y2="21.59375"/><foreignObject class="markmap-foreign" x="8" y="0" style="opacity: 1;" width="240" height="21"><div xmlns="http://www.w3.org/1999/xhtml"><div xmlns="http://www.w3.org/1999/xhtml">与锁-钥模式不同：<strong>动态</strong>而非机械   </div></div></foreignObject></g><g data-depth="4" data-path="1.22.27.32" class="markmap-node" transform="translate(828, 290.203125)"><line stroke="#7f7f7f" stroke-width="1.1875" x1="-1" x2="466" y1="21.59375" y2="21.59375"/><foreignObject class="markmap-foreign" x="8" y="0" style="opacity: 1;" width="448" height="21"><div xmlns="http://www.w3.org/1999/xhtml"><div xmlns="http://www.w3.org/1999/xhtml">实例：<strong>己糖激酶</strong> -&gt; 结合葡萄糖后构象发生显著改变，两叶闭合   </div></div></foreignObject></g><g data-depth="3" data-path="1.22.27" class="markmap-node" transform="translate(470, 235.828125)"><line stroke="#2ca02c" stroke-width="1.375" x1="-1" x2="280" y1="21.6875" y2="21.6875"/><circle stroke-width="1.5" r="6" stroke="#2ca02c" fill="var(--markmap-circle-open-bg)" cx="278" cy="21.6875"/><foreignObject class="markmap-foreign" x="8" y="0" style="opacity: 1;" width="262" height="21"><div xmlns="http://www.w3.org/1999/xhtml"><div xmlns="http://www.w3.org/1999/xhtml"><strong>诱导契合学说(induced-fit theory)</strong>   </div></div></foreignObject></g><g data-depth="4" data-path="1.22.33.34" class="markmap-node" transform="translate(801, 322.390625)"><line stroke="#17becf" stroke-width="1.1875" x1="-1" x2="258" y1="21.59375" y2="21.59375"/><foreignObject class="markmap-foreign" x="8" y="0" style="opacity: 1;" width="240" height="21"><div xmlns="http://www.w3.org/1999/xhtml"><div xmlns="http://www.w3.org/1999/xhtml"><strong>邻近与定向效应</strong> -&gt; 增加有效碰撞   </div></div></foreignObject></g><g data-depth="4" data-path="1.22.33.35" class="markmap-node" transform="translate(801, 349.578125)"><line stroke="#1f77b4" stroke-width="1.1875" x1="-1" x2="247" y1="21.59375" y2="21.59375"/><foreignObject class="markmap-foreign" x="8" y="0" style="opacity: 1;" width="229" height="21"><div xmlns="http://www.w3.org/1999/xhtml"><div xmlns="http://www.w3.org/1999/xhtml"><strong>酸碱催化</strong> -&gt; His、Asp 传递质子   </div></div></foreignObject></g><g data-depth="4" data-path="1.22.33.36" class="markmap-node" transform="translate(801, 376.765625)"><line stroke="#ff7f0e" stroke-width="1.1875" x1="-1" x2="312" y1="21.59375" y2="21.59375"/><foreignObject class="markmap-foreign" x="8" y="0" style="opacity: 1;" width="294" height="21"><div xmlns="http://www.w3.org/1999/xhtml"><div xmlns="http://www.w3.org/1999/xhtml"><strong>疏水/表面效应</strong> -&gt; 排除水分子，利于接触   </div></div></foreignObject></g><g data-depth="4" data-path="1.22.33.37" class="markmap-node" transform="translate(801, 403.953125)"><line stroke="#2ca02c" stroke-width="1.1875" x1="-1" x2="328" y1="21.59375" y2="21.59375"/><foreignObject class="markmap-foreign" x="8" y="0" style="opacity: 1;" width="310" height="21"><div xmlns="http://www.w3.org/1999/xhtml"><div xmlns="http://www.w3.org/1999/xhtml"><strong>张力/变形效应</strong> -&gt; 诱导底物变形，促进断键   </div></div></foreignObject></g><g data-depth="4" data-path="1.22.33.38" class="markmap-node" transform="translate(801, 431.140625)"><line stroke="#d62728" stroke-width="1.1875" x1="-1" x2="274" y1="21.59375" y2="21.59375"/><foreignObject class="markmap-foreign" x="8" y="0" style="opacity: 1;" width="256" height="21"><div xmlns="http://www.w3.org/1999/xhtml"><div xmlns="http://www.w3.org/1999/xhtml"><strong>共价催化</strong> -&gt; 形成过渡性共价中间体   </div></div></foreignObject></g><g data-depth="3" data-path="1.22.33" class="markmap-node" transform="translate(470, 376.765625)"><line stroke="#bcbd22" stroke-width="1.375" x1="-1" x2="253" y1="21.6875" y2="21.6875"/><circle stroke-width="1.5" r="6" stroke="#bcbd22" fill="var(--markmap-circle-open-bg)" cx="251" cy="21.6875"/><foreignObject class="markmap-foreign" x="8" y="0" style="opacity: 1;" width="235" height="21"><div xmlns="http://www.w3.org/1999/xhtml"><div xmlns="http://www.w3.org/1999/xhtml"><strong>催化机制的多元性（综合作用）</strong>   </div></div></foreignObject></g><g data-depth="2" data-path="1.22" class="markmap-node" transform="translate(267, 249.421875)"><line stroke="#7f7f7f" stroke-width="1.75" x1="-1" x2="125" y1="21.875" y2="21.875"/><circle stroke-width="1.5" r="6" stroke="#7f7f7f" fill="var(--markmap-circle-open-bg)" cx="123" cy="21.875"/><foreignObject class="markmap-foreign" x="8" y="0" style="opacity: 1;" width="107" height="21"><div xmlns="http://www.w3.org/1999/xhtml"><div xmlns="http://www.w3.org/1999/xhtml"><strong>酶促反应机制</strong>   </div></div></foreignObject></g><g data-depth="1" data-path="1" class="markmap-node" transform="translate(0, -10.5)"><line stroke="#1f77b4" stroke-width="2.5" x1="-1" x2="189" y1="22.25" y2="22.25"/><circle stroke-width="1.5" r="6" stroke="#1f77b4" fill="var(--markmap-circle-open-bg)" cx="187" cy="22.25"/><foreignObject class="markmap-foreign" x="8" y="0" style="opacity: 1;" width="171" height="21"><div xmlns="http://www.w3.org/1999/xhtml"><div xmlns="http://www.w3.org/1999/xhtml">酶促反应的特点与机制   </div></div></foreignObject></g></g></svg>