<svg xmlns="http://www.w3.org/2000/svg" class="w-full h-full leading-none markmap mm-7aew7z-1" style=""><style>.markmap{--markmap-max-width: 9999px;--markmap-a-color: #0097e6;--markmap-a-hover-color: #00a8ff;--markmap-code-bg: #f0f0f0;--markmap-code-color: #555;--markmap-highlight-bg: #ffeaa7;--markmap-table-border: 1px solid currentColor;--markmap-font: 300 16px/20px sans-serif;--markmap-circle-open-bg: #fff;--markmap-text-color: #333;--markmap-highlight-node-bg: #ff02;font:var(--markmap-font);color:var(--markmap-text-color)}.markmap-link{fill:none}.markmap-node&gt;circle{cursor:pointer}.markmap-foreign{display:inline-block}.markmap-foreign p{margin:0}.markmap-foreign a{color:var(--markmap-a-color)}.markmap-foreign a:hover{color:var(--markmap-a-hover-color)}.markmap-foreign code{padding:.25em;font-size:calc(1em - 2px);color:var(--markmap-code-color);background-color:var(--markmap-code-bg);border-radius:2px}.markmap-foreign pre{margin:0}.markmap-foreign pre&gt;code{display:block}.markmap-foreign del{text-decoration:line-through}.markmap-foreign em{font-style:italic}.markmap-foreign strong{font-weight:700}.markmap-foreign mark{background:var(--markmap-highlight-bg)}.markmap-foreign table,.markmap-foreign th,.markmap-foreign td{border-collapse:collapse;border:var(--markmap-table-border)}.markmap-foreign img{display:inline-block}.markmap-foreign svg{fill:currentColor}.markmap-foreign&gt;div{width:var(--markmap-max-width);text-align:left}.markmap-foreign&gt;div&gt;div{display:inline-block}.markmap-highlight rect{fill:var(--markmap-highlight-node-bg)}.markmap-dark .markmap{--markmap-code-bg: #1a1b26;--markmap-code-color: #ddd;--markmap-circle-open-bg: #444;--markmap-text-color: #eee}</style><g transform="translate(79.09838345104515,386.1762558950358) scale(0.4302595105700048)"><path class="markmap-link" data-depth="4" data-path="1.2.3.4" d="M641,-480.234C681,-480.234,681,-507.516,721,-507.516" stroke-width="1.1875" stroke="rgb(227, 119, 194)"/><path class="markmap-link" data-depth="4" data-path="1.2.3.5" d="M641,-480.234C681,-480.234,681,-480.328,721,-480.328" stroke-width="1.1875" stroke="rgb(127, 127, 127)"/><path class="markmap-link" data-depth="4" data-path="1.2.3.6" d="M641,-480.234C681,-480.234,681,-453.141,721,-453.141" stroke-width="1.1875" stroke="rgb(188, 189, 34)"/><path class="markmap-link" data-depth="4" data-path="1.2.7.8" d="M641,-407.266C681,-407.266,681,-420.953,721,-420.953" stroke-width="1.1875" stroke="rgb(23, 190, 207)"/><path class="markmap-link" data-depth="4" data-path="1.2.7.9" d="M641,-407.266C681,-407.266,681,-393.766,721,-393.766" stroke-width="1.1875" stroke="rgb(31, 119, 180)"/><path class="markmap-link" data-depth="3" data-path="1.2.3" d="M358,-443.562C398,-443.562,398,-480.234,438,-480.234" stroke-width="1.375" stroke="rgb(148, 103, 189)"/><path class="markmap-link" data-depth="3" data-path="1.2.7" d="M358,-443.562C398,-443.562,398,-407.266,438,-407.266" stroke-width="1.375" stroke="rgb(31, 119, 180)"/><path class="markmap-link" data-depth="5" data-path="1.10.16.19.20" d="M732,-146.781C772,-146.781,772,-160.375,812,-160.375" stroke-width="1.09375" stroke="rgb(227, 119, 194)"/><path class="markmap-link" data-depth="5" data-path="1.10.16.19.21" d="M732,-146.781C772,-146.781,772,-133.281,812,-133.281" stroke-width="1.09375" stroke="rgb(127, 127, 127)"/><path class="markmap-link" data-depth="4" data-path="1.10.16.17" d="M529,-146.734C569,-146.734,569,-219.703,609,-219.703" stroke-width="1.1875" stroke="rgb(214, 39, 40)"/><path class="markmap-link" data-depth="4" data-path="1.10.16.18" d="M529,-146.734C569,-146.734,569,-192.516,609,-192.516" stroke-width="1.1875" stroke="rgb(148, 103, 189)"/><path class="markmap-link" data-depth="4" data-path="1.10.16.19" d="M529,-146.734C569,-146.734,569,-146.781,609,-146.781" stroke-width="1.1875" stroke="rgb(140, 86, 75)"/><path class="markmap-link" data-depth="4" data-path="1.10.16.22" d="M529,-146.734C569,-146.734,569,-101.141,609,-101.141" stroke-width="1.1875" stroke="rgb(188, 189, 34)"/><path class="markmap-link" data-depth="4" data-path="1.10.16.23" d="M529,-146.734C569,-146.734,569,-73.953,609,-73.953" stroke-width="1.1875" stroke="rgb(23, 190, 207)"/><path class="markmap-link" data-depth="3" data-path="1.10.11" d="M326,-253.922C366,-253.922,366,-361.484,406,-361.484" stroke-width="1.375" stroke="rgb(23, 190, 207)"/><path class="markmap-link" data-depth="3" data-path="1.10.12" d="M326,-253.922C366,-253.922,366,-334.109,406,-334.109" stroke-width="1.375" stroke="rgb(31, 119, 180)"/><path class="markmap-link" data-depth="3" data-path="1.10.13" d="M326,-253.922C366,-253.922,366,-306.734,406,-306.734" stroke-width="1.375" stroke="rgb(255, 127, 14)"/><path class="markmap-link" data-depth="3" data-path="1.10.14" d="M326,-253.922C366,-253.922,366,-279.359,406,-279.359" stroke-width="1.375" stroke="rgb(44, 160, 44)"/><path class="markmap-link" data-depth="3" data-path="1.10.15" d="M326,-253.922C366,-253.922,366,-251.984,406,-251.984" stroke-width="1.375" stroke="rgb(255, 127, 14)"/><path class="markmap-link" data-depth="3" data-path="1.10.16" d="M326,-253.922C366,-253.922,366,-146.734,406,-146.734" stroke-width="1.375" stroke="rgb(44, 160, 44)"/><path class="markmap-link" data-depth="4" data-path="1.24.27.28" d="M625,58.859C665,58.859,665,17.984,705,17.984" stroke-width="1.1875" stroke="rgb(31, 119, 180)"/><path class="markmap-link" data-depth="4" data-path="1.24.27.29" d="M625,58.859C665,58.859,665,45.172,705,45.172" stroke-width="1.1875" stroke="rgb(255, 127, 14)"/><path class="markmap-link" data-depth="4" data-path="1.24.27.30" d="M625,58.859C665,58.859,665,72.359,705,72.359" stroke-width="1.1875" stroke="rgb(44, 160, 44)"/><path class="markmap-link" data-depth="4" data-path="1.24.27.31" d="M625,58.859C665,58.859,665,99.547,705,99.547" stroke-width="1.1875" stroke="rgb(214, 39, 40)"/><path class="markmap-link" data-depth="3" data-path="1.24.25" d="M454,45.266C494,45.266,494,-41.672,534,-41.672" stroke-width="1.375" stroke="rgb(127, 127, 127)"/><path class="markmap-link" data-depth="3" data-path="1.24.26" d="M454,45.266C494,45.266,494,-14.297,534,-14.297" stroke-width="1.375" stroke="rgb(188, 189, 34)"/><path class="markmap-link" data-depth="3" data-path="1.24.27" d="M454,45.266C494,45.266,494,58.859,534,58.859" stroke-width="1.375" stroke="rgb(23, 190, 207)"/><path class="markmap-link" data-depth="3" data-path="1.24.32" d="M454,45.266C494,45.266,494,131.828,534,131.828" stroke-width="1.375" stroke="rgb(148, 103, 189)"/><path class="markmap-link" data-depth="4" data-path="1.33.37.38" d="M497,251.328C537,251.328,537,251.234,577,251.234" stroke-width="1.1875" stroke="rgb(31, 119, 180)"/><path class="markmap-link" data-depth="4" data-path="1.33.39.40" d="M529,297.109C569,297.109,569,283.422,609,283.422" stroke-width="1.1875" stroke="rgb(44, 160, 44)"/><path class="markmap-link" data-depth="4" data-path="1.33.39.41" d="M529,297.109C569,297.109,569,310.609,609,310.609" stroke-width="1.1875" stroke="rgb(214, 39, 40)"/><path class="markmap-link" data-depth="4" data-path="1.33.42.43" d="M497,370.078C537,370.078,537,342.797,577,342.797" stroke-width="1.1875" stroke="rgb(140, 86, 75)"/><path class="markmap-link" data-depth="4" data-path="1.33.42.44" d="M497,370.078C537,370.078,537,369.984,577,369.984" stroke-width="1.1875" stroke="rgb(227, 119, 194)"/><path class="markmap-link" data-depth="4" data-path="1.33.42.45" d="M497,370.078C537,370.078,537,397.172,577,397.172" stroke-width="1.1875" stroke="rgb(127, 127, 127)"/><path class="markmap-link" data-depth="3" data-path="1.33.34" d="M326,267.328C366,267.328,366,164.203,406,164.203" stroke-width="1.375" stroke="rgb(227, 119, 194)"/><path class="markmap-link" data-depth="3" data-path="1.33.35" d="M326,267.328C366,267.328,366,191.578,406,191.578" stroke-width="1.375" stroke="rgb(127, 127, 127)"/><path class="markmap-link" data-depth="3" data-path="1.33.36" d="M326,267.328C366,267.328,366,218.953,406,218.953" stroke-width="1.375" stroke="rgb(188, 189, 34)"/><path class="markmap-link" data-depth="3" data-path="1.33.37" d="M326,267.328C366,267.328,366,251.328,406,251.328" stroke-width="1.375" stroke="rgb(23, 190, 207)"/><path class="markmap-link" data-depth="3" data-path="1.33.39" d="M326,267.328C366,267.328,366,297.109,406,297.109" stroke-width="1.375" stroke="rgb(255, 127, 14)"/><path class="markmap-link" data-depth="3" data-path="1.33.42" d="M326,267.328C366,267.328,366,370.078,406,370.078" stroke-width="1.375" stroke="rgb(148, 103, 189)"/><path class="markmap-link" data-depth="4" data-path="1.46.49.50" d="M641,502.797C681,502.797,681,489.109,721,489.109" stroke-width="1.1875" stroke="rgb(31, 119, 180)"/><path class="markmap-link" data-depth="4" data-path="1.46.49.51" d="M641,502.797C681,502.797,681,516.297,721,516.297" stroke-width="1.1875" stroke="rgb(255, 127, 14)"/><path class="markmap-link" data-depth="3" data-path="1.46.47" d="M454,466.313C494,466.313,494,429.453,534,429.453" stroke-width="1.375" stroke="rgb(140, 86, 75)"/><path class="markmap-link" data-depth="3" data-path="1.46.48" d="M454,466.313C494,466.313,494,456.828,534,456.828" stroke-width="1.375" stroke="rgb(188, 189, 34)"/><path class="markmap-link" data-depth="3" data-path="1.46.49" d="M454,466.313C494,466.313,494,502.797,534,502.797" stroke-width="1.375" stroke="rgb(23, 190, 207)"/><path class="markmap-link" data-depth="2" data-path="1.2" d="M155,11.75C195,11.75,195,-443.562,235,-443.562" stroke-width="1.75" stroke="rgb(255, 127, 14)"/><path class="markmap-link" data-depth="2" data-path="1.10" d="M155,11.75C195,11.75,195,-253.922,235,-253.922" stroke-width="1.75" stroke="rgb(188, 189, 34)"/><path class="markmap-link" data-depth="2" data-path="1.24" d="M155,11.75C195,11.75,195,45.266,235,45.266" stroke-width="1.75" stroke="rgb(227, 119, 194)"/><path class="markmap-link" data-depth="2" data-path="1.33" d="M155,11.75C195,11.75,195,267.328,235,267.328" stroke-width="1.75" stroke="rgb(140, 86, 75)"/><path class="markmap-link" data-depth="2" data-path="1.46" d="M155,11.75C195,11.75,195,466.313,235,466.313" stroke-width="1.75" stroke="rgb(148, 103, 189)"/><g class="markmap-highlight"/><g data-depth="4" data-path="1.2.3.4" class="markmap-node" transform="translate(721, -529.109375)"><line stroke="#e377c2" stroke-width="1.1875" x1="-1" x2="93" y1="21.59375" y2="21.59375"/><foreignObject class="markmap-foreign" x="8" y="0" style="opacity: 1;" width="75" height="21"><div xmlns="http://www.w3.org/1999/xhtml"><div xmlns="http://www.w3.org/1999/xhtml">别构调节   </div></div></foreignObject></g><g data-depth="4" data-path="1.2.3.5" class="markmap-node" transform="translate(721, -501.921875)"><line stroke="#7f7f7f" stroke-width="1.1875" x1="-1" x2="125" y1="21.59375" y2="21.59375"/><foreignObject class="markmap-foreign" x="8" y="0" style="opacity: 1;" width="107" height="21"><div xmlns="http://www.w3.org/1999/xhtml"><div xmlns="http://www.w3.org/1999/xhtml">化学修饰调节   </div></div></foreignObject></g><g data-depth="4" data-path="1.2.3.6" class="markmap-node" transform="translate(721, -474.734375)"><line stroke="#bcbd22" stroke-width="1.1875" x1="-1" x2="93" y1="21.59375" y2="21.59375"/><foreignObject class="markmap-foreign" x="8" y="0" style="opacity: 1;" width="75" height="21"><div xmlns="http://www.w3.org/1999/xhtml"><div xmlns="http://www.w3.org/1999/xhtml">酶原激活   </div></div></foreignObject></g><g data-depth="3" data-path="1.2.3" class="markmap-node" transform="translate(438, -501.921875)"><line stroke="#9467bd" stroke-width="1.375" x1="-1" x2="205" y1="21.6875" y2="21.6875"/><circle stroke-width="1.5" r="6" stroke="#9467bd" fill="var(--markmap-circle-open-bg)" cx="203" cy="21.6875"/><foreignObject class="markmap-foreign" x="8" y="0" style="opacity: 1;" width="187" height="21"><div xmlns="http://www.w3.org/1999/xhtml"><div xmlns="http://www.w3.org/1999/xhtml"><strong>酶活性调节（快速调节）</strong>   </div></div></foreignObject></g><g data-depth="4" data-path="1.2.7.8" class="markmap-node" transform="translate(721, -442.546875)"><line stroke="#17becf" stroke-width="1.1875" x1="-1" x2="205" y1="21.59375" y2="21.59375"/><foreignObject class="markmap-foreign" x="8" y="0" style="opacity: 1;" width="187" height="21"><div xmlns="http://www.w3.org/1999/xhtml"><div xmlns="http://www.w3.org/1999/xhtml">酶蛋白合成的诱导与阻遏   </div></div></foreignObject></g><g data-depth="4" data-path="1.2.7.9" class="markmap-node" transform="translate(721, -415.359375)"><line stroke="#1f77b4" stroke-width="1.1875" x1="-1" x2="109" y1="21.59375" y2="21.59375"/><foreignObject class="markmap-foreign" x="8" y="0" style="opacity: 1;" width="91" height="21"><div xmlns="http://www.w3.org/1999/xhtml"><div xmlns="http://www.w3.org/1999/xhtml">酶蛋白降解   </div></div></foreignObject></g><g data-depth="3" data-path="1.2.7" class="markmap-node" transform="translate(438, -428.953125)"><line stroke="#1f77b4" stroke-width="1.375" x1="-1" x2="205" y1="21.6875" y2="21.6875"/><circle stroke-width="1.5" r="6" stroke="#1f77b4" fill="var(--markmap-circle-open-bg)" cx="203" cy="21.6875"/><foreignObject class="markmap-foreign" x="8" y="0" style="opacity: 1;" width="187" height="21"><div xmlns="http://www.w3.org/1999/xhtml"><div xmlns="http://www.w3.org/1999/xhtml"><strong>酶含量调节（慢速调节）</strong>   </div></div></foreignObject></g><g data-depth="2" data-path="1.2" class="markmap-node" transform="translate(235, -465.4375)"><line stroke="#ff7f0e" stroke-width="1.75" x1="-1" x2="125" y1="21.875" y2="21.875"/><circle stroke-width="1.5" r="6" stroke="#ff7f0e" fill="var(--markmap-circle-open-bg)" cx="123" cy="21.875"/><foreignObject class="markmap-foreign" x="8" y="0" style="opacity: 1;" width="107" height="21"><div xmlns="http://www.w3.org/1999/xhtml"><div xmlns="http://www.w3.org/1999/xhtml"><strong>酶的调节总览</strong>   </div></div></foreignObject></g><g data-depth="3" data-path="1.10.11" class="markmap-node" transform="translate(406, -383.171875)"><line stroke="#17becf" stroke-width="1.375" x1="-1" x2="445" y1="21.6875" y2="21.6875"/><foreignObject class="markmap-foreign" x="8" y="0" style="opacity: 1;" width="427" height="21"><div xmlns="http://www.w3.org/1999/xhtml"><div xmlns="http://www.w3.org/1999/xhtml">小分子物质与酶活性中心或活性中心<strong>外</strong>的特定部位<strong>可逆</strong>结合   </div></div></foreignObject></g><g data-depth="3" data-path="1.10.12" class="markmap-node" transform="translate(406, -355.796875)"><line stroke="#1f77b4" stroke-width="1.375" x1="-1" x2="375" y1="21.6875" y2="21.6875"/><foreignObject class="markmap-foreign" x="8" y="0" style="opacity: 1;" width="357" height="21"><div xmlns="http://www.w3.org/1999/xhtml"><div xmlns="http://www.w3.org/1999/xhtml">结合后 -&gt; 酶构象变化 -&gt; 活性改变（激活或抑制）   </div></div></foreignObject></g><g data-depth="3" data-path="1.10.13" class="markmap-node" transform="translate(406, -328.421875)"><line stroke="#ff7f0e" stroke-width="1.375" x1="-1" x2="210" y1="21.6875" y2="21.6875"/><foreignObject class="markmap-foreign" x="8" y="0" style="opacity: 1;" width="192" height="21"><div xmlns="http://www.w3.org/1999/xhtml"><div xmlns="http://www.w3.org/1999/xhtml"><strong>别构酶</strong> -&gt; 受别构调节的酶   </div></div></foreignObject></g><g data-depth="3" data-path="1.10.14" class="markmap-node" transform="translate(406, -301.046875)"><line stroke="#2ca02c" stroke-width="1.375" x1="-1" x2="290" y1="21.6875" y2="21.6875"/><foreignObject class="markmap-foreign" x="8" y="0" style="opacity: 1;" width="272" height="21"><div xmlns="http://www.w3.org/1999/xhtml"><div xmlns="http://www.w3.org/1999/xhtml"><strong>别构效应剂</strong> -&gt; 引起别构效应的小分子   </div></div></foreignObject></g><g data-depth="3" data-path="1.10.15" class="markmap-node" transform="translate(406, -273.671875)"><line stroke="#ff7f0e" stroke-width="1.375" x1="-1" x2="242" y1="21.6875" y2="21.6875"/><foreignObject class="markmap-foreign" x="8" y="0" style="opacity: 1;" width="224" height="21"><div xmlns="http://www.w3.org/1999/xhtml"><div xmlns="http://www.w3.org/1999/xhtml"><strong>别构部位</strong> -&gt; 效应剂结合的部位   </div></div></foreignObject></g><g data-depth="4" data-path="1.10.16.17" class="markmap-node" transform="translate(609, -241.296875)"><line stroke="#d62728" stroke-width="1.1875" x1="-1" x2="241" y1="21.59375" y2="21.59375"/><foreignObject class="markmap-foreign" x="8" y="0" style="opacity: 1;" width="223" height="21"><div xmlns="http://www.w3.org/1999/xhtml"><div xmlns="http://www.w3.org/1999/xhtml">大多为<strong>寡聚酶</strong> -&gt; 含 ≥2 个亚基   </div></div></foreignObject></g><g data-depth="4" data-path="1.10.16.18" class="markmap-node" transform="translate(609, -214.109375)"><line stroke="#9467bd" stroke-width="1.1875" x1="-1" x2="349" y1="21.59375" y2="21.59375"/><foreignObject class="markmap-foreign" x="8" y="0" style="opacity: 1;" width="331" height="21"><div xmlns="http://www.w3.org/1999/xhtml"><div xmlns="http://www.w3.org/1999/xhtml">催化部位和调节部位可在<strong>同一亚基</strong>或<strong>不同亚基</strong>   </div></div></foreignObject></g><g data-depth="5" data-path="1.10.16.19.20" class="markmap-node" transform="translate(812, -181.921875)"><line stroke="#e377c2" stroke-width="1.09375" x1="-1" x2="487" y1="21.546875" y2="21.546875"/><foreignObject class="markmap-foreign" x="8" y="0" style="opacity: 1;" width="469" height="21"><div xmlns="http://www.w3.org/1999/xhtml"><div xmlns="http://www.w3.org/1999/xhtml"><strong>正协同效应</strong> -&gt; 一个催化部位结合后 -&gt; 其它部位对底物亲和力<strong>增强</strong>   </div></div></foreignObject></g><g data-depth="5" data-path="1.10.16.19.21" class="markmap-node" transform="translate(812, -154.828125)"><line stroke="#7f7f7f" stroke-width="1.09375" x1="-1" x2="487" y1="21.546875" y2="21.546875"/><foreignObject class="markmap-foreign" x="8" y="0" style="opacity: 1;" width="469" height="21"><div xmlns="http://www.w3.org/1999/xhtml"><div xmlns="http://www.w3.org/1999/xhtml"><strong>负协同效应</strong> -&gt; 一个催化部位结合后 -&gt; 其它部位对底物亲和力<strong>降低</strong>   </div></div></foreignObject></g><g data-depth="4" data-path="1.10.16.19" class="markmap-node" transform="translate(609, -168.375)"><line stroke="#8c564b" stroke-width="1.1875" x1="-1" x2="125" y1="21.59375" y2="21.59375"/><circle stroke-width="1.5" r="6" stroke="#8c564b" fill="var(--markmap-circle-open-bg)" cx="123" cy="21.59375"/><foreignObject class="markmap-foreign" x="8" y="0" style="opacity: 1;" width="107" height="21"><div xmlns="http://www.w3.org/1999/xhtml"><div xmlns="http://www.w3.org/1999/xhtml">具有<strong>协同效应</strong>   </div></div></foreignObject></g><g data-depth="4" data-path="1.10.16.22" class="markmap-node" transform="translate(609, -122.734375)"><line stroke="#bcbd22" stroke-width="1.1875" x1="-1" x2="321" y1="21.59375" y2="21.59375"/><foreignObject class="markmap-foreign" x="8" y="0" style="opacity: 1;" width="303" height="21"><div xmlns="http://www.w3.org/1999/xhtml"><div xmlns="http://www.w3.org/1999/xhtml">动力学曲线 -&gt; <strong>S形</strong>曲线 -&gt; <strong>不符合</strong>米氏方程   </div></div></foreignObject></g><g data-depth="4" data-path="1.10.16.23" class="markmap-node" transform="translate(609, -95.546875)"><line stroke="#17becf" stroke-width="1.1875" x1="-1" x2="306" y1="21.59375" y2="21.59375"/><foreignObject class="markmap-foreign" x="8" y="0" style="opacity: 1;" width="288" height="21"><div xmlns="http://www.w3.org/1999/xhtml"><div xmlns="http://www.w3.org/1999/xhtml">催化<strong>非平衡反应</strong> -&gt; 多为代谢途径<strong>关键酶</strong>   </div></div></foreignObject></g><g data-depth="3" data-path="1.10.16" class="markmap-node" transform="translate(406, -168.421875)"><line stroke="#2ca02c" stroke-width="1.375" x1="-1" x2="125" y1="21.6875" y2="21.6875"/><circle stroke-width="1.5" r="6" stroke="#2ca02c" fill="var(--markmap-circle-open-bg)" cx="123" cy="21.6875"/><foreignObject class="markmap-foreign" x="8" y="0" style="opacity: 1;" width="107" height="21"><div xmlns="http://www.w3.org/1999/xhtml"><div xmlns="http://www.w3.org/1999/xhtml">别构调节特点   </div></div></foreignObject></g><g data-depth="2" data-path="1.10" class="markmap-node" transform="translate(235, -275.796875)"><line stroke="#bcbd22" stroke-width="1.75" x1="-1" x2="93" y1="21.875" y2="21.875"/><circle stroke-width="1.5" r="6" stroke="#bcbd22" fill="var(--markmap-circle-open-bg)" cx="91" cy="21.875"/><foreignObject class="markmap-foreign" x="8" y="0" style="opacity: 1;" width="75" height="21"><div xmlns="http://www.w3.org/1999/xhtml"><div xmlns="http://www.w3.org/1999/xhtml"><strong>别构调节</strong>   </div></div></foreignObject></g><g data-depth="3" data-path="1.24.25" class="markmap-node" transform="translate(534, -63.359375)"><line stroke="#7f7f7f" stroke-width="1.375" x1="-1" x2="514" y1="21.6875" y2="21.6875"/><foreignObject class="markmap-foreign" x="8" y="0" style="opacity: 1;" width="496" height="21"><div xmlns="http://www.w3.org/1999/xhtml"><div xmlns="http://www.w3.org/1999/xhtml">酶蛋白氨基酸残基与基团在另一酶催化下<strong>共价结合</strong>或<strong>脱去</strong> -&gt; 活性改变   </div></div></foreignObject></g><g data-depth="3" data-path="1.24.26" class="markmap-node" transform="translate(534, -35.984375)"><line stroke="#bcbd22" stroke-width="1.375" x1="-1" x2="258" y1="21.6875" y2="21.6875"/><foreignObject class="markmap-foreign" x="8" y="0" style="opacity: 1;" width="240" height="21"><div xmlns="http://www.w3.org/1999/xhtml"><div xmlns="http://www.w3.org/1999/xhtml">最常见方式 -&gt; <strong>磷酸化与去磷酸化</strong>   </div></div></foreignObject></g><g data-depth="4" data-path="1.24.27.28" class="markmap-node" transform="translate(705, -3.609375)"><line stroke="#1f77b4" stroke-width="1.1875" x1="-1" x2="157" y1="21.59375" y2="21.59375"/><foreignObject class="markmap-foreign" x="8" y="0" style="opacity: 1;" width="139" height="21"><div xmlns="http://www.w3.org/1999/xhtml"><div xmlns="http://www.w3.org/1999/xhtml">乙酰化与去乙酰化   </div></div></foreignObject></g><g data-depth="4" data-path="1.24.27.29" class="markmap-node" transform="translate(705, 23.578125)"><line stroke="#ff7f0e" stroke-width="1.1875" x1="-1" x2="157" y1="21.59375" y2="21.59375"/><foreignObject class="markmap-foreign" x="8" y="0" style="opacity: 1;" width="139" height="21"><div xmlns="http://www.w3.org/1999/xhtml"><div xmlns="http://www.w3.org/1999/xhtml">甲基化与去甲基化   </div></div></foreignObject></g><g data-depth="4" data-path="1.24.27.30" class="markmap-node" transform="translate(705, 50.765625)"><line stroke="#2ca02c" stroke-width="1.1875" x1="-1" x2="157" y1="21.59375" y2="21.59375"/><foreignObject class="markmap-foreign" x="8" y="0" style="opacity: 1;" width="139" height="21"><div xmlns="http://www.w3.org/1999/xhtml"><div xmlns="http://www.w3.org/1999/xhtml">腺苷化与去腺苷化   </div></div></foreignObject></g><g data-depth="4" data-path="1.24.27.31" class="markmap-node" transform="translate(705, 77.953125)"><line stroke="#d62728" stroke-width="1.1875" x1="-1" x2="153" y1="21.59375" y2="21.59375"/><foreignObject class="markmap-foreign" x="8" y="0" style="opacity: 1;" width="135" height="21"><div xmlns="http://www.w3.org/1999/xhtml"><div xmlns="http://www.w3.org/1999/xhtml"><strong>-SH 与 -S-S- 互变</strong>   </div></div></foreignObject></g><g data-depth="3" data-path="1.24.27" class="markmap-node" transform="translate(534, 37.171875)"><line stroke="#17becf" stroke-width="1.375" x1="-1" x2="93" y1="21.6875" y2="21.6875"/><circle stroke-width="1.5" r="6" stroke="#17becf" fill="var(--markmap-circle-open-bg)" cx="91" cy="21.6875"/><foreignObject class="markmap-foreign" x="8" y="0" style="opacity: 1;" width="75" height="21"><div xmlns="http://www.w3.org/1999/xhtml"><div xmlns="http://www.w3.org/1999/xhtml">其它方式   </div></div></foreignObject></g><g data-depth="3" data-path="1.24.32" class="markmap-node" transform="translate(534, 110.140625)"><line stroke="#9467bd" stroke-width="1.375" x1="-1" x2="141" y1="21.6875" y2="21.6875"/><foreignObject class="markmap-foreign" x="8" y="0" style="opacity: 1;" width="123" height="21"><div xmlns="http://www.w3.org/1999/xhtml"><div xmlns="http://www.w3.org/1999/xhtml">属于<strong>共价键</strong>改变   </div></div></foreignObject></g><g data-depth="2" data-path="1.24" class="markmap-node" transform="translate(235, 23.390625)"><line stroke="#e377c2" stroke-width="1.75" x1="-1" x2="221" y1="21.875" y2="21.875"/><circle stroke-width="1.5" r="6" stroke="#e377c2" fill="var(--markmap-circle-open-bg)" cx="219" cy="21.875"/><foreignObject class="markmap-foreign" x="8" y="0" style="opacity: 1;" width="203" height="21"><div xmlns="http://www.w3.org/1999/xhtml"><div xmlns="http://www.w3.org/1999/xhtml"><strong>化学修饰调节（共价修饰）</strong>   </div></div></foreignObject></g><g data-depth="3" data-path="1.33.34" class="markmap-node" transform="translate(406, 142.515625)"><line stroke="#e377c2" stroke-width="1.375" x1="-1" x2="306" y1="21.6875" y2="21.6875"/><foreignObject class="markmap-foreign" x="8" y="0" style="opacity: 1;" width="288" height="21"><div xmlns="http://www.w3.org/1999/xhtml"><div xmlns="http://www.w3.org/1999/xhtml"><strong>酶原</strong> -&gt; 酶在细胞内合成时的<strong>无活性前体</strong>   </div></div></foreignObject></g><g data-depth="3" data-path="1.33.35" class="markmap-node" transform="translate(406, 169.890625)"><line stroke="#7f7f7f" stroke-width="1.375" x1="-1" x2="322" y1="21.6875" y2="21.6875"/><foreignObject class="markmap-foreign" x="8" y="0" style="opacity: 1;" width="304" height="21"><div xmlns="http://www.w3.org/1999/xhtml"><div xmlns="http://www.w3.org/1999/xhtml"><strong>酶原激活</strong> -&gt; 无活性酶原→有活性酶的过程   </div></div></foreignObject></g><g data-depth="3" data-path="1.33.36" class="markmap-node" transform="translate(406, 197.265625)"><line stroke="#bcbd22" stroke-width="1.375" x1="-1" x2="258" y1="21.6875" y2="21.6875"/><foreignObject class="markmap-foreign" x="8" y="0" style="opacity: 1;" width="240" height="21"><div xmlns="http://www.w3.org/1999/xhtml"><div xmlns="http://www.w3.org/1999/xhtml">激活本质 -&gt; <strong>活性中心形成或暴露</strong>   </div></div></foreignObject></g><g data-depth="4" data-path="1.33.37.38" class="markmap-node" transform="translate(577, 229.640625)"><line stroke="#1f77b4" stroke-width="1.1875" x1="-1" x2="567" y1="21.59375" y2="21.59375"/><foreignObject class="markmap-foreign" x="8" y="0" style="opacity: 1;" width="549" height="21"><div xmlns="http://www.w3.org/1999/xhtml"><div xmlns="http://www.w3.org/1999/xhtml">酶原 -&gt; 特定条件下<strong>肽键断裂</strong> -&gt; 水解掉短肽 -&gt; 构象改变 -&gt; 活性中心形成/暴露   </div></div></foreignObject></g><g data-depth="3" data-path="1.33.37" class="markmap-node" transform="translate(406, 229.640625)"><line stroke="#17becf" stroke-width="1.375" x1="-1" x2="93" y1="21.6875" y2="21.6875"/><circle stroke-width="1.5" r="6" stroke="#17becf" fill="var(--markmap-circle-open-bg)" cx="91" cy="21.6875"/><foreignObject class="markmap-foreign" x="8" y="0" style="opacity: 1;" width="75" height="21"><div xmlns="http://www.w3.org/1999/xhtml"><div xmlns="http://www.w3.org/1999/xhtml">激活机理   </div></div></foreignObject></g><g data-depth="4" data-path="1.33.39.40" class="markmap-node" transform="translate(609, 261.828125)"><line stroke="#2ca02c" stroke-width="1.1875" x1="-1" x2="287" y1="21.59375" y2="21.59375"/><foreignObject class="markmap-foreign" x="8" y="0" style="opacity: 1;" width="269" height="21"><div xmlns="http://www.w3.org/1999/xhtml"><div xmlns="http://www.w3.org/1999/xhtml"><strong>胰蛋白酶原</strong> -&gt;（<strong>肠激酶</strong>）-&gt; <strong>胰蛋白酶</strong>   </div></div></foreignObject></g><g data-depth="4" data-path="1.33.39.41" class="markmap-node" transform="translate(609, 289.015625)"><line stroke="#d62728" stroke-width="1.1875" x1="-1" x2="754" y1="21.59375" y2="21.59375"/><foreignObject class="markmap-foreign" x="8" y="0" style="opacity: 1;" width="736" height="21"><div xmlns="http://www.w3.org/1999/xhtml"><div xmlns="http://www.w3.org/1999/xhtml">胰蛋白酶 -&gt; 继而激活：糜蛋白酶原 → 糜蛋白酶 / 弹性蛋白酶原 → 弹性蛋白酶 / 羧基肽酶原 → 羧基肽酶   </div></div></foreignObject></g><g data-depth="3" data-path="1.33.39" class="markmap-node" transform="translate(406, 275.421875)"><line stroke="#ff7f0e" stroke-width="1.375" x1="-1" x2="125" y1="21.6875" y2="21.6875"/><circle stroke-width="1.5" r="6" stroke="#ff7f0e" fill="var(--markmap-circle-open-bg)" cx="123" cy="21.6875"/><foreignObject class="markmap-foreign" x="8" y="0" style="opacity: 1;" width="107" height="21"><div xmlns="http://www.w3.org/1999/xhtml"><div xmlns="http://www.w3.org/1999/xhtml">经典级联实例   </div></div></foreignObject></g><g data-depth="4" data-path="1.33.42.43" class="markmap-node" transform="translate(577, 321.203125)"><line stroke="#8c564b" stroke-width="1.1875" x1="-1" x2="317" y1="21.59375" y2="21.59375"/><foreignObject class="markmap-foreign" x="8" y="0" style="opacity: 1;" width="299" height="21"><div xmlns="http://www.w3.org/1999/xhtml"><div xmlns="http://www.w3.org/1999/xhtml">保证酶在<strong>特定部位和环境下</strong>发挥催化作用   </div></div></foreignObject></g><g data-depth="4" data-path="1.33.42.44" class="markmap-node" transform="translate(577, 348.390625)"><line stroke="#e377c2" stroke-width="1.1875" x1="-1" x2="349" y1="21.59375" y2="21.59375"/><foreignObject class="markmap-foreign" x="8" y="0" style="opacity: 1;" width="331" height="21"><div xmlns="http://www.w3.org/1999/xhtml"><div xmlns="http://www.w3.org/1999/xhtml">避免组织<strong>自身消化</strong>（如消化酶原、凝血酶原）   </div></div></foreignObject></g><g data-depth="4" data-path="1.33.42.45" class="markmap-node" transform="translate(577, 375.578125)"><line stroke="#7f7f7f" stroke-width="1.1875" x1="-1" x2="205" y1="21.59375" y2="21.59375"/><foreignObject class="markmap-foreign" x="8" y="0" style="opacity: 1;" width="187" height="21"><div xmlns="http://www.w3.org/1999/xhtml"><div xmlns="http://www.w3.org/1999/xhtml">酶原可视为酶的<strong>贮存形式</strong>   </div></div></foreignObject></g><g data-depth="3" data-path="1.33.42" class="markmap-node" transform="translate(406, 348.390625)"><line stroke="#9467bd" stroke-width="1.375" x1="-1" x2="93" y1="21.6875" y2="21.6875"/><circle stroke-width="1.5" r="6" stroke="#9467bd" fill="var(--markmap-circle-open-bg)" cx="91" cy="21.6875"/><foreignObject class="markmap-foreign" x="8" y="0" style="opacity: 1;" width="75" height="21"><div xmlns="http://www.w3.org/1999/xhtml"><div xmlns="http://www.w3.org/1999/xhtml">生理意义   </div></div></foreignObject></g><g data-depth="2" data-path="1.33" class="markmap-node" transform="translate(235, 245.453125)"><line stroke="#8c564b" stroke-width="1.75" x1="-1" x2="93" y1="21.875" y2="21.875"/><circle stroke-width="1.5" r="6" stroke="#8c564b" fill="var(--markmap-circle-open-bg)" cx="91" cy="21.875"/><foreignObject class="markmap-foreign" x="8" y="0" style="opacity: 1;" width="75" height="21"><div xmlns="http://www.w3.org/1999/xhtml"><div xmlns="http://www.w3.org/1999/xhtml"><strong>酶原激活</strong>   </div></div></foreignObject></g><g data-depth="3" data-path="1.46.47" class="markmap-node" transform="translate(534, 407.765625)"><line stroke="#8c564b" stroke-width="1.375" x1="-1" x2="306" y1="21.6875" y2="21.6875"/><foreignObject class="markmap-foreign" x="8" y="0" style="opacity: 1;" width="288" height="21"><div xmlns="http://www.w3.org/1999/xhtml"><div xmlns="http://www.w3.org/1999/xhtml"><strong>酶蛋白合成诱导</strong> -&gt; 转录水平促进酶合成   </div></div></foreignObject></g><g data-depth="3" data-path="1.46.48" class="markmap-node" transform="translate(534, 435.140625)"><line stroke="#bcbd22" stroke-width="1.375" x1="-1" x2="306" y1="21.6875" y2="21.6875"/><foreignObject class="markmap-foreign" x="8" y="0" style="opacity: 1;" width="288" height="21"><div xmlns="http://www.w3.org/1999/xhtml"><div xmlns="http://www.w3.org/1999/xhtml"><strong>酶蛋白合成阻遏</strong> -&gt; 转录水平减少酶合成   </div></div></foreignObject></g><g data-depth="4" data-path="1.46.49.50" class="markmap-node" transform="translate(721, 467.515625)"><line stroke="#1f77b4" stroke-width="1.1875" x1="-1" x2="220" y1="21.59375" y2="21.59375"/><foreignObject class="markmap-foreign" x="8" y="0" style="opacity: 1;" width="202" height="21"><div xmlns="http://www.w3.org/1999/xhtml"><div xmlns="http://www.w3.org/1999/xhtml">溶酶体途径（不依赖 ATP）   </div></div></foreignObject></g><g data-depth="4" data-path="1.46.49.51" class="markmap-node" transform="translate(721, 494.703125)"><line stroke="#ff7f0e" stroke-width="1.1875" x1="-1" x2="269" y1="21.59375" y2="21.59375"/><foreignObject class="markmap-foreign" x="8" y="0" style="opacity: 1;" width="251" height="21"><div xmlns="http://www.w3.org/1999/xhtml"><div xmlns="http://www.w3.org/1999/xhtml">非溶酶体途径（依赖 <strong>ATP</strong> + <strong>泛素</strong>）   </div></div></foreignObject></g><g data-depth="3" data-path="1.46.49" class="markmap-node" transform="translate(534, 481.109375)"><line stroke="#17becf" stroke-width="1.375" x1="-1" x2="109" y1="21.6875" y2="21.6875"/><circle stroke-width="1.5" r="6" stroke="#17becf" fill="var(--markmap-circle-open-bg)" cx="107" cy="21.6875"/><foreignObject class="markmap-foreign" x="8" y="0" style="opacity: 1;" width="91" height="21"><div xmlns="http://www.w3.org/1999/xhtml"><div xmlns="http://www.w3.org/1999/xhtml"><strong>酶蛋白降解</strong>   </div></div></foreignObject></g><g data-depth="2" data-path="1.46" class="markmap-node" transform="translate(235, 444.4375)"><line stroke="#9467bd" stroke-width="1.75" x1="-1" x2="221" y1="21.875" y2="21.875"/><circle stroke-width="1.5" r="6" stroke="#9467bd" fill="var(--markmap-circle-open-bg)" cx="219" cy="21.875"/><foreignObject class="markmap-foreign" x="8" y="0" style="opacity: 1;" width="203" height="21"><div xmlns="http://www.w3.org/1999/xhtml"><div xmlns="http://www.w3.org/1999/xhtml"><strong>酶含量的调节（慢速调节）</strong>   </div></div></foreignObject></g><g data-depth="1" data-path="1" class="markmap-node" transform="translate(0, -10.5)"><line stroke="#1f77b4" stroke-width="2.5" x1="-1" x2="157" y1="22.25" y2="22.25"/><circle stroke-width="1.5" r="6" stroke="#1f77b4" fill="var(--markmap-circle-open-bg)" cx="155" cy="22.25"/><foreignObject class="markmap-foreign" x="8" y="0" style="opacity: 1;" width="139" height="21"><div xmlns="http://www.w3.org/1999/xhtml"><div xmlns="http://www.w3.org/1999/xhtml">酶活性的调节方式   </div></div></foreignObject></g></g></svg>