<svg xmlns="http://www.w3.org/2000/svg" class="w-full h-full leading-none markmap mm-ki3lx0-1" style=""><style>.markmap{--markmap-max-width: 9999px;--markmap-a-color: #0097e6;--markmap-a-hover-color: #00a8ff;--markmap-code-bg: #f0f0f0;--markmap-code-color: #555;--markmap-highlight-bg: #ffeaa7;--markmap-table-border: 1px solid currentColor;--markmap-font: 300 16px/20px sans-serif;--markmap-circle-open-bg: #fff;--markmap-text-color: #333;--markmap-highlight-node-bg: #ff02;font:var(--markmap-font);color:var(--markmap-text-color)}.markmap-link{fill:none}.markmap-node&gt;circle{cursor:pointer}.markmap-foreign{display:inline-block}.markmap-foreign p{margin:0}.markmap-foreign a{color:var(--markmap-a-color)}.markmap-foreign a:hover{color:var(--markmap-a-hover-color)}.markmap-foreign code{padding:.25em;font-size:calc(1em - 2px);color:var(--markmap-code-color);background-color:var(--markmap-code-bg);border-radius:2px}.markmap-foreign pre{margin:0}.markmap-foreign pre&gt;code{display:block}.markmap-foreign del{text-decoration:line-through}.markmap-foreign em{font-style:italic}.markmap-foreign strong{font-weight:700}.markmap-foreign mark{background:var(--markmap-highlight-bg)}.markmap-foreign table,.markmap-foreign th,.markmap-foreign td{border-collapse:collapse;border:var(--markmap-table-border)}.markmap-foreign img{display:inline-block}.markmap-foreign svg{fill:currentColor}.markmap-foreign&gt;div{width:var(--markmap-max-width);text-align:left}.markmap-foreign&gt;div&gt;div{display:inline-block}.markmap-highlight rect{fill:var(--markmap-highlight-node-bg)}.markmap-dark .markmap{--markmap-code-bg: #1a1b26;--markmap-code-color: #ddd;--markmap-circle-open-bg: #444;--markmap-text-color: #eee}</style><g transform="translate(13.176491055719396,355.40303568620965) scale(0.5485899143376501)"><path class="markmap-link" data-depth="4" data-path="1.2.4.5" d="M725,-279.406C765,-279.406,765,-306.687,805,-306.687" stroke-width="1.1875" stroke="rgb(214, 39, 40)"/><path class="markmap-link" data-depth="4" data-path="1.2.4.6" d="M725,-279.406C765,-279.406,765,-279.5,805,-279.5" stroke-width="1.1875" stroke="rgb(148, 103, 189)"/><path class="markmap-link" data-depth="4" data-path="1.2.4.7" d="M725,-279.406C765,-279.406,765,-252.312,805,-252.312" stroke-width="1.1875" stroke="rgb(140, 86, 75)"/><path class="markmap-link" data-depth="3" data-path="1.2.3" d="M581,-265.625C621,-265.625,621,-338.969,661,-338.969" stroke-width="1.375" stroke="rgb(148, 103, 189)"/><path class="markmap-link" data-depth="3" data-path="1.2.4" d="M581,-265.625C621,-265.625,621,-279.406,661,-279.406" stroke-width="1.375" stroke="rgb(127, 127, 127)"/><path class="markmap-link" data-depth="3" data-path="1.2.8" d="M581,-265.625C621,-265.625,621,-220.031,661,-220.031" stroke-width="1.375" stroke="rgb(227, 119, 194)"/><path class="markmap-link" data-depth="3" data-path="1.2.9" d="M581,-265.625C621,-265.625,621,-192.656,661,-192.656" stroke-width="1.375" stroke="rgb(227, 119, 194)"/><path class="markmap-link" data-depth="4" data-path="1.10.12.13" d="M741,-100.719C781,-100.719,781,-128,821,-128" stroke-width="1.1875" stroke="rgb(127, 127, 127)"/><path class="markmap-link" data-depth="4" data-path="1.10.12.14" d="M741,-100.719C781,-100.719,781,-100.812,821,-100.812" stroke-width="1.1875" stroke="rgb(188, 189, 34)"/><path class="markmap-link" data-depth="4" data-path="1.10.12.15" d="M741,-100.719C781,-100.719,781,-73.625,821,-73.625" stroke-width="1.1875" stroke="rgb(23, 190, 207)"/><path class="markmap-link" data-depth="4" data-path="1.10.17.18" d="M1050,-13.969C1090,-13.969,1090,-27.656,1130,-27.656" stroke-width="1.1875" stroke="rgb(44, 160, 44)"/><path class="markmap-link" data-depth="4" data-path="1.10.17.19" d="M1050,-13.969C1090,-13.969,1090,-0.469,1130,-0.469" stroke-width="1.1875" stroke="rgb(214, 39, 40)"/><path class="markmap-link" data-depth="3" data-path="1.10.11" d="M597,-64.047C637,-64.047,637,-160.281,677,-160.281" stroke-width="1.375" stroke="rgb(148, 103, 189)"/><path class="markmap-link" data-depth="3" data-path="1.10.12" d="M597,-64.047C637,-64.047,637,-100.719,677,-100.719" stroke-width="1.375" stroke="rgb(140, 86, 75)"/><path class="markmap-link" data-depth="3" data-path="1.10.16" d="M597,-64.047C637,-64.047,637,-41.344,677,-41.344" stroke-width="1.375" stroke="rgb(31, 119, 180)"/><path class="markmap-link" data-depth="3" data-path="1.10.17" d="M597,-64.047C637,-64.047,637,-13.969,677,-13.969" stroke-width="1.375" stroke="rgb(255, 127, 14)"/><path class="markmap-link" data-depth="3" data-path="1.10.20" d="M597,-64.047C637,-64.047,637,31.813,677,31.813" stroke-width="1.375" stroke="rgb(148, 103, 189)"/><path class="markmap-link" data-depth="3" data-path="1.21.22" d="M731,146.5C771,146.5,771,64.188,811,64.188" stroke-width="1.375" stroke="rgb(31, 119, 180)"/><path class="markmap-link" data-depth="3" data-path="1.21.23" d="M731,146.5C771,146.5,771,91.563,811,91.563" stroke-width="1.375" stroke="rgb(255, 127, 14)"/><path class="markmap-link" data-depth="3" data-path="1.21.24" d="M731,146.5C771,146.5,771,118.938,811,118.938" stroke-width="1.375" stroke="rgb(44, 160, 44)"/><path class="markmap-link" data-depth="3" data-path="1.21.25" d="M731,146.5C771,146.5,771,146.313,811,146.313" stroke-width="1.375" stroke="rgb(140, 86, 75)"/><path class="markmap-link" data-depth="3" data-path="1.21.26" d="M731,146.5C771,146.5,771,173.688,811,173.688" stroke-width="1.375" stroke="rgb(227, 119, 194)"/><path class="markmap-link" data-depth="3" data-path="1.21.27" d="M731,146.5C771,146.5,771,201.063,811,201.063" stroke-width="1.375" stroke="rgb(127, 127, 127)"/><path class="markmap-link" data-depth="3" data-path="1.21.28" d="M731,146.5C771,146.5,771,228.438,811,228.438" stroke-width="1.375" stroke="rgb(188, 189, 34)"/><path class="markmap-link" data-depth="3" data-path="1.29.30" d="M549,288.375C589,288.375,589,260.813,629,260.813" stroke-width="1.375" stroke="rgb(148, 103, 189)"/><path class="markmap-link" data-depth="3" data-path="1.29.31" d="M549,288.375C589,288.375,589,288.188,629,288.188" stroke-width="1.375" stroke="rgb(140, 86, 75)"/><path class="markmap-link" data-depth="3" data-path="1.29.32" d="M549,288.375C589,288.375,589,315.563,629,315.563" stroke-width="1.375" stroke="rgb(227, 119, 194)"/><path class="markmap-link" data-depth="2" data-path="1.2" d="M357,11.75C397,11.75,397,-265.625,437,-265.625" stroke-width="1.75" stroke="rgb(255, 127, 14)"/><path class="markmap-link" data-depth="2" data-path="1.10" d="M357,11.75C397,11.75,397,-64.047,437,-64.047" stroke-width="1.75" stroke="rgb(214, 39, 40)"/><path class="markmap-link" data-depth="2" data-path="1.21" d="M357,11.75C397,11.75,397,146.5,437,146.5" stroke-width="1.75" stroke="rgb(23, 190, 207)"/><path class="markmap-link" data-depth="2" data-path="1.29" d="M357,11.75C397,11.75,397,288.375,437,288.375" stroke-width="1.75" stroke="rgb(214, 39, 40)"/><g class="markmap-highlight"/><g data-depth="3" data-path="1.2.3" class="markmap-node" transform="translate(661, -360.65625)"><line stroke="#9467bd" stroke-width="1.375" x1="-1" x2="561" y1="21.6875" y2="21.6875"/><foreignObject class="markmap-foreign" x="8" y="0" style="opacity: 1;" width="543" height="21"><div xmlns="http://www.w3.org/1999/xhtml"><div xmlns="http://www.w3.org/1999/xhtml">通路：感受器 -&gt; <strong>三级神经元</strong>传送 -&gt; 丘脑<strong>特异感觉接替核</strong> -&gt; 皮层<strong>特定感觉区域</strong></div></div></foreignObject></g><g data-depth="4" data-path="1.2.4.5" class="markmap-node" transform="translate(805, -328.28125)"><line stroke="#d62728" stroke-width="1.1875" x1="-1" x2="146" y1="21.59375" y2="21.59375"/><foreignObject class="markmap-foreign" x="8" y="0" style="opacity: 1;" width="128" height="21"><div xmlns="http://www.w3.org/1999/xhtml"><div xmlns="http://www.w3.org/1999/xhtml">传入冲动有<strong>特异性</strong></div></div></foreignObject></g><g data-depth="4" data-path="1.2.4.6" class="markmap-node" transform="translate(805, -301.09375)"><line stroke="#9467bd" stroke-width="1.1875" x1="-1" x2="215" y1="21.59375" y2="21.59375"/><foreignObject class="markmap-foreign" x="8" y="0" style="opacity: 1;" width="197" height="21"><div xmlns="http://www.w3.org/1999/xhtml"><div xmlns="http://www.w3.org/1999/xhtml"><strong>点对点</strong>精确投射 -&gt; 定位精确</div></div></foreignObject></g><g data-depth="4" data-path="1.2.4.7" class="markmap-node" transform="translate(805, -273.90625)"><line stroke="#8c564b" stroke-width="1.1875" x1="-1" x2="210" y1="21.59375" y2="21.59375"/><foreignObject class="markmap-foreign" x="8" y="0" style="opacity: 1;" width="192" height="21"><div xmlns="http://www.w3.org/1999/xhtml"><div xmlns="http://www.w3.org/1999/xhtml">三级神经元接替（少突触）</div></div></foreignObject></g><g data-depth="3" data-path="1.2.4" class="markmap-node" transform="translate(661, -301.09375)"><line stroke="#7f7f7f" stroke-width="1.375" x1="-1" x2="66" y1="21.6875" y2="21.6875"/><circle stroke-width="1.5" r="6" stroke="#7f7f7f" fill="var(--markmap-circle-open-bg)" cx="64" cy="21.6875"/><foreignObject class="markmap-foreign" x="8" y="0" style="opacity: 1;" width="48" height="21"><div xmlns="http://www.w3.org/1999/xhtml"><div xmlns="http://www.w3.org/1999/xhtml">特点：</div></div></foreignObject></g><g data-depth="3" data-path="1.2.8" class="markmap-node" transform="translate(661, -241.71875)"><line stroke="#e377c2" stroke-width="1.375" x1="-1" x2="370" y1="21.6875" y2="21.6875"/><foreignObject class="markmap-foreign" x="8" y="0" style="opacity: 1;" width="352" height="21"><div xmlns="http://www.w3.org/1999/xhtml"><div xmlns="http://www.w3.org/1999/xhtml">功能：产生<strong>特定感觉</strong> + 激发大脑皮层发出神经冲动</div></div></foreignObject></g><g data-depth="3" data-path="1.2.9" class="markmap-node" transform="translate(661, -214.34375)"><line stroke="#e377c2" stroke-width="1.375" x1="-1" x2="218" y1="21.6875" y2="21.6875"/><foreignObject class="markmap-foreign" x="8" y="0" style="opacity: 1;" width="200" height="21"><div xmlns="http://www.w3.org/1999/xhtml"><div xmlns="http://www.w3.org/1999/xhtml">实例：视/听/触-压/本体感觉</div></div></foreignObject></g><g data-depth="2" data-path="1.2" class="markmap-node" transform="translate(437, -287.5)"><line stroke="#ff7f0e" stroke-width="1.75" x1="-1" x2="146" y1="21.875" y2="21.875"/><circle stroke-width="1.5" r="6" stroke="#ff7f0e" fill="var(--markmap-circle-open-bg)" cx="144" cy="21.875"/><foreignObject class="markmap-foreign" x="8" y="0" style="opacity: 1;" width="128" height="21"><div xmlns="http://www.w3.org/1999/xhtml"><div xmlns="http://www.w3.org/1999/xhtml">★特异性投射系统</div></div></foreignObject></g><g data-depth="3" data-path="1.10.11" class="markmap-node" transform="translate(677, -181.96875)"><line stroke="#9467bd" stroke-width="1.375" x1="-1" x2="717" y1="21.6875" y2="21.6875"/><foreignObject class="markmap-foreign" x="8" y="0" style="opacity: 1;" width="699" height="21"><div xmlns="http://www.w3.org/1999/xhtml"><div xmlns="http://www.w3.org/1999/xhtml">通路：各种感觉传入 -&gt; <strong>脑干网状结构</strong>（多突触换元）-&gt; 丘脑<strong>髓板内核群</strong> -&gt; 皮层<strong>广泛区域弥散性投射</strong></div></div></foreignObject></g><g data-depth="4" data-path="1.10.12.13" class="markmap-node" transform="translate(821, -149.59375)"><line stroke="#7f7f7f" stroke-width="1.1875" x1="-1" x2="146" y1="21.59375" y2="21.59375"/><foreignObject class="markmap-foreign" x="8" y="0" style="opacity: 1;" width="128" height="21"><div xmlns="http://www.w3.org/1999/xhtml"><div xmlns="http://www.w3.org/1999/xhtml">传入冲动<strong>无特异性</strong></div></div></foreignObject></g><g data-depth="4" data-path="1.10.12.14" class="markmap-node" transform="translate(821, -122.40625)"><line stroke="#bcbd22" stroke-width="1.1875" x1="-1" x2="215" y1="21.59375" y2="21.59375"/><foreignObject class="markmap-foreign" x="8" y="0" style="opacity: 1;" width="197" height="21"><div xmlns="http://www.w3.org/1999/xhtml"><div xmlns="http://www.w3.org/1999/xhtml"><strong>弥散性</strong>投射 -&gt; 无点对点关系</div></div></foreignObject></g><g data-depth="4" data-path="1.10.12.15" class="markmap-node" transform="translate(821, -95.21875)"><line stroke="#17becf" stroke-width="1.1875" x1="-1" x2="194" y1="21.59375" y2="21.59375"/><foreignObject class="markmap-foreign" x="8" y="0" style="opacity: 1;" width="176" height="21"><div xmlns="http://www.w3.org/1999/xhtml"><div xmlns="http://www.w3.org/1999/xhtml"><strong>多级神经元、多突触</strong>传送</div></div></foreignObject></g><g data-depth="3" data-path="1.10.12" class="markmap-node" transform="translate(677, -122.40625)"><line stroke="#8c564b" stroke-width="1.375" x1="-1" x2="66" y1="21.6875" y2="21.6875"/><circle stroke-width="1.5" r="6" stroke="#8c564b" fill="var(--markmap-circle-open-bg)" cx="64" cy="21.6875"/><foreignObject class="markmap-foreign" x="8" y="0" style="opacity: 1;" width="48" height="21"><div xmlns="http://www.w3.org/1999/xhtml"><div xmlns="http://www.w3.org/1999/xhtml">特点：</div></div></foreignObject></g><g data-depth="3" data-path="1.10.16" class="markmap-node" transform="translate(677, -63.03125)"><line stroke="#1f77b4" stroke-width="1.375" x1="-1" x2="338" y1="21.6875" y2="21.6875"/><foreignObject class="markmap-foreign" x="8" y="0" style="opacity: 1;" width="320" height="21"><div xmlns="http://www.w3.org/1999/xhtml"><div xmlns="http://www.w3.org/1999/xhtml">功能：<strong>维持大脑皮层的兴奋状态</strong>（维持<strong>觉醒</strong>）</div></div></foreignObject></g><g data-depth="4" data-path="1.10.17.18" class="markmap-node" transform="translate(1130, -49.25)"><line stroke="#2ca02c" stroke-width="1.1875" x1="-1" x2="135" y1="21.59375" y2="21.59375"/><foreignObject class="markmap-foreign" x="8" y="0" style="opacity: 1;" width="117" height="21"><div xmlns="http://www.w3.org/1999/xhtml"><div xmlns="http://www.w3.org/1999/xhtml">损伤 -&gt; <strong>昏睡不醒</strong></div></div></foreignObject></g><g data-depth="4" data-path="1.10.17.19" class="markmap-node" transform="translate(1130, -22.0625)"><line stroke="#d62728" stroke-width="1.1875" x1="-1" x2="247" y1="21.59375" y2="21.59375"/><foreignObject class="markmap-foreign" x="8" y="0" style="opacity: 1;" width="229" height="21"><div xmlns="http://www.w3.org/1999/xhtml"><div xmlns="http://www.w3.org/1999/xhtml">易受<strong>巴比妥类安眠药</strong>抑制 -&gt; 催眠</div></div></foreignObject></g><g data-depth="3" data-path="1.10.17" class="markmap-node" transform="translate(677, -35.65625)"><line stroke="#ff7f0e" stroke-width="1.375" x1="-1" x2="375" y1="21.6875" y2="21.6875"/><circle stroke-width="1.5" r="6" stroke="#ff7f0e" fill="var(--markmap-circle-open-bg)" cx="373" cy="21.6875"/><foreignObject class="markmap-foreign" x="8" y="0" style="opacity: 1;" width="357" height="21"><div xmlns="http://www.w3.org/1999/xhtml"><div xmlns="http://www.w3.org/1999/xhtml">脑干网状结构<strong>上行激活系统</strong> -&gt; 维持觉醒的核心通路</div></div></foreignObject></g><g data-depth="3" data-path="1.10.20" class="markmap-node" transform="translate(677, 10.125)"><line stroke="#9467bd" stroke-width="1.375" x1="-1" x2="402" y1="21.6875" y2="21.6875"/><foreignObject class="markmap-foreign" x="8" y="0" style="opacity: 1;" width="384" height="21"><div xmlns="http://www.w3.org/1999/xhtml"><div xmlns="http://www.w3.org/1999/xhtml">生理地位：是产生特定感觉的<strong>基础</strong>（无觉醒则无感觉）</div></div></foreignObject></g><g data-depth="2" data-path="1.10" class="markmap-node" transform="translate(437, -85.921875)"><line stroke="#d62728" stroke-width="1.75" x1="-1" x2="162" y1="21.875" y2="21.875"/><circle stroke-width="1.5" r="6" stroke="#d62728" fill="var(--markmap-circle-open-bg)" cx="160" cy="21.875"/><foreignObject class="markmap-foreign" x="8" y="0" style="opacity: 1;" width="144" height="21"><div xmlns="http://www.w3.org/1999/xhtml"><div xmlns="http://www.w3.org/1999/xhtml">★非特异性投射系统</div></div></foreignObject></g><g data-depth="3" data-path="1.21.22" class="markmap-node" transform="translate(811, 42.5)"><line stroke="#1f77b4" stroke-width="1.375" x1="-1" x2="348" y1="21.6875" y2="21.6875"/><foreignObject class="markmap-foreign" x="8" y="0" style="opacity: 1;" width="330" height="21"><div xmlns="http://www.w3.org/1999/xhtml"><div xmlns="http://www.w3.org/1999/xhtml">传入冲动：特异 = <strong>有特异性</strong> | 非特异 = <strong>无特异性</strong></div></div></foreignObject></g><g data-depth="3" data-path="1.21.23" class="markmap-node" transform="translate(811, 69.875)"><line stroke="#ff7f0e" stroke-width="1.375" x1="-1" x2="435" y1="21.6875" y2="21.6875"/><foreignObject class="markmap-foreign" x="8" y="0" style="opacity: 1;" width="417" height="21"><div xmlns="http://www.w3.org/1999/xhtml"><div xmlns="http://www.w3.org/1999/xhtml">换元次数：特异 = <strong>三级</strong>（少） | 非特异 = <strong>多级/多突触</strong>（多）</div></div></foreignObject></g><g data-depth="3" data-path="1.21.24" class="markmap-node" transform="translate(811, 97.25)"><line stroke="#2ca02c" stroke-width="1.375" x1="-1" x2="380" y1="21.6875" y2="21.6875"/><foreignObject class="markmap-foreign" x="8" y="0" style="opacity: 1;" width="362" height="21"><div xmlns="http://www.w3.org/1999/xhtml"><div xmlns="http://www.w3.org/1999/xhtml">投射部位：特异 = 皮层<strong>特定</strong>区 | 非特异 = 皮层<strong>广泛</strong>区</div></div></foreignObject></g><g data-depth="3" data-path="1.21.25" class="markmap-node" transform="translate(811, 124.625)"><line stroke="#8c564b" stroke-width="1.375" x1="-1" x2="380" y1="21.6875" y2="21.6875"/><foreignObject class="markmap-foreign" x="8" y="0" style="opacity: 1;" width="362" height="21"><div xmlns="http://www.w3.org/1999/xhtml"><div xmlns="http://www.w3.org/1999/xhtml">投射关系：特异 = <strong>点对点</strong>精确 | 非特异 = <strong>弥散性</strong>粗糙</div></div></foreignObject></g><g data-depth="3" data-path="1.21.26" class="markmap-node" transform="translate(811, 152)"><line stroke="#e377c2" stroke-width="1.375" x1="-1" x2="380" y1="21.6875" y2="21.6875"/><foreignObject class="markmap-foreign" x="8" y="0" style="opacity: 1;" width="362" height="21"><div xmlns="http://www.w3.org/1999/xhtml"><div xmlns="http://www.w3.org/1999/xhtml">生理作用：特异 = 产生<strong>特定感觉</strong> | 非特异 = <strong>维持觉醒</strong></div></div></foreignObject></g><g data-depth="3" data-path="1.21.27" class="markmap-node" transform="translate(811, 179.375)"><line stroke="#7f7f7f" stroke-width="1.375" x1="-1" x2="466" y1="21.6875" y2="21.6875"/><foreignObject class="markmap-foreign" x="8" y="0" style="opacity: 1;" width="448" height="21"><div xmlns="http://www.w3.org/1999/xhtml"><div xmlns="http://www.w3.org/1999/xhtml">相互关系：非特异是特异的<strong>基础</strong>（无觉醒则无法产生特定感觉）</div></div></foreignObject></g><g data-depth="3" data-path="1.21.28" class="markmap-node" transform="translate(811, 206.75)"><line stroke="#bcbd22" stroke-width="1.375" x1="-1" x2="428" y1="21.6875" y2="21.6875"/><foreignObject class="markmap-foreign" x="8" y="0" style="opacity: 1;" width="410" height="21"><div xmlns="http://www.w3.org/1999/xhtml"><div xmlns="http://www.w3.org/1999/xhtml">药物敏感：特异 = 不易受抑制 | 非特异 = <strong>易受巴比妥类</strong>抑制</div></div></foreignObject></g><g data-depth="2" data-path="1.21" class="markmap-node" transform="translate(437, 124.625)"><line stroke="#17becf" stroke-width="1.75" x1="-1" x2="296" y1="21.875" y2="21.875"/><circle stroke-width="1.5" r="6" stroke="#17becf" fill="var(--markmap-circle-open-bg)" cx="294" cy="21.875"/><foreignObject class="markmap-foreign" x="8" y="0" style="opacity: 1;" width="278" height="21"><div xmlns="http://www.w3.org/1999/xhtml"><div xmlns="http://www.w3.org/1999/xhtml">★两大系统全面对比（必考简答/论述）</div></div></foreignObject></g><g data-depth="3" data-path="1.29.30" class="markmap-node" transform="translate(629, 239.125)"><line stroke="#9467bd" stroke-width="1.375" x1="-1" x2="449" y1="21.6875" y2="21.6875"/><foreignObject class="markmap-foreign" x="8" y="0" style="opacity: 1;" width="431" height="21"><div xmlns="http://www.w3.org/1999/xhtml"><div xmlns="http://www.w3.org/1999/xhtml">巴比妥类安眠药 -&gt; 抑制上行激活系统 -&gt; 非特异系统↓ -&gt; 催眠</div></div></foreignObject></g><g data-depth="3" data-path="1.29.31" class="markmap-node" transform="translate(629, 266.5)"><line stroke="#8c564b" stroke-width="1.375" x1="-1" x2="386" y1="21.6875" y2="21.6875"/><foreignObject class="markmap-foreign" x="8" y="0" style="opacity: 1;" width="368" height="21"><div xmlns="http://www.w3.org/1999/xhtml"><div xmlns="http://www.w3.org/1999/xhtml">脑干网状结构损伤 -&gt; 上行激活系统阻断 -&gt; 昏迷/昏睡</div></div></foreignObject></g><g data-depth="3" data-path="1.29.32" class="markmap-node" transform="translate(629, 293.875)"><line stroke="#e377c2" stroke-width="1.375" x1="-1" x2="316" y1="21.6875" y2="21.6875"/><foreignObject class="markmap-foreign" x="8" y="0" style="opacity: 1;" width="298" height="21"><div xmlns="http://www.w3.org/1999/xhtml"><div xmlns="http://www.w3.org/1999/xhtml">全麻 -&gt; 抑制非特异性投射系统 -&gt; 意识消失</div></div></foreignObject></g><g data-depth="2" data-path="1.29" class="markmap-node" transform="translate(437, 266.5)"><line stroke="#d62728" stroke-width="1.75" x1="-1" x2="114" y1="21.875" y2="21.875"/><circle stroke-width="1.5" r="6" stroke="#d62728" fill="var(--markmap-circle-open-bg)" cx="112" cy="21.875"/><foreignObject class="markmap-foreign" x="8" y="0" style="opacity: 1;" width="96" height="21"><div xmlns="http://www.w3.org/1999/xhtml"><div xmlns="http://www.w3.org/1999/xhtml">临床实例联系</div></div></foreignObject></g><g data-depth="1" data-path="1" class="markmap-node" transform="translate(0, -10.5)"><line stroke="#1f77b4" stroke-width="2.5" x1="-1" x2="359" y1="22.25" y2="22.25"/><circle stroke-width="1.5" r="6" stroke="#1f77b4" fill="var(--markmap-circle-open-bg)" cx="357" cy="22.25"/><foreignObject class="markmap-foreign" x="8" y="0" style="opacity: 1;" width="341" height="21"><div xmlns="http://www.w3.org/1999/xhtml"><div xmlns="http://www.w3.org/1999/xhtml">两大感觉投射系统对比 — 微型速记导图（必考）</div></div></foreignObject></g></g></svg>