<svg xmlns="http://www.w3.org/2000/svg" class="w-full h-full leading-none markmap mm-gpvzjv-1" style=""><style>.markmap{--markmap-max-width: 9999px;--markmap-a-color: #0097e6;--markmap-a-hover-color: #00a8ff;--markmap-code-bg: #f0f0f0;--markmap-code-color: #555;--markmap-highlight-bg: #ffeaa7;--markmap-table-border: 1px solid currentColor;--markmap-font: 300 16px/20px sans-serif;--markmap-circle-open-bg: #fff;--markmap-text-color: #333;--markmap-highlight-node-bg: #ff02;font:var(--markmap-font);color:var(--markmap-text-color)}.markmap-link{fill:none}.markmap-node&gt;circle{cursor:pointer}.markmap-foreign{display:inline-block}.markmap-foreign p{margin:0}.markmap-foreign a{color:var(--markmap-a-color)}.markmap-foreign a:hover{color:var(--markmap-a-hover-color)}.markmap-foreign code{padding:.25em;font-size:calc(1em - 2px);color:var(--markmap-code-color);background-color:var(--markmap-code-bg);border-radius:2px}.markmap-foreign pre{margin:0}.markmap-foreign pre&gt;code{display:block}.markmap-foreign del{text-decoration:line-through}.markmap-foreign em{font-style:italic}.markmap-foreign strong{font-weight:700}.markmap-foreign mark{background:var(--markmap-highlight-bg)}.markmap-foreign table,.markmap-foreign th,.markmap-foreign td{border-collapse:collapse;border:var(--markmap-table-border)}.markmap-foreign img{display:inline-block}.markmap-foreign svg{fill:currentColor}.markmap-foreign&gt;div{width:var(--markmap-max-width);text-align:left}.markmap-foreign&gt;div&gt;div{display:inline-block}.markmap-highlight rect{fill:var(--markmap-highlight-node-bg)}.markmap-dark .markmap{--markmap-code-bg: #1a1b26;--markmap-code-color: #ddd;--markmap-circle-open-bg: #444;--markmap-text-color: #eee}</style><g transform="translate(32.55898356083017,372.56991131328493) scale(0.5339848952083103)"><path class="markmap-link" data-depth="4" data-path="1.3.4.5" d="M678,-182.984C718,-182.984,718,-223.859,758,-223.859" stroke-width="1.1875" stroke="rgb(227, 119, 194)"/><path class="markmap-link" data-depth="4" data-path="1.3.4.6" d="M678,-182.984C718,-182.984,718,-196.672,758,-196.672" stroke-width="1.1875" stroke="rgb(127, 127, 127)"/><path class="markmap-link" data-depth="4" data-path="1.3.4.7" d="M678,-182.984C718,-182.984,718,-169.484,758,-169.484" stroke-width="1.1875" stroke="rgb(188, 189, 34)"/><path class="markmap-link" data-depth="4" data-path="1.3.4.8" d="M678,-182.984C718,-182.984,718,-142.297,758,-142.297" stroke-width="1.1875" stroke="rgb(214, 39, 40)"/><path class="markmap-link" data-depth="3" data-path="1.3.4" d="M491,-132.625C531,-132.625,531,-182.984,571,-182.984" stroke-width="1.375" stroke="rgb(227, 119, 194)"/><path class="markmap-link" data-depth="3" data-path="1.3.9" d="M491,-132.625C531,-132.625,531,-110.016,571,-110.016" stroke-width="1.375" stroke="rgb(227, 119, 194)"/><path class="markmap-link" data-depth="3" data-path="1.3.10" d="M491,-132.625C531,-132.625,531,-82.641,571,-82.641" stroke-width="1.375" stroke="rgb(148, 103, 189)"/><path class="markmap-link" data-depth="4" data-path="1.11.12.13" d="M864,-50.266C904,-50.266,904,-77.547,944,-77.547" stroke-width="1.1875" stroke="rgb(140, 86, 75)"/><path class="markmap-link" data-depth="4" data-path="1.11.12.14" d="M864,-50.266C904,-50.266,904,-50.359,944,-50.359" stroke-width="1.1875" stroke="rgb(227, 119, 194)"/><path class="markmap-link" data-depth="4" data-path="1.11.12.15" d="M864,-50.266C904,-50.266,904,-23.172,944,-23.172" stroke-width="1.1875" stroke="rgb(127, 127, 127)"/><path class="markmap-link" data-depth="3" data-path="1.11.12" d="M411,-6.703C451,-6.703,451,-50.266,491,-50.266" stroke-width="1.375" stroke="rgb(188, 189, 34)"/><path class="markmap-link" data-depth="3" data-path="1.11.16" d="M411,-6.703C451,-6.703,451,9.109,491,9.109" stroke-width="1.375" stroke="rgb(188, 189, 34)"/><path class="markmap-link" data-depth="3" data-path="1.11.17" d="M411,-6.703C451,-6.703,451,36.484,491,36.484" stroke-width="1.375" stroke="rgb(227, 119, 194)"/><path class="markmap-link" data-depth="4" data-path="1.18.23.24" d="M1035,178.359C1075,178.359,1075,164.672,1115,164.672" stroke-width="1.1875" stroke="rgb(214, 39, 40)"/><path class="markmap-link" data-depth="4" data-path="1.18.23.25" d="M1035,178.359C1075,178.359,1075,191.859,1115,191.859" stroke-width="1.1875" stroke="rgb(148, 103, 189)"/><path class="markmap-link" data-depth="3" data-path="1.18.19" d="M619,123.797C659,123.797,659,68.859,699,68.859" stroke-width="1.375" stroke="rgb(23, 190, 207)"/><path class="markmap-link" data-depth="3" data-path="1.18.20" d="M619,123.797C659,123.797,659,96.234,699,96.234" stroke-width="1.375" stroke="rgb(31, 119, 180)"/><path class="markmap-link" data-depth="3" data-path="1.18.21" d="M619,123.797C659,123.797,659,123.609,699,123.609" stroke-width="1.375" stroke="rgb(255, 127, 14)"/><path class="markmap-link" data-depth="3" data-path="1.18.22" d="M619,123.797C659,123.797,659,150.984,699,150.984" stroke-width="1.375" stroke="rgb(44, 160, 44)"/><path class="markmap-link" data-depth="3" data-path="1.18.23" d="M619,123.797C659,123.797,659,178.359,699,178.359" stroke-width="1.375" stroke="rgb(214, 39, 40)"/><path class="markmap-link" data-depth="3" data-path="1.26.27" d="M491,238.297C531,238.297,531,210.734,571,210.734" stroke-width="1.375" stroke="rgb(44, 160, 44)"/><path class="markmap-link" data-depth="3" data-path="1.26.28" d="M491,238.297C531,238.297,531,238.109,571,238.109" stroke-width="1.375" stroke="rgb(214, 39, 40)"/><path class="markmap-link" data-depth="3" data-path="1.26.29" d="M491,238.297C531,238.297,531,265.484,571,265.484" stroke-width="1.375" stroke="rgb(148, 103, 189)"/><path class="markmap-link" data-depth="2" data-path="1.2" d="M256,11.75C296,11.75,296,-215.547,336,-215.547" stroke-width="1.75" stroke="rgb(255, 127, 14)"/><path class="markmap-link" data-depth="2" data-path="1.3" d="M256,11.75C296,11.75,296,-132.625,336,-132.625" stroke-width="1.75" stroke="rgb(140, 86, 75)"/><path class="markmap-link" data-depth="2" data-path="1.11" d="M256,11.75C296,11.75,296,-6.703,336,-6.703" stroke-width="1.75" stroke="rgb(127, 127, 127)"/><path class="markmap-link" data-depth="2" data-path="1.18" d="M256,11.75C296,11.75,296,123.797,336,123.797" stroke-width="1.75" stroke="rgb(188, 189, 34)"/><path class="markmap-link" data-depth="2" data-path="1.26" d="M256,11.75C296,11.75,296,238.297,336,238.297" stroke-width="1.75" stroke="rgb(255, 127, 14)"/><g class="markmap-highlight"/><g data-depth="2" data-path="1.2" class="markmap-node" transform="translate(336, -237.421875)"><line stroke="#ff7f0e" stroke-width="1.75" x1="-1" x2="333" y1="21.875" y2="21.875"/><foreignObject class="markmap-foreign" x="8" y="0" style="opacity: 1;" width="315" height="21"><div xmlns="http://www.w3.org/1999/xhtml"><div xmlns="http://www.w3.org/1999/xhtml">丘脑定位：各种感觉的<strong>中继站</strong>（除<strong>嗅觉</strong>外）   </div></div></foreignObject></g><g data-depth="4" data-path="1.3.4.5" class="markmap-node" transform="translate(758, -245.453125)"><line stroke="#e377c2" stroke-width="1.1875" x1="-1" x2="194" y1="21.59375" y2="21.59375"/><foreignObject class="markmap-foreign" x="8" y="0" style="opacity: 1;" width="176" height="21"><div xmlns="http://www.w3.org/1999/xhtml"><div xmlns="http://www.w3.org/1999/xhtml">三叉丘系 -&gt; <strong>后内侧腹核</strong>   </div></div></foreignObject></g><g data-depth="4" data-path="1.3.4.6" class="markmap-node" transform="translate(758, -218.265625)"><line stroke="#7f7f7f" stroke-width="1.1875" x1="-1" x2="210" y1="21.59375" y2="21.59375"/><foreignObject class="markmap-foreign" x="8" y="0" style="opacity: 1;" width="192" height="21"><div xmlns="http://www.w3.org/1999/xhtml"><div xmlns="http://www.w3.org/1999/xhtml">脊髓丘脑束 -&gt; <strong>后外侧腹核</strong>   </div></div></foreignObject></g><g data-depth="4" data-path="1.3.4.7" class="markmap-node" transform="translate(758, -191.078125)"><line stroke="#bcbd22" stroke-width="1.1875" x1="-1" x2="162" y1="21.59375" y2="21.59375"/><foreignObject class="markmap-foreign" x="8" y="0" style="opacity: 1;" width="144" height="21"><div xmlns="http://www.w3.org/1999/xhtml"><div xmlns="http://www.w3.org/1999/xhtml">视觉 -&gt; <strong>外侧膝状体</strong>   </div></div></foreignObject></g><g data-depth="4" data-path="1.3.4.8" class="markmap-node" transform="translate(758, -163.890625)"><line stroke="#d62728" stroke-width="1.1875" x1="-1" x2="162" y1="21.59375" y2="21.59375"/><foreignObject class="markmap-foreign" x="8" y="0" style="opacity: 1;" width="144" height="21"><div xmlns="http://www.w3.org/1999/xhtml"><div xmlns="http://www.w3.org/1999/xhtml">听觉 -&gt; <strong>内侧膝状体</strong>   </div></div></foreignObject></g><g data-depth="3" data-path="1.3.4" class="markmap-node" transform="translate(571, -204.671875)"><line stroke="#e377c2" stroke-width="1.375" x1="-1" x2="109" y1="21.6875" y2="21.6875"/><circle stroke-width="1.5" r="6" stroke="#e377c2" fill="var(--markmap-circle-open-bg)" cx="107" cy="21.6875"/><foreignObject class="markmap-foreign" x="8" y="0" style="opacity: 1;" width="91" height="21"><div xmlns="http://www.w3.org/1999/xhtml"><div xmlns="http://www.w3.org/1999/xhtml">传入通路：   </div></div></foreignObject></g><g data-depth="3" data-path="1.3.9" class="markmap-node" transform="translate(571, -131.703125)"><line stroke="#e377c2" stroke-width="1.375" x1="-1" x2="418" y1="21.6875" y2="21.6875"/><foreignObject class="markmap-foreign" x="8" y="0" style="opacity: 1;" width="400" height="21"><div xmlns="http://www.w3.org/1999/xhtml"><div xmlns="http://www.w3.org/1999/xhtml">功能：产生<strong>特定的感觉</strong> -&gt; 投射至大脑皮层<strong>特定感觉区域</strong>   </div></div></foreignObject></g><g data-depth="3" data-path="1.3.10" class="markmap-node" transform="translate(571, -104.328125)"><line stroke="#9467bd" stroke-width="1.375" x1="-1" x2="189" y1="21.6875" y2="21.6875"/><foreignObject class="markmap-foreign" x="8" y="0" style="opacity: 1;" width="171" height="21"><div xmlns="http://www.w3.org/1999/xhtml"><div xmlns="http://www.w3.org/1999/xhtml">特点：<strong>点对点</strong>精确投射   </div></div></foreignObject></g><g data-depth="2" data-path="1.3" class="markmap-node" transform="translate(336, -154.5)"><line stroke="#8c564b" stroke-width="1.75" x1="-1" x2="157" y1="21.875" y2="21.875"/><circle stroke-width="1.5" r="6" stroke="#8c564b" fill="var(--markmap-circle-open-bg)" cx="155" cy="21.875"/><foreignObject class="markmap-foreign" x="8" y="0" style="opacity: 1;" width="139" height="21"><div xmlns="http://www.w3.org/1999/xhtml"><div xmlns="http://www.w3.org/1999/xhtml">★特异感觉接替核   </div></div></foreignObject></g><g data-depth="4" data-path="1.11.12.13" class="markmap-node" transform="translate(944, -99.140625)"><line stroke="#8c564b" stroke-width="1.1875" x1="-1" x2="162" y1="21.59375" y2="21.59375"/><foreignObject class="markmap-foreign" x="8" y="0" style="opacity: 1;" width="144" height="21"><div xmlns="http://www.w3.org/1999/xhtml"><div xmlns="http://www.w3.org/1999/xhtml">下丘脑 -&gt; <strong>丘脑前核</strong>   </div></div></foreignObject></g><g data-depth="4" data-path="1.11.12.14" class="markmap-node" transform="translate(944, -71.953125)"><line stroke="#e377c2" stroke-width="1.1875" x1="-1" x2="162" y1="21.59375" y2="21.59375"/><foreignObject class="markmap-foreign" x="8" y="0" style="opacity: 1;" width="144" height="21"><div xmlns="http://www.w3.org/1999/xhtml"><div xmlns="http://www.w3.org/1999/xhtml">后腹核 -&gt; <strong>腹外侧核</strong>   </div></div></foreignObject></g><g data-depth="4" data-path="1.11.12.15" class="markmap-node" transform="translate(944, -44.765625)"><line stroke="#7f7f7f" stroke-width="1.1875" x1="-1" x2="194" y1="21.59375" y2="21.59375"/><foreignObject class="markmap-foreign" x="8" y="0" style="opacity: 1;" width="176" height="21"><div xmlns="http://www.w3.org/1999/xhtml"><div xmlns="http://www.w3.org/1999/xhtml">内外侧膝状体 -&gt; <strong>丘脑枕</strong>   </div></div></foreignObject></g><g data-depth="3" data-path="1.11.12" class="markmap-node" transform="translate(491, -71.953125)"><line stroke="#bcbd22" stroke-width="1.375" x1="-1" x2="375" y1="21.6875" y2="21.6875"/><circle stroke-width="1.5" r="6" stroke="#bcbd22" fill="var(--markmap-circle-open-bg)" cx="373" cy="21.6875"/><foreignObject class="markmap-foreign" x="8" y="0" style="opacity: 1;" width="357" height="21"><div xmlns="http://www.w3.org/1999/xhtml"><div xmlns="http://www.w3.org/1999/xhtml">通路：感觉接替核 -&gt; <strong>联络核</strong> -&gt; 大脑皮层特定区域   </div></div></foreignObject></g><g data-depth="3" data-path="1.11.16" class="markmap-node" transform="translate(491, -12.578125)"><line stroke="#bcbd22" stroke-width="1.375" x1="-1" x2="381" y1="21.6875" y2="21.6875"/><foreignObject class="markmap-foreign" x="8" y="0" style="opacity: 1;" width="363" height="21"><div xmlns="http://www.w3.org/1999/xhtml"><div xmlns="http://www.w3.org/1999/xhtml">功能：协调各种感觉在<strong>丘脑和大脑皮层之间</strong>的联系   </div></div></foreignObject></g><g data-depth="3" data-path="1.11.17" class="markmap-node" transform="translate(491, 14.796875)"><line stroke="#e377c2" stroke-width="1.375" x1="-1" x2="189" y1="21.6875" y2="21.6875"/><foreignObject class="markmap-foreign" x="8" y="0" style="opacity: 1;" width="171" height="21"><div xmlns="http://www.w3.org/1999/xhtml"><div xmlns="http://www.w3.org/1999/xhtml">特点：起<strong>联络协调</strong>作用   </div></div></foreignObject></g><g data-depth="2" data-path="1.11" class="markmap-node" transform="translate(336, -28.578125)"><line stroke="#7f7f7f" stroke-width="1.75" x1="-1" x2="77" y1="21.875" y2="21.875"/><circle stroke-width="1.5" r="6" stroke="#7f7f7f" fill="var(--markmap-circle-open-bg)" cx="75" cy="21.875"/><foreignObject class="markmap-foreign" x="8" y="0" style="opacity: 1;" width="59" height="21"><div xmlns="http://www.w3.org/1999/xhtml"><div xmlns="http://www.w3.org/1999/xhtml">联络核   </div></div></foreignObject></g><g data-depth="3" data-path="1.18.19" class="markmap-node" transform="translate(699, 47.171875)"><line stroke="#17becf" stroke-width="1.375" x1="-1" x2="423" y1="21.6875" y2="21.6875"/><foreignObject class="markmap-foreign" x="8" y="0" style="opacity: 1;" width="405" height="21"><div xmlns="http://www.w3.org/1999/xhtml"><div xmlns="http://www.w3.org/1999/xhtml">通路：<strong>脑干网状结构</strong> -&gt; 髓板内核群 -&gt; 大脑皮层<strong>广泛区域</strong>   </div></div></foreignObject></g><g data-depth="3" data-path="1.18.20" class="markmap-node" transform="translate(699, 74.546875)"><line stroke="#1f77b4" stroke-width="1.375" x1="-1" x2="204" y1="21.6875" y2="21.6875"/><foreignObject class="markmap-foreign" x="8" y="0" style="opacity: 1;" width="186" height="21"><div xmlns="http://www.w3.org/1999/xhtml"><div xmlns="http://www.w3.org/1999/xhtml">包括：<strong>中央中核</strong> + <strong>束旁核</strong>   </div></div></foreignObject></g><g data-depth="3" data-path="1.18.21" class="markmap-node" transform="translate(699, 101.921875)"><line stroke="#ff7f0e" stroke-width="1.375" x1="-1" x2="253" y1="21.6875" y2="21.6875"/><foreignObject class="markmap-foreign" x="8" y="0" style="opacity: 1;" width="235" height="21"><div xmlns="http://www.w3.org/1999/xhtml"><div xmlns="http://www.w3.org/1999/xhtml">功能：<strong>维持大脑皮层的兴奋状态</strong>   </div></div></foreignObject></g><g data-depth="3" data-path="1.18.22" class="markmap-node" transform="translate(699, 129.296875)"><line stroke="#2ca02c" stroke-width="1.375" x1="-1" x2="221" y1="21.6875" y2="21.6875"/><foreignObject class="markmap-foreign" x="8" y="0" style="opacity: 1;" width="203" height="21"><div xmlns="http://www.w3.org/1999/xhtml"><div xmlns="http://www.w3.org/1999/xhtml">特点：弥散投射，无特异性   </div></div></foreignObject></g><g data-depth="4" data-path="1.18.23.24" class="markmap-node" transform="translate(1115, 143.078125)"><line stroke="#d62728" stroke-width="1.1875" x1="-1" x2="146" y1="21.59375" y2="21.59375"/><foreignObject class="markmap-foreign" x="8" y="0" style="opacity: 1;" width="128" height="21"><div xmlns="http://www.w3.org/1999/xhtml"><div xmlns="http://www.w3.org/1999/xhtml">损伤 -&gt; <strong>昏睡不醒</strong>   </div></div></foreignObject></g><g data-depth="4" data-path="1.18.23.25" class="markmap-node" transform="translate(1115, 170.265625)"><line stroke="#9467bd" stroke-width="1.1875" x1="-1" x2="258" y1="21.59375" y2="21.59375"/><foreignObject class="markmap-foreign" x="8" y="0" style="opacity: 1;" width="240" height="21"><div xmlns="http://www.w3.org/1999/xhtml"><div xmlns="http://www.w3.org/1999/xhtml">易受<strong>巴比妥类安眠药</strong>抑制 -&gt; 催眠   </div></div></foreignObject></g><g data-depth="3" data-path="1.18.23" class="markmap-node" transform="translate(699, 156.671875)"><line stroke="#d62728" stroke-width="1.375" x1="-1" x2="338" y1="21.6875" y2="21.6875"/><circle stroke-width="1.5" r="6" stroke="#d62728" fill="var(--markmap-circle-open-bg)" cx="336" cy="21.6875"/><foreignObject class="markmap-foreign" x="8" y="0" style="opacity: 1;" width="320" height="21"><div xmlns="http://www.w3.org/1999/xhtml"><div xmlns="http://www.w3.org/1999/xhtml">脑干网状结构<strong>上行激活系统</strong> -&gt; 维持<strong>觉醒状态</strong>   </div></div></foreignObject></g><g data-depth="2" data-path="1.18" class="markmap-node" transform="translate(336, 101.921875)"><line stroke="#bcbd22" stroke-width="1.75" x1="-1" x2="285" y1="21.875" y2="21.875"/><circle stroke-width="1.5" r="6" stroke="#bcbd22" fill="var(--markmap-circle-open-bg)" cx="283" cy="21.875"/><foreignObject class="markmap-foreign" x="8" y="0" style="opacity: 1;" width="267" height="21"><div xmlns="http://www.w3.org/1999/xhtml"><div xmlns="http://www.w3.org/1999/xhtml">★非特异性投射核群（髓板内核群）   </div></div></foreignObject></g><g data-depth="3" data-path="1.26.27" class="markmap-node" transform="translate(571, 189.046875)"><line stroke="#2ca02c" stroke-width="1.375" x1="-1" x2="284" y1="21.6875" y2="21.6875"/><foreignObject class="markmap-foreign" x="8" y="0" style="opacity: 1;" width="266" height="21"><div xmlns="http://www.w3.org/1999/xhtml"><div xmlns="http://www.w3.org/1999/xhtml">特异接替 = <strong>产生特定感觉</strong>（点对点）   </div></div></foreignObject></g><g data-depth="3" data-path="1.26.28" class="markmap-node" transform="translate(571, 216.421875)"><line stroke="#d62728" stroke-width="1.375" x1="-1" x2="236" y1="21.6875" y2="21.6875"/><foreignObject class="markmap-foreign" x="8" y="0" style="opacity: 1;" width="218" height="21"><div xmlns="http://www.w3.org/1999/xhtml"><div xmlns="http://www.w3.org/1999/xhtml">联络核 = <strong>协调联系</strong>（中转站）   </div></div></foreignObject></g><g data-depth="3" data-path="1.26.29" class="markmap-node" transform="translate(571, 243.796875)"><line stroke="#9467bd" stroke-width="1.375" x1="-1" x2="415" y1="21.6875" y2="21.6875"/><foreignObject class="markmap-foreign" x="8" y="0" style="opacity: 1;" width="397" height="21"><div xmlns="http://www.w3.org/1999/xhtml"><div xmlns="http://www.w3.org/1999/xhtml">非特异核群（髓板内核）= <strong>维持皮层兴奋/觉醒</strong>（弥散）   </div></div></foreignObject></g><g data-depth="2" data-path="1.26" class="markmap-node" transform="translate(336, 216.421875)"><line stroke="#ff7f0e" stroke-width="1.75" x1="-1" x2="157" y1="21.875" y2="21.875"/><circle stroke-width="1.5" r="6" stroke="#ff7f0e" fill="var(--markmap-circle-open-bg)" cx="155" cy="21.875"/><foreignObject class="markmap-foreign" x="8" y="0" style="opacity: 1;" width="139" height="21"><div xmlns="http://www.w3.org/1999/xhtml"><div xmlns="http://www.w3.org/1999/xhtml">三大核团功能口诀   </div></div></foreignObject></g><g data-depth="1" data-path="1" class="markmap-node" transform="translate(0, -10.5)"><line stroke="#1f77b4" stroke-width="2.5" x1="-1" x2="258" y1="22.25" y2="22.25"/><circle stroke-width="1.5" r="6" stroke="#1f77b4" fill="var(--markmap-circle-open-bg)" cx="256" cy="22.25"/><foreignObject class="markmap-foreign" x="8" y="0" style="opacity: 1;" width="240" height="21"><div xmlns="http://www.w3.org/1999/xhtml"><div xmlns="http://www.w3.org/1999/xhtml">丘脑的三大核团 — 微型速记导图   </div></div></foreignObject></g></g></svg>