<svg xmlns="http://www.w3.org/2000/svg" class="w-full h-full leading-none markmap mm-lzdw27-1" style=""><style>.markmap{--markmap-max-width: 9999px;--markmap-a-color: #0097e6;--markmap-a-hover-color: #00a8ff;--markmap-code-bg: #f0f0f0;--markmap-code-color: #555;--markmap-highlight-bg: #ffeaa7;--markmap-table-border: 1px solid currentColor;--markmap-font: 300 16px/20px sans-serif;--markmap-circle-open-bg: #fff;--markmap-text-color: #333;--markmap-highlight-node-bg: #ff02;font:var(--markmap-font);color:var(--markmap-text-color)}.markmap-link{fill:none}.markmap-node&gt;circle{cursor:pointer}.markmap-foreign{display:inline-block}.markmap-foreign p{margin:0}.markmap-foreign a{color:var(--markmap-a-color)}.markmap-foreign a:hover{color:var(--markmap-a-hover-color)}.markmap-foreign code{padding:.25em;font-size:calc(1em - 2px);color:var(--markmap-code-color);background-color:var(--markmap-code-bg);border-radius:2px}.markmap-foreign pre{margin:0}.markmap-foreign pre&gt;code{display:block}.markmap-foreign del{text-decoration:line-through}.markmap-foreign em{font-style:italic}.markmap-foreign strong{font-weight:700}.markmap-foreign mark{background:var(--markmap-highlight-bg)}.markmap-foreign table,.markmap-foreign th,.markmap-foreign td{border-collapse:collapse;border:var(--markmap-table-border)}.markmap-foreign img{display:inline-block}.markmap-foreign svg{fill:currentColor}.markmap-foreign&gt;div{width:var(--markmap-max-width);text-align:left}.markmap-foreign&gt;div&gt;div{display:inline-block}.markmap-highlight rect{fill:var(--markmap-highlight-node-bg)}.markmap-dark .markmap{--markmap-code-bg: #1a1b26;--markmap-code-color: #ddd;--markmap-circle-open-bg: #444;--markmap-text-color: #eee}</style><g transform="translate(41.96350066070647,390.2033270454397) scale(0.5155497386336421)"><path class="markmap-link" data-depth="3" data-path="1.2.3" d="M454,-238.531C494,-238.531,494,-252.406,534,-252.406" stroke-width="1.375" stroke="rgb(148, 103, 189)"/><path class="markmap-link" data-depth="3" data-path="1.2.4" d="M454,-238.531C494,-238.531,494,-225.031,534,-225.031" stroke-width="1.375" stroke="rgb(255, 127, 14)"/><path class="markmap-link" data-depth="3" data-path="1.5.6" d="M546,-165.094C586,-165.094,586,-192.656,626,-192.656" stroke-width="1.375" stroke="rgb(255, 127, 14)"/><path class="markmap-link" data-depth="3" data-path="1.5.7" d="M546,-165.094C586,-165.094,586,-165.281,626,-165.281" stroke-width="1.375" stroke="rgb(44, 160, 44)"/><path class="markmap-link" data-depth="3" data-path="1.5.8" d="M546,-165.094C586,-165.094,586,-137.906,626,-137.906" stroke-width="1.375" stroke="rgb(214, 39, 40)"/><path class="markmap-link" data-depth="4" data-path="1.9.11.12" d="M615,-45.969C655,-45.969,655,-73.25,695,-73.25" stroke-width="1.1875" stroke="rgb(140, 86, 75)"/><path class="markmap-link" data-depth="4" data-path="1.9.11.13" d="M615,-45.969C655,-45.969,655,-46.062,695,-46.062" stroke-width="1.1875" stroke="rgb(227, 119, 194)"/><path class="markmap-link" data-depth="4" data-path="1.9.11.14" d="M615,-45.969C655,-45.969,655,-18.875,695,-18.875" stroke-width="1.1875" stroke="rgb(127, 127, 127)"/><path class="markmap-link" data-depth="3" data-path="1.9.10" d="M444,-75.562C484,-75.562,484,-105.531,524,-105.531" stroke-width="1.375" stroke="rgb(214, 39, 40)"/><path class="markmap-link" data-depth="3" data-path="1.9.11" d="M444,-75.562C484,-75.562,484,-45.969,524,-45.969" stroke-width="1.375" stroke="rgb(148, 103, 189)"/><path class="markmap-link" data-depth="3" data-path="1.15.16" d="M525,40.969C565,40.969,565,13.406,605,13.406" stroke-width="1.375" stroke="rgb(140, 86, 75)"/><path class="markmap-link" data-depth="3" data-path="1.15.17" d="M525,40.969C565,40.969,565,40.781,605,40.781" stroke-width="1.375" stroke="rgb(227, 119, 194)"/><path class="markmap-link" data-depth="3" data-path="1.15.18" d="M525,40.969C565,40.969,565,68.156,605,68.156" stroke-width="1.375" stroke="rgb(127, 127, 127)"/><path class="markmap-link" data-depth="3" data-path="1.19.20" d="M476,114.406C516,114.406,516,100.531,556,100.531" stroke-width="1.375" stroke="rgb(127, 127, 127)"/><path class="markmap-link" data-depth="3" data-path="1.19.21" d="M476,114.406C516,114.406,516,127.906,556,127.906" stroke-width="1.375" stroke="rgb(188, 189, 34)"/><path class="markmap-link" data-depth="3" data-path="1.22.23" d="M620,187.844C660,187.844,660,160.281,700,160.281" stroke-width="1.375" stroke="rgb(44, 160, 44)"/><path class="markmap-link" data-depth="3" data-path="1.22.24" d="M620,187.844C660,187.844,660,187.656,700,187.656" stroke-width="1.375" stroke="rgb(214, 39, 40)"/><path class="markmap-link" data-depth="3" data-path="1.22.25" d="M620,187.844C660,187.844,660,215.031,700,215.031" stroke-width="1.375" stroke="rgb(188, 189, 34)"/><path class="markmap-link" data-depth="3" data-path="1.26.27" d="M470,261.281C510,261.281,510,247.406,550,247.406" stroke-width="1.375" stroke="rgb(255, 127, 14)"/><path class="markmap-link" data-depth="3" data-path="1.26.28" d="M470,261.281C510,261.281,510,274.781,550,274.781" stroke-width="1.375" stroke="rgb(23, 190, 207)"/><path class="markmap-link" data-depth="2" data-path="1.2" d="M235,11.75C275,11.75,275,-238.531,315,-238.531" stroke-width="1.75" stroke="rgb(255, 127, 14)"/><path class="markmap-link" data-depth="2" data-path="1.5" d="M235,11.75C275,11.75,275,-165.094,315,-165.094" stroke-width="1.75" stroke="rgb(44, 160, 44)"/><path class="markmap-link" data-depth="2" data-path="1.9" d="M235,11.75C275,11.75,275,-75.562,315,-75.562" stroke-width="1.75" stroke="rgb(214, 39, 40)"/><path class="markmap-link" data-depth="2" data-path="1.15" d="M235,11.75C275,11.75,275,40.969,315,40.969" stroke-width="1.75" stroke="rgb(148, 103, 189)"/><path class="markmap-link" data-depth="2" data-path="1.19" d="M235,11.75C275,11.75,275,114.406,315,114.406" stroke-width="1.75" stroke="rgb(227, 119, 194)"/><path class="markmap-link" data-depth="2" data-path="1.22" d="M235,11.75C275,11.75,275,187.844,315,187.844" stroke-width="1.75" stroke="rgb(255, 127, 14)"/><path class="markmap-link" data-depth="2" data-path="1.26" d="M235,11.75C275,11.75,275,261.281,315,261.281" stroke-width="1.75" stroke="rgb(31, 119, 180)"/><g class="markmap-highlight"/><g data-depth="3" data-path="1.2.3" class="markmap-node" transform="translate(534, -274.09375)"><line stroke="#9467bd" stroke-width="1.375" x1="-1" x2="392" y1="21.6875" y2="21.6875"/><foreignObject class="markmap-foreign" x="8" y="0" style="opacity: 1;" width="374" height="21"><div xmlns="http://www.w3.org/1999/xhtml"><div xmlns="http://www.w3.org/1999/xhtml">氨基酸 -&gt;(氨基酸脱羧酶/<mark>**磷酸吡哆醛</mark>**)-&gt; <strong><mark>胺</mark></strong> + CO₂   </div></div></foreignObject></g><g data-depth="3" data-path="1.2.4" class="markmap-node" transform="translate(534, -246.71875)"><line stroke="#ff7f0e" stroke-width="1.375" x1="-1" x2="283" y1="21.6875" y2="21.6875"/><foreignObject class="markmap-foreign" x="8" y="0" style="opacity: 1;" width="265" height="21"><div xmlns="http://www.w3.org/1999/xhtml"><div xmlns="http://www.w3.org/1999/xhtml">胺 -&gt;(单胺氧化酶)-&gt; 醛 + NH₃ + H₂O₂   </div></div></foreignObject></g><g data-depth="2" data-path="1.2" class="markmap-node" transform="translate(315, -260.40625)"><line stroke="#ff7f0e" stroke-width="1.75" x1="-1" x2="141" y1="21.875" y2="21.875"/><circle stroke-width="1.5" r="6" stroke="#ff7f0e" fill="var(--markmap-circle-open-bg)" cx="139" cy="21.875"/><foreignObject class="markmap-foreign" x="8" y="0" style="opacity: 1;" width="123" height="21"><div xmlns="http://www.w3.org/1999/xhtml"><div xmlns="http://www.w3.org/1999/xhtml"><strong>脱羧基作用概述</strong>   </div></div></foreignObject></g><g data-depth="3" data-path="1.5.6" class="markmap-node" transform="translate(626, -214.34375)"><line stroke="#ff7f0e" stroke-width="1.375" x1="-1" x2="345" y1="21.6875" y2="21.6875"/><foreignObject class="markmap-foreign" x="8" y="0" style="opacity: 1;" width="327" height="21"><div xmlns="http://www.w3.org/1999/xhtml"><div xmlns="http://www.w3.org/1999/xhtml">酶 -&gt; <strong>谷氨酸脱羧酶</strong>（辅酶：磷酸吡哆醛/B₆）   </div></div></foreignObject></g><g data-depth="3" data-path="1.5.7" class="markmap-node" transform="translate(626, -186.96875)"><line stroke="#2ca02c" stroke-width="1.375" x1="-1" x2="443" y1="21.6875" y2="21.6875"/><foreignObject class="markmap-foreign" x="8" y="0" style="opacity: 1;" width="425" height="21"><div xmlns="http://www.w3.org/1999/xhtml"><div xmlns="http://www.w3.org/1999/xhtml">GABA -&gt; <strong><mark>抑制性神经递质</mark></strong> -&gt; 对学习记忆、运动**<mark>负向调节</mark>**   </div></div></foreignObject></g><g data-depth="3" data-path="1.5.8" class="markmap-node" transform="translate(626, -159.59375)"><line stroke="#d62728" stroke-width="1.375" x1="-1" x2="684" y1="21.6875" y2="21.6875"/><foreignObject class="markmap-foreign" x="8" y="0" style="opacity: 1;" width="666" height="21"><div xmlns="http://www.w3.org/1999/xhtml"><div xmlns="http://www.w3.org/1999/xhtml">临床 -&gt; ==<strong>维生素B₆</strong>==治疗妊娠呕吐和小儿抽搐 -&gt; 增强脱羧酶 -&gt; GABA↑ -&gt; 抑制神经过度兴奋   </div></div></foreignObject></g><g data-depth="2" data-path="1.5" class="markmap-node" transform="translate(315, -186.96875)"><line stroke="#2ca02c" stroke-width="1.75" x1="-1" x2="233" y1="21.875" y2="21.875"/><circle stroke-width="1.5" r="6" stroke="#2ca02c" fill="var(--markmap-circle-open-bg)" cx="231" cy="21.875"/><foreignObject class="markmap-foreign" x="8" y="0" style="opacity: 1;" width="215" height="21"><div xmlns="http://www.w3.org/1999/xhtml"><div xmlns="http://www.w3.org/1999/xhtml"><strong>谷氨酸 -&gt; γ-氨基丁酸(GABA)</strong>   </div></div></foreignObject></g><g data-depth="3" data-path="1.9.10" class="markmap-node" transform="translate(524, -127.21875)"><line stroke="#d62728" stroke-width="1.375" x1="-1" x2="125" y1="21.6875" y2="21.6875"/><foreignObject class="markmap-foreign" x="8" y="0" style="opacity: 1;" width="107" height="21"><div xmlns="http://www.w3.org/1999/xhtml"><div xmlns="http://www.w3.org/1999/xhtml"><strong><mark>组氨酸脱羧酶</mark></strong>   </div></div></foreignObject></g><g data-depth="4" data-path="1.9.11.12" class="markmap-node" transform="translate(695, -94.84375)"><line stroke="#8c564b" stroke-width="1.1875" x1="-1" x2="306" y1="21.59375" y2="21.59375"/><foreignObject class="markmap-foreign" x="8" y="0" style="opacity: 1;" width="288" height="21"><div xmlns="http://www.w3.org/1999/xhtml"><div xmlns="http://www.w3.org/1999/xhtml"><strong><mark>强烈血管舒张剂</mark></strong> -&gt; 增加毛细血管通透性   </div></div></foreignObject></g><g data-depth="4" data-path="1.9.11.13" class="markmap-node" transform="translate(695, -67.65625)"><line stroke="#e377c2" stroke-width="1.1875" x1="-1" x2="279" y1="21.59375" y2="21.59375"/><foreignObject class="markmap-foreign" x="8" y="0" style="opacity: 1;" width="261" height="21"><div xmlns="http://www.w3.org/1999/xhtml"><div xmlns="http://www.w3.org/1999/xhtml">使平滑肌收缩 -&gt; 支气管痉挛 -&gt; <strong><mark>哮喘</mark></strong>   </div></div></foreignObject></g><g data-depth="4" data-path="1.9.11.14" class="markmap-node" transform="translate(695, -40.46875)"><line stroke="#7f7f7f" stroke-width="1.1875" x1="-1" x2="249" y1="21.59375" y2="21.59375"/><foreignObject class="markmap-foreign" x="8" y="0" style="opacity: 1;" width="231" height="21"><div xmlns="http://www.w3.org/1999/xhtml"><div xmlns="http://www.w3.org/1999/xhtml">刺激**<mark>胃蛋白酶原及胃酸分泌</mark>**   </div></div></foreignObject></g><g data-depth="3" data-path="1.9.11" class="markmap-node" transform="translate(524, -67.65625)"><line stroke="#9467bd" stroke-width="1.375" x1="-1" x2="93" y1="21.6875" y2="21.6875"/><circle stroke-width="1.5" r="6" stroke="#9467bd" fill="var(--markmap-circle-open-bg)" cx="91" cy="21.6875"/><foreignObject class="markmap-foreign" x="8" y="0" style="opacity: 1;" width="75" height="21"><div xmlns="http://www.w3.org/1999/xhtml"><div xmlns="http://www.w3.org/1999/xhtml">组胺作用   </div></div></foreignObject></g><g data-depth="2" data-path="1.9" class="markmap-node" transform="translate(315, -97.4375)"><line stroke="#d62728" stroke-width="1.75" x1="-1" x2="131" y1="21.875" y2="21.875"/><circle stroke-width="1.5" r="6" stroke="#d62728" fill="var(--markmap-circle-open-bg)" cx="129" cy="21.875"/><foreignObject class="markmap-foreign" x="8" y="0" style="opacity: 1;" width="113" height="21"><div xmlns="http://www.w3.org/1999/xhtml"><div xmlns="http://www.w3.org/1999/xhtml"><strong>组氨酸 -&gt; 组胺</strong>   </div></div></foreignObject></g><g data-depth="3" data-path="1.15.16" class="markmap-node" transform="translate(605, -8.28125)"><line stroke="#8c564b" stroke-width="1.375" x1="-1" x2="424" y1="21.6875" y2="21.6875"/><foreignObject class="markmap-foreign" x="8" y="0" style="opacity: 1;" width="406" height="21"><div xmlns="http://www.w3.org/1999/xhtml"><div xmlns="http://www.w3.org/1999/xhtml">过程 -&gt; 色氨酸→(羟化酶)→5-羟色氨酸→(<strong>脱羧酶</strong>)-&gt; 5-HT   </div></div></foreignObject></g><g data-depth="3" data-path="1.15.17" class="markmap-node" transform="translate(605, 19.09375)"><line stroke="#e377c2" stroke-width="1.375" x1="-1" x2="228" y1="21.6875" y2="21.6875"/><foreignObject class="markmap-foreign" x="8" y="0" style="opacity: 1;" width="210" height="21"><div xmlns="http://www.w3.org/1999/xhtml"><div xmlns="http://www.w3.org/1999/xhtml">5-HT -&gt; 脑内<strong>抑制性神经递质</strong>   </div></div></foreignObject></g><g data-depth="3" data-path="1.15.18" class="markmap-node" transform="translate(605, 46.46875)"><line stroke="#7f7f7f" stroke-width="1.375" x1="-1" x2="146" y1="21.6875" y2="21.6875"/><foreignObject class="markmap-foreign" x="8" y="0" style="opacity: 1;" width="128" height="21"><div xmlns="http://www.w3.org/1999/xhtml"><div xmlns="http://www.w3.org/1999/xhtml">外周 -&gt; <strong>收缩血管</strong>   </div></div></foreignObject></g><g data-depth="2" data-path="1.15" class="markmap-node" transform="translate(315, 19.09375)"><line stroke="#9467bd" stroke-width="1.75" x1="-1" x2="212" y1="21.875" y2="21.875"/><circle stroke-width="1.5" r="6" stroke="#9467bd" fill="var(--markmap-circle-open-bg)" cx="210" cy="21.875"/><foreignObject class="markmap-foreign" x="8" y="0" style="opacity: 1;" width="194" height="21"><div xmlns="http://www.w3.org/1999/xhtml"><div xmlns="http://www.w3.org/1999/xhtml"><strong>色氨酸 -&gt; 5-羟色胺(5-HT)</strong>   </div></div></foreignObject></g><g data-depth="3" data-path="1.19.20" class="markmap-node" transform="translate(556, 78.84375)"><line stroke="#7f7f7f" stroke-width="1.375" x1="-1" x2="385" y1="21.6875" y2="21.6875"/><foreignObject class="markmap-foreign" x="8" y="0" style="opacity: 1;" width="367" height="21"><div xmlns="http://www.w3.org/1999/xhtml"><div xmlns="http://www.w3.org/1999/xhtml">半胱氨酸→(氧化)→磺酸丙氨酸→(脱羧酶)→<mark><strong>牛磺酸</strong></mark>   </div></div></foreignObject></g><g data-depth="3" data-path="1.19.21" class="markmap-node" transform="translate(556, 106.21875)"><line stroke="#bcbd22" stroke-width="1.375" x1="-1" x2="556" y1="21.6875" y2="21.6875"/><foreignObject class="markmap-foreign" x="8" y="0" style="opacity: 1;" width="538" height="21"><div xmlns="http://www.w3.org/1999/xhtml"><div xmlns="http://www.w3.org/1999/xhtml">功能 -&gt; 促进脑细胞发育 / 提高神经传导和视觉机能 / 可能是抑制性神经递质   </div></div></foreignObject></g><g data-depth="2" data-path="1.19" class="markmap-node" transform="translate(315, 92.53125)"><line stroke="#e377c2" stroke-width="1.75" x1="-1" x2="163" y1="21.875" y2="21.875"/><circle stroke-width="1.5" r="6" stroke="#e377c2" fill="var(--markmap-circle-open-bg)" cx="161" cy="21.875"/><foreignObject class="markmap-foreign" x="8" y="0" style="opacity: 1;" width="145" height="21"><div xmlns="http://www.w3.org/1999/xhtml"><div xmlns="http://www.w3.org/1999/xhtml"><strong>半胱氨酸 -&gt; 牛磺酸</strong>   </div></div></foreignObject></g><g data-depth="3" data-path="1.22.23" class="markmap-node" transform="translate(700, 138.59375)"><line stroke="#2ca02c" stroke-width="1.375" x1="-1" x2="194" y1="21.6875" y2="21.6875"/><foreignObject class="markmap-foreign" x="8" y="0" style="opacity: 1;" width="176" height="21"><div xmlns="http://www.w3.org/1999/xhtml"><div xmlns="http://www.w3.org/1999/xhtml">限速酶 -&gt; <mark><strong>鸟氨酸脱羧酶</strong></mark>   </div></div></foreignObject></g><g data-depth="3" data-path="1.22.24" class="markmap-node" transform="translate(700, 165.96875)"><line stroke="#d62728" stroke-width="1.375" x1="-1" x2="210" y1="21.6875" y2="21.6875"/><foreignObject class="markmap-foreign" x="8" y="0" style="opacity: 1;" width="192" height="21"><div xmlns="http://www.w3.org/1999/xhtml"><div xmlns="http://www.w3.org/1999/xhtml">多胺功能 -&gt; <strong><mark>促进细胞增殖</mark></strong>   </div></div></foreignObject></g><g data-depth="3" data-path="1.22.25" class="markmap-node" transform="translate(700, 193.34375)"><line stroke="#bcbd22" stroke-width="1.375" x1="-1" x2="525" y1="21.6875" y2="21.6875"/><foreignObject class="markmap-foreign" x="8" y="0" style="opacity: 1;" width="507" height="21"><div xmlns="http://www.w3.org/1999/xhtml"><div xmlns="http://www.w3.org/1999/xhtml">临床 -&gt; 测定血/尿多胺水平 -&gt; <strong>肿瘤辅助诊断</strong>和观察病情变化的<strong>生化指标</strong>   </div></div></foreignObject></g><g data-depth="2" data-path="1.22" class="markmap-node" transform="translate(315, 165.96875)"><line stroke="#ff7f0e" stroke-width="1.75" x1="-1" x2="307" y1="21.875" y2="21.875"/><circle stroke-width="1.5" r="6" stroke="#ff7f0e" fill="var(--markmap-circle-open-bg)" cx="305" cy="21.875"/><foreignObject class="markmap-foreign" x="8" y="0" style="opacity: 1;" width="289" height="21"><div xmlns="http://www.w3.org/1999/xhtml"><div xmlns="http://www.w3.org/1999/xhtml"><strong>鸟氨酸 -&gt; 多胺（腐胺、亚精胺、精胺）</strong>   </div></div></foreignObject></g><g data-depth="3" data-path="1.26.27" class="markmap-node" transform="translate(550, 225.71875)"><line stroke="#ff7f0e" stroke-width="1.375" x1="-1" x2="462" y1="21.6875" y2="21.6875"/><foreignObject class="markmap-foreign" x="8" y="0" style="opacity: 1;" width="444" height="21"><div xmlns="http://www.w3.org/1999/xhtml"><div xmlns="http://www.w3.org/1999/xhtml"><strong>谷→GABA</strong>(抑制) / <strong>组→组胺</strong>(扩血管) / <strong>色→5-HT</strong>(抑制+缩血管)   </div></div></foreignObject></g><g data-depth="3" data-path="1.26.28" class="markmap-node" transform="translate(550, 253.09375)"><line stroke="#17becf" stroke-width="1.375" x1="-1" x2="388" y1="21.6875" y2="21.6875"/><foreignObject class="markmap-foreign" x="8" y="0" style="opacity: 1;" width="370" height="21"><div xmlns="http://www.w3.org/1999/xhtml"><div xmlns="http://www.w3.org/1999/xhtml"><strong>半胱→牛磺酸</strong>(脑发育) / <strong>鸟→多胺</strong>(促增殖/肿瘤标志)   </div></div></foreignObject></g><g data-depth="2" data-path="1.26" class="markmap-node" transform="translate(315, 239.40625)"><line stroke="#1f77b4" stroke-width="1.75" x1="-1" x2="157" y1="21.875" y2="21.875"/><circle stroke-width="1.5" r="6" stroke="#1f77b4" fill="var(--markmap-circle-open-bg)" cx="155" cy="21.875"/><foreignObject class="markmap-foreign" x="8" y="0" style="opacity: 1;" width="139" height="21"><div xmlns="http://www.w3.org/1999/xhtml"><div xmlns="http://www.w3.org/1999/xhtml"><strong>脱羧产物速记口诀</strong>   </div></div></foreignObject></g><g data-depth="1" data-path="1" class="markmap-node" transform="translate(0, -10.5)"><line stroke="#1f77b4" stroke-width="2.5" x1="-1" x2="237" y1="22.25" y2="22.25"/><circle stroke-width="1.5" r="6" stroke="#1f77b4" fill="var(--markmap-circle-open-bg)" cx="235" cy="22.25"/><foreignObject class="markmap-foreign" x="8" y="0" style="opacity: 1;" width="219" height="21"><div xmlns="http://www.w3.org/1999/xhtml"><div xmlns="http://www.w3.org/1999/xhtml">氨基酸脱羧基作用与特殊产物   </div></div></foreignObject></g></g></svg>