<svg xmlns="http://www.w3.org/2000/svg" class="w-full h-full leading-none markmap mm-lzdw27-1" style=""><style>.markmap{--markmap-max-width: 9999px;--markmap-a-color: #0097e6;--markmap-a-hover-color: #00a8ff;--markmap-code-bg: #f0f0f0;--markmap-code-color: #555;--markmap-highlight-bg: #ffeaa7;--markmap-table-border: 1px solid currentColor;--markmap-font: 300 16px/20px sans-serif;--markmap-circle-open-bg: #fff;--markmap-text-color: #333;--markmap-highlight-node-bg: #ff02;font:var(--markmap-font);color:var(--markmap-text-color)}.markmap-link{fill:none}.markmap-node&gt;circle{cursor:pointer}.markmap-foreign{display:inline-block}.markmap-foreign p{margin:0}.markmap-foreign a{color:var(--markmap-a-color)}.markmap-foreign a:hover{color:var(--markmap-a-hover-color)}.markmap-foreign code{padding:.25em;font-size:calc(1em - 2px);color:var(--markmap-code-color);background-color:var(--markmap-code-bg);border-radius:2px}.markmap-foreign pre{margin:0}.markmap-foreign pre&gt;code{display:block}.markmap-foreign del{text-decoration:line-through}.markmap-foreign em{font-style:italic}.markmap-foreign strong{font-weight:700}.markmap-foreign mark{background:var(--markmap-highlight-bg)}.markmap-foreign table,.markmap-foreign th,.markmap-foreign td{border-collapse:collapse;border:var(--markmap-table-border)}.markmap-foreign img{display:inline-block}.markmap-foreign svg{fill:currentColor}.markmap-foreign&gt;div{width:var(--markmap-max-width);text-align:left}.markmap-foreign&gt;div&gt;div{display:inline-block}.markmap-highlight rect{fill:var(--markmap-highlight-node-bg)}.markmap-dark .markmap{--markmap-code-bg: #1a1b26;--markmap-code-color: #ddd;--markmap-circle-open-bg: #444;--markmap-text-color: #eee}</style><g transform="translate(34.5635878547713,385.3962311945817) scale(0.5070442372098771)"><path class="markmap-link" data-depth="3" data-path="1.2.3" d="M502,-378C542,-378,542,-391.875,582,-391.875" stroke-width="1.375" stroke="rgb(148, 103, 189)"/><path class="markmap-link" data-depth="3" data-path="1.2.4" d="M502,-378C542,-378,542,-364.5,582,-364.5" stroke-width="1.375" stroke="rgb(255, 127, 14)"/><path class="markmap-link" data-depth="4" data-path="1.5.8.9" d="M807,-258.781C847,-258.781,847,-272.469,887,-272.469" stroke-width="1.1875" stroke="rgb(148, 103, 189)"/><path class="markmap-link" data-depth="4" data-path="1.5.8.10" d="M807,-258.781C847,-258.781,847,-245.281,887,-245.281" stroke-width="1.1875" stroke="rgb(140, 86, 75)"/><path class="markmap-link" data-depth="4" data-path="1.5.11.12" d="M711,-199.406C751,-199.406,751,-213.094,791,-213.094" stroke-width="1.1875" stroke="rgb(127, 127, 127)"/><path class="markmap-link" data-depth="4" data-path="1.5.11.13" d="M711,-199.406C751,-199.406,751,-185.906,791,-185.906" stroke-width="1.1875" stroke="rgb(188, 189, 34)"/><path class="markmap-link" data-depth="3" data-path="1.5.6" d="M540,-229C580,-229,580,-332.125,620,-332.125" stroke-width="1.375" stroke="rgb(255, 127, 14)"/><path class="markmap-link" data-depth="3" data-path="1.5.7" d="M540,-229C580,-229,580,-304.75,620,-304.75" stroke-width="1.375" stroke="rgb(44, 160, 44)"/><path class="markmap-link" data-depth="3" data-path="1.5.8" d="M540,-229C580,-229,580,-258.781,620,-258.781" stroke-width="1.375" stroke="rgb(214, 39, 40)"/><path class="markmap-link" data-depth="3" data-path="1.5.11" d="M540,-229C580,-229,580,-199.406,620,-199.406" stroke-width="1.375" stroke="rgb(227, 119, 194)"/><path class="markmap-link" data-depth="3" data-path="1.5.14" d="M540,-229C580,-229,580,-153.625,620,-153.625" stroke-width="1.375" stroke="rgb(23, 190, 207)"/><path class="markmap-link" data-depth="3" data-path="1.5.15" d="M540,-229C580,-229,580,-126.25,620,-126.25" stroke-width="1.375" stroke="rgb(31, 119, 180)"/><path class="markmap-link" data-depth="3" data-path="1.16.17" d="M438,-25.25C478,-25.25,478,-93.875,518,-93.875" stroke-width="1.375" stroke="rgb(44, 160, 44)"/><path class="markmap-link" data-depth="3" data-path="1.16.18" d="M438,-25.25C478,-25.25,478,-66.5,518,-66.5" stroke-width="1.375" stroke="rgb(214, 39, 40)"/><path class="markmap-link" data-depth="3" data-path="1.16.19" d="M438,-25.25C478,-25.25,478,-39.125,518,-39.125" stroke-width="1.375" stroke="rgb(148, 103, 189)"/><path class="markmap-link" data-depth="3" data-path="1.16.20" d="M438,-25.25C478,-25.25,478,-11.75,518,-11.75" stroke-width="1.375" stroke="rgb(140, 86, 75)"/><path class="markmap-link" data-depth="3" data-path="1.16.21" d="M438,-25.25C478,-25.25,478,15.625,518,15.625" stroke-width="1.375" stroke="rgb(227, 119, 194)"/><path class="markmap-link" data-depth="3" data-path="1.16.22" d="M438,-25.25C478,-25.25,478,43,518,43" stroke-width="1.375" stroke="rgb(127, 127, 127)"/><path class="markmap-link" data-depth="4" data-path="1.23.25.26" d="M753,121.344C793,121.344,793,107.656,833,107.656" stroke-width="1.1875" stroke="rgb(188, 189, 34)"/><path class="markmap-link" data-depth="4" data-path="1.23.25.27" d="M753,121.344C793,121.344,793,134.844,833,134.844" stroke-width="1.1875" stroke="rgb(23, 190, 207)"/><path class="markmap-link" data-depth="4" data-path="1.23.29.30" d="M753,226.688C793,226.688,793,199.406,833,199.406" stroke-width="1.1875" stroke="rgb(44, 160, 44)"/><path class="markmap-link" data-depth="4" data-path="1.23.29.31" d="M753,226.688C793,226.688,793,226.594,833,226.594" stroke-width="1.1875" stroke="rgb(214, 39, 40)"/><path class="markmap-link" data-depth="4" data-path="1.23.29.32" d="M753,226.688C793,226.688,793,253.781,833,253.781" stroke-width="1.1875" stroke="rgb(148, 103, 189)"/><path class="markmap-link" data-depth="3" data-path="1.23.24" d="M582,151.219C622,151.219,622,75.375,662,75.375" stroke-width="1.375" stroke="rgb(255, 127, 14)"/><path class="markmap-link" data-depth="3" data-path="1.23.25" d="M582,151.219C622,151.219,622,121.344,662,121.344" stroke-width="1.375" stroke="rgb(44, 160, 44)"/><path class="markmap-link" data-depth="3" data-path="1.23.28" d="M582,151.219C622,151.219,622,167.125,662,167.125" stroke-width="1.375" stroke="rgb(31, 119, 180)"/><path class="markmap-link" data-depth="3" data-path="1.23.29" d="M582,151.219C622,151.219,622,226.688,662,226.688" stroke-width="1.375" stroke="rgb(255, 127, 14)"/><path class="markmap-link" data-depth="3" data-path="1.33.34" d="M534,313.625C574,313.625,574,286.063,614,286.063" stroke-width="1.375" stroke="rgb(214, 39, 40)"/><path class="markmap-link" data-depth="3" data-path="1.33.35" d="M534,313.625C574,313.625,574,313.438,614,313.438" stroke-width="1.375" stroke="rgb(148, 103, 189)"/><path class="markmap-link" data-depth="3" data-path="1.33.36" d="M534,313.625C574,313.625,574,340.813,614,340.813" stroke-width="1.375" stroke="rgb(140, 86, 75)"/><path class="markmap-link" data-depth="3" data-path="1.37.38" d="M566,400.75C606,400.75,606,373.188,646,373.188" stroke-width="1.375" stroke="rgb(127, 127, 127)"/><path class="markmap-link" data-depth="3" data-path="1.37.39" d="M566,400.75C606,400.75,606,400.563,646,400.563" stroke-width="1.375" stroke="rgb(188, 189, 34)"/><path class="markmap-link" data-depth="3" data-path="1.37.40" d="M566,400.75C606,400.75,606,427.938,646,427.938" stroke-width="1.375" stroke="rgb(23, 190, 207)"/><path class="markmap-link" data-depth="2" data-path="1.2" d="M235,11.75C275,11.75,275,-378,315,-378" stroke-width="1.75" stroke="rgb(255, 127, 14)"/><path class="markmap-link" data-depth="2" data-path="1.5" d="M235,11.75C275,11.75,275,-229,315,-229" stroke-width="1.75" stroke="rgb(44, 160, 44)"/><path class="markmap-link" data-depth="2" data-path="1.16" d="M235,11.75C275,11.75,275,-25.25,315,-25.25" stroke-width="1.75" stroke="rgb(255, 127, 14)"/><path class="markmap-link" data-depth="2" data-path="1.23" d="M235,11.75C275,11.75,275,151.219,315,151.219" stroke-width="1.75" stroke="rgb(31, 119, 180)"/><path class="markmap-link" data-depth="2" data-path="1.33" d="M235,11.75C275,11.75,275,313.625,315,313.625" stroke-width="1.75" stroke="rgb(44, 160, 44)"/><path class="markmap-link" data-depth="2" data-path="1.37" d="M235,11.75C275,11.75,275,400.75,315,400.75" stroke-width="1.75" stroke="rgb(227, 119, 194)"/><g class="markmap-highlight"/><g data-depth="3" data-path="1.2.3" class="markmap-node" transform="translate(582, -413.5625)"><line stroke="#9467bd" stroke-width="1.375" x1="-1" x2="332" y1="21.6875" y2="21.6875"/><foreignObject class="markmap-foreign" x="8" y="0" style="opacity: 1;" width="314" height="21"><div xmlns="http://www.w3.org/1999/xhtml"><div xmlns="http://www.w3.org/1999/xhtml">三种方式 -&gt; 转氨作用 / 氧化脱氨 / 联合脱氨   </div></div></foreignObject></g><g data-depth="3" data-path="1.2.4" class="markmap-node" transform="translate(582, -386.1875)"><line stroke="#ff7f0e" stroke-width="1.375" x1="-1" x2="350" y1="21.6875" y2="21.6875"/><foreignObject class="markmap-foreign" x="8" y="0" style="opacity: 1;" width="332" height="21"><div xmlns="http://www.w3.org/1999/xhtml"><div xmlns="http://www.w3.org/1999/xhtml"><strong>联合脱氨</strong> -&gt; 体内氨基酸脱氨基的**<mark>主要方式</mark>**   </div></div></foreignObject></g><g data-depth="2" data-path="1.2" class="markmap-node" transform="translate(315, -399.875)"><line stroke="#ff7f0e" stroke-width="1.75" x1="-1" x2="189" y1="21.875" y2="21.875"/><circle stroke-width="1.5" r="6" stroke="#ff7f0e" fill="var(--markmap-circle-open-bg)" cx="187" cy="21.875"/><foreignObject class="markmap-foreign" x="8" y="0" style="opacity: 1;" width="171" height="21"><div xmlns="http://www.w3.org/1999/xhtml"><div xmlns="http://www.w3.org/1999/xhtml"><strong>氨基酸脱氨基作用概述</strong>   </div></div></foreignObject></g><g data-depth="3" data-path="1.5.6" class="markmap-node" transform="translate(620, -353.8125)"><line stroke="#ff7f0e" stroke-width="1.375" x1="-1" x2="497" y1="21.6875" y2="21.6875"/><foreignObject class="markmap-foreign" x="8" y="0" style="opacity: 1;" width="479" height="21"><div xmlns="http://www.w3.org/1999/xhtml"><div xmlns="http://www.w3.org/1999/xhtml">定义 -&gt; α-氨基酸的氨基 -&gt; 转移到α-酮酸 -&gt; 生成新氨基酸+新α-酮酸   </div></div></foreignObject></g><g data-depth="3" data-path="1.5.7" class="markmap-node" transform="translate(620, -326.4375)"><line stroke="#2ca02c" stroke-width="1.375" x1="-1" x2="439" y1="21.6875" y2="21.6875"/><foreignObject class="markmap-foreign" x="8" y="0" style="opacity: 1;" width="421" height="21"><div xmlns="http://www.w3.org/1999/xhtml"><div xmlns="http://www.w3.org/1999/xhtml">辅酶 -&gt; <mark><strong>磷酸吡哆醛</strong></mark>（==<strong>维生素B₆</strong>==的衍生物）-&gt; 传递氨基   </div></div></foreignObject></g><g data-depth="4" data-path="1.5.8.9" class="markmap-node" transform="translate(887, -294.0625)"><line stroke="#9467bd" stroke-width="1.1875" x1="-1" x2="506" y1="21.59375" y2="21.59375"/><foreignObject class="markmap-foreign" x="8" y="0" style="opacity: 1;" width="488" height="21"><div xmlns="http://www.w3.org/1999/xhtml"><div xmlns="http://www.w3.org/1999/xhtml"><strong>ALT（丙氨酸转氨酶/GPT）</strong> -&gt; 谷氨酸+丙酮酸 ⇌ α-酮戊二酸+丙氨酸   </div></div></foreignObject></g><g data-depth="4" data-path="1.5.8.10" class="markmap-node" transform="translate(887, -266.875)"><line stroke="#8c564b" stroke-width="1.1875" x1="-1" x2="558" y1="21.59375" y2="21.59375"/><foreignObject class="markmap-foreign" x="8" y="0" style="opacity: 1;" width="540" height="21"><div xmlns="http://www.w3.org/1999/xhtml"><div xmlns="http://www.w3.org/1999/xhtml"><strong>AST（天冬氨酸转氨酶/GOT）</strong> -&gt; 谷氨酸+草酰乙酸 ⇌ α-酮戊二酸+天冬氨酸   </div></div></foreignObject></g><g data-depth="3" data-path="1.5.8" class="markmap-node" transform="translate(620, -280.46875)"><line stroke="#d62728" stroke-width="1.375" x1="-1" x2="189" y1="21.6875" y2="21.6875"/><circle stroke-width="1.5" r="6" stroke="#d62728" fill="var(--markmap-circle-open-bg)" cx="187" cy="21.6875"/><foreignObject class="markmap-foreign" x="8" y="0" style="opacity: 1;" width="171" height="21"><div xmlns="http://www.w3.org/1999/xhtml"><div xmlns="http://www.w3.org/1999/xhtml">两个临床最重要转氨酶   </div></div></foreignObject></g><g data-depth="4" data-path="1.5.11.12" class="markmap-node" transform="translate(791, -234.6875)"><line stroke="#7f7f7f" stroke-width="1.1875" x1="-1" x2="440" y1="21.59375" y2="21.59375"/><foreignObject class="markmap-foreign" x="8" y="0" style="opacity: 1;" width="422" height="21"><div xmlns="http://www.w3.org/1999/xhtml"><div xmlns="http://www.w3.org/1999/xhtml">血清<strong>ALT↑</strong> -&gt; 诊断==<strong>急性肝炎</strong>==（ALT在肝细胞中含量高）   </div></div></foreignObject></g><g data-depth="4" data-path="1.5.11.13" class="markmap-node" transform="translate(791, -207.5)"><line stroke="#bcbd22" stroke-width="1.1875" x1="-1" x2="429" y1="21.59375" y2="21.59375"/><foreignObject class="markmap-foreign" x="8" y="0" style="opacity: 1;" width="411" height="21"><div xmlns="http://www.w3.org/1999/xhtml"><div xmlns="http://www.w3.org/1999/xhtml">血清<strong>AST↑</strong> -&gt; 诊断==<strong>心肌梗塞</strong>==（AST在心肌中含量高）   </div></div></foreignObject></g><g data-depth="3" data-path="1.5.11" class="markmap-node" transform="translate(620, -221.09375)"><line stroke="#e377c2" stroke-width="1.375" x1="-1" x2="93" y1="21.6875" y2="21.6875"/><circle stroke-width="1.5" r="6" stroke="#e377c2" fill="var(--markmap-circle-open-bg)" cx="91" cy="21.6875"/><foreignObject class="markmap-foreign" x="8" y="0" style="opacity: 1;" width="75" height="21"><div xmlns="http://www.w3.org/1999/xhtml"><div xmlns="http://www.w3.org/1999/xhtml">临床应用   </div></div></foreignObject></g><g data-depth="3" data-path="1.5.14" class="markmap-node" transform="translate(620, -175.3125)"><line stroke="#17becf" stroke-width="1.375" x1="-1" x2="287" y1="21.6875" y2="21.6875"/><foreignObject class="markmap-foreign" x="8" y="0" style="opacity: 1;" width="269" height="21"><div xmlns="http://www.w3.org/1999/xhtml"><div xmlns="http://www.w3.org/1999/xhtml">转氨作用特点 -&gt; <strong>可逆</strong> / 不产生游离氨   </div></div></foreignObject></g><g data-depth="3" data-path="1.5.15" class="markmap-node" transform="translate(620, -147.9375)"><line stroke="#1f77b4" stroke-width="1.375" x1="-1" x2="476" y1="21.6875" y2="21.6875"/><foreignObject class="markmap-foreign" x="8" y="0" style="opacity: 1;" width="458" height="21"><div xmlns="http://www.w3.org/1999/xhtml"><div xmlns="http://www.w3.org/1999/xhtml">生理意义 -&gt; 多数氨基酸脱氨 / <strong><mark>合成非必需氨基酸</mark></strong> / 联系糖脂代谢   </div></div></foreignObject></g><g data-depth="2" data-path="1.5" class="markmap-node" transform="translate(315, -250.875)"><line stroke="#2ca02c" stroke-width="1.75" x1="-1" x2="227" y1="21.875" y2="21.875"/><circle stroke-width="1.5" r="6" stroke="#2ca02c" fill="var(--markmap-circle-open-bg)" cx="225" cy="21.875"/><foreignObject class="markmap-foreign" x="8" y="0" style="opacity: 1;" width="209" height="21"><div xmlns="http://www.w3.org/1999/xhtml"><div xmlns="http://www.w3.org/1999/xhtml"><strong>转氨作用(transamination)</strong>   </div></div></foreignObject></g><g data-depth="3" data-path="1.16.17" class="markmap-node" transform="translate(518, -115.5625)"><line stroke="#2ca02c" stroke-width="1.375" x1="-1" x2="428" y1="21.6875" y2="21.6875"/><foreignObject class="markmap-foreign" x="8" y="0" style="opacity: 1;" width="410" height="21"><div xmlns="http://www.w3.org/1999/xhtml"><div xmlns="http://www.w3.org/1999/xhtml"><strong><mark>L-谷氨酸</mark></strong> -&gt; 哺乳动物**<mark>唯一</mark>**能高速率氧化脱氨的氨基酸   </div></div></foreignObject></g><g data-depth="3" data-path="1.16.18" class="markmap-node" transform="translate(518, -88.1875)"><line stroke="#d62728" stroke-width="1.375" x1="-1" x2="357" y1="21.6875" y2="21.6875"/><foreignObject class="markmap-foreign" x="8" y="0" style="opacity: 1;" width="339" height="21"><div xmlns="http://www.w3.org/1999/xhtml"><div xmlns="http://www.w3.org/1999/xhtml">关键酶 -&gt; <mark><strong>L-谷氨酸脱氢酶</strong></mark> -&gt; 存在于<strong>肝、脑、肾</strong>   </div></div></foreignObject></g><g data-depth="3" data-path="1.16.19" class="markmap-node" transform="translate(518, -60.8125)"><line stroke="#9467bd" stroke-width="1.375" x1="-1" x2="196" y1="21.6875" y2="21.6875"/><foreignObject class="markmap-foreign" x="8" y="0" style="opacity: 1;" width="178" height="21"><div xmlns="http://www.w3.org/1999/xhtml"><div xmlns="http://www.w3.org/1999/xhtml">辅酶 -&gt; <strong>NAD⁺ 或 NADP⁺</strong>   </div></div></foreignObject></g><g data-depth="3" data-path="1.16.20" class="markmap-node" transform="translate(518, -33.4375)"><line stroke="#8c564b" stroke-width="1.375" x1="-1" x2="443" y1="21.6875" y2="21.6875"/><foreignObject class="markmap-foreign" x="8" y="0" style="opacity: 1;" width="425" height="21"><div xmlns="http://www.w3.org/1999/xhtml"><div xmlns="http://www.w3.org/1999/xhtml">反应 -&gt; L-谷氨酸 + NAD(P)⁺ → α-酮戊二酸 + <strong>NH₃</strong> + NAD(P)H   </div></div></foreignObject></g><g data-depth="3" data-path="1.16.21" class="markmap-node" transform="translate(518, -6.0625)"><line stroke="#e377c2" stroke-width="1.375" x1="-1" x2="295" y1="21.6875" y2="21.6875"/><foreignObject class="markmap-foreign" x="8" y="0" style="opacity: 1;" width="277" height="21"><div xmlns="http://www.w3.org/1999/xhtml"><div xmlns="http://www.w3.org/1999/xhtml">调节 -&gt; <strong><mark>GTP/ATP抑制</mark></strong> / <strong><mark>GDP/ADP激活</mark></strong>   </div></div></foreignObject></g><g data-depth="3" data-path="1.16.22" class="markmap-node" transform="translate(518, 21.3125)"><line stroke="#7f7f7f" stroke-width="1.375" x1="-1" x2="207" y1="21.6875" y2="21.6875"/><foreignObject class="markmap-foreign" x="8" y="0" style="opacity: 1;" width="189" height="21"><div xmlns="http://www.w3.org/1999/xhtml"><div xmlns="http://www.w3.org/1999/xhtml">特点 -&gt; 可逆 / 产生游离氨   </div></div></foreignObject></g><g data-depth="2" data-path="1.16" class="markmap-node" transform="translate(315, -47.125)"><line stroke="#ff7f0e" stroke-width="1.75" x1="-1" x2="125" y1="21.875" y2="21.875"/><circle stroke-width="1.5" r="6" stroke="#ff7f0e" fill="var(--markmap-circle-open-bg)" cx="123" cy="21.875"/><foreignObject class="markmap-foreign" x="8" y="0" style="opacity: 1;" width="107" height="21"><div xmlns="http://www.w3.org/1999/xhtml"><div xmlns="http://www.w3.org/1999/xhtml"><strong>氧化脱氨作用</strong>   </div></div></foreignObject></g><g data-depth="3" data-path="1.23.24" class="markmap-node" transform="translate(662, 53.6875)"><line stroke="#ff7f0e" stroke-width="1.375" x1="-1" x2="409" y1="21.6875" y2="21.6875"/><foreignObject class="markmap-foreign" x="8" y="0" style="opacity: 1;" width="391" height="21"><div xmlns="http://www.w3.org/1999/xhtml"><div xmlns="http://www.w3.org/1999/xhtml">定义 -&gt; 转氨 + 氧化脱氨联合 -&gt; 氨基酸 → α-酮酸 + NH₃   </div></div></foreignObject></g><g data-depth="4" data-path="1.23.25.26" class="markmap-node" transform="translate(833, 86.0625)"><line stroke="#bcbd22" stroke-width="1.1875" x1="-1" x2="381" y1="21.59375" y2="21.59375"/><foreignObject class="markmap-foreign" x="8" y="0" style="opacity: 1;" width="363" height="21"><div xmlns="http://www.w3.org/1999/xhtml"><div xmlns="http://www.w3.org/1999/xhtml"><strong>转氨酶 + L-谷氨酸脱氢酶联合</strong> -&gt; **<mark>肝、肾、脑</mark>**中   </div></div></foreignObject></g><g data-depth="4" data-path="1.23.25.27" class="markmap-node" transform="translate(833, 113.25)"><line stroke="#17becf" stroke-width="1.1875" x1="-1" x2="302" y1="21.59375" y2="21.59375"/><foreignObject class="markmap-foreign" x="8" y="0" style="opacity: 1;" width="284" height="21"><div xmlns="http://www.w3.org/1999/xhtml"><div xmlns="http://www.w3.org/1999/xhtml"><strong>嘌呤核苷酸循环</strong> -&gt; **<mark>骨骼肌、心肌</mark>**中   </div></div></foreignObject></g><g data-depth="3" data-path="1.23.25" class="markmap-node" transform="translate(662, 99.65625)"><line stroke="#2ca02c" stroke-width="1.375" x1="-1" x2="93" y1="21.6875" y2="21.6875"/><circle stroke-width="1.5" r="6" stroke="#2ca02c" fill="var(--markmap-circle-open-bg)" cx="91" cy="21.6875"/><foreignObject class="markmap-foreign" x="8" y="0" style="opacity: 1;" width="75" height="21"><div xmlns="http://www.w3.org/1999/xhtml"><div xmlns="http://www.w3.org/1999/xhtml">两种类型   </div></div></foreignObject></g><g data-depth="3" data-path="1.23.28" class="markmap-node" transform="translate(662, 145.4375)"><line stroke="#1f77b4" stroke-width="1.375" x1="-1" x2="703" y1="21.6875" y2="21.6875"/><foreignObject class="markmap-foreign" x="8" y="0" style="opacity: 1;" width="685" height="21"><div xmlns="http://www.w3.org/1999/xhtml"><div xmlns="http://www.w3.org/1999/xhtml">过程 -&gt; 氨基酸 + α-酮戊二酸 →(转氨酶)→ α-酮酸 + 谷氨酸 →(谷氨酸脱氢酶)→ α-酮戊二酸 + <strong><mark>NH₃</mark></strong>   </div></div></foreignObject></g><g data-depth="4" data-path="1.23.29.30" class="markmap-node" transform="translate(833, 177.8125)"><line stroke="#2ca02c" stroke-width="1.1875" x1="-1" x2="233" y1="21.59375" y2="21.59375"/><foreignObject class="markmap-foreign" x="8" y="0" style="opacity: 1;" width="215" height="21"><div xmlns="http://www.w3.org/1999/xhtml"><div xmlns="http://www.w3.org/1999/xhtml">氨基酸脱氨基的**<mark>主要方式</mark>**   </div></div></foreignObject></g><g data-depth="4" data-path="1.23.29.31" class="markmap-node" transform="translate(833, 205)"><line stroke="#d62728" stroke-width="1.1875" x1="-1" x2="297" y1="21.59375" y2="21.59375"/><foreignObject class="markmap-foreign" x="8" y="0" style="opacity: 1;" width="279" height="21"><div xmlns="http://www.w3.org/1999/xhtml"><div xmlns="http://www.w3.org/1999/xhtml">体内合成**<mark>非必需氨基酸</mark>**的主要方式   </div></div></foreignObject></g><g data-depth="4" data-path="1.23.29.32" class="markmap-node" transform="translate(833, 232.1875)"><line stroke="#9467bd" stroke-width="1.1875" x1="-1" x2="93" y1="21.59375" y2="21.59375"/><foreignObject class="markmap-foreign" x="8" y="0" style="opacity: 1;" width="75" height="21"><div xmlns="http://www.w3.org/1999/xhtml"><div xmlns="http://www.w3.org/1999/xhtml">可逆反应   </div></div></foreignObject></g><g data-depth="3" data-path="1.23.29" class="markmap-node" transform="translate(662, 205)"><line stroke="#ff7f0e" stroke-width="1.375" x1="-1" x2="93" y1="21.6875" y2="21.6875"/><circle stroke-width="1.5" r="6" stroke="#ff7f0e" fill="var(--markmap-circle-open-bg)" cx="91" cy="21.6875"/><foreignObject class="markmap-foreign" x="8" y="0" style="opacity: 1;" width="75" height="21"><div xmlns="http://www.w3.org/1999/xhtml"><div xmlns="http://www.w3.org/1999/xhtml">生理意义   </div></div></foreignObject></g><g data-depth="2" data-path="1.23" class="markmap-node" transform="translate(315, 129.34375)"><line stroke="#1f77b4" stroke-width="1.75" x1="-1" x2="269" y1="21.875" y2="21.875"/><circle stroke-width="1.5" r="6" stroke="#1f77b4" fill="var(--markmap-circle-open-bg)" cx="267" cy="21.875"/><foreignObject class="markmap-foreign" x="8" y="0" style="opacity: 1;" width="251" height="21"><div xmlns="http://www.w3.org/1999/xhtml"><div xmlns="http://www.w3.org/1999/xhtml"><strong>联合脱氨基作用（主要脱氨方式）</strong>   </div></div></foreignObject></g><g data-depth="3" data-path="1.33.34" class="markmap-node" transform="translate(614, 264.375)"><line stroke="#d62728" stroke-width="1.375" x1="-1" x2="185" y1="21.6875" y2="21.6875"/><foreignObject class="markmap-foreign" x="8" y="0" style="opacity: 1;" width="167" height="21"><div xmlns="http://www.w3.org/1999/xhtml"><div xmlns="http://www.w3.org/1999/xhtml">彻底**<mark>氧化分解</mark>**供能   </div></div></foreignObject></g><g data-depth="3" data-path="1.33.35" class="markmap-node" transform="translate(614, 291.75)"><line stroke="#9467bd" stroke-width="1.375" x1="-1" x2="286" y1="21.6875" y2="21.6875"/><foreignObject class="markmap-foreign" x="8" y="0" style="opacity: 1;" width="268" height="21"><div xmlns="http://www.w3.org/1999/xhtml"><div xmlns="http://www.w3.org/1999/xhtml">重新氨基化 -&gt; 合成**<mark>非必需氨基酸</mark>**   </div></div></foreignObject></g><g data-depth="3" data-path="1.33.36" class="markmap-node" transform="translate(614, 319.125)"><line stroke="#8c564b" stroke-width="1.375" x1="-1" x2="297" y1="21.6875" y2="21.6875"/><foreignObject class="markmap-foreign" x="8" y="0" style="opacity: 1;" width="279" height="21"><div xmlns="http://www.w3.org/1999/xhtml"><div xmlns="http://www.w3.org/1999/xhtml">转变为**<mark>糖或酮体</mark>**（联系三大代谢）   </div></div></foreignObject></g><g data-depth="2" data-path="1.33" class="markmap-node" transform="translate(315, 291.75)"><line stroke="#2ca02c" stroke-width="1.75" x1="-1" x2="221" y1="21.875" y2="21.875"/><circle stroke-width="1.5" r="6" stroke="#2ca02c" fill="var(--markmap-circle-open-bg)" cx="219" cy="21.875"/><foreignObject class="markmap-foreign" x="8" y="0" style="opacity: 1;" width="203" height="21"><div xmlns="http://www.w3.org/1999/xhtml"><div xmlns="http://www.w3.org/1999/xhtml"><strong>α-酮酸的代谢去路（三条）</strong>   </div></div></foreignObject></g><g data-depth="3" data-path="1.37.38" class="markmap-node" transform="translate(646, 351.5)"><line stroke="#7f7f7f" stroke-width="1.375" x1="-1" x2="539" y1="21.6875" y2="21.6875"/><foreignObject class="markmap-foreign" x="8" y="0" style="opacity: 1;" width="521" height="21"><div xmlns="http://www.w3.org/1999/xhtml"><div xmlns="http://www.w3.org/1999/xhtml"><strong>生糖氨基酸</strong> -&gt; <strong><mark>13种</mark></strong> -&gt; 代谢中间物：丙酮酸/α-酮戊二酸/草酰乙酸/琥珀酸   </div></div></foreignObject></g><g data-depth="3" data-path="1.37.39" class="markmap-node" transform="translate(646, 378.875)"><line stroke="#bcbd22" stroke-width="1.375" x1="-1" x2="509" y1="21.6875" y2="21.6875"/><foreignObject class="markmap-foreign" x="8" y="0" style="opacity: 1;" width="491" height="21"><div xmlns="http://www.w3.org/1999/xhtml"><div xmlns="http://www.w3.org/1999/xhtml"><strong>生酮氨基酸</strong> -&gt; <strong><mark>2种</mark></strong> -&gt; <strong><mark>亮氨酸、赖氨酸</mark></strong> -&gt; 口诀："<strong>同样来</strong>"（酮-亮-赖）   </div></div></foreignObject></g><g data-depth="3" data-path="1.37.40" class="markmap-node" transform="translate(646, 406.25)"><line stroke="#17becf" stroke-width="1.375" x1="-1" x2="696" y1="21.6875" y2="21.6875"/><foreignObject class="markmap-foreign" x="8" y="0" style="opacity: 1;" width="678" height="21"><div xmlns="http://www.w3.org/1999/xhtml"><div xmlns="http://www.w3.org/1999/xhtml"><strong>生糖兼生酮氨基酸</strong> -&gt; <strong><mark>5种</mark></strong> -&gt; <strong><mark>异亮、苯丙、酪、色、苏</mark></strong> -&gt; 口诀："<strong>一本落色书</strong>"（异-苯-酪-色-苏）   </div></div></foreignObject></g><g data-depth="2" data-path="1.37" class="markmap-node" transform="translate(315, 378.875)"><line stroke="#e377c2" stroke-width="1.75" x1="-1" x2="253" y1="21.875" y2="21.875"/><circle stroke-width="1.5" r="6" stroke="#e377c2" fill="var(--markmap-circle-open-bg)" cx="251" cy="21.875"/><foreignObject class="markmap-foreign" x="8" y="0" style="opacity: 1;" width="235" height="21"><div xmlns="http://www.w3.org/1999/xhtml"><div xmlns="http://www.w3.org/1999/xhtml"><strong>氨基酸按代谢产物分类（必背）</strong>   </div></div></foreignObject></g><g data-depth="1" data-path="1" class="markmap-node" transform="translate(0, -10.5)"><line stroke="#1f77b4" stroke-width="2.5" x1="-1" x2="237" y1="22.25" y2="22.25"/><circle stroke-width="1.5" r="6" stroke="#1f77b4" fill="var(--markmap-circle-open-bg)" cx="235" cy="22.25"/><foreignObject class="markmap-foreign" x="8" y="0" style="opacity: 1;" width="219" height="21"><div xmlns="http://www.w3.org/1999/xhtml"><div xmlns="http://www.w3.org/1999/xhtml">氨基酸的一般代谢（脱氨基）   </div></div></foreignObject></g></g></svg>