<svg xmlns="http://www.w3.org/2000/svg" class="w-full h-full leading-none markmap mm-dn9wym-1" style=""><style>.markmap{--markmap-max-width: 9999px;--markmap-a-color: #0097e6;--markmap-a-hover-color: #00a8ff;--markmap-code-bg: #f0f0f0;--markmap-code-color: #555;--markmap-highlight-bg: #ffeaa7;--markmap-table-border: 1px solid currentColor;--markmap-font: 300 16px/20px sans-serif;--markmap-circle-open-bg: #fff;--markmap-text-color: #333;--markmap-highlight-node-bg: #ff02;font:var(--markmap-font);color:var(--markmap-text-color)}.markmap-link{fill:none}.markmap-node&gt;circle{cursor:pointer}.markmap-foreign{display:inline-block}.markmap-foreign p{margin:0}.markmap-foreign a{color:var(--markmap-a-color)}.markmap-foreign a:hover{color:var(--markmap-a-hover-color)}.markmap-foreign code{padding:.25em;font-size:calc(1em - 2px);color:var(--markmap-code-color);background-color:var(--markmap-code-bg);border-radius:2px}.markmap-foreign pre{margin:0}.markmap-foreign pre&gt;code{display:block}.markmap-foreign del{text-decoration:line-through}.markmap-foreign em{font-style:italic}.markmap-foreign strong{font-weight:700}.markmap-foreign mark{background:var(--markmap-highlight-bg)}.markmap-foreign table,.markmap-foreign th,.markmap-foreign td{border-collapse:collapse;border:var(--markmap-table-border)}.markmap-foreign img{display:inline-block}.markmap-foreign svg{fill:currentColor}.markmap-foreign&gt;div{width:var(--markmap-max-width);text-align:left}.markmap-foreign&gt;div&gt;div{display:inline-block}.markmap-highlight rect{fill:var(--markmap-highlight-node-bg)}.markmap-dark .markmap{--markmap-code-bg: #1a1b26;--markmap-code-color: #ddd;--markmap-circle-open-bg: #444;--markmap-text-color: #eee}</style><g transform="translate(70.52625494367271,375.6300767276845) scale(0.43631207494204627)"><path class="markmap-link" data-depth="3" data-path="1.2.3" d="M374,-301.781C414,-301.781,414,-315.656,454,-315.656" stroke-width="1.375" stroke="rgb(148, 103, 189)"/><path class="markmap-link" data-depth="3" data-path="1.2.4" d="M374,-301.781C414,-301.781,414,-288.281,454,-288.281" stroke-width="1.375" stroke="rgb(227, 119, 194)"/><path class="markmap-link" data-depth="3" data-path="1.5.6" d="M390,-242.031C430,-242.031,430,-255.906,470,-255.906" stroke-width="1.375" stroke="rgb(227, 119, 194)"/><path class="markmap-link" data-depth="3" data-path="1.5.7" d="M390,-242.031C430,-242.031,430,-228.531,470,-228.531" stroke-width="1.375" stroke="rgb(23, 190, 207)"/><path class="markmap-link" data-depth="4" data-path="1.8.9.10" d="M689,-155.375C729,-155.375,729,-196.25,769,-196.25" stroke-width="1.1875" stroke="rgb(140, 86, 75)"/><path class="markmap-link" data-depth="4" data-path="1.8.9.11" d="M689,-155.375C729,-155.375,729,-169.062,769,-169.062" stroke-width="1.1875" stroke="rgb(227, 119, 194)"/><path class="markmap-link" data-depth="4" data-path="1.8.9.12" d="M689,-155.375C729,-155.375,729,-141.875,769,-141.875" stroke-width="1.1875" stroke="rgb(127, 127, 127)"/><path class="markmap-link" data-depth="4" data-path="1.8.9.13" d="M689,-155.375C729,-155.375,729,-114.687,769,-114.687" stroke-width="1.1875" stroke="rgb(188, 189, 34)"/><path class="markmap-link" data-depth="4" data-path="1.8.14.15" d="M705,-28.031C745,-28.031,745,-82.5,785,-82.5" stroke-width="1.1875" stroke="rgb(31, 119, 180)"/><path class="markmap-link" data-depth="4" data-path="1.8.14.16" d="M705,-28.031C745,-28.031,745,-55.312,785,-55.312" stroke-width="1.1875" stroke="rgb(255, 127, 14)"/><path class="markmap-link" data-depth="4" data-path="1.8.14.17" d="M705,-28.031C745,-28.031,745,-28.125,785,-28.125" stroke-width="1.1875" stroke="rgb(44, 160, 44)"/><path class="markmap-link" data-depth="4" data-path="1.8.14.18" d="M705,-28.031C745,-28.031,745,-0.937,785,-0.937" stroke-width="1.1875" stroke="rgb(214, 39, 40)"/><path class="markmap-link" data-depth="4" data-path="1.8.14.19" d="M705,-28.031C745,-28.031,745,26.25,785,26.25" stroke-width="1.1875" stroke="rgb(148, 103, 189)"/><path class="markmap-link" data-depth="3" data-path="1.8.9" d="M406,-91.516C446,-91.516,446,-155.375,486,-155.375" stroke-width="1.375" stroke="rgb(148, 103, 189)"/><path class="markmap-link" data-depth="3" data-path="1.8.14" d="M406,-91.516C446,-91.516,446,-28.031,486,-28.031" stroke-width="1.375" stroke="rgb(23, 190, 207)"/><path class="markmap-link" data-depth="4" data-path="1.20.22.23" d="M609,118.094C649,118.094,649,90.813,689,90.813" stroke-width="1.1875" stroke="rgb(140, 86, 75)"/><path class="markmap-link" data-depth="4" data-path="1.20.22.24" d="M609,118.094C649,118.094,649,118,689,118" stroke-width="1.1875" stroke="rgb(227, 119, 194)"/><path class="markmap-link" data-depth="4" data-path="1.20.22.25" d="M609,118.094C649,118.094,649,145.188,689,145.188" stroke-width="1.1875" stroke="rgb(127, 127, 127)"/><path class="markmap-link" data-depth="3" data-path="1.20.21" d="M438,118.188C478,118.188,478,58.531,518,58.531" stroke-width="1.375" stroke="rgb(23, 190, 207)"/><path class="markmap-link" data-depth="3" data-path="1.20.22" d="M438,118.188C478,118.188,478,118.094,518,118.094" stroke-width="1.375" stroke="rgb(31, 119, 180)"/><path class="markmap-link" data-depth="3" data-path="1.20.26" d="M438,118.188C478,118.188,478,177.469,518,177.469" stroke-width="1.375" stroke="rgb(188, 189, 34)"/><path class="markmap-link" data-depth="3" data-path="1.27.28" d="M438,237.406C478,237.406,478,209.844,518,209.844" stroke-width="1.375" stroke="rgb(23, 190, 207)"/><path class="markmap-link" data-depth="3" data-path="1.27.29" d="M438,237.406C478,237.406,478,237.219,518,237.219" stroke-width="1.375" stroke="rgb(31, 119, 180)"/><path class="markmap-link" data-depth="3" data-path="1.27.30" d="M438,237.406C478,237.406,478,264.594,518,264.594" stroke-width="1.375" stroke="rgb(255, 127, 14)"/><path class="markmap-link" data-depth="3" data-path="1.31.32" d="M454,324.531C494,324.531,494,296.969,534,296.969" stroke-width="1.375" stroke="rgb(31, 119, 180)"/><path class="markmap-link" data-depth="3" data-path="1.31.33" d="M454,324.531C494,324.531,494,324.344,534,324.344" stroke-width="1.375" stroke="rgb(255, 127, 14)"/><path class="markmap-link" data-depth="3" data-path="1.31.34" d="M454,324.531C494,324.531,494,351.719,534,351.719" stroke-width="1.375" stroke="rgb(44, 160, 44)"/><path class="markmap-link" data-depth="2" data-path="1.2" d="M203,11.75C243,11.75,243,-301.781,283,-301.781" stroke-width="1.75" stroke="rgb(255, 127, 14)"/><path class="markmap-link" data-depth="2" data-path="1.5" d="M203,11.75C243,11.75,243,-242.031,283,-242.031" stroke-width="1.75" stroke="rgb(44, 160, 44)"/><path class="markmap-link" data-depth="2" data-path="1.8" d="M203,11.75C243,11.75,243,-91.516,283,-91.516" stroke-width="1.75" stroke="rgb(214, 39, 40)"/><path class="markmap-link" data-depth="2" data-path="1.20" d="M203,11.75C243,11.75,243,118.188,283,118.188" stroke-width="1.75" stroke="rgb(188, 189, 34)"/><path class="markmap-link" data-depth="2" data-path="1.27" d="M203,11.75C243,11.75,243,237.406,283,237.406" stroke-width="1.75" stroke="rgb(188, 189, 34)"/><path class="markmap-link" data-depth="2" data-path="1.31" d="M203,11.75C243,11.75,243,324.531,283,324.531" stroke-width="1.75" stroke="rgb(23, 190, 207)"/><g class="markmap-highlight"/><g data-depth="3" data-path="1.2.3" class="markmap-node" transform="translate(454, -337.34375)"><line stroke="#9467bd" stroke-width="1.375" x1="-1" x2="451" y1="21.6875" y2="21.6875"/><foreignObject class="markmap-foreign" x="8" y="0" style="opacity: 1;" width="433" height="21"><div xmlns="http://www.w3.org/1999/xhtml"><div xmlns="http://www.w3.org/1999/xhtml"><strong>定义</strong> -&gt; 由<strong>肝细胞</strong>分泌 → 肝胆管 → 胆囊（储存浓缩）→ 肠道   </div></div></foreignObject></g><g data-depth="3" data-path="1.2.4" class="markmap-node" transform="translate(454, -309.96875)"><line stroke="#e377c2" stroke-width="1.375" x1="-1" x2="558" y1="21.6875" y2="21.6875"/><foreignObject class="markmap-foreign" x="8" y="0" style="opacity: 1;" width="540" height="21"><div xmlns="http://www.w3.org/1999/xhtml"><div xmlns="http://www.w3.org/1999/xhtml"><strong>双重功能</strong> -&gt; 消化液（促进脂类消化吸收）+ 排泄液（排出胆红素等代谢物）   </div></div></foreignObject></g><g data-depth="2" data-path="1.2" class="markmap-node" transform="translate(283, -323.65625)"><line stroke="#ff7f0e" stroke-width="1.75" x1="-1" x2="93" y1="21.875" y2="21.875"/><circle stroke-width="1.5" r="6" stroke="#ff7f0e" fill="var(--markmap-circle-open-bg)" cx="91" cy="21.875"/><foreignObject class="markmap-foreign" x="8" y="0" style="opacity: 1;" width="75" height="21"><div xmlns="http://www.w3.org/1999/xhtml"><div xmlns="http://www.w3.org/1999/xhtml"><strong>胆汁概述</strong>   </div></div></foreignObject></g><g data-depth="3" data-path="1.5.6" class="markmap-node" transform="translate(470, -277.59375)"><line stroke="#e377c2" stroke-width="1.375" x1="-1" x2="454" y1="21.6875" y2="21.6875"/><foreignObject class="markmap-foreign" x="8" y="0" style="opacity: 1;" width="436" height="21"><div xmlns="http://www.w3.org/1999/xhtml"><div xmlns="http://www.w3.org/1999/xhtml"><strong>定义</strong> -&gt; 肝细胞以**<mark>胆固醇</mark>**为原料合成的 24 碳类固醇化合物   </div></div></foreignObject></g><g data-depth="3" data-path="1.5.7" class="markmap-node" transform="translate(470, -250.21875)"><line stroke="#17becf" stroke-width="1.375" x1="-1" x2="633" y1="21.6875" y2="21.6875"/><foreignObject class="markmap-foreign" x="8" y="0" style="opacity: 1;" width="615" height="21"><div xmlns="http://www.w3.org/1999/xhtml"><div xmlns="http://www.w3.org/1999/xhtml"><strong>地位</strong> -&gt; 胆固醇在体内**<mark>主要的代谢产物</mark>** -&gt; 以钠盐/钾盐形式存在 = 胆汁酸盐（胆盐）   </div></div></foreignObject></g><g data-depth="2" data-path="1.5" class="markmap-node" transform="translate(283, -263.90625)"><line stroke="#2ca02c" stroke-width="1.75" x1="-1" x2="109" y1="21.875" y2="21.875"/><circle stroke-width="1.5" r="6" stroke="#2ca02c" fill="var(--markmap-circle-open-bg)" cx="107" cy="21.875"/><foreignObject class="markmap-foreign" x="8" y="0" style="opacity: 1;" width="91" height="21"><div xmlns="http://www.w3.org/1999/xhtml"><div xmlns="http://www.w3.org/1999/xhtml"><strong>胆汁酸概述</strong>   </div></div></foreignObject></g><g data-depth="4" data-path="1.8.9.10" class="markmap-node" transform="translate(769, -217.84375)"><line stroke="#8c564b" stroke-width="1.1875" x1="-1" x2="274" y1="21.59375" y2="21.59375"/><foreignObject class="markmap-foreign" x="8" y="0" style="opacity: 1;" width="256" height="21"><div xmlns="http://www.w3.org/1999/xhtml"><div xmlns="http://www.w3.org/1999/xhtml">合成部位 -&gt; <strong><mark>肝细胞的胞液和微粒体</mark></strong>   </div></div></foreignObject></g><g data-depth="4" data-path="1.8.9.11" class="markmap-node" transform="translate(769, -190.65625)"><line stroke="#e377c2" stroke-width="1.1875" x1="-1" x2="130" y1="21.59375" y2="21.59375"/><foreignObject class="markmap-foreign" x="8" y="0" style="opacity: 1;" width="112" height="21"><div xmlns="http://www.w3.org/1999/xhtml"><div xmlns="http://www.w3.org/1999/xhtml">原料 -&gt; <strong><mark>胆固醇</mark></strong>   </div></div></foreignObject></g><g data-depth="4" data-path="1.8.9.12" class="markmap-node" transform="translate(769, -163.46875)"><line stroke="#7f7f7f" stroke-width="1.1875" x1="-1" x2="223" y1="21.59375" y2="21.59375"/><foreignObject class="markmap-foreign" x="8" y="0" style="opacity: 1;" width="205" height="21"><div xmlns="http://www.w3.org/1999/xhtml"><div xmlns="http://www.w3.org/1999/xhtml">游离型 -&gt; <strong><mark>胆酸</mark></strong> / <strong><mark>鹅脱氧胆酸</mark></strong>   </div></div></foreignObject></g><g data-depth="4" data-path="1.8.9.13" class="markmap-node" transform="translate(769, -136.28125)"><line stroke="#bcbd22" stroke-width="1.1875" x1="-1" x2="490" y1="21.59375" y2="21.59375"/><foreignObject class="markmap-foreign" x="8" y="0" style="opacity: 1;" width="472" height="21"><div xmlns="http://www.w3.org/1999/xhtml"><div xmlns="http://www.w3.org/1999/xhtml">结合型 -&gt; 甘氨胆酸 / 牛磺胆酸 / 甘氨鹅脱氧胆酸 / 牛磺鹅脱氧胆酸   </div></div></foreignObject></g><g data-depth="3" data-path="1.8.9" class="markmap-node" transform="translate(486, -177.0625)"><line stroke="#9467bd" stroke-width="1.375" x1="-1" x2="205" y1="21.6875" y2="21.6875"/><circle stroke-width="1.5" r="6" stroke="#9467bd" fill="var(--markmap-circle-open-bg)" cx="203" cy="21.6875"/><foreignObject class="markmap-foreign" x="8" y="0" style="opacity: 1;" width="187" height="21"><div xmlns="http://www.w3.org/1999/xhtml"><div xmlns="http://www.w3.org/1999/xhtml"><strong>初级胆汁酸（肝内合成）</strong>   </div></div></foreignObject></g><g data-depth="4" data-path="1.8.14.15" class="markmap-node" transform="translate(785, -104.09375)"><line stroke="#1f77b4" stroke-width="1.1875" x1="-1" x2="226" y1="21.59375" y2="21.59375"/><foreignObject class="markmap-foreign" x="8" y="0" style="opacity: 1;" width="208" height="21"><div xmlns="http://www.w3.org/1999/xhtml"><div xmlns="http://www.w3.org/1999/xhtml">生成部位 -&gt; <strong><mark>小肠下段和大肠</mark></strong>   </div></div></foreignObject></g><g data-depth="4" data-path="1.8.14.16" class="markmap-node" transform="translate(785, -76.90625)"><line stroke="#ff7f0e" stroke-width="1.1875" x1="-1" x2="162" y1="21.59375" y2="21.59375"/><foreignObject class="markmap-foreign" x="8" y="0" style="opacity: 1;" width="144" height="21"><div xmlns="http://www.w3.org/1999/xhtml"><div xmlns="http://www.w3.org/1999/xhtml">原料 -&gt; 初级胆汁酸   </div></div></foreignObject></g><g data-depth="4" data-path="1.8.14.17" class="markmap-node" transform="translate(785, -49.71875)"><line stroke="#2ca02c" stroke-width="1.1875" x1="-1" x2="366" y1="21.59375" y2="21.59375"/><foreignObject class="markmap-foreign" x="8" y="0" style="opacity: 1;" width="348" height="21"><div xmlns="http://www.w3.org/1999/xhtml"><div xmlns="http://www.w3.org/1999/xhtml">关键反应 -&gt; 肠道细菌催化 → <strong>第 7 位 α-羟基脱氧</strong>   </div></div></foreignObject></g><g data-depth="4" data-path="1.8.14.18" class="markmap-node" transform="translate(785, -22.53125)"><line stroke="#d62728" stroke-width="1.1875" x1="-1" x2="459" y1="21.59375" y2="21.59375"/><foreignObject class="markmap-foreign" x="8" y="0" style="opacity: 1;" width="441" height="21"><div xmlns="http://www.w3.org/1999/xhtml"><div xmlns="http://www.w3.org/1999/xhtml">游离型 -&gt; <strong><mark>脱氧胆酸</mark></strong>（来自胆酸）/ <strong><mark>石胆酸</mark></strong>（来自鹅脱氧胆酸）   </div></div></foreignObject></g><g data-depth="4" data-path="1.8.14.19" class="markmap-node" transform="translate(785, 4.65625)"><line stroke="#9467bd" stroke-width="1.1875" x1="-1" x2="490" y1="21.59375" y2="21.59375"/><foreignObject class="markmap-foreign" x="8" y="0" style="opacity: 1;" width="472" height="21"><div xmlns="http://www.w3.org/1999/xhtml"><div xmlns="http://www.w3.org/1999/xhtml">结合型 -&gt; 甘氨脱氧胆酸 / 牛磺脱氧胆酸 / 甘氨石胆酸 / 牛磺石胆酸   </div></div></foreignObject></g><g data-depth="3" data-path="1.8.14" class="markmap-node" transform="translate(486, -49.71875)"><line stroke="#17becf" stroke-width="1.375" x1="-1" x2="221" y1="21.6875" y2="21.6875"/><circle stroke-width="1.5" r="6" stroke="#17becf" fill="var(--markmap-circle-open-bg)" cx="219" cy="21.6875"/><foreignObject class="markmap-foreign" x="8" y="0" style="opacity: 1;" width="203" height="21"><div xmlns="http://www.w3.org/1999/xhtml"><div xmlns="http://www.w3.org/1999/xhtml"><strong>次级胆汁酸（肠道内生成）</strong>   </div></div></foreignObject></g><g data-depth="2" data-path="1.8" class="markmap-node" transform="translate(283, -113.390625)"><line stroke="#d62728" stroke-width="1.75" x1="-1" x2="125" y1="21.875" y2="21.875"/><circle stroke-width="1.5" r="6" stroke="#d62728" fill="var(--markmap-circle-open-bg)" cx="123" cy="21.875"/><foreignObject class="markmap-foreign" x="8" y="0" style="opacity: 1;" width="107" height="21"><div xmlns="http://www.w3.org/1999/xhtml"><div xmlns="http://www.w3.org/1999/xhtml"><strong>胆汁酸的分类</strong>   </div></div></foreignObject></g><g data-depth="3" data-path="1.20.21" class="markmap-node" transform="translate(518, 36.84375)"><line stroke="#17becf" stroke-width="1.375" x1="-1" x2="987" y1="21.6875" y2="21.6875"/><foreignObject class="markmap-foreign" x="8" y="0" style="opacity: 1;" width="969" height="21"><div xmlns="http://www.w3.org/1999/xhtml"><div xmlns="http://www.w3.org/1999/xhtml"><strong>定义</strong> -&gt; 胆汁酸排入肠腔 → 约 <strong><mark>95%</mark></strong> 被肠壁重吸收 → 经**<mark>门静脉</mark>**回肝 → 肝内转变成结合胆汁酸 → 与新合成胆汁酸一起 → 再次排入肠腔   </div></div></foreignObject></g><g data-depth="4" data-path="1.20.22.23" class="markmap-node" transform="translate(689, 69.21875)"><line stroke="#8c564b" stroke-width="1.1875" x1="-1" x2="164" y1="21.59375" y2="21.59375"/><foreignObject class="markmap-foreign" x="8" y="0" style="opacity: 1;" width="146" height="21"><div xmlns="http://www.w3.org/1999/xhtml"><div xmlns="http://www.w3.org/1999/xhtml">代谢池总量 -&gt; <strong><mark>3-5g</mark></strong>   </div></div></foreignObject></g><g data-depth="4" data-path="1.20.22.24" class="markmap-node" transform="translate(689, 96.40625)"><line stroke="#e377c2" stroke-width="1.1875" x1="-1" x2="183" y1="21.59375" y2="21.59375"/><foreignObject class="markmap-foreign" x="8" y="0" style="opacity: 1;" width="165" height="21"><div xmlns="http://www.w3.org/1999/xhtml"><div xmlns="http://www.w3.org/1999/xhtml">每日需要量 -&gt; <strong><mark>16-32g</mark></strong>   </div></div></foreignObject></g><g data-depth="4" data-path="1.20.22.25" class="markmap-node" transform="translate(689, 123.59375)"><line stroke="#7f7f7f" stroke-width="1.1875" x1="-1" x2="200" y1="21.59375" y2="21.59375"/><foreignObject class="markmap-foreign" x="8" y="0" style="opacity: 1;" width="182" height="21"><div xmlns="http://www.w3.org/1999/xhtml"><div xmlns="http://www.w3.org/1999/xhtml">循环次数 -&gt; 每日 6-10 次   </div></div></foreignObject></g><g data-depth="3" data-path="1.20.22" class="markmap-node" transform="translate(518, 96.40625)"><line stroke="#1f77b4" stroke-width="1.375" x1="-1" x2="93" y1="21.6875" y2="21.6875"/><circle stroke-width="1.5" r="6" stroke="#1f77b4" fill="var(--markmap-circle-open-bg)" cx="91" cy="21.6875"/><foreignObject class="markmap-foreign" x="8" y="0" style="opacity: 1;" width="75" height="21"><div xmlns="http://www.w3.org/1999/xhtml"><div xmlns="http://www.w3.org/1999/xhtml"><strong>循环参数</strong>   </div></div></foreignObject></g><g data-depth="3" data-path="1.20.26" class="markmap-node" transform="translate(518, 155.78125)"><line stroke="#bcbd22" stroke-width="1.375" x1="-1" x2="563" y1="21.6875" y2="21.6875"/><foreignObject class="markmap-foreign" x="8" y="0" style="opacity: 1;" width="545" height="21"><div xmlns="http://www.w3.org/1999/xhtml"><div xmlns="http://www.w3.org/1999/xhtml"><strong>生理意义</strong> -&gt; 使有限的胆汁酸经**<mark>循环利用</mark>** -&gt; 满足机体对胆汁酸的巨大需求   </div></div></foreignObject></g><g data-depth="2" data-path="1.20" class="markmap-node" transform="translate(283, 96.3125)"><line stroke="#bcbd22" stroke-width="1.75" x1="-1" x2="157" y1="21.875" y2="21.875"/><circle stroke-width="1.5" r="6" stroke="#bcbd22" fill="var(--markmap-circle-open-bg)" cx="155" cy="21.875"/><foreignObject class="markmap-foreign" x="8" y="0" style="opacity: 1;" width="139" height="21"><div xmlns="http://www.w3.org/1999/xhtml"><div xmlns="http://www.w3.org/1999/xhtml"><strong>胆汁酸的肠肝循环</strong>   </div></div></foreignObject></g><g data-depth="3" data-path="1.27.28" class="markmap-node" transform="translate(518, 188.15625)"><line stroke="#17becf" stroke-width="1.375" x1="-1" x2="529" y1="21.6875" y2="21.6875"/><foreignObject class="markmap-foreign" x="8" y="0" style="opacity: 1;" width="511" height="21"><div xmlns="http://www.w3.org/1999/xhtml"><div xmlns="http://www.w3.org/1999/xhtml"><strong>作用1</strong> -&gt; 促进脂类的消化和吸收 -&gt; 作为**<mark>乳化剂</mark>** -&gt; 降低油水界面张力   </div></div></foreignObject></g><g data-depth="3" data-path="1.27.29" class="markmap-node" transform="translate(518, 215.53125)"><line stroke="#1f77b4" stroke-width="1.375" x1="-1" x2="428" y1="21.6875" y2="21.6875"/><foreignObject class="markmap-foreign" x="8" y="0" style="opacity: 1;" width="410" height="21"><div xmlns="http://www.w3.org/1999/xhtml"><div xmlns="http://www.w3.org/1999/xhtml"><strong>作用2</strong> -&gt; 抑制胆汁中胆固醇的析出 -&gt; 防止**<mark>胆结石</mark>**形成   </div></div></foreignObject></g><g data-depth="3" data-path="1.27.30" class="markmap-node" transform="translate(518, 242.90625)"><line stroke="#ff7f0e" stroke-width="1.375" x1="-1" x2="399" y1="21.6875" y2="21.6875"/><foreignObject class="markmap-foreign" x="8" y="0" style="opacity: 1;" width="381" height="21"><div xmlns="http://www.w3.org/1999/xhtml"><div xmlns="http://www.w3.org/1999/xhtml"><strong>临床应用</strong> -&gt; <strong>鹅脱氧胆酸 / 熊脱氧胆酸</strong>治疗胆固醇结石   </div></div></foreignObject></g><g data-depth="2" data-path="1.27" class="markmap-node" transform="translate(283, 215.53125)"><line stroke="#bcbd22" stroke-width="1.75" x1="-1" x2="157" y1="21.875" y2="21.875"/><circle stroke-width="1.5" r="6" stroke="#bcbd22" fill="var(--markmap-circle-open-bg)" cx="155" cy="21.875"/><foreignObject class="markmap-foreign" x="8" y="0" style="opacity: 1;" width="139" height="21"><div xmlns="http://www.w3.org/1999/xhtml"><div xmlns="http://www.w3.org/1999/xhtml"><strong>胆汁酸的生理作用</strong>   </div></div></foreignObject></g><g data-depth="3" data-path="1.31.32" class="markmap-node" transform="translate(534, 275.28125)"><line stroke="#1f77b4" stroke-width="1.375" x1="-1" x2="352" y1="21.6875" y2="21.6875"/><foreignObject class="markmap-foreign" x="8" y="0" style="opacity: 1;" width="334" height="21"><div xmlns="http://www.w3.org/1999/xhtml"><div xmlns="http://www.w3.org/1999/xhtml"><strong>胆固醇 → 胆汁酸</strong> = 胆固醇的**<mark>主要代谢去路</mark>**   </div></div></foreignObject></g><g data-depth="3" data-path="1.31.33" class="markmap-node" transform="translate(534, 302.65625)"><line stroke="#ff7f0e" stroke-width="1.375" x1="-1" x2="634" y1="21.6875" y2="21.6875"/><foreignObject class="markmap-foreign" x="8" y="0" style="opacity: 1;" width="616" height="21"><div xmlns="http://www.w3.org/1999/xhtml"><div xmlns="http://www.w3.org/1999/xhtml">肠肝循环被阻断（如服用胆汁酸结合树脂）-&gt; 肝胆固醇转化为胆汁酸 ↑ -&gt; 血胆固醇 ↓   </div></div></foreignObject></g><g data-depth="3" data-path="1.31.34" class="markmap-node" transform="translate(534, 330.03125)"><line stroke="#2ca02c" stroke-width="1.375" x1="-1" x2="237" y1="21.6875" y2="21.6875"/><foreignObject class="markmap-foreign" x="8" y="0" style="opacity: 1;" width="219" height="21"><div xmlns="http://www.w3.org/1999/xhtml"><div xmlns="http://www.w3.org/1999/xhtml">这是降胆固醇药物的原理之一   </div></div></foreignObject></g><g data-depth="2" data-path="1.31" class="markmap-node" transform="translate(283, 302.65625)"><line stroke="#17becf" stroke-width="1.75" x1="-1" x2="173" y1="21.875" y2="21.875"/><circle stroke-width="1.5" r="6" stroke="#17becf" fill="var(--markmap-circle-open-bg)" cx="171" cy="21.875"/><foreignObject class="markmap-foreign" x="8" y="0" style="opacity: 1;" width="155" height="21"><div xmlns="http://www.w3.org/1999/xhtml"><div xmlns="http://www.w3.org/1999/xhtml"><strong>胆汁酸的代谢调控链</strong>   </div></div></foreignObject></g><g data-depth="1" data-path="1" class="markmap-node" transform="translate(0, -10.5)"><line stroke="#1f77b4" stroke-width="2.5" x1="-1" x2="205" y1="22.25" y2="22.25"/><circle stroke-width="1.5" r="6" stroke="#1f77b4" fill="var(--markmap-circle-open-bg)" cx="203" cy="22.25"/><foreignObject class="markmap-foreign" x="8" y="0" style="opacity: 1;" width="187" height="21"><div xmlns="http://www.w3.org/1999/xhtml"><div xmlns="http://www.w3.org/1999/xhtml">胆汁酸的代谢与肠肝循环   </div></div></foreignObject></g></g></svg>