<svg xmlns="http://www.w3.org/2000/svg" class="w-full h-full leading-none markmap mm-dn9wym-1" style=""><style>.markmap{--markmap-max-width: 9999px;--markmap-a-color: #0097e6;--markmap-a-hover-color: #00a8ff;--markmap-code-bg: #f0f0f0;--markmap-code-color: #555;--markmap-highlight-bg: #ffeaa7;--markmap-table-border: 1px solid currentColor;--markmap-font: 300 16px/20px sans-serif;--markmap-circle-open-bg: #fff;--markmap-text-color: #333;--markmap-highlight-node-bg: #ff02;font:var(--markmap-font);color:var(--markmap-text-color)}.markmap-link{fill:none}.markmap-node&gt;circle{cursor:pointer}.markmap-foreign{display:inline-block}.markmap-foreign p{margin:0}.markmap-foreign a{color:var(--markmap-a-color)}.markmap-foreign a:hover{color:var(--markmap-a-hover-color)}.markmap-foreign code{padding:.25em;font-size:calc(1em - 2px);color:var(--markmap-code-color);background-color:var(--markmap-code-bg);border-radius:2px}.markmap-foreign pre{margin:0}.markmap-foreign pre&gt;code{display:block}.markmap-foreign del{text-decoration:line-through}.markmap-foreign em{font-style:italic}.markmap-foreign strong{font-weight:700}.markmap-foreign mark{background:var(--markmap-highlight-bg)}.markmap-foreign table,.markmap-foreign th,.markmap-foreign td{border-collapse:collapse;border:var(--markmap-table-border)}.markmap-foreign img{display:inline-block}.markmap-foreign svg{fill:currentColor}.markmap-foreign&gt;div{width:var(--markmap-max-width);text-align:left}.markmap-foreign&gt;div&gt;div{display:inline-block}.markmap-highlight rect{fill:var(--markmap-highlight-node-bg)}.markmap-dark .markmap{--markmap-code-bg: #1a1b26;--markmap-code-color: #ddd;--markmap-circle-open-bg: #444;--markmap-text-color: #eee}</style><g transform="translate(14.526254943672711,375.6300767276845) scale(0.43631207494204627)"><path class="markmap-link" data-depth="3" data-path="1.2.3" d="M515,-426.812C555,-426.812,555,-454.375,595,-454.375" stroke-width="1.375" stroke="rgb(148, 103, 189)"/><path class="markmap-link" data-depth="3" data-path="1.2.4" d="M515,-426.812C555,-426.812,555,-427,595,-427" stroke-width="1.375" stroke="rgb(227, 119, 194)"/><path class="markmap-link" data-depth="3" data-path="1.2.5" d="M515,-426.812C555,-426.812,555,-399.625,595,-399.625" stroke-width="1.375" stroke="rgb(227, 119, 194)"/><path class="markmap-link" data-depth="4" data-path="1.6.9.10" d="M702,-293.906C742,-293.906,742,-307.594,782,-307.594" stroke-width="1.1875" stroke="rgb(23, 190, 207)"/><path class="markmap-link" data-depth="4" data-path="1.6.9.11" d="M702,-293.906C742,-293.906,742,-280.406,782,-280.406" stroke-width="1.1875" stroke="rgb(31, 119, 180)"/><path class="markmap-link" data-depth="3" data-path="1.6.7" d="M531,-330.391C571,-330.391,571,-367.25,611,-367.25" stroke-width="1.375" stroke="rgb(227, 119, 194)"/><path class="markmap-link" data-depth="3" data-path="1.6.8" d="M531,-330.391C571,-330.391,571,-339.875,611,-339.875" stroke-width="1.375" stroke="rgb(127, 127, 127)"/><path class="markmap-link" data-depth="3" data-path="1.6.9" d="M531,-330.391C571,-330.391,571,-293.906,611,-293.906" stroke-width="1.375" stroke="rgb(188, 189, 34)"/><path class="markmap-link" data-depth="3" data-path="1.12.13" d="M563,-193.187C603,-193.187,603,-248.125,643,-248.125" stroke-width="1.375" stroke="rgb(44, 160, 44)"/><path class="markmap-link" data-depth="3" data-path="1.12.14" d="M563,-193.187C603,-193.187,603,-220.75,643,-220.75" stroke-width="1.375" stroke="rgb(214, 39, 40)"/><path class="markmap-link" data-depth="3" data-path="1.12.15" d="M563,-193.187C603,-193.187,603,-193.375,643,-193.375" stroke-width="1.375" stroke="rgb(148, 103, 189)"/><path class="markmap-link" data-depth="3" data-path="1.12.16" d="M563,-193.187C603,-193.187,603,-166,643,-166" stroke-width="1.375" stroke="rgb(140, 86, 75)"/><path class="markmap-link" data-depth="3" data-path="1.12.17" d="M563,-193.187C603,-193.187,603,-138.625,643,-138.625" stroke-width="1.375" stroke="rgb(227, 119, 194)"/><path class="markmap-link" data-depth="4" data-path="1.18.20.21" d="M935,-19.5C975,-19.5,975,-73.969,1015,-73.969" stroke-width="1.1875" stroke="rgb(127, 127, 127)"/><path class="markmap-link" data-depth="4" data-path="1.18.20.22" d="M935,-19.5C975,-19.5,975,-46.781,1015,-46.781" stroke-width="1.1875" stroke="rgb(188, 189, 34)"/><path class="markmap-link" data-depth="4" data-path="1.18.20.23" d="M935,-19.5C975,-19.5,975,-19.594,1015,-19.594" stroke-width="1.1875" stroke="rgb(23, 190, 207)"/><path class="markmap-link" data-depth="4" data-path="1.18.20.24" d="M935,-19.5C975,-19.5,975,7.594,1015,7.594" stroke-width="1.1875" stroke="rgb(31, 119, 180)"/><path class="markmap-link" data-depth="4" data-path="1.18.20.25" d="M935,-19.5C975,-19.5,975,34.781,1015,34.781" stroke-width="1.1875" stroke="rgb(255, 127, 14)"/><path class="markmap-link" data-depth="3" data-path="1.18.19" d="M659,-19.406C699,-19.406,699,-106.25,739,-106.25" stroke-width="1.375" stroke="rgb(44, 160, 44)"/><path class="markmap-link" data-depth="3" data-path="1.18.20" d="M659,-19.406C699,-19.406,699,-19.5,739,-19.5" stroke-width="1.375" stroke="rgb(214, 39, 40)"/><path class="markmap-link" data-depth="3" data-path="1.18.26" d="M659,-19.406C699,-19.406,699,67.063,739,67.063" stroke-width="1.375" stroke="rgb(44, 160, 44)"/><path class="markmap-link" data-depth="4" data-path="1.27.28.29" d="M1191,167.406C1231,167.406,1231,99.344,1271,99.344" stroke-width="1.1875" stroke="rgb(44, 160, 44)"/><path class="markmap-link" data-depth="4" data-path="1.27.28.30" d="M1191,167.406C1231,167.406,1231,126.531,1271,126.531" stroke-width="1.1875" stroke="rgb(214, 39, 40)"/><path class="markmap-link" data-depth="4" data-path="1.27.28.31" d="M1191,167.406C1231,167.406,1231,153.719,1271,153.719" stroke-width="1.1875" stroke="rgb(148, 103, 189)"/><path class="markmap-link" data-depth="4" data-path="1.27.28.32" d="M1191,167.406C1231,167.406,1231,180.906,1271,180.906" stroke-width="1.1875" stroke="rgb(140, 86, 75)"/><path class="markmap-link" data-depth="4" data-path="1.27.28.33" d="M1191,167.406C1231,167.406,1231,208.094,1271,208.094" stroke-width="1.1875" stroke="rgb(227, 119, 194)"/><path class="markmap-link" data-depth="4" data-path="1.27.28.34" d="M1191,167.406C1231,167.406,1231,235.281,1271,235.281" stroke-width="1.1875" stroke="rgb(127, 127, 127)"/><path class="markmap-link" data-depth="4" data-path="1.27.35.36" d="M1159,335.531C1199,335.531,1199,267.469,1239,267.469" stroke-width="1.1875" stroke="rgb(23, 190, 207)"/><path class="markmap-link" data-depth="4" data-path="1.27.35.37" d="M1159,335.531C1199,335.531,1199,294.656,1239,294.656" stroke-width="1.1875" stroke="rgb(31, 119, 180)"/><path class="markmap-link" data-depth="4" data-path="1.27.35.38" d="M1159,335.531C1199,335.531,1199,321.844,1239,321.844" stroke-width="1.1875" stroke="rgb(255, 127, 14)"/><path class="markmap-link" data-depth="4" data-path="1.27.35.39" d="M1159,335.531C1199,335.531,1199,349.031,1239,349.031" stroke-width="1.1875" stroke="rgb(44, 160, 44)"/><path class="markmap-link" data-depth="4" data-path="1.27.35.40" d="M1159,335.531C1199,335.531,1199,376.219,1239,376.219" stroke-width="1.1875" stroke="rgb(214, 39, 40)"/><path class="markmap-link" data-depth="4" data-path="1.27.35.41" d="M1159,335.531C1199,335.531,1199,403.406,1239,403.406" stroke-width="1.1875" stroke="rgb(148, 103, 189)"/><path class="markmap-link" data-depth="3" data-path="1.27.28" d="M783,251.656C823,251.656,823,167.406,863,167.406" stroke-width="1.375" stroke="rgb(23, 190, 207)"/><path class="markmap-link" data-depth="3" data-path="1.27.35" d="M783,251.656C823,251.656,823,335.531,863,335.531" stroke-width="1.375" stroke="rgb(188, 189, 34)"/><path class="markmap-link" data-depth="3" data-path="1.42.43" d="M627,449.563C667,449.563,667,435.688,707,435.688" stroke-width="1.375" stroke="rgb(127, 127, 127)"/><path class="markmap-link" data-depth="3" data-path="1.42.44" d="M627,449.563C667,449.563,667,463.063,707,463.063" stroke-width="1.375" stroke="rgb(188, 189, 34)"/><path class="markmap-link" data-depth="2" data-path="1.2" d="M328,11.75C368,11.75,368,-426.812,408,-426.812" stroke-width="1.75" stroke="rgb(255, 127, 14)"/><path class="markmap-link" data-depth="2" data-path="1.6" d="M328,11.75C368,11.75,368,-330.391,408,-330.391" stroke-width="1.75" stroke="rgb(140, 86, 75)"/><path class="markmap-link" data-depth="2" data-path="1.12" d="M328,11.75C368,11.75,368,-193.187,408,-193.187" stroke-width="1.75" stroke="rgb(255, 127, 14)"/><path class="markmap-link" data-depth="2" data-path="1.18" d="M328,11.75C368,11.75,368,-19.406,408,-19.406" stroke-width="1.75" stroke="rgb(255, 127, 14)"/><path class="markmap-link" data-depth="2" data-path="1.27" d="M328,11.75C368,11.75,368,251.656,408,251.656" stroke-width="1.75" stroke="rgb(188, 189, 34)"/><path class="markmap-link" data-depth="2" data-path="1.42" d="M328,11.75C368,11.75,368,449.563,408,449.563" stroke-width="1.75" stroke="rgb(227, 119, 194)"/><g class="markmap-highlight"/><g data-depth="3" data-path="1.2.3" class="markmap-node" transform="translate(595, -476.0625)"><line stroke="#9467bd" stroke-width="1.375" x1="-1" x2="598" y1="21.6875" y2="21.6875"/><foreignObject class="markmap-foreign" x="8" y="0" style="opacity: 1;" width="580" height="21"><div xmlns="http://www.w3.org/1999/xhtml"><div xmlns="http://www.w3.org/1999/xhtml"><strong>定义</strong> -&gt; 体内**<mark>铁卟啉化合物</mark>**的分解代谢产物 -&gt; 包括胆绿素/胆红素/胆素原/胆素   </div></div></foreignObject></g><g data-depth="3" data-path="1.2.4" class="markmap-node" transform="translate(595, -448.6875)"><line stroke="#e377c2" stroke-width="1.375" x1="-1" x2="455" y1="21.6875" y2="21.6875"/><foreignObject class="markmap-foreign" x="8" y="0" style="opacity: 1;" width="437" height="21"><div xmlns="http://www.w3.org/1999/xhtml"><div xmlns="http://www.w3.org/1999/xhtml"><strong>胆红素</strong> -&gt; 处于胆色素代谢的<strong>中心</strong> -&gt; 是人体胆汁中的主要色素   </div></div></foreignObject></g><g data-depth="3" data-path="1.2.5" class="markmap-node" transform="translate(595, -421.3125)"><line stroke="#e377c2" stroke-width="1.375" x1="-1" x2="524" y1="21.6875" y2="21.6875"/><foreignObject class="markmap-foreign" x="8" y="0" style="opacity: 1;" width="506" height="21"><div xmlns="http://www.w3.org/1999/xhtml"><div xmlns="http://www.w3.org/1999/xhtml"><strong>结构特征</strong> -&gt; 极性基团集中在分子内部 -&gt; <strong><mark>亲脂疏水</mark></strong> -&gt; 易自由透过细胞膜   </div></div></foreignObject></g><g data-depth="2" data-path="1.2" class="markmap-node" transform="translate(408, -448.6875)"><line stroke="#ff7f0e" stroke-width="1.75" x1="-1" x2="109" y1="21.875" y2="21.875"/><circle stroke-width="1.5" r="6" stroke="#ff7f0e" fill="var(--markmap-circle-open-bg)" cx="107" cy="21.875"/><foreignObject class="markmap-foreign" x="8" y="0" style="opacity: 1;" width="91" height="21"><div xmlns="http://www.w3.org/1999/xhtml"><div xmlns="http://www.w3.org/1999/xhtml"><strong>胆色素概述</strong>   </div></div></foreignObject></g><g data-depth="3" data-path="1.6.7" class="markmap-node" transform="translate(611, -388.9375)"><line stroke="#e377c2" stroke-width="1.375" x1="-1" x2="453" y1="21.6875" y2="21.6875"/><foreignObject class="markmap-foreign" x="8" y="0" style="opacity: 1;" width="435" height="21"><div xmlns="http://www.w3.org/1999/xhtml"><div xmlns="http://www.w3.org/1999/xhtml"><strong>生成部位</strong> -&gt; <strong><mark>肝、脾、骨髓</mark></strong> 等单核吞噬细胞（微粒体与胞液）   </div></div></foreignObject></g><g data-depth="3" data-path="1.6.8" class="markmap-node" transform="translate(611, -361.5625)"><line stroke="#7f7f7f" stroke-width="1.375" x1="-1" x2="440" y1="21.6875" y2="21.6875"/><foreignObject class="markmap-foreign" x="8" y="0" style="opacity: 1;" width="422" height="21"><div xmlns="http://www.w3.org/1999/xhtml"><div xmlns="http://www.w3.org/1999/xhtml"><strong>主要来源</strong> -&gt; <strong><mark>衰老红细胞</mark></strong> 破坏释放的血红蛋白（约占 <mark>80%</mark>）   </div></div></foreignObject></g><g data-depth="4" data-path="1.6.9.10" class="markmap-node" transform="translate(782, -329.1875)"><line stroke="#17becf" stroke-width="1.1875" x1="-1" x2="266" y1="21.59375" y2="21.59375"/><foreignObject class="markmap-foreign" x="8" y="0" style="opacity: 1;" width="248" height="21"><div xmlns="http://www.w3.org/1999/xhtml"><div xmlns="http://www.w3.org/1999/xhtml">血红素 -&gt;(<mark><strong>血红素加氧酶</strong></mark>)-&gt; <strong>胆绿素</strong>   </div></div></foreignObject></g><g data-depth="4" data-path="1.6.9.11" class="markmap-node" transform="translate(782, -302)"><line stroke="#1f77b4" stroke-width="1.1875" x1="-1" x2="422" y1="21.59375" y2="21.59375"/><foreignObject class="markmap-foreign" x="8" y="0" style="opacity: 1;" width="404" height="21"><div xmlns="http://www.w3.org/1999/xhtml"><div xmlns="http://www.w3.org/1999/xhtml">胆绿素 -&gt;(<mark><strong>胆绿素还原酶</strong></mark>)-&gt; <strong><mark>胆红素</mark></strong>（游离/未结合/间接）   </div></div></foreignObject></g><g data-depth="3" data-path="1.6.9" class="markmap-node" transform="translate(611, -315.59375)"><line stroke="#bcbd22" stroke-width="1.375" x1="-1" x2="93" y1="21.6875" y2="21.6875"/><circle stroke-width="1.5" r="6" stroke="#bcbd22" fill="var(--markmap-circle-open-bg)" cx="91" cy="21.6875"/><foreignObject class="markmap-foreign" x="8" y="0" style="opacity: 1;" width="75" height="21"><div xmlns="http://www.w3.org/1999/xhtml"><div xmlns="http://www.w3.org/1999/xhtml"><strong>反应过程</strong>   </div></div></foreignObject></g><g data-depth="2" data-path="1.6" class="markmap-node" transform="translate(408, -352.265625)"><line stroke="#8c564b" stroke-width="1.75" x1="-1" x2="125" y1="21.875" y2="21.875"/><circle stroke-width="1.5" r="6" stroke="#8c564b" fill="var(--markmap-circle-open-bg)" cx="123" cy="21.875"/><foreignObject class="markmap-foreign" x="8" y="0" style="opacity: 1;" width="107" height="21"><div xmlns="http://www.w3.org/1999/xhtml"><div xmlns="http://www.w3.org/1999/xhtml"><strong>胆红素的生成</strong>   </div></div></foreignObject></g><g data-depth="3" data-path="1.12.13" class="markmap-node" transform="translate(643, -269.8125)"><line stroke="#2ca02c" stroke-width="1.375" x1="-1" x2="583" y1="21.6875" y2="21.6875"/><foreignObject class="markmap-foreign" x="8" y="0" style="opacity: 1;" width="565" height="21"><div xmlns="http://www.w3.org/1999/xhtml"><div xmlns="http://www.w3.org/1999/xhtml"><strong>运输形式</strong> -&gt; <strong><mark>胆红素-清蛋白复合体</mark></strong>（游离胆红素 = 间接胆红素 = 未结合胆红素）   </div></div></foreignObject></g><g data-depth="3" data-path="1.12.14" class="markmap-node" transform="translate(643, -242.4375)"><line stroke="#d62728" stroke-width="1.375" x1="-1" x2="368" y1="21.6875" y2="21.6875"/><foreignObject class="markmap-foreign" x="8" y="0" style="opacity: 1;" width="350" height="21"><div xmlns="http://www.w3.org/1999/xhtml"><div xmlns="http://www.w3.org/1999/xhtml"><strong>意义1</strong> -&gt; 增加胆红素水溶性 -&gt; 提高血浆运输能力   </div></div></foreignObject></g><g data-depth="3" data-path="1.12.15" class="markmap-node" transform="translate(643, -215.0625)"><line stroke="#9467bd" stroke-width="1.375" x1="-1" x2="384" y1="21.6875" y2="21.6875"/><foreignObject class="markmap-foreign" x="8" y="0" style="opacity: 1;" width="366" height="21"><div xmlns="http://www.w3.org/1999/xhtml"><div xmlns="http://www.w3.org/1999/xhtml"><strong>意义2</strong> -&gt; 限制胆红素自由通透细胞膜 -&gt; <strong><mark>暂时性解毒</mark></strong>   </div></div></foreignObject></g><g data-depth="3" data-path="1.12.16" class="markmap-node" transform="translate(643, -187.6875)"><line stroke="#8c564b" stroke-width="1.375" x1="-1" x2="776" y1="21.6875" y2="21.6875"/><foreignObject class="markmap-foreign" x="8" y="0" style="opacity: 1;" width="758" height="21"><div xmlns="http://www.w3.org/1999/xhtml"><div xmlns="http://www.w3.org/1999/xhtml"><strong>竞争结合危险</strong> -&gt; <strong>磺胺药/水杨酸/胆汁酸</strong>竞争结合清蛋白 -&gt; 游离胆红素 ↑ -&gt; 可致**<mark>胆红素脑病（核黄疸）</mark>**   </div></div></foreignObject></g><g data-depth="3" data-path="1.12.17" class="markmap-node" transform="translate(643, -160.3125)"><line stroke="#e377c2" stroke-width="1.375" x1="-1" x2="444" y1="21.6875" y2="21.6875"/><foreignObject class="markmap-foreign" x="8" y="0" style="opacity: 1;" width="426" height="21"><div xmlns="http://www.w3.org/1999/xhtml"><div xmlns="http://www.w3.org/1999/xhtml"><strong>新生儿黄疸</strong> -&gt; 血脑屏障不健全 -&gt; 游离胆红素入脑 -&gt; <strong><mark>核黄疸</mark></strong>   </div></div></foreignObject></g><g data-depth="2" data-path="1.12" class="markmap-node" transform="translate(408, -215.0625)"><line stroke="#ff7f0e" stroke-width="1.75" x1="-1" x2="157" y1="21.875" y2="21.875"/><circle stroke-width="1.5" r="6" stroke="#ff7f0e" fill="var(--markmap-circle-open-bg)" cx="155" cy="21.875"/><foreignObject class="markmap-foreign" x="8" y="0" style="opacity: 1;" width="139" height="21"><div xmlns="http://www.w3.org/1999/xhtml"><div xmlns="http://www.w3.org/1999/xhtml"><strong>胆红素的血液转运</strong>   </div></div></foreignObject></g><g data-depth="3" data-path="1.18.19" class="markmap-node" transform="translate(739, -127.9375)"><line stroke="#2ca02c" stroke-width="1.375" x1="-1" x2="666" y1="21.6875" y2="21.6875"/><foreignObject class="markmap-foreign" x="8" y="0" style="opacity: 1;" width="648" height="21"><div xmlns="http://www.w3.org/1999/xhtml"><div xmlns="http://www.w3.org/1999/xhtml"><strong>步骤1：摄取</strong> -&gt; 胆红素自由通透肝细胞膜 → 胞浆与 <strong><mark>Y蛋白/Z蛋白</mark></strong> 结合 → 携带至<strong>滑面内质网</strong>   </div></div></foreignObject></g><g data-depth="4" data-path="1.18.20.21" class="markmap-node" transform="translate(1015, -95.5625)"><line stroke="#7f7f7f" stroke-width="1.1875" x1="-1" x2="162" y1="21.59375" y2="21.59375"/><foreignObject class="markmap-foreign" x="8" y="0" style="opacity: 1;" width="144" height="21"><div xmlns="http://www.w3.org/1999/xhtml"><div xmlns="http://www.w3.org/1999/xhtml">部位 -&gt; <strong><mark>滑面内质网</mark></strong>   </div></div></foreignObject></g><g data-depth="4" data-path="1.18.20.22" class="markmap-node" transform="translate(1015, -68.375)"><line stroke="#bcbd22" stroke-width="1.1875" x1="-1" x2="459" y1="21.59375" y2="21.59375"/><foreignObject class="markmap-foreign" x="8" y="0" style="opacity: 1;" width="441" height="21"><div xmlns="http://www.w3.org/1999/xhtml"><div xmlns="http://www.w3.org/1999/xhtml">反应类型 -&gt; <strong><mark>结合反应</mark></strong>（第二相反应）-&gt; 主要结合物：<strong><mark>UDPGA</mark></strong>   </div></div></foreignObject></g><g data-depth="4" data-path="1.18.20.23" class="markmap-node" transform="translate(1015, -41.1875)"><line stroke="#17becf" stroke-width="1.1875" x1="-1" x2="290" y1="21.59375" y2="21.59375"/><foreignObject class="markmap-foreign" x="8" y="0" style="opacity: 1;" width="272" height="21"><div xmlns="http://www.w3.org/1999/xhtml"><div xmlns="http://www.w3.org/1999/xhtml">催化酶 -&gt; <strong><mark>葡萄糖醛酸基转移酶 (UGT)</mark></strong>   </div></div></foreignObject></g><g data-depth="4" data-path="1.18.20.24" class="markmap-node" transform="translate(1015, -14)"><line stroke="#1f77b4" stroke-width="1.1875" x1="-1" x2="537" y1="21.59375" y2="21.59375"/><foreignObject class="markmap-foreign" x="8" y="0" style="opacity: 1;" width="519" height="21"><div xmlns="http://www.w3.org/1999/xhtml"><div xmlns="http://www.w3.org/1999/xhtml">产物 -&gt; <strong><mark>结合胆红素</mark></strong>（直接胆红素/肝胆红素）-&gt; 主要是<strong>双葡糖醛酸胆红素</strong>   </div></div></foreignObject></g><g data-depth="4" data-path="1.18.20.25" class="markmap-node" transform="translate(1015, 13.1875)"><line stroke="#ff7f0e" stroke-width="1.1875" x1="-1" x2="684" y1="21.59375" y2="21.59375"/><foreignObject class="markmap-foreign" x="8" y="0" style="opacity: 1;" width="666" height="21"><div xmlns="http://www.w3.org/1999/xhtml"><div xmlns="http://www.w3.org/1999/xhtml"><strong>意义</strong> -&gt; 脂溶性有毒游离胆红素 → <strong>水溶性无毒</strong>结合胆红素 → 胆红素在体内**<mark>解毒的重要方式</mark>**   </div></div></foreignObject></g><g data-depth="3" data-path="1.18.20" class="markmap-node" transform="translate(739, -41.1875)"><line stroke="#d62728" stroke-width="1.375" x1="-1" x2="198" y1="21.6875" y2="21.6875"/><circle stroke-width="1.5" r="6" stroke="#d62728" fill="var(--markmap-circle-open-bg)" cx="196" cy="21.6875"/><foreignObject class="markmap-foreign" x="8" y="0" style="opacity: 1;" width="180" height="21"><div xmlns="http://www.w3.org/1999/xhtml"><div xmlns="http://www.w3.org/1999/xhtml"><strong>步骤2：转化（核心！）</strong>   </div></div></foreignObject></g><g data-depth="3" data-path="1.18.26" class="markmap-node" transform="translate(739, 45.375)"><line stroke="#2ca02c" stroke-width="1.375" x1="-1" x2="562" y1="21.6875" y2="21.6875"/><foreignObject class="markmap-foreign" x="8" y="0" style="opacity: 1;" width="544" height="21"><div xmlns="http://www.w3.org/1999/xhtml"><div xmlns="http://www.w3.org/1999/xhtml"><strong>步骤3：排泄</strong> -&gt; 肝经毛细胆管排泄结合胆红素 → <strong><mark>限速步骤</mark></strong>（主动耗能分泌）   </div></div></foreignObject></g><g data-depth="2" data-path="1.18" class="markmap-node" transform="translate(408, -41.28125)"><line stroke="#ff7f0e" stroke-width="1.75" x1="-1" x2="253" y1="21.875" y2="21.875"/><circle stroke-width="1.5" r="6" stroke="#ff7f0e" fill="var(--markmap-circle-open-bg)" cx="251" cy="21.875"/><foreignObject class="markmap-foreign" x="8" y="0" style="opacity: 1;" width="235" height="21"><div xmlns="http://www.w3.org/1999/xhtml"><div xmlns="http://www.w3.org/1999/xhtml"><strong>胆红素在肝中的代谢（三步骤）</strong>   </div></div></foreignObject></g><g data-depth="4" data-path="1.27.28.29" class="markmap-node" transform="translate(1271, 77.75)"><line stroke="#2ca02c" stroke-width="1.1875" x1="-1" x2="178" y1="21.59375" y2="21.59375"/><foreignObject class="markmap-foreign" x="8" y="0" style="opacity: 1;" width="160" height="21"><div xmlns="http://www.w3.org/1999/xhtml"><div xmlns="http://www.w3.org/1999/xhtml">葡萄糖醛酸 -&gt; <strong><mark>未结合</mark></strong>   </div></div></foreignObject></g><g data-depth="4" data-path="1.27.28.30" class="markmap-node" transform="translate(1271, 104.9375)"><line stroke="#d62728" stroke-width="1.1875" x1="-1" x2="212" y1="21.59375" y2="21.59375"/><foreignObject class="markmap-foreign" x="8" y="0" style="opacity: 1;" width="194" height="21"><div xmlns="http://www.w3.org/1999/xhtml"><div xmlns="http://www.w3.org/1999/xhtml">水溶性 -&gt; <strong><mark>小</mark></strong> / 脂溶性 -&gt; <strong><mark>大</mark></strong>   </div></div></foreignObject></g><g data-depth="4" data-path="1.27.28.31" class="markmap-node" transform="translate(1271, 132.125)"><line stroke="#9467bd" stroke-width="1.1875" x1="-1" x2="193" y1="21.59375" y2="21.59375"/><foreignObject class="markmap-foreign" x="8" y="0" style="opacity: 1;" width="175" height="21"><div xmlns="http://www.w3.org/1999/xhtml"><div xmlns="http://www.w3.org/1999/xhtml">透过细胞膜 + 毒性 -&gt; <strong><mark>大</mark></strong>   </div></div></foreignObject></g><g data-depth="4" data-path="1.27.28.32" class="markmap-node" transform="translate(1271, 159.3125)"><line stroke="#8c564b" stroke-width="1.1875" x1="-1" x2="210" y1="21.59375" y2="21.59375"/><foreignObject class="markmap-foreign" x="8" y="0" style="opacity: 1;" width="192" height="21"><div xmlns="http://www.w3.org/1999/xhtml"><div xmlns="http://www.w3.org/1999/xhtml">经肾小球随尿排出 -&gt; <strong><mark>不能</mark></strong>   </div></div></foreignObject></g><g data-depth="4" data-path="1.27.28.33" class="markmap-node" transform="translate(1271, 186.5)"><line stroke="#e377c2" stroke-width="1.1875" x1="-1" x2="274" y1="21.59375" y2="21.59375"/><foreignObject class="markmap-foreign" x="8" y="0" style="opacity: 1;" width="256" height="21"><div xmlns="http://www.w3.org/1999/xhtml"><div xmlns="http://www.w3.org/1999/xhtml">对脑毒性 -&gt; <strong><mark>大</mark></strong>（可通过血脑屏障）   </div></div></foreignObject></g><g data-depth="4" data-path="1.27.28.34" class="markmap-node" transform="translate(1271, 213.6875)"><line stroke="#7f7f7f" stroke-width="1.1875" x1="-1" x2="354" y1="21.59375" y2="21.59375"/><foreignObject class="markmap-foreign" x="8" y="0" style="opacity: 1;" width="336" height="21"><div xmlns="http://www.w3.org/1999/xhtml"><div xmlns="http://www.w3.org/1999/xhtml">重氮试剂反应 -&gt; <strong>间接阳性</strong>（需加乙醇才反应）   </div></div></foreignObject></g><g data-depth="3" data-path="1.27.28" class="markmap-node" transform="translate(863, 145.71875)"><line stroke="#17becf" stroke-width="1.375" x1="-1" x2="330" y1="21.6875" y2="21.6875"/><circle stroke-width="1.5" r="6" stroke="#17becf" fill="var(--markmap-circle-open-bg)" cx="328" cy="21.6875"/><foreignObject class="markmap-foreign" x="8" y="0" style="opacity: 1;" width="312" height="21"><div xmlns="http://www.w3.org/1999/xhtml"><div xmlns="http://www.w3.org/1999/xhtml"><strong><mark>未结合胆红素</mark></strong>（间接胆红素 / 游离胆红素）   </div></div></foreignObject></g><g data-depth="4" data-path="1.27.35.36" class="markmap-node" transform="translate(1239, 245.875)"><line stroke="#17becf" stroke-width="1.1875" x1="-1" x2="162" y1="21.59375" y2="21.59375"/><foreignObject class="markmap-foreign" x="8" y="0" style="opacity: 1;" width="144" height="21"><div xmlns="http://www.w3.org/1999/xhtml"><div xmlns="http://www.w3.org/1999/xhtml">葡萄糖醛酸 -&gt; <strong><mark>结合</mark></strong>   </div></div></foreignObject></g><g data-depth="4" data-path="1.27.35.37" class="markmap-node" transform="translate(1239, 273.0625)"><line stroke="#1f77b4" stroke-width="1.1875" x1="-1" x2="212" y1="21.59375" y2="21.59375"/><foreignObject class="markmap-foreign" x="8" y="0" style="opacity: 1;" width="194" height="21"><div xmlns="http://www.w3.org/1999/xhtml"><div xmlns="http://www.w3.org/1999/xhtml">水溶性 -&gt; <strong><mark>大</mark></strong> / 脂溶性 -&gt; <strong><mark>小</mark></strong>   </div></div></foreignObject></g><g data-depth="4" data-path="1.27.35.38" class="markmap-node" transform="translate(1239, 300.25)"><line stroke="#ff7f0e" stroke-width="1.1875" x1="-1" x2="193" y1="21.59375" y2="21.59375"/><foreignObject class="markmap-foreign" x="8" y="0" style="opacity: 1;" width="175" height="21"><div xmlns="http://www.w3.org/1999/xhtml"><div xmlns="http://www.w3.org/1999/xhtml">透过细胞膜 + 毒性 -&gt; <strong><mark>小</mark></strong>   </div></div></foreignObject></g><g data-depth="4" data-path="1.27.35.39" class="markmap-node" transform="translate(1239, 327.4375)"><line stroke="#2ca02c" stroke-width="1.1875" x1="-1" x2="194" y1="21.59375" y2="21.59375"/><foreignObject class="markmap-foreign" x="8" y="0" style="opacity: 1;" width="176" height="21"><div xmlns="http://www.w3.org/1999/xhtml"><div xmlns="http://www.w3.org/1999/xhtml">经肾小球随尿排出 -&gt; <strong><mark>能</mark></strong>   </div></div></foreignObject></g><g data-depth="4" data-path="1.27.35.40" class="markmap-node" transform="translate(1239, 354.625)"><line stroke="#d62728" stroke-width="1.1875" x1="-1" x2="130" y1="21.59375" y2="21.59375"/><foreignObject class="markmap-foreign" x="8" y="0" style="opacity: 1;" width="112" height="21"><div xmlns="http://www.w3.org/1999/xhtml"><div xmlns="http://www.w3.org/1999/xhtml">对脑毒性 -&gt; <strong><mark>小</mark></strong>   </div></div></foreignObject></g><g data-depth="4" data-path="1.27.35.41" class="markmap-node" transform="translate(1239, 381.8125)"><line stroke="#9467bd" stroke-width="1.1875" x1="-1" x2="210" y1="21.59375" y2="21.59375"/><foreignObject class="markmap-foreign" x="8" y="0" style="opacity: 1;" width="192" height="21"><div xmlns="http://www.w3.org/1999/xhtml"><div xmlns="http://www.w3.org/1999/xhtml">重氮试剂反应 -&gt; <strong>直接阳性</strong>   </div></div></foreignObject></g><g data-depth="3" data-path="1.27.35" class="markmap-node" transform="translate(863, 313.84375)"><line stroke="#bcbd22" stroke-width="1.375" x1="-1" x2="298" y1="21.6875" y2="21.6875"/><circle stroke-width="1.5" r="6" stroke="#bcbd22" fill="var(--markmap-circle-open-bg)" cx="296" cy="21.6875"/><foreignObject class="markmap-foreign" x="8" y="0" style="opacity: 1;" width="280" height="21"><div xmlns="http://www.w3.org/1999/xhtml"><div xmlns="http://www.w3.org/1999/xhtml"><strong><mark>结合胆红素</mark></strong>（直接胆红素 / 肝胆红素）   </div></div></foreignObject></g><g data-depth="2" data-path="1.27" class="markmap-node" transform="translate(408, 229.78125)"><line stroke="#bcbd22" stroke-width="1.75" x1="-1" x2="377" y1="21.875" y2="21.875"/><circle stroke-width="1.5" r="6" stroke="#bcbd22" fill="var(--markmap-circle-open-bg)" cx="375" cy="21.875"/><foreignObject class="markmap-foreign" x="8" y="0" style="opacity: 1;" width="359" height="21"><div xmlns="http://www.w3.org/1999/xhtml"><div xmlns="http://www.w3.org/1999/xhtml"><strong><mark>未结合胆红素 vs 结合胆红素 极限对比（必背！）</mark></strong>   </div></div></foreignObject></g><g data-depth="3" data-path="1.42.43" class="markmap-node" transform="translate(707, 414)"><line stroke="#7f7f7f" stroke-width="1.375" x1="-1" x2="518" y1="21.6875" y2="21.6875"/><foreignObject class="markmap-foreign" x="8" y="0" style="opacity: 1;" width="500" height="21"><div xmlns="http://www.w3.org/1999/xhtml"><div xmlns="http://www.w3.org/1999/xhtml"><strong>苯巴比妥</strong> -&gt; 诱导 <strong><mark>UGT</mark></strong> ↑ -&gt; 促进游离→结合胆红素 → 治疗<strong>新生儿黄疸</strong>   </div></div></foreignObject></g><g data-depth="3" data-path="1.42.44" class="markmap-node" transform="translate(707, 441.375)"><line stroke="#bcbd22" stroke-width="1.375" x1="-1" x2="507" y1="21.6875" y2="21.6875"/><foreignObject class="markmap-foreign" x="8" y="0" style="opacity: 1;" width="489" height="21"><div xmlns="http://www.w3.org/1999/xhtml"><div xmlns="http://www.w3.org/1999/xhtml"><strong>糖皮质激素</strong> -&gt; 诱导 UGT + 促进结合胆红素排泄 → 治疗<strong>高胆红素血症</strong>   </div></div></foreignObject></g><g data-depth="2" data-path="1.42" class="markmap-node" transform="translate(408, 427.6875)"><line stroke="#e377c2" stroke-width="1.75" x1="-1" x2="221" y1="21.875" y2="21.875"/><circle stroke-width="1.5" r="6" stroke="#e377c2" fill="var(--markmap-circle-open-bg)" cx="219" cy="21.875"/><foreignObject class="markmap-foreign" x="8" y="0" style="opacity: 1;" width="203" height="21"><div xmlns="http://www.w3.org/1999/xhtml"><div xmlns="http://www.w3.org/1999/xhtml"><strong>胆红素代谢的临床药物关联</strong>   </div></div></foreignObject></g><g data-depth="1" data-path="1" class="markmap-node" transform="translate(0, -10.5)"><line stroke="#1f77b4" stroke-width="2.5" x1="-1" x2="330" y1="22.25" y2="22.25"/><circle stroke-width="1.5" r="6" stroke="#1f77b4" fill="var(--markmap-circle-open-bg)" cx="328" cy="22.25"/><foreignObject class="markmap-foreign" x="8" y="0" style="opacity: 1;" width="312" height="21"><div xmlns="http://www.w3.org/1999/xhtml"><div xmlns="http://www.w3.org/1999/xhtml">胆红素的生成与两类胆红素对比 (绝对重点)   </div></div></foreignObject></g></g></svg>