<svg xmlns="http://www.w3.org/2000/svg" class="w-full h-full leading-none markmap mm-dn9wym-1" style=""><style>.markmap{--markmap-max-width: 9999px;--markmap-a-color: #0097e6;--markmap-a-hover-color: #00a8ff;--markmap-code-bg: #f0f0f0;--markmap-code-color: #555;--markmap-highlight-bg: #ffeaa7;--markmap-table-border: 1px solid currentColor;--markmap-font: 300 16px/20px sans-serif;--markmap-circle-open-bg: #fff;--markmap-text-color: #333;--markmap-highlight-node-bg: #ff02;font:var(--markmap-font);color:var(--markmap-text-color)}.markmap-link{fill:none}.markmap-node&gt;circle{cursor:pointer}.markmap-foreign{display:inline-block}.markmap-foreign p{margin:0}.markmap-foreign a{color:var(--markmap-a-color)}.markmap-foreign a:hover{color:var(--markmap-a-hover-color)}.markmap-foreign code{padding:.25em;font-size:calc(1em - 2px);color:var(--markmap-code-color);background-color:var(--markmap-code-bg);border-radius:2px}.markmap-foreign pre{margin:0}.markmap-foreign pre&gt;code{display:block}.markmap-foreign del{text-decoration:line-through}.markmap-foreign em{font-style:italic}.markmap-foreign strong{font-weight:700}.markmap-foreign mark{background:var(--markmap-highlight-bg)}.markmap-foreign table,.markmap-foreign th,.markmap-foreign td{border-collapse:collapse;border:var(--markmap-table-border)}.markmap-foreign img{display:inline-block}.markmap-foreign svg{fill:currentColor}.markmap-foreign&gt;div{width:var(--markmap-max-width);text-align:left}.markmap-foreign&gt;div&gt;div{display:inline-block}.markmap-highlight rect{fill:var(--markmap-highlight-node-bg)}.markmap-dark .markmap{--markmap-code-bg: #1a1b26;--markmap-code-color: #ddd;--markmap-circle-open-bg: #444;--markmap-text-color: #eee}</style><g transform="translate(14.526254943672711,375.6300767276845) scale(0.43631207494204627)"><path class="markmap-link" data-depth="3" data-path="1.2.3" d="M550,-360.781C590,-360.781,590,-388.344,630,-388.344" stroke-width="1.375" stroke="rgb(148, 103, 189)"/><path class="markmap-link" data-depth="3" data-path="1.2.4" d="M550,-360.781C590,-360.781,590,-360.969,630,-360.969" stroke-width="1.375" stroke="rgb(227, 119, 194)"/><path class="markmap-link" data-depth="3" data-path="1.2.5" d="M550,-360.781C590,-360.781,590,-333.594,630,-333.594" stroke-width="1.375" stroke="rgb(227, 119, 194)"/><path class="markmap-link" data-depth="4" data-path="1.6.7.8" d="M817,-246.844C857,-246.844,857,-301.312,897,-301.312" stroke-width="1.1875" stroke="rgb(227, 119, 194)"/><path class="markmap-link" data-depth="4" data-path="1.6.7.9" d="M817,-246.844C857,-246.844,857,-274.125,897,-274.125" stroke-width="1.1875" stroke="rgb(127, 127, 127)"/><path class="markmap-link" data-depth="4" data-path="1.6.7.10" d="M817,-246.844C857,-246.844,857,-246.937,897,-246.937" stroke-width="1.1875" stroke="rgb(188, 189, 34)"/><path class="markmap-link" data-depth="4" data-path="1.6.7.11" d="M817,-246.844C857,-246.844,857,-219.75,897,-219.75" stroke-width="1.1875" stroke="rgb(23, 190, 207)"/><path class="markmap-link" data-depth="4" data-path="1.6.7.12" d="M817,-246.844C857,-246.844,857,-192.562,897,-192.562" stroke-width="1.1875" stroke="rgb(31, 119, 180)"/><path class="markmap-link" data-depth="4" data-path="1.6.13.14" d="M673,-105.906C713,-105.906,713,-160.375,753,-160.375" stroke-width="1.1875" stroke="rgb(44, 160, 44)"/><path class="markmap-link" data-depth="4" data-path="1.6.13.15" d="M673,-105.906C713,-105.906,713,-133.187,753,-133.187" stroke-width="1.1875" stroke="rgb(214, 39, 40)"/><path class="markmap-link" data-depth="4" data-path="1.6.13.16" d="M673,-105.906C713,-105.906,713,-106,753,-106" stroke-width="1.1875" stroke="rgb(255, 127, 14)"/><path class="markmap-link" data-depth="4" data-path="1.6.13.17" d="M673,-105.906C713,-105.906,713,-78.812,753,-78.812" stroke-width="1.1875" stroke="rgb(44, 160, 44)"/><path class="markmap-link" data-depth="4" data-path="1.6.13.18" d="M673,-105.906C713,-105.906,713,-51.625,753,-51.625" stroke-width="1.1875" stroke="rgb(214, 39, 40)"/><path class="markmap-link" data-depth="4" data-path="1.6.19.20" d="M705,7.844C745,7.844,745,-19.437,785,-19.437" stroke-width="1.1875" stroke="rgb(140, 86, 75)"/><path class="markmap-link" data-depth="4" data-path="1.6.19.21" d="M705,7.844C745,7.844,745,7.75,785,7.75" stroke-width="1.1875" stroke="rgb(227, 119, 194)"/><path class="markmap-link" data-depth="4" data-path="1.6.19.22" d="M705,7.844C745,7.844,745,34.938,785,34.938" stroke-width="1.1875" stroke="rgb(127, 127, 127)"/><path class="markmap-link" data-depth="3" data-path="1.6.7" d="M502,-62.25C542,-62.25,542,-246.844,582,-246.844" stroke-width="1.375" stroke="rgb(227, 119, 194)"/><path class="markmap-link" data-depth="3" data-path="1.6.13" d="M502,-62.25C542,-62.25,542,-105.906,582,-105.906" stroke-width="1.375" stroke="rgb(255, 127, 14)"/><path class="markmap-link" data-depth="3" data-path="1.6.19" d="M502,-62.25C542,-62.25,542,7.844,582,7.844" stroke-width="1.375" stroke="rgb(148, 103, 189)"/><path class="markmap-link" data-depth="3" data-path="1.6.23" d="M502,-62.25C542,-62.25,542,67.219,582,67.219" stroke-width="1.375" stroke="rgb(188, 189, 34)"/><path class="markmap-link" data-depth="3" data-path="1.6.24" d="M502,-62.25C542,-62.25,542,94.594,582,94.594" stroke-width="1.375" stroke="rgb(23, 190, 207)"/><path class="markmap-link" data-depth="3" data-path="1.6.25" d="M502,-62.25C542,-62.25,542,121.969,582,121.969" stroke-width="1.375" stroke="rgb(31, 119, 180)"/><path class="markmap-link" data-depth="3" data-path="1.26.27" d="M558,195.594C598,195.594,598,154.344,638,154.344" stroke-width="1.375" stroke="rgb(188, 189, 34)"/><path class="markmap-link" data-depth="3" data-path="1.26.28" d="M558,195.594C598,195.594,598,181.719,638,181.719" stroke-width="1.375" stroke="rgb(23, 190, 207)"/><path class="markmap-link" data-depth="3" data-path="1.26.29" d="M558,195.594C598,195.594,598,209.094,638,209.094" stroke-width="1.375" stroke="rgb(31, 119, 180)"/><path class="markmap-link" data-depth="3" data-path="1.26.30" d="M558,195.594C598,195.594,598,236.469,638,236.469" stroke-width="1.375" stroke="rgb(188, 189, 34)"/><path class="markmap-link" data-depth="4" data-path="1.31.34.35" d="M1042,323.594C1082,323.594,1082,309.906,1122,309.906" stroke-width="1.1875" stroke="rgb(255, 127, 14)"/><path class="markmap-link" data-depth="4" data-path="1.31.34.36" d="M1042,323.594C1082,323.594,1082,337.094,1122,337.094" stroke-width="1.1875" stroke="rgb(44, 160, 44)"/><path class="markmap-link" data-depth="3" data-path="1.31.32" d="M518,296.406C558,296.406,558,268.844,598,268.844" stroke-width="1.375" stroke="rgb(31, 119, 180)"/><path class="markmap-link" data-depth="3" data-path="1.31.33" d="M518,296.406C558,296.406,558,296.219,598,296.219" stroke-width="1.375" stroke="rgb(255, 127, 14)"/><path class="markmap-link" data-depth="3" data-path="1.31.34" d="M518,296.406C558,296.406,558,323.594,598,323.594" stroke-width="1.375" stroke="rgb(44, 160, 44)"/><path class="markmap-link" data-depth="3" data-path="1.37.38" d="M502,383.531C542,383.531,542,355.969,582,355.969" stroke-width="1.375" stroke="rgb(23, 190, 207)"/><path class="markmap-link" data-depth="3" data-path="1.37.39" d="M502,383.531C542,383.531,542,383.344,582,383.344" stroke-width="1.375" stroke="rgb(31, 119, 180)"/><path class="markmap-link" data-depth="3" data-path="1.37.40" d="M502,383.531C542,383.531,542,410.719,582,410.719" stroke-width="1.375" stroke="rgb(255, 127, 14)"/><path class="markmap-link" data-depth="2" data-path="1.2" d="M267,11.75C307,11.75,307,-360.781,347,-360.781" stroke-width="1.75" stroke="rgb(255, 127, 14)"/><path class="markmap-link" data-depth="2" data-path="1.6" d="M267,11.75C307,11.75,307,-62.25,347,-62.25" stroke-width="1.75" stroke="rgb(140, 86, 75)"/><path class="markmap-link" data-depth="2" data-path="1.26" d="M267,11.75C307,11.75,307,195.594,347,195.594" stroke-width="1.75" stroke="rgb(127, 127, 127)"/><path class="markmap-link" data-depth="2" data-path="1.31" d="M267,11.75C307,11.75,307,296.406,347,296.406" stroke-width="1.75" stroke="rgb(23, 190, 207)"/><path class="markmap-link" data-depth="2" data-path="1.37" d="M267,11.75C307,11.75,307,383.531,347,383.531" stroke-width="1.75" stroke="rgb(188, 189, 34)"/><g class="markmap-highlight"/><g data-depth="3" data-path="1.2.3" class="markmap-node" transform="translate(630, -410.03125)"><line stroke="#9467bd" stroke-width="1.375" x1="-1" x2="306" y1="21.6875" y2="21.6875"/><foreignObject class="markmap-foreign" x="8" y="0" style="opacity: 1;" width="288" height="21"><div xmlns="http://www.w3.org/1999/xhtml"><div xmlns="http://www.w3.org/1999/xhtml"><strong>地位</strong> -&gt; 最普遍、最重要的生物转化方式   </div></div></foreignObject></g><g data-depth="3" data-path="1.2.4" class="markmap-node" transform="translate(630, -382.65625)"><line stroke="#e377c2" stroke-width="1.375" x1="-1" x2="420" y1="21.6875" y2="21.6875"/><foreignObject class="markmap-foreign" x="8" y="0" style="opacity: 1;" width="402" height="21"><div xmlns="http://www.w3.org/1999/xhtml"><div xmlns="http://www.w3.org/1999/xhtml"><strong>底物特征</strong> -&gt; 含<strong>羟基/巯基/羧基/氨基</strong>的药物、毒物或激素   </div></div></foreignObject></g><g data-depth="3" data-path="1.2.5" class="markmap-node" transform="translate(630, -355.28125)"><line stroke="#e377c2" stroke-width="1.375" x1="-1" x2="492" y1="21.6875" y2="21.6875"/><foreignObject class="markmap-foreign" x="8" y="0" style="opacity: 1;" width="474" height="21"><div xmlns="http://www.w3.org/1999/xhtml"><div xmlns="http://www.w3.org/1999/xhtml"><strong>目标</strong> -&gt; 与<strong>水溶性更强的物质结合</strong> -&gt; 进一步增加水溶性 -&gt; 利于排出   </div></div></foreignObject></g><g data-depth="2" data-path="1.2" class="markmap-node" transform="translate(347, -382.65625)"><line stroke="#ff7f0e" stroke-width="1.75" x1="-1" x2="205" y1="21.875" y2="21.875"/><circle stroke-width="1.5" r="6" stroke="#ff7f0e" fill="var(--markmap-circle-open-bg)" cx="203" cy="21.875"/><foreignObject class="markmap-foreign" x="8" y="0" style="opacity: 1;" width="187" height="21"><div xmlns="http://www.w3.org/1999/xhtml"><div xmlns="http://www.w3.org/1999/xhtml"><strong>第二相反应（结合反应）</strong>   </div></div></foreignObject></g><g data-depth="4" data-path="1.6.7.8" class="markmap-node" transform="translate(897, -322.90625)"><line stroke="#e377c2" stroke-width="1.1875" x1="-1" x2="361" y1="21.59375" y2="21.59375"/><foreignObject class="markmap-foreign" x="8" y="0" style="opacity: 1;" width="343" height="21"><div xmlns="http://www.w3.org/1999/xhtml"><div xmlns="http://www.w3.org/1999/xhtml">活性供体 -&gt; <strong><mark>UDPGA</mark></strong>（尿苷二磷酸葡萄糖醛酸）   </div></div></foreignObject></g><g data-depth="4" data-path="1.6.7.9" class="markmap-node" transform="translate(897, -295.71875)"><line stroke="#7f7f7f" stroke-width="1.1875" x1="-1" x2="274" y1="21.59375" y2="21.59375"/><foreignObject class="markmap-foreign" x="8" y="0" style="opacity: 1;" width="256" height="21"><div xmlns="http://www.w3.org/1999/xhtml"><div xmlns="http://www.w3.org/1999/xhtml">催化酶 -&gt; <strong><mark>葡糖醛酸基转移酶 (UGT)</mark></strong>   </div></div></foreignObject></g><g data-depth="4" data-path="1.6.7.10" class="markmap-node" transform="translate(897, -268.53125)"><line stroke="#bcbd22" stroke-width="1.1875" x1="-1" x2="361" y1="21.59375" y2="21.59375"/><foreignObject class="markmap-foreign" x="8" y="0" style="opacity: 1;" width="343" height="21"><div xmlns="http://www.w3.org/1999/xhtml"><div xmlns="http://www.w3.org/1999/xhtml">底物 -&gt; 醇/酚/胺/羧酸类 -&gt; 产物：葡萄糖醛酸苷   </div></div></foreignObject></g><g data-depth="4" data-path="1.6.7.11" class="markmap-node" transform="translate(897, -241.34375)"><line stroke="#17becf" stroke-width="1.1875" x1="-1" x2="498" y1="21.59375" y2="21.59375"/><foreignObject class="markmap-foreign" x="8" y="0" style="opacity: 1;" width="480" height="21"><div xmlns="http://www.w3.org/1999/xhtml"><div xmlns="http://www.w3.org/1999/xhtml">实例 -&gt; 胆红素/类固醇激素/氯霉素/吗啡/苯巴比妥 → 经此途径转化   </div></div></foreignObject></g><g data-depth="4" data-path="1.6.7.12" class="markmap-node" transform="translate(897, -214.15625)"><line stroke="#1f77b4" stroke-width="1.1875" x1="-1" x2="361" y1="21.59375" y2="21.59375"/><foreignObject class="markmap-foreign" x="8" y="0" style="opacity: 1;" width="343" height="21"><div xmlns="http://www.w3.org/1999/xhtml"><div xmlns="http://www.w3.org/1999/xhtml">临床 -&gt; 葡醛内酯治疗肝病 → 增强生物转化功能   </div></div></foreignObject></g><g data-depth="3" data-path="1.6.7" class="markmap-node" transform="translate(582, -268.53125)"><line stroke="#e377c2" stroke-width="1.375" x1="-1" x2="237" y1="21.6875" y2="21.6875"/><circle stroke-width="1.5" r="6" stroke="#e377c2" fill="var(--markmap-circle-open-bg)" cx="235" cy="21.6875"/><foreignObject class="markmap-foreign" x="8" y="0" style="opacity: 1;" width="219" height="21"><div xmlns="http://www.w3.org/1999/xhtml"><div xmlns="http://www.w3.org/1999/xhtml"><strong><mark>葡萄糖醛酸结合</mark></strong>（最普遍！）   </div></div></foreignObject></g><g data-depth="4" data-path="1.6.13.14" class="markmap-node" transform="translate(753, -181.96875)"><line stroke="#2ca02c" stroke-width="1.1875" x1="-1" x2="441" y1="21.59375" y2="21.59375"/><foreignObject class="markmap-foreign" x="8" y="0" style="opacity: 1;" width="423" height="21"><div xmlns="http://www.w3.org/1999/xhtml"><div xmlns="http://www.w3.org/1999/xhtml">活性供体 -&gt; <strong><mark>PAPS</mark></strong>（3′-磷酸腺苷-5′-磷酸硫酸/活性硫酸根）   </div></div></foreignObject></g><g data-depth="4" data-path="1.6.13.15" class="markmap-node" transform="translate(753, -154.78125)"><line stroke="#d62728" stroke-width="1.1875" x1="-1" x2="178" y1="21.59375" y2="21.59375"/><foreignObject class="markmap-foreign" x="8" y="0" style="opacity: 1;" width="160" height="21"><div xmlns="http://www.w3.org/1999/xhtml"><div xmlns="http://www.w3.org/1999/xhtml">催化酶 -&gt; 硫酸转移酶   </div></div></foreignObject></g><g data-depth="4" data-path="1.6.13.16" class="markmap-node" transform="translate(753, -127.59375)"><line stroke="#ff7f0e" stroke-width="1.1875" x1="-1" x2="345" y1="21.59375" y2="21.59375"/><foreignObject class="markmap-foreign" x="8" y="0" style="opacity: 1;" width="327" height="21"><div xmlns="http://www.w3.org/1999/xhtml"><div xmlns="http://www.w3.org/1999/xhtml">底物 -&gt; 类固醇/醇/酚/芳香胺 -&gt; 产物：硫酸酯   </div></div></foreignObject></g><g data-depth="4" data-path="1.6.13.17" class="markmap-node" transform="translate(753, -100.40625)"><line stroke="#2ca02c" stroke-width="1.1875" x1="-1" x2="418" y1="21.59375" y2="21.59375"/><foreignObject class="markmap-foreign" x="8" y="0" style="opacity: 1;" width="400" height="21"><div xmlns="http://www.w3.org/1999/xhtml"><div xmlns="http://www.w3.org/1999/xhtml"><strong>特殊功能</strong> -&gt; <strong><mark>激素灭活</mark></strong>（激素在肝中经此途径降解失活）   </div></div></foreignObject></g><g data-depth="4" data-path="1.6.13.18" class="markmap-node" transform="translate(753, -73.21875)"><line stroke="#d62728" stroke-width="1.1875" x1="-1" x2="403" y1="21.59375" y2="21.59375"/><foreignObject class="markmap-foreign" x="8" y="0" style="opacity: 1;" width="385" height="21"><div xmlns="http://www.w3.org/1999/xhtml"><div xmlns="http://www.w3.org/1999/xhtml">肝功受损 -&gt; 激素灭活↓ -&gt; <strong><mark>肝掌/蜘蛛痣/男性乳房发育</mark></strong>   </div></div></foreignObject></g><g data-depth="3" data-path="1.6.13" class="markmap-node" transform="translate(582, -127.59375)"><line stroke="#ff7f0e" stroke-width="1.375" x1="-1" x2="93" y1="21.6875" y2="21.6875"/><circle stroke-width="1.5" r="6" stroke="#ff7f0e" fill="var(--markmap-circle-open-bg)" cx="91" cy="21.6875"/><foreignObject class="markmap-foreign" x="8" y="0" style="opacity: 1;" width="75" height="21"><div xmlns="http://www.w3.org/1999/xhtml"><div xmlns="http://www.w3.org/1999/xhtml"><strong><mark>硫酸结合</mark></strong>   </div></div></foreignObject></g><g data-depth="4" data-path="1.6.19.20" class="markmap-node" transform="translate(785, -41.03125)"><line stroke="#8c564b" stroke-width="1.1875" x1="-1" x2="276" y1="21.59375" y2="21.59375"/><foreignObject class="markmap-foreign" x="8" y="0" style="opacity: 1;" width="258" height="21"><div xmlns="http://www.w3.org/1999/xhtml"><div xmlns="http://www.w3.org/1999/xhtml">催化酶 -&gt; <strong>谷胱甘肽 S-转移酶 (GST)</strong>   </div></div></foreignObject></g><g data-depth="4" data-path="1.6.19.21" class="markmap-node" transform="translate(785, -13.84375)"><line stroke="#e377c2" stroke-width="1.1875" x1="-1" x2="420" y1="21.59375" y2="21.59375"/><foreignObject class="markmap-foreign" x="8" y="0" style="opacity: 1;" width="402" height="21"><div xmlns="http://www.w3.org/1999/xhtml"><div xmlns="http://www.w3.org/1999/xhtml">底物 -&gt; 卤代物/环氧化物（致癌物/抗癌药/环境污染物）   </div></div></foreignObject></g><g data-depth="4" data-path="1.6.19.22" class="markmap-node" transform="translate(785, 13.34375)"><line stroke="#7f7f7f" stroke-width="1.1875" x1="-1" x2="508" y1="21.59375" y2="21.59375"/><foreignObject class="markmap-foreign" x="8" y="0" style="opacity: 1;" width="490" height="21"><div xmlns="http://www.w3.org/1999/xhtml"><div xmlns="http://www.w3.org/1999/xhtml">实例 -&gt; 黄曲霉素 B₁ 环氧化物 → GST → 谷胱甘肽结合物 → 胆汁排出   </div></div></foreignObject></g><g data-depth="3" data-path="1.6.19" class="markmap-node" transform="translate(582, -13.84375)"><line stroke="#9467bd" stroke-width="1.375" x1="-1" x2="125" y1="21.6875" y2="21.6875"/><circle stroke-width="1.5" r="6" stroke="#9467bd" fill="var(--markmap-circle-open-bg)" cx="123" cy="21.6875"/><foreignObject class="markmap-foreign" x="8" y="0" style="opacity: 1;" width="107" height="21"><div xmlns="http://www.w3.org/1999/xhtml"><div xmlns="http://www.w3.org/1999/xhtml"><strong><mark>谷胱甘肽结合</mark></strong>   </div></div></foreignObject></g><g data-depth="3" data-path="1.6.23" class="markmap-node" transform="translate(582, 45.53125)"><line stroke="#bcbd22" stroke-width="1.375" x1="-1" x2="491" y1="21.6875" y2="21.6875"/><foreignObject class="markmap-foreign" x="8" y="0" style="opacity: 1;" width="473" height="21"><div xmlns="http://www.w3.org/1999/xhtml"><div xmlns="http://www.w3.org/1999/xhtml"><strong><mark>乙酰基结合</mark></strong> -&gt; 供体：<strong>乙酰CoA</strong> / 底物：芳香胺 / 产物：乙酰衍生物   </div></div></foreignObject></g><g data-depth="3" data-path="1.6.24" class="markmap-node" transform="translate(582, 72.90625)"><line stroke="#17becf" stroke-width="1.375" x1="-1" x2="521" y1="21.6875" y2="21.6875"/><foreignObject class="markmap-foreign" x="8" y="0" style="opacity: 1;" width="503" height="21"><div xmlns="http://www.w3.org/1999/xhtml"><div xmlns="http://www.w3.org/1999/xhtml"><strong><mark>甲基结合</mark></strong> -&gt; 供体：<strong><mark>SAM</mark></strong>（S-腺苷甲硫氨酸）/ 底物：含羟基/巯基/氨基   </div></div></foreignObject></g><g data-depth="3" data-path="1.6.25" class="markmap-node" transform="translate(582, 100.28125)"><line stroke="#1f77b4" stroke-width="1.375" x1="-1" x2="547" y1="21.6875" y2="21.6875"/><foreignObject class="markmap-foreign" x="8" y="0" style="opacity: 1;" width="529" height="21"><div xmlns="http://www.w3.org/1999/xhtml"><div xmlns="http://www.w3.org/1999/xhtml"><strong><mark>氨基酸结合</mark></strong> -&gt; 供体：<strong>甘氨酸/牛磺酸</strong> / 底物：羧酸类 / 产物：氨基酸结合物   </div></div></foreignObject></g><g data-depth="2" data-path="1.6" class="markmap-node" transform="translate(347, -84.125)"><line stroke="#8c564b" stroke-width="1.75" x1="-1" x2="157" y1="21.875" y2="21.875"/><circle stroke-width="1.5" r="6" stroke="#8c564b" fill="var(--markmap-circle-open-bg)" cx="155" cy="21.875"/><foreignObject class="markmap-foreign" x="8" y="0" style="opacity: 1;" width="139" height="21"><div xmlns="http://www.w3.org/1999/xhtml"><div xmlns="http://www.w3.org/1999/xhtml"><strong>六大结合反应类型</strong>   </div></div></foreignObject></g><g data-depth="3" data-path="1.26.27" class="markmap-node" transform="translate(638, 132.65625)"><line stroke="#bcbd22" stroke-width="1.375" x1="-1" x2="528" y1="21.6875" y2="21.6875"/><foreignObject class="markmap-foreign" x="8" y="0" style="opacity: 1;" width="510" height="21"><div xmlns="http://www.w3.org/1999/xhtml"><div xmlns="http://www.w3.org/1999/xhtml"><strong>第一相</strong> -&gt; 氧化/还原/水解 -&gt; 暴露或引入<strong>极性基团</strong>（-OH/-NH₂/-COOH）   </div></div></foreignObject></g><g data-depth="3" data-path="1.26.28" class="markmap-node" transform="translate(638, 160.03125)"><line stroke="#17becf" stroke-width="1.375" x1="-1" x2="532" y1="21.6875" y2="21.6875"/><foreignObject class="markmap-foreign" x="8" y="0" style="opacity: 1;" width="514" height="21"><div xmlns="http://www.w3.org/1999/xhtml"><div xmlns="http://www.w3.org/1999/xhtml"><strong>第二相</strong> -&gt; 结合反应 -&gt; 极性基团 + 水溶性物质 → <strong>高度水溶性</strong> → <strong><mark>易于排泄</mark></strong>   </div></div></foreignObject></g><g data-depth="3" data-path="1.26.29" class="markmap-node" transform="translate(638, 187.40625)"><line stroke="#1f77b4" stroke-width="1.375" x1="-1" x2="386" y1="21.6875" y2="21.6875"/><foreignObject class="markmap-foreign" x="8" y="0" style="opacity: 1;" width="368" height="21"><div xmlns="http://www.w3.org/1999/xhtml"><div xmlns="http://www.w3.org/1999/xhtml">有些物质 -&gt; 直接进入第二相（本身已有极性基团）   </div></div></foreignObject></g><g data-depth="3" data-path="1.26.30" class="markmap-node" transform="translate(638, 214.78125)"><line stroke="#bcbd22" stroke-width="1.375" x1="-1" x2="464" y1="21.6875" y2="21.6875"/><foreignObject class="markmap-foreign" x="8" y="0" style="opacity: 1;" width="446" height="21"><div xmlns="http://www.w3.org/1999/xhtml"><div xmlns="http://www.w3.org/1999/xhtml">有些物质 -&gt; 必须经第一相 → 暴露极性基团 → 才能进入第二相   </div></div></foreignObject></g><g data-depth="2" data-path="1.26" class="markmap-node" transform="translate(347, 173.71875)"><line stroke="#7f7f7f" stroke-width="1.75" x1="-1" x2="213" y1="21.875" y2="21.875"/><circle stroke-width="1.5" r="6" stroke="#7f7f7f" fill="var(--markmap-circle-open-bg)" cx="211" cy="21.875"/><foreignObject class="markmap-foreign" x="8" y="0" style="opacity: 1;" width="195" height="21"><div xmlns="http://www.w3.org/1999/xhtml"><div xmlns="http://www.w3.org/1999/xhtml"><strong>第一相 vs 第二相对应关系</strong>   </div></div></foreignObject></g><g data-depth="3" data-path="1.31.32" class="markmap-node" transform="translate(598, 247.15625)"><line stroke="#1f77b4" stroke-width="1.375" x1="-1" x2="264" y1="21.6875" y2="21.6875"/><foreignObject class="markmap-foreign" x="8" y="0" style="opacity: 1;" width="246" height="21"><div xmlns="http://www.w3.org/1999/xhtml"><div xmlns="http://www.w3.org/1999/xhtml"><strong>个体差异</strong> -&gt; 遗传因素 + 年龄/性别   </div></div></foreignObject></g><g data-depth="3" data-path="1.31.33" class="markmap-node" transform="translate(598, 274.53125)"><line stroke="#ff7f0e" stroke-width="1.375" x1="-1" x2="239" y1="21.6875" y2="21.6875"/><foreignObject class="markmap-foreign" x="8" y="0" style="opacity: 1;" width="221" height="21"><div xmlns="http://www.w3.org/1999/xhtml"><div xmlns="http://www.w3.org/1999/xhtml"><strong>生理状态</strong> -&gt; 肝疾病 / 营养状况   </div></div></foreignObject></g><g data-depth="4" data-path="1.31.34.35" class="markmap-node" transform="translate(1122, 288.3125)"><line stroke="#ff7f0e" stroke-width="1.1875" x1="-1" x2="615" y1="21.59375" y2="21.59375"/><foreignObject class="markmap-foreign" x="8" y="0" style="opacity: 1;" width="597" height="21"><div xmlns="http://www.w3.org/1999/xhtml"><div xmlns="http://www.w3.org/1999/xhtml"><strong><mark>苯巴比妥</mark></strong> -&gt; 诱导<strong>加单氧酶</strong>（P450）+ <strong>UGT</strong>（葡萄糖醛酸基转移酶）↑ -&gt; 生物转化↑   </div></div></foreignObject></g><g data-depth="4" data-path="1.31.34.36" class="markmap-node" transform="translate(1122, 315.5)"><line stroke="#2ca02c" stroke-width="1.1875" x1="-1" x2="555" y1="21.59375" y2="21.59375"/><foreignObject class="markmap-foreign" x="8" y="0" style="opacity: 1;" width="537" height="21"><div xmlns="http://www.w3.org/1999/xhtml"><div xmlns="http://www.w3.org/1999/xhtml">苯巴比妥临床应用 -&gt; 治疗新生儿黄疸（诱导 UGT → 加快胆红素结合转化）   </div></div></foreignObject></g><g data-depth="3" data-path="1.31.34" class="markmap-node" transform="translate(598, 301.90625)"><line stroke="#2ca02c" stroke-width="1.375" x1="-1" x2="446" y1="21.6875" y2="21.6875"/><circle stroke-width="1.5" r="6" stroke="#2ca02c" fill="var(--markmap-circle-open-bg)" cx="444" cy="21.6875"/><foreignObject class="markmap-foreign" x="8" y="0" style="opacity: 1;" width="428" height="21"><div xmlns="http://www.w3.org/1999/xhtml"><div xmlns="http://www.w3.org/1999/xhtml"><strong>药物影响（重点）</strong> -&gt; 某些药物可**<mark>诱导或抑制</mark>**生物转化酶   </div></div></foreignObject></g><g data-depth="2" data-path="1.31" class="markmap-node" transform="translate(347, 274.53125)"><line stroke="#17becf" stroke-width="1.75" x1="-1" x2="173" y1="21.875" y2="21.875"/><circle stroke-width="1.5" r="6" stroke="#17becf" fill="var(--markmap-circle-open-bg)" cx="171" cy="21.875"/><foreignObject class="markmap-foreign" x="8" y="0" style="opacity: 1;" width="155" height="21"><div xmlns="http://www.w3.org/1999/xhtml"><div xmlns="http://www.w3.org/1999/xhtml"><strong>影响生物转化的因素</strong>   </div></div></foreignObject></g><g data-depth="3" data-path="1.37.38" class="markmap-node" transform="translate(582, 334.28125)"><line stroke="#17becf" stroke-width="1.375" x1="-1" x2="361" y1="21.6875" y2="21.6875"/><foreignObject class="markmap-foreign" x="8" y="0" style="opacity: 1;" width="343" height="21"><div xmlns="http://www.w3.org/1999/xhtml"><div xmlns="http://www.w3.org/1999/xhtml"><strong><mark>UDPGA</mark></strong> -&gt; 葡萄糖醛酸结合（最普遍、最重要）   </div></div></foreignObject></g><g data-depth="3" data-path="1.37.39" class="markmap-node" transform="translate(582, 361.65625)"><line stroke="#1f77b4" stroke-width="1.375" x1="-1" x2="282" y1="21.6875" y2="21.6875"/><foreignObject class="markmap-foreign" x="8" y="0" style="opacity: 1;" width="264" height="21"><div xmlns="http://www.w3.org/1999/xhtml"><div xmlns="http://www.w3.org/1999/xhtml"><strong><mark>PAPS</mark></strong> -&gt; 硫酸结合（激素灭活核心）   </div></div></foreignObject></g><g data-depth="3" data-path="1.37.40" class="markmap-node" transform="translate(582, 389.03125)"><line stroke="#ff7f0e" stroke-width="1.375" x1="-1" x2="243" y1="21.6875" y2="21.6875"/><foreignObject class="markmap-foreign" x="8" y="0" style="opacity: 1;" width="225" height="21"><div xmlns="http://www.w3.org/1999/xhtml"><div xmlns="http://www.w3.org/1999/xhtml"><strong><mark>SAM</mark></strong> -&gt; 甲基结合（甲基供体）   </div></div></foreignObject></g><g data-depth="2" data-path="1.37" class="markmap-node" transform="translate(347, 361.65625)"><line stroke="#bcbd22" stroke-width="1.75" x1="-1" x2="157" y1="21.875" y2="21.875"/><circle stroke-width="1.5" r="6" stroke="#bcbd22" fill="var(--markmap-circle-open-bg)" cx="155" cy="21.875"/><foreignObject class="markmap-foreign" x="8" y="0" style="opacity: 1;" width="139" height="21"><div xmlns="http://www.w3.org/1999/xhtml"><div xmlns="http://www.w3.org/1999/xhtml"><strong>三大结合供体速记</strong>   </div></div></foreignObject></g><g data-depth="1" data-path="1" class="markmap-node" transform="translate(0, -10.5)"><line stroke="#1f77b4" stroke-width="2.5" x1="-1" x2="269" y1="22.25" y2="22.25"/><circle stroke-width="1.5" r="6" stroke="#1f77b4" fill="var(--markmap-circle-open-bg)" cx="267" cy="22.25"/><foreignObject class="markmap-foreign" x="8" y="0" style="opacity: 1;" width="251" height="21"><div xmlns="http://www.w3.org/1999/xhtml"><div xmlns="http://www.w3.org/1999/xhtml">生物转化的第二相反应与影响因素   </div></div></foreignObject></g></g></svg>