<svg xmlns="http://www.w3.org/2000/svg" class="w-full h-full leading-none markmap mm-gnmqwj-1" style=""><style>.markmap{--markmap-max-width: 9999px;--markmap-a-color: #0097e6;--markmap-a-hover-color: #00a8ff;--markmap-code-bg: #f0f0f0;--markmap-code-color: #555;--markmap-highlight-bg: #ffeaa7;--markmap-table-border: 1px solid currentColor;--markmap-font: 300 16px/20px sans-serif;--markmap-circle-open-bg: #fff;--markmap-text-color: #333;--markmap-highlight-node-bg: #ff02;font:var(--markmap-font);color:var(--markmap-text-color)}.markmap-link{fill:none}.markmap-node&gt;circle{cursor:pointer}.markmap-foreign{display:inline-block}.markmap-foreign p{margin:0}.markmap-foreign a{color:var(--markmap-a-color)}.markmap-foreign a:hover{color:var(--markmap-a-hover-color)}.markmap-foreign code{padding:.25em;font-size:calc(1em - 2px);color:var(--markmap-code-color);background-color:var(--markmap-code-bg);border-radius:2px}.markmap-foreign pre{margin:0}.markmap-foreign pre&gt;code{display:block}.markmap-foreign del{text-decoration:line-through}.markmap-foreign em{font-style:italic}.markmap-foreign strong{font-weight:700}.markmap-foreign mark{background:var(--markmap-highlight-bg)}.markmap-foreign table,.markmap-foreign th,.markmap-foreign td{border-collapse:collapse;border:var(--markmap-table-border)}.markmap-foreign img{display:inline-block}.markmap-foreign svg{fill:currentColor}.markmap-foreign&gt;div{width:var(--markmap-max-width);text-align:left}.markmap-foreign&gt;div&gt;div{display:inline-block}.markmap-highlight rect{fill:var(--markmap-highlight-node-bg)}.markmap-dark .markmap{--markmap-code-bg: #1a1b26;--markmap-code-color: #ddd;--markmap-circle-open-bg: #444;--markmap-text-color: #eee}</style><g transform="translate(37.68218254594893,361.07958075185974) scale(0.4882137853167539)"><path class="markmap-link" data-depth="5" data-path="1.3.4.7.8" d="M1005,-212.883C1045,-212.883,1045,-267.117,1085,-267.117" stroke-width="1.09375" stroke="rgb(31, 119, 180)"/><path class="markmap-link" data-depth="5" data-path="1.3.4.7.9" d="M1005,-212.883C1045,-212.883,1045,-240.023,1085,-240.023" stroke-width="1.09375" stroke="rgb(255, 127, 14)"/><path class="markmap-link" data-depth="5" data-path="1.3.4.7.10" d="M1005,-212.883C1045,-212.883,1045,-212.93,1085,-212.93" stroke-width="1.09375" stroke="rgb(44, 160, 44)"/><path class="markmap-link" data-depth="5" data-path="1.3.4.7.11" d="M1005,-212.883C1045,-212.883,1045,-185.836,1085,-185.836" stroke-width="1.09375" stroke="rgb(214, 39, 40)"/><path class="markmap-link" data-depth="5" data-path="1.3.4.7.12" d="M1005,-212.883C1045,-212.883,1045,-158.742,1085,-158.742" stroke-width="1.09375" stroke="rgb(148, 103, 189)"/><path class="markmap-link" data-depth="4" data-path="1.3.4.5" d="M829,-226.43C869,-226.43,869,-326.445,909,-326.445" stroke-width="1.1875" stroke="rgb(127, 127, 127)"/><path class="markmap-link" data-depth="4" data-path="1.3.4.6" d="M829,-226.43C869,-226.43,869,-299.258,909,-299.258" stroke-width="1.1875" stroke="rgb(188, 189, 34)"/><path class="markmap-link" data-depth="4" data-path="1.3.4.7" d="M829,-226.43C869,-226.43,869,-212.883,909,-212.883" stroke-width="1.1875" stroke="rgb(23, 190, 207)"/><path class="markmap-link" data-depth="4" data-path="1.3.4.13" d="M829,-226.43C869,-226.43,869,-126.602,909,-126.602" stroke-width="1.1875" stroke="rgb(140, 86, 75)"/><path class="markmap-link" data-depth="3" data-path="1.3.4" d="M533,-132.812C573,-132.812,573,-226.43,613,-226.43" stroke-width="1.375" stroke="rgb(227, 119, 194)"/><path class="markmap-link" data-depth="3" data-path="1.3.14" d="M533,-132.812C573,-132.812,573,-94.32,613,-94.32" stroke-width="1.375" stroke="rgb(227, 119, 194)"/><path class="markmap-link" data-depth="3" data-path="1.3.15" d="M533,-132.812C573,-132.812,573,-66.945,613,-66.945" stroke-width="1.375" stroke="rgb(127, 127, 127)"/><path class="markmap-link" data-depth="3" data-path="1.3.16" d="M533,-132.812C573,-132.812,573,-39.57,613,-39.57" stroke-width="1.375" stroke="rgb(188, 189, 34)"/><path class="markmap-link" data-depth="3" data-path="1.17.18" d="M469,6.68C509,6.68,509,-7.195,549,-7.195" stroke-width="1.375" stroke="rgb(31, 119, 180)"/><path class="markmap-link" data-depth="3" data-path="1.17.19" d="M469,6.68C509,6.68,509,20.18,549,20.18" stroke-width="1.375" stroke="rgb(255, 127, 14)"/><path class="markmap-link" data-depth="3" data-path="1.20.21" d="M533,80.117C573,80.117,573,52.555,613,52.555" stroke-width="1.375" stroke="rgb(214, 39, 40)"/><path class="markmap-link" data-depth="3" data-path="1.20.22" d="M533,80.117C573,80.117,573,79.93,613,79.93" stroke-width="1.375" stroke="rgb(148, 103, 189)"/><path class="markmap-link" data-depth="3" data-path="1.20.23" d="M533,80.117C573,80.117,573,107.305,613,107.305" stroke-width="1.375" stroke="rgb(140, 86, 75)"/><path class="markmap-link" data-depth="3" data-path="1.24.25" d="M501,180.93C541,180.93,541,139.68,581,139.68" stroke-width="1.375" stroke="rgb(127, 127, 127)"/><path class="markmap-link" data-depth="3" data-path="1.24.26" d="M501,180.93C541,180.93,541,167.055,581,167.055" stroke-width="1.375" stroke="rgb(188, 189, 34)"/><path class="markmap-link" data-depth="3" data-path="1.24.27" d="M501,180.93C541,180.93,541,194.43,581,194.43" stroke-width="1.375" stroke="rgb(23, 190, 207)"/><path class="markmap-link" data-depth="3" data-path="1.24.28" d="M501,180.93C541,180.93,541,221.805,581,221.805" stroke-width="1.375" stroke="rgb(31, 119, 180)"/><path class="markmap-link" data-depth="3" data-path="1.29.30" d="M485,281.742C525,281.742,525,254.18,565,254.18" stroke-width="1.375" stroke="rgb(44, 160, 44)"/><path class="markmap-link" data-depth="3" data-path="1.29.31" d="M485,281.742C525,281.742,525,281.555,565,281.555" stroke-width="1.375" stroke="rgb(214, 39, 40)"/><path class="markmap-link" data-depth="3" data-path="1.29.32" d="M485,281.742C525,281.742,525,308.93,565,308.93" stroke-width="1.375" stroke="rgb(148, 103, 189)"/><path class="markmap-link" data-depth="2" data-path="1.2" d="M245,11.75C285,11.75,285,-258.992,325,-258.992" stroke-width="1.75" stroke="rgb(255, 127, 14)"/><path class="markmap-link" data-depth="2" data-path="1.3" d="M245,11.75C285,11.75,285,-132.812,325,-132.812" stroke-width="1.75" stroke="rgb(140, 86, 75)"/><path class="markmap-link" data-depth="2" data-path="1.17" d="M245,11.75C285,11.75,285,6.68,325,6.68" stroke-width="1.75" stroke="rgb(23, 190, 207)"/><path class="markmap-link" data-depth="2" data-path="1.20" d="M245,11.75C285,11.75,285,80.117,325,80.117" stroke-width="1.75" stroke="rgb(44, 160, 44)"/><path class="markmap-link" data-depth="2" data-path="1.24" d="M245,11.75C285,11.75,285,180.93,325,180.93" stroke-width="1.75" stroke="rgb(227, 119, 194)"/><path class="markmap-link" data-depth="2" data-path="1.29" d="M245,11.75C285,11.75,285,281.742,325,281.742" stroke-width="1.75" stroke="rgb(255, 127, 14)"/><g class="markmap-highlight"/><g data-depth="2" data-path="1.2" class="markmap-node" transform="translate(325, -280.8671875)"><line stroke="#ff7f0e" stroke-width="1.75" x1="-1" x2="366" y1="21.875" y2="21.875"/><foreignObject class="markmap-foreign" x="8" y="0" style="opacity: 1;" width="348" height="21"><div xmlns="http://www.w3.org/1999/xhtml"><div xmlns="http://www.w3.org/1999/xhtml">胃液性质：酸性 <strong>pH 0.9~1.5</strong> | 分泌量 <strong>1.5~2.5 L/d</strong></div></div></foreignObject></g><g data-depth="4" data-path="1.3.4.5" class="markmap-node" transform="translate(909, -348.0390625)"><line stroke="#7f7f7f" stroke-width="1.1875" x1="-1" x2="588" y1="21.59375" y2="21.59375"/><foreignObject class="markmap-foreign" x="8" y="0" style="opacity: 1;" width="570" height="21"><div xmlns="http://www.w3.org/1999/xhtml"><div xmlns="http://www.w3.org/1999/xhtml">分泌机制：质子泵 <strong>H⁺-K⁺-ATP酶</strong> -&gt; 抑制剂：<strong>奥美拉唑</strong> -&gt; 餐后碱潮（HCO₃⁻入血）</div></div></foreignObject></g><g data-depth="4" data-path="1.3.4.6" class="markmap-node" transform="translate(909, -320.8515625)"><line stroke="#bcbd22" stroke-width="1.1875" x1="-1" x2="340" y1="21.59375" y2="21.59375"/><foreignObject class="markmap-foreign" x="8" y="0" style="opacity: 1;" width="322" height="21"><div xmlns="http://www.w3.org/1999/xhtml"><div xmlns="http://www.w3.org/1999/xhtml">基础排酸 <strong>0~5 mmol/h</strong> | 最大 <strong>20~25 mmol/h</strong></div></div></foreignObject></g><g data-depth="5" data-path="1.3.4.7.8" class="markmap-node" transform="translate(1085, -288.6640625)"><line stroke="#1f77b4" stroke-width="1.09375" x1="-1" x2="134" y1="21.546875" y2="21.546875"/><foreignObject class="markmap-foreign" x="8" y="0" style="opacity: 1;" width="116" height="21"><div xmlns="http://www.w3.org/1999/xhtml"><div xmlns="http://www.w3.org/1999/xhtml">① 杀死胃内<strong>细菌</strong></div></div></foreignObject></g><g data-depth="5" data-path="1.3.4.7.9" class="markmap-node" transform="translate(1085, -261.5703125)"><line stroke="#ff7f0e" stroke-width="1.09375" x1="-1" x2="134" y1="21.546875" y2="21.546875"/><foreignObject class="markmap-foreign" x="8" y="0" style="opacity: 1;" width="116" height="21"><div xmlns="http://www.w3.org/1999/xhtml"><div xmlns="http://www.w3.org/1999/xhtml">② 使蛋白质<strong>变性</strong></div></div></foreignObject></g><g data-depth="5" data-path="1.3.4.7.10" class="markmap-node" transform="translate(1085, -234.4765625)"><line stroke="#2ca02c" stroke-width="1.09375" x1="-1" x2="254" y1="21.546875" y2="21.546875"/><foreignObject class="markmap-foreign" x="8" y="0" style="opacity: 1;" width="236" height="21"><div xmlns="http://www.w3.org/1999/xhtml"><div xmlns="http://www.w3.org/1999/xhtml">③ <strong>激活胃蛋白酶原</strong>+提供酸性环境</div></div></foreignObject></g><g data-depth="5" data-path="1.3.4.7.11" class="markmap-node" transform="translate(1085, -207.3828125)"><line stroke="#d62728" stroke-width="1.09375" x1="-1" x2="236" y1="21.546875" y2="21.546875"/><foreignObject class="markmap-foreign" x="8" y="0" style="opacity: 1;" width="218" height="21"><div xmlns="http://www.w3.org/1999/xhtml"><div xmlns="http://www.w3.org/1999/xhtml">④ 刺激促胰液素/缩胆囊素释放</div></div></foreignObject></g><g data-depth="5" data-path="1.3.4.7.12" class="markmap-node" transform="translate(1085, -180.2890625)"><line stroke="#9467bd" stroke-width="1.09375" x1="-1" x2="212" y1="21.546875" y2="21.546875"/><foreignObject class="markmap-foreign" x="8" y="0" style="opacity: 1;" width="194" height="21"><div xmlns="http://www.w3.org/1999/xhtml"><div xmlns="http://www.w3.org/1999/xhtml">⑤ 促进小肠 <strong>Ca²⁺/Fe²⁺</strong> 吸收</div></div></foreignObject></g><g data-depth="4" data-path="1.3.4.7" class="markmap-node" transform="translate(909, -234.4765625)"><line stroke="#17becf" stroke-width="1.1875" x1="-1" x2="98" y1="21.59375" y2="21.59375"/><circle stroke-width="1.5" r="6" stroke="#17becf" fill="var(--markmap-circle-open-bg)" cx="96" cy="21.59375"/><foreignObject class="markmap-foreign" x="8" y="0" style="opacity: 1;" width="80" height="21"><div xmlns="http://www.w3.org/1999/xhtml"><div xmlns="http://www.w3.org/1999/xhtml">五大作用：</div></div></foreignObject></g><g data-depth="4" data-path="1.3.4.13" class="markmap-node" transform="translate(909, -148.1953125)"><line stroke="#8c564b" stroke-width="1.1875" x1="-1" x2="284" y1="21.59375" y2="21.59375"/><foreignObject class="markmap-foreign" x="8" y="0" style="opacity: 1;" width="266" height="21"><div xmlns="http://www.w3.org/1999/xhtml"><div xmlns="http://www.w3.org/1999/xhtml">过少 -&gt; 消化不良；过多 -&gt; 消化性溃疡</div></div></foreignObject></g><g data-depth="3" data-path="1.3.4" class="markmap-node" transform="translate(613, -248.1171875)"><line stroke="#e377c2" stroke-width="1.375" x1="-1" x2="218" y1="21.6875" y2="21.6875"/><circle stroke-width="1.5" r="6" stroke="#e377c2" fill="var(--markmap-circle-open-bg)" cx="216" cy="21.6875"/><foreignObject class="markmap-foreign" x="8" y="0" style="opacity: 1;" width="200" height="21"><div xmlns="http://www.w3.org/1999/xhtml"><div xmlns="http://www.w3.org/1999/xhtml">盐酸（胃酸）：泌酸腺<strong>壁细胞</strong></div></div></foreignObject></g><g data-depth="3" data-path="1.3.14" class="markmap-node" transform="translate(613, -116.0078125)"><line stroke="#e377c2" stroke-width="1.375" x1="-1" x2="583" y1="21.6875" y2="21.6875"/><foreignObject class="markmap-foreign" x="8" y="0" style="opacity: 1;" width="565" height="21"><div xmlns="http://www.w3.org/1999/xhtml"><div xmlns="http://www.w3.org/1999/xhtml">胃蛋白酶原：泌酸腺<strong>主细胞</strong> -&gt; HCl/胃蛋白酶激活 -&gt; <strong>胃蛋白酶</strong> -&gt; 水解蛋白为胨/胨</div></div></foreignObject></g><g data-depth="3" data-path="1.3.15" class="markmap-node" transform="translate(613, -88.6328125)"><line stroke="#7f7f7f" stroke-width="1.375" x1="-1" x2="549" y1="21.6875" y2="21.6875"/><foreignObject class="markmap-foreign" x="8" y="0" style="opacity: 1;" width="531" height="21"><div xmlns="http://www.w3.org/1999/xhtml"><div xmlns="http://www.w3.org/1999/xhtml">粘液：上皮细胞/贲门腺/幽门腺/颈细胞 -&gt; <strong>粘液-碳酸氢盐屏障</strong> -&gt; 保护胃粘膜</div></div></foreignObject></g><g data-depth="3" data-path="1.3.16" class="markmap-node" transform="translate(613, -61.2578125)"><line stroke="#bcbd22" stroke-width="1.375" x1="-1" x2="594" y1="21.6875" y2="21.6875"/><foreignObject class="markmap-foreign" x="8" y="0" style="opacity: 1;" width="576" height="21"><div xmlns="http://www.w3.org/1999/xhtml"><div xmlns="http://www.w3.org/1999/xhtml">内因子：泌酸腺<strong>壁细胞</strong> -&gt; 保护 + 促进回肠吸收 <strong>VitB₁₂</strong> -&gt; 缺乏 -&gt; <strong>巨幼红细胞性贫血</strong></div></div></foreignObject></g><g data-depth="2" data-path="1.3" class="markmap-node" transform="translate(325, -154.6875)"><line stroke="#8c564b" stroke-width="1.75" x1="-1" x2="210" y1="21.875" y2="21.875"/><circle stroke-width="1.5" r="6" stroke="#8c564b" fill="var(--markmap-circle-open-bg)" cx="208" cy="21.875"/><foreignObject class="markmap-foreign" x="8" y="0" style="opacity: 1;" width="192" height="21"><div xmlns="http://www.w3.org/1999/xhtml"><div xmlns="http://www.w3.org/1999/xhtml">★胃液四大成分及细胞来源</div></div></foreignObject></g><g data-depth="3" data-path="1.17.18" class="markmap-node" transform="translate(549, -28.8828125)"><line stroke="#1f77b4" stroke-width="1.375" x1="-1" x2="494" y1="21.6875" y2="21.6875"/><foreignObject class="markmap-foreign" x="8" y="0" style="opacity: 1;" width="476" height="21"><div xmlns="http://www.w3.org/1999/xhtml"><div xmlns="http://www.w3.org/1999/xhtml">保护：粘液-HCO₃⁻屏障 + 胃黏膜屏障（紧密连接）+ PGE₂/PGI₂/EGF</div></div></foreignObject></g><g data-depth="3" data-path="1.17.19" class="markmap-node" transform="translate(549, -1.5078125)"><line stroke="#ff7f0e" stroke-width="1.375" x1="-1" x2="466" y1="21.6875" y2="21.6875"/><foreignObject class="markmap-foreign" x="8" y="0" style="opacity: 1;" width="448" height="21"><div xmlns="http://www.w3.org/1999/xhtml"><div xmlns="http://www.w3.org/1999/xhtml">损伤：<strong>酒精、阿司匹林、幽门螺杆菌</strong> -&gt; 破坏屏障 -&gt; 胃炎/胃溃疡</div></div></foreignObject></g><g data-depth="2" data-path="1.17" class="markmap-node" transform="translate(325, -15.1953125)"><line stroke="#17becf" stroke-width="1.75" x1="-1" x2="146" y1="21.875" y2="21.875"/><circle stroke-width="1.5" r="6" stroke="#17becf" fill="var(--markmap-circle-open-bg)" cx="144" cy="21.875"/><foreignObject class="markmap-foreign" x="8" y="0" style="opacity: 1;" width="128" height="21"><div xmlns="http://www.w3.org/1999/xhtml"><div xmlns="http://www.w3.org/1999/xhtml">★胃的保护与损伤</div></div></foreignObject></g><g data-depth="3" data-path="1.20.21" class="markmap-node" transform="translate(613, 30.8671875)"><line stroke="#d62728" stroke-width="1.375" x1="-1" x2="498" y1="21.6875" y2="21.6875"/><foreignObject class="markmap-foreign" x="8" y="0" style="opacity: 1;" width="480" height="21"><div xmlns="http://www.w3.org/1999/xhtml"><div xmlns="http://www.w3.org/1999/xhtml">头期：量<strong>30%</strong> -&gt; 条件+非条件反射 -&gt; 迷走神经 -&gt; <strong>胃蛋白酶多/胃酸多</strong></div></div></foreignObject></g><g data-depth="3" data-path="1.20.22" class="markmap-node" transform="translate(613, 58.2421875)"><line stroke="#9467bd" stroke-width="1.375" x1="-1" x2="594" y1="21.6875" y2="21.6875"/><foreignObject class="markmap-foreign" x="8" y="0" style="opacity: 1;" width="576" height="21"><div xmlns="http://www.w3.org/1999/xhtml"><div xmlns="http://www.w3.org/1999/xhtml">胃期：量<strong>60%</strong> -&gt; 迷走-迷走反射 + 壁内丛 + G细胞-&gt;促胃液素 -&gt; <strong>胃酸多/胃蛋白酶↓</strong></div></div></foreignObject></g><g data-depth="3" data-path="1.20.23" class="markmap-node" transform="translate(613, 85.6171875)"><line stroke="#8c564b" stroke-width="1.375" x1="-1" x2="477" y1="21.6875" y2="21.6875"/><foreignObject class="markmap-foreign" x="8" y="0" style="opacity: 1;" width="459" height="21"><div xmlns="http://www.w3.org/1999/xhtml"><div xmlns="http://www.w3.org/1999/xhtml">肠期：量<strong>10%</strong> -&gt; 十二指肠G细胞-&gt;促胃液素 -&gt; <strong>胃酸少/胃蛋白酶少</strong></div></div></foreignObject></g><g data-depth="2" data-path="1.20" class="markmap-node" transform="translate(325, 58.2421875)"><line stroke="#2ca02c" stroke-width="1.75" x1="-1" x2="210" y1="21.875" y2="21.875"/><circle stroke-width="1.5" r="6" stroke="#2ca02c" fill="var(--markmap-circle-open-bg)" cx="208" cy="21.875"/><foreignObject class="markmap-foreign" x="8" y="0" style="opacity: 1;" width="192" height="21"><div xmlns="http://www.w3.org/1999/xhtml"><div xmlns="http://www.w3.org/1999/xhtml">★消化期胃液分泌三期对比</div></div></foreignObject></g><g data-depth="3" data-path="1.24.25" class="markmap-node" transform="translate(581, 117.9921875)"><line stroke="#7f7f7f" stroke-width="1.375" x1="-1" x2="329" y1="21.6875" y2="21.6875"/><foreignObject class="markmap-foreign" x="8" y="0" style="opacity: 1;" width="311" height="21"><div xmlns="http://www.w3.org/1999/xhtml"><div xmlns="http://www.w3.org/1999/xhtml">迷走神经 -&gt; <strong>ACh + M受体</strong> -&gt; 阻断剂：<strong>阿托品</strong></div></div></foreignObject></g><g data-depth="3" data-path="1.24.26" class="markmap-node" transform="translate(581, 145.3671875)"><line stroke="#bcbd22" stroke-width="1.375" x1="-1" x2="279" y1="21.6875" y2="21.6875"/><foreignObject class="markmap-foreign" x="8" y="0" style="opacity: 1;" width="261" height="21"><div xmlns="http://www.w3.org/1999/xhtml"><div xmlns="http://www.w3.org/1999/xhtml">促胃液素 -&gt; <strong>G细胞</strong> -&gt; 阻断剂：<strong>丙谷胺</strong></div></div></foreignObject></g><g data-depth="3" data-path="1.24.27" class="markmap-node" transform="translate(581, 172.7421875)"><line stroke="#17becf" stroke-width="1.375" x1="-1" x2="444" y1="21.6875" y2="21.6875"/><foreignObject class="markmap-foreign" x="8" y="0" style="opacity: 1;" width="426" height="21"><div xmlns="http://www.w3.org/1999/xhtml"><div xmlns="http://www.w3.org/1999/xhtml">组胺 -&gt; <strong>ECL细胞</strong>分泌 -&gt; 阻断剂：<strong>甲氰咪呱</strong>（H₂受体拮抗剂）</div></div></foreignObject></g><g data-depth="3" data-path="1.24.28" class="markmap-node" transform="translate(581, 200.1171875)"><line stroke="#1f77b4" stroke-width="1.375" x1="-1" x2="168" y1="21.6875" y2="21.6875"/><foreignObject class="markmap-foreign" x="8" y="0" style="opacity: 1;" width="150" height="21"><div xmlns="http://www.w3.org/1999/xhtml"><div xmlns="http://www.w3.org/1999/xhtml">咖啡/酒精也刺激胃酸</div></div></foreignObject></g><g data-depth="2" data-path="1.24" class="markmap-node" transform="translate(325, 159.0546875)"><line stroke="#e377c2" stroke-width="1.75" x1="-1" x2="178" y1="21.875" y2="21.875"/><circle stroke-width="1.5" r="6" stroke="#e377c2" fill="var(--markmap-circle-open-bg)" cx="176" cy="21.875"/><foreignObject class="markmap-foreign" x="8" y="0" style="opacity: 1;" width="160" height="21"><div xmlns="http://www.w3.org/1999/xhtml"><div xmlns="http://www.w3.org/1999/xhtml">★促进胃液分泌三因素</div></div></foreignObject></g><g data-depth="3" data-path="1.29.30" class="markmap-node" transform="translate(565, 232.4921875)"><line stroke="#2ca02c" stroke-width="1.375" x1="-1" x2="348" y1="21.6875" y2="21.6875"/><foreignObject class="markmap-foreign" x="8" y="0" style="opacity: 1;" width="330" height="21"><div xmlns="http://www.w3.org/1999/xhtml"><div xmlns="http://www.w3.org/1999/xhtml">盐酸 -&gt; 负反馈 -&gt; 抑制促胃液素 + 刺激促胰液素</div></div></foreignObject></g><g data-depth="3" data-path="1.29.31" class="markmap-node" transform="translate(565, 259.8671875)"><line stroke="#d62728" stroke-width="1.375" x1="-1" x2="388" y1="21.6875" y2="21.6875"/><foreignObject class="markmap-foreign" x="8" y="0" style="opacity: 1;" width="370" height="21"><div xmlns="http://www.w3.org/1999/xhtml"><div xmlns="http://www.w3.org/1999/xhtml">脂肪 -&gt; 刺激<strong>肠抑胃素</strong>（促胰液素/缩胆囊素/抑胃肽）</div></div></foreignObject></g><g data-depth="3" data-path="1.29.32" class="markmap-node" transform="translate(565, 287.2421875)"><line stroke="#9467bd" stroke-width="1.375" x1="-1" x2="167" y1="21.6875" y2="21.6875"/><foreignObject class="markmap-foreign" x="8" y="0" style="opacity: 1;" width="149" height="21"><div xmlns="http://www.w3.org/1999/xhtml"><div xmlns="http://www.w3.org/1999/xhtml">高张溶液 -&gt; 肠胃反射</div></div></foreignObject></g><g data-depth="2" data-path="1.29" class="markmap-node" transform="translate(325, 259.8671875)"><line stroke="#ff7f0e" stroke-width="1.75" x1="-1" x2="162" y1="21.875" y2="21.875"/><circle stroke-width="1.5" r="6" stroke="#ff7f0e" fill="var(--markmap-circle-open-bg)" cx="160" cy="21.875"/><foreignObject class="markmap-foreign" x="8" y="0" style="opacity: 1;" width="144" height="21"><div xmlns="http://www.w3.org/1999/xhtml"><div xmlns="http://www.w3.org/1999/xhtml">抑制胃液分泌三因素</div></div></foreignObject></g><g data-depth="1" data-path="1" class="markmap-node" transform="translate(0, -10.5)"><line stroke="#1f77b4" stroke-width="2.5" x1="-1" x2="247" y1="22.25" y2="22.25"/><circle stroke-width="1.5" r="6" stroke="#1f77b4" fill="var(--markmap-circle-open-bg)" cx="245" cy="22.25"/><foreignObject class="markmap-foreign" x="8" y="0" style="opacity: 1;" width="229" height="21"><div xmlns="http://www.w3.org/1999/xhtml"><div xmlns="http://www.w3.org/1999/xhtml">胃液分泌与调节 — 微型速记导图</div></div></foreignObject></g></g></svg>