<svg xmlns="http://www.w3.org/2000/svg" class="w-full h-full leading-none markmap mm-ki3lx0-1" style=""><style>.markmap{--markmap-max-width: 9999px;--markmap-a-color: #0097e6;--markmap-a-hover-color: #00a8ff;--markmap-code-bg: #f0f0f0;--markmap-code-color: #555;--markmap-highlight-bg: #ffeaa7;--markmap-table-border: 1px solid currentColor;--markmap-font: 300 16px/20px sans-serif;--markmap-circle-open-bg: #fff;--markmap-text-color: #333;--markmap-highlight-node-bg: #ff02;font:var(--markmap-font);color:var(--markmap-text-color)}.markmap-link{fill:none}.markmap-node&gt;circle{cursor:pointer}.markmap-foreign{display:inline-block}.markmap-foreign p{margin:0}.markmap-foreign a{color:var(--markmap-a-color)}.markmap-foreign a:hover{color:var(--markmap-a-hover-color)}.markmap-foreign code{padding:.25em;font-size:calc(1em - 2px);color:var(--markmap-code-color);background-color:var(--markmap-code-bg);border-radius:2px}.markmap-foreign pre{margin:0}.markmap-foreign pre&gt;code{display:block}.markmap-foreign del{text-decoration:line-through}.markmap-foreign em{font-style:italic}.markmap-foreign strong{font-weight:700}.markmap-foreign mark{background:var(--markmap-highlight-bg)}.markmap-foreign table,.markmap-foreign th,.markmap-foreign td{border-collapse:collapse;border:var(--markmap-table-border)}.markmap-foreign img{display:inline-block}.markmap-foreign svg{fill:currentColor}.markmap-foreign&gt;div{width:var(--markmap-max-width);text-align:left}.markmap-foreign&gt;div&gt;div{display:inline-block}.markmap-highlight rect{fill:var(--markmap-highlight-node-bg)}.markmap-dark .markmap{--markmap-code-bg: #1a1b26;--markmap-code-color: #ddd;--markmap-circle-open-bg: #444;--markmap-text-color: #eee}</style><g transform="translate(19.062940767063935,381.1338812073383) scale(0.6558806564592513)"><path class="markmap-link" data-depth="3" data-path="1.2.3" d="M596,-454.5C636,-454.5,636,-509.437,676,-509.437" stroke-width="1.375" stroke="rgb(148, 103, 189)"/><path class="markmap-link" data-depth="3" data-path="1.2.4" d="M596,-454.5C636,-454.5,636,-482.062,676,-482.062" stroke-width="1.375" stroke="rgb(127, 127, 127)"/><path class="markmap-link" data-depth="3" data-path="1.2.5" d="M596,-454.5C636,-454.5,636,-454.687,676,-454.687" stroke-width="1.375" stroke="rgb(188, 189, 34)"/><path class="markmap-link" data-depth="3" data-path="1.2.6" d="M596,-454.5C636,-454.5,636,-427.312,676,-427.312" stroke-width="1.375" stroke="rgb(255, 127, 14)"/><path class="markmap-link" data-depth="3" data-path="1.2.7" d="M596,-454.5C636,-454.5,636,-399.937,676,-399.937" stroke-width="1.375" stroke="rgb(188, 189, 34)"/><path class="markmap-link" data-depth="3" data-path="1.10.11" d="M617,-279.5C657,-279.5,657,-307.062,697,-307.062" stroke-width="1.375" stroke="rgb(148, 103, 189)"/><path class="markmap-link" data-depth="3" data-path="1.10.12" d="M617,-279.5C657,-279.5,657,-279.687,697,-279.687" stroke-width="1.375" stroke="rgb(140, 86, 75)"/><path class="markmap-link" data-depth="3" data-path="1.10.13" d="M617,-279.5C657,-279.5,657,-252.312,697,-252.312" stroke-width="1.375" stroke="rgb(227, 119, 194)"/><path class="markmap-link" data-depth="3" data-path="1.14.15" d="M453,-178.687C493,-178.687,493,-219.937,533,-219.937" stroke-width="1.375" stroke="rgb(188, 189, 34)"/><path class="markmap-link" data-depth="3" data-path="1.14.16" d="M453,-178.687C493,-178.687,493,-192.562,533,-192.562" stroke-width="1.375" stroke="rgb(23, 190, 207)"/><path class="markmap-link" data-depth="3" data-path="1.14.17" d="M453,-178.687C493,-178.687,493,-165.187,533,-165.187" stroke-width="1.375" stroke="rgb(31, 119, 180)"/><path class="markmap-link" data-depth="3" data-path="1.14.18" d="M453,-178.687C493,-178.687,493,-137.812,533,-137.812" stroke-width="1.375" stroke="rgb(255, 127, 14)"/><path class="markmap-link" data-depth="3" data-path="1.19.20" d="M453,-64.187C493,-64.187,493,-105.437,533,-105.437" stroke-width="1.375" stroke="rgb(214, 39, 40)"/><path class="markmap-link" data-depth="3" data-path="1.19.21" d="M453,-64.187C493,-64.187,493,-78.062,533,-78.062" stroke-width="1.375" stroke="rgb(148, 103, 189)"/><path class="markmap-link" data-depth="3" data-path="1.19.22" d="M453,-64.187C493,-64.187,493,-50.687,533,-50.687" stroke-width="1.375" stroke="rgb(140, 86, 75)"/><path class="markmap-link" data-depth="3" data-path="1.19.23" d="M453,-64.187C493,-64.187,493,-23.312,533,-23.312" stroke-width="1.375" stroke="rgb(227, 119, 194)"/><path class="markmap-link" data-depth="3" data-path="1.24.25" d="M453,36.625C493,36.625,493,9.063,533,9.063" stroke-width="1.375" stroke="rgb(188, 189, 34)"/><path class="markmap-link" data-depth="3" data-path="1.24.26" d="M453,36.625C493,36.625,493,36.438,533,36.438" stroke-width="1.375" stroke="rgb(23, 190, 207)"/><path class="markmap-link" data-depth="3" data-path="1.24.27" d="M453,36.625C493,36.625,493,63.813,533,63.813" stroke-width="1.375" stroke="rgb(31, 119, 180)"/><path class="markmap-link" data-depth="3" data-path="1.28.29" d="M453,137.438C493,137.438,493,96.188,533,96.188" stroke-width="1.375" stroke="rgb(44, 160, 44)"/><path class="markmap-link" data-depth="3" data-path="1.28.30" d="M453,137.438C493,137.438,493,123.563,533,123.563" stroke-width="1.375" stroke="rgb(214, 39, 40)"/><path class="markmap-link" data-depth="3" data-path="1.28.31" d="M453,137.438C493,137.438,493,150.938,533,150.938" stroke-width="1.375" stroke="rgb(148, 103, 189)"/><path class="markmap-link" data-depth="3" data-path="1.28.32" d="M453,137.438C493,137.438,493,178.313,533,178.313" stroke-width="1.375" stroke="rgb(140, 86, 75)"/><path class="markmap-link" data-depth="3" data-path="1.33.34" d="M549,238.25C589,238.25,589,210.688,629,210.688" stroke-width="1.375" stroke="rgb(127, 127, 127)"/><path class="markmap-link" data-depth="3" data-path="1.33.35" d="M549,238.25C589,238.25,589,238.063,629,238.063" stroke-width="1.375" stroke="rgb(188, 189, 34)"/><path class="markmap-link" data-depth="3" data-path="1.33.36" d="M549,238.25C589,238.25,589,265.438,629,265.438" stroke-width="1.375" stroke="rgb(23, 190, 207)"/><path class="markmap-link" data-depth="3" data-path="1.37.38" d="M453,311.688C493,311.688,493,297.813,533,297.813" stroke-width="1.375" stroke="rgb(255, 127, 14)"/><path class="markmap-link" data-depth="3" data-path="1.37.39" d="M453,311.688C493,311.688,493,325.188,533,325.188" stroke-width="1.375" stroke="rgb(44, 160, 44)"/><path class="markmap-link" data-depth="3" data-path="1.40.41" d="M617,371.438C657,371.438,657,357.563,697,357.563" stroke-width="1.375" stroke="rgb(148, 103, 189)"/><path class="markmap-link" data-depth="3" data-path="1.40.42" d="M617,371.438C657,371.438,657,384.938,697,384.938" stroke-width="1.375" stroke="rgb(140, 86, 75)"/><path class="markmap-link" data-depth="3" data-path="1.43.44" d="M405,431.188C445,431.188,445,417.313,485,417.313" stroke-width="1.375" stroke="rgb(127, 127, 127)"/><path class="markmap-link" data-depth="3" data-path="1.43.45" d="M405,431.188C445,431.188,445,444.688,485,444.688" stroke-width="1.375" stroke="rgb(188, 189, 34)"/><path class="markmap-link" data-depth="2" data-path="1.2" d="M277,11.75C317,11.75,317,-454.5,357,-454.5" stroke-width="1.75" stroke="rgb(255, 127, 14)"/><path class="markmap-link" data-depth="2" data-path="1.8" d="M277,11.75C317,11.75,317,-367.375,357,-367.375" stroke-width="1.75" stroke="rgb(44, 160, 44)"/><path class="markmap-link" data-depth="2" data-path="1.9" d="M277,11.75C317,11.75,317,-339.625,357,-339.625" stroke-width="1.75" stroke="rgb(214, 39, 40)"/><path class="markmap-link" data-depth="2" data-path="1.10" d="M277,11.75C317,11.75,317,-279.5,357,-279.5" stroke-width="1.75" stroke="rgb(214, 39, 40)"/><path class="markmap-link" data-depth="2" data-path="1.14" d="M277,11.75C317,11.75,317,-178.687,357,-178.687" stroke-width="1.75" stroke="rgb(127, 127, 127)"/><path class="markmap-link" data-depth="2" data-path="1.19" d="M277,11.75C317,11.75,317,-64.187,357,-64.187" stroke-width="1.75" stroke="rgb(44, 160, 44)"/><path class="markmap-link" data-depth="2" data-path="1.24" d="M277,11.75C317,11.75,317,36.625,357,36.625" stroke-width="1.75" stroke="rgb(127, 127, 127)"/><path class="markmap-link" data-depth="2" data-path="1.28" d="M277,11.75C317,11.75,317,137.438,357,137.438" stroke-width="1.75" stroke="rgb(255, 127, 14)"/><path class="markmap-link" data-depth="2" data-path="1.33" d="M277,11.75C317,11.75,317,238.25,357,238.25" stroke-width="1.75" stroke="rgb(227, 119, 194)"/><path class="markmap-link" data-depth="2" data-path="1.37" d="M277,11.75C317,11.75,317,311.688,357,311.688" stroke-width="1.75" stroke="rgb(31, 119, 180)"/><path class="markmap-link" data-depth="2" data-path="1.40" d="M277,11.75C317,11.75,317,371.438,357,371.438" stroke-width="1.75" stroke="rgb(214, 39, 40)"/><path class="markmap-link" data-depth="2" data-path="1.43" d="M277,11.75C317,11.75,317,431.188,357,431.188" stroke-width="1.75" stroke="rgb(227, 119, 194)"/><path class="markmap-link" data-depth="2" data-path="1.46" d="M277,11.75C317,11.75,317,477.25,357,477.25" stroke-width="1.75" stroke="rgb(23, 190, 207)"/><g class="markmap-highlight"/><g data-depth="3" data-path="1.2.3" class="markmap-node" transform="translate(676, -531.125)"><line stroke="#9467bd" stroke-width="1.375" x1="-1" x2="269" y1="21.6875" y2="21.6875"/><foreignObject class="markmap-foreign" x="8" y="0" style="opacity: 1;" width="251" height="21"><div xmlns="http://www.w3.org/1999/xhtml"><div xmlns="http://www.w3.org/1999/xhtml">与心率成<strong>反比</strong>：周期(s) = <strong>60 ÷ 心率</strong></div></div></foreignObject></g><g data-depth="3" data-path="1.2.4" class="markmap-node" transform="translate(676, -503.75)"><line stroke="#7f7f7f" stroke-width="1.375" x1="-1" x2="229" y1="21.6875" y2="21.6875"/><foreignObject class="markmap-foreign" x="8" y="0" style="opacity: 1;" width="211" height="21"><div xmlns="http://www.w3.org/1999/xhtml"><div xmlns="http://www.w3.org/1999/xhtml">心率 <strong>75 次/min</strong> -&gt; 周期 = <strong>0.8s</strong></div></div></foreignObject></g><g data-depth="3" data-path="1.2.5" class="markmap-node" transform="translate(676, -476.375)"><line stroke="#bcbd22" stroke-width="1.375" x1="-1" x2="146" y1="21.6875" y2="21.6875"/><foreignObject class="markmap-foreign" x="8" y="0" style="opacity: 1;" width="128" height="21"><div xmlns="http://www.w3.org/1999/xhtml"><div xmlns="http://www.w3.org/1999/xhtml">收缩期<strong>短于</strong>舒张期</div></div></foreignObject></g><g data-depth="3" data-path="1.2.6" class="markmap-node" transform="translate(676, -449)"><line stroke="#ff7f0e" stroke-width="1.375" x1="-1" x2="329" y1="21.6875" y2="21.6875"/><foreignObject class="markmap-foreign" x="8" y="0" style="opacity: 1;" width="311" height="21"><div xmlns="http://www.w3.org/1999/xhtml"><div xmlns="http://www.w3.org/1999/xhtml">全心舒张期：心室舒张前 <strong>0.4s</strong> 心房也在舒张</div></div></foreignObject></g><g data-depth="3" data-path="1.2.7" class="markmap-node" transform="translate(676, -421.625)"><line stroke="#bcbd22" stroke-width="1.375" x1="-1" x2="412" y1="21.6875" y2="21.6875"/><foreignObject class="markmap-foreign" x="8" y="0" style="opacity: 1;" width="394" height="21"><div xmlns="http://www.w3.org/1999/xhtml"><div xmlns="http://www.w3.org/1999/xhtml">临床：心动过速 -&gt; 舒张期缩短比例<strong>更大</strong> -&gt; 冠脉供血<strong>减少</strong></div></div></foreignObject></g><g data-depth="2" data-path="1.2" class="markmap-node" transform="translate(357, -476.375)"><line stroke="#ff7f0e" stroke-width="1.75" x1="-1" x2="241" y1="21.875" y2="21.875"/><circle stroke-width="1.5" r="6" stroke="#ff7f0e" fill="var(--markmap-circle-open-bg)" cx="239" cy="21.875"/><foreignObject class="markmap-foreign" x="8" y="0" style="opacity: 1;" width="223" height="21"><div xmlns="http://www.w3.org/1999/xhtml"><div xmlns="http://www.w3.org/1999/xhtml">心动周期 = 一次收缩 + 一次舒张</div></div></foreignObject></g><g data-depth="2" data-path="1.8" class="markmap-node" transform="translate(357, -389.25)"><line stroke="#2ca02c" stroke-width="1.75" x1="-1" x2="263" y1="21.875" y2="21.875"/><foreignObject class="markmap-foreign" x="8" y="0" style="opacity: 1;" width="245" height="21"><div xmlns="http://www.w3.org/1999/xhtml"><div xmlns="http://www.w3.org/1999/xhtml">泵血核心动力：心脏舒缩 -&gt; <strong>压力差</strong></div></div></foreignObject></g><g data-depth="2" data-path="1.9" class="markmap-node" transform="translate(357, -361.5)"><line stroke="#d62728" stroke-width="1.75" x1="-1" x2="335" y1="21.875" y2="21.875"/><foreignObject class="markmap-foreign" x="8" y="0" style="opacity: 1;" width="317" height="21"><div xmlns="http://www.w3.org/1999/xhtml"><div xmlns="http://www.w3.org/1999/xhtml">方向决定因素：<strong>瓣膜启闭</strong>（房室瓣 / 动脉瓣）</div></div></foreignObject></g><g data-depth="3" data-path="1.10.11" class="markmap-node" transform="translate(697, -328.75)"><line stroke="#9467bd" stroke-width="1.375" x1="-1" x2="332" y1="21.6875" y2="21.6875"/><foreignObject class="markmap-foreign" x="8" y="0" style="opacity: 1;" width="314" height="21"><div xmlns="http://www.w3.org/1999/xhtml"><div xmlns="http://www.w3.org/1999/xhtml">心房收缩 -&gt; 房内压<strong>升高</strong> &gt; 室内压 -&gt; 房室瓣<strong>开</strong></div></div></foreignObject></g><g data-depth="3" data-path="1.10.12" class="markmap-node" transform="translate(697, -301.375)"><line stroke="#8c564b" stroke-width="1.375" x1="-1" x2="402" y1="21.6875" y2="21.6875"/><foreignObject class="markmap-foreign" x="8" y="0" style="opacity: 1;" width="384" height="21"><div xmlns="http://www.w3.org/1999/xhtml"><div xmlns="http://www.w3.org/1999/xhtml">血液（<strong>20%~30%</strong>）主动挤入心室 -&gt; 贡献充盈量约 <strong>1/4</strong></div></div></foreignObject></g><g data-depth="3" data-path="1.10.13" class="markmap-node" transform="translate(697, -274)"><line stroke="#e377c2" stroke-width="1.375" x1="-1" x2="453" y1="21.6875" y2="21.6875"/><foreignObject class="markmap-foreign" x="8" y="0" style="opacity: 1;" width="435" height="21"><div xmlns="http://www.w3.org/1999/xhtml"><div xmlns="http://www.w3.org/1999/xhtml">心房舒张期 + 全心舒张期 -&gt; 血液（<strong>70%~80%</strong>）被动流入心室</div></div></foreignObject></g><g data-depth="2" data-path="1.10" class="markmap-node" transform="translate(357, -301.375)"><line stroke="#d62728" stroke-width="1.75" x1="-1" x2="262" y1="21.875" y2="21.875"/><circle stroke-width="1.5" r="6" stroke="#d62728" fill="var(--markmap-circle-open-bg)" cx="260" cy="21.875"/><foreignObject class="markmap-foreign" x="8" y="0" style="opacity: 1;" width="244" height="21"><div xmlns="http://www.w3.org/1999/xhtml"><div xmlns="http://www.w3.org/1999/xhtml">心房收缩期（周期起点，约 <strong>0.1s</strong>）</div></div></foreignObject></g><g data-depth="3" data-path="1.14.15" class="markmap-node" transform="translate(533, -241.625)"><line stroke="#bcbd22" stroke-width="1.375" x1="-1" x2="364" y1="21.6875" y2="21.6875"/><foreignObject class="markmap-foreign" x="8" y="0" style="opacity: 1;" width="346" height="21"><div xmlns="http://www.w3.org/1999/xhtml"><div xmlns="http://www.w3.org/1999/xhtml">心室肌收缩 -&gt; 室内压<strong>急剧↑</strong> &gt; 房内压 -&gt; 房室瓣<strong>关</strong></div></div></foreignObject></g><g data-depth="3" data-path="1.14.16" class="markmap-node" transform="translate(533, -214.25)"><line stroke="#17becf" stroke-width="1.375" x1="-1" x2="247" y1="21.6875" y2="21.6875"/><foreignObject class="markmap-foreign" x="8" y="0" style="opacity: 1;" width="229" height="21"><div xmlns="http://www.w3.org/1999/xhtml"><div xmlns="http://www.w3.org/1999/xhtml">室内压仍 &lt; 动脉压 -&gt; 动脉瓣仍<strong>关</strong></div></div></foreignObject></g><g data-depth="3" data-path="1.14.17" class="markmap-node" transform="translate(533, -186.875)"><line stroke="#1f77b4" stroke-width="1.375" x1="-1" x2="396" y1="21.6875" y2="21.6875"/><foreignObject class="markmap-foreign" x="8" y="0" style="opacity: 1;" width="378" height="21"><div xmlns="http://www.w3.org/1999/xhtml"><div xmlns="http://www.w3.org/1999/xhtml">两瓣均<strong>关</strong> -&gt; 容积<strong>不变</strong> -&gt; 室内压<strong>急剧↑</strong>（最快上升期）</div></div></foreignObject></g><g data-depth="3" data-path="1.14.18" class="markmap-node" transform="translate(533, -159.5)"><line stroke="#ff7f0e" stroke-width="1.375" x1="-1" x2="209" y1="21.6875" y2="21.6875"/><foreignObject class="markmap-foreign" x="8" y="0" style="opacity: 1;" width="191" height="21"><div xmlns="http://www.w3.org/1999/xhtml"><div xmlns="http://www.w3.org/1999/xhtml">压力：房压 &lt; <strong>室压</strong> &lt; 动脉压</div></div></foreignObject></g><g data-depth="2" data-path="1.14" class="markmap-node" transform="translate(357, -200.5625)"><line stroke="#7f7f7f" stroke-width="1.75" x1="-1" x2="98" y1="21.875" y2="21.875"/><circle stroke-width="1.5" r="6" stroke="#7f7f7f" fill="var(--markmap-circle-open-bg)" cx="96" cy="21.875"/><foreignObject class="markmap-foreign" x="8" y="0" style="opacity: 1;" width="80" height="21"><div xmlns="http://www.w3.org/1999/xhtml"><div xmlns="http://www.w3.org/1999/xhtml">等容收缩期</div></div></foreignObject></g><g data-depth="3" data-path="1.19.20" class="markmap-node" transform="translate(533, -127.125)"><line stroke="#d62728" stroke-width="1.375" x1="-1" x2="259" y1="21.6875" y2="21.6875"/><foreignObject class="markmap-foreign" x="8" y="0" style="opacity: 1;" width="241" height="21"><div xmlns="http://www.w3.org/1999/xhtml"><div xmlns="http://www.w3.org/1999/xhtml">室内压**↑** &gt; 动脉压 -&gt; 动脉瓣<strong>开</strong></div></div></foreignObject></g><g data-depth="3" data-path="1.19.21" class="markmap-node" transform="translate(533, -99.75)"><line stroke="#9467bd" stroke-width="1.375" x1="-1" x2="353" y1="21.6875" y2="21.6875"/><foreignObject class="markmap-foreign" x="8" y="0" style="opacity: 1;" width="335" height="21"><div xmlns="http://www.w3.org/1999/xhtml"><div xmlns="http://www.w3.org/1999/xhtml">射血量占总射血量 <strong>70%</strong>（2/3）-&gt; 室内压达<strong>峰值</strong></div></div></foreignObject></g><g data-depth="3" data-path="1.19.22" class="markmap-node" transform="translate(533, -72.375)"><line stroke="#8c564b" stroke-width="1.375" x1="-1" x2="263" y1="21.6875" y2="21.6875"/><foreignObject class="markmap-foreign" x="8" y="0" style="opacity: 1;" width="245" height="21"><div xmlns="http://www.w3.org/1999/xhtml"><div xmlns="http://www.w3.org/1999/xhtml">房室瓣<strong>关</strong> + 动脉瓣<strong>开</strong> -&gt; 容积<strong>迅速↓</strong></div></div></foreignObject></g><g data-depth="3" data-path="1.19.23" class="markmap-node" transform="translate(533, -45)"><line stroke="#e377c2" stroke-width="1.375" x1="-1" x2="209" y1="21.6875" y2="21.6875"/><foreignObject class="markmap-foreign" x="8" y="0" style="opacity: 1;" width="191" height="21"><div xmlns="http://www.w3.org/1999/xhtml"><div xmlns="http://www.w3.org/1999/xhtml">压力：房压 &lt; <strong>室压</strong> &gt; 动脉压</div></div></foreignObject></g><g data-depth="2" data-path="1.19" class="markmap-node" transform="translate(357, -86.0625)"><line stroke="#2ca02c" stroke-width="1.75" x1="-1" x2="98" y1="21.875" y2="21.875"/><circle stroke-width="1.5" r="6" stroke="#2ca02c" fill="var(--markmap-circle-open-bg)" cx="96" cy="21.875"/><foreignObject class="markmap-foreign" x="8" y="0" style="opacity: 1;" width="80" height="21"><div xmlns="http://www.w3.org/1999/xhtml"><div xmlns="http://www.w3.org/1999/xhtml">快速射血期</div></div></foreignObject></g><g data-depth="3" data-path="1.24.25" class="markmap-node" transform="translate(533, -12.625)"><line stroke="#bcbd22" stroke-width="1.375" x1="-1" x2="376" y1="21.6875" y2="21.6875"/><foreignObject class="markmap-foreign" x="8" y="0" style="opacity: 1;" width="358" height="21"><div xmlns="http://www.w3.org/1999/xhtml"><div xmlns="http://www.w3.org/1999/xhtml">室内压由峰值**↓** -&gt; 射血速度<strong>减慢</strong> -&gt; 靠<strong>惯性</strong>射血</div></div></foreignObject></g><g data-depth="3" data-path="1.24.26" class="markmap-node" transform="translate(533, 14.75)"><line stroke="#17becf" stroke-width="1.375" x1="-1" x2="412" y1="21.6875" y2="21.6875"/><foreignObject class="markmap-foreign" x="8" y="0" style="opacity: 1;" width="394" height="21"><div xmlns="http://www.w3.org/1999/xhtml"><div xmlns="http://www.w3.org/1999/xhtml">射血量占总射血量 <strong>30%</strong>（1/3）-&gt; 容积减至<strong>最低</strong>（ESV）</div></div></foreignObject></g><g data-depth="3" data-path="1.24.27" class="markmap-node" transform="translate(533, 42.125)"><line stroke="#1f77b4" stroke-width="1.375" x1="-1" x2="162" y1="21.6875" y2="21.6875"/><foreignObject class="markmap-foreign" x="8" y="0" style="opacity: 1;" width="144" height="21"><div xmlns="http://www.w3.org/1999/xhtml"><div xmlns="http://www.w3.org/1999/xhtml">房室瓣<strong>关</strong> + 动脉瓣<strong>开</strong></div></div></foreignObject></g><g data-depth="2" data-path="1.24" class="markmap-node" transform="translate(357, 14.75)"><line stroke="#7f7f7f" stroke-width="1.75" x1="-1" x2="98" y1="21.875" y2="21.875"/><circle stroke-width="1.5" r="6" stroke="#7f7f7f" fill="var(--markmap-circle-open-bg)" cx="96" cy="21.875"/><foreignObject class="markmap-foreign" x="8" y="0" style="opacity: 1;" width="80" height="21"><div xmlns="http://www.w3.org/1999/xhtml"><div xmlns="http://www.w3.org/1999/xhtml">减慢射血期</div></div></foreignObject></g><g data-depth="3" data-path="1.28.29" class="markmap-node" transform="translate(533, 74.5)"><line stroke="#2ca02c" stroke-width="1.375" x1="-1" x2="360" y1="21.6875" y2="21.6875"/><foreignObject class="markmap-foreign" x="8" y="0" style="opacity: 1;" width="342" height="21"><div xmlns="http://www.w3.org/1999/xhtml"><div xmlns="http://www.w3.org/1999/xhtml">心室肌舒张 -&gt; 室内压**↓** &lt; 动脉压 -&gt; 动脉瓣<strong>关</strong></div></div></foreignObject></g><g data-depth="3" data-path="1.28.30" class="markmap-node" transform="translate(533, 101.875)"><line stroke="#d62728" stroke-width="1.375" x1="-1" x2="247" y1="21.6875" y2="21.6875"/><foreignObject class="markmap-foreign" x="8" y="0" style="opacity: 1;" width="229" height="21"><div xmlns="http://www.w3.org/1999/xhtml"><div xmlns="http://www.w3.org/1999/xhtml">室内压仍 &gt; 房内压 -&gt; 房室瓣仍<strong>关</strong></div></div></foreignObject></g><g data-depth="3" data-path="1.28.31" class="markmap-node" transform="translate(533, 129.25)"><line stroke="#9467bd" stroke-width="1.375" x1="-1" x2="284" y1="21.6875" y2="21.6875"/><foreignObject class="markmap-foreign" x="8" y="0" style="opacity: 1;" width="266" height="21"><div xmlns="http://www.w3.org/1999/xhtml"><div xmlns="http://www.w3.org/1999/xhtml">两瓣均<strong>关</strong> -&gt; 容积<strong>不变</strong> -&gt; 血液<strong>不进不出</strong></div></div></foreignObject></g><g data-depth="3" data-path="1.28.32" class="markmap-node" transform="translate(533, 156.625)"><line stroke="#8c564b" stroke-width="1.375" x1="-1" x2="209" y1="21.6875" y2="21.6875"/><foreignObject class="markmap-foreign" x="8" y="0" style="opacity: 1;" width="191" height="21"><div xmlns="http://www.w3.org/1999/xhtml"><div xmlns="http://www.w3.org/1999/xhtml">压力：房压 &lt; <strong>室压</strong> &lt; 动脉压</div></div></foreignObject></g><g data-depth="2" data-path="1.28" class="markmap-node" transform="translate(357, 115.5625)"><line stroke="#ff7f0e" stroke-width="1.75" x1="-1" x2="98" y1="21.875" y2="21.875"/><circle stroke-width="1.5" r="6" stroke="#ff7f0e" fill="var(--markmap-circle-open-bg)" cx="96" cy="21.875"/><foreignObject class="markmap-foreign" x="8" y="0" style="opacity: 1;" width="80" height="21"><div xmlns="http://www.w3.org/1999/xhtml"><div xmlns="http://www.w3.org/1999/xhtml">等容舒张期</div></div></foreignObject></g><g data-depth="3" data-path="1.33.34" class="markmap-node" transform="translate(629, 189)"><line stroke="#7f7f7f" stroke-width="1.375" x1="-1" x2="259" y1="21.6875" y2="21.6875"/><foreignObject class="markmap-foreign" x="8" y="0" style="opacity: 1;" width="241" height="21"><div xmlns="http://www.w3.org/1999/xhtml"><div xmlns="http://www.w3.org/1999/xhtml">室内压**↓** &lt; 房内压 -&gt; 房室瓣<strong>开</strong></div></div></foreignObject></g><g data-depth="3" data-path="1.33.35" class="markmap-node" transform="translate(629, 216.375)"><line stroke="#bcbd22" stroke-width="1.375" x1="-1" x2="380" y1="21.6875" y2="21.6875"/><foreignObject class="markmap-foreign" x="8" y="0" style="opacity: 1;" width="362" height="21"><div xmlns="http://www.w3.org/1999/xhtml"><div xmlns="http://www.w3.org/1999/xhtml">血液快速流入心室 -&gt; 容积<strong>迅速↑</strong> -&gt; 充盈量占<strong>大部分</strong></div></div></foreignObject></g><g data-depth="3" data-path="1.33.36" class="markmap-node" transform="translate(629, 243.75)"><line stroke="#17becf" stroke-width="1.375" x1="-1" x2="162" y1="21.6875" y2="21.6875"/><foreignObject class="markmap-foreign" x="8" y="0" style="opacity: 1;" width="144" height="21"><div xmlns="http://www.w3.org/1999/xhtml"><div xmlns="http://www.w3.org/1999/xhtml">房室瓣<strong>开</strong> + 动脉瓣<strong>关</strong></div></div></foreignObject></g><g data-depth="2" data-path="1.33" class="markmap-node" transform="translate(357, 216.375)"><line stroke="#e377c2" stroke-width="1.75" x1="-1" x2="194" y1="21.875" y2="21.875"/><circle stroke-width="1.5" r="6" stroke="#e377c2" fill="var(--markmap-circle-open-bg)" cx="192" cy="21.875"/><foreignObject class="markmap-foreign" x="8" y="0" style="opacity: 1;" width="176" height="21"><div xmlns="http://www.w3.org/1999/xhtml"><div xmlns="http://www.w3.org/1999/xhtml">快速充盈期（<strong>负压抽吸</strong>）</div></div></foreignObject></g><g data-depth="3" data-path="1.37.38" class="markmap-node" transform="translate(533, 276.125)"><line stroke="#ff7f0e" stroke-width="1.375" x1="-1" x2="316" y1="21.6875" y2="21.6875"/><foreignObject class="markmap-foreign" x="8" y="0" style="opacity: 1;" width="298" height="21"><div xmlns="http://www.w3.org/1999/xhtml"><div xmlns="http://www.w3.org/1999/xhtml">压力梯度↓ -&gt; 血流速度<strong>减慢</strong> -&gt; 容积<strong>继续↑</strong></div></div></foreignObject></g><g data-depth="3" data-path="1.37.39" class="markmap-node" transform="translate(533, 303.5)"><line stroke="#2ca02c" stroke-width="1.375" x1="-1" x2="162" y1="21.6875" y2="21.6875"/><foreignObject class="markmap-foreign" x="8" y="0" style="opacity: 1;" width="144" height="21"><div xmlns="http://www.w3.org/1999/xhtml"><div xmlns="http://www.w3.org/1999/xhtml">房室瓣<strong>开</strong> + 动脉瓣<strong>关</strong></div></div></foreignObject></g><g data-depth="2" data-path="1.37" class="markmap-node" transform="translate(357, 289.8125)"><line stroke="#1f77b4" stroke-width="1.75" x1="-1" x2="98" y1="21.875" y2="21.875"/><circle stroke-width="1.5" r="6" stroke="#1f77b4" fill="var(--markmap-circle-open-bg)" cx="96" cy="21.875"/><foreignObject class="markmap-foreign" x="8" y="0" style="opacity: 1;" width="80" height="21"><div xmlns="http://www.w3.org/1999/xhtml"><div xmlns="http://www.w3.org/1999/xhtml">减慢充盈期</div></div></foreignObject></g><g data-depth="3" data-path="1.40.41" class="markmap-node" transform="translate(697, 335.875)"><line stroke="#9467bd" stroke-width="1.375" x1="-1" x2="389" y1="21.6875" y2="21.6875"/><foreignObject class="markmap-foreign" x="8" y="0" style="opacity: 1;" width="371" height="21"><div xmlns="http://www.w3.org/1999/xhtml"><div xmlns="http://www.w3.org/1999/xhtml">心房收缩 -&gt; 充盈量再增加 <strong>1/4</strong> -&gt; 容积达<strong>最大</strong>（EDV）</div></div></foreignObject></g><g data-depth="3" data-path="1.40.42" class="markmap-node" transform="translate(697, 363.25)"><line stroke="#8c564b" stroke-width="1.375" x1="-1" x2="114" y1="21.6875" y2="21.6875"/><foreignObject class="markmap-foreign" x="8" y="0" style="opacity: 1;" width="96" height="21"><div xmlns="http://www.w3.org/1999/xhtml"><div xmlns="http://www.w3.org/1999/xhtml">心房 = <strong>初级泵</strong></div></div></foreignObject></g><g data-depth="2" data-path="1.40" class="markmap-node" transform="translate(357, 349.5625)"><line stroke="#d62728" stroke-width="1.75" x1="-1" x2="262" y1="21.875" y2="21.875"/><circle stroke-width="1.5" r="6" stroke="#d62728" fill="var(--markmap-circle-open-bg)" cx="260" cy="21.875"/><foreignObject class="markmap-foreign" x="8" y="0" style="opacity: 1;" width="244" height="21"><div xmlns="http://www.w3.org/1999/xhtml"><div xmlns="http://www.w3.org/1999/xhtml">心房收缩期（舒张末期最后 <strong>0.1s</strong>）</div></div></foreignObject></g><g data-depth="3" data-path="1.43.44" class="markmap-node" transform="translate(485, 395.625)"><line stroke="#7f7f7f" stroke-width="1.375" x1="-1" x2="376" y1="21.6875" y2="21.6875"/><foreignObject class="markmap-foreign" x="8" y="0" style="opacity: 1;" width="358" height="21"><div xmlns="http://www.w3.org/1999/xhtml"><div xmlns="http://www.w3.org/1999/xhtml">S1：<strong>房室瓣关</strong> + 心室肌收缩振动 -&gt; 标志<strong>收缩期开始</strong></div></div></foreignObject></g><g data-depth="3" data-path="1.43.45" class="markmap-node" transform="translate(485, 423)"><line stroke="#bcbd22" stroke-width="1.375" x1="-1" x2="249" y1="21.6875" y2="21.6875"/><foreignObject class="markmap-foreign" x="8" y="0" style="opacity: 1;" width="231" height="21"><div xmlns="http://www.w3.org/1999/xhtml"><div xmlns="http://www.w3.org/1999/xhtml">S2：<strong>半月瓣关</strong> -&gt; 标志<strong>舒张期开始</strong></div></div></foreignObject></g><g data-depth="2" data-path="1.43" class="markmap-node" transform="translate(357, 409.3125)"><line stroke="#e377c2" stroke-width="1.75" x1="-1" x2="50" y1="21.875" y2="21.875"/><circle stroke-width="1.5" r="6" stroke="#e377c2" fill="var(--markmap-circle-open-bg)" cx="48" cy="21.875"/><foreignObject class="markmap-foreign" x="8" y="0" style="opacity: 1;" width="32" height="21"><div xmlns="http://www.w3.org/1999/xhtml"><div xmlns="http://www.w3.org/1999/xhtml">心音</div></div></foreignObject></g><g data-depth="2" data-path="1.46" class="markmap-node" transform="translate(357, 455.375)"><line stroke="#17becf" stroke-width="1.75" x1="-1" x2="444" y1="21.875" y2="21.875"/><foreignObject class="markmap-foreign" x="8" y="0" style="opacity: 1;" width="426" height="21"><div xmlns="http://www.w3.org/1999/xhtml"><div xmlns="http://www.w3.org/1999/xhtml">核心口诀：缩期射血 -&gt; 舒期充盈 -&gt; 两等容期瓣全关容积不变</div></div></foreignObject></g><g data-depth="1" data-path="1" class="markmap-node" transform="translate(0, -10.5)"><line stroke="#1f77b4" stroke-width="2.5" x1="-1" x2="279" y1="22.25" y2="22.25"/><circle stroke-width="1.5" r="6" stroke="#1f77b4" fill="var(--markmap-circle-open-bg)" cx="277" cy="22.25"/><foreignObject class="markmap-foreign" x="8" y="0" style="opacity: 1;" width="261" height="21"><div xmlns="http://www.w3.org/1999/xhtml"><div xmlns="http://www.w3.org/1999/xhtml">心室泵血过程与机制 — 极简速记导图</div></div></foreignObject></g></g></svg>