<svg xmlns="http://www.w3.org/2000/svg" class="w-full h-full leading-none markmap mm-p1yk5j-1" style=""><style>.markmap{--markmap-max-width: 9999px;--markmap-a-color: #0097e6;--markmap-a-hover-color: #00a8ff;--markmap-code-bg: #f0f0f0;--markmap-code-color: #555;--markmap-highlight-bg: #ffeaa7;--markmap-table-border: 1px solid currentColor;--markmap-font: 300 16px/20px sans-serif;--markmap-circle-open-bg: #fff;--markmap-text-color: #333;--markmap-highlight-node-bg: #ff02;font:var(--markmap-font);color:var(--markmap-text-color)}.markmap-link{fill:none}.markmap-node&gt;circle{cursor:pointer}.markmap-foreign{display:inline-block}.markmap-foreign p{margin:0}.markmap-foreign a{color:var(--markmap-a-color)}.markmap-foreign a:hover{color:var(--markmap-a-hover-color)}.markmap-foreign code{padding:.25em;font-size:calc(1em - 2px);color:var(--markmap-code-color);background-color:var(--markmap-code-bg);border-radius:2px}.markmap-foreign pre{margin:0}.markmap-foreign pre&gt;code{display:block}.markmap-foreign del{text-decoration:line-through}.markmap-foreign em{font-style:italic}.markmap-foreign strong{font-weight:700}.markmap-foreign mark{background:var(--markmap-highlight-bg)}.markmap-foreign table,.markmap-foreign th,.markmap-foreign td{border-collapse:collapse;border:var(--markmap-table-border)}.markmap-foreign img{display:inline-block}.markmap-foreign svg{fill:currentColor}.markmap-foreign&gt;div{width:var(--markmap-max-width);text-align:left}.markmap-foreign&gt;div&gt;div{display:inline-block}.markmap-highlight rect{fill:var(--markmap-highlight-node-bg)}.markmap-dark .markmap{--markmap-code-bg: #1a1b26;--markmap-code-color: #ddd;--markmap-circle-open-bg: #444;--markmap-text-color: #eee}</style><g transform="translate(31.369847667262434,373.25332718469963) scale(0.5093113705770206)"><path class="markmap-link" data-depth="3" data-path="1.2.3" d="M442,-240.844C482,-240.844,482,-268.406,522,-268.406" stroke-width="1.375" stroke="rgb(44, 160, 44)"/><path class="markmap-link" data-depth="3" data-path="1.2.4" d="M442,-240.844C482,-240.844,482,-241.031,522,-241.031" stroke-width="1.375" stroke="rgb(148, 103, 189)"/><path class="markmap-link" data-depth="3" data-path="1.2.5" d="M442,-240.844C482,-240.844,482,-213.656,522,-213.656" stroke-width="1.375" stroke="rgb(140, 86, 75)"/><path class="markmap-link" data-depth="4" data-path="1.6.7.8" d="M1022,-208.656C1062,-208.656,1062,-208.75,1102,-208.75" stroke-width="1.1875" stroke="rgb(127, 127, 127)"/><path class="markmap-link" data-depth="4" data-path="1.6.9.10" d="M952,-162.687C992,-162.687,992,-176.375,1032,-176.375" stroke-width="1.1875" stroke="rgb(188, 189, 34)"/><path class="markmap-link" data-depth="4" data-path="1.6.9.11" d="M952,-162.687C992,-162.687,992,-149.187,1032,-149.187" stroke-width="1.1875" stroke="rgb(23, 190, 207)"/><path class="markmap-link" data-depth="3" data-path="1.6.7" d="M717,-121.531C757,-121.531,757,-208.656,797,-208.656" stroke-width="1.375" stroke="rgb(127, 127, 127)"/><path class="markmap-link" data-depth="3" data-path="1.6.9" d="M717,-121.531C757,-121.531,757,-162.687,797,-162.687" stroke-width="1.375" stroke="rgb(23, 190, 207)"/><path class="markmap-link" data-depth="3" data-path="1.6.12" d="M717,-121.531C757,-121.531,757,-116.906,797,-116.906" stroke-width="1.375" stroke="rgb(31, 119, 180)"/><path class="markmap-link" data-depth="3" data-path="1.6.13" d="M717,-121.531C757,-121.531,757,-89.531,797,-89.531" stroke-width="1.375" stroke="rgb(255, 127, 14)"/><path class="markmap-link" data-depth="3" data-path="1.6.14" d="M717,-121.531C757,-121.531,757,-62.156,797,-62.156" stroke-width="1.375" stroke="rgb(44, 160, 44)"/><path class="markmap-link" data-depth="3" data-path="1.6.15" d="M717,-121.531C757,-121.531,757,-34.781,797,-34.781" stroke-width="1.375" stroke="rgb(214, 39, 40)"/><path class="markmap-link" data-depth="3" data-path="1.16.17" d="M536,11.469C576,11.469,576,-2.406,616,-2.406" stroke-width="1.375" stroke="rgb(227, 119, 194)"/><path class="markmap-link" data-depth="3" data-path="1.16.18" d="M536,11.469C576,11.469,576,24.969,616,24.969" stroke-width="1.375" stroke="rgb(127, 127, 127)"/><path class="markmap-link" data-depth="3" data-path="1.19.20" d="M489,84.906C529,84.906,529,57.344,569,57.344" stroke-width="1.375" stroke="rgb(23, 190, 207)"/><path class="markmap-link" data-depth="3" data-path="1.19.21" d="M489,84.906C529,84.906,529,84.719,569,84.719" stroke-width="1.375" stroke="rgb(31, 119, 180)"/><path class="markmap-link" data-depth="3" data-path="1.19.22" d="M489,84.906C529,84.906,529,112.094,569,112.094" stroke-width="1.375" stroke="rgb(255, 127, 14)"/><path class="markmap-link" data-depth="4" data-path="1.23.25.26" d="M789,204.031C829,204.031,829,176.75,869,176.75" stroke-width="1.1875" stroke="rgb(148, 103, 189)"/><path class="markmap-link" data-depth="4" data-path="1.23.25.27" d="M789,204.031C829,204.031,829,203.938,869,203.938" stroke-width="1.1875" stroke="rgb(140, 86, 75)"/><path class="markmap-link" data-depth="4" data-path="1.23.25.28" d="M789,204.031C829,204.031,829,231.125,869,231.125" stroke-width="1.1875" stroke="rgb(227, 119, 194)"/><path class="markmap-link" data-depth="3" data-path="1.23.24" d="M442,174.438C482,174.438,482,144.469,522,144.469" stroke-width="1.375" stroke="rgb(214, 39, 40)"/><path class="markmap-link" data-depth="3" data-path="1.23.25" d="M442,174.438C482,174.438,482,204.031,522,204.031" stroke-width="1.375" stroke="rgb(188, 189, 34)"/><path class="markmap-link" data-depth="2" data-path="1.2" d="M255,11.75C295,11.75,295,-240.844,335,-240.844" stroke-width="1.75" stroke="rgb(255, 127, 14)"/><path class="markmap-link" data-depth="2" data-path="1.6" d="M255,11.75C295,11.75,295,-121.531,335,-121.531" stroke-width="1.75" stroke="rgb(227, 119, 194)"/><path class="markmap-link" data-depth="2" data-path="1.16" d="M255,11.75C295,11.75,295,11.469,335,11.469" stroke-width="1.75" stroke="rgb(140, 86, 75)"/><path class="markmap-link" data-depth="2" data-path="1.19" d="M255,11.75C295,11.75,295,84.906,335,84.906" stroke-width="1.75" stroke="rgb(188, 189, 34)"/><path class="markmap-link" data-depth="2" data-path="1.23" d="M255,11.75C295,11.75,295,174.438,335,174.438" stroke-width="1.75" stroke="rgb(44, 160, 44)"/><path class="markmap-link" data-depth="2" data-path="1.29" d="M255,11.75C295,11.75,295,263.594,335,263.594" stroke-width="1.75" stroke="rgb(44, 160, 44)"/><g class="markmap-highlight"/><g data-depth="3" data-path="1.2.3" class="markmap-node" transform="translate(522, -290.09375)"><line stroke="#2ca02c" stroke-width="1.375" x1="-1" x2="301" y1="21.6875" y2="21.6875"/><foreignObject class="markmap-foreign" x="8" y="0" style="opacity: 1;" width="283" height="21"><div xmlns="http://www.w3.org/1999/xhtml"><div xmlns="http://www.w3.org/1999/xhtml">定义：核苷酸的排列顺序（碱基序列）   </div></div></foreignObject></g><g data-depth="3" data-path="1.2.4" class="markmap-node" transform="translate(522, -262.71875)"><line stroke="#9467bd" stroke-width="1.375" x1="-1" x2="211" y1="21.6875" y2="21.6875"/><foreignObject class="markmap-foreign" x="8" y="0" style="opacity: 1;" width="193" height="21"><div xmlns="http://www.w3.org/1999/xhtml"><div xmlns="http://www.w3.org/1999/xhtml">维系键：<strong>3',5'-磷酸二酯键</strong>   </div></div></foreignObject></g><g data-depth="3" data-path="1.2.5" class="markmap-node" transform="translate(522, -235.34375)"><line stroke="#8c564b" stroke-width="1.375" x1="-1" x2="122" y1="21.6875" y2="21.6875"/><foreignObject class="markmap-foreign" x="8" y="0" style="opacity: 1;" width="104" height="21"><div xmlns="http://www.w3.org/1999/xhtml"><div xmlns="http://www.w3.org/1999/xhtml">方向：<strong>5'→3'</strong>   </div></div></foreignObject></g><g data-depth="2" data-path="1.2" class="markmap-node" transform="translate(335, -262.71875)"><line stroke="#ff7f0e" stroke-width="1.75" x1="-1" x2="109" y1="21.875" y2="21.875"/><circle stroke-width="1.5" r="6" stroke="#ff7f0e" fill="var(--markmap-circle-open-bg)" cx="107" cy="21.875"/><foreignObject class="markmap-foreign" x="8" y="0" style="opacity: 1;" width="91" height="21"><div xmlns="http://www.w3.org/1999/xhtml"><div xmlns="http://www.w3.org/1999/xhtml">★一级结构   </div></div></foreignObject></g><g data-depth="4" data-path="1.6.7.8" class="markmap-node" transform="translate(1102, -230.34375)"><line stroke="#7f7f7f" stroke-width="1.1875" x1="-1" x2="341" y1="21.59375" y2="21.59375"/><foreignObject class="markmap-foreign" x="8" y="0" style="opacity: 1;" width="323" height="21"><div xmlns="http://www.w3.org/1999/xhtml"><div xmlns="http://www.w3.org/1999/xhtml">直径 <strong>2.37nm</strong> | 螺距 <strong>3.54nm</strong> | 每圈 <strong>10.5</strong>碱基   </div></div></foreignObject></g><g data-depth="3" data-path="1.6.7" class="markmap-node" transform="translate(797, -230.34375)"><line stroke="#7f7f7f" stroke-width="1.375" x1="-1" x2="227" y1="21.6875" y2="21.6875"/><circle stroke-width="1.5" r="6" stroke="#7f7f7f" fill="var(--markmap-circle-open-bg)" cx="225" cy="21.6875"/><foreignObject class="markmap-foreign" x="8" y="0" style="opacity: 1;" width="209" height="21"><div xmlns="http://www.w3.org/1999/xhtml"><div xmlns="http://www.w3.org/1999/xhtml">两条链：<strong>反向平行</strong>/右手螺旋   </div></div></foreignObject></g><g data-depth="4" data-path="1.6.9.10" class="markmap-node" transform="translate(1032, -197.96875)"><line stroke="#bcbd22" stroke-width="1.1875" x1="-1" x2="155" y1="21.59375" y2="21.59375"/><foreignObject class="markmap-foreign" x="8" y="0" style="opacity: 1;" width="137" height="21"><div xmlns="http://www.w3.org/1999/xhtml"><div xmlns="http://www.w3.org/1999/xhtml"><strong>A = T</strong>（<strong>2个氢键</strong>）   </div></div></foreignObject></g><g data-depth="4" data-path="1.6.9.11" class="markmap-node" transform="translate(1032, -170.78125)"><line stroke="#17becf" stroke-width="1.1875" x1="-1" x2="227" y1="21.59375" y2="21.59375"/><foreignObject class="markmap-foreign" x="8" y="0" style="opacity: 1;" width="209" height="21"><div xmlns="http://www.w3.org/1999/xhtml"><div xmlns="http://www.w3.org/1999/xhtml"><strong>G ≡ C</strong>（<strong>3个氢键</strong>，更稳定）   </div></div></foreignObject></g><g data-depth="3" data-path="1.6.9" class="markmap-node" transform="translate(797, -184.375)"><line stroke="#17becf" stroke-width="1.375" x1="-1" x2="157" y1="21.6875" y2="21.6875"/><circle stroke-width="1.5" r="6" stroke="#17becf" fill="var(--markmap-circle-open-bg)" cx="155" cy="21.6875"/><foreignObject class="markmap-foreign" x="8" y="0" style="opacity: 1;" width="139" height="21"><div xmlns="http://www.w3.org/1999/xhtml"><div xmlns="http://www.w3.org/1999/xhtml">★碱基互补配对：   </div></div></foreignObject></g><g data-depth="3" data-path="1.6.12" class="markmap-node" transform="translate(797, -138.59375)"><line stroke="#1f77b4" stroke-width="1.375" x1="-1" x2="445" y1="21.6875" y2="21.6875"/><foreignObject class="markmap-foreign" x="8" y="0" style="opacity: 1;" width="427" height="21"><div xmlns="http://www.w3.org/1999/xhtml"><div xmlns="http://www.w3.org/1999/xhtml">骨架：脱氧核糖+磷酸在<strong>外侧</strong>（亲水），碱基在<strong>内侧</strong>（疏水）   </div></div></foreignObject></g><g data-depth="3" data-path="1.6.13" class="markmap-node" transform="translate(797, -111.21875)"><line stroke="#ff7f0e" stroke-width="1.375" x1="-1" x2="189" y1="21.6875" y2="21.6875"/><foreignObject class="markmap-foreign" x="8" y="0" style="opacity: 1;" width="171" height="21"><div xmlns="http://www.w3.org/1999/xhtml"><div xmlns="http://www.w3.org/1999/xhtml">表面：形成<strong>大沟</strong>和<strong>小沟</strong>   </div></div></foreignObject></g><g data-depth="3" data-path="1.6.14" class="markmap-node" transform="translate(797, -83.84375)"><line stroke="#2ca02c" stroke-width="1.375" x1="-1" x2="205" y1="21.6875" y2="21.6875"/><foreignObject class="markmap-foreign" x="8" y="0" style="opacity: 1;" width="187" height="21"><div xmlns="http://www.w3.org/1999/xhtml"><div xmlns="http://www.w3.org/1999/xhtml">碱基对平面与螺旋轴<strong>垂直</strong>   </div></div></foreignObject></g><g data-depth="3" data-path="1.6.15" class="markmap-node" transform="translate(797, -56.46875)"><line stroke="#d62728" stroke-width="1.375" x1="-1" x2="391" y1="21.6875" y2="21.6875"/><foreignObject class="markmap-foreign" x="8" y="0" style="opacity: 1;" width="373" height="21"><div xmlns="http://www.w3.org/1999/xhtml"><div xmlns="http://www.w3.org/1999/xhtml">稳定力量：<strong>氢键</strong>(横向) + <strong>碱基堆积力/疏水作用</strong>(纵向)   </div></div></foreignObject></g><g data-depth="2" data-path="1.6" class="markmap-node" transform="translate(335, -143.40625)"><line stroke="#e377c2" stroke-width="1.75" x1="-1" x2="384" y1="21.875" y2="21.875"/><circle stroke-width="1.5" r="6" stroke="#e377c2" fill="var(--markmap-circle-open-bg)" cx="382" cy="21.875"/><foreignObject class="markmap-foreign" x="8" y="0" style="opacity: 1;" width="366" height="21"><div xmlns="http://www.w3.org/1999/xhtml"><div xmlns="http://www.w3.org/1999/xhtml">★二级结构——双螺旋模型（Watson-Crick, 1953）   </div></div></foreignObject></g><g data-depth="3" data-path="1.16.17" class="markmap-node" transform="translate(616, -24.09375)"><line stroke="#e377c2" stroke-width="1.375" x1="-1" x2="154" y1="21.6875" y2="21.6875"/><foreignObject class="markmap-foreign" x="8" y="0" style="opacity: 1;" width="136" height="21"><div xmlns="http://www.w3.org/1999/xhtml"><div xmlns="http://www.w3.org/1999/xhtml"><strong>[A]=[T]，[G]=[C]</strong>   </div></div></foreignObject></g><g data-depth="3" data-path="1.16.18" class="markmap-node" transform="translate(616, 3.28125)"><line stroke="#7f7f7f" stroke-width="1.375" x1="-1" x2="365" y1="21.6875" y2="21.6875"/><foreignObject class="markmap-foreign" x="8" y="0" style="opacity: 1;" width="347" height="21"><div xmlns="http://www.w3.org/1999/xhtml"><div xmlns="http://www.w3.org/1999/xhtml">不同物种碱基组成不同；同一个体不同组织相同   </div></div></foreignObject></g><g data-depth="2" data-path="1.16" class="markmap-node" transform="translate(335, -10.40625)"><line stroke="#8c564b" stroke-width="1.75" x1="-1" x2="203" y1="21.875" y2="21.875"/><circle stroke-width="1.5" r="6" stroke="#8c564b" fill="var(--markmap-circle-open-bg)" cx="201" cy="21.875"/><foreignObject class="markmap-foreign" x="8" y="0" style="opacity: 1;" width="185" height="21"><div xmlns="http://www.w3.org/1999/xhtml"><div xmlns="http://www.w3.org/1999/xhtml">★Chargaff定律（1949）   </div></div></foreignObject></g><g data-depth="3" data-path="1.19.20" class="markmap-node" transform="translate(569, 35.65625)"><line stroke="#17becf" stroke-width="1.375" x1="-1" x2="389" y1="21.6875" y2="21.6875"/><foreignObject class="markmap-foreign" x="8" y="0" style="opacity: 1;" width="371" height="21"><div xmlns="http://www.w3.org/1999/xhtml"><div xmlns="http://www.w3.org/1999/xhtml">B-DNA：右手/3.54nm/10.5bp/生理条件（最常见）   </div></div></foreignObject></g><g data-depth="3" data-path="1.19.21" class="markmap-node" transform="translate(569, 63.03125)"><line stroke="#1f77b4" stroke-width="1.375" x1="-1" x2="296" y1="21.6875" y2="21.6875"/><foreignObject class="markmap-foreign" x="8" y="0" style="opacity: 1;" width="278" height="21"><div xmlns="http://www.w3.org/1999/xhtml"><div xmlns="http://www.w3.org/1999/xhtml">A-DNA：右手/2.53nm/11bp/脱水条件   </div></div></foreignObject></g><g data-depth="3" data-path="1.19.22" class="markmap-node" transform="translate(569, 90.40625)"><line stroke="#ff7f0e" stroke-width="1.375" x1="-1" x2="338" y1="21.6875" y2="21.6875"/><foreignObject class="markmap-foreign" x="8" y="0" style="opacity: 1;" width="320" height="21"><div xmlns="http://www.w3.org/1999/xhtml"><div xmlns="http://www.w3.org/1999/xhtml">Z-DNA：左手/4.56nm/12bp/锯齿型/CG序列   </div></div></foreignObject></g><g data-depth="2" data-path="1.19" class="markmap-node" transform="translate(335, 63.03125)"><line stroke="#bcbd22" stroke-width="1.75" x1="-1" x2="156" y1="21.875" y2="21.875"/><circle stroke-width="1.5" r="6" stroke="#bcbd22" fill="var(--markmap-circle-open-bg)" cx="154" cy="21.875"/><foreignObject class="markmap-foreign" x="8" y="0" style="opacity: 1;" width="138" height="21"><div xmlns="http://www.w3.org/1999/xhtml"><div xmlns="http://www.w3.org/1999/xhtml">DNA双螺旋多样性   </div></div></foreignObject></g><g data-depth="3" data-path="1.23.24" class="markmap-node" transform="translate(522, 122.78125)"><line stroke="#d62728" stroke-width="1.375" x1="-1" x2="291" y1="21.6875" y2="21.6875"/><foreignObject class="markmap-foreign" x="8" y="0" style="opacity: 1;" width="273" height="21"><div xmlns="http://www.w3.org/1999/xhtml"><div xmlns="http://www.w3.org/1999/xhtml">原核：<strong>超螺旋</strong>（多为<strong>负超螺旋</strong>/环状）   </div></div></foreignObject></g><g data-depth="4" data-path="1.23.25.26" class="markmap-node" transform="translate(869, 155.15625)"><line stroke="#9467bd" stroke-width="1.1875" x1="-1" x2="477" y1="21.59375" y2="21.59375"/><foreignObject class="markmap-foreign" x="8" y="0" style="opacity: 1;" width="459" height="21"><div xmlns="http://www.w3.org/1999/xhtml"><div xmlns="http://www.w3.org/1999/xhtml">核心：组蛋白<strong>八聚体</strong>（H2A/H2B/H3/H4各2分子）+ DNA~146bp   </div></div></foreignObject></g><g data-depth="4" data-path="1.23.25.27" class="markmap-node" transform="translate(869, 182.34375)"><line stroke="#8c564b" stroke-width="1.1875" x1="-1" x2="242" y1="21.59375" y2="21.59375"/><foreignObject class="markmap-foreign" x="8" y="0" style="opacity: 1;" width="224" height="21"><div xmlns="http://www.w3.org/1999/xhtml"><div xmlns="http://www.w3.org/1999/xhtml">连接：<strong>H1</strong>组蛋白 + ~60bp DNA   </div></div></foreignObject></g><g data-depth="4" data-path="1.23.25.28" class="markmap-node" transform="translate(869, 209.53125)"><line stroke="#e377c2" stroke-width="1.1875" x1="-1" x2="299" y1="21.59375" y2="21.59375"/><foreignObject class="markmap-foreign" x="8" y="0" style="opacity: 1;" width="281" height="21"><div xmlns="http://www.w3.org/1999/xhtml"><div xmlns="http://www.w3.org/1999/xhtml">分裂期压缩<strong>8000~10000倍</strong>形成染色体   </div></div></foreignObject></g><g data-depth="3" data-path="1.23.25" class="markmap-node" transform="translate(522, 182.34375)"><line stroke="#bcbd22" stroke-width="1.375" x1="-1" x2="269" y1="21.6875" y2="21.6875"/><circle stroke-width="1.5" r="6" stroke="#bcbd22" fill="var(--markmap-circle-open-bg)" cx="267" cy="21.6875"/><foreignObject class="markmap-foreign" x="8" y="0" style="opacity: 1;" width="251" height="21"><div xmlns="http://www.w3.org/1999/xhtml"><div xmlns="http://www.w3.org/1999/xhtml">真核：<strong>核小体</strong>（染色质基本单位）   </div></div></foreignObject></g><g data-depth="2" data-path="1.23" class="markmap-node" transform="translate(335, 152.5625)"><line stroke="#2ca02c" stroke-width="1.75" x1="-1" x2="109" y1="21.875" y2="21.875"/><circle stroke-width="1.5" r="6" stroke="#2ca02c" fill="var(--markmap-circle-open-bg)" cx="107" cy="21.875"/><foreignObject class="markmap-foreign" x="8" y="0" style="opacity: 1;" width="91" height="21"><div xmlns="http://www.w3.org/1999/xhtml"><div xmlns="http://www.w3.org/1999/xhtml">★三级结构   </div></div></foreignObject></g><g data-depth="2" data-path="1.29" class="markmap-node" transform="translate(335, 241.71875)"><line stroke="#2ca02c" stroke-width="1.75" x1="-1" x2="514" y1="21.875" y2="21.875"/><foreignObject class="markmap-foreign" x="8" y="0" style="opacity: 1;" width="496" height="21"><div xmlns="http://www.w3.org/1999/xhtml"><div xmlns="http://www.w3.org/1999/xhtml">DNA功能：遗传信息<strong>载体</strong> -&gt; <strong>基因</strong>（功能片段）-&gt; <strong>基因组</strong>（全部基因）   </div></div></foreignObject></g><g data-depth="1" data-path="1" class="markmap-node" transform="translate(0, -10.5)"><line stroke="#1f77b4" stroke-width="2.5" x1="-1" x2="257" y1="22.25" y2="22.25"/><circle stroke-width="1.5" r="6" stroke="#1f77b4" fill="var(--markmap-circle-open-bg)" cx="255" cy="22.25"/><foreignObject class="markmap-foreign" x="8" y="0" style="opacity: 1;" width="239" height="21"><div xmlns="http://www.w3.org/1999/xhtml"><div xmlns="http://www.w3.org/1999/xhtml">DNA的分子结构 — 微型速记导图   </div></div></foreignObject></g></g></svg>