<svg xmlns="http://www.w3.org/2000/svg" class="w-full h-full leading-none markmap mm-gpvzjv-1" style=""><style>.markmap{--markmap-max-width: 9999px;--markmap-a-color: #0097e6;--markmap-a-hover-color: #00a8ff;--markmap-code-bg: #f0f0f0;--markmap-code-color: #555;--markmap-highlight-bg: #ffeaa7;--markmap-table-border: 1px solid currentColor;--markmap-font: 300 16px/20px sans-serif;--markmap-circle-open-bg: #fff;--markmap-text-color: #333;--markmap-highlight-node-bg: #ff02;font:var(--markmap-font);color:var(--markmap-text-color)}.markmap-link{fill:none}.markmap-node&gt;circle{cursor:pointer}.markmap-foreign{display:inline-block}.markmap-foreign p{margin:0}.markmap-foreign a{color:var(--markmap-a-color)}.markmap-foreign a:hover{color:var(--markmap-a-hover-color)}.markmap-foreign code{padding:.25em;font-size:calc(1em - 2px);color:var(--markmap-code-color);background-color:var(--markmap-code-bg);border-radius:2px}.markmap-foreign pre{margin:0}.markmap-foreign pre&gt;code{display:block}.markmap-foreign del{text-decoration:line-through}.markmap-foreign em{font-style:italic}.markmap-foreign strong{font-weight:700}.markmap-foreign mark{background:var(--markmap-highlight-bg)}.markmap-foreign table,.markmap-foreign th,.markmap-foreign td{border-collapse:collapse;border:var(--markmap-table-border)}.markmap-foreign img{display:inline-block}.markmap-foreign svg{fill:currentColor}.markmap-foreign&gt;div{width:var(--markmap-max-width);text-align:left}.markmap-foreign&gt;div&gt;div{display:inline-block}.markmap-highlight rect{fill:var(--markmap-highlight-node-bg)}.markmap-dark .markmap{--markmap-code-bg: #1a1b26;--markmap-code-color: #ddd;--markmap-circle-open-bg: #444;--markmap-text-color: #eee}</style><g transform="translate(26.14073702158771,359.2205428265962) scale(0.3699923679015646)"><path class="markmap-link" data-depth="4" data-path="1.2.3.4" d="M875,-285.875C915,-285.875,915,-326.75,955,-326.75" stroke-width="1.1875" stroke="rgb(140, 86, 75)"/><path class="markmap-link" data-depth="4" data-path="1.2.3.5" d="M875,-285.875C915,-285.875,915,-299.562,955,-299.562" stroke-width="1.1875" stroke="rgb(255, 127, 14)"/><path class="markmap-link" data-depth="4" data-path="1.2.3.6" d="M875,-285.875C915,-285.875,915,-272.375,955,-272.375" stroke-width="1.1875" stroke="rgb(227, 119, 194)"/><path class="markmap-link" data-depth="4" data-path="1.2.3.7" d="M875,-285.875C915,-285.875,915,-245.187,955,-245.187" stroke-width="1.1875" stroke="rgb(188, 189, 34)"/><path class="markmap-link" data-depth="3" data-path="1.2.3" d="M571,-285.687C611,-285.687,611,-285.875,651,-285.875" stroke-width="1.375" stroke="rgb(148, 103, 189)"/><path class="markmap-link" data-depth="5" data-path="1.8.11.12.13" d="M1248,-139.703C1288,-139.703,1288,-153.297,1328,-153.297" stroke-width="1.09375" stroke="rgb(23, 190, 207)"/><path class="markmap-link" data-depth="5" data-path="1.8.11.12.14" d="M1248,-139.703C1288,-139.703,1288,-126.203,1328,-126.203" stroke-width="1.09375" stroke="rgb(31, 119, 180)"/><path class="markmap-link" data-depth="5" data-path="1.8.11.15.16" d="M1112,-94.062C1152,-94.062,1152,-94.109,1192,-94.109" stroke-width="1.09375" stroke="rgb(44, 160, 44)"/><path class="markmap-link" data-depth="5" data-path="1.8.11.17.18" d="M1112,-48.422C1152,-48.422,1152,-62.016,1192,-62.016" stroke-width="1.09375" stroke="rgb(148, 103, 189)"/><path class="markmap-link" data-depth="5" data-path="1.8.11.17.19" d="M1112,-48.422C1152,-48.422,1152,-34.922,1192,-34.922" stroke-width="1.09375" stroke="rgb(140, 86, 75)"/><path class="markmap-link" data-depth="4" data-path="1.8.11.12" d="M885,-93.969C925,-93.969,925,-139.703,965,-139.703" stroke-width="1.1875" stroke="rgb(255, 127, 14)"/><path class="markmap-link" data-depth="4" data-path="1.8.11.15" d="M885,-93.969C925,-93.969,925,-94.062,965,-94.062" stroke-width="1.1875" stroke="rgb(255, 127, 14)"/><path class="markmap-link" data-depth="4" data-path="1.8.11.17" d="M885,-93.969C925,-93.969,925,-48.422,965,-48.422" stroke-width="1.1875" stroke="rgb(214, 39, 40)"/><path class="markmap-link" data-depth="4" data-path="1.8.20.21" d="M965,38.094C1005,38.094,1005,-2.781,1045,-2.781" stroke-width="1.1875" stroke="rgb(127, 127, 127)"/><path class="markmap-link" data-depth="4" data-path="1.8.20.22" d="M965,38.094C1005,38.094,1005,24.406,1045,24.406" stroke-width="1.1875" stroke="rgb(188, 189, 34)"/><path class="markmap-link" data-depth="4" data-path="1.8.20.23" d="M965,38.094C1005,38.094,1005,51.594,1045,51.594" stroke-width="1.1875" stroke="rgb(23, 190, 207)"/><path class="markmap-link" data-depth="4" data-path="1.8.20.24" d="M965,38.094C1005,38.094,1005,78.781,1045,78.781" stroke-width="1.1875" stroke="rgb(31, 119, 180)"/><path class="markmap-link" data-depth="3" data-path="1.8.9" d="M698,-87.219C738,-87.219,738,-212.906,778,-212.906" stroke-width="1.375" stroke="rgb(148, 103, 189)"/><path class="markmap-link" data-depth="3" data-path="1.8.10" d="M698,-87.219C738,-87.219,738,-185.531,778,-185.531" stroke-width="1.375" stroke="rgb(23, 190, 207)"/><path class="markmap-link" data-depth="3" data-path="1.8.11" d="M698,-87.219C738,-87.219,738,-93.969,778,-93.969" stroke-width="1.375" stroke="rgb(31, 119, 180)"/><path class="markmap-link" data-depth="3" data-path="1.8.20" d="M698,-87.219C738,-87.219,738,38.094,778,38.094" stroke-width="1.375" stroke="rgb(227, 119, 194)"/><path class="markmap-link" data-depth="5" data-path="1.25.28.29.30" d="M1256,156.891C1296,156.891,1296,143.297,1336,143.297" stroke-width="1.09375" stroke="rgb(44, 160, 44)"/><path class="markmap-link" data-depth="5" data-path="1.25.28.29.31" d="M1256,156.891C1296,156.891,1296,170.391,1336,170.391" stroke-width="1.09375" stroke="rgb(214, 39, 40)"/><path class="markmap-link" data-depth="5" data-path="1.25.28.32.33" d="M1061,202.531C1101,202.531,1101,202.484,1141,202.484" stroke-width="1.09375" stroke="rgb(140, 86, 75)"/><path class="markmap-link" data-depth="4" data-path="1.25.28.29" d="M793,179.805C833,179.805,833,156.891,873,156.891" stroke-width="1.1875" stroke="rgb(255, 127, 14)"/><path class="markmap-link" data-depth="4" data-path="1.25.28.32" d="M793,179.805C833,179.805,833,202.531,873,202.531" stroke-width="1.1875" stroke="rgb(148, 103, 189)"/><path class="markmap-link" data-depth="3" data-path="1.25.26" d="M606,131.934C646,131.934,646,83.688,686,83.688" stroke-width="1.375" stroke="rgb(148, 103, 189)"/><path class="markmap-link" data-depth="3" data-path="1.25.27" d="M606,131.934C646,131.934,646,111.063,686,111.063" stroke-width="1.375" stroke="rgb(140, 86, 75)"/><path class="markmap-link" data-depth="3" data-path="1.25.28" d="M606,131.934C646,131.934,646,179.805,686,179.805" stroke-width="1.375" stroke="rgb(148, 103, 189)"/><path class="markmap-link" data-depth="3" data-path="1.34.35" d="M617,248.688C657,248.688,657,234.813,697,234.813" stroke-width="1.375" stroke="rgb(127, 127, 127)"/><path class="markmap-link" data-depth="3" data-path="1.34.36" d="M617,248.688C657,248.688,657,262.188,697,262.188" stroke-width="1.375" stroke="rgb(188, 189, 34)"/><path class="markmap-link" data-depth="3" data-path="1.37.38" d="M644,308.438C684,308.438,684,294.563,724,294.563" stroke-width="1.375" stroke="rgb(31, 119, 180)"/><path class="markmap-link" data-depth="3" data-path="1.37.39" d="M644,308.438C684,308.438,684,321.938,724,321.938" stroke-width="1.375" stroke="rgb(255, 127, 14)"/><path class="markmap-link" data-depth="2" data-path="1.2" d="M368,11.75C408,11.75,408,-285.687,448,-285.687" stroke-width="1.75" stroke="rgb(255, 127, 14)"/><path class="markmap-link" data-depth="2" data-path="1.8" d="M368,11.75C408,11.75,408,-87.219,448,-87.219" stroke-width="1.75" stroke="rgb(214, 39, 40)"/><path class="markmap-link" data-depth="2" data-path="1.25" d="M368,11.75C408,11.75,408,131.934,448,131.934" stroke-width="1.75" stroke="rgb(214, 39, 40)"/><path class="markmap-link" data-depth="2" data-path="1.34" d="M368,11.75C408,11.75,408,248.688,448,248.688" stroke-width="1.75" stroke="rgb(227, 119, 194)"/><path class="markmap-link" data-depth="2" data-path="1.37" d="M368,11.75C408,11.75,408,308.438,448,308.438" stroke-width="1.75" stroke="rgb(23, 190, 207)"/><g class="markmap-highlight"/><g data-depth="4" data-path="1.2.3.4" class="markmap-node" transform="translate(955, -348.34375)"><line stroke="#8c564b" stroke-width="1.1875" x1="-1" x2="226" y1="21.59375" y2="21.59375"/><foreignObject class="markmap-foreign" x="8" y="0" style="opacity: 1;" width="208" height="21"><div xmlns="http://www.w3.org/1999/xhtml"><div xmlns="http://www.w3.org/1999/xhtml">① 入球小动脉<strong>收缩</strong> -&gt; GFR↓   </div></div></foreignObject></g><g data-depth="4" data-path="1.2.3.5" class="markmap-node" transform="translate(955, -321.15625)"><line stroke="#ff7f0e" stroke-width="1.1875" x1="-1" x2="334" y1="21.59375" y2="21.59375"/><foreignObject class="markmap-foreign" x="8" y="0" style="opacity: 1;" width="316" height="21"><div xmlns="http://www.w3.org/1999/xhtml"><div xmlns="http://www.w3.org/1999/xhtml">② 球旁细胞分泌<strong>肾素↑</strong> -&gt; NaCl/水重吸收↑   </div></div></foreignObject></g><g data-depth="4" data-path="1.2.3.6" class="markmap-node" transform="translate(955, -293.96875)"><line stroke="#e377c2" stroke-width="1.1875" x1="-1" x2="352" y1="21.59375" y2="21.59375"/><foreignObject class="markmap-foreign" x="8" y="0" style="opacity: 1;" width="334" height="21"><div xmlns="http://www.w3.org/1999/xhtml"><div xmlns="http://www.w3.org/1999/xhtml">③ 直接促进近端小管/髓袢 NaCl 和水重吸收↑   </div></div></foreignObject></g><g data-depth="4" data-path="1.2.3.7" class="markmap-node" transform="translate(955, -266.78125)"><line stroke="#bcbd22" stroke-width="1.1875" x1="-1" x2="142" y1="21.59375" y2="21.59375"/><foreignObject class="markmap-foreign" x="8" y="0" style="opacity: 1;" width="124" height="21"><div xmlns="http://www.w3.org/1999/xhtml"><div xmlns="http://www.w3.org/1999/xhtml">-&gt; 总体：<strong>尿量↓</strong>   </div></div></foreignObject></g><g data-depth="3" data-path="1.2.3" class="markmap-node" transform="translate(651, -307.5625)"><line stroke="#9467bd" stroke-width="1.375" x1="-1" x2="226" y1="21.6875" y2="21.6875"/><circle stroke-width="1.5" r="6" stroke="#9467bd" fill="var(--markmap-circle-open-bg)" cx="224" cy="21.6875"/><foreignObject class="markmap-foreign" x="8" y="0" style="opacity: 1;" width="208" height="21"><div xmlns="http://www.w3.org/1999/xhtml"><div xmlns="http://www.w3.org/1999/xhtml">肾交感神经兴奋 -&gt; 三效应：   </div></div></foreignObject></g><g data-depth="2" data-path="1.2" class="markmap-node" transform="translate(448, -307.5625)"><line stroke="#ff7f0e" stroke-width="1.75" x1="-1" x2="125" y1="21.875" y2="21.875"/><circle stroke-width="1.5" r="6" stroke="#ff7f0e" fill="var(--markmap-circle-open-bg)" cx="123" cy="21.875"/><foreignObject class="markmap-foreign" x="8" y="0" style="opacity: 1;" width="107" height="21"><div xmlns="http://www.w3.org/1999/xhtml"><div xmlns="http://www.w3.org/1999/xhtml">神经调节概述   </div></div></foreignObject></g><g data-depth="3" data-path="1.8.9" class="markmap-node" transform="translate(778, -234.59375)"><line stroke="#9467bd" stroke-width="1.375" x1="-1" x2="370" y1="21.6875" y2="21.6875"/><foreignObject class="markmap-foreign" x="8" y="0" style="opacity: 1;" width="352" height="21"><div xmlns="http://www.w3.org/1999/xhtml"><div xmlns="http://www.w3.org/1999/xhtml">分泌：下丘脑<strong>视上核、室旁核</strong> -&gt; 储存于神经垂体   </div></div></foreignObject></g><g data-depth="3" data-path="1.8.10" class="markmap-node" transform="translate(778, -207.21875)"><line stroke="#17becf" stroke-width="1.375" x1="-1" x2="698" y1="21.6875" y2="21.6875"/><foreignObject class="markmap-foreign" x="8" y="0" style="opacity: 1;" width="680" height="21"><div xmlns="http://www.w3.org/1999/xhtml"><div xmlns="http://www.w3.org/1999/xhtml">作用：远曲小管/集合管 -&gt; 管腔膜 <strong>AQP-2</strong>（水孔蛋白）↑ -&gt; 水通透性↑ -&gt; 水重吸收↑ -&gt; 尿量↓   </div></div></foreignObject></g><g data-depth="5" data-path="1.8.11.12.13" class="markmap-node" transform="translate(1328, -174.84375)"><line stroke="#17becf" stroke-width="1.09375" x1="-1" x2="644" y1="21.546875" y2="21.546875"/><foreignObject class="markmap-foreign" x="8" y="0" style="opacity: 1;" width="626" height="21"><div xmlns="http://www.w3.org/1999/xhtml"><div xmlns="http://www.w3.org/1999/xhtml">渗透压**↑<strong>（大量出汗/失水）-&gt; 渗透压感受器兴奋 -&gt; ADH</strong>↑** -&gt; 水重吸收↑ -&gt; 尿量↓   </div></div></foreignObject></g><g data-depth="5" data-path="1.8.11.12.14" class="markmap-node" transform="translate(1328, -147.75)"><line stroke="#1f77b4" stroke-width="1.09375" x1="-1" x2="606" y1="21.546875" y2="21.546875"/><foreignObject class="markmap-foreign" x="8" y="0" style="opacity: 1;" width="588" height="21"><div xmlns="http://www.w3.org/1999/xhtml"><div xmlns="http://www.w3.org/1999/xhtml">渗透压**↓<strong>（大量饮水）-&gt; 渗透压感受器抑制 -&gt; ADH</strong>↓** -&gt; 水重吸收↓ -&gt; 尿量↑   </div></div></foreignObject></g><g data-depth="4" data-path="1.8.11.12" class="markmap-node" transform="translate(965, -161.296875)"><line stroke="#ff7f0e" stroke-width="1.1875" x1="-1" x2="285" y1="21.59375" y2="21.59375"/><circle stroke-width="1.5" r="6" stroke="#ff7f0e" fill="var(--markmap-circle-open-bg)" cx="283" cy="21.59375"/><foreignObject class="markmap-foreign" x="8" y="0" style="opacity: 1;" width="267" height="21"><div xmlns="http://www.w3.org/1999/xhtml"><div xmlns="http://www.w3.org/1999/xhtml">（1）血浆晶体渗透压（<strong>主要因素</strong>）：   </div></div></foreignObject></g><g data-depth="5" data-path="1.8.11.15.16" class="markmap-node" transform="translate(1192, -115.65625)"><line stroke="#2ca02c" stroke-width="1.09375" x1="-1" x2="558" y1="21.546875" y2="21.546875"/><foreignObject class="markmap-foreign" x="8" y="0" style="opacity: 1;" width="540" height="21"><div xmlns="http://www.w3.org/1999/xhtml"><div xmlns="http://www.w3.org/1999/xhtml">血量**↓<strong>（大失血）-&gt; 容量感受器抑制 -&gt; ADH</strong>↑** -&gt; 水重吸收↑ -&gt; 尿量↓   </div></div></foreignObject></g><g data-depth="4" data-path="1.8.11.15" class="markmap-node" transform="translate(965, -115.65625)"><line stroke="#ff7f0e" stroke-width="1.1875" x1="-1" x2="149" y1="21.59375" y2="21.59375"/><circle stroke-width="1.5" r="6" stroke="#ff7f0e" fill="var(--markmap-circle-open-bg)" cx="147" cy="21.59375"/><foreignObject class="markmap-foreign" x="8" y="0" style="opacity: 1;" width="131" height="21"><div xmlns="http://www.w3.org/1999/xhtml"><div xmlns="http://www.w3.org/1999/xhtml">（2）循环血量：   </div></div></foreignObject></g><g data-depth="5" data-path="1.8.11.17.18" class="markmap-node" transform="translate(1192, -83.5625)"><line stroke="#9467bd" stroke-width="1.09375" x1="-1" x2="265" y1="21.546875" y2="21.546875"/><foreignObject class="markmap-foreign" x="8" y="0" style="opacity: 1;" width="247" height="21"><div xmlns="http://www.w3.org/1999/xhtml"><div xmlns="http://www.w3.org/1999/xhtml">寒冷/乙醇 -&gt; ADH**↓** -&gt; 尿量↑   </div></div></foreignObject></g><g data-depth="5" data-path="1.8.11.17.19" class="markmap-node" transform="translate(1192, -56.46875)"><line stroke="#8c564b" stroke-width="1.09375" x1="-1" x2="265" y1="21.546875" y2="21.546875"/><foreignObject class="markmap-foreign" x="8" y="0" style="opacity: 1;" width="247" height="21"><div xmlns="http://www.w3.org/1999/xhtml"><div xmlns="http://www.w3.org/1999/xhtml">疼痛/紧张 -&gt; ADH**↑** -&gt; 尿量↓   </div></div></foreignObject></g><g data-depth="4" data-path="1.8.11.17" class="markmap-node" transform="translate(965, -70.015625)"><line stroke="#d62728" stroke-width="1.1875" x1="-1" x2="149" y1="21.59375" y2="21.59375"/><circle stroke-width="1.5" r="6" stroke="#d62728" fill="var(--markmap-circle-open-bg)" cx="147" cy="21.59375"/><foreignObject class="markmap-foreign" x="8" y="0" style="opacity: 1;" width="131" height="21"><div xmlns="http://www.w3.org/1999/xhtml"><div xmlns="http://www.w3.org/1999/xhtml">（3）其他因素：   </div></div></foreignObject></g><g data-depth="3" data-path="1.8.11" class="markmap-node" transform="translate(778, -115.65625)"><line stroke="#1f77b4" stroke-width="1.375" x1="-1" x2="109" y1="21.6875" y2="21.6875"/><circle stroke-width="1.5" r="6" stroke="#1f77b4" fill="var(--markmap-circle-open-bg)" cx="107" cy="21.6875"/><foreignObject class="markmap-foreign" x="8" y="0" style="opacity: 1;" width="91" height="21"><div xmlns="http://www.w3.org/1999/xhtml"><div xmlns="http://www.w3.org/1999/xhtml">分泌调节：   </div></div></foreignObject></g><g data-depth="4" data-path="1.8.20.21" class="markmap-node" transform="translate(1045, -24.375)"><line stroke="#7f7f7f" stroke-width="1.1875" x1="-1" x2="269" y1="21.59375" y2="21.59375"/><foreignObject class="markmap-foreign" x="8" y="0" style="opacity: 1;" width="251" height="21"><div xmlns="http://www.w3.org/1999/xhtml"><div xmlns="http://www.w3.org/1999/xhtml">定义：大量饮<strong>清水</strong>后尿量↑的现象   </div></div></foreignObject></g><g data-depth="4" data-path="1.8.20.22" class="markmap-node" transform="translate(1045, 2.8125)"><line stroke="#bcbd22" stroke-width="1.1875" x1="-1" x2="960" y1="21.59375" y2="21.59375"/><foreignObject class="markmap-foreign" x="8" y="0" style="opacity: 1;" width="942" height="21"><div xmlns="http://www.w3.org/1999/xhtml"><div xmlns="http://www.w3.org/1999/xhtml">机制链：饮清水 -&gt; 血浆晶体渗透压**↓** -&gt; 下丘脑渗透压感受器<strong>抑制</strong> -&gt; ADH 释放**↓** -&gt; 远曲/集合管水重吸收**↓** -&gt; 尿量**↑**   </div></div></foreignObject></g><g data-depth="4" data-path="1.8.20.23" class="markmap-node" transform="translate(1045, 30)"><line stroke="#17becf" stroke-width="1.1875" x1="-1" x2="403" y1="21.59375" y2="21.59375"/><foreignObject class="markmap-foreign" x="8" y="0" style="opacity: 1;" width="385" height="21"><div xmlns="http://www.w3.org/1999/xhtml"><div xmlns="http://www.w3.org/1999/xhtml">时间线：30min 开始↑ -&gt; 1h 达峰值 -&gt; 2~3h 恢复正常   </div></div></foreignObject></g><g data-depth="4" data-path="1.8.20.24" class="markmap-node" transform="translate(1045, 57.1875)"><line stroke="#1f77b4" stroke-width="1.1875" x1="-1" x2="479" y1="21.59375" y2="21.59375"/><foreignObject class="markmap-foreign" x="8" y="0" style="opacity: 1;" width="461" height="21"><div xmlns="http://www.w3.org/1999/xhtml"><div xmlns="http://www.w3.org/1999/xhtml">对比：饮生理盐水 -&gt; 渗透压不变 -&gt; ADH 不变 -&gt; 尿量无明显变化   </div></div></foreignObject></g><g data-depth="3" data-path="1.8.20" class="markmap-node" transform="translate(778, 16.40625)"><line stroke="#e377c2" stroke-width="1.375" x1="-1" x2="189" y1="21.6875" y2="21.6875"/><circle stroke-width="1.5" r="6" stroke="#e377c2" fill="var(--markmap-circle-open-bg)" cx="187" cy="21.6875"/><foreignObject class="markmap-foreign" x="8" y="0" style="opacity: 1;" width="171" height="21"><div xmlns="http://www.w3.org/1999/xhtml"><div xmlns="http://www.w3.org/1999/xhtml">★水利尿（必考大题）   </div></div></foreignObject></g><g data-depth="2" data-path="1.8" class="markmap-node" transform="translate(448, -109.09375)"><line stroke="#d62728" stroke-width="1.75" x1="-1" x2="252" y1="21.875" y2="21.875"/><circle stroke-width="1.5" r="6" stroke="#d62728" fill="var(--markmap-circle-open-bg)" cx="250" cy="21.875"/><foreignObject class="markmap-foreign" x="8" y="0" style="opacity: 1;" width="234" height="21"><div xmlns="http://www.w3.org/1999/xhtml"><div xmlns="http://www.w3.org/1999/xhtml">抗利尿激素（ADH）★核心大题   </div></div></foreignObject></g><g data-depth="3" data-path="1.25.26" class="markmap-node" transform="translate(686, 62)"><line stroke="#9467bd" stroke-width="1.375" x1="-1" x2="205" y1="21.6875" y2="21.6875"/><foreignObject class="markmap-foreign" x="8" y="0" style="opacity: 1;" width="187" height="21"><div xmlns="http://www.w3.org/1999/xhtml"><div xmlns="http://www.w3.org/1999/xhtml">分泌：肾上腺皮质<strong>球状带</strong>   </div></div></foreignObject></g><g data-depth="3" data-path="1.25.27" class="markmap-node" transform="translate(686, 89.375)"><line stroke="#8c564b" stroke-width="1.375" x1="-1" x2="633" y1="21.6875" y2="21.6875"/><foreignObject class="markmap-foreign" x="8" y="0" style="opacity: 1;" width="615" height="21"><div xmlns="http://www.w3.org/1999/xhtml"><div xmlns="http://www.w3.org/1999/xhtml">作用：<strong>保 Na⁺ 排 K⁺ 保水</strong> -&gt; 远曲小管/集合管主细胞 -&gt; Na⁺/Cl⁻/水重吸收↑ + K⁺ 分泌↑   </div></div></foreignObject></g><g data-depth="5" data-path="1.25.28.29.30" class="markmap-node" transform="translate(1336, 121.75)"><line stroke="#2ca02c" stroke-width="1.09375" x1="-1" x2="463" y1="21.546875" y2="21.546875"/><foreignObject class="markmap-foreign" x="8" y="0" style="opacity: 1;" width="445" height="21"><div xmlns="http://www.w3.org/1999/xhtml"><div xmlns="http://www.w3.org/1999/xhtml">触发 -&gt; 肾素↑ -&gt; AngⅠ -&gt; ACE -&gt; <strong>AngⅡ</strong> -&gt; <strong>AngⅢ</strong> -&gt; 醛固酮↑   </div></div></foreignObject></g><g data-depth="5" data-path="1.25.28.29.31" class="markmap-node" transform="translate(1336, 148.84375)"><line stroke="#d62728" stroke-width="1.09375" x1="-1" x2="555" y1="21.546875" y2="21.546875"/><foreignObject class="markmap-foreign" x="8" y="0" style="opacity: 1;" width="537" height="21"><div xmlns="http://www.w3.org/1999/xhtml"><div xmlns="http://www.w3.org/1999/xhtml">肾素分泌触发因素：入球小动脉<strong>牵张感受器</strong> + <strong>致密斑</strong>（NaCl↓）+ <strong>交感神经</strong>   </div></div></foreignObject></g><g data-depth="4" data-path="1.25.28.29" class="markmap-node" transform="translate(873, 135.296875)"><line stroke="#ff7f0e" stroke-width="1.1875" x1="-1" x2="385" y1="21.59375" y2="21.59375"/><circle stroke-width="1.5" r="6" stroke="#ff7f0e" fill="var(--markmap-circle-open-bg)" cx="383" cy="21.59375"/><foreignObject class="markmap-foreign" x="8" y="0" style="opacity: 1;" width="367" height="21"><div xmlns="http://www.w3.org/1999/xhtml"><div xmlns="http://www.w3.org/1999/xhtml">（1）RAAS 系统（肾素-血管紧张素-醛固酮系统）：   </div></div></foreignObject></g><g data-depth="5" data-path="1.25.28.32.33" class="markmap-node" transform="translate(1141, 180.9375)"><line stroke="#8c564b" stroke-width="1.09375" x1="-1" x2="345" y1="21.546875" y2="21.546875"/><foreignObject class="markmap-foreign" x="8" y="0" style="opacity: 1;" width="327" height="21"><div xmlns="http://www.w3.org/1999/xhtml"><div xmlns="http://www.w3.org/1999/xhtml">血 <strong>K⁺↑</strong>（最敏感）/血 <strong>Na⁺↓</strong> -&gt; 醛固酮**↑**   </div></div></foreignObject></g><g data-depth="4" data-path="1.25.28.32" class="markmap-node" transform="translate(873, 180.9375)"><line stroke="#9467bd" stroke-width="1.1875" x1="-1" x2="190" y1="21.59375" y2="21.59375"/><circle stroke-width="1.5" r="6" stroke="#9467bd" fill="var(--markmap-circle-open-bg)" cx="188" cy="21.59375"/><foreignObject class="markmap-foreign" x="8" y="0" style="opacity: 1;" width="172" height="21"><div xmlns="http://www.w3.org/1999/xhtml"><div xmlns="http://www.w3.org/1999/xhtml">（2）血 K⁺/Na⁺ 浓度：   </div></div></foreignObject></g><g data-depth="3" data-path="1.25.28" class="markmap-node" transform="translate(686, 158.1171875)"><line stroke="#9467bd" stroke-width="1.375" x1="-1" x2="109" y1="21.6875" y2="21.6875"/><circle stroke-width="1.5" r="6" stroke="#9467bd" fill="var(--markmap-circle-open-bg)" cx="107" cy="21.6875"/><foreignObject class="markmap-foreign" x="8" y="0" style="opacity: 1;" width="91" height="21"><div xmlns="http://www.w3.org/1999/xhtml"><div xmlns="http://www.w3.org/1999/xhtml">分泌调节：   </div></div></foreignObject></g><g data-depth="2" data-path="1.25" class="markmap-node" transform="translate(448, 110.05859375)"><line stroke="#d62728" stroke-width="1.75" x1="-1" x2="160" y1="21.875" y2="21.875"/><circle stroke-width="1.5" r="6" stroke="#d62728" fill="var(--markmap-circle-open-bg)" cx="158" cy="21.875"/><foreignObject class="markmap-foreign" x="8" y="0" style="opacity: 1;" width="142" height="21"><div xmlns="http://www.w3.org/1999/xhtml"><div xmlns="http://www.w3.org/1999/xhtml">醛固酮 ★核心大题   </div></div></foreignObject></g><g data-depth="3" data-path="1.34.35" class="markmap-node" transform="translate(697, 213.125)"><line stroke="#7f7f7f" stroke-width="1.375" x1="-1" x2="157" y1="21.6875" y2="21.6875"/><foreignObject class="markmap-foreign" x="8" y="0" style="opacity: 1;" width="139" height="21"><div xmlns="http://www.w3.org/1999/xhtml"><div xmlns="http://www.w3.org/1999/xhtml">分泌：心房肌细胞   </div></div></foreignObject></g><g data-depth="3" data-path="1.34.36" class="markmap-node" transform="translate(697, 240.5)"><line stroke="#bcbd22" stroke-width="1.375" x1="-1" x2="349" y1="21.6875" y2="21.6875"/><foreignObject class="markmap-foreign" x="8" y="0" style="opacity: 1;" width="331" height="21"><div xmlns="http://www.w3.org/1999/xhtml"><div xmlns="http://www.w3.org/1999/xhtml">作用：促进<strong>水、钠排出</strong>（与醛固酮效应<strong>对抗</strong>）   </div></div></foreignObject></g><g data-depth="2" data-path="1.34" class="markmap-node" transform="translate(448, 226.8125)"><line stroke="#e377c2" stroke-width="1.75" x1="-1" x2="171" y1="21.875" y2="21.875"/><circle stroke-width="1.5" r="6" stroke="#e377c2" fill="var(--markmap-circle-open-bg)" cx="169" cy="21.875"/><foreignObject class="markmap-foreign" x="8" y="0" style="opacity: 1;" width="153" height="21"><div xmlns="http://www.w3.org/1999/xhtml"><div xmlns="http://www.w3.org/1999/xhtml">心房钠尿肽（ANP）   </div></div></foreignObject></g><g data-depth="3" data-path="1.37.38" class="markmap-node" transform="translate(724, 272.875)"><line stroke="#1f77b4" stroke-width="1.375" x1="-1" x2="762" y1="21.6875" y2="21.6875"/><foreignObject class="markmap-foreign" x="8" y="0" style="opacity: 1;" width="744" height="21"><div xmlns="http://www.w3.org/1999/xhtml"><div xmlns="http://www.w3.org/1999/xhtml">ADH：来源下丘脑 -&gt; 靶点远曲/集合管 -&gt; 机制 <strong>AQP-2↑</strong> -&gt; 效应<strong>水重吸收↑</strong> -&gt; 调节因素：<strong>晶体渗透压</strong>为主   </div></div></foreignObject></g><g data-depth="3" data-path="1.37.39" class="markmap-node" transform="translate(724, 300.25)"><line stroke="#ff7f0e" stroke-width="1.375" x1="-1" x2="883" y1="21.6875" y2="21.6875"/><foreignObject class="markmap-foreign" x="8" y="0" style="opacity: 1;" width="865" height="21"><div xmlns="http://www.w3.org/1999/xhtml"><div xmlns="http://www.w3.org/1999/xhtml">醛固酮：来源肾上腺皮质 -&gt; 靶点远曲/集合管主细胞 -&gt; 机制<strong>基因转录</strong> -&gt; 效应<strong>保 Na⁺ 排 K⁺ 保水</strong> -&gt; 调节因素：<strong>RAAS + 血 K⁺</strong>   </div></div></foreignObject></g><g data-depth="2" data-path="1.37" class="markmap-node" transform="translate(448, 286.5625)"><line stroke="#17becf" stroke-width="1.75" x1="-1" x2="198" y1="21.875" y2="21.875"/><circle stroke-width="1.5" r="6" stroke="#17becf" fill="var(--markmap-circle-open-bg)" cx="196" cy="21.875"/><foreignObject class="markmap-foreign" x="8" y="0" style="opacity: 1;" width="180" height="21"><div xmlns="http://www.w3.org/1999/xhtml"><div xmlns="http://www.w3.org/1999/xhtml">ADH vs 醛固酮 对比速查   </div></div></foreignObject></g><g data-depth="1" data-path="1" class="markmap-node" transform="translate(0, -10.5)"><line stroke="#1f77b4" stroke-width="2.5" x1="-1" x2="370" y1="22.25" y2="22.25"/><circle stroke-width="1.5" r="6" stroke="#1f77b4" fill="var(--markmap-circle-open-bg)" cx="368" cy="22.25"/><foreignObject class="markmap-foreign" x="8" y="0" style="opacity: 1;" width="352" height="21"><div xmlns="http://www.w3.org/1999/xhtml"><div xmlns="http://www.w3.org/1999/xhtml">尿生成的体液调节 — 微型速记导图（大题必考）   </div></div></foreignObject></g></g></svg>