<svg xmlns="http://www.w3.org/2000/svg" class="w-full h-full leading-none markmap mm-lzdw27-1" style=""><style>.markmap{--markmap-max-width: 9999px;--markmap-a-color: #0097e6;--markmap-a-hover-color: #00a8ff;--markmap-code-bg: #f0f0f0;--markmap-code-color: #555;--markmap-highlight-bg: #ffeaa7;--markmap-table-border: 1px solid currentColor;--markmap-font: 300 16px/20px sans-serif;--markmap-circle-open-bg: #fff;--markmap-text-color: #333;--markmap-highlight-node-bg: #ff02;font:var(--markmap-font);color:var(--markmap-text-color)}.markmap-link{fill:none}.markmap-node&gt;circle{cursor:pointer}.markmap-foreign{display:inline-block}.markmap-foreign p{margin:0}.markmap-foreign a{color:var(--markmap-a-color)}.markmap-foreign a:hover{color:var(--markmap-a-hover-color)}.markmap-foreign code{padding:.25em;font-size:calc(1em - 2px);color:var(--markmap-code-color);background-color:var(--markmap-code-bg);border-radius:2px}.markmap-foreign pre{margin:0}.markmap-foreign pre&gt;code{display:block}.markmap-foreign del{text-decoration:line-through}.markmap-foreign em{font-style:italic}.markmap-foreign strong{font-weight:700}.markmap-foreign mark{background:var(--markmap-highlight-bg)}.markmap-foreign table,.markmap-foreign th,.markmap-foreign td{border-collapse:collapse;border:var(--markmap-table-border)}.markmap-foreign img{display:inline-block}.markmap-foreign svg{fill:currentColor}.markmap-foreign&gt;div{width:var(--markmap-max-width);text-align:left}.markmap-foreign&gt;div&gt;div{display:inline-block}.markmap-highlight rect{fill:var(--markmap-highlight-node-bg)}.markmap-dark .markmap{--markmap-code-bg: #1a1b26;--markmap-code-color: #ddd;--markmap-circle-open-bg: #444;--markmap-text-color: #eee}</style><g transform="translate(31.739887162208447,392.0209962732893) scale(0.4979882219139422)"><path class="markmap-link" data-depth="3" data-path="1.2.3" d="M438,-512.531C478,-512.531,478,-553.781,518,-553.781" stroke-width="1.375" stroke="rgb(148, 103, 189)"/><path class="markmap-link" data-depth="3" data-path="1.2.4" d="M438,-512.531C478,-512.531,478,-526.406,518,-526.406" stroke-width="1.375" stroke="rgb(255, 127, 14)"/><path class="markmap-link" data-depth="3" data-path="1.2.5" d="M438,-512.531C478,-512.531,478,-499.031,518,-499.031" stroke-width="1.375" stroke="rgb(44, 160, 44)"/><path class="markmap-link" data-depth="3" data-path="1.2.6" d="M438,-512.531C478,-512.531,478,-471.656,518,-471.656" stroke-width="1.375" stroke="rgb(214, 39, 40)"/><path class="markmap-link" data-depth="3" data-path="1.7.8" d="M486,-411.719C526,-411.719,526,-439.281,566,-439.281" stroke-width="1.375" stroke="rgb(140, 86, 75)"/><path class="markmap-link" data-depth="3" data-path="1.7.9" d="M486,-411.719C526,-411.719,526,-411.906,566,-411.906" stroke-width="1.375" stroke="rgb(227, 119, 194)"/><path class="markmap-link" data-depth="3" data-path="1.7.10" d="M486,-411.719C526,-411.719,526,-384.531,566,-384.531" stroke-width="1.375" stroke="rgb(148, 103, 189)"/><path class="markmap-link" data-depth="4" data-path="1.11.12.13" d="M953,-352.156C993,-352.156,993,-433.812,1033,-433.812" stroke-width="1.1875" stroke="rgb(23, 190, 207)"/><path class="markmap-link" data-depth="4" data-path="1.11.12.14" d="M953,-352.156C993,-352.156,993,-406.625,1033,-406.625" stroke-width="1.1875" stroke="rgb(31, 119, 180)"/><path class="markmap-link" data-depth="4" data-path="1.11.12.15" d="M953,-352.156C993,-352.156,993,-379.437,1033,-379.437" stroke-width="1.1875" stroke="rgb(255, 127, 14)"/><path class="markmap-link" data-depth="4" data-path="1.11.12.16" d="M953,-352.156C993,-352.156,993,-352.25,1033,-352.25" stroke-width="1.1875" stroke="rgb(44, 160, 44)"/><path class="markmap-link" data-depth="4" data-path="1.11.12.17" d="M953,-352.156C993,-352.156,993,-325.062,1033,-325.062" stroke-width="1.1875" stroke="rgb(214, 39, 40)"/><path class="markmap-link" data-depth="4" data-path="1.11.12.18" d="M953,-352.156C993,-352.156,993,-297.875,1033,-297.875" stroke-width="1.1875" stroke="rgb(148, 103, 189)"/><path class="markmap-link" data-depth="4" data-path="1.11.12.19" d="M953,-352.156C993,-352.156,993,-270.687,1033,-270.687" stroke-width="1.1875" stroke="rgb(140, 86, 75)"/><path class="markmap-link" data-depth="4" data-path="1.11.20.21" d="M1016,-156.844C1056,-156.844,1056,-238.5,1096,-238.5" stroke-width="1.1875" stroke="rgb(127, 127, 127)"/><path class="markmap-link" data-depth="4" data-path="1.11.20.22" d="M1016,-156.844C1056,-156.844,1056,-211.312,1096,-211.312" stroke-width="1.1875" stroke="rgb(188, 189, 34)"/><path class="markmap-link" data-depth="4" data-path="1.11.20.23" d="M1016,-156.844C1056,-156.844,1056,-184.125,1096,-184.125" stroke-width="1.1875" stroke="rgb(23, 190, 207)"/><path class="markmap-link" data-depth="4" data-path="1.11.20.24" d="M1016,-156.844C1056,-156.844,1056,-156.937,1096,-156.937" stroke-width="1.1875" stroke="rgb(31, 119, 180)"/><path class="markmap-link" data-depth="4" data-path="1.11.20.25" d="M1016,-156.844C1056,-156.844,1056,-129.75,1096,-129.75" stroke-width="1.1875" stroke="rgb(255, 127, 14)"/><path class="markmap-link" data-depth="4" data-path="1.11.20.26" d="M1016,-156.844C1056,-156.844,1056,-102.562,1096,-102.562" stroke-width="1.1875" stroke="rgb(44, 160, 44)"/><path class="markmap-link" data-depth="4" data-path="1.11.20.27" d="M1016,-156.844C1056,-156.844,1056,-75.375,1096,-75.375" stroke-width="1.1875" stroke="rgb(214, 39, 40)"/><path class="markmap-link" data-depth="4" data-path="1.11.28.29" d="M991,52.063C1031,52.063,1031,-43.187,1071,-43.187" stroke-width="1.1875" stroke="rgb(140, 86, 75)"/><path class="markmap-link" data-depth="4" data-path="1.11.28.30" d="M991,52.063C1031,52.063,1031,-16,1071,-16" stroke-width="1.1875" stroke="rgb(227, 119, 194)"/><path class="markmap-link" data-depth="4" data-path="1.11.28.31" d="M991,52.063C1031,52.063,1031,11.188,1071,11.188" stroke-width="1.1875" stroke="rgb(127, 127, 127)"/><path class="markmap-link" data-depth="4" data-path="1.11.28.32" d="M991,52.063C1031,52.063,1031,38.375,1071,38.375" stroke-width="1.1875" stroke="rgb(188, 189, 34)"/><path class="markmap-link" data-depth="4" data-path="1.11.28.33" d="M991,52.063C1031,52.063,1031,65.563,1071,65.563" stroke-width="1.1875" stroke="rgb(23, 190, 207)"/><path class="markmap-link" data-depth="4" data-path="1.11.28.34" d="M991,52.063C1031,52.063,1031,92.75,1071,92.75" stroke-width="1.1875" stroke="rgb(31, 119, 180)"/><path class="markmap-link" data-depth="4" data-path="1.11.28.35" d="M991,52.063C1031,52.063,1031,119.938,1071,119.938" stroke-width="1.1875" stroke="rgb(255, 127, 14)"/><path class="markmap-link" data-depth="4" data-path="1.11.28.36" d="M991,52.063C1031,52.063,1031,147.125,1071,147.125" stroke-width="1.1875" stroke="rgb(44, 160, 44)"/><path class="markmap-link" data-depth="4" data-path="1.11.37.38" d="M993,274.563C1033,274.563,1033,179.313,1073,179.313" stroke-width="1.1875" stroke="rgb(148, 103, 189)"/><path class="markmap-link" data-depth="4" data-path="1.11.37.39" d="M993,274.563C1033,274.563,1033,206.5,1073,206.5" stroke-width="1.1875" stroke="rgb(140, 86, 75)"/><path class="markmap-link" data-depth="4" data-path="1.11.37.40" d="M993,274.563C1033,274.563,1033,233.688,1073,233.688" stroke-width="1.1875" stroke="rgb(227, 119, 194)"/><path class="markmap-link" data-depth="4" data-path="1.11.37.41" d="M993,274.563C1033,274.563,1033,260.875,1073,260.875" stroke-width="1.1875" stroke="rgb(127, 127, 127)"/><path class="markmap-link" data-depth="4" data-path="1.11.37.42" d="M993,274.563C1033,274.563,1033,288.063,1073,288.063" stroke-width="1.1875" stroke="rgb(188, 189, 34)"/><path class="markmap-link" data-depth="4" data-path="1.11.37.43" d="M993,274.563C1033,274.563,1033,315.25,1073,315.25" stroke-width="1.1875" stroke="rgb(23, 190, 207)"/><path class="markmap-link" data-depth="4" data-path="1.11.37.44" d="M993,274.563C1033,274.563,1033,342.438,1073,342.438" stroke-width="1.1875" stroke="rgb(31, 119, 180)"/><path class="markmap-link" data-depth="4" data-path="1.11.37.45" d="M993,274.563C1033,274.563,1033,369.625,1073,369.625" stroke-width="1.1875" stroke="rgb(255, 127, 14)"/><path class="markmap-link" data-depth="3" data-path="1.11.12" d="M726,-38.609C766,-38.609,766,-352.156,806,-352.156" stroke-width="1.375" stroke="rgb(127, 127, 127)"/><path class="markmap-link" data-depth="3" data-path="1.11.20" d="M726,-38.609C766,-38.609,766,-156.844,806,-156.844" stroke-width="1.375" stroke="rgb(227, 119, 194)"/><path class="markmap-link" data-depth="3" data-path="1.11.28" d="M726,-38.609C766,-38.609,766,52.063,806,52.063" stroke-width="1.375" stroke="rgb(148, 103, 189)"/><path class="markmap-link" data-depth="3" data-path="1.11.37" d="M726,-38.609C766,-38.609,766,274.563,806,274.563" stroke-width="1.375" stroke="rgb(214, 39, 40)"/><path class="markmap-link" data-depth="3" data-path="1.46.47" d="M582,361.031C622,361.031,622,319.781,662,319.781" stroke-width="1.375" stroke="rgb(214, 39, 40)"/><path class="markmap-link" data-depth="3" data-path="1.46.48" d="M582,361.031C622,361.031,622,347.156,662,347.156" stroke-width="1.375" stroke="rgb(148, 103, 189)"/><path class="markmap-link" data-depth="3" data-path="1.46.49" d="M582,361.031C622,361.031,622,374.531,662,374.531" stroke-width="1.375" stroke="rgb(140, 86, 75)"/><path class="markmap-link" data-depth="3" data-path="1.46.50" d="M582,361.031C622,361.031,622,401.906,662,401.906" stroke-width="1.375" stroke="rgb(227, 119, 194)"/><path class="markmap-link" data-depth="3" data-path="1.51.52" d="M502,461.844C542,461.844,542,434.281,582,434.281" stroke-width="1.375" stroke="rgb(188, 189, 34)"/><path class="markmap-link" data-depth="3" data-path="1.51.53" d="M502,461.844C542,461.844,542,461.656,582,461.656" stroke-width="1.375" stroke="rgb(23, 190, 207)"/><path class="markmap-link" data-depth="3" data-path="1.51.54" d="M502,461.844C542,461.844,542,489.031,582,489.031" stroke-width="1.375" stroke="rgb(31, 119, 180)"/><path class="markmap-link" data-depth="3" data-path="1.55.56" d="M534,535.281C574,535.281,574,521.406,614,521.406" stroke-width="1.375" stroke="rgb(188, 189, 34)"/><path class="markmap-link" data-depth="3" data-path="1.55.57" d="M534,535.281C574,535.281,574,548.781,614,548.781" stroke-width="1.375" stroke="rgb(255, 127, 14)"/><path class="markmap-link" data-depth="2" data-path="1.2" d="M267,11.75C307,11.75,307,-512.531,347,-512.531" stroke-width="1.75" stroke="rgb(255, 127, 14)"/><path class="markmap-link" data-depth="2" data-path="1.7" d="M267,11.75C307,11.75,307,-411.719,347,-411.719" stroke-width="1.75" stroke="rgb(148, 103, 189)"/><path class="markmap-link" data-depth="2" data-path="1.11" d="M267,11.75C307,11.75,307,-38.609,347,-38.609" stroke-width="1.75" stroke="rgb(227, 119, 194)"/><path class="markmap-link" data-depth="2" data-path="1.46" d="M267,11.75C307,11.75,307,361.031,347,361.031" stroke-width="1.75" stroke="rgb(44, 160, 44)"/><path class="markmap-link" data-depth="2" data-path="1.51" d="M267,11.75C307,11.75,307,461.844,347,461.844" stroke-width="1.75" stroke="rgb(127, 127, 127)"/><path class="markmap-link" data-depth="2" data-path="1.55" d="M267,11.75C307,11.75,307,535.281,347,535.281" stroke-width="1.75" stroke="rgb(127, 127, 127)"/><g class="markmap-highlight"/><g data-depth="3" data-path="1.2.3" class="markmap-node" transform="translate(518, -575.46875)"><line stroke="#9467bd" stroke-width="1.375" x1="-1" x2="487" y1="21.6875" y2="21.6875"/><foreignObject class="markmap-foreign" x="8" y="0" style="opacity: 1;" width="469" height="21"><div xmlns="http://www.w3.org/1999/xhtml"><div xmlns="http://www.w3.org/1999/xhtml">血浆中脂质的总称 -&gt; <strong><mark>TG、磷脂、胆固醇、胆固醇酯、游离脂肪酸</mark></strong>   </div></div></foreignObject></g><g data-depth="3" data-path="1.2.4" class="markmap-node" transform="translate(518, -548.09375)"><line stroke="#ff7f0e" stroke-width="1.375" x1="-1" x2="402" y1="21.6875" y2="21.6875"/><foreignObject class="markmap-foreign" x="8" y="0" style="opacity: 1;" width="384" height="21"><div xmlns="http://www.w3.org/1999/xhtml"><div xmlns="http://www.w3.org/1999/xhtml">来源 -&gt; 外源性(食物) / 内源性(肝/脂肪合成+脂肪动员)   </div></div></foreignObject></g><g data-depth="3" data-path="1.2.5" class="markmap-node" transform="translate(518, -520.71875)"><line stroke="#2ca02c" stroke-width="1.375" x1="-1" x2="308" y1="21.6875" y2="21.6875"/><foreignObject class="markmap-foreign" x="8" y="0" style="opacity: 1;" width="290" height="21"><div xmlns="http://www.w3.org/1999/xhtml"><div xmlns="http://www.w3.org/1999/xhtml">去路 -&gt; 氧化供能/脂肪储存/生物膜/转化   </div></div></foreignObject></g><g data-depth="3" data-path="1.2.6" class="markmap-node" transform="translate(518, -493.34375)"><line stroke="#d62728" stroke-width="1.375" x1="-1" x2="411" y1="21.6875" y2="21.6875"/><foreignObject class="markmap-foreign" x="8" y="0" style="opacity: 1;" width="393" height="21"><div xmlns="http://www.w3.org/1999/xhtml"><div xmlns="http://www.w3.org/1999/xhtml">空腹正常值参考 -&gt; TG 0.11-1.69 / TC 2.59-6.47 mmol/L   </div></div></foreignObject></g><g data-depth="2" data-path="1.2" class="markmap-node" transform="translate(347, -534.40625)"><line stroke="#ff7f0e" stroke-width="1.75" x1="-1" x2="93" y1="21.875" y2="21.875"/><circle stroke-width="1.5" r="6" stroke="#ff7f0e" fill="var(--markmap-circle-open-bg)" cx="91" cy="21.875"/><foreignObject class="markmap-foreign" x="8" y="0" style="opacity: 1;" width="75" height="21"><div xmlns="http://www.w3.org/1999/xhtml"><div xmlns="http://www.w3.org/1999/xhtml"><strong>血脂概念</strong>   </div></div></foreignObject></g><g data-depth="3" data-path="1.7.8" class="markmap-node" transform="translate(566, -460.96875)"><line stroke="#8c564b" stroke-width="1.375" x1="-1" x2="295" y1="21.6875" y2="21.6875"/><foreignObject class="markmap-foreign" x="8" y="0" style="opacity: 1;" width="277" height="21"><div xmlns="http://www.w3.org/1999/xhtml"><div xmlns="http://www.w3.org/1999/xhtml">= 血脂 + <strong>载脂蛋白(apo)</strong> -&gt; 亲水复合体   </div></div></foreignObject></g><g data-depth="3" data-path="1.7.9" class="markmap-node" transform="translate(566, -433.59375)"><line stroke="#e377c2" stroke-width="1.375" x1="-1" x2="231" y1="21.6875" y2="21.6875"/><foreignObject class="markmap-foreign" x="8" y="0" style="opacity: 1;" width="213" height="21"><div xmlns="http://www.w3.org/1999/xhtml"><div xmlns="http://www.w3.org/1999/xhtml">内核 -&gt; 疏水的<strong>TG + 胆固醇酯</strong>   </div></div></foreignObject></g><g data-depth="3" data-path="1.7.10" class="markmap-node" transform="translate(566, -406.21875)"><line stroke="#9467bd" stroke-width="1.375" x1="-1" x2="355" y1="21.6875" y2="21.6875"/><foreignObject class="markmap-foreign" x="8" y="0" style="opacity: 1;" width="337" height="21"><div xmlns="http://www.w3.org/1999/xhtml"><div xmlns="http://www.w3.org/1999/xhtml">外层 -&gt; 两性分子<strong>磷脂 + 游离胆固醇 + 载脂蛋白</strong>   </div></div></foreignObject></g><g data-depth="2" data-path="1.7" class="markmap-node" transform="translate(347, -433.59375)"><line stroke="#9467bd" stroke-width="1.75" x1="-1" x2="141" y1="21.875" y2="21.875"/><circle stroke-width="1.5" r="6" stroke="#9467bd" fill="var(--markmap-circle-open-bg)" cx="139" cy="21.875"/><foreignObject class="markmap-foreign" x="8" y="0" style="opacity: 1;" width="123" height="21"><div xmlns="http://www.w3.org/1999/xhtml"><div xmlns="http://www.w3.org/1999/xhtml"><strong>血浆脂蛋白结构</strong>   </div></div></foreignObject></g><g data-depth="4" data-path="1.11.12.13" class="markmap-node" transform="translate(1033, -455.40625)"><line stroke="#17becf" stroke-width="1.1875" x1="-1" x2="188" y1="21.59375" y2="21.59375"/><foreignObject class="markmap-foreign" x="8" y="0" style="opacity: 1;" width="170" height="21"><div xmlns="http://www.w3.org/1999/xhtml"><div xmlns="http://www.w3.org/1999/xhtml">密度 -&gt; <strong>&lt;0.95</strong>（最低）   </div></div></foreignObject></g><g data-depth="4" data-path="1.11.12.14" class="markmap-node" transform="translate(1033, -428.21875)"><line stroke="#1f77b4" stroke-width="1.1875" x1="-1" x2="215" y1="21.59375" y2="21.59375"/><foreignObject class="markmap-foreign" x="8" y="0" style="opacity: 1;" width="197" height="21"><div xmlns="http://www.w3.org/1999/xhtml"><div xmlns="http://www.w3.org/1999/xhtml">脂类 -&gt; 含<strong>TG最多</strong>(80-95%)   </div></div></foreignObject></g><g data-depth="4" data-path="1.11.12.15" class="markmap-node" transform="translate(1033, -401.03125)"><line stroke="#ff7f0e" stroke-width="1.1875" x1="-1" x2="163" y1="21.59375" y2="21.59375"/><foreignObject class="markmap-foreign" x="8" y="0" style="opacity: 1;" width="145" height="21"><div xmlns="http://www.w3.org/1999/xhtml"><div xmlns="http://www.w3.org/1999/xhtml">蛋白质 -&gt; <strong>最少</strong>(1%)   </div></div></foreignObject></g><g data-depth="4" data-path="1.11.12.16" class="markmap-node" transform="translate(1033, -373.84375)"><line stroke="#2ca02c" stroke-width="1.1875" x1="-1" x2="430" y1="21.59375" y2="21.59375"/><foreignObject class="markmap-foreign" x="8" y="0" style="opacity: 1;" width="412" height="21"><div xmlns="http://www.w3.org/1999/xhtml"><div xmlns="http://www.w3.org/1999/xhtml">载脂蛋白 -&gt; <strong>ApoB48</strong>、AⅠ、AⅡ、AⅣ、CⅠ/CⅡ/CⅢ、E   </div></div></foreignObject></g><g data-depth="4" data-path="1.11.12.17" class="markmap-node" transform="translate(1033, -346.65625)"><line stroke="#d62728" stroke-width="1.1875" x1="-1" x2="210" y1="21.59375" y2="21.59375"/><foreignObject class="markmap-foreign" x="8" y="0" style="opacity: 1;" width="192" height="21"><div xmlns="http://www.w3.org/1999/xhtml"><div xmlns="http://www.w3.org/1999/xhtml">合成部位 -&gt; <strong>小肠粘膜细胞</strong>   </div></div></foreignObject></g><g data-depth="4" data-path="1.11.12.18" class="markmap-node" transform="translate(1033, -319.46875)"><line stroke="#9467bd" stroke-width="1.1875" x1="-1" x2="306" y1="21.59375" y2="21.59375"/><foreignObject class="markmap-foreign" x="8" y="0" style="opacity: 1;" width="288" height="21"><div xmlns="http://www.w3.org/1999/xhtml"><div xmlns="http://www.w3.org/1999/xhtml"><strong>核心功能</strong> -&gt; 转运**<mark>外源性TG和胆固醇</mark>**   </div></div></foreignObject></g><g data-depth="4" data-path="1.11.12.19" class="markmap-node" transform="translate(1033, -292.28125)"><line stroke="#8c564b" stroke-width="1.1875" x1="-1" x2="200" y1="21.59375" y2="21.59375"/><foreignObject class="markmap-foreign" x="8" y="0" style="opacity: 1;" width="182" height="21"><div xmlns="http://www.w3.org/1999/xhtml"><div xmlns="http://www.w3.org/1999/xhtml">电泳位置 -&gt; 原点（CM）   </div></div></foreignObject></g><g data-depth="3" data-path="1.11.12" class="markmap-node" transform="translate(806, -373.84375)"><line stroke="#7f7f7f" stroke-width="1.375" x1="-1" x2="149" y1="21.6875" y2="21.6875"/><circle stroke-width="1.5" r="6" stroke="#7f7f7f" fill="var(--markmap-circle-open-bg)" cx="147" cy="21.6875"/><foreignObject class="markmap-foreign" x="8" y="0" style="opacity: 1;" width="131" height="21"><div xmlns="http://www.w3.org/1999/xhtml"><div xmlns="http://www.w3.org/1999/xhtml"><strong>CM（乳糜微粒）</strong>   </div></div></foreignObject></g><g data-depth="4" data-path="1.11.20.21" class="markmap-node" transform="translate(1096, -260.09375)"><line stroke="#7f7f7f" stroke-width="1.1875" x1="-1" x2="155" y1="21.59375" y2="21.59375"/><foreignObject class="markmap-foreign" x="8" y="0" style="opacity: 1;" width="137" height="21"><div xmlns="http://www.w3.org/1999/xhtml"><div xmlns="http://www.w3.org/1999/xhtml">密度 -&gt; 0.95-1.006   </div></div></foreignObject></g><g data-depth="4" data-path="1.11.20.22" class="markmap-node" transform="translate(1096, -232.90625)"><line stroke="#bcbd22" stroke-width="1.1875" x1="-1" x2="175" y1="21.59375" y2="21.59375"/><foreignObject class="markmap-foreign" x="8" y="0" style="opacity: 1;" width="157" height="21"><div xmlns="http://www.w3.org/1999/xhtml"><div xmlns="http://www.w3.org/1999/xhtml">脂类 -&gt; 含TG 50-70%   </div></div></foreignObject></g><g data-depth="4" data-path="1.11.20.23" class="markmap-node" transform="translate(1096, -205.71875)"><line stroke="#17becf" stroke-width="1.1875" x1="-1" x2="143" y1="21.59375" y2="21.59375"/><foreignObject class="markmap-foreign" x="8" y="0" style="opacity: 1;" width="125" height="21"><div xmlns="http://www.w3.org/1999/xhtml"><div xmlns="http://www.w3.org/1999/xhtml">蛋白质 -&gt; 5-10%   </div></div></foreignObject></g><g data-depth="4" data-path="1.11.20.24" class="markmap-node" transform="translate(1096, -178.53125)"><line stroke="#1f77b4" stroke-width="1.1875" x1="-1" x2="315" y1="21.59375" y2="21.59375"/><foreignObject class="markmap-foreign" x="8" y="0" style="opacity: 1;" width="297" height="21"><div xmlns="http://www.w3.org/1999/xhtml"><div xmlns="http://www.w3.org/1999/xhtml">载脂蛋白 -&gt; <strong>ApoB100</strong>、CⅠ/CⅡ/CⅢ、E   </div></div></foreignObject></g><g data-depth="4" data-path="1.11.20.25" class="markmap-node" transform="translate(1096, -151.34375)"><line stroke="#ff7f0e" stroke-width="1.1875" x1="-1" x2="162" y1="21.59375" y2="21.59375"/><foreignObject class="markmap-foreign" x="8" y="0" style="opacity: 1;" width="144" height="21"><div xmlns="http://www.w3.org/1999/xhtml"><div xmlns="http://www.w3.org/1999/xhtml">合成部位 -&gt; <strong>肝细胞</strong>   </div></div></foreignObject></g><g data-depth="4" data-path="1.11.20.26" class="markmap-node" transform="translate(1096, -124.15625)"><line stroke="#2ca02c" stroke-width="1.1875" x1="-1" x2="306" y1="21.59375" y2="21.59375"/><foreignObject class="markmap-foreign" x="8" y="0" style="opacity: 1;" width="288" height="21"><div xmlns="http://www.w3.org/1999/xhtml"><div xmlns="http://www.w3.org/1999/xhtml"><strong>核心功能</strong> -&gt; 转运**<mark>内源性TG和胆固醇</mark>**   </div></div></foreignObject></g><g data-depth="4" data-path="1.11.20.27" class="markmap-node" transform="translate(1096, -96.96875)"><line stroke="#d62728" stroke-width="1.1875" x1="-1" x2="193" y1="21.59375" y2="21.59375"/><foreignObject class="markmap-foreign" x="8" y="0" style="opacity: 1;" width="175" height="21"><div xmlns="http://www.w3.org/1999/xhtml"><div xmlns="http://www.w3.org/1999/xhtml">电泳位置 -&gt; 前β-脂蛋白   </div></div></foreignObject></g><g data-depth="3" data-path="1.11.20" class="markmap-node" transform="translate(806, -178.53125)"><line stroke="#e377c2" stroke-width="1.375" x1="-1" x2="212" y1="21.6875" y2="21.6875"/><circle stroke-width="1.5" r="6" stroke="#e377c2" fill="var(--markmap-circle-open-bg)" cx="210" cy="21.6875"/><foreignObject class="markmap-foreign" x="8" y="0" style="opacity: 1;" width="194" height="21"><div xmlns="http://www.w3.org/1999/xhtml"><div xmlns="http://www.w3.org/1999/xhtml"><strong>VLDL（极低密度脂蛋白）</strong>   </div></div></foreignObject></g><g data-depth="4" data-path="1.11.28.29" class="markmap-node" transform="translate(1071, -64.78125)"><line stroke="#8c564b" stroke-width="1.1875" x1="-1" x2="163" y1="21.59375" y2="21.59375"/><foreignObject class="markmap-foreign" x="8" y="0" style="opacity: 1;" width="145" height="21"><div xmlns="http://www.w3.org/1999/xhtml"><div xmlns="http://www.w3.org/1999/xhtml">密度 -&gt; 1.006-1.063   </div></div></foreignObject></g><g data-depth="4" data-path="1.11.28.30" class="markmap-node" transform="translate(1071, -37.59375)"><line stroke="#e377c2" stroke-width="1.1875" x1="-1" x2="290" y1="21.59375" y2="21.59375"/><foreignObject class="markmap-foreign" x="8" y="0" style="opacity: 1;" width="272" height="21"><div xmlns="http://www.w3.org/1999/xhtml"><div xmlns="http://www.w3.org/1999/xhtml">脂类 -&gt; 含<strong>胆固醇及其酯最多</strong>(40-50%)   </div></div></foreignObject></g><g data-depth="4" data-path="1.11.28.31" class="markmap-node" transform="translate(1071, -10.40625)"><line stroke="#7f7f7f" stroke-width="1.1875" x1="-1" x2="151" y1="21.59375" y2="21.59375"/><foreignObject class="markmap-foreign" x="8" y="0" style="opacity: 1;" width="133" height="21"><div xmlns="http://www.w3.org/1999/xhtml"><div xmlns="http://www.w3.org/1999/xhtml">蛋白质 -&gt; 20-25%   </div></div></foreignObject></g><g data-depth="4" data-path="1.11.28.32" class="markmap-node" transform="translate(1071, 16.78125)"><line stroke="#bcbd22" stroke-width="1.1875" x1="-1" x2="279" y1="21.59375" y2="21.59375"/><foreignObject class="markmap-foreign" x="8" y="0" style="opacity: 1;" width="261" height="21"><div xmlns="http://www.w3.org/1999/xhtml"><div xmlns="http://www.w3.org/1999/xhtml">载脂蛋白 -&gt; <strong>ApoB100</strong>（几乎唯一）   </div></div></foreignObject></g><g data-depth="4" data-path="1.11.28.33" class="markmap-node" transform="translate(1071, 43.96875)"><line stroke="#17becf" stroke-width="1.1875" x1="-1" x2="294" y1="21.59375" y2="21.59375"/><foreignObject class="markmap-foreign" x="8" y="0" style="opacity: 1;" width="276" height="21"><div xmlns="http://www.w3.org/1999/xhtml"><div xmlns="http://www.w3.org/1999/xhtml">合成部位 -&gt; <strong>血浆</strong>（由VLDL转变而来）   </div></div></foreignObject></g><g data-depth="4" data-path="1.11.28.34" class="markmap-node" transform="translate(1071, 71.15625)"><line stroke="#1f77b4" stroke-width="1.1875" x1="-1" x2="338" y1="21.59375" y2="21.59375"/><foreignObject class="markmap-foreign" x="8" y="0" style="opacity: 1;" width="320" height="21"><div xmlns="http://www.w3.org/1999/xhtml"><div xmlns="http://www.w3.org/1999/xhtml"><strong>核心功能</strong> -&gt; 转运内源性<strong>胆固醇</strong>（<strong><mark>肝→肝外</mark></strong>）   </div></div></foreignObject></g><g data-depth="4" data-path="1.11.28.35" class="markmap-node" transform="translate(1071, 98.34375)"><line stroke="#ff7f0e" stroke-width="1.1875" x1="-1" x2="177" y1="21.59375" y2="21.59375"/><foreignObject class="markmap-foreign" x="8" y="0" style="opacity: 1;" width="159" height="21"><div xmlns="http://www.w3.org/1999/xhtml"><div xmlns="http://www.w3.org/1999/xhtml">电泳位置 -&gt; β-脂蛋白   </div></div></foreignObject></g><g data-depth="4" data-path="1.11.28.36" class="markmap-node" transform="translate(1071, 125.53125)"><line stroke="#2ca02c" stroke-width="1.1875" x1="-1" x2="288" y1="21.59375" y2="21.59375"/><foreignObject class="markmap-foreign" x="8" y="0" style="opacity: 1;" width="270" height="21"><div xmlns="http://www.w3.org/1999/xhtml"><div xmlns="http://www.w3.org/1999/xhtml"><strong>致动脉粥样硬化</strong> -&gt; LDL↑与AS正相关   </div></div></foreignObject></g><g data-depth="3" data-path="1.11.28" class="markmap-node" transform="translate(806, 30.375)"><line stroke="#9467bd" stroke-width="1.375" x1="-1" x2="187" y1="21.6875" y2="21.6875"/><circle stroke-width="1.5" r="6" stroke="#9467bd" fill="var(--markmap-circle-open-bg)" cx="185" cy="21.6875"/><foreignObject class="markmap-foreign" x="8" y="0" style="opacity: 1;" width="169" height="21"><div xmlns="http://www.w3.org/1999/xhtml"><div xmlns="http://www.w3.org/1999/xhtml"><strong>LDL（低密度脂蛋白）</strong>   </div></div></foreignObject></g><g data-depth="4" data-path="1.11.37.38" class="markmap-node" transform="translate(1073, 157.71875)"><line stroke="#9467bd" stroke-width="1.1875" x1="-1" x2="228" y1="21.59375" y2="21.59375"/><foreignObject class="markmap-foreign" x="8" y="0" style="opacity: 1;" width="210" height="21"><div xmlns="http://www.w3.org/1999/xhtml"><div xmlns="http://www.w3.org/1999/xhtml">密度 -&gt; <strong>1.063-1.21</strong>（最高）   </div></div></foreignObject></g><g data-depth="4" data-path="1.11.37.39" class="markmap-node" transform="translate(1073, 184.90625)"><line stroke="#8c564b" stroke-width="1.1875" x1="-1" x2="161" y1="21.59375" y2="21.59375"/><foreignObject class="markmap-foreign" x="8" y="0" style="opacity: 1;" width="143" height="21"><div xmlns="http://www.w3.org/1999/xhtml"><div xmlns="http://www.w3.org/1999/xhtml">脂类 -&gt; 含脂类50%   </div></div></foreignObject></g><g data-depth="4" data-path="1.11.37.40" class="markmap-node" transform="translate(1073, 212.09375)"><line stroke="#e377c2" stroke-width="1.1875" x1="-1" x2="187" y1="21.59375" y2="21.59375"/><foreignObject class="markmap-foreign" x="8" y="0" style="opacity: 1;" width="169" height="21"><div xmlns="http://www.w3.org/1999/xhtml"><div xmlns="http://www.w3.org/1999/xhtml">蛋白质 -&gt; <strong>最多</strong>(约50%)   </div></div></foreignObject></g><g data-depth="4" data-path="1.11.37.41" class="markmap-node" transform="translate(1073, 239.28125)"><line stroke="#7f7f7f" stroke-width="1.1875" x1="-1" x2="216" y1="21.59375" y2="21.59375"/><foreignObject class="markmap-foreign" x="8" y="0" style="opacity: 1;" width="198" height="21"><div xmlns="http://www.w3.org/1999/xhtml"><div xmlns="http://www.w3.org/1999/xhtml">载脂蛋白 -&gt; <strong>Apo AⅠ、AⅡ</strong>   </div></div></foreignObject></g><g data-depth="4" data-path="1.11.37.42" class="markmap-node" transform="translate(1073, 266.46875)"><line stroke="#bcbd22" stroke-width="1.1875" x1="-1" x2="226" y1="21.59375" y2="21.59375"/><foreignObject class="markmap-foreign" x="8" y="0" style="opacity: 1;" width="208" height="21"><div xmlns="http://www.w3.org/1999/xhtml"><div xmlns="http://www.w3.org/1999/xhtml">合成部位 -&gt; <strong>肝、肠、血浆</strong>等   </div></div></foreignObject></g><g data-depth="4" data-path="1.11.37.43" class="markmap-node" transform="translate(1073, 293.65625)"><line stroke="#17becf" stroke-width="1.1875" x1="-1" x2="322" y1="21.59375" y2="21.59375"/><foreignObject class="markmap-foreign" x="8" y="0" style="opacity: 1;" width="304" height="21"><div xmlns="http://www.w3.org/1999/xhtml"><div xmlns="http://www.w3.org/1999/xhtml"><strong>核心功能</strong> -&gt; <strong>逆向转运胆固醇</strong>（<strong><mark>肝外→肝</mark></strong>）   </div></div></foreignObject></g><g data-depth="4" data-path="1.11.37.44" class="markmap-node" transform="translate(1073, 320.84375)"><line stroke="#1f77b4" stroke-width="1.1875" x1="-1" x2="178" y1="21.59375" y2="21.59375"/><foreignObject class="markmap-foreign" x="8" y="0" style="opacity: 1;" width="160" height="21"><div xmlns="http://www.w3.org/1999/xhtml"><div xmlns="http://www.w3.org/1999/xhtml">电泳位置 -&gt; <strong>α-脂蛋白</strong>   </div></div></foreignObject></g><g data-depth="4" data-path="1.11.37.45" class="markmap-node" transform="translate(1073, 348.03125)"><line stroke="#ff7f0e" stroke-width="1.1875" x1="-1" x2="291" y1="21.59375" y2="21.59375"/><foreignObject class="markmap-foreign" x="8" y="0" style="opacity: 1;" width="273" height="21"><div xmlns="http://www.w3.org/1999/xhtml"><div xmlns="http://www.w3.org/1999/xhtml"><strong>抗动脉粥样硬化</strong> -&gt; HDL↑与AS负相关   </div></div></foreignObject></g><g data-depth="3" data-path="1.11.37" class="markmap-node" transform="translate(806, 252.875)"><line stroke="#d62728" stroke-width="1.375" x1="-1" x2="189" y1="21.6875" y2="21.6875"/><circle stroke-width="1.5" r="6" stroke="#d62728" fill="var(--markmap-circle-open-bg)" cx="187" cy="21.6875"/><foreignObject class="markmap-foreign" x="8" y="0" style="opacity: 1;" width="171" height="21"><div xmlns="http://www.w3.org/1999/xhtml"><div xmlns="http://www.w3.org/1999/xhtml"><strong>HDL（高密度脂蛋白）</strong>   </div></div></foreignObject></g><g data-depth="2" data-path="1.11" class="markmap-node" transform="translate(347, -60.484375)"><line stroke="#e377c2" stroke-width="1.75" x1="-1" x2="381" y1="21.875" y2="21.875"/><circle stroke-width="1.5" r="6" stroke="#e377c2" fill="var(--markmap-circle-open-bg)" cx="379" cy="21.875"/><foreignObject class="markmap-foreign" x="8" y="0" style="opacity: 1;" width="363" height="21"><div xmlns="http://www.w3.org/1999/xhtml"><div xmlns="http://www.w3.org/1999/xhtml"><strong>四大脂蛋白分类（超速离心法，按密度从小到大）</strong>   </div></div></foreignObject></g><g data-depth="3" data-path="1.46.47" class="markmap-node" transform="translate(662, 298.09375)"><line stroke="#d62728" stroke-width="1.375" x1="-1" x2="197" y1="21.6875" y2="21.6875"/><foreignObject class="markmap-foreign" x="8" y="0" style="opacity: 1;" width="179" height="21"><div xmlns="http://www.w3.org/1999/xhtml"><div xmlns="http://www.w3.org/1999/xhtml"><strong>CM</strong> -&gt; <strong>"外"</strong> -&gt; 外源性TG   </div></div></foreignObject></g><g data-depth="3" data-path="1.46.48" class="markmap-node" transform="translate(662, 325.46875)"><line stroke="#9467bd" stroke-width="1.375" x1="-1" x2="212" y1="21.6875" y2="21.6875"/><foreignObject class="markmap-foreign" x="8" y="0" style="opacity: 1;" width="194" height="21"><div xmlns="http://www.w3.org/1999/xhtml"><div xmlns="http://www.w3.org/1999/xhtml"><strong>VLDL</strong> -&gt; <strong>"内"</strong> -&gt; 内源性TG   </div></div></foreignObject></g><g data-depth="3" data-path="1.46.49" class="markmap-node" transform="translate(662, 352.84375)"><line stroke="#8c564b" stroke-width="1.375" x1="-1" x2="279" y1="21.6875" y2="21.6875"/><foreignObject class="markmap-foreign" x="8" y="0" style="opacity: 1;" width="261" height="21"><div xmlns="http://www.w3.org/1999/xhtml"><div xmlns="http://www.w3.org/1999/xhtml"><strong>LDL</strong> -&gt; <strong>"胆到外"</strong> -&gt; 胆固醇肝→肝外   </div></div></foreignObject></g><g data-depth="3" data-path="1.46.50" class="markmap-node" transform="translate(662, 380.21875)"><line stroke="#e377c2" stroke-width="1.375" x1="-1" x2="378" y1="21.6875" y2="21.6875"/><foreignObject class="markmap-foreign" x="8" y="0" style="opacity: 1;" width="360" height="21"><div xmlns="http://www.w3.org/1999/xhtml"><div xmlns="http://www.w3.org/1999/xhtml"><strong>HDL</strong> -&gt; <strong>"胆回肝"</strong> -&gt; 胆固醇肝外→肝（逆向转运）   </div></div></foreignObject></g><g data-depth="2" data-path="1.46" class="markmap-node" transform="translate(347, 339.15625)"><line stroke="#2ca02c" stroke-width="1.75" x1="-1" x2="237" y1="21.875" y2="21.875"/><circle stroke-width="1.5" r="6" stroke="#2ca02c" fill="var(--markmap-circle-open-bg)" cx="235" cy="21.875"/><foreignObject class="markmap-foreign" x="8" y="0" style="opacity: 1;" width="219" height="21"><div xmlns="http://www.w3.org/1999/xhtml"><div xmlns="http://www.w3.org/1999/xhtml"><strong>四大脂蛋白功能口诀（必背）</strong>   </div></div></foreignObject></g><g data-depth="3" data-path="1.51.52" class="markmap-node" transform="translate(582, 412.59375)"><line stroke="#bcbd22" stroke-width="1.375" x1="-1" x2="485" y1="21.6875" y2="21.6875"/><foreignObject class="markmap-foreign" x="8" y="0" style="opacity: 1;" width="467" height="21"><div xmlns="http://www.w3.org/1999/xhtml"><div xmlns="http://www.w3.org/1999/xhtml"><strong>LPL（脂蛋白脂肪酶）</strong> -&gt; 水解CM/VLDL中TG -&gt; 激活剂：<mark><strong>apo CⅡ</strong></mark>   </div></div></foreignObject></g><g data-depth="3" data-path="1.51.53" class="markmap-node" transform="translate(582, 439.96875)"><line stroke="#17becf" stroke-width="1.375" x1="-1" x2="463" y1="21.6875" y2="21.6875"/><foreignObject class="markmap-foreign" x="8" y="0" style="opacity: 1;" width="445" height="21"><div xmlns="http://www.w3.org/1999/xhtml"><div xmlns="http://www.w3.org/1999/xhtml"><strong>HL（肝脂肪酶）</strong> -&gt; 水解脂蛋白中TG/磷脂 -&gt; 激活剂：apo AⅡ   </div></div></foreignObject></g><g data-depth="3" data-path="1.51.54" class="markmap-node" transform="translate(582, 467.34375)"><line stroke="#1f77b4" stroke-width="1.375" x1="-1" x2="594" y1="21.6875" y2="21.6875"/><foreignObject class="markmap-foreign" x="8" y="0" style="opacity: 1;" width="576" height="21"><div xmlns="http://www.w3.org/1999/xhtml"><div xmlns="http://www.w3.org/1999/xhtml"><strong>LCAT（卵磷脂胆固醇酯酰转移酶）</strong> -&gt; 催化胆固醇酯化(血浆) -&gt; 激活剂：<mark><strong>apo AⅠ</strong></mark>   </div></div></foreignObject></g><g data-depth="2" data-path="1.51" class="markmap-node" transform="translate(347, 439.96875)"><line stroke="#7f7f7f" stroke-width="1.75" x1="-1" x2="157" y1="21.875" y2="21.875"/><circle stroke-width="1.5" r="6" stroke="#7f7f7f" fill="var(--markmap-circle-open-bg)" cx="155" cy="21.875"/><foreignObject class="markmap-foreign" x="8" y="0" style="opacity: 1;" width="139" height="21"><div xmlns="http://www.w3.org/1999/xhtml"><div xmlns="http://www.w3.org/1999/xhtml"><strong>脂蛋白代谢关键酶</strong>   </div></div></foreignObject></g><g data-depth="3" data-path="1.55.56" class="markmap-node" transform="translate(614, 499.71875)"><line stroke="#bcbd22" stroke-width="1.375" x1="-1" x2="666" y1="21.6875" y2="21.6875"/><foreignObject class="markmap-foreign" x="8" y="0" style="opacity: 1;" width="648" height="21"><div xmlns="http://www.w3.org/1999/xhtml"><div xmlns="http://www.w3.org/1999/xhtml"><strong>LDL + VLDL</strong> -&gt; <strong>致AS</strong> -&gt; LDL↑与AS正相关 -&gt; ox-LDL被巨噬细胞清道夫受体吞噬 -&gt; <mark><strong>泡沫细胞</strong></mark>   </div></div></foreignObject></g><g data-depth="3" data-path="1.55.57" class="markmap-node" transform="translate(614, 527.09375)"><line stroke="#ff7f0e" stroke-width="1.375" x1="-1" x2="466" y1="21.6875" y2="21.6875"/><foreignObject class="markmap-foreign" x="8" y="0" style="opacity: 1;" width="448" height="21"><div xmlns="http://www.w3.org/1999/xhtml"><div xmlns="http://www.w3.org/1999/xhtml"><strong>HDL</strong> -&gt; <strong>抗AS</strong> -&gt; HDL↑与AS负相关 -&gt; 逆向转运胆固醇到肝代谢   </div></div></foreignObject></g><g data-depth="2" data-path="1.55" class="markmap-node" transform="translate(347, 513.40625)"><line stroke="#7f7f7f" stroke-width="1.75" x1="-1" x2="189" y1="21.875" y2="21.875"/><circle stroke-width="1.5" r="6" stroke="#7f7f7f" fill="var(--markmap-circle-open-bg)" cx="187" cy="21.875"/><foreignObject class="markmap-foreign" x="8" y="0" style="opacity: 1;" width="171" height="21"><div xmlns="http://www.w3.org/1999/xhtml"><div xmlns="http://www.w3.org/1999/xhtml"><strong>动脉粥样硬化(AS)关系</strong>   </div></div></foreignObject></g><g data-depth="1" data-path="1" class="markmap-node" transform="translate(0, -10.5)"><line stroke="#1f77b4" stroke-width="2.5" x1="-1" x2="269" y1="22.25" y2="22.25"/><circle stroke-width="1.5" r="6" stroke="#1f77b4" fill="var(--markmap-circle-open-bg)" cx="267" cy="22.25"/><foreignObject class="markmap-foreign" x="8" y="0" style="opacity: 1;" width="251" height="21"><div xmlns="http://www.w3.org/1999/xhtml"><div xmlns="http://www.w3.org/1999/xhtml">血脂与四大血浆脂蛋白（极高频）   </div></div></foreignObject></g></g></svg>