<svg xmlns="http://www.w3.org/2000/svg" class="w-full h-full leading-none markmap mm-dn9wym-1" style=""><style>.markmap{--markmap-max-width: 9999px;--markmap-a-color: #0097e6;--markmap-a-hover-color: #00a8ff;--markmap-code-bg: #f0f0f0;--markmap-code-color: #555;--markmap-highlight-bg: #ffeaa7;--markmap-table-border: 1px solid currentColor;--markmap-font: 300 16px/20px sans-serif;--markmap-circle-open-bg: #fff;--markmap-text-color: #333;--markmap-highlight-node-bg: #ff02;font:var(--markmap-font);color:var(--markmap-text-color)}.markmap-link{fill:none}.markmap-node&gt;circle{cursor:pointer}.markmap-foreign{display:inline-block}.markmap-foreign p{margin:0}.markmap-foreign a{color:var(--markmap-a-color)}.markmap-foreign a:hover{color:var(--markmap-a-hover-color)}.markmap-foreign code{padding:.25em;font-size:calc(1em - 2px);color:var(--markmap-code-color);background-color:var(--markmap-code-bg);border-radius:2px}.markmap-foreign pre{margin:0}.markmap-foreign pre&gt;code{display:block}.markmap-foreign del{text-decoration:line-through}.markmap-foreign em{font-style:italic}.markmap-foreign strong{font-weight:700}.markmap-foreign mark{background:var(--markmap-highlight-bg)}.markmap-foreign table,.markmap-foreign th,.markmap-foreign td{border-collapse:collapse;border:var(--markmap-table-border)}.markmap-foreign img{display:inline-block}.markmap-foreign svg{fill:currentColor}.markmap-foreign&gt;div{width:var(--markmap-max-width);text-align:left}.markmap-foreign&gt;div&gt;div{display:inline-block}.markmap-highlight rect{fill:var(--markmap-highlight-node-bg)}.markmap-dark .markmap{--markmap-code-bg: #1a1b26;--markmap-code-color: #ddd;--markmap-circle-open-bg: #444;--markmap-text-color: #eee}</style><g transform="translate(57.5108580321031,336.5256770684845) scale(0.49324009666248636)"><path class="markmap-link" data-depth="4" data-path="1.2.4.5" d="M686,-434.594C726,-434.594,726,-475.469,766,-475.469" stroke-width="1.1875" stroke="rgb(127, 127, 127)"/><path class="markmap-link" data-depth="4" data-path="1.2.4.6" d="M686,-434.594C726,-434.594,726,-448.281,766,-448.281" stroke-width="1.1875" stroke="rgb(188, 189, 34)"/><path class="markmap-link" data-depth="4" data-path="1.2.4.7" d="M686,-434.594C726,-434.594,726,-421.094,766,-421.094" stroke-width="1.1875" stroke="rgb(23, 190, 207)"/><path class="markmap-link" data-depth="4" data-path="1.2.4.8" d="M686,-434.594C726,-434.594,726,-393.906,766,-393.906" stroke-width="1.1875" stroke="rgb(31, 119, 180)"/><path class="markmap-link" data-depth="3" data-path="1.2.3" d="M515,-420.812C555,-420.812,555,-507.75,595,-507.75" stroke-width="1.375" stroke="rgb(148, 103, 189)"/><path class="markmap-link" data-depth="3" data-path="1.2.4" d="M515,-420.812C555,-420.812,555,-434.594,595,-434.594" stroke-width="1.375" stroke="rgb(227, 119, 194)"/><path class="markmap-link" data-depth="3" data-path="1.2.9" d="M515,-420.812C555,-420.812,555,-361.625,595,-361.625" stroke-width="1.375" stroke="rgb(255, 127, 14)"/><path class="markmap-link" data-depth="3" data-path="1.2.10" d="M515,-420.812C555,-420.812,555,-334.25,595,-334.25" stroke-width="1.375" stroke="rgb(255, 127, 14)"/><path class="markmap-link" data-depth="4" data-path="1.11.12.13" d="M628,-261.094C668,-261.094,668,-301.969,708,-301.969" stroke-width="1.1875" stroke="rgb(255, 127, 14)"/><path class="markmap-link" data-depth="4" data-path="1.11.12.14" d="M628,-261.094C668,-261.094,668,-274.781,708,-274.781" stroke-width="1.1875" stroke="rgb(44, 160, 44)"/><path class="markmap-link" data-depth="4" data-path="1.11.12.15" d="M628,-261.094C668,-261.094,668,-247.594,708,-247.594" stroke-width="1.1875" stroke="rgb(214, 39, 40)"/><path class="markmap-link" data-depth="4" data-path="1.11.12.16" d="M628,-261.094C668,-261.094,668,-220.406,708,-220.406" stroke-width="1.1875" stroke="rgb(148, 103, 189)"/><path class="markmap-link" data-depth="3" data-path="1.11.12" d="M457,-183.359C497,-183.359,497,-261.094,537,-261.094" stroke-width="1.375" stroke="rgb(31, 119, 180)"/><path class="markmap-link" data-depth="3" data-path="1.11.17" d="M457,-183.359C497,-183.359,497,-188.125,537,-188.125" stroke-width="1.375" stroke="rgb(140, 86, 75)"/><path class="markmap-link" data-depth="3" data-path="1.11.18" d="M457,-183.359C497,-183.359,497,-160.75,537,-160.75" stroke-width="1.375" stroke="rgb(227, 119, 194)"/><path class="markmap-link" data-depth="3" data-path="1.11.19" d="M457,-183.359C497,-183.359,497,-133.375,537,-133.375" stroke-width="1.375" stroke="rgb(127, 127, 127)"/><path class="markmap-link" data-depth="3" data-path="1.11.20" d="M457,-183.359C497,-183.359,497,-106,537,-106" stroke-width="1.375" stroke="rgb(188, 189, 34)"/><path class="markmap-link" data-depth="4" data-path="1.21.23.24" d="M855,-0.469C895,-0.469,895,-41.344,935,-41.344" stroke-width="1.1875" stroke="rgb(44, 160, 44)"/><path class="markmap-link" data-depth="4" data-path="1.21.23.25" d="M855,-0.469C895,-0.469,895,-14.156,935,-14.156" stroke-width="1.1875" stroke="rgb(214, 39, 40)"/><path class="markmap-link" data-depth="4" data-path="1.21.23.26" d="M855,-0.469C895,-0.469,895,13.031,935,13.031" stroke-width="1.1875" stroke="rgb(148, 103, 189)"/><path class="markmap-link" data-depth="4" data-path="1.21.23.27" d="M855,-0.469C895,-0.469,895,40.219,935,40.219" stroke-width="1.1875" stroke="rgb(140, 86, 75)"/><path class="markmap-link" data-depth="4" data-path="1.21.28.29" d="M854,99.688C894,99.688,894,72.406,934,72.406" stroke-width="1.1875" stroke="rgb(127, 127, 127)"/><path class="markmap-link" data-depth="4" data-path="1.21.28.30" d="M854,99.688C894,99.688,894,99.594,934,99.594" stroke-width="1.1875" stroke="rgb(188, 189, 34)"/><path class="markmap-link" data-depth="4" data-path="1.21.28.31" d="M854,99.688C894,99.688,894,126.781,934,126.781" stroke-width="1.1875" stroke="rgb(23, 190, 207)"/><path class="markmap-link" data-depth="4" data-path="1.21.32.33" d="M839,172.656C879,172.656,879,158.969,919,158.969" stroke-width="1.1875" stroke="rgb(255, 127, 14)"/><path class="markmap-link" data-depth="4" data-path="1.21.32.34" d="M839,172.656C879,172.656,879,186.156,919,186.156" stroke-width="1.1875" stroke="rgb(44, 160, 44)"/><path class="markmap-link" data-depth="3" data-path="1.21.22" d="M611,72.594C651,72.594,651,-73.625,691,-73.625" stroke-width="1.375" stroke="rgb(31, 119, 180)"/><path class="markmap-link" data-depth="3" data-path="1.21.23" d="M611,72.594C651,72.594,651,-0.469,691,-0.469" stroke-width="1.375" stroke="rgb(255, 127, 14)"/><path class="markmap-link" data-depth="3" data-path="1.21.28" d="M611,72.594C651,72.594,651,99.688,691,99.688" stroke-width="1.375" stroke="rgb(227, 119, 194)"/><path class="markmap-link" data-depth="3" data-path="1.21.32" d="M611,72.594C651,72.594,651,172.656,691,172.656" stroke-width="1.375" stroke="rgb(31, 119, 180)"/><path class="markmap-link" data-depth="3" data-path="1.21.35" d="M611,72.594C651,72.594,651,218.438,691,218.438" stroke-width="1.375" stroke="rgb(214, 39, 40)"/><path class="markmap-link" data-depth="4" data-path="1.36.38.39" d="M750,296.781C790,296.781,790,283.094,830,283.094" stroke-width="1.1875" stroke="rgb(127, 127, 127)"/><path class="markmap-link" data-depth="4" data-path="1.36.38.40" d="M750,296.781C790,296.781,790,310.281,830,310.281" stroke-width="1.1875" stroke="rgb(188, 189, 34)"/><path class="markmap-link" data-depth="3" data-path="1.36.37" d="M579,310.563C619,310.563,619,250.813,659,250.813" stroke-width="1.375" stroke="rgb(140, 86, 75)"/><path class="markmap-link" data-depth="3" data-path="1.36.38" d="M579,310.563C619,310.563,619,296.781,659,296.781" stroke-width="1.375" stroke="rgb(227, 119, 194)"/><path class="markmap-link" data-depth="3" data-path="1.36.41" d="M579,310.563C619,310.563,619,342.563,659,342.563" stroke-width="1.375" stroke="rgb(23, 190, 207)"/><path class="markmap-link" data-depth="3" data-path="1.36.42" d="M579,310.563C619,310.563,619,369.938,659,369.938" stroke-width="1.375" stroke="rgb(31, 119, 180)"/><path class="markmap-link" data-depth="3" data-path="1.43.44" d="M527,443.563C567,443.563,567,402.313,607,402.313" stroke-width="1.375" stroke="rgb(44, 160, 44)"/><path class="markmap-link" data-depth="3" data-path="1.43.45" d="M527,443.563C567,443.563,567,429.688,607,429.688" stroke-width="1.375" stroke="rgb(214, 39, 40)"/><path class="markmap-link" data-depth="3" data-path="1.43.46" d="M527,443.563C567,443.563,567,457.063,607,457.063" stroke-width="1.375" stroke="rgb(148, 103, 189)"/><path class="markmap-link" data-depth="3" data-path="1.43.47" d="M527,443.563C567,443.563,567,484.438,607,484.438" stroke-width="1.375" stroke="rgb(140, 86, 75)"/><path class="markmap-link" data-depth="2" data-path="1.2" d="M264,11.75C304,11.75,304,-420.812,344,-420.812" stroke-width="1.75" stroke="rgb(255, 127, 14)"/><path class="markmap-link" data-depth="2" data-path="1.11" d="M264,11.75C304,11.75,304,-183.359,344,-183.359" stroke-width="1.75" stroke="rgb(23, 190, 207)"/><path class="markmap-link" data-depth="2" data-path="1.21" d="M264,11.75C304,11.75,304,72.594,344,72.594" stroke-width="1.75" stroke="rgb(23, 190, 207)"/><path class="markmap-link" data-depth="2" data-path="1.36" d="M264,11.75C304,11.75,304,310.563,344,310.563" stroke-width="1.75" stroke="rgb(148, 103, 189)"/><path class="markmap-link" data-depth="2" data-path="1.43" d="M264,11.75C304,11.75,304,443.563,344,443.563" stroke-width="1.75" stroke="rgb(255, 127, 14)"/><g class="markmap-highlight"/><g data-depth="3" data-path="1.2.3" class="markmap-node" transform="translate(595, -529.4375)"><line stroke="#9467bd" stroke-width="1.375" x1="-1" x2="210" y1="21.6875" y2="21.6875"/><foreignObject class="markmap-foreign" x="8" y="0" style="opacity: 1;" width="192" height="21"><div xmlns="http://www.w3.org/1999/xhtml"><div xmlns="http://www.w3.org/1999/xhtml"><strong>分解部位</strong> -&gt; <strong><mark>肝、肾、小肠</mark></strong>   </div></div></foreignObject></g><g data-depth="4" data-path="1.2.4.5" class="markmap-node" transform="translate(766, -497.0625)"><line stroke="#7f7f7f" stroke-width="1.1875" x1="-1" x2="315" y1="21.59375" y2="21.59375"/><foreignObject class="markmap-foreign" x="8" y="0" style="opacity: 1;" width="297" height="21"><div xmlns="http://www.w3.org/1999/xhtml"><div xmlns="http://www.w3.org/1999/xhtml">AMP -&gt; 腺苷 -&gt; 次黄嘌呤核苷 -&gt; <strong><mark>次黄嘌呤</mark></strong>   </div></div></foreignObject></g><g data-depth="4" data-path="1.2.4.6" class="markmap-node" transform="translate(766, -469.875)"><line stroke="#bcbd22" stroke-width="1.1875" x1="-1" x2="253" y1="21.59375" y2="21.59375"/><foreignObject class="markmap-foreign" x="8" y="0" style="opacity: 1;" width="235" height="21"><div xmlns="http://www.w3.org/1999/xhtml"><div xmlns="http://www.w3.org/1999/xhtml">GMP -&gt; 鸟苷 -&gt; <strong><mark>鸟嘌呤</mark></strong> -&gt; <strong><mark>黄嘌呤</mark></strong>   </div></div></foreignObject></g><g data-depth="4" data-path="1.2.4.7" class="markmap-node" transform="translate(766, -442.6875)"><line stroke="#17becf" stroke-width="1.1875" x1="-1" x2="282" y1="21.59375" y2="21.59375"/><foreignObject class="markmap-foreign" x="8" y="0" style="opacity: 1;" width="264" height="21"><div xmlns="http://www.w3.org/1999/xhtml"><div xmlns="http://www.w3.org/1999/xhtml">次黄嘌呤 -&gt;(<mark><strong>黄嘌呤氧化酶</strong></mark>)-&gt; <strong><mark>黄嘌呤</mark></strong>   </div></div></foreignObject></g><g data-depth="4" data-path="1.2.4.8" class="markmap-node" transform="translate(766, -415.5)"><line stroke="#1f77b4" stroke-width="1.1875" x1="-1" x2="250" y1="21.59375" y2="21.59375"/><foreignObject class="markmap-foreign" x="8" y="0" style="opacity: 1;" width="232" height="21"><div xmlns="http://www.w3.org/1999/xhtml"><div xmlns="http://www.w3.org/1999/xhtml">黄嘌呤 -&gt;(<mark><strong>黄嘌呤氧化酶</strong></mark>)-&gt; <strong><mark>尿酸</mark></strong>   </div></div></foreignObject></g><g data-depth="3" data-path="1.2.4" class="markmap-node" transform="translate(595, -456.28125)"><line stroke="#e377c2" stroke-width="1.375" x1="-1" x2="93" y1="21.6875" y2="21.6875"/><circle stroke-width="1.5" r="6" stroke="#e377c2" fill="var(--markmap-circle-open-bg)" cx="91" cy="21.6875"/><foreignObject class="markmap-foreign" x="8" y="0" style="opacity: 1;" width="75" height="21"><div xmlns="http://www.w3.org/1999/xhtml"><div xmlns="http://www.w3.org/1999/xhtml"><strong>代谢路径</strong>   </div></div></foreignObject></g><g data-depth="3" data-path="1.2.9" class="markmap-node" transform="translate(595, -383.3125)"><line stroke="#ff7f0e" stroke-width="1.375" x1="-1" x2="322" y1="21.6875" y2="21.6875"/><foreignObject class="markmap-foreign" x="8" y="0" style="opacity: 1;" width="304" height="21"><div xmlns="http://www.w3.org/1999/xhtml"><div xmlns="http://www.w3.org/1999/xhtml"><strong>关键酶</strong> -&gt; <strong><mark>黄嘌呤氧化酶</mark></strong>（催化最后两步）   </div></div></foreignObject></g><g data-depth="3" data-path="1.2.10" class="markmap-node" transform="translate(595, -355.9375)"><line stroke="#ff7f0e" stroke-width="1.375" x1="-1" x2="402" y1="21.6875" y2="21.6875"/><foreignObject class="markmap-foreign" x="8" y="0" style="opacity: 1;" width="384" height="21"><div xmlns="http://www.w3.org/1999/xhtml"><div xmlns="http://www.w3.org/1999/xhtml"><strong>终产物</strong> -&gt; <strong><mark>尿酸</mark></strong>（水溶性差！嘌呤代谢的特征终产物）   </div></div></foreignObject></g><g data-depth="2" data-path="1.2" class="markmap-node" transform="translate(344, -442.6875)"><line stroke="#ff7f0e" stroke-width="1.75" x1="-1" x2="173" y1="21.875" y2="21.875"/><circle stroke-width="1.5" r="6" stroke="#ff7f0e" fill="var(--markmap-circle-open-bg)" cx="171" cy="21.875"/><foreignObject class="markmap-foreign" x="8" y="0" style="opacity: 1;" width="155" height="21"><div xmlns="http://www.w3.org/1999/xhtml"><div xmlns="http://www.w3.org/1999/xhtml"><strong>嘌呤核苷酸分解代谢</strong>   </div></div></foreignObject></g><g data-depth="4" data-path="1.11.12.13" class="markmap-node" transform="translate(708, -323.5625)"><line stroke="#ff7f0e" stroke-width="1.1875" x1="-1" x2="234" y1="21.59375" y2="21.59375"/><foreignObject class="markmap-foreign" x="8" y="0" style="opacity: 1;" width="216" height="21"><div xmlns="http://www.w3.org/1999/xhtml"><div xmlns="http://www.w3.org/1999/xhtml">嘌呤代谢紊乱 / 尿酸排泄减少   </div></div></foreignObject></g><g data-depth="4" data-path="1.11.12.14" class="markmap-node" transform="translate(708, -296.375)"><line stroke="#2ca02c" stroke-width="1.1875" x1="-1" x2="289" y1="21.59375" y2="21.59375"/><foreignObject class="markmap-foreign" x="8" y="0" style="opacity: 1;" width="271" height="21"><div xmlns="http://www.w3.org/1999/xhtml"><div xmlns="http://www.w3.org/1999/xhtml">血清尿酸 &gt; 参考值上限 -&gt; <strong><mark>高尿酸血症</mark></strong>   </div></div></foreignObject></g><g data-depth="4" data-path="1.11.12.15" class="markmap-node" transform="translate(708, -269.1875)"><line stroke="#d62728" stroke-width="1.1875" x1="-1" x2="356" y1="21.59375" y2="21.59375"/><foreignObject class="markmap-foreign" x="8" y="0" style="opacity: 1;" width="338" height="21"><div xmlns="http://www.w3.org/1999/xhtml"><div xmlns="http://www.w3.org/1999/xhtml">尿酸/尿酸盐浓度过饱和 -&gt; **<mark>尿酸盐结晶</mark>**析出   </div></div></foreignObject></g><g data-depth="4" data-path="1.11.12.16" class="markmap-node" transform="translate(708, -242)"><line stroke="#9467bd" stroke-width="1.1875" x1="-1" x2="402" y1="21.59375" y2="21.59375"/><foreignObject class="markmap-foreign" x="8" y="0" style="opacity: 1;" width="384" height="21"><div xmlns="http://www.w3.org/1999/xhtml"><div xmlns="http://www.w3.org/1999/xhtml">结晶沉积在<strong>关节、肾、皮下</strong> -&gt; <strong>急慢性炎症 + 组织损伤</strong>   </div></div></foreignObject></g><g data-depth="3" data-path="1.11.12" class="markmap-node" transform="translate(537, -282.78125)"><line stroke="#1f77b4" stroke-width="1.375" x1="-1" x2="93" y1="21.6875" y2="21.6875"/><circle stroke-width="1.5" r="6" stroke="#1f77b4" fill="var(--markmap-circle-open-bg)" cx="91" cy="21.6875"/><foreignObject class="markmap-foreign" x="8" y="0" style="opacity: 1;" width="75" height="21"><div xmlns="http://www.w3.org/1999/xhtml"><div xmlns="http://www.w3.org/1999/xhtml"><strong>发病机制</strong>   </div></div></foreignObject></g><g data-depth="3" data-path="1.11.17" class="markmap-node" transform="translate(537, -209.8125)"><line stroke="#8c564b" stroke-width="1.375" x1="-1" x2="441" y1="21.6875" y2="21.6875"/><foreignObject class="markmap-foreign" x="8" y="0" style="opacity: 1;" width="423" height="21"><div xmlns="http://www.w3.org/1999/xhtml"><div xmlns="http://www.w3.org/1999/xhtml"><strong>诱因</strong> -&gt; <strong><mark>大量进食肉类/海鲜</mark></strong>（高嘌呤食物）-&gt; 尿酸生成↑↑   </div></div></foreignObject></g><g data-depth="3" data-path="1.11.18" class="markmap-node" transform="translate(537, -182.4375)"><line stroke="#e377c2" stroke-width="1.375" x1="-1" x2="338" y1="21.6875" y2="21.6875"/><foreignObject class="markmap-foreign" x="8" y="0" style="opacity: 1;" width="320" height="21"><div xmlns="http://www.w3.org/1999/xhtml"><div xmlns="http://www.w3.org/1999/xhtml"><strong>典型表现</strong> -&gt; <strong><mark>足痛风</mark></strong>（大拇趾关节红肿剧痛）   </div></div></foreignObject></g><g data-depth="3" data-path="1.11.19" class="markmap-node" transform="translate(537, -155.0625)"><line stroke="#7f7f7f" stroke-width="1.375" x1="-1" x2="412" y1="21.6875" y2="21.6875"/><foreignObject class="markmap-foreign" x="8" y="0" style="opacity: 1;" width="394" height="21"><div xmlns="http://www.w3.org/1999/xhtml"><div xmlns="http://www.w3.org/1999/xhtml"><strong>诊断指标</strong> -&gt; 血清<strong>尿酸</strong>水平 &gt; 0.36 mmol/L（参考上限）   </div></div></foreignObject></g><g data-depth="3" data-path="1.11.20" class="markmap-node" transform="translate(537, -127.6875)"><line stroke="#bcbd22" stroke-width="1.375" x1="-1" x2="210" y1="21.6875" y2="21.6875"/><foreignObject class="markmap-foreign" x="8" y="0" style="opacity: 1;" width="192" height="21"><div xmlns="http://www.w3.org/1999/xhtml"><div xmlns="http://www.w3.org/1999/xhtml"><strong>高尿酸血症</strong> -&gt; 痛风的前期   </div></div></foreignObject></g><g data-depth="2" data-path="1.11" class="markmap-node" transform="translate(344, -205.234375)"><line stroke="#17becf" stroke-width="1.75" x1="-1" x2="115" y1="21.875" y2="21.875"/><circle stroke-width="1.5" r="6" stroke="#17becf" fill="var(--markmap-circle-open-bg)" cx="113" cy="21.875"/><foreignObject class="markmap-foreign" x="8" y="0" style="opacity: 1;" width="97" height="21"><div xmlns="http://www.w3.org/1999/xhtml"><div xmlns="http://www.w3.org/1999/xhtml"><strong>痛风 (Gout)</strong>   </div></div></foreignObject></g><g data-depth="3" data-path="1.21.22" class="markmap-node" transform="translate(691, -95.3125)"><line stroke="#1f77b4" stroke-width="1.375" x1="-1" x2="249" y1="21.6875" y2="21.6875"/><foreignObject class="markmap-foreign" x="8" y="0" style="opacity: 1;" width="231" height="21"><div xmlns="http://www.w3.org/1999/xhtml"><div xmlns="http://www.w3.org/1999/xhtml"><strong>药物</strong> -&gt; <strong><mark>别嘌呤醇 (Allopurinol)</mark></strong>   </div></div></foreignObject></g><g data-depth="4" data-path="1.21.23.24" class="markmap-node" transform="translate(935, -62.9375)"><line stroke="#2ca02c" stroke-width="1.1875" x1="-1" x2="249" y1="21.59375" y2="21.59375"/><foreignObject class="markmap-foreign" x="8" y="0" style="opacity: 1;" width="231" height="21"><div xmlns="http://www.w3.org/1999/xhtml"><div xmlns="http://www.w3.org/1999/xhtml">别嘌呤醇结构类似**<mark>次黄嘌呤</mark>**   </div></div></foreignObject></g><g data-depth="4" data-path="1.21.23.25" class="markmap-node" transform="translate(935, -35.75)"><line stroke="#d62728" stroke-width="1.1875" x1="-1" x2="250" y1="21.59375" y2="21.59375"/><foreignObject class="markmap-foreign" x="8" y="0" style="opacity: 1;" width="232" height="21"><div xmlns="http://www.w3.org/1999/xhtml"><div xmlns="http://www.w3.org/1999/xhtml">-&gt; 竞争性抑制**<mark>黄嘌呤氧化酶</mark>**   </div></div></foreignObject></g><g data-depth="4" data-path="1.21.23.26" class="markmap-node" transform="translate(935, -8.5625)"><line stroke="#9467bd" stroke-width="1.1875" x1="-1" x2="337" y1="21.59375" y2="21.59375"/><foreignObject class="markmap-foreign" x="8" y="0" style="opacity: 1;" width="319" height="21"><div xmlns="http://www.w3.org/1999/xhtml"><div xmlns="http://www.w3.org/1999/xhtml">-&gt; 次黄嘌呤 → 黄嘌呤 <strong>↓</strong> / 黄嘌呤 → 尿酸 <strong>↓</strong>   </div></div></foreignObject></g><g data-depth="4" data-path="1.21.23.27" class="markmap-node" transform="translate(935, 18.625)"><line stroke="#8c564b" stroke-width="1.1875" x1="-1" x2="142" y1="21.59375" y2="21.59375"/><foreignObject class="markmap-foreign" x="8" y="0" style="opacity: 1;" width="124" height="21"><div xmlns="http://www.w3.org/1999/xhtml"><div xmlns="http://www.w3.org/1999/xhtml">-&gt; <strong>减少尿酸生成</strong>   </div></div></foreignObject></g><g data-depth="3" data-path="1.21.23" class="markmap-node" transform="translate(691, -22.15625)"><line stroke="#ff7f0e" stroke-width="1.375" x1="-1" x2="166" y1="21.6875" y2="21.6875"/><circle stroke-width="1.5" r="6" stroke="#ff7f0e" fill="var(--markmap-circle-open-bg)" cx="164" cy="21.6875"/><foreignObject class="markmap-foreign" x="8" y="0" style="opacity: 1;" width="148" height="21"><div xmlns="http://www.w3.org/1999/xhtml"><div xmlns="http://www.w3.org/1999/xhtml"><strong>机制1：竞争性抑制</strong>   </div></div></foreignObject></g><g data-depth="4" data-path="1.21.28.29" class="markmap-node" transform="translate(934, 50.8125)"><line stroke="#7f7f7f" stroke-width="1.1875" x1="-1" x2="280" y1="21.59375" y2="21.59375"/><foreignObject class="markmap-foreign" x="8" y="0" style="opacity: 1;" width="262" height="21"><div xmlns="http://www.w3.org/1999/xhtml"><div xmlns="http://www.w3.org/1999/xhtml">别嘌呤醇 + PRPP -&gt; <strong>别嘌呤醇核苷酸</strong>   </div></div></foreignObject></g><g data-depth="4" data-path="1.21.28.30" class="markmap-node" transform="translate(934, 78)"><line stroke="#bcbd22" stroke-width="1.1875" x1="-1" x2="169" y1="21.59375" y2="21.59375"/><foreignObject class="markmap-foreign" x="8" y="0" style="opacity: 1;" width="151" height="21"><div xmlns="http://www.w3.org/1999/xhtml"><div xmlns="http://www.w3.org/1999/xhtml">-&gt; PRPP 被<strong>消耗减少</strong>   </div></div></foreignObject></g><g data-depth="4" data-path="1.21.28.31" class="markmap-node" transform="translate(934, 105.1875)"><line stroke="#17becf" stroke-width="1.1875" x1="-1" x2="261" y1="21.59375" y2="21.59375"/><foreignObject class="markmap-foreign" x="8" y="0" style="opacity: 1;" width="243" height="21"><div xmlns="http://www.w3.org/1999/xhtml"><div xmlns="http://www.w3.org/1999/xhtml">-&gt; 嘌呤从头合成 <strong>↓</strong> + 补救合成 <strong>↓</strong>   </div></div></foreignObject></g><g data-depth="3" data-path="1.21.28" class="markmap-node" transform="translate(691, 78)"><line stroke="#e377c2" stroke-width="1.375" x1="-1" x2="165" y1="21.6875" y2="21.6875"/><circle stroke-width="1.5" r="6" stroke="#e377c2" fill="var(--markmap-circle-open-bg)" cx="163" cy="21.6875"/><foreignObject class="markmap-foreign" x="8" y="0" style="opacity: 1;" width="147" height="21"><div xmlns="http://www.w3.org/1999/xhtml"><div xmlns="http://www.w3.org/1999/xhtml"><strong>机制2：消耗 PRPP</strong>   </div></div></foreignObject></g><g data-depth="4" data-path="1.21.32.33" class="markmap-node" transform="translate(919, 137.375)"><line stroke="#ff7f0e" stroke-width="1.1875" x1="-1" x2="377" y1="21.59375" y2="21.59375"/><foreignObject class="markmap-foreign" x="8" y="0" style="opacity: 1;" width="359" height="21"><div xmlns="http://www.w3.org/1999/xhtml"><div xmlns="http://www.w3.org/1999/xhtml">别嘌呤醇核苷酸 -&gt; 反馈抑制**<mark>PRPP 酰胺转移酶</mark>**   </div></div></foreignObject></g><g data-depth="4" data-path="1.21.32.34" class="markmap-node" transform="translate(919, 164.5625)"><line stroke="#2ca02c" stroke-width="1.1875" x1="-1" x2="162" y1="21.59375" y2="21.59375"/><foreignObject class="markmap-foreign" x="8" y="0" style="opacity: 1;" width="144" height="21"><div xmlns="http://www.w3.org/1999/xhtml"><div xmlns="http://www.w3.org/1999/xhtml">-&gt; 嘌呤从头合成 <strong>↓</strong>   </div></div></foreignObject></g><g data-depth="3" data-path="1.21.32" class="markmap-node" transform="translate(691, 150.96875)"><line stroke="#1f77b4" stroke-width="1.375" x1="-1" x2="150" y1="21.6875" y2="21.6875"/><circle stroke-width="1.5" r="6" stroke="#1f77b4" fill="var(--markmap-circle-open-bg)" cx="148" cy="21.6875"/><foreignObject class="markmap-foreign" x="8" y="0" style="opacity: 1;" width="132" height="21"><div xmlns="http://www.w3.org/1999/xhtml"><div xmlns="http://www.w3.org/1999/xhtml"><strong>机制3：反馈抑制</strong>   </div></div></foreignObject></g><g data-depth="3" data-path="1.21.35" class="markmap-node" transform="translate(691, 196.75)"><line stroke="#d62728" stroke-width="1.375" x1="-1" x2="388" y1="21.6875" y2="21.6875"/><foreignObject class="markmap-foreign" x="8" y="0" style="opacity: 1;" width="370" height="21"><div xmlns="http://www.w3.org/1999/xhtml"><div xmlns="http://www.w3.org/1999/xhtml"><strong>一句话总结</strong> -&gt; 别嘌呤醇 = <strong><mark>"黄嘌呤氧化酶的假底物"</mark></strong>   </div></div></foreignObject></g><g data-depth="2" data-path="1.21" class="markmap-node" transform="translate(344, 50.71875)"><line stroke="#17becf" stroke-width="1.75" x1="-1" x2="269" y1="21.875" y2="21.875"/><circle stroke-width="1.5" r="6" stroke="#17becf" fill="var(--markmap-circle-open-bg)" cx="267" cy="21.875"/><foreignObject class="markmap-foreign" x="8" y="0" style="opacity: 1;" width="251" height="21"><div xmlns="http://www.w3.org/1999/xhtml"><div xmlns="http://www.w3.org/1999/xhtml"><strong>别嘌呤醇治疗痛风（必考论述题）</strong>   </div></div></foreignObject></g><g data-depth="3" data-path="1.36.37" class="markmap-node" transform="translate(659, 229.125)"><line stroke="#8c564b" stroke-width="1.375" x1="-1" x2="194" y1="21.6875" y2="21.6875"/><foreignObject class="markmap-foreign" x="8" y="0" style="opacity: 1;" width="176" height="21"><div xmlns="http://www.w3.org/1999/xhtml"><div xmlns="http://www.w3.org/1999/xhtml"><strong>分解部位</strong> -&gt; <strong><mark>肝</mark></strong>（主要）   </div></div></foreignObject></g><g data-depth="4" data-path="1.36.38.39" class="markmap-node" transform="translate(830, 261.5)"><line stroke="#7f7f7f" stroke-width="1.1875" x1="-1" x2="153" y1="21.59375" y2="21.59375"/><foreignObject class="markmap-foreign" x="8" y="0" style="opacity: 1;" width="135" height="21"><div xmlns="http://www.w3.org/1999/xhtml"><div xmlns="http://www.w3.org/1999/xhtml"><strong>C、U</strong> -&gt; <strong><mark>β-丙氨酸</mark></strong>   </div></div></foreignObject></g><g data-depth="4" data-path="1.36.38.40" class="markmap-node" transform="translate(830, 288.6875)"><line stroke="#bcbd22" stroke-width="1.1875" x1="-1" x2="156" y1="21.59375" y2="21.59375"/><foreignObject class="markmap-foreign" x="8" y="0" style="opacity: 1;" width="138" height="21"><div xmlns="http://www.w3.org/1999/xhtml"><div xmlns="http://www.w3.org/1999/xhtml"><strong>T</strong> -&gt; <strong><mark>β-氨基异丁酸</mark></strong>   </div></div></foreignObject></g><g data-depth="3" data-path="1.36.38" class="markmap-node" transform="translate(659, 275.09375)"><line stroke="#e377c2" stroke-width="1.375" x1="-1" x2="93" y1="21.6875" y2="21.6875"/><circle stroke-width="1.5" r="6" stroke="#e377c2" fill="var(--markmap-circle-open-bg)" cx="91" cy="21.6875"/><foreignObject class="markmap-foreign" x="8" y="0" style="opacity: 1;" width="75" height="21"><div xmlns="http://www.w3.org/1999/xhtml"><div xmlns="http://www.w3.org/1999/xhtml"><strong>分解产物</strong>   </div></div></foreignObject></g><g data-depth="3" data-path="1.36.41" class="markmap-node" transform="translate(659, 320.875)"><line stroke="#17becf" stroke-width="1.375" x1="-1" x2="396" y1="21.6875" y2="21.6875"/><foreignObject class="markmap-foreign" x="8" y="0" style="opacity: 1;" width="378" height="21"><div xmlns="http://www.w3.org/1999/xhtml"><div xmlns="http://www.w3.org/1999/xhtml"><strong>特点</strong> -&gt; 产物<strong>水溶性好</strong> -&gt; 易随尿排出 -&gt; <strong>不产生尿酸！</strong>   </div></div></foreignObject></g><g data-depth="3" data-path="1.36.42" class="markmap-node" transform="translate(659, 348.25)"><line stroke="#1f77b4" stroke-width="1.375" x1="-1" x2="285" y1="21.6875" y2="21.6875"/><foreignObject class="markmap-foreign" x="8" y="0" style="opacity: 1;" width="267" height="21"><div xmlns="http://www.w3.org/1999/xhtml"><div xmlns="http://www.w3.org/1999/xhtml"><strong>不会导致痛风</strong>（与嘌呤的最大区别）   </div></div></foreignObject></g><g data-depth="2" data-path="1.36" class="markmap-node" transform="translate(344, 288.6875)"><line stroke="#9467bd" stroke-width="1.75" x1="-1" x2="237" y1="21.875" y2="21.875"/><circle stroke-width="1.5" r="6" stroke="#9467bd" fill="var(--markmap-circle-open-bg)" cx="235" cy="21.875"/><foreignObject class="markmap-foreign" x="8" y="0" style="opacity: 1;" width="219" height="21"><div xmlns="http://www.w3.org/1999/xhtml"><div xmlns="http://www.w3.org/1999/xhtml"><strong>嘧啶核苷酸分解代谢（对比）</strong>   </div></div></foreignObject></g><g data-depth="3" data-path="1.43.44" class="markmap-node" transform="translate(607, 380.625)"><line stroke="#2ca02c" stroke-width="1.375" x1="-1" x2="360" y1="21.6875" y2="21.6875"/><foreignObject class="markmap-foreign" x="8" y="0" style="opacity: 1;" width="342" height="21"><div xmlns="http://www.w3.org/1999/xhtml"><div xmlns="http://www.w3.org/1999/xhtml"><strong>嘌呤分解</strong> -&gt; 终产物**<mark>尿酸</mark>** -&gt; 水溶性差 -&gt; <strong>痛风</strong>   </div></div></foreignObject></g><g data-depth="3" data-path="1.43.45" class="markmap-node" transform="translate(607, 408)"><line stroke="#d62728" stroke-width="1.375" x1="-1" x2="515" y1="21.6875" y2="21.6875"/><foreignObject class="markmap-foreign" x="8" y="0" style="opacity: 1;" width="497" height="21"><div xmlns="http://www.w3.org/1999/xhtml"><div xmlns="http://www.w3.org/1999/xhtml"><strong>嘧啶分解</strong> -&gt; 终产物**<mark>β-丙氨酸 / β-氨基异丁酸</mark>** -&gt; 水溶性好 -&gt; 不致病   </div></div></foreignObject></g><g data-depth="3" data-path="1.43.46" class="markmap-node" transform="translate(607, 435.375)"><line stroke="#9467bd" stroke-width="1.375" x1="-1" x2="258" y1="21.6875" y2="21.6875"/><foreignObject class="markmap-foreign" x="8" y="0" style="opacity: 1;" width="240" height="21"><div xmlns="http://www.w3.org/1999/xhtml"><div xmlns="http://www.w3.org/1999/xhtml"><strong>嘌呤分解关键酶</strong> -&gt; <strong><mark>黄嘌呤氧化酶</mark></strong>   </div></div></foreignObject></g><g data-depth="3" data-path="1.43.47" class="markmap-node" transform="translate(607, 462.75)"><line stroke="#8c564b" stroke-width="1.375" x1="-1" x2="370" y1="21.6875" y2="21.6875"/><foreignObject class="markmap-foreign" x="8" y="0" style="opacity: 1;" width="352" height="21"><div xmlns="http://www.w3.org/1999/xhtml"><div xmlns="http://www.w3.org/1999/xhtml"><strong>痛风药靶点</strong> -&gt; <strong><mark>黄嘌呤氧化酶</mark></strong>（被别嘌呤醇抑制）   </div></div></foreignObject></g><g data-depth="2" data-path="1.43" class="markmap-node" transform="translate(344, 421.6875)"><line stroke="#ff7f0e" stroke-width="1.75" x1="-1" x2="185" y1="21.875" y2="21.875"/><circle stroke-width="1.5" r="6" stroke="#ff7f0e" fill="var(--markmap-circle-open-bg)" cx="183" cy="21.875"/><foreignObject class="markmap-foreign" x="8" y="0" style="opacity: 1;" width="167" height="21"><div xmlns="http://www.w3.org/1999/xhtml"><div xmlns="http://www.w3.org/1999/xhtml"><strong>嘌呤 vs 嘧啶 分解速记</strong>   </div></div></foreignObject></g><g data-depth="1" data-path="1" class="markmap-node" transform="translate(0, -10.5)"><line stroke="#1f77b4" stroke-width="2.5" x1="-1" x2="266" y1="22.25" y2="22.25"/><circle stroke-width="1.5" r="6" stroke="#1f77b4" fill="var(--markmap-circle-open-bg)" cx="264" cy="22.25"/><foreignObject class="markmap-foreign" x="8" y="0" style="opacity: 1;" width="248" height="21"><div xmlns="http://www.w3.org/1999/xhtml"><div xmlns="http://www.w3.org/1999/xhtml">核苷酸分解代谢与痛风 (绝对重点)   </div></div></foreignObject></g></g></svg>