<svg xmlns="http://www.w3.org/2000/svg" class="w-full h-full leading-none markmap mm-dn9wym-1" style=""><style>.markmap{--markmap-max-width: 9999px;--markmap-a-color: #0097e6;--markmap-a-hover-color: #00a8ff;--markmap-code-bg: #f0f0f0;--markmap-code-color: #555;--markmap-highlight-bg: #ffeaa7;--markmap-table-border: 1px solid currentColor;--markmap-font: 300 16px/20px sans-serif;--markmap-circle-open-bg: #fff;--markmap-text-color: #333;--markmap-highlight-node-bg: #ff02;font:var(--markmap-font);color:var(--markmap-text-color)}.markmap-link{fill:none}.markmap-node&gt;circle{cursor:pointer}.markmap-foreign{display:inline-block}.markmap-foreign p{margin:0}.markmap-foreign a{color:var(--markmap-a-color)}.markmap-foreign a:hover{color:var(--markmap-a-hover-color)}.markmap-foreign code{padding:.25em;font-size:calc(1em - 2px);color:var(--markmap-code-color);background-color:var(--markmap-code-bg);border-radius:2px}.markmap-foreign pre{margin:0}.markmap-foreign pre&gt;code{display:block}.markmap-foreign del{text-decoration:line-through}.markmap-foreign em{font-style:italic}.markmap-foreign strong{font-weight:700}.markmap-foreign mark{background:var(--markmap-highlight-bg)}.markmap-foreign table,.markmap-foreign th,.markmap-foreign td{border-collapse:collapse;border:var(--markmap-table-border)}.markmap-foreign img{display:inline-block}.markmap-foreign svg{fill:currentColor}.markmap-foreign&gt;div{width:var(--markmap-max-width);text-align:left}.markmap-foreign&gt;div&gt;div{display:inline-block}.markmap-highlight rect{fill:var(--markmap-highlight-node-bg)}.markmap-dark .markmap{--markmap-code-bg: #1a1b26;--markmap-code-color: #ddd;--markmap-circle-open-bg: #444;--markmap-text-color: #eee}</style><g transform="translate(56.02835680243527,367.68670067149935) scale(0.5499144663169047)"><path class="markmap-link" data-depth="4" data-path="1.2.4.5" d="M705,-309.875C745,-309.875,745,-350.75,785,-350.75" stroke-width="1.1875" stroke="rgb(127, 127, 127)"/><path class="markmap-link" data-depth="4" data-path="1.2.4.6" d="M705,-309.875C745,-309.875,745,-323.562,785,-323.562" stroke-width="1.1875" stroke="rgb(188, 189, 34)"/><path class="markmap-link" data-depth="4" data-path="1.2.4.7" d="M705,-309.875C745,-309.875,745,-296.375,785,-296.375" stroke-width="1.1875" stroke="rgb(23, 190, 207)"/><path class="markmap-link" data-depth="4" data-path="1.2.4.8" d="M705,-309.875C745,-309.875,745,-269.187,785,-269.187" stroke-width="1.1875" stroke="rgb(31, 119, 180)"/><path class="markmap-link" data-depth="4" data-path="1.2.9.10" d="M753,-196.125C793,-196.125,793,-237,833,-237" stroke-width="1.1875" stroke="rgb(44, 160, 44)"/><path class="markmap-link" data-depth="4" data-path="1.2.9.11" d="M753,-196.125C793,-196.125,793,-209.812,833,-209.812" stroke-width="1.1875" stroke="rgb(214, 39, 40)"/><path class="markmap-link" data-depth="4" data-path="1.2.9.12" d="M753,-196.125C793,-196.125,793,-182.625,833,-182.625" stroke-width="1.1875" stroke="rgb(148, 103, 189)"/><path class="markmap-link" data-depth="4" data-path="1.2.9.13" d="M753,-196.125C793,-196.125,793,-155.437,833,-155.437" stroke-width="1.1875" stroke="rgb(140, 86, 75)"/><path class="markmap-link" data-depth="3" data-path="1.2.3" d="M502,-225.531C542,-225.531,542,-383.031,582,-383.031" stroke-width="1.375" stroke="rgb(148, 103, 189)"/><path class="markmap-link" data-depth="3" data-path="1.2.4" d="M502,-225.531C542,-225.531,542,-309.875,582,-309.875" stroke-width="1.375" stroke="rgb(227, 119, 194)"/><path class="markmap-link" data-depth="3" data-path="1.2.9" d="M502,-225.531C542,-225.531,542,-196.125,582,-196.125" stroke-width="1.375" stroke="rgb(255, 127, 14)"/><path class="markmap-link" data-depth="3" data-path="1.2.14" d="M502,-225.531C542,-225.531,542,-123.156,582,-123.156" stroke-width="1.375" stroke="rgb(227, 119, 194)"/><path class="markmap-link" data-depth="3" data-path="1.2.15" d="M502,-225.531C542,-225.531,542,-95.781,582,-95.781" stroke-width="1.375" stroke="rgb(227, 119, 194)"/><path class="markmap-link" data-depth="3" data-path="1.2.16" d="M502,-225.531C542,-225.531,542,-68.406,582,-68.406" stroke-width="1.375" stroke="rgb(127, 127, 127)"/><path class="markmap-link" data-depth="4" data-path="1.17.19.20" d="M705,23.531C745,23.531,745,-3.75,785,-3.75" stroke-width="1.1875" stroke="rgb(255, 127, 14)"/><path class="markmap-link" data-depth="4" data-path="1.17.19.21" d="M705,23.531C745,23.531,745,23.438,785,23.438" stroke-width="1.1875" stroke="rgb(44, 160, 44)"/><path class="markmap-link" data-depth="4" data-path="1.17.19.22" d="M705,23.531C745,23.531,745,50.625,785,50.625" stroke-width="1.1875" stroke="rgb(214, 39, 40)"/><path class="markmap-link" data-depth="4" data-path="1.17.23.24" d="M753,82.906C793,82.906,793,82.813,833,82.813" stroke-width="1.1875" stroke="rgb(140, 86, 75)"/><path class="markmap-link" data-depth="3" data-path="1.17.18" d="M502,53.406C542,53.406,542,-36.031,582,-36.031" stroke-width="1.375" stroke="rgb(23, 190, 207)"/><path class="markmap-link" data-depth="3" data-path="1.17.19" d="M502,53.406C542,53.406,542,23.531,582,23.531" stroke-width="1.375" stroke="rgb(31, 119, 180)"/><path class="markmap-link" data-depth="3" data-path="1.17.23" d="M502,53.406C542,53.406,542,82.906,582,82.906" stroke-width="1.375" stroke="rgb(148, 103, 189)"/><path class="markmap-link" data-depth="3" data-path="1.17.25" d="M502,53.406C542,53.406,542,115.094,582,115.094" stroke-width="1.375" stroke="rgb(227, 119, 194)"/><path class="markmap-link" data-depth="3" data-path="1.17.26" d="M502,53.406C542,53.406,542,142.469,582,142.469" stroke-width="1.375" stroke="rgb(127, 127, 127)"/><path class="markmap-link" data-depth="4" data-path="1.27.29.30" d="M742,220.813C782,220.813,782,207.125,822,207.125" stroke-width="1.1875" stroke="rgb(255, 127, 14)"/><path class="markmap-link" data-depth="4" data-path="1.27.29.31" d="M742,220.813C782,220.813,782,234.313,822,234.313" stroke-width="1.1875" stroke="rgb(44, 160, 44)"/><path class="markmap-link" data-depth="3" data-path="1.27.28" d="M514,248.281C554,248.281,554,174.844,594,174.844" stroke-width="1.375" stroke="rgb(23, 190, 207)"/><path class="markmap-link" data-depth="3" data-path="1.27.29" d="M514,248.281C554,248.281,554,220.813,594,220.813" stroke-width="1.375" stroke="rgb(31, 119, 180)"/><path class="markmap-link" data-depth="3" data-path="1.27.32" d="M514,248.281C554,248.281,554,266.594,594,266.594" stroke-width="1.375" stroke="rgb(214, 39, 40)"/><path class="markmap-link" data-depth="3" data-path="1.27.33" d="M514,248.281C554,248.281,554,293.969,594,293.969" stroke-width="1.375" stroke="rgb(148, 103, 189)"/><path class="markmap-link" data-depth="3" data-path="1.27.34" d="M514,248.281C554,248.281,554,321.344,594,321.344" stroke-width="1.375" stroke="rgb(140, 86, 75)"/><path class="markmap-link" data-depth="2" data-path="1.2" d="M251,11.75C291,11.75,291,-225.531,331,-225.531" stroke-width="1.75" stroke="rgb(255, 127, 14)"/><path class="markmap-link" data-depth="2" data-path="1.17" d="M251,11.75C291,11.75,291,53.406,331,53.406" stroke-width="1.75" stroke="rgb(188, 189, 34)"/><path class="markmap-link" data-depth="2" data-path="1.27" d="M251,11.75C291,11.75,291,248.281,331,248.281" stroke-width="1.75" stroke="rgb(188, 189, 34)"/><g class="markmap-highlight"/><g data-depth="3" data-path="1.2.3" class="markmap-node" transform="translate(582, -404.71875)"><line stroke="#9467bd" stroke-width="1.375" x1="-1" x2="313" y1="21.6875" y2="21.6875"/><foreignObject class="markmap-foreign" x="8" y="0" style="opacity: 1;" width="295" height="21"><div xmlns="http://www.w3.org/1999/xhtml"><div xmlns="http://www.w3.org/1999/xhtml"><strong>合成部位</strong> -&gt; <strong><mark>肝</mark></strong>（主要）/ 小肠粘膜 / 胸腺   </div></div></foreignObject></g><g data-depth="4" data-path="1.2.4.5" class="markmap-node" transform="translate(785, -372.34375)"><line stroke="#7f7f7f" stroke-width="1.1875" x1="-1" x2="249" y1="21.59375" y2="21.59375"/><foreignObject class="markmap-foreign" x="8" y="0" style="opacity: 1;" width="231" height="21"><div xmlns="http://www.w3.org/1999/xhtml"><div xmlns="http://www.w3.org/1999/xhtml"><strong>磷酸核糖</strong> -&gt; PRPP（活化供体）   </div></div></foreignObject></g><g data-depth="4" data-path="1.2.4.6" class="markmap-node" transform="translate(785, -345.15625)"><line stroke="#bcbd22" stroke-width="1.1875" x1="-1" x2="429" y1="21.59375" y2="21.59375"/><foreignObject class="markmap-foreign" x="8" y="0" style="opacity: 1;" width="411" height="21"><div xmlns="http://www.w3.org/1999/xhtml"><div xmlns="http://www.w3.org/1999/xhtml"><strong>氨基酸</strong> -&gt; <strong><mark>天冬氨酸 (Asp)</mark></strong> / <strong><mark>谷氨酰胺 (Gln)</mark></strong> / <strong><mark>甘氨酸 (Gly)</mark></strong>   </div></div></foreignObject></g><g data-depth="4" data-path="1.2.4.7" class="markmap-node" transform="translate(785, -317.96875)"><line stroke="#17becf" stroke-width="1.1875" x1="-1" x2="358" y1="21.59375" y2="21.59375"/><foreignObject class="markmap-foreign" x="8" y="0" style="opacity: 1;" width="340" height="21"><div xmlns="http://www.w3.org/1999/xhtml"><div xmlns="http://www.w3.org/1999/xhtml"><strong>一碳单位</strong> -&gt; 甲酰基（来自 FH₄）-&gt; 提供 C₂、C₈   </div></div></foreignObject></g><g data-depth="4" data-path="1.2.4.8" class="markmap-node" transform="translate(785, -290.78125)"><line stroke="#1f77b4" stroke-width="1.1875" x1="-1" x2="131" y1="21.59375" y2="21.59375"/><foreignObject class="markmap-foreign" x="8" y="0" style="opacity: 1;" width="113" height="21"><div xmlns="http://www.w3.org/1999/xhtml"><div xmlns="http://www.w3.org/1999/xhtml"><strong>CO₂</strong> -&gt; 提供 C₆   </div></div></foreignObject></g><g data-depth="3" data-path="1.2.4" class="markmap-node" transform="translate(582, -331.5625)"><line stroke="#e377c2" stroke-width="1.375" x1="-1" x2="125" y1="21.6875" y2="21.6875"/><circle stroke-width="1.5" r="6" stroke="#e377c2" fill="var(--markmap-circle-open-bg)" cx="123" cy="21.6875"/><foreignObject class="markmap-foreign" x="8" y="0" style="opacity: 1;" width="107" height="21"><div xmlns="http://www.w3.org/1999/xhtml"><div xmlns="http://www.w3.org/1999/xhtml"><strong>嘌呤合成原料</strong>   </div></div></foreignObject></g><g data-depth="4" data-path="1.2.9.10" class="markmap-node" transform="translate(833, -258.59375)"><line stroke="#2ca02c" stroke-width="1.1875" x1="-1" x2="256" y1="21.59375" y2="21.59375"/><foreignObject class="markmap-foreign" x="8" y="0" style="opacity: 1;" width="238" height="21"><div xmlns="http://www.w3.org/1999/xhtml"><div xmlns="http://www.w3.org/1999/xhtml"><strong>甘氨当中站</strong> -&gt; Gly 提供 C₄/C₅/N₇   </div></div></foreignObject></g><g data-depth="4" data-path="1.2.9.11" class="markmap-node" transform="translate(833, -231.40625)"><line stroke="#d62728" stroke-width="1.1875" x1="-1" x2="236" y1="21.59375" y2="21.59375"/><foreignObject class="markmap-foreign" x="8" y="0" style="opacity: 1;" width="218" height="21"><div xmlns="http://www.w3.org/1999/xhtml"><div xmlns="http://www.w3.org/1999/xhtml"><strong>谷碳坐两边</strong> -&gt; Gln 提供 N₃/N₉   </div></div></foreignObject></g><g data-depth="4" data-path="1.2.9.12" class="markmap-node" transform="translate(833, -204.21875)"><line stroke="#9467bd" stroke-width="1.1875" x1="-1" x2="213" y1="21.59375" y2="21.59375"/><foreignObject class="markmap-foreign" x="8" y="0" style="opacity: 1;" width="195" height="21"><div xmlns="http://www.w3.org/1999/xhtml"><div xmlns="http://www.w3.org/1999/xhtml"><strong>左上天冬氨</strong> -&gt; Asp 提供 N₁   </div></div></foreignObject></g><g data-depth="4" data-path="1.2.9.13" class="markmap-node" transform="translate(833, -177.03125)"><line stroke="#8c564b" stroke-width="1.1875" x1="-1" x2="198" y1="21.59375" y2="21.59375"/><foreignObject class="markmap-foreign" x="8" y="0" style="opacity: 1;" width="180" height="21"><div xmlns="http://www.w3.org/1999/xhtml"><div xmlns="http://www.w3.org/1999/xhtml"><strong>头顶 CO₂</strong> -&gt; CO₂ 提供 C₆   </div></div></foreignObject></g><g data-depth="3" data-path="1.2.9" class="markmap-node" transform="translate(582, -217.8125)"><line stroke="#ff7f0e" stroke-width="1.375" x1="-1" x2="173" y1="21.6875" y2="21.6875"/><circle stroke-width="1.5" r="6" stroke="#ff7f0e" fill="var(--markmap-circle-open-bg)" cx="171" cy="21.6875"/><foreignObject class="markmap-foreign" x="8" y="0" style="opacity: 1;" width="155" height="21"><div xmlns="http://www.w3.org/1999/xhtml"><div xmlns="http://www.w3.org/1999/xhtml"><strong>嘌呤环原子来源口诀</strong>   </div></div></foreignObject></g><g data-depth="3" data-path="1.2.14" class="markmap-node" transform="translate(582, -144.84375)"><line stroke="#e377c2" stroke-width="1.375" x1="-1" x2="472" y1="21.6875" y2="21.6875"/><foreignObject class="markmap-foreign" x="8" y="0" style="opacity: 1;" width="454" height="21"><div xmlns="http://www.w3.org/1999/xhtml"><div xmlns="http://www.w3.org/1999/xhtml"><strong>嘌呤合成特有原料</strong> -&gt; <strong><mark>甘氨酸 (Gly)</mark></strong> / <strong><mark>一碳单位</mark></strong>（嘧啶不需要！）   </div></div></foreignObject></g><g data-depth="3" data-path="1.2.15" class="markmap-node" transform="translate(582, -117.46875)"><line stroke="#e377c2" stroke-width="1.375" x1="-1" x2="482" y1="21.6875" y2="21.6875"/><foreignObject class="markmap-foreign" x="8" y="0" style="opacity: 1;" width="464" height="21"><div xmlns="http://www.w3.org/1999/xhtml"><div xmlns="http://www.w3.org/1999/xhtml"><strong>关键中间物</strong> -&gt; <strong><mark>IMP</mark></strong>（次黄嘌呤核苷酸）-&gt; 再分支生成 AMP / GMP   </div></div></foreignObject></g><g data-depth="3" data-path="1.2.16" class="markmap-node" transform="translate(582, -90.09375)"><line stroke="#7f7f7f" stroke-width="1.375" x1="-1" x2="412" y1="21.6875" y2="21.6875"/><foreignObject class="markmap-foreign" x="8" y="0" style="opacity: 1;" width="394" height="21"><div xmlns="http://www.w3.org/1999/xhtml"><div xmlns="http://www.w3.org/1999/xhtml"><strong>关键酶</strong> -&gt; <strong><mark>PRPP 合成酶</mark></strong> / <strong><mark>PRPP 酰胺转移酶</mark></strong>（限速酶）   </div></div></foreignObject></g><g data-depth="2" data-path="1.2" class="markmap-node" transform="translate(331, -247.40625)"><line stroke="#ff7f0e" stroke-width="1.75" x1="-1" x2="173" y1="21.875" y2="21.875"/><circle stroke-width="1.5" r="6" stroke="#ff7f0e" fill="var(--markmap-circle-open-bg)" cx="171" cy="21.875"/><foreignObject class="markmap-foreign" x="8" y="0" style="opacity: 1;" width="155" height="21"><div xmlns="http://www.w3.org/1999/xhtml"><div xmlns="http://www.w3.org/1999/xhtml"><strong>嘌呤核苷酸从头合成</strong>   </div></div></foreignObject></g><g data-depth="3" data-path="1.17.18" class="markmap-node" transform="translate(582, -57.71875)"><line stroke="#17becf" stroke-width="1.375" x1="-1" x2="194" y1="21.6875" y2="21.6875"/><foreignObject class="markmap-foreign" x="8" y="0" style="opacity: 1;" width="176" height="21"><div xmlns="http://www.w3.org/1999/xhtml"><div xmlns="http://www.w3.org/1999/xhtml"><strong>合成部位</strong> -&gt; <strong><mark>肝</mark></strong>（主要）   </div></div></foreignObject></g><g data-depth="4" data-path="1.17.19.20" class="markmap-node" transform="translate(785, -25.34375)"><line stroke="#ff7f0e" stroke-width="1.1875" x1="-1" x2="153" y1="21.59375" y2="21.59375"/><foreignObject class="markmap-foreign" x="8" y="0" style="opacity: 1;" width="135" height="21"><div xmlns="http://www.w3.org/1999/xhtml"><div xmlns="http://www.w3.org/1999/xhtml"><strong>磷酸核糖</strong> -&gt; PRPP   </div></div></foreignObject></g><g data-depth="4" data-path="1.17.19.21" class="markmap-node" transform="translate(785, 1.84375)"><line stroke="#2ca02c" stroke-width="1.1875" x1="-1" x2="326" y1="21.59375" y2="21.59375"/><foreignObject class="markmap-foreign" x="8" y="0" style="opacity: 1;" width="308" height="21"><div xmlns="http://www.w3.org/1999/xhtml"><div xmlns="http://www.w3.org/1999/xhtml"><strong>氨基酸</strong> -&gt; <strong><mark>天冬氨酸 (Asp)</mark></strong> / <strong><mark>谷氨酰胺 (Gln)</mark></strong>   </div></div></foreignObject></g><g data-depth="4" data-path="1.17.19.22" class="markmap-node" transform="translate(785, 29.03125)"><line stroke="#d62728" stroke-width="1.1875" x1="-1" x2="58" y1="21.59375" y2="21.59375"/><foreignObject class="markmap-foreign" x="8" y="0" style="opacity: 1;" width="40" height="21"><div xmlns="http://www.w3.org/1999/xhtml"><div xmlns="http://www.w3.org/1999/xhtml"><strong>CO₂</strong>   </div></div></foreignObject></g><g data-depth="3" data-path="1.17.19" class="markmap-node" transform="translate(582, 1.84375)"><line stroke="#1f77b4" stroke-width="1.375" x1="-1" x2="125" y1="21.6875" y2="21.6875"/><circle stroke-width="1.5" r="6" stroke="#1f77b4" fill="var(--markmap-circle-open-bg)" cx="123" cy="21.6875"/><foreignObject class="markmap-foreign" x="8" y="0" style="opacity: 1;" width="107" height="21"><div xmlns="http://www.w3.org/1999/xhtml"><div xmlns="http://www.w3.org/1999/xhtml"><strong>嘧啶合成原料</strong>   </div></div></foreignObject></g><g data-depth="4" data-path="1.17.23.24" class="markmap-node" transform="translate(833, 61.21875)"><line stroke="#8c564b" stroke-width="1.1875" x1="-1" x2="407" y1="21.59375" y2="21.59375"/><foreignObject class="markmap-foreign" x="8" y="0" style="opacity: 1;" width="389" height="21"><div xmlns="http://www.w3.org/1999/xhtml"><div xmlns="http://www.w3.org/1999/xhtml"><strong>天冬氨酸右边站</strong> / <strong>谷酰直往左上窜</strong> / <strong>剩余废物二氧化碳</strong>   </div></div></foreignObject></g><g data-depth="3" data-path="1.17.23" class="markmap-node" transform="translate(582, 61.21875)"><line stroke="#9467bd" stroke-width="1.375" x1="-1" x2="173" y1="21.6875" y2="21.6875"/><circle stroke-width="1.5" r="6" stroke="#9467bd" fill="var(--markmap-circle-open-bg)" cx="171" cy="21.6875"/><foreignObject class="markmap-foreign" x="8" y="0" style="opacity: 1;" width="155" height="21"><div xmlns="http://www.w3.org/1999/xhtml"><div xmlns="http://www.w3.org/1999/xhtml"><strong>嘧啶环原子来源口诀</strong>   </div></div></foreignObject></g><g data-depth="3" data-path="1.17.25" class="markmap-node" transform="translate(582, 93.40625)"><line stroke="#e377c2" stroke-width="1.375" x1="-1" x2="414" y1="21.6875" y2="21.6875"/><foreignObject class="markmap-foreign" x="8" y="0" style="opacity: 1;" width="396" height="21"><div xmlns="http://www.w3.org/1999/xhtml"><div xmlns="http://www.w3.org/1999/xhtml"><strong>关键中间物</strong> -&gt; <strong><mark>UMP</mark></strong>（尿苷酸）-&gt; 再转变为 CTP / dTMP   </div></div></foreignObject></g><g data-depth="3" data-path="1.17.26" class="markmap-node" transform="translate(582, 120.78125)"><line stroke="#7f7f7f" stroke-width="1.375" x1="-1" x2="343" y1="21.6875" y2="21.6875"/><foreignObject class="markmap-foreign" x="8" y="0" style="opacity: 1;" width="325" height="21"><div xmlns="http://www.w3.org/1999/xhtml"><div xmlns="http://www.w3.org/1999/xhtml"><strong>关键酶</strong> -&gt; <strong><mark>CPS-Ⅱ</mark></strong>（氨基甲酰磷酸合成酶Ⅱ）   </div></div></foreignObject></g><g data-depth="2" data-path="1.17" class="markmap-node" transform="translate(331, 31.53125)"><line stroke="#bcbd22" stroke-width="1.75" x1="-1" x2="173" y1="21.875" y2="21.875"/><circle stroke-width="1.5" r="6" stroke="#bcbd22" fill="var(--markmap-circle-open-bg)" cx="171" cy="21.875"/><foreignObject class="markmap-foreign" x="8" y="0" style="opacity: 1;" width="155" height="21"><div xmlns="http://www.w3.org/1999/xhtml"><div xmlns="http://www.w3.org/1999/xhtml"><strong>嘧啶核苷酸从头合成</strong>   </div></div></foreignObject></g><g data-depth="3" data-path="1.27.28" class="markmap-node" transform="translate(594, 153.15625)"><line stroke="#17becf" stroke-width="1.375" x1="-1" x2="334" y1="21.6875" y2="21.6875"/><foreignObject class="markmap-foreign" x="8" y="0" style="opacity: 1;" width="316" height="21"><div xmlns="http://www.w3.org/1999/xhtml"><div xmlns="http://www.w3.org/1999/xhtml"><strong>差异1：原料</strong> -&gt; 嘌呤多了 <strong><mark>甘氨酸</mark></strong> + <strong><mark>一碳单位</mark></strong>   </div></div></foreignObject></g><g data-depth="4" data-path="1.27.29.30" class="markmap-node" transform="translate(822, 185.53125)"><line stroke="#ff7f0e" stroke-width="1.1875" x1="-1" x2="325" y1="21.59375" y2="21.59375"/><foreignObject class="markmap-foreign" x="8" y="0" style="opacity: 1;" width="307" height="21"><div xmlns="http://www.w3.org/1999/xhtml"><div xmlns="http://www.w3.org/1999/xhtml">嘌呤 -&gt; <strong>先有核糖骨架再建碱基</strong> -&gt; 生成 IMP   </div></div></foreignObject></g><g data-depth="4" data-path="1.27.29.31" class="markmap-node" transform="translate(822, 212.71875)"><line stroke="#2ca02c" stroke-width="1.1875" x1="-1" x2="364" y1="21.59375" y2="21.59375"/><foreignObject class="markmap-foreign" x="8" y="0" style="opacity: 1;" width="346" height="21"><div xmlns="http://www.w3.org/1999/xhtml"><div xmlns="http://www.w3.org/1999/xhtml">嘧啶 -&gt; <strong>先合成嘧啶环再连磷酸核糖</strong> -&gt; 生成 UMP   </div></div></foreignObject></g><g data-depth="3" data-path="1.27.29" class="markmap-node" transform="translate(594, 199.125)"><line stroke="#1f77b4" stroke-width="1.375" x1="-1" x2="150" y1="21.6875" y2="21.6875"/><circle stroke-width="1.5" r="6" stroke="#1f77b4" fill="var(--markmap-circle-open-bg)" cx="148" cy="21.6875"/><foreignObject class="markmap-foreign" x="8" y="0" style="opacity: 1;" width="132" height="21"><div xmlns="http://www.w3.org/1999/xhtml"><div xmlns="http://www.w3.org/1999/xhtml"><strong>差异2：合成逻辑</strong>   </div></div></foreignObject></g><g data-depth="3" data-path="1.27.32" class="markmap-node" transform="translate(594, 244.90625)"><line stroke="#d62728" stroke-width="1.375" x1="-1" x2="444" y1="21.6875" y2="21.6875"/><foreignObject class="markmap-foreign" x="8" y="0" style="opacity: 1;" width="426" height="21"><div xmlns="http://www.w3.org/1999/xhtml"><div xmlns="http://www.w3.org/1999/xhtml"><strong>差异3：关键酶</strong> -&gt; 嘌呤：<strong><mark>PRPP 酰胺转移酶</mark></strong> / 嘧啶：<strong><mark>CPS-Ⅱ</mark></strong>   </div></div></foreignObject></g><g data-depth="3" data-path="1.27.33" class="markmap-node" transform="translate(594, 272.28125)"><line stroke="#9467bd" stroke-width="1.375" x1="-1" x2="354" y1="21.6875" y2="21.6875"/><foreignObject class="markmap-foreign" x="8" y="0" style="opacity: 1;" width="336" height="21"><div xmlns="http://www.w3.org/1999/xhtml"><div xmlns="http://www.w3.org/1999/xhtml"><strong>共同原料</strong> -&gt; <strong><mark>天冬氨酸</mark></strong> / <strong><mark>谷氨酰胺</mark></strong> / <strong><mark>CO₂</mark></strong> / <strong><mark>PRPP</mark></strong>   </div></div></foreignObject></g><g data-depth="3" data-path="1.27.34" class="markmap-node" transform="translate(594, 299.65625)"><line stroke="#8c564b" stroke-width="1.375" x1="-1" x2="324" y1="21.6875" y2="21.6875"/><foreignObject class="markmap-foreign" x="8" y="0" style="opacity: 1;" width="306" height="21"><div xmlns="http://www.w3.org/1999/xhtml"><div xmlns="http://www.w3.org/1999/xhtml"><strong>共同点</strong> -&gt; 均需要 <strong>PRPP</strong> 作为磷酸核糖供体   </div></div></foreignObject></g><g data-depth="2" data-path="1.27" class="markmap-node" transform="translate(331, 226.40625)"><line stroke="#bcbd22" stroke-width="1.75" x1="-1" x2="185" y1="21.875" y2="21.875"/><circle stroke-width="1.5" r="6" stroke="#bcbd22" fill="var(--markmap-circle-open-bg)" cx="183" cy="21.875"/><foreignObject class="markmap-foreign" x="8" y="0" style="opacity: 1;" width="167" height="21"><div xmlns="http://www.w3.org/1999/xhtml"><div xmlns="http://www.w3.org/1999/xhtml"><strong>嘌呤 vs 嘧啶 对比速记</strong>   </div></div></foreignObject></g><g data-depth="1" data-path="1" class="markmap-node" transform="translate(0, -10.5)"><line stroke="#1f77b4" stroke-width="2.5" x1="-1" x2="253" y1="22.25" y2="22.25"/><circle stroke-width="1.5" r="6" stroke="#1f77b4" fill="var(--markmap-circle-open-bg)" cx="251" cy="22.25"/><foreignObject class="markmap-foreign" x="8" y="0" style="opacity: 1;" width="235" height="21"><div xmlns="http://www.w3.org/1999/xhtml"><div xmlns="http://www.w3.org/1999/xhtml">嘌呤与嘧啶的从头合成原料对比   </div></div></foreignObject></g></g></svg>