<svg xmlns="http://www.w3.org/2000/svg" class="w-full h-full leading-none markmap mm-dn9wym-1" style=""><style>.markmap{--markmap-max-width: 9999px;--markmap-a-color: #0097e6;--markmap-a-hover-color: #00a8ff;--markmap-code-bg: #f0f0f0;--markmap-code-color: #555;--markmap-highlight-bg: #ffeaa7;--markmap-table-border: 1px solid currentColor;--markmap-font: 300 16px/20px sans-serif;--markmap-circle-open-bg: #fff;--markmap-text-color: #333;--markmap-highlight-node-bg: #ff02;font:var(--markmap-font);color:var(--markmap-text-color)}.markmap-link{fill:none}.markmap-node&gt;circle{cursor:pointer}.markmap-foreign{display:inline-block}.markmap-foreign p{margin:0}.markmap-foreign a{color:var(--markmap-a-color)}.markmap-foreign a:hover{color:var(--markmap-a-hover-color)}.markmap-foreign code{padding:.25em;font-size:calc(1em - 2px);color:var(--markmap-code-color);background-color:var(--markmap-code-bg);border-radius:2px}.markmap-foreign pre{margin:0}.markmap-foreign pre&gt;code{display:block}.markmap-foreign del{text-decoration:line-through}.markmap-foreign em{font-style:italic}.markmap-foreign strong{font-weight:700}.markmap-foreign mark{background:var(--markmap-highlight-bg)}.markmap-foreign table,.markmap-foreign th,.markmap-foreign td{border-collapse:collapse;border:var(--markmap-table-border)}.markmap-foreign img{display:inline-block}.markmap-foreign svg{fill:currentColor}.markmap-foreign&gt;div{width:var(--markmap-max-width);text-align:left}.markmap-foreign&gt;div&gt;div{display:inline-block}.markmap-highlight rect{fill:var(--markmap-highlight-node-bg)}.markmap-dark .markmap{--markmap-code-bg: #1a1b26;--markmap-code-color: #ddd;--markmap-circle-open-bg: #444;--markmap-text-color: #eee}</style><g transform="translate(68.47394711148695,341.4649371151918) scale(0.45227719060831617)"><path class="markmap-link" data-depth="5" data-path="1.2.5.6.7" d="M909,-341.031C949,-341.031,949,-368.172,989,-368.172" stroke-width="1.09375" stroke="rgb(214, 39, 40)"/><path class="markmap-link" data-depth="5" data-path="1.2.5.6.8" d="M909,-341.031C949,-341.031,949,-341.078,989,-341.078" stroke-width="1.09375" stroke="rgb(148, 103, 189)"/><path class="markmap-link" data-depth="5" data-path="1.2.5.6.9" d="M909,-341.031C949,-341.031,949,-313.984,989,-313.984" stroke-width="1.09375" stroke="rgb(140, 86, 75)"/><path class="markmap-link" data-depth="5" data-path="1.2.5.10.11" d="M972,-268.297C1012,-268.297,1012,-281.891,1052,-281.891" stroke-width="1.09375" stroke="rgb(127, 127, 127)"/><path class="markmap-link" data-depth="5" data-path="1.2.5.10.12" d="M972,-268.297C1012,-268.297,1012,-254.797,1052,-254.797" stroke-width="1.09375" stroke="rgb(188, 189, 34)"/><path class="markmap-link" data-depth="4" data-path="1.2.5.6" d="M641,-304.57C681,-304.57,681,-341.031,721,-341.031" stroke-width="1.1875" stroke="rgb(44, 160, 44)"/><path class="markmap-link" data-depth="4" data-path="1.2.5.10" d="M641,-304.57C681,-304.57,681,-268.297,721,-268.297" stroke-width="1.1875" stroke="rgb(227, 119, 194)"/><path class="markmap-link" data-depth="3" data-path="1.2.3" d="M486,-311.437C526,-311.437,526,-400.687,566,-400.687" stroke-width="1.375" stroke="rgb(148, 103, 189)"/><path class="markmap-link" data-depth="3" data-path="1.2.4" d="M486,-311.437C526,-311.437,526,-373.312,566,-373.312" stroke-width="1.375" stroke="rgb(227, 119, 194)"/><path class="markmap-link" data-depth="3" data-path="1.2.5" d="M486,-311.437C526,-311.437,526,-304.57,566,-304.57" stroke-width="1.375" stroke="rgb(227, 119, 194)"/><path class="markmap-link" data-depth="3" data-path="1.2.13" d="M486,-311.437C526,-311.437,526,-222.562,566,-222.562" stroke-width="1.375" stroke="rgb(148, 103, 189)"/><path class="markmap-link" data-depth="4" data-path="1.14.16.17" d="M760,-89.844C800,-89.844,800,-157.906,840,-157.906" stroke-width="1.1875" stroke="rgb(23, 190, 207)"/><path class="markmap-link" data-depth="4" data-path="1.14.16.18" d="M760,-89.844C800,-89.844,800,-130.719,840,-130.719" stroke-width="1.1875" stroke="rgb(31, 119, 180)"/><path class="markmap-link" data-depth="4" data-path="1.14.16.19" d="M760,-89.844C800,-89.844,800,-103.531,840,-103.531" stroke-width="1.1875" stroke="rgb(255, 127, 14)"/><path class="markmap-link" data-depth="4" data-path="1.14.16.20" d="M760,-89.844C800,-89.844,800,-76.344,840,-76.344" stroke-width="1.1875" stroke="rgb(44, 160, 44)"/><path class="markmap-link" data-depth="4" data-path="1.14.16.21" d="M760,-89.844C800,-89.844,800,-49.156,840,-49.156" stroke-width="1.1875" stroke="rgb(214, 39, 40)"/><path class="markmap-link" data-depth="4" data-path="1.14.16.22" d="M760,-89.844C800,-89.844,800,-21.969,840,-21.969" stroke-width="1.1875" stroke="rgb(148, 103, 189)"/><path class="markmap-link" data-depth="4" data-path="1.14.23.24" d="M760,78.281C800,78.281,800,10.219,840,10.219" stroke-width="1.1875" stroke="rgb(140, 86, 75)"/><path class="markmap-link" data-depth="4" data-path="1.14.23.25" d="M760,78.281C800,78.281,800,37.406,840,37.406" stroke-width="1.1875" stroke="rgb(227, 119, 194)"/><path class="markmap-link" data-depth="4" data-path="1.14.23.26" d="M760,78.281C800,78.281,800,64.594,840,64.594" stroke-width="1.1875" stroke="rgb(140, 86, 75)"/><path class="markmap-link" data-depth="4" data-path="1.14.23.27" d="M760,78.281C800,78.281,800,91.781,840,91.781" stroke-width="1.1875" stroke="rgb(227, 119, 194)"/><path class="markmap-link" data-depth="4" data-path="1.14.23.28" d="M760,78.281C800,78.281,800,118.969,840,118.969" stroke-width="1.1875" stroke="rgb(127, 127, 127)"/><path class="markmap-link" data-depth="4" data-path="1.14.23.29" d="M760,78.281C800,78.281,800,146.156,840,146.156" stroke-width="1.1875" stroke="rgb(188, 189, 34)"/><path class="markmap-link" data-depth="3" data-path="1.14.15" d="M600,-55.766C640,-55.766,640,-190.187,680,-190.187" stroke-width="1.375" stroke="rgb(227, 119, 194)"/><path class="markmap-link" data-depth="3" data-path="1.14.16" d="M600,-55.766C640,-55.766,640,-89.844,680,-89.844" stroke-width="1.375" stroke="rgb(127, 127, 127)"/><path class="markmap-link" data-depth="3" data-path="1.14.23" d="M600,-55.766C640,-55.766,640,78.281,680,78.281" stroke-width="1.375" stroke="rgb(148, 103, 189)"/><path class="markmap-link" data-depth="3" data-path="1.30.31" d="M512,219.688C552,219.688,552,178.438,592,178.438" stroke-width="1.375" stroke="rgb(31, 119, 180)"/><path class="markmap-link" data-depth="3" data-path="1.30.32" d="M512,219.688C552,219.688,552,205.813,592,205.813" stroke-width="1.375" stroke="rgb(255, 127, 14)"/><path class="markmap-link" data-depth="3" data-path="1.30.33" d="M512,219.688C552,219.688,552,233.188,592,233.188" stroke-width="1.375" stroke="rgb(44, 160, 44)"/><path class="markmap-link" data-depth="3" data-path="1.30.34" d="M512,219.688C552,219.688,552,260.563,592,260.563" stroke-width="1.375" stroke="rgb(214, 39, 40)"/><path class="markmap-link" data-depth="3" data-path="1.35.36" d="M566,334.188C606,334.188,606,292.938,646,292.938" stroke-width="1.375" stroke="rgb(140, 86, 75)"/><path class="markmap-link" data-depth="3" data-path="1.35.37" d="M566,334.188C606,334.188,606,320.313,646,320.313" stroke-width="1.375" stroke="rgb(227, 119, 194)"/><path class="markmap-link" data-depth="3" data-path="1.35.38" d="M566,334.188C606,334.188,606,347.688,646,347.688" stroke-width="1.375" stroke="rgb(127, 127, 127)"/><path class="markmap-link" data-depth="3" data-path="1.35.39" d="M566,334.188C606,334.188,606,375.063,646,375.063" stroke-width="1.375" stroke="rgb(188, 189, 34)"/><path class="markmap-link" data-depth="2" data-path="1.2" d="M235,11.75C275,11.75,275,-311.437,315,-311.437" stroke-width="1.75" stroke="rgb(255, 127, 14)"/><path class="markmap-link" data-depth="2" data-path="1.14" d="M235,11.75C275,11.75,275,-55.766,315,-55.766" stroke-width="1.75" stroke="rgb(140, 86, 75)"/><path class="markmap-link" data-depth="2" data-path="1.30" d="M235,11.75C275,11.75,275,219.688,315,219.688" stroke-width="1.75" stroke="rgb(23, 190, 207)"/><path class="markmap-link" data-depth="2" data-path="1.35" d="M235,11.75C275,11.75,275,334.188,315,334.188" stroke-width="1.75" stroke="rgb(148, 103, 189)"/><g class="markmap-highlight"/><g data-depth="3" data-path="1.2.3" class="markmap-node" transform="translate(566, -422.375)"><line stroke="#9467bd" stroke-width="1.375" x1="-1" x2="194" y1="21.6875" y2="21.6875"/><foreignObject class="markmap-foreign" x="8" y="0" style="opacity: 1;" width="176" height="21"><div xmlns="http://www.w3.org/1999/xhtml"><div xmlns="http://www.w3.org/1999/xhtml"><strong>合成部位</strong> -&gt; <strong><mark>肝</mark></strong>（主要）   </div></div></foreignObject></g><g data-depth="3" data-path="1.2.4" class="markmap-node" transform="translate(566, -395)"><line stroke="#e377c2" stroke-width="1.375" x1="-1" x2="343" y1="21.6875" y2="21.6875"/><foreignObject class="markmap-foreign" x="8" y="0" style="opacity: 1;" width="325" height="21"><div xmlns="http://www.w3.org/1999/xhtml"><div xmlns="http://www.w3.org/1999/xhtml"><strong>关键酶</strong> -&gt; <strong><mark>CPS-Ⅱ</mark></strong>（氨基甲酰磷酸合成酶Ⅱ）   </div></div></foreignObject></g><g data-depth="5" data-path="1.2.5.6.7" class="markmap-node" transform="translate(989, -389.71875)"><line stroke="#d62728" stroke-width="1.09375" x1="-1" x2="343" y1="21.546875" y2="21.546875"/><foreignObject class="markmap-foreign" x="8" y="0" style="opacity: 1;" width="325" height="21"><div xmlns="http://www.w3.org/1999/xhtml"><div xmlns="http://www.w3.org/1999/xhtml">Gln + CO₂ + 2ATP -&gt;(<mark><strong>CPS-Ⅱ</strong></mark>)-&gt; 氨基甲酰磷酸   </div></div></foreignObject></g><g data-depth="5" data-path="1.2.5.6.8" class="markmap-node" transform="translate(989, -362.625)"><line stroke="#9467bd" stroke-width="1.09375" x1="-1" x2="274" y1="21.546875" y2="21.546875"/><foreignObject class="markmap-foreign" x="8" y="0" style="opacity: 1;" width="256" height="21"><div xmlns="http://www.w3.org/1999/xhtml"><div xmlns="http://www.w3.org/1999/xhtml">氨基甲酰磷酸 + Asp -&gt; … -&gt; 乳清酸   </div></div></foreignObject></g><g data-depth="5" data-path="1.2.5.6.9" class="markmap-node" transform="translate(989, -335.53125)"><line stroke="#8c564b" stroke-width="1.09375" x1="-1" x2="272" y1="21.546875" y2="21.546875"/><foreignObject class="markmap-foreign" x="8" y="0" style="opacity: 1;" width="254" height="21"><div xmlns="http://www.w3.org/1999/xhtml"><div xmlns="http://www.w3.org/1999/xhtml">乳清酸 + <strong>PRPP</strong> -&gt; <strong><mark>UMP</mark></strong>（尿苷酸）   </div></div></foreignObject></g><g data-depth="4" data-path="1.2.5.6" class="markmap-node" transform="translate(721, -362.625)"><line stroke="#2ca02c" stroke-width="1.1875" x1="-1" x2="190" y1="21.59375" y2="21.59375"/><circle stroke-width="1.5" r="6" stroke="#2ca02c" fill="var(--markmap-circle-open-bg)" cx="188" cy="21.59375"/><foreignObject class="markmap-foreign" x="8" y="0" style="opacity: 1;" width="172" height="21"><div xmlns="http://www.w3.org/1999/xhtml"><div xmlns="http://www.w3.org/1999/xhtml"><strong>第1阶段：UMP 的合成</strong>   </div></div></foreignObject></g><g data-depth="5" data-path="1.2.5.10.11" class="markmap-node" transform="translate(1052, -303.4375)"><line stroke="#7f7f7f" stroke-width="1.09375" x1="-1" x2="323" y1="21.546875" y2="21.546875"/><foreignObject class="markmap-foreign" x="8" y="0" style="opacity: 1;" width="305" height="21"><div xmlns="http://www.w3.org/1999/xhtml"><div xmlns="http://www.w3.org/1999/xhtml">UMP -&gt; UDP -&gt; UTP -&gt;(CTP 合成酶)-&gt; <strong><mark>CTP</mark></strong>   </div></div></foreignObject></g><g data-depth="5" data-path="1.2.5.10.12" class="markmap-node" transform="translate(1052, -276.34375)"><line stroke="#bcbd22" stroke-width="1.09375" x1="-1" x2="357" y1="21.546875" y2="21.546875"/><foreignObject class="markmap-foreign" x="8" y="0" style="opacity: 1;" width="339" height="21"><div xmlns="http://www.w3.org/1999/xhtml"><div xmlns="http://www.w3.org/1999/xhtml">UDP -&gt; dUDP -&gt; dUMP -&gt;(<mark><strong>胸苷酸合酶</strong></mark>)-&gt; <strong><mark>dTMP</mark></strong>   </div></div></foreignObject></g><g data-depth="4" data-path="1.2.5.10" class="markmap-node" transform="translate(721, -289.890625)"><line stroke="#e377c2" stroke-width="1.1875" x1="-1" x2="253" y1="21.59375" y2="21.59375"/><circle stroke-width="1.5" r="6" stroke="#e377c2" fill="var(--markmap-circle-open-bg)" cx="251" cy="21.59375"/><foreignObject class="markmap-foreign" x="8" y="0" style="opacity: 1;" width="235" height="21"><div xmlns="http://www.w3.org/1999/xhtml"><div xmlns="http://www.w3.org/1999/xhtml"><strong>第2阶段：CTP 和 dTMP 的合成</strong>   </div></div></foreignObject></g><g data-depth="3" data-path="1.2.5" class="markmap-node" transform="translate(566, -326.2578125)"><line stroke="#e377c2" stroke-width="1.375" x1="-1" x2="77" y1="21.6875" y2="21.6875"/><circle stroke-width="1.5" r="6" stroke="#e377c2" fill="var(--markmap-circle-open-bg)" cx="75" cy="21.6875"/><foreignObject class="markmap-foreign" x="8" y="0" style="opacity: 1;" width="59" height="21"><div xmlns="http://www.w3.org/1999/xhtml"><div xmlns="http://www.w3.org/1999/xhtml"><strong>两阶段</strong>   </div></div></foreignObject></g><g data-depth="3" data-path="1.2.13" class="markmap-node" transform="translate(566, -244.25)"><line stroke="#9467bd" stroke-width="1.375" x1="-1" x2="469" y1="21.6875" y2="21.6875"/><foreignObject class="markmap-foreign" x="8" y="0" style="opacity: 1;" width="451" height="21"><div xmlns="http://www.w3.org/1999/xhtml"><div xmlns="http://www.w3.org/1999/xhtml"><strong>合成特点</strong> -&gt; <strong>先合成嘧啶环</strong> -&gt; 再与 PRPP 连接（与嘌呤相反！）   </div></div></foreignObject></g><g data-depth="2" data-path="1.2" class="markmap-node" transform="translate(315, -333.3125)"><line stroke="#ff7f0e" stroke-width="1.75" x1="-1" x2="173" y1="21.875" y2="21.875"/><circle stroke-width="1.5" r="6" stroke="#ff7f0e" fill="var(--markmap-circle-open-bg)" cx="171" cy="21.875"/><foreignObject class="markmap-foreign" x="8" y="0" style="opacity: 1;" width="155" height="21"><div xmlns="http://www.w3.org/1999/xhtml"><div xmlns="http://www.w3.org/1999/xhtml"><strong>嘧啶核苷酸从头合成</strong>   </div></div></foreignObject></g><g data-depth="3" data-path="1.14.15" class="markmap-node" transform="translate(680, -211.875)"><line stroke="#e377c2" stroke-width="1.375" x1="-1" x2="274" y1="21.6875" y2="21.6875"/><foreignObject class="markmap-foreign" x="8" y="0" style="opacity: 1;" width="256" height="21"><div xmlns="http://www.w3.org/1999/xhtml"><div xmlns="http://www.w3.org/1999/xhtml"><strong>相同点</strong> -&gt; 都叫氨基甲酰磷酸合成酶   </div></div></foreignObject></g><g data-depth="4" data-path="1.14.16.17" class="markmap-node" transform="translate(840, -179.5)"><line stroke="#17becf" stroke-width="1.1875" x1="-1" x2="178" y1="21.59375" y2="21.59375"/><foreignObject class="markmap-foreign" x="8" y="0" style="opacity: 1;" width="160" height="21"><div xmlns="http://www.w3.org/1999/xhtml"><div xmlns="http://www.w3.org/1999/xhtml"><strong>分布</strong> -&gt; <strong><mark>线粒体</mark></strong>（肝）   </div></div></foreignObject></g><g data-depth="4" data-path="1.14.16.18" class="markmap-node" transform="translate(840, -152.3125)"><line stroke="#1f77b4" stroke-width="1.1875" x1="-1" x2="144" y1="21.59375" y2="21.59375"/><foreignObject class="markmap-foreign" x="8" y="0" style="opacity: 1;" width="126" height="21"><div xmlns="http://www.w3.org/1999/xhtml"><div xmlns="http://www.w3.org/1999/xhtml"><strong>氮源</strong> -&gt; <strong><mark>氨 (NH₃)</mark></strong>   </div></div></foreignObject></g><g data-depth="4" data-path="1.14.16.19" class="markmap-node" transform="translate(840, -125.125)"><line stroke="#ff7f0e" stroke-width="1.1875" x1="-1" x2="243" y1="21.59375" y2="21.59375"/><foreignObject class="markmap-foreign" x="8" y="0" style="opacity: 1;" width="225" height="21"><div xmlns="http://www.w3.org/1999/xhtml"><div xmlns="http://www.w3.org/1999/xhtml"><strong>激活剂</strong> -&gt; <strong><mark>N-乙酰谷氨酸 (AGA)</mark></strong>   </div></div></foreignObject></g><g data-depth="4" data-path="1.14.16.20" class="markmap-node" transform="translate(840, -97.9375)"><line stroke="#2ca02c" stroke-width="1.1875" x1="-1" x2="146" y1="21.59375" y2="21.59375"/><foreignObject class="markmap-foreign" x="8" y="0" style="opacity: 1;" width="128" height="21"><div xmlns="http://www.w3.org/1999/xhtml"><div xmlns="http://www.w3.org/1999/xhtml"><strong>反馈抑制剂</strong> -&gt; 无   </div></div></foreignObject></g><g data-depth="4" data-path="1.14.16.21" class="markmap-node" transform="translate(840, -70.75)"><line stroke="#d62728" stroke-width="1.1875" x1="-1" x2="146" y1="21.59375" y2="21.59375"/><foreignObject class="markmap-foreign" x="8" y="0" style="opacity: 1;" width="128" height="21"><div xmlns="http://www.w3.org/1999/xhtml"><div xmlns="http://www.w3.org/1999/xhtml"><strong>功能</strong> -&gt; <strong><mark>尿素合成</mark></strong>   </div></div></foreignObject></g><g data-depth="4" data-path="1.14.16.22" class="markmap-node" transform="translate(840, -43.5625)"><line stroke="#9467bd" stroke-width="1.1875" x1="-1" x2="312" y1="21.59375" y2="21.59375"/><foreignObject class="markmap-foreign" x="8" y="0" style="opacity: 1;" width="294" height="21"><div xmlns="http://www.w3.org/1999/xhtml"><div xmlns="http://www.w3.org/1999/xhtml"><strong>属于</strong> -&gt; 尿素循环（氨基酸代谢/第七章）   </div></div></foreignObject></g><g data-depth="3" data-path="1.14.16" class="markmap-node" transform="translate(680, -111.53125)"><line stroke="#7f7f7f" stroke-width="1.375" x1="-1" x2="82" y1="21.6875" y2="21.6875"/><circle stroke-width="1.5" r="6" stroke="#7f7f7f" fill="var(--markmap-circle-open-bg)" cx="80" cy="21.6875"/><foreignObject class="markmap-foreign" x="8" y="0" style="opacity: 1;" width="64" height="21"><div xmlns="http://www.w3.org/1999/xhtml"><div xmlns="http://www.w3.org/1999/xhtml"><strong><mark>CPS-Ⅰ</mark></strong>   </div></div></foreignObject></g><g data-depth="4" data-path="1.14.23.24" class="markmap-node" transform="translate(840, -11.375)"><line stroke="#8c564b" stroke-width="1.1875" x1="-1" x2="242" y1="21.59375" y2="21.59375"/><foreignObject class="markmap-foreign" x="8" y="0" style="opacity: 1;" width="224" height="21"><div xmlns="http://www.w3.org/1999/xhtml"><div xmlns="http://www.w3.org/1999/xhtml"><strong>分布</strong> -&gt; <strong><mark>胞液</mark></strong>（几乎所有细胞）   </div></div></foreignObject></g><g data-depth="4" data-path="1.14.23.25" class="markmap-node" transform="translate(840, 15.8125)"><line stroke="#e377c2" stroke-width="1.1875" x1="-1" x2="188" y1="21.59375" y2="21.59375"/><foreignObject class="markmap-foreign" x="8" y="0" style="opacity: 1;" width="170" height="21"><div xmlns="http://www.w3.org/1999/xhtml"><div xmlns="http://www.w3.org/1999/xhtml"><strong>氮源</strong> -&gt; <strong><mark>谷氨酰胺 (Gln)</mark></strong>   </div></div></foreignObject></g><g data-depth="4" data-path="1.14.23.26" class="markmap-node" transform="translate(840, 43)"><line stroke="#8c564b" stroke-width="1.1875" x1="-1" x2="141" y1="21.59375" y2="21.59375"/><foreignObject class="markmap-foreign" x="8" y="0" style="opacity: 1;" width="123" height="21"><div xmlns="http://www.w3.org/1999/xhtml"><div xmlns="http://www.w3.org/1999/xhtml"><strong>激活剂</strong> -&gt; <strong><mark>PRPP</mark></strong>   </div></div></foreignObject></g><g data-depth="4" data-path="1.14.23.27" class="markmap-node" transform="translate(840, 70.1875)"><line stroke="#e377c2" stroke-width="1.1875" x1="-1" x2="166" y1="21.59375" y2="21.59375"/><foreignObject class="markmap-foreign" x="8" y="0" style="opacity: 1;" width="148" height="21"><div xmlns="http://www.w3.org/1999/xhtml"><div xmlns="http://www.w3.org/1999/xhtml"><strong>反馈抑制剂</strong> -&gt; <strong><mark>UMP</mark></strong>   </div></div></foreignObject></g><g data-depth="4" data-path="1.14.23.28" class="markmap-node" transform="translate(840, 97.375)"><line stroke="#7f7f7f" stroke-width="1.1875" x1="-1" x2="146" y1="21.59375" y2="21.59375"/><foreignObject class="markmap-foreign" x="8" y="0" style="opacity: 1;" width="128" height="21"><div xmlns="http://www.w3.org/1999/xhtml"><div xmlns="http://www.w3.org/1999/xhtml"><strong>功能</strong> -&gt; <strong><mark>嘧啶合成</mark></strong>   </div></div></foreignObject></g><g data-depth="4" data-path="1.14.23.29" class="markmap-node" transform="translate(840, 124.5625)"><line stroke="#bcbd22" stroke-width="1.1875" x1="-1" x2="242" y1="21.59375" y2="21.59375"/><foreignObject class="markmap-foreign" x="8" y="0" style="opacity: 1;" width="224" height="21"><div xmlns="http://www.w3.org/1999/xhtml"><div xmlns="http://www.w3.org/1999/xhtml"><strong>属于</strong> -&gt; 核苷酸代谢（第八章）   </div></div></foreignObject></g><g data-depth="3" data-path="1.14.23" class="markmap-node" transform="translate(680, 56.59375)"><line stroke="#9467bd" stroke-width="1.375" x1="-1" x2="82" y1="21.6875" y2="21.6875"/><circle stroke-width="1.5" r="6" stroke="#9467bd" fill="var(--markmap-circle-open-bg)" cx="80" cy="21.6875"/><foreignObject class="markmap-foreign" x="8" y="0" style="opacity: 1;" width="64" height="21"><div xmlns="http://www.w3.org/1999/xhtml"><div xmlns="http://www.w3.org/1999/xhtml"><strong><mark>CPS-Ⅱ</mark></strong>   </div></div></foreignObject></g><g data-depth="2" data-path="1.14" class="markmap-node" transform="translate(315, -77.640625)"><line stroke="#8c564b" stroke-width="1.75" x1="-1" x2="287" y1="21.875" y2="21.875"/><circle stroke-width="1.5" r="6" stroke="#8c564b" fill="var(--markmap-circle-open-bg)" cx="285" cy="21.875"/><foreignObject class="markmap-foreign" x="8" y="0" style="opacity: 1;" width="269" height="21"><div xmlns="http://www.w3.org/1999/xhtml"><div xmlns="http://www.w3.org/1999/xhtml"><strong>CPS-Ⅰ vs CPS-Ⅱ（极其重要对比）</strong>   </div></div></foreignObject></g><g data-depth="3" data-path="1.30.31" class="markmap-node" transform="translate(592, 156.75)"><line stroke="#1f77b4" stroke-width="1.375" x1="-1" x2="327" y1="21.6875" y2="21.6875"/><foreignObject class="markmap-foreign" x="8" y="0" style="opacity: 1;" width="309" height="21"><div xmlns="http://www.w3.org/1999/xhtml"><div xmlns="http://www.w3.org/1999/xhtml"><strong>反应水平</strong> -&gt; <strong><mark>核苷二磷酸 (NDP)</mark></strong> 水平上还原   </div></div></foreignObject></g><g data-depth="3" data-path="1.30.32" class="markmap-node" transform="translate(592, 184.125)"><line stroke="#ff7f0e" stroke-width="1.375" x1="-1" x2="226" y1="21.6875" y2="21.6875"/><foreignObject class="markmap-foreign" x="8" y="0" style="opacity: 1;" width="208" height="21"><div xmlns="http://www.w3.org/1999/xhtml"><div xmlns="http://www.w3.org/1999/xhtml"><strong>催化酶</strong> -&gt; <strong><mark>核糖核苷酸还原酶</mark></strong>   </div></div></foreignObject></g><g data-depth="3" data-path="1.30.33" class="markmap-node" transform="translate(592, 211.5)"><line stroke="#2ca02c" stroke-width="1.375" x1="-1" x2="544" y1="21.6875" y2="21.6875"/><foreignObject class="markmap-foreign" x="8" y="0" style="opacity: 1;" width="526" height="21"><div xmlns="http://www.w3.org/1999/xhtml"><div xmlns="http://www.w3.org/1999/xhtml"><strong>反应通式</strong> -&gt; ADP → <strong>dADP</strong> / GDP → <strong>dGDP</strong> / CDP → <strong>dCDP</strong> / UDP → <strong>dUDP</strong>   </div></div></foreignObject></g><g data-depth="3" data-path="1.30.34" class="markmap-node" transform="translate(592, 238.875)"><line stroke="#d62728" stroke-width="1.375" x1="-1" x2="409" y1="21.6875" y2="21.6875"/><foreignObject class="markmap-foreign" x="8" y="0" style="opacity: 1;" width="391" height="21"><div xmlns="http://www.w3.org/1999/xhtml"><div xmlns="http://www.w3.org/1999/xhtml"><strong>后续</strong> -&gt; dNDP + ATP -&gt;(激酶)-&gt; <strong>dNTP</strong> -&gt; <strong>DNA 合成原料</strong>   </div></div></foreignObject></g><g data-depth="2" data-path="1.30" class="markmap-node" transform="translate(315, 197.8125)"><line stroke="#17becf" stroke-width="1.75" x1="-1" x2="199" y1="21.875" y2="21.875"/><circle stroke-width="1.5" r="6" stroke="#17becf" fill="var(--markmap-circle-open-bg)" cx="197" cy="21.875"/><foreignObject class="markmap-foreign" x="8" y="0" style="opacity: 1;" width="181" height="21"><div xmlns="http://www.w3.org/1999/xhtml"><div xmlns="http://www.w3.org/1999/xhtml"><strong>脱氧核苷酸合成 (dNTP)</strong>   </div></div></foreignObject></g><g data-depth="3" data-path="1.35.36" class="markmap-node" transform="translate(646, 271.25)"><line stroke="#8c564b" stroke-width="1.375" x1="-1" x2="295" y1="21.6875" y2="21.6875"/><foreignObject class="markmap-foreign" x="8" y="0" style="opacity: 1;" width="277" height="21"><div xmlns="http://www.w3.org/1999/xhtml"><div xmlns="http://www.w3.org/1999/xhtml"><strong>路径</strong> -&gt; dUMP -&gt;(<mark><strong>胸苷酸合酶</strong></mark>)-&gt; <strong><mark>dTMP</mark></strong>   </div></div></foreignObject></g><g data-depth="3" data-path="1.35.37" class="markmap-node" transform="translate(646, 298.625)"><line stroke="#e377c2" stroke-width="1.375" x1="-1" x2="360" y1="21.6875" y2="21.6875"/><foreignObject class="markmap-foreign" x="8" y="0" style="opacity: 1;" width="342" height="21"><div xmlns="http://www.w3.org/1999/xhtml"><div xmlns="http://www.w3.org/1999/xhtml"><strong>甲基供体</strong> -&gt; <strong><mark>N⁵,N¹⁰-CH₂-FH₄</mark></strong>（一碳单位载体）   </div></div></foreignObject></g><g data-depth="3" data-path="1.35.38" class="markmap-node" transform="translate(646, 326)"><line stroke="#7f7f7f" stroke-width="1.375" x1="-1" x2="486" y1="21.6875" y2="21.6875"/><foreignObject class="markmap-foreign" x="8" y="0" style="opacity: 1;" width="468" height="21"><div xmlns="http://www.w3.org/1999/xhtml"><div xmlns="http://www.w3.org/1999/xhtml"><strong>药物靶点1</strong> -&gt; <strong><mark>5-氟尿嘧啶 (5-FU)</mark></strong> -&gt; 抑制<strong>胸苷酸合酶</strong> -&gt; 阻断 dTMP   </div></div></foreignObject></g><g data-depth="3" data-path="1.35.39" class="markmap-node" transform="translate(646, 353.375)"><line stroke="#bcbd22" stroke-width="1.375" x1="-1" x2="543" y1="21.6875" y2="21.6875"/><foreignObject class="markmap-foreign" x="8" y="0" style="opacity: 1;" width="525" height="21"><div xmlns="http://www.w3.org/1999/xhtml"><div xmlns="http://www.w3.org/1999/xhtml"><strong>药物靶点2</strong> -&gt; <strong><mark>甲氨蝶呤 (MTX)</mark></strong> -&gt; 抑制<strong>二氢叶酸还原酶</strong> -&gt; FH₄↓ -&gt; dTMP↓   </div></div></foreignObject></g><g data-depth="2" data-path="1.35" class="markmap-node" transform="translate(315, 312.3125)"><line stroke="#9467bd" stroke-width="1.75" x1="-1" x2="253" y1="21.875" y2="21.875"/><circle stroke-width="1.5" r="6" stroke="#9467bd" fill="var(--markmap-circle-open-bg)" cx="251" cy="21.875"/><foreignObject class="markmap-foreign" x="8" y="0" style="opacity: 1;" width="235" height="21"><div xmlns="http://www.w3.org/1999/xhtml"><div xmlns="http://www.w3.org/1999/xhtml"><strong>脱氧胸苷酸 (dTMP) 的特殊合成</strong>   </div></div></foreignObject></g><g data-depth="1" data-path="1" class="markmap-node" transform="translate(0,-10.5)"><line stroke="#1f77b4" stroke-width="2.5" x1="-1" x2="237" y1="22.25" y2="22.25"/><circle stroke-width="1.5" r="6" stroke="#1f77b4" fill="var(--markmap-circle-open-bg)" cx="235" cy="22.25"/><foreignObject class="markmap-foreign" x="8" y="0" style="opacity: 1;" width="219" height="21"><div xmlns="http://www.w3.org/1999/xhtml"><div xmlns="http://www.w3.org/1999/xhtml">嘧啶核苷酸与脱氧核苷酸合成   </div></div></foreignObject></g></g></svg>