<svg xmlns="http://www.w3.org/2000/svg" class="w-full h-full leading-none markmap mm-gpvzjv-1" style=""><style>.markmap{--markmap-max-width: 9999px;--markmap-a-color: #0097e6;--markmap-a-hover-color: #00a8ff;--markmap-code-bg: #f0f0f0;--markmap-code-color: #555;--markmap-highlight-bg: #ffeaa7;--markmap-table-border: 1px solid currentColor;--markmap-font: 300 16px/20px sans-serif;--markmap-circle-open-bg: #fff;--markmap-text-color: #333;--markmap-highlight-node-bg: #ff02;font:var(--markmap-font);color:var(--markmap-text-color)}.markmap-link{fill:none}.markmap-node&gt;circle{cursor:pointer}.markmap-foreign{display:inline-block}.markmap-foreign p{margin:0}.markmap-foreign a{color:var(--markmap-a-color)}.markmap-foreign a:hover{color:var(--markmap-a-hover-color)}.markmap-foreign code{padding:.25em;font-size:calc(1em - 2px);color:var(--markmap-code-color);background-color:var(--markmap-code-bg);border-radius:2px}.markmap-foreign pre{margin:0}.markmap-foreign pre&gt;code{display:block}.markmap-foreign del{text-decoration:line-through}.markmap-foreign em{font-style:italic}.markmap-foreign strong{font-weight:700}.markmap-foreign mark{background:var(--markmap-highlight-bg)}.markmap-foreign table,.markmap-foreign th,.markmap-foreign td{border-collapse:collapse;border:var(--markmap-table-border)}.markmap-foreign img{display:inline-block}.markmap-foreign svg{fill:currentColor}.markmap-foreign&gt;div{width:var(--markmap-max-width);text-align:left}.markmap-foreign&gt;div&gt;div{display:inline-block}.markmap-highlight rect{fill:var(--markmap-highlight-node-bg)}.markmap-dark .markmap{--markmap-code-bg: #1a1b26;--markmap-code-color: #ddd;--markmap-circle-open-bg: #444;--markmap-text-color: #eee}</style><g transform="translate(42.18777667471386,393.8153978945775) scale(0.3739379601211417)"><path class="markmap-link" data-depth="3" data-path="1.2.3" d="M343,-381.187C383,-381.187,383,-409.75,423,-409.75" stroke-width="1.375" stroke="rgb(148, 103, 189)"/><path class="markmap-link" data-depth="3" data-path="1.2.4" d="M343,-381.187C383,-381.187,383,-380.375,423,-380.375" stroke-width="1.375" stroke="rgb(140, 86, 75)"/><path class="markmap-link" data-depth="3" data-path="1.2.5" d="M343,-381.187C383,-381.187,383,-353,423,-353" stroke-width="1.375" stroke="rgb(227, 119, 194)"/><path class="markmap-link" data-depth="3" data-path="1.6.7" d="M512,-293.062C552,-293.062,552,-320.625,592,-320.625" stroke-width="1.375" stroke="rgb(188, 189, 34)"/><path class="markmap-link" data-depth="3" data-path="1.6.8" d="M512,-293.062C552,-293.062,552,-293.25,592,-293.25" stroke-width="1.375" stroke="rgb(23, 190, 207)"/><path class="markmap-link" data-depth="3" data-path="1.6.9" d="M512,-293.062C552,-293.062,552,-265.875,592,-265.875" stroke-width="1.375" stroke="rgb(31, 119, 180)"/><path class="markmap-link" data-depth="3" data-path="1.10.11" d="M507,-205.937C547,-205.937,547,-233.5,587,-233.5" stroke-width="1.375" stroke="rgb(44, 160, 44)"/><path class="markmap-link" data-depth="3" data-path="1.10.12" d="M507,-205.937C547,-205.937,547,-206.125,587,-206.125" stroke-width="1.375" stroke="rgb(214, 39, 40)"/><path class="markmap-link" data-depth="3" data-path="1.10.13" d="M507,-205.937C547,-205.937,547,-178.75,587,-178.75" stroke-width="1.375" stroke="rgb(148, 103, 189)"/><path class="markmap-link" data-depth="3" data-path="1.14.15" d="M375,-118.812C415,-118.812,415,-146.375,455,-146.375" stroke-width="1.375" stroke="rgb(188, 189, 34)"/><path class="markmap-link" data-depth="3" data-path="1.14.16" d="M375,-118.812C415,-118.812,415,-119,455,-119" stroke-width="1.375" stroke="rgb(23, 190, 207)"/><path class="markmap-link" data-depth="3" data-path="1.14.17" d="M375,-118.812C415,-118.812,415,-91.625,455,-91.625" stroke-width="1.375" stroke="rgb(31, 119, 180)"/><path class="markmap-link" data-depth="3" data-path="1.18.19" d="M359,-31.687C399,-31.687,399,-59.25,439,-59.25" stroke-width="1.375" stroke="rgb(23, 190, 207)"/><path class="markmap-link" data-depth="3" data-path="1.18.20" d="M359,-31.687C399,-31.687,399,-31.875,439,-31.875" stroke-width="1.375" stroke="rgb(31, 119, 180)"/><path class="markmap-link" data-depth="3" data-path="1.18.21" d="M359,-31.687C399,-31.687,399,-4.5,439,-4.5" stroke-width="1.375" stroke="rgb(255, 127, 14)"/><path class="markmap-link" data-depth="3" data-path="1.22.23" d="M439,55.438C479,55.438,479,27.875,519,27.875" stroke-width="1.375" stroke="rgb(188, 189, 34)"/><path class="markmap-link" data-depth="3" data-path="1.22.24" d="M439,55.438C479,55.438,479,55.25,519,55.25" stroke-width="1.375" stroke="rgb(23, 190, 207)"/><path class="markmap-link" data-depth="3" data-path="1.22.25" d="M439,55.438C479,55.438,479,82.625,519,82.625" stroke-width="1.375" stroke="rgb(31, 119, 180)"/><path class="markmap-link" data-depth="3" data-path="1.26.27" d="M391,142.563C431,142.563,431,115,471,115" stroke-width="1.375" stroke="rgb(44, 160, 44)"/><path class="markmap-link" data-depth="3" data-path="1.26.28" d="M391,142.563C431,142.563,431,142.375,471,142.375" stroke-width="1.375" stroke="rgb(214, 39, 40)"/><path class="markmap-link" data-depth="3" data-path="1.26.29" d="M391,142.563C431,142.563,431,169.75,471,169.75" stroke-width="1.375" stroke="rgb(148, 103, 189)"/><path class="markmap-link" data-depth="3" data-path="1.30.31" d="M359,229.688C399,229.688,399,202.125,439,202.125" stroke-width="1.375" stroke="rgb(227, 119, 194)"/><path class="markmap-link" data-depth="3" data-path="1.30.32" d="M359,229.688C399,229.688,399,229.5,439,229.5" stroke-width="1.375" stroke="rgb(227, 119, 194)"/><path class="markmap-link" data-depth="3" data-path="1.30.33" d="M359,229.688C399,229.688,399,256.875,439,256.875" stroke-width="1.375" stroke="rgb(148, 103, 189)"/><path class="markmap-link" data-depth="3" data-path="1.34.35" d="M375,316.813C415,316.813,415,289.25,455,289.25" stroke-width="1.375" stroke="rgb(127, 127, 127)"/><path class="markmap-link" data-depth="3" data-path="1.34.36" d="M375,316.813C415,316.813,415,316.625,455,316.625" stroke-width="1.375" stroke="rgb(188, 189, 34)"/><path class="markmap-link" data-depth="3" data-path="1.34.37" d="M375,316.813C415,316.813,415,344,455,344" stroke-width="1.375" stroke="rgb(140, 86, 75)"/><path class="markmap-link" data-depth="3" data-path="1.38.39" d="M375,403.938C415,403.938,415,376.375,455,376.375" stroke-width="1.375" stroke="rgb(127, 127, 127)"/><path class="markmap-link" data-depth="3" data-path="1.38.40" d="M375,403.938C415,403.938,415,403.75,455,403.75" stroke-width="1.375" stroke="rgb(188, 189, 34)"/><path class="markmap-link" data-depth="3" data-path="1.38.41" d="M375,403.938C415,403.938,415,431.125,455,431.125" stroke-width="1.375" stroke="rgb(23, 190, 207)"/><path class="markmap-link" data-depth="2" data-path="1.2" d="M204,11.75C244,11.75,244,-381.187,284,-381.187" stroke-width="1.75" stroke="rgb(255, 127, 14)"/><path class="markmap-link" data-depth="2" data-path="1.6" d="M204,11.75C244,11.75,244,-293.062,284,-293.062" stroke-width="1.75" stroke="rgb(127, 127, 127)"/><path class="markmap-link" data-depth="2" data-path="1.10" d="M204,11.75C244,11.75,244,-205.937,284,-205.937" stroke-width="1.75" stroke="rgb(255, 127, 14)"/><path class="markmap-link" data-depth="2" data-path="1.14" d="M204,11.75C244,11.75,244,-118.812,284,-118.812" stroke-width="1.75" stroke="rgb(127, 127, 127)"/><path class="markmap-link" data-depth="2" data-path="1.18" d="M204,11.75C244,11.75,244,-31.687,284,-31.687" stroke-width="1.75" stroke="rgb(188, 189, 34)"/><path class="markmap-link" data-depth="2" data-path="1.22" d="M204,11.75C244,11.75,244,55.438,284,55.438" stroke-width="1.75" stroke="rgb(127, 127, 127)"/><path class="markmap-link" data-depth="2" data-path="1.26" d="M204,11.75C244,11.75,244,142.563,284,142.563" stroke-width="1.75" stroke="rgb(255, 127, 14)"/><path class="markmap-link" data-depth="2" data-path="1.30" d="M204,11.75C244,11.75,244,229.688,284,229.688" stroke-width="1.75" stroke="rgb(140, 86, 75)"/><path class="markmap-link" data-depth="2" data-path="1.34" d="M204,11.75C244,11.75,244,316.813,284,316.813" stroke-width="1.75" stroke="rgb(227, 119, 194)"/><path class="markmap-link" data-depth="2" data-path="1.38" d="M204,11.75C244,11.75,244,403.938,284,403.938" stroke-width="1.75" stroke="rgb(227, 119, 194)"/><g class="markmap-highlight"/><g data-depth="3" data-path="1.2.3" class="markmap-node" transform="translate(423, -431.4375)"><line stroke="#9467bd" stroke-width="1.375" x1="-1" x2="621" y1="21.6875" y2="21.6875"/><foreignObject class="markmap-foreign" x="8" y="0" style="opacity: 1;" width="603" height="21"><div xmlns="http://www.w3.org/1999/xhtml"><div xmlns="http://www.w3.org/1999/xhtml">定义：<strong>神经元之间</strong>或<strong>神经元与效应细胞</strong>之间相互紧密联系并<strong>传递信息</strong>的特殊<strong>结构部位</strong>   </div></div></foreignObject></g><g data-depth="3" data-path="1.2.4" class="markmap-node" transform="translate(423, -404.0625)"><line stroke="#8c564b" stroke-width="1.375" x1="-1" x2="1028" y1="23.6875" y2="23.6875"/><foreignObject class="markmap-foreign" x="8" y="0" style="opacity: 1;" width="1010" height="23"><div xmlns="http://www.w3.org/1999/xhtml"><div xmlns="http://www.w3.org/1999/xhtml">正常值/公式：分类 → <strong>电突触</strong>（缝隙连接，双向快传）+ <strong>化学性突触</strong>（定向/非定向）；经典突触间隙 **20<sub>40nm**；每个神经元可形成数百</sub>数十万个突触   </div></div></foreignObject></g><g data-depth="3" data-path="1.2.5" class="markmap-node" transform="translate(423, -374.6875)"><line stroke="#e377c2" stroke-width="1.375" x1="-1" x2="963" y1="21.6875" y2="21.6875"/><foreignObject class="markmap-foreign" x="8" y="0" style="opacity: 1;" width="945" height="21"><div xmlns="http://www.w3.org/1999/xhtml"><div xmlns="http://www.w3.org/1999/xhtml">生理意义/特征：是实现<strong>神经元间信息传递</strong>的结构基础；化学性突触通过<strong>递质释放</strong>实现单向传递；突触可塑性是<strong>学习和记忆</strong>的细胞基础   </div></div></foreignObject></g><g data-depth="2" data-path="1.2" class="markmap-node" transform="translate(284, -403.0625)"><line stroke="#ff7f0e" stroke-width="1.75" x1="-1" x2="61" y1="21.875" y2="21.875"/><circle stroke-width="1.5" r="6" stroke="#ff7f0e" fill="var(--markmap-circle-open-bg)" cx="59" cy="21.875"/><foreignObject class="markmap-foreign" x="8" y="0" style="opacity: 1;" width="43" height="21"><div xmlns="http://www.w3.org/1999/xhtml"><div xmlns="http://www.w3.org/1999/xhtml"><strong>突触</strong>   </div></div></foreignObject></g><g data-depth="3" data-path="1.6.7" class="markmap-node" transform="translate(592, -342.3125)"><line stroke="#bcbd22" stroke-width="1.375" x1="-1" x2="836" y1="21.6875" y2="21.6875"/><foreignObject class="markmap-foreign" x="8" y="0" style="opacity: 1;" width="818" height="21"><div xmlns="http://www.w3.org/1999/xhtml"><div xmlns="http://www.w3.org/1999/xhtml">定义：<strong>兴奋性递质</strong>与突触后膜受体结合 → 后膜对 <strong>Na⁺ 通透性↑</strong> → Na⁺ 内流为主 → 突触后膜发生<strong>去极化</strong>的局部电位   </div></div></foreignObject></g><g data-depth="3" data-path="1.6.8" class="markmap-node" transform="translate(592, -314.9375)"><line stroke="#17becf" stroke-width="1.375" x1="-1" x2="627" y1="21.6875" y2="21.6875"/><foreignObject class="markmap-foreign" x="8" y="0" style="opacity: 1;" width="609" height="21"><div xmlns="http://www.w3.org/1999/xhtml"><div xmlns="http://www.w3.org/1999/xhtml">正常值/公式：突触前神经元为<strong>兴奋性神经元</strong>；递质为<strong>兴奋性递质</strong>；后膜状态为<strong>去极化</strong>   </div></div></foreignObject></g><g data-depth="3" data-path="1.6.9" class="markmap-node" transform="translate(592, -287.5625)"><line stroke="#1f77b4" stroke-width="1.375" x1="-1" x2="1147" y1="21.6875" y2="21.6875"/><foreignObject class="markmap-foreign" x="8" y="0" style="opacity: 1;" width="1129" height="21"><div xmlns="http://www.w3.org/1999/xhtml"><div xmlns="http://www.w3.org/1999/xhtml">生理意义/特征：使突触后神经元<strong>兴奋性升高</strong> → 去极化达到阈电位时可触发 <strong>AP</strong>；与 IPSP 的代数和决定突触后神经元最终是否兴奋；是中枢兴奋传递的基本形式   </div></div></foreignObject></g><g data-depth="2" data-path="1.6" class="markmap-node" transform="translate(284, -314.9375)"><line stroke="#7f7f7f" stroke-width="1.75" x1="-1" x2="230" y1="21.875" y2="21.875"/><circle stroke-width="1.5" r="6" stroke="#7f7f7f" fill="var(--markmap-circle-open-bg)" cx="228" cy="21.875"/><foreignObject class="markmap-foreign" x="8" y="0" style="opacity: 1;" width="212" height="21"><div xmlns="http://www.w3.org/1999/xhtml"><div xmlns="http://www.w3.org/1999/xhtml"><strong>兴奋性突触后电位（EPSP）</strong>   </div></div></foreignObject></g><g data-depth="3" data-path="1.10.11" class="markmap-node" transform="translate(587, -255.1875)"><line stroke="#2ca02c" stroke-width="1.375" x1="-1" x2="824" y1="21.6875" y2="21.6875"/><foreignObject class="markmap-foreign" x="8" y="0" style="opacity: 1;" width="806" height="21"><div xmlns="http://www.w3.org/1999/xhtml"><div xmlns="http://www.w3.org/1999/xhtml">定义：<strong>抑制性递质</strong>与突触后膜受体结合 → 后膜对 <strong>Cl⁻ 通透性↑</strong> → Cl⁻ 内流为主 → 突触后膜发生<strong>超极化</strong>的局部电位   </div></div></foreignObject></g><g data-depth="3" data-path="1.10.12" class="markmap-node" transform="translate(587, -227.8125)"><line stroke="#d62728" stroke-width="1.375" x1="-1" x2="627" y1="21.6875" y2="21.6875"/><foreignObject class="markmap-foreign" x="8" y="0" style="opacity: 1;" width="609" height="21"><div xmlns="http://www.w3.org/1999/xhtml"><div xmlns="http://www.w3.org/1999/xhtml">正常值/公式：突触前神经元为<strong>抑制性神经元</strong>；递质为<strong>抑制性递质</strong>；后膜状态为<strong>超极化</strong>   </div></div></foreignObject></g><g data-depth="3" data-path="1.10.13" class="markmap-node" transform="translate(587, -200.4375)"><line stroke="#9467bd" stroke-width="1.375" x1="-1" x2="1108" y1="21.6875" y2="21.6875"/><foreignObject class="markmap-foreign" x="8" y="0" style="opacity: 1;" width="1090" height="21"><div xmlns="http://www.w3.org/1999/xhtml"><div xmlns="http://www.w3.org/1999/xhtml">生理意义/特征：使突触后神经元<strong>兴奋性降低</strong> → 不易产生 AP；是实现<strong>中枢抑制</strong>（突触后抑制）的离子基础；与 EPSP 共同构成中枢神经系统<strong>兴奋-抑制平衡</strong>   </div></div></foreignObject></g><g data-depth="2" data-path="1.10" class="markmap-node" transform="translate(284, -227.8125)"><line stroke="#ff7f0e" stroke-width="1.75" x1="-1" x2="225" y1="21.875" y2="21.875"/><circle stroke-width="1.5" r="6" stroke="#ff7f0e" fill="var(--markmap-circle-open-bg)" cx="223" cy="21.875"/><foreignObject class="markmap-foreign" x="8" y="0" style="opacity: 1;" width="207" height="21"><div xmlns="http://www.w3.org/1999/xhtml"><div xmlns="http://www.w3.org/1999/xhtml"><strong>抑制性突触后电位（IPSP）</strong>   </div></div></foreignObject></g><g data-depth="3" data-path="1.14.15" class="markmap-node" transform="translate(455, -168.0625)"><line stroke="#bcbd22" stroke-width="1.375" x1="-1" x2="925" y1="21.6875" y2="21.6875"/><foreignObject class="markmap-foreign" x="8" y="0" style="opacity: 1;" width="907" height="21"><div xmlns="http://www.w3.org/1999/xhtml"><div xmlns="http://www.w3.org/1999/xhtml">定义：由<strong>突触前神经元合成</strong>并在<strong>末梢释放</strong>，能<strong>特异性</strong>作用于突触后神经元或效应器细胞的<strong>受体</strong>，而产生一定效应的<strong>信息传递物质</strong>   </div></div></foreignObject></g><g data-depth="3" data-path="1.14.16" class="markmap-node" transform="translate(455, -140.6875)"><line stroke="#17becf" stroke-width="1.375" x1="-1" x2="1195" y1="21.6875" y2="21.6875"/><foreignObject class="markmap-foreign" x="8" y="0" style="opacity: 1;" width="1177" height="21"><div xmlns="http://www.w3.org/1999/xhtml"><div xmlns="http://www.w3.org/1999/xhtml">正常值/公式：分类 → 胆碱类（<strong>ACh</strong>）、胺类（<strong>NA/Adr/DA/5-HT</strong>）、氨基酸类（<strong>谷氨酸/GABA/甘氨酸</strong>）、肽类（阿片肽等）、嘌呤类（ATP/腺苷）、气体分子（<strong>NO/CO</strong>）   </div></div></foreignObject></g><g data-depth="3" data-path="1.14.17" class="markmap-node" transform="translate(455, -113.3125)"><line stroke="#1f77b4" stroke-width="1.375" x1="-1" x2="1350" y1="21.6875" y2="21.6875"/><foreignObject class="markmap-foreign" x="8" y="0" style="opacity: 1;" width="1332" height="21"><div xmlns="http://www.w3.org/1999/xhtml"><div xmlns="http://www.w3.org/1999/xhtml">生理意义/特征：是化学性突触传递的<strong>核心媒介</strong>；递质与<strong>调质</strong>配合（调质调节递质效应）；<strong>递质共存</strong>（一个神经元可释放两种以上递质）→ 协调生理活动；递质代谢异常 → 多种神经精神疾病   </div></div></foreignObject></g><g data-depth="2" data-path="1.14" class="markmap-node" transform="translate(284, -140.6875)"><line stroke="#7f7f7f" stroke-width="1.75" x1="-1" x2="93" y1="21.875" y2="21.875"/><circle stroke-width="1.5" r="6" stroke="#7f7f7f" fill="var(--markmap-circle-open-bg)" cx="91" cy="21.875"/><foreignObject class="markmap-foreign" x="8" y="0" style="opacity: 1;" width="75" height="21"><div xmlns="http://www.w3.org/1999/xhtml"><div xmlns="http://www.w3.org/1999/xhtml"><strong>神经递质</strong>   </div></div></foreignObject></g><g data-depth="3" data-path="1.18.19" class="markmap-node" transform="translate(439, -80.9375)"><line stroke="#17becf" stroke-width="1.375" x1="-1" x2="621" y1="21.6875" y2="21.6875"/><foreignObject class="markmap-foreign" x="8" y="0" style="opacity: 1;" width="603" height="21"><div xmlns="http://www.w3.org/1999/xhtml"><div xmlns="http://www.w3.org/1999/xhtml">定义：脊髓与<strong>高位中枢离断</strong>后，断面以下暂时丧失<strong>反射活动</strong>、进入<strong>无反应状态</strong>的现象   </div></div></foreignObject></g><g data-depth="3" data-path="1.18.20" class="markmap-node" transform="translate(439, -53.5625)"><line stroke="#1f77b4" stroke-width="1.375" x1="-1" x2="1211" y1="21.6875" y2="21.6875"/><foreignObject class="markmap-foreign" x="8" y="0" style="opacity: 1;" width="1193" height="21"><div xmlns="http://www.w3.org/1999/xhtml"><div xmlns="http://www.w3.org/1999/xhtml">正常值/公式：主要表现为断面以下<strong>躯体运动反射</strong>和<strong>内脏反射</strong>消失（肌张力↓、血压↓、发汗反射消失、大小便潴留）；随后反射可逐渐<strong>恢复</strong>（恢复快慢因动物种类而异）   </div></div></foreignObject></g><g data-depth="3" data-path="1.18.21" class="markmap-node" transform="translate(439, -26.1875)"><line stroke="#ff7f0e" stroke-width="1.375" x1="-1" x2="1315" y1="21.6875" y2="21.6875"/><foreignObject class="markmap-foreign" x="8" y="0" style="opacity: 1;" width="1297" height="21"><div xmlns="http://www.w3.org/1999/xhtml"><div xmlns="http://www.w3.org/1999/xhtml">生理意义/特征：说明脊髓本身可完成一些<strong>基本反射</strong>，但正常情况下受<strong>高位中枢调控</strong>；脊休克的产生和恢复说明高位中枢对脊髓具有<strong>易化作用</strong>；临床上脊髓横断损伤后可观察到类似现象   </div></div></foreignObject></g><g data-depth="2" data-path="1.18" class="markmap-node" transform="translate(284, -53.5625)"><line stroke="#bcbd22" stroke-width="1.75" x1="-1" x2="77" y1="21.875" y2="21.875"/><circle stroke-width="1.5" r="6" stroke="#bcbd22" fill="var(--markmap-circle-open-bg)" cx="75" cy="21.875"/><foreignObject class="markmap-foreign" x="8" y="0" style="opacity: 1;" width="59" height="21"><div xmlns="http://www.w3.org/1999/xhtml"><div xmlns="http://www.w3.org/1999/xhtml"><strong>脊休克</strong>   </div></div></foreignObject></g><g data-depth="3" data-path="1.22.23" class="markmap-node" transform="translate(519, 6.1875)"><line stroke="#bcbd22" stroke-width="1.375" x1="-1" x2="621" y1="21.6875" y2="21.6875"/><foreignObject class="markmap-foreign" x="8" y="0" style="opacity: 1;" width="603" height="21"><div xmlns="http://www.w3.org/1999/xhtml"><div xmlns="http://www.w3.org/1999/xhtml">定义：有神经支配的骨骼肌受到<strong>外力牵拉伸长</strong>时，引起受牵拉的<strong>同一肌肉收缩</strong>的反射   </div></div></foreignObject></g><g data-depth="3" data-path="1.22.24" class="markmap-node" transform="translate(519, 33.5625)"><line stroke="#17becf" stroke-width="1.375" x1="-1" x2="1236" y1="21.6875" y2="21.6875"/><foreignObject class="markmap-foreign" x="8" y="0" style="opacity: 1;" width="1218" height="21"><div xmlns="http://www.w3.org/1999/xhtml"><div xmlns="http://www.w3.org/1999/xhtml">正常值/公式：分为两型 → <strong>腱反射</strong>（快速牵拉肌腱→单突触反射，如膝跳反射）+ <strong>肌紧张</strong>（缓慢持续牵拉→多突触反射，维持姿势）；感受器为<strong>肌梭</strong>，传入/传出均为同一肌肉   </div></div></foreignObject></g><g data-depth="3" data-path="1.22.25" class="markmap-node" transform="translate(519, 60.9375)"><line stroke="#1f77b4" stroke-width="1.375" x1="-1" x2="1147" y1="21.6875" y2="21.6875"/><foreignObject class="markmap-foreign" x="8" y="0" style="opacity: 1;" width="1129" height="21"><div xmlns="http://www.w3.org/1999/xhtml"><div xmlns="http://www.w3.org/1999/xhtml">生理意义/特征：是维持<strong>姿势</strong>的基础（肌紧张）；临床上通过检查腱反射判断<strong>神经系统功能</strong>状态（反射亢进→上运动神经元损伤；反射减弱→下运动神经元损伤）   </div></div></foreignObject></g><g data-depth="2" data-path="1.22" class="markmap-node" transform="translate(284, 33.5625)"><line stroke="#7f7f7f" stroke-width="1.75" x1="-1" x2="157" y1="21.875" y2="21.875"/><circle stroke-width="1.5" r="6" stroke="#7f7f7f" fill="var(--markmap-circle-open-bg)" cx="155" cy="21.875"/><foreignObject class="markmap-foreign" x="8" y="0" style="opacity: 1;" width="139" height="21"><div xmlns="http://www.w3.org/1999/xhtml"><div xmlns="http://www.w3.org/1999/xhtml"><strong>骨骼肌的牵张反射</strong>   </div></div></foreignObject></g><g data-depth="3" data-path="1.26.27" class="markmap-node" transform="translate(471, 93.3125)"><line stroke="#2ca02c" stroke-width="1.375" x1="-1" x2="781" y1="21.6875" y2="21.6875"/><foreignObject class="markmap-foreign" x="8" y="0" style="opacity: 1;" width="763" height="21"><div xmlns="http://www.w3.org/1999/xhtml"><div xmlns="http://www.w3.org/1999/xhtml">定义：在<strong>中脑上、下丘之间</strong>切断脑干后，动物出现<strong>伸肌紧张性亢进</strong>、四肢<strong>伸直</strong>、头尾<strong>昂起</strong>、脊柱<strong>挺硬</strong>的现象   </div></div></foreignObject></g><g data-depth="3" data-path="1.26.28" class="markmap-node" transform="translate(471, 120.6875)"><line stroke="#d62728" stroke-width="1.375" x1="-1" x2="964" y1="21.6875" y2="21.6875"/><foreignObject class="markmap-foreign" x="8" y="0" style="opacity: 1;" width="946" height="21"><div xmlns="http://www.w3.org/1999/xhtml"><div xmlns="http://www.w3.org/1999/xhtml">正常值/公式：本质是<strong>γ 僵直</strong>→ 网状结构<strong>抑制区</strong>活动减弱 + <strong>易化区</strong>活动相对增强 → γ 运动神经元兴奋↑ → 肌梭敏感性↑ → 伸肌紧张↑   </div></div></foreignObject></g><g data-depth="3" data-path="1.26.29" class="markmap-node" transform="translate(471, 148.0625)"><line stroke="#9467bd" stroke-width="1.375" x1="-1" x2="1312" y1="21.6875" y2="21.6875"/><foreignObject class="markmap-foreign" x="8" y="0" style="opacity: 1;" width="1294" height="21"><div xmlns="http://www.w3.org/1999/xhtml"><div xmlns="http://www.w3.org/1999/xhtml">生理意义/特征：说明脑干网状结构存在调节肌紧张的<strong>抑制区</strong>和<strong>易化区</strong>；正常情况下两者保持<strong>平衡</strong>；去大脑僵直是两者失衡（抑制区活动↓）的结果；去大脑僵直 = <strong>γ 僵直</strong>（经典僵直）   </div></div></foreignObject></g><g data-depth="2" data-path="1.26" class="markmap-node" transform="translate(284, 120.6875)"><line stroke="#ff7f0e" stroke-width="1.75" x1="-1" x2="109" y1="21.875" y2="21.875"/><circle stroke-width="1.5" r="6" stroke="#ff7f0e" fill="var(--markmap-circle-open-bg)" cx="107" cy="21.875"/><foreignObject class="markmap-foreign" x="8" y="0" style="opacity: 1;" width="91" height="21"><div xmlns="http://www.w3.org/1999/xhtml"><div xmlns="http://www.w3.org/1999/xhtml"><strong>去大脑僵直</strong>   </div></div></foreignObject></g><g data-depth="3" data-path="1.30.31" class="markmap-node" transform="translate(439, 180.4375)"><line stroke="#e377c2" stroke-width="1.375" x1="-1" x2="541" y1="21.6875" y2="21.6875"/><foreignObject class="markmap-foreign" x="8" y="0" style="opacity: 1;" width="523" height="21"><div xmlns="http://www.w3.org/1999/xhtml"><div xmlns="http://www.w3.org/1999/xhtml">定义：某些<strong>内脏疾病</strong>引起远隔的<strong>体表特定部位</strong>发生<strong>疼痛</strong>或<strong>痛觉过敏</strong>的现象   </div></div></foreignObject></g><g data-depth="3" data-path="1.30.32" class="markmap-node" transform="translate(439, 207.8125)"><line stroke="#e377c2" stroke-width="1.375" x1="-1" x2="918" y1="21.6875" y2="21.6875"/><foreignObject class="markmap-foreign" x="8" y="0" style="opacity: 1;" width="900" height="21"><div xmlns="http://www.w3.org/1999/xhtml"><div xmlns="http://www.w3.org/1999/xhtml">正常值/公式：机制 → <strong>会聚学说</strong>（内脏传入与体表传入会聚于同一脊髓后角神经元）+ <strong>易化学说</strong>（内脏传入易化体表传入通路）   </div></div></foreignObject></g><g data-depth="3" data-path="1.30.33" class="markmap-node" transform="translate(439, 235.1875)"><line stroke="#9467bd" stroke-width="1.375" x1="-1" x2="1105" y1="21.6875" y2="21.6875"/><foreignObject class="markmap-foreign" x="8" y="0" style="opacity: 1;" width="1087" height="21"><div xmlns="http://www.w3.org/1999/xhtml"><div xmlns="http://www.w3.org/1999/xhtml">生理意义/特征：有助于<strong>定位诊断</strong>内脏疾病（如心绞痛→<strong>左臂尺侧</strong>；胆囊炎→<strong>右肩</strong>；阑尾炎→<strong>脐周/右下腹</strong>；肾结石→<strong>腹股沟</strong>）；是临床体格检查的重要线索   </div></div></foreignObject></g><g data-depth="2" data-path="1.30" class="markmap-node" transform="translate(284, 207.8125)"><line stroke="#8c564b" stroke-width="1.75" x1="-1" x2="77" y1="21.875" y2="21.875"/><circle stroke-width="1.5" r="6" stroke="#8c564b" fill="var(--markmap-circle-open-bg)" cx="75" cy="21.875"/><foreignObject class="markmap-foreign" x="8" y="0" style="opacity: 1;" width="59" height="21"><div xmlns="http://www.w3.org/1999/xhtml"><div xmlns="http://www.w3.org/1999/xhtml"><strong>牵涉痛</strong>   </div></div></foreignObject></g><g data-depth="3" data-path="1.34.35" class="markmap-node" transform="translate(455, 267.5625)"><line stroke="#7f7f7f" stroke-width="1.375" x1="-1" x2="717" y1="21.6875" y2="21.6875"/><foreignObject class="markmap-foreign" x="8" y="0" style="opacity: 1;" width="699" height="21"><div xmlns="http://www.w3.org/1999/xhtml"><div xmlns="http://www.w3.org/1999/xhtml">定义：肢体皮肤受到<strong>伤害性刺激</strong>时，受刺激一侧肢体<strong>屈肌收缩、伸肌舒张</strong>，使肢体<strong>迅速回缩</strong>的反射   </div></div></foreignObject></g><g data-depth="3" data-path="1.34.36" class="markmap-node" transform="translate(455, 294.9375)"><line stroke="#bcbd22" stroke-width="1.375" x1="-1" x2="691" y1="21.6875" y2="21.6875"/><foreignObject class="markmap-foreign" x="8" y="0" style="opacity: 1;" width="673" height="21"><div xmlns="http://www.w3.org/1999/xhtml"><div xmlns="http://www.w3.org/1999/xhtml">正常值/公式：属于<strong>多突触反射</strong>、<strong>防御性反射</strong>；与<strong>交叉伸肌反射</strong>协调：同侧回缩 + 对侧伸直支撑   </div></div></foreignObject></g><g data-depth="3" data-path="1.34.37" class="markmap-node" transform="translate(455, 322.3125)"><line stroke="#8c564b" stroke-width="1.375" x1="-1" x2="1091" y1="21.6875" y2="21.6875"/><foreignObject class="markmap-foreign" x="8" y="0" style="opacity: 1;" width="1073" height="21"><div xmlns="http://www.w3.org/1999/xhtml"><div xmlns="http://www.w3.org/1999/xhtml">生理意义/特征：具有<strong>保护</strong>意义（远离伤害源）；屈肌反射的强弱可反映 CNS 兴奋性；病理情况下可出现<strong>巴宾斯基征</strong>（Babinski sign）→ 提示<strong>锥体束</strong>损伤   </div></div></foreignObject></g><g data-depth="2" data-path="1.34" class="markmap-node" transform="translate(284, 294.9375)"><line stroke="#e377c2" stroke-width="1.75" x1="-1" x2="93" y1="21.875" y2="21.875"/><circle stroke-width="1.5" r="6" stroke="#e377c2" fill="var(--markmap-circle-open-bg)" cx="91" cy="21.875"/><foreignObject class="markmap-foreign" x="8" y="0" style="opacity: 1;" width="75" height="21"><div xmlns="http://www.w3.org/1999/xhtml"><div xmlns="http://www.w3.org/1999/xhtml"><strong>屈肌反射</strong>   </div></div></foreignObject></g><g data-depth="3" data-path="1.38.39" class="markmap-node" transform="translate(455, 354.6875)"><line stroke="#7f7f7f" stroke-width="1.375" x1="-1" x2="477" y1="21.6875" y2="21.6875"/><foreignObject class="markmap-foreign" x="8" y="0" style="opacity: 1;" width="459" height="21"><div xmlns="http://www.w3.org/1999/xhtml"><div xmlns="http://www.w3.org/1999/xhtml">定义：通过<strong>轴浆流动</strong>来实现<strong>胞体</strong>与<strong>轴突末梢</strong>之间<strong>物质运输</strong>的现象   </div></div></foreignObject></g><g data-depth="3" data-path="1.38.40" class="markmap-node" transform="translate(455, 382.0625)"><line stroke="#bcbd22" stroke-width="1.375" x1="-1" x2="1082" y1="21.6875" y2="21.6875"/><foreignObject class="markmap-foreign" x="8" y="0" style="opacity: 1;" width="1064" height="21"><div xmlns="http://www.w3.org/1999/xhtml"><div xmlns="http://www.w3.org/1999/xhtml">正常值/公式：分两向 → <strong>顺向运输</strong>（胞体→末梢：快速=递质囊泡/分泌颗粒；慢速=胞质蛋白/基质）+ <strong>逆向运输</strong>（末梢→胞体：内吞体/神经营养因子）   </div></div></foreignObject></g><g data-depth="3" data-path="1.38.41" class="markmap-node" transform="translate(455, 409.4375)"><line stroke="#17becf" stroke-width="1.375" x1="-1" x2="1471" y1="21.6875" y2="21.6875"/><foreignObject class="markmap-foreign" x="8" y="0" style="opacity: 1;" width="1453" height="21"><div xmlns="http://www.w3.org/1999/xhtml"><div xmlns="http://www.w3.org/1999/xhtml">生理意义/特征：维持<strong>轴突结构和功能</strong>的物质基础；顺向运输→递质和蛋白的<strong>供应线</strong>；逆向运输→反馈<strong>信号通路</strong>（神经营养因子反哺神经元）；病毒（<strong>狂犬病毒</strong>）和毒素（<strong>破伤风毒素</strong>）可借逆向运输<strong>入侵 CNS</strong>   </div></div></foreignObject></g><g data-depth="2" data-path="1.38" class="markmap-node" transform="translate(284, 382.0625)"><line stroke="#e377c2" stroke-width="1.75" x1="-1" x2="93" y1="21.875" y2="21.875"/><circle stroke-width="1.5" r="6" stroke="#e377c2" fill="var(--markmap-circle-open-bg)" cx="91" cy="21.875"/><foreignObject class="markmap-foreign" x="8" y="0" style="opacity: 1;" width="75" height="21"><div xmlns="http://www.w3.org/1999/xhtml"><div xmlns="http://www.w3.org/1999/xhtml"><strong>轴浆运输</strong>   </div></div></foreignObject></g><g data-depth="1" data-path="1" class="markmap-node" transform="translate(0, -10.5)"><line stroke="#1f77b4" stroke-width="2.5" x1="-1" x2="206" y1="22.25" y2="22.25"/><circle stroke-width="1.5" r="6" stroke="#1f77b4" fill="var(--markmap-circle-open-bg)" cx="204" cy="22.25"/><foreignObject class="markmap-foreign" x="8" y="0" style="opacity: 1;" width="188" height="21"><div xmlns="http://www.w3.org/1999/xhtml"><div xmlns="http://www.w3.org/1999/xhtml">10.1 课后练习题名词解释   </div></div></foreignObject></g></g></svg>