<svg xmlns="http://www.w3.org/2000/svg" class="w-full h-full leading-none markmap mm-gpvzjv-1" style=""><style>.markmap{--markmap-max-width: 9999px;--markmap-a-color: #0097e6;--markmap-a-hover-color: #00a8ff;--markmap-code-bg: #f0f0f0;--markmap-code-color: #555;--markmap-highlight-bg: #ffeaa7;--markmap-table-border: 1px solid currentColor;--markmap-font: 300 16px/20px sans-serif;--markmap-circle-open-bg: #fff;--markmap-text-color: #333;--markmap-highlight-node-bg: #ff02;font:var(--markmap-font);color:var(--markmap-text-color)}.markmap-link{fill:none}.markmap-node&gt;circle{cursor:pointer}.markmap-foreign{display:inline-block}.markmap-foreign p{margin:0}.markmap-foreign a{color:var(--markmap-a-color)}.markmap-foreign a:hover{color:var(--markmap-a-hover-color)}.markmap-foreign code{padding:.25em;font-size:calc(1em - 2px);color:var(--markmap-code-color);background-color:var(--markmap-code-bg);border-radius:2px}.markmap-foreign pre{margin:0}.markmap-foreign pre&gt;code{display:block}.markmap-foreign del{text-decoration:line-through}.markmap-foreign em{font-style:italic}.markmap-foreign strong{font-weight:700}.markmap-foreign mark{background:var(--markmap-highlight-bg)}.markmap-foreign table,.markmap-foreign th,.markmap-foreign td{border-collapse:collapse;border:var(--markmap-table-border)}.markmap-foreign img{display:inline-block}.markmap-foreign svg{fill:currentColor}.markmap-foreign&gt;div{width:var(--markmap-max-width);text-align:left}.markmap-foreign&gt;div&gt;div{display:inline-block}.markmap-highlight rect{fill:var(--markmap-highlight-node-bg)}.markmap-dark .markmap{--markmap-code-bg: #1a1b26;--markmap-code-color: #ddd;--markmap-circle-open-bg: #444;--markmap-text-color: #eee}</style><g transform="translate(21.275742682706948,297.5074107576781) scale(0.48797219118878143)"><path class="markmap-link" data-depth="3" data-path="1.2.3" d="M611,-130.781C651,-130.781,651,-144.656,691,-144.656" stroke-width="1.375" stroke="rgb(148, 103, 189)"/><path class="markmap-link" data-depth="3" data-path="1.2.4" d="M611,-130.781C651,-130.781,651,-117.281,691,-117.281" stroke-width="1.375" stroke="rgb(140, 86, 75)"/><path class="markmap-link" data-depth="4" data-path="1.5.8.9" d="M830,2.031C870,2.031,870,-25.25,910,-25.25" stroke-width="1.1875" stroke="rgb(188, 189, 34)"/><path class="markmap-link" data-depth="4" data-path="1.5.8.10" d="M830,2.031C870,2.031,870,1.938,910,1.938" stroke-width="1.1875" stroke="rgb(23, 190, 207)"/><path class="markmap-link" data-depth="4" data-path="1.5.8.11" d="M830,2.031C870,2.031,870,29.125,910,29.125" stroke-width="1.1875" stroke="rgb(31, 119, 180)"/><path class="markmap-link" data-depth="3" data-path="1.5.6" d="M611,-41.25C651,-41.25,651,-84.906,691,-84.906" stroke-width="1.375" stroke="rgb(227, 119, 194)"/><path class="markmap-link" data-depth="3" data-path="1.5.7" d="M611,-41.25C651,-41.25,651,-57.531,691,-57.531" stroke-width="1.375" stroke="rgb(214, 39, 40)"/><path class="markmap-link" data-depth="3" data-path="1.5.8" d="M611,-41.25C651,-41.25,651,2.031,691,2.031" stroke-width="1.375" stroke="rgb(148, 103, 189)"/><path class="markmap-link" data-depth="4" data-path="1.12.13.14" d="M1011,61.406C1051,61.406,1051,61.313,1091,61.313" stroke-width="1.1875" stroke="rgb(255, 127, 14)"/><path class="markmap-link" data-depth="4" data-path="1.12.15.16" d="M1012,93.594C1052,93.594,1052,93.5,1092,93.5" stroke-width="1.1875" stroke="rgb(44, 160, 44)"/><path class="markmap-link" data-depth="3" data-path="1.12.13" d="M611,77.688C651,77.688,651,61.406,691,61.406" stroke-width="1.375" stroke="rgb(214, 39, 40)"/><path class="markmap-link" data-depth="3" data-path="1.12.15" d="M611,77.688C651,77.688,651,93.594,691,93.594" stroke-width="1.375" stroke="rgb(44, 160, 44)"/><path class="markmap-link" data-depth="3" data-path="1.17.18" d="M544,153.531C584,153.531,584,125.969,624,125.969" stroke-width="1.375" stroke="rgb(227, 119, 194)"/><path class="markmap-link" data-depth="3" data-path="1.17.19" d="M544,153.531C584,153.531,584,153.344,624,153.344" stroke-width="1.375" stroke="rgb(127, 127, 127)"/><path class="markmap-link" data-depth="3" data-path="1.17.20" d="M544,153.531C584,153.531,584,180.719,624,180.719" stroke-width="1.375" stroke="rgb(188, 189, 34)"/><path class="markmap-link" data-depth="2" data-path="1.2" d="M341,11.75C381,11.75,381,-130.781,421,-130.781" stroke-width="1.75" stroke="rgb(255, 127, 14)"/><path class="markmap-link" data-depth="2" data-path="1.5" d="M341,11.75C381,11.75,381,-41.25,421,-41.25" stroke-width="1.75" stroke="rgb(44, 160, 44)"/><path class="markmap-link" data-depth="2" data-path="1.12" d="M341,11.75C381,11.75,381,77.688,421,77.688" stroke-width="1.75" stroke="rgb(44, 160, 44)"/><path class="markmap-link" data-depth="2" data-path="1.17" d="M341,11.75C381,11.75,381,153.531,421,153.531" stroke-width="1.75" stroke="rgb(140, 86, 75)"/><g class="markmap-highlight"/><g data-depth="3" data-path="1.2.3" class="markmap-node" transform="translate(691, -166.34375)"><line stroke="#9467bd" stroke-width="1.375" x1="-1" x2="410" y1="21.6875" y2="21.6875"/><foreignObject class="markmap-foreign" x="8" y="0" style="opacity: 1;" width="392" height="21"><div xmlns="http://www.w3.org/1999/xhtml"><div xmlns="http://www.w3.org/1999/xhtml">胞外<strong>低 Ca²⁺</strong>/<strong>高 Mg²⁺</strong> -&gt; Ca²⁺ 内流↓ -&gt; ACh 释放**↓**   </div></div></foreignObject></g><g data-depth="3" data-path="1.2.4" class="markmap-node" transform="translate(691, -138.96875)"><line stroke="#8c564b" stroke-width="1.375" x1="-1" x2="458" y1="21.6875" y2="21.6875"/><foreignObject class="markmap-foreign" x="8" y="0" style="opacity: 1;" width="440" height="21"><div xmlns="http://www.w3.org/1999/xhtml"><div xmlns="http://www.w3.org/1999/xhtml"><strong>肉毒杆菌毒素</strong> -&gt; 阻止 ACh 囊泡释放 -&gt; <strong>肌肉麻痹</strong>（美容除皱）   </div></div></foreignObject></g><g data-depth="2" data-path="1.2" class="markmap-node" transform="translate(421, -152.65625)"><line stroke="#ff7f0e" stroke-width="1.75" x1="-1" x2="192" y1="21.875" y2="21.875"/><circle stroke-width="1.5" r="6" stroke="#ff7f0e" fill="var(--markmap-circle-open-bg)" cx="190" cy="21.875"/><foreignObject class="markmap-foreign" x="8" y="0" style="opacity: 1;" width="174" height="21"><div xmlns="http://www.w3.org/1999/xhtml"><div xmlns="http://www.w3.org/1999/xhtml">★影响 ACh 释放的因素   </div></div></foreignObject></g><g data-depth="3" data-path="1.5.6" class="markmap-node" transform="translate(691, -106.59375)"><line stroke="#e377c2" stroke-width="1.375" x1="-1" x2="448" y1="21.6875" y2="21.6875"/><foreignObject class="markmap-foreign" x="8" y="0" style="opacity: 1;" width="430" height="21"><div xmlns="http://www.w3.org/1999/xhtml"><div xmlns="http://www.w3.org/1999/xhtml"><strong>筒箭毒碱</strong> -&gt; 竞争性阻断 <strong>N₂ 受体</strong> -&gt; 肌肉<strong>松弛</strong>（手术肌松药）   </div></div></foreignObject></g><g data-depth="3" data-path="1.5.7" class="markmap-node" transform="translate(691, -79.21875)"><line stroke="#d62728" stroke-width="1.375" x1="-1" x2="368" y1="21.6875" y2="21.6875"/><foreignObject class="markmap-foreign" x="8" y="0" style="opacity: 1;" width="350" height="21"><div xmlns="http://www.w3.org/1999/xhtml"><div xmlns="http://www.w3.org/1999/xhtml"><strong>α-银环蛇毒</strong> -&gt; 不可逆阻断 N₂ 受体 -&gt; <strong>呼吸肌麻痹</strong>   </div></div></foreignObject></g><g data-depth="4" data-path="1.5.8.9" class="markmap-node" transform="translate(910, -46.84375)"><line stroke="#bcbd22" stroke-width="1.1875" x1="-1" x2="397" y1="21.59375" y2="21.59375"/><foreignObject class="markmap-foreign" x="8" y="0" style="opacity: 1;" width="379" height="21"><div xmlns="http://www.w3.org/1999/xhtml"><div xmlns="http://www.w3.org/1999/xhtml">自身免疫病 -&gt; 自身抗体<strong>破坏 ACh 受体</strong> -&gt; 受体数量↓   </div></div></foreignObject></g><g data-depth="4" data-path="1.5.8.10" class="markmap-node" transform="translate(910, -19.65625)"><line stroke="#17becf" stroke-width="1.1875" x1="-1" x2="398" y1="21.59375" y2="21.59375"/><foreignObject class="markmap-foreign" x="8" y="0" style="opacity: 1;" width="380" height="21"><div xmlns="http://www.w3.org/1999/xhtml"><div xmlns="http://www.w3.org/1999/xhtml">症状：<strong>肌无力/易疲劳</strong>（眼外肌/面部肌首发 -&gt; 全身）   </div></div></foreignObject></g><g data-depth="4" data-path="1.5.8.11" class="markmap-node" transform="translate(910, 7.53125)"><line stroke="#1f77b4" stroke-width="1.1875" x1="-1" x2="405" y1="21.59375" y2="21.59375"/><foreignObject class="markmap-foreign" x="8" y="0" style="opacity: 1;" width="387" height="21"><div xmlns="http://www.w3.org/1999/xhtml"><div xmlns="http://www.w3.org/1999/xhtml">治疗：<strong>新斯的明</strong>（胆碱酯酶抑制剂 -&gt; 增加 ACh 浓度）   </div></div></foreignObject></g><g data-depth="3" data-path="1.5.8" class="markmap-node" transform="translate(691, -19.65625)"><line stroke="#9467bd" stroke-width="1.375" x1="-1" x2="141" y1="21.6875" y2="21.6875"/><circle stroke-width="1.5" r="6" stroke="#9467bd" fill="var(--markmap-circle-open-bg)" cx="139" cy="21.6875"/><foreignObject class="markmap-foreign" x="8" y="0" style="opacity: 1;" width="123" height="21"><div xmlns="http://www.w3.org/1999/xhtml"><div xmlns="http://www.w3.org/1999/xhtml">★<strong>重症肌无力</strong>：   </div></div></foreignObject></g><g data-depth="2" data-path="1.5" class="markmap-node" transform="translate(421, -63.125)"><line stroke="#2ca02c" stroke-width="1.75" x1="-1" x2="192" y1="21.875" y2="21.875"/><circle stroke-width="1.5" r="6" stroke="#2ca02c" fill="var(--markmap-circle-open-bg)" cx="190" cy="21.875"/><foreignObject class="markmap-foreign" x="8" y="0" style="opacity: 1;" width="174" height="21"><div xmlns="http://www.w3.org/1999/xhtml"><div xmlns="http://www.w3.org/1999/xhtml">★影响 ACh 受体的因素   </div></div></foreignObject></g><g data-depth="4" data-path="1.12.13.14" class="markmap-node" transform="translate(1091, 39.71875)"><line stroke="#ff7f0e" stroke-width="1.1875" x1="-1" x2="472" y1="21.59375" y2="21.59375"/><foreignObject class="markmap-foreign" x="8" y="0" style="opacity: 1;" width="454" height="21"><div xmlns="http://www.w3.org/1999/xhtml"><div xmlns="http://www.w3.org/1999/xhtml">-&gt; ACh 大量<strong>蓄积</strong> -&gt; 持续刺激 N₂ 受体 -&gt; <strong>肌束震颤 -&gt; 呼吸肌麻痹</strong>   </div></div></foreignObject></g><g data-depth="3" data-path="1.12.13" class="markmap-node" transform="translate(691, 39.71875)"><line stroke="#d62728" stroke-width="1.375" x1="-1" x2="322" y1="21.6875" y2="21.6875"/><circle stroke-width="1.5" r="6" stroke="#d62728" fill="var(--markmap-circle-open-bg)" cx="320" cy="21.6875"/><foreignObject class="markmap-foreign" x="8" y="0" style="opacity: 1;" width="304" height="21"><div xmlns="http://www.w3.org/1999/xhtml"><div xmlns="http://www.w3.org/1999/xhtml"><strong>有机磷农药</strong> -&gt; 使胆碱酯酶<strong>失活</strong>（磷酰化）   </div></div></foreignObject></g><g data-depth="4" data-path="1.12.15.16" class="markmap-node" transform="translate(1092, 71.90625)"><line stroke="#2ca02c" stroke-width="1.1875" x1="-1" x2="323" y1="21.59375" y2="21.59375"/><foreignObject class="markmap-foreign" x="8" y="0" style="opacity: 1;" width="305" height="21"><div xmlns="http://www.w3.org/1999/xhtml"><div xmlns="http://www.w3.org/1999/xhtml">临床应用：重症肌无力、术后腹胀/尿潴留   </div></div></foreignObject></g><g data-depth="3" data-path="1.12.15" class="markmap-node" transform="translate(691, 71.90625)"><line stroke="#2ca02c" stroke-width="1.375" x1="-1" x2="323" y1="21.6875" y2="21.6875"/><circle stroke-width="1.5" r="6" stroke="#2ca02c" fill="var(--markmap-circle-open-bg)" cx="321" cy="21.6875"/><foreignObject class="markmap-foreign" x="8" y="0" style="opacity: 1;" width="305" height="21"><div xmlns="http://www.w3.org/1999/xhtml"><div xmlns="http://www.w3.org/1999/xhtml"><strong>新斯的明</strong> -&gt; 可逆性抑制胆碱酯酶 -&gt; ACh↑   </div></div></foreignObject></g><g data-depth="2" data-path="1.12" class="markmap-node" transform="translate(421, 55.8125)"><line stroke="#2ca02c" stroke-width="1.75" x1="-1" x2="192" y1="21.875" y2="21.875"/><circle stroke-width="1.5" r="6" stroke="#2ca02c" fill="var(--markmap-circle-open-bg)" cx="190" cy="21.875"/><foreignObject class="markmap-foreign" x="8" y="0" style="opacity: 1;" width="174" height="21"><div xmlns="http://www.w3.org/1999/xhtml"><div xmlns="http://www.w3.org/1999/xhtml">★影响 ACh 清除的因素   </div></div></foreignObject></g><g data-depth="3" data-path="1.17.18" class="markmap-node" transform="translate(624, 104.28125)"><line stroke="#e377c2" stroke-width="1.375" x1="-1" x2="344" y1="21.6875" y2="21.6875"/><foreignObject class="markmap-foreign" x="8" y="0" style="opacity: 1;" width="326" height="21"><div xmlns="http://www.w3.org/1999/xhtml"><div xmlns="http://www.w3.org/1999/xhtml">释放环节：低 Ca²⁺/高 Mg²⁺/<strong>肉毒素</strong> -&gt; 释放↓   </div></div></foreignObject></g><g data-depth="3" data-path="1.17.19" class="markmap-node" transform="translate(624, 131.65625)"><line stroke="#7f7f7f" stroke-width="1.375" x1="-1" x2="421" y1="21.6875" y2="21.6875"/><foreignObject class="markmap-foreign" x="8" y="0" style="opacity: 1;" width="403" height="21"><div xmlns="http://www.w3.org/1999/xhtml"><div xmlns="http://www.w3.org/1999/xhtml">受体环节：<strong>筒箭毒/α-蛇毒/重症肌无力</strong> -&gt; 受体受阻/破坏   </div></div></foreignObject></g><g data-depth="3" data-path="1.17.20" class="markmap-node" transform="translate(624, 159.03125)"><line stroke="#bcbd22" stroke-width="1.375" x1="-1" x2="463" y1="21.6875" y2="21.6875"/><foreignObject class="markmap-foreign" x="8" y="0" style="opacity: 1;" width="445" height="21"><div xmlns="http://www.w3.org/1999/xhtml"><div xmlns="http://www.w3.org/1999/xhtml">清除环节：<strong>有机磷</strong>（失活酶-&gt;蓄积）/<strong>新斯的明</strong>（抑酶-&gt;增强）   </div></div></foreignObject></g><g data-depth="2" data-path="1.17" class="markmap-node" transform="translate(421, 131.65625)"><line stroke="#8c564b" stroke-width="1.75" x1="-1" x2="125" y1="21.875" y2="21.875"/><circle stroke-width="1.5" r="6" stroke="#8c564b" fill="var(--markmap-circle-open-bg)" cx="123" cy="21.875"/><foreignObject class="markmap-foreign" x="8" y="0" style="opacity: 1;" width="107" height="21"><div xmlns="http://www.w3.org/1999/xhtml"><div xmlns="http://www.w3.org/1999/xhtml">三步调控汇总   </div></div></foreignObject></g><g data-depth="1" data-path="1" class="markmap-node" transform="translate(0, -10.5)"><line stroke="#1f77b4" stroke-width="2.5" x1="-1" x2="343" y1="22.25" y2="22.25"/><circle stroke-width="1.5" r="6" stroke="#1f77b4" fill="var(--markmap-circle-open-bg)" cx="341" cy="22.25"/><foreignObject class="markmap-foreign" x="8" y="0" style="opacity: 1;" width="325" height="21"><div xmlns="http://www.w3.org/1999/xhtml"><div xmlns="http://www.w3.org/1999/xhtml">影响神经-肌接头传递的因素 — 微型速记导图   </div></div></foreignObject></g></g></svg>