<svg xmlns="http://www.w3.org/2000/svg" class="w-full h-full leading-none markmap mm-ki3lx0-1" style=""><style>.markmap{--markmap-max-width: 9999px;--markmap-a-color: #0097e6;--markmap-a-hover-color: #00a8ff;--markmap-code-bg: #f0f0f0;--markmap-code-color: #555;--markmap-highlight-bg: #ffeaa7;--markmap-table-border: 1px solid currentColor;--markmap-font: 300 16px/20px sans-serif;--markmap-circle-open-bg: #fff;--markmap-text-color: #333;--markmap-highlight-node-bg: #ff02;font:var(--markmap-font);color:var(--markmap-text-color)}.markmap-link{fill:none}.markmap-node&gt;circle{cursor:pointer}.markmap-foreign{display:inline-block}.markmap-foreign p{margin:0}.markmap-foreign a{color:var(--markmap-a-color)}.markmap-foreign a:hover{color:var(--markmap-a-hover-color)}.markmap-foreign code{padding:.25em;font-size:calc(1em - 2px);color:var(--markmap-code-color);background-color:var(--markmap-code-bg);border-radius:2px}.markmap-foreign pre{margin:0}.markmap-foreign pre&gt;code{display:block}.markmap-foreign del{text-decoration:line-through}.markmap-foreign em{font-style:italic}.markmap-foreign strong{font-weight:700}.markmap-foreign mark{background:var(--markmap-highlight-bg)}.markmap-foreign table,.markmap-foreign th,.markmap-foreign td{border-collapse:collapse;border:var(--markmap-table-border)}.markmap-foreign img{display:inline-block}.markmap-foreign svg{fill:currentColor}.markmap-foreign&gt;div{width:var(--markmap-max-width);text-align:left}.markmap-foreign&gt;div&gt;div{display:inline-block}.markmap-highlight rect{fill:var(--markmap-highlight-node-bg)}.markmap-dark .markmap{--markmap-code-bg: #1a1b26;--markmap-code-color: #ddd;--markmap-circle-open-bg: #444;--markmap-text-color: #eee}</style><g transform="translate(38.90119468570953,366.3412596869598) scale(0.4709089013256402)"><path class="markmap-link" data-depth="4" data-path="1.4.5.6" d="M855,-295.734C895,-295.734,895,-309.422,935,-309.422" stroke-width="1.1875" stroke="rgb(140, 86, 75)"/><path class="markmap-link" data-depth="4" data-path="1.4.5.7" d="M855,-295.734C895,-295.734,895,-282.234,935,-282.234" stroke-width="1.1875" stroke="rgb(227, 119, 194)"/><path class="markmap-link" data-depth="4" data-path="1.4.8.9" d="M949,-236.359C989,-236.359,989,-250.047,1029,-250.047" stroke-width="1.1875" stroke="rgb(188, 189, 34)"/><path class="markmap-link" data-depth="4" data-path="1.4.8.10" d="M949,-236.359C989,-236.359,989,-222.859,1029,-222.859" stroke-width="1.1875" stroke="rgb(23, 190, 207)"/><path class="markmap-link" data-depth="4" data-path="1.4.12.13" d="M869,-144.609C909,-144.609,909,-158.297,949,-158.297" stroke-width="1.1875" stroke="rgb(44, 160, 44)"/><path class="markmap-link" data-depth="4" data-path="1.4.12.14" d="M869,-144.609C909,-144.609,909,-131.109,949,-131.109" stroke-width="1.1875" stroke="rgb(214, 39, 40)"/><path class="markmap-link" data-depth="3" data-path="1.4.5" d="M565,-219.984C605,-219.984,605,-295.734,645,-295.734" stroke-width="1.375" stroke="rgb(148, 103, 189)"/><path class="markmap-link" data-depth="3" data-path="1.4.8" d="M565,-219.984C605,-219.984,605,-236.359,645,-236.359" stroke-width="1.375" stroke="rgb(127, 127, 127)"/><path class="markmap-link" data-depth="3" data-path="1.4.11" d="M565,-219.984C605,-219.984,605,-190.578,645,-190.578" stroke-width="1.375" stroke="rgb(31, 119, 180)"/><path class="markmap-link" data-depth="3" data-path="1.4.12" d="M565,-219.984C605,-219.984,605,-144.609,645,-144.609" stroke-width="1.375" stroke="rgb(255, 127, 14)"/><path class="markmap-link" data-depth="4" data-path="1.15.17.18" d="M1003,-71.453C1043,-71.453,1043,-85.141,1083,-85.141" stroke-width="1.1875" stroke="rgb(127, 127, 127)"/><path class="markmap-link" data-depth="4" data-path="1.15.17.19" d="M1003,-71.453C1043,-71.453,1043,-57.953,1083,-57.953" stroke-width="1.1875" stroke="rgb(188, 189, 34)"/><path class="markmap-link" data-depth="3" data-path="1.15.16" d="M517,-84.953C557,-84.953,557,-98.828,597,-98.828" stroke-width="1.375" stroke="rgb(140, 86, 75)"/><path class="markmap-link" data-depth="3" data-path="1.15.17" d="M517,-84.953C557,-84.953,557,-71.453,597,-71.453" stroke-width="1.375" stroke="rgb(227, 119, 194)"/><path class="markmap-link" data-depth="3" data-path="1.21.22" d="M533,7.547C573,7.547,573,-6.328,613,-6.328" stroke-width="1.375" stroke="rgb(31, 119, 180)"/><path class="markmap-link" data-depth="3" data-path="1.21.23" d="M533,7.547C573,7.547,573,21.047,613,21.047" stroke-width="1.375" stroke="rgb(255, 127, 14)"/><path class="markmap-link" data-depth="4" data-path="1.24.28.29" d="M997,167.734C1037,167.734,1037,140.453,1077,140.453" stroke-width="1.1875" stroke="rgb(214, 39, 40)"/><path class="markmap-link" data-depth="4" data-path="1.24.28.30" d="M997,167.734C1037,167.734,1037,167.641,1077,167.641" stroke-width="1.1875" stroke="rgb(148, 103, 189)"/><path class="markmap-link" data-depth="4" data-path="1.24.28.31" d="M997,167.734C1037,167.734,1037,194.828,1077,194.828" stroke-width="1.1875" stroke="rgb(140, 86, 75)"/><path class="markmap-link" data-depth="3" data-path="1.24.25" d="M565,140.453C605,140.453,605,53.422,645,53.422" stroke-width="1.375" stroke="rgb(188, 189, 34)"/><path class="markmap-link" data-depth="3" data-path="1.24.26" d="M565,140.453C605,140.453,605,80.797,645,80.797" stroke-width="1.375" stroke="rgb(23, 190, 207)"/><path class="markmap-link" data-depth="3" data-path="1.24.27" d="M565,140.453C605,140.453,605,108.172,645,108.172" stroke-width="1.375" stroke="rgb(31, 119, 180)"/><path class="markmap-link" data-depth="3" data-path="1.24.28" d="M565,140.453C605,140.453,605,167.734,645,167.734" stroke-width="1.375" stroke="rgb(44, 160, 44)"/><path class="markmap-link" data-depth="3" data-path="1.24.32" d="M565,140.453C605,140.453,605,227.109,645,227.109" stroke-width="1.375" stroke="rgb(227, 119, 194)"/><path class="markmap-link" data-depth="4" data-path="1.33.35.36" d="M677,305.453C717,305.453,717,291.766,757,291.766" stroke-width="1.1875" stroke="rgb(127, 127, 127)"/><path class="markmap-link" data-depth="4" data-path="1.33.35.37" d="M677,305.453C717,305.453,717,318.953,757,318.953" stroke-width="1.1875" stroke="rgb(188, 189, 34)"/><path class="markmap-link" data-depth="3" data-path="1.33.34" d="M517,282.656C557,282.656,557,259.484,597,259.484" stroke-width="1.375" stroke="rgb(127, 127, 127)"/><path class="markmap-link" data-depth="3" data-path="1.33.35" d="M517,282.656C557,282.656,557,305.453,597,305.453" stroke-width="1.375" stroke="rgb(188, 189, 34)"/><path class="markmap-link" data-depth="3" data-path="1.38.39" d="M565,378.797C605,378.797,605,351.234,645,351.234" stroke-width="1.375" stroke="rgb(44, 160, 44)"/><path class="markmap-link" data-depth="3" data-path="1.38.40" d="M565,378.797C605,378.797,605,378.609,645,378.609" stroke-width="1.375" stroke="rgb(214, 39, 40)"/><path class="markmap-link" data-depth="3" data-path="1.38.41" d="M565,378.797C605,378.797,605,405.984,645,405.984" stroke-width="1.375" stroke="rgb(148, 103, 189)"/><path class="markmap-link" data-depth="2" data-path="1.2" d="M293,11.75C333,11.75,333,-356.047,373,-356.047" stroke-width="1.75" stroke="rgb(255, 127, 14)"/><path class="markmap-link" data-depth="2" data-path="1.3" d="M293,11.75C333,11.75,333,-328.297,373,-328.297" stroke-width="1.75" stroke="rgb(214, 39, 40)"/><path class="markmap-link" data-depth="2" data-path="1.4" d="M293,11.75C333,11.75,333,-219.984,373,-219.984" stroke-width="1.75" stroke="rgb(214, 39, 40)"/><path class="markmap-link" data-depth="2" data-path="1.15" d="M293,11.75C333,11.75,333,-84.953,373,-84.953" stroke-width="1.75" stroke="rgb(148, 103, 189)"/><path class="markmap-link" data-depth="2" data-path="1.20" d="M293,11.75C333,11.75,333,-38.891,373,-38.891" stroke-width="1.75" stroke="rgb(148, 103, 189)"/><path class="markmap-link" data-depth="2" data-path="1.21" d="M293,11.75C333,11.75,333,7.547,373,7.547" stroke-width="1.75" stroke="rgb(23, 190, 207)"/><path class="markmap-link" data-depth="2" data-path="1.24" d="M293,11.75C333,11.75,333,140.453,373,140.453" stroke-width="1.75" stroke="rgb(127, 127, 127)"/><path class="markmap-link" data-depth="2" data-path="1.33" d="M293,11.75C333,11.75,333,282.656,373,282.656" stroke-width="1.75" stroke="rgb(227, 119, 194)"/><path class="markmap-link" data-depth="2" data-path="1.38" d="M293,11.75C333,11.75,333,378.797,373,378.797" stroke-width="1.75" stroke="rgb(255, 127, 14)"/><g class="markmap-highlight"/><g data-depth="2" data-path="1.2" class="markmap-node" transform="translate(373, -377.921875)"><line stroke="#ff7f0e" stroke-width="1.75" x1="-1" x2="537" y1="21.875" y2="21.875"/><foreignObject class="markmap-foreign" x="8" y="0" style="opacity: 1;" width="519" height="21"><div xmlns="http://www.w3.org/1999/xhtml"><div xmlns="http://www.w3.org/1999/xhtml">自律性定义：<strong>无外来刺激</strong> -&gt; 自动发生<strong>节律性兴奋</strong> -&gt; 基础 = <strong>4 期自动去极化</strong></div></div></foreignObject></g><g data-depth="2" data-path="1.3" class="markmap-node" transform="translate(373, -350.171875)"><line stroke="#d62728" stroke-width="1.75" x1="-1" x2="314" y1="21.875" y2="21.875"/><foreignObject class="markmap-foreign" x="8" y="0" style="opacity: 1;" width="296" height="21"><div xmlns="http://www.w3.org/1999/xhtml"><div xmlns="http://www.w3.org/1999/xhtml">衡量指标：<strong>心率</strong>（高低）、<strong>心律</strong>（规整度）</div></div></foreignObject></g><g data-depth="4" data-path="1.4.5.6" class="markmap-node" transform="translate(935, -331.015625)"><line stroke="#8c564b" stroke-width="1.1875" x1="-1" x2="204" y1="21.59375" y2="21.59375"/><foreignObject class="markmap-foreign" x="8" y="0" style="opacity: 1;" width="186" height="21"><div xmlns="http://www.w3.org/1999/xhtml"><div xmlns="http://www.w3.org/1999/xhtml">自律性<strong>最高</strong>：约 <strong>100 次/分</strong></div></div></foreignObject></g><g data-depth="4" data-path="1.4.5.7" class="markmap-node" transform="translate(935, -303.828125)"><line stroke="#e377c2" stroke-width="1.1875" x1="-1" x2="199" y1="21.59375" y2="21.59375"/><foreignObject class="markmap-foreign" x="8" y="0" style="opacity: 1;" width="181" height="21"><div xmlns="http://www.w3.org/1999/xhtml"><div xmlns="http://www.w3.org/1999/xhtml">主导整个心脏 -&gt; <strong>窦性节律</strong></div></div></foreignObject></g><g data-depth="3" data-path="1.4.5" class="markmap-node" transform="translate(645, -317.421875)"><line stroke="#9467bd" stroke-width="1.375" x1="-1" x2="212" y1="21.6875" y2="21.6875"/><circle stroke-width="1.5" r="6" stroke="#9467bd" fill="var(--markmap-circle-open-bg)" cx="210" cy="21.6875"/><foreignObject class="markmap-foreign" x="8" y="0" style="opacity: 1;" width="194" height="21"><div xmlns="http://www.w3.org/1999/xhtml"><div xmlns="http://www.w3.org/1999/xhtml">正常起搏点：<strong>窦房结 P 细胞</strong></div></div></foreignObject></g><g data-depth="4" data-path="1.4.8.9" class="markmap-node" transform="translate(1029, -271.640625)"><line stroke="#bcbd22" stroke-width="1.1875" x1="-1" x2="178" y1="21.59375" y2="21.59375"/><foreignObject class="markmap-foreign" x="8" y="0" style="opacity: 1;" width="160" height="21"><div xmlns="http://www.w3.org/1999/xhtml"><div xmlns="http://www.w3.org/1999/xhtml">房室交界：约 <strong>50 次/分</strong></div></div></foreignObject></g><g data-depth="4" data-path="1.4.8.10" class="markmap-node" transform="translate(1029, -244.453125)"><line stroke="#17becf" stroke-width="1.1875" x1="-1" x2="194" y1="21.59375" y2="21.59375"/><foreignObject class="markmap-foreign" x="8" y="0" style="opacity: 1;" width="176" height="21"><div xmlns="http://www.w3.org/1999/xhtml"><div xmlns="http://www.w3.org/1999/xhtml">浦肯野细胞：约 <strong>25 次/分</strong></div></div></foreignObject></g><g data-depth="3" data-path="1.4.8" class="markmap-node" transform="translate(645, -258.046875)"><line stroke="#7f7f7f" stroke-width="1.375" x1="-1" x2="306" y1="21.6875" y2="21.6875"/><circle stroke-width="1.5" r="6" stroke="#7f7f7f" fill="var(--markmap-circle-open-bg)" cx="304" cy="21.6875"/><foreignObject class="markmap-foreign" x="8" y="0" style="opacity: 1;" width="288" height="21"><div xmlns="http://www.w3.org/1999/xhtml"><div xmlns="http://www.w3.org/1999/xhtml">潜在起搏点（自律性较低，正常不表现）</div></div></foreignObject></g><g data-depth="3" data-path="1.4.11" class="markmap-node" transform="translate(645, -212.265625)"><line stroke="#1f77b4" stroke-width="1.375" x1="-1" x2="439" y1="21.6875" y2="21.6875"/><foreignObject class="markmap-foreign" x="8" y="0" style="opacity: 1;" width="421" height="21"><div xmlns="http://www.w3.org/1999/xhtml"><div xmlns="http://www.w3.org/1999/xhtml">异位起搏点：潜在起搏点在病理情况下取而代之 -&gt; <strong>异位节律</strong></div></div></foreignObject></g><g data-depth="4" data-path="1.4.12.13" class="markmap-node" transform="translate(949, -179.890625)"><line stroke="#2ca02c" stroke-width="1.1875" x1="-1" x2="588" y1="21.59375" y2="21.59375"/><foreignObject class="markmap-foreign" x="8" y="0" style="opacity: 1;" width="570" height="21"><div xmlns="http://www.w3.org/1999/xhtml"><div xmlns="http://www.w3.org/1999/xhtml"><strong>抢先占领</strong>：窦房结自律性最高 -&gt; 抢先发放冲动 -&gt; 潜在起搏点未达阈电位即被兴奋</div></div></foreignObject></g><g data-depth="4" data-path="1.4.12.14" class="markmap-node" transform="translate(949, -152.703125)"><line stroke="#d62728" stroke-width="1.1875" x1="-1" x2="524" y1="21.59375" y2="21.59375"/><foreignObject class="markmap-foreign" x="8" y="0" style="opacity: 1;" width="506" height="21"><div xmlns="http://www.w3.org/1999/xhtml"><div xmlns="http://www.w3.org/1999/xhtml"><strong>超速驱动压抑</strong>：窦房结频率快 -&gt; 持续快速驱动 -&gt; 压抑潜在起搏点自律性</div></div></foreignObject></g><g data-depth="3" data-path="1.4.12" class="markmap-node" transform="translate(645, -166.296875)"><line stroke="#ff7f0e" stroke-width="1.375" x1="-1" x2="226" y1="21.6875" y2="21.6875"/><circle stroke-width="1.5" r="6" stroke="#ff7f0e" fill="var(--markmap-circle-open-bg)" cx="224" cy="21.6875"/><foreignObject class="markmap-foreign" x="8" y="0" style="opacity: 1;" width="208" height="21"><div xmlns="http://www.w3.org/1999/xhtml"><div xmlns="http://www.w3.org/1999/xhtml">窦房结控制潜在起搏点的机制</div></div></foreignObject></g><g data-depth="2" data-path="1.4" class="markmap-node" transform="translate(373, -241.859375)"><line stroke="#d62728" stroke-width="1.75" x1="-1" x2="194" y1="21.875" y2="21.875"/><circle stroke-width="1.5" r="6" stroke="#d62728" fill="var(--markmap-circle-open-bg)" cx="192" cy="21.875"/><foreignObject class="markmap-foreign" x="8" y="0" style="opacity: 1;" width="176" height="21"><div xmlns="http://www.w3.org/1999/xhtml"><div xmlns="http://www.w3.org/1999/xhtml">心脏的起搏点（★必考）</div></div></foreignObject></g><g data-depth="3" data-path="1.15.16" class="markmap-node" transform="translate(597, -120.515625)"><line stroke="#8c564b" stroke-width="1.375" x1="-1" x2="387" y1="21.6875" y2="21.6875"/><foreignObject class="markmap-foreign" x="8" y="0" style="opacity: 1;" width="369" height="21"><div xmlns="http://www.w3.org/1999/xhtml"><div xmlns="http://www.w3.org/1999/xhtml">最大复极电位与阈电位<strong>差距</strong>：差距↑ -&gt; 自律性**↓**</div></div></foreignObject></g><g data-depth="4" data-path="1.15.17.18" class="markmap-node" transform="translate(1083, -106.734375)"><line stroke="#7f7f7f" stroke-width="1.1875" x1="-1" x2="422" y1="21.59375" y2="21.59375"/><foreignObject class="markmap-foreign" x="8" y="0" style="opacity: 1;" width="404" height="21"><div xmlns="http://www.w3.org/1999/xhtml"><div xmlns="http://www.w3.org/1999/xhtml">交感神经 -&gt; 4 期去极速度↑ -&gt; 自律性**↑** -&gt; 心率**↑**</div></div></foreignObject></g><g data-depth="4" data-path="1.15.17.19" class="markmap-node" transform="translate(1083, -79.546875)"><line stroke="#bcbd22" stroke-width="1.1875" x1="-1" x2="422" y1="21.59375" y2="21.59375"/><foreignObject class="markmap-foreign" x="8" y="0" style="opacity: 1;" width="404" height="21"><div xmlns="http://www.w3.org/1999/xhtml"><div xmlns="http://www.w3.org/1999/xhtml">迷走神经 -&gt; 4 期去极速度↓ -&gt; 自律性**↓** -&gt; 心率**↓**</div></div></foreignObject></g><g data-depth="3" data-path="1.15.17" class="markmap-node" transform="translate(597, -93.140625)"><line stroke="#e377c2" stroke-width="1.375" x1="-1" x2="408" y1="21.6875" y2="21.6875"/><circle stroke-width="1.5" r="6" stroke="#e377c2" fill="var(--markmap-circle-open-bg)" cx="406" cy="21.6875"/><foreignObject class="markmap-foreign" x="8" y="0" style="opacity: 1;" width="390" height="21"><div xmlns="http://www.w3.org/1999/xhtml"><div xmlns="http://www.w3.org/1999/xhtml"><strong>4 期自动去极化速率</strong>（最重要）：速率↑ -&gt; 自律性**↑**</div></div></foreignObject></g><g data-depth="2" data-path="1.15" class="markmap-node" transform="translate(373, -106.828125)"><line stroke="#9467bd" stroke-width="1.75" x1="-1" x2="146" y1="21.875" y2="21.875"/><circle stroke-width="1.5" r="6" stroke="#9467bd" fill="var(--markmap-circle-open-bg)" cx="144" cy="21.875"/><foreignObject class="markmap-foreign" x="8" y="0" style="opacity: 1;" width="128" height="21"><div xmlns="http://www.w3.org/1999/xhtml"><div xmlns="http://www.w3.org/1999/xhtml">影响自律性的因素</div></div></foreignObject></g><g data-depth="2" data-path="1.20" class="markmap-node" transform="translate(373, -60.765625)"><line stroke="#9467bd" stroke-width="1.75" x1="-1" x2="423" y1="21.875" y2="21.875"/><foreignObject class="markmap-foreign" x="8" y="0" style="opacity: 1;" width="405" height="21"><div xmlns="http://www.w3.org/1999/xhtml"><div xmlns="http://www.w3.org/1999/xhtml">心肌传导性定义：传导兴奋的能力 -&gt; 衡量指标：<strong>传播速度</strong></div></div></foreignObject></g><g data-depth="3" data-path="1.21.22" class="markmap-node" transform="translate(613, -28.015625)"><line stroke="#1f77b4" stroke-width="1.375" x1="-1" x2="668" y1="21.6875" y2="21.6875"/><foreignObject class="markmap-foreign" x="8" y="0" style="opacity: 1;" width="650" height="21"><div xmlns="http://www.w3.org/1999/xhtml"><div xmlns="http://www.w3.org/1999/xhtml">窦房结 -&gt; 心房肌（优势传导通路）-&gt; <strong>房室交界</strong> -&gt; 房室束 -&gt; 左右束支 -&gt; <strong>浦肯野纤维</strong> -&gt; 心室肌</div></div></foreignObject></g><g data-depth="3" data-path="1.21.23" class="markmap-node" transform="translate(613, -0.6406250596046448)"><line stroke="#ff7f0e" stroke-width="1.375" x1="-1" x2="327" y1="21.6875" y2="21.6875"/><foreignObject class="markmap-foreign" x="8" y="0" style="opacity: 1;" width="309" height="21"><div xmlns="http://www.w3.org/1999/xhtml"><div xmlns="http://www.w3.org/1999/xhtml">传导速度：浦肯野纤维<strong>最快</strong> -&gt; 房室交界<strong>最慢</strong></div></div></foreignObject></g><g data-depth="2" data-path="1.21" class="markmap-node" transform="translate(373, -14.328125)"><line stroke="#17becf" stroke-width="1.75" x1="-1" x2="162" y1="21.875" y2="21.875"/><circle stroke-width="1.5" r="6" stroke="#17becf" fill="var(--markmap-circle-open-bg)" cx="160" cy="21.875"/><foreignObject class="markmap-foreign" x="8" y="0" style="opacity: 1;" width="144" height="21"><div xmlns="http://www.w3.org/1999/xhtml"><div xmlns="http://www.w3.org/1999/xhtml">心脏内兴奋传导途径</div></div></foreignObject></g><g data-depth="3" data-path="1.24.25" class="markmap-node" transform="translate(645, 31.734375)"><line stroke="#bcbd22" stroke-width="1.375" x1="-1" x2="398" y1="21.6875" y2="21.6875"/><foreignObject class="markmap-foreign" x="8" y="0" style="opacity: 1;" width="380" height="21"><div xmlns="http://www.w3.org/1999/xhtml"><div xmlns="http://www.w3.org/1999/xhtml">位置：<strong>房室交界</strong> -&gt; 传导速度<strong>最慢</strong>（仅 0.02~0.05 m/s）</div></div></foreignObject></g><g data-depth="3" data-path="1.24.26" class="markmap-node" transform="translate(645, 59.109375)"><line stroke="#17becf" stroke-width="1.375" x1="-1" x2="118" y1="21.6875" y2="21.6875"/><foreignObject class="markmap-foreign" x="8" y="0" style="opacity: 1;" width="100" height="21"><div xmlns="http://www.w3.org/1999/xhtml"><div xmlns="http://www.w3.org/1999/xhtml">耗时：约 <strong>0.1s</strong></div></div></foreignObject></g><g data-depth="3" data-path="1.24.27" class="markmap-node" transform="translate(645, 86.484375)"><line stroke="#1f77b4" stroke-width="1.375" x1="-1" x2="548" y1="21.6875" y2="21.6875"/><foreignObject class="markmap-foreign" x="8" y="0" style="opacity: 1;" width="530" height="21"><div xmlns="http://www.w3.org/1999/xhtml"><div xmlns="http://www.w3.org/1999/xhtml">机制：房室交界细胞为<strong>慢反应细胞</strong> -&gt; 0 期 Ca²⁺ 内流 -&gt; 去极速度慢 -&gt; 传导慢</div></div></foreignObject></g><g data-depth="4" data-path="1.24.28.29" class="markmap-node" transform="translate(1077, 118.859375)"><line stroke="#d62728" stroke-width="1.1875" x1="-1" x2="179" y1="21.59375" y2="21.59375"/><foreignObject class="markmap-foreign" x="8" y="0" style="opacity: 1;" width="161" height="21"><div xmlns="http://www.w3.org/1999/xhtml"><div xmlns="http://www.w3.org/1999/xhtml">-&gt; 心室有充分时间<strong>充盈</strong></div></div></foreignObject></g><g data-depth="4" data-path="1.24.28.30" class="markmap-node" transform="translate(1077, 146.046875)"><line stroke="#9467bd" stroke-width="1.1875" x1="-1" x2="163" y1="21.59375" y2="21.59375"/><foreignObject class="markmap-foreign" x="8" y="0" style="opacity: 1;" width="145" height="21"><div xmlns="http://www.w3.org/1999/xhtml"><div xmlns="http://www.w3.org/1999/xhtml">-&gt; 防止房室<strong>同时收缩</strong></div></div></foreignObject></g><g data-depth="4" data-path="1.24.28.31" class="markmap-node" transform="translate(1077, 173.234375)"><line stroke="#8c564b" stroke-width="1.1875" x1="-1" x2="131" y1="21.59375" y2="21.59375"/><foreignObject class="markmap-foreign" x="8" y="0" style="opacity: 1;" width="113" height="21"><div xmlns="http://www.w3.org/1999/xhtml"><div xmlns="http://www.w3.org/1999/xhtml">-&gt; 利于心室<strong>射血</strong></div></div></foreignObject></g><g data-depth="3" data-path="1.24.28" class="markmap-node" transform="translate(645, 146.046875)"><line stroke="#2ca02c" stroke-width="1.375" x1="-1" x2="354" y1="21.6875" y2="21.6875"/><circle stroke-width="1.5" r="6" stroke="#2ca02c" fill="var(--markmap-circle-open-bg)" cx="352" cy="21.6875"/><foreignObject class="markmap-foreign" x="8" y="0" style="opacity: 1;" width="336" height="21"><div xmlns="http://www.w3.org/1999/xhtml"><div xmlns="http://www.w3.org/1999/xhtml">生理意义：保证<strong>心房收缩完毕后</strong>心室才开始收缩</div></div></foreignObject></g><g data-depth="3" data-path="1.24.32" class="markmap-node" transform="translate(645, 205.421875)"><line stroke="#e377c2" stroke-width="1.375" x1="-1" x2="524" y1="21.6875" y2="21.6875"/><foreignObject class="markmap-foreign" x="8" y="0" style="opacity: 1;" width="506" height="21"><div xmlns="http://www.w3.org/1999/xhtml"><div xmlns="http://www.w3.org/1999/xhtml">临床联系：房室传导阻滞 -&gt; 房室延搁延长或中断 -&gt; 影响心室充盈和射血</div></div></foreignObject></g><g data-depth="2" data-path="1.24" class="markmap-node" transform="translate(373, 118.578125)"><line stroke="#7f7f7f" stroke-width="1.75" x1="-1" x2="194" y1="21.875" y2="21.875"/><circle stroke-width="1.5" r="6" stroke="#7f7f7f" fill="var(--markmap-circle-open-bg)" cx="192" cy="21.875"/><foreignObject class="markmap-foreign" x="8" y="0" style="opacity: 1;" width="176" height="21"><div xmlns="http://www.w3.org/1999/xhtml"><div xmlns="http://www.w3.org/1999/xhtml">房室延搁（★必考大题）</div></div></foreignObject></g><g data-depth="3" data-path="1.33.34" class="markmap-node" transform="translate(597, 237.796875)"><line stroke="#7f7f7f" stroke-width="1.375" x1="-1" x2="412" y1="21.6875" y2="21.6875"/><foreignObject class="markmap-foreign" x="8" y="0" style="opacity: 1;" width="394" height="21"><div xmlns="http://www.w3.org/1999/xhtml"><div xmlns="http://www.w3.org/1999/xhtml">结构因素：细胞<strong>直径</strong>大 -&gt; 传导快；<strong>缝隙连接</strong>多 -&gt; 传导快</div></div></foreignObject></g><g data-depth="4" data-path="1.33.35.36" class="markmap-node" transform="translate(757, 270.171875)"><line stroke="#7f7f7f" stroke-width="1.1875" x1="-1" x2="368" y1="21.59375" y2="21.59375"/><foreignObject class="markmap-foreign" x="8" y="0" style="opacity: 1;" width="350" height="21"><div xmlns="http://www.w3.org/1999/xhtml"><div xmlns="http://www.w3.org/1999/xhtml"><strong>0 期去极速度与幅度</strong>：速度↑幅度↑ -&gt; 传导**↑**</div></div></foreignObject></g><g data-depth="4" data-path="1.33.35.37" class="markmap-node" transform="translate(757, 297.359375)"><line stroke="#bcbd22" stroke-width="1.1875" x1="-1" x2="355" y1="21.59375" y2="21.59375"/><foreignObject class="markmap-foreign" x="8" y="0" style="opacity: 1;" width="337" height="21"><div xmlns="http://www.w3.org/1999/xhtml"><div xmlns="http://www.w3.org/1999/xhtml"><strong>邻近未兴奋膜的兴奋性</strong>：兴奋性↑ -&gt; 传导**↑**</div></div></foreignObject></g><g data-depth="3" data-path="1.33.35" class="markmap-node" transform="translate(597, 283.765625)"><line stroke="#bcbd22" stroke-width="1.375" x1="-1" x2="82" y1="21.6875" y2="21.6875"/><circle stroke-width="1.5" r="6" stroke="#bcbd22" fill="var(--markmap-circle-open-bg)" cx="80" cy="21.6875"/><foreignObject class="markmap-foreign" x="8" y="0" style="opacity: 1;" width="64" height="21"><div xmlns="http://www.w3.org/1999/xhtml"><div xmlns="http://www.w3.org/1999/xhtml">生理因素</div></div></foreignObject></g><g data-depth="2" data-path="1.33" class="markmap-node" transform="translate(373, 260.78125)"><line stroke="#e377c2" stroke-width="1.75" x1="-1" x2="146" y1="21.875" y2="21.875"/><circle stroke-width="1.5" r="6" stroke="#e377c2" fill="var(--markmap-circle-open-bg)" cx="144" cy="21.875"/><foreignObject class="markmap-foreign" x="8" y="0" style="opacity: 1;" width="128" height="21"><div xmlns="http://www.w3.org/1999/xhtml"><div xmlns="http://www.w3.org/1999/xhtml">影响传导性的因素</div></div></foreignObject></g><g data-depth="3" data-path="1.38.39" class="markmap-node" transform="translate(645, 329.546875)"><line stroke="#2ca02c" stroke-width="1.375" x1="-1" x2="403" y1="21.6875" y2="21.6875"/><foreignObject class="markmap-foreign" x="8" y="0" style="opacity: 1;" width="385" height="21"><div xmlns="http://www.w3.org/1999/xhtml"><div xmlns="http://www.w3.org/1999/xhtml">兴奋性：能产生 AP -&gt; 衡量：阈值 -&gt; ERP 最长 = 不强制</div></div></foreignObject></g><g data-depth="3" data-path="1.38.40" class="markmap-node" transform="translate(645, 356.921875)"><line stroke="#d62728" stroke-width="1.375" x1="-1" x2="485" y1="21.6875" y2="21.6875"/><foreignObject class="markmap-foreign" x="8" y="0" style="opacity: 1;" width="467" height="21"><div xmlns="http://www.w3.org/1999/xhtml"><div xmlns="http://www.w3.org/1999/xhtml">自律性：能自动产生 AP -&gt; 衡量：心率/心律 -&gt; 基础 = 4 期自动去极</div></div></foreignObject></g><g data-depth="3" data-path="1.38.41" class="markmap-node" transform="translate(645, 384.296875)"><line stroke="#9467bd" stroke-width="1.375" x1="-1" x2="514" y1="21.6875" y2="21.6875"/><foreignObject class="markmap-foreign" x="8" y="0" style="opacity: 1;" width="496" height="21"><div xmlns="http://www.w3.org/1999/xhtml"><div xmlns="http://www.w3.org/1999/xhtml">传导性：能传导 AP -&gt; 衡量：传播速度 -&gt; 房室延搁 = 最慢 = 保护性延迟</div></div></foreignObject></g><g data-depth="2" data-path="1.38" class="markmap-node" transform="translate(373, 356.921875)"><line stroke="#ff7f0e" stroke-width="1.75" x1="-1" x2="194" y1="21.875" y2="21.875"/><circle stroke-width="1.5" r="6" stroke="#ff7f0e" fill="var(--markmap-circle-open-bg)" cx="192" cy="21.875"/><foreignObject class="markmap-foreign" x="8" y="0" style="opacity: 1;" width="176" height="21"><div xmlns="http://www.w3.org/1999/xhtml"><div xmlns="http://www.w3.org/1999/xhtml">三大电生理特性对比速查</div></div></foreignObject></g><g data-depth="1" data-path="1" class="markmap-node" transform="translate(0, -10.5)"><line stroke="#1f77b4" stroke-width="2.5" x1="-1" x2="295" y1="22.25" y2="22.25"/><circle stroke-width="1.5" r="6" stroke="#1f77b4" fill="var(--markmap-circle-open-bg)" cx="293" cy="22.25"/><foreignObject class="markmap-foreign" x="8" y="0" style="opacity: 1;" width="277" height="21"><div xmlns="http://www.w3.org/1999/xhtml"><div xmlns="http://www.w3.org/1999/xhtml">心肌的自律性与传导性 — 极简速记导图</div></div></foreignObject></g></g></svg>