<svg xmlns="http://www.w3.org/2000/svg" class="w-full h-full leading-none markmap mm-gpvzjv-1" style=""><style>.markmap{--markmap-max-width: 9999px;--markmap-a-color: #0097e6;--markmap-a-hover-color: #00a8ff;--markmap-code-bg: #f0f0f0;--markmap-code-color: #555;--markmap-highlight-bg: #ffeaa7;--markmap-table-border: 1px solid currentColor;--markmap-font: 300 16px/20px sans-serif;--markmap-circle-open-bg: #fff;--markmap-text-color: #333;--markmap-highlight-node-bg: #ff02;font:var(--markmap-font);color:var(--markmap-text-color)}.markmap-link{fill:none}.markmap-node&gt;circle{cursor:pointer}.markmap-foreign{display:inline-block}.markmap-foreign p{margin:0}.markmap-foreign a{color:var(--markmap-a-color)}.markmap-foreign a:hover{color:var(--markmap-a-hover-color)}.markmap-foreign code{padding:.25em;font-size:calc(1em - 2px);color:var(--markmap-code-color);background-color:var(--markmap-code-bg);border-radius:2px}.markmap-foreign pre{margin:0}.markmap-foreign pre&gt;code{display:block}.markmap-foreign del{text-decoration:line-through}.markmap-foreign em{font-style:italic}.markmap-foreign strong{font-weight:700}.markmap-foreign mark{background:var(--markmap-highlight-bg)}.markmap-foreign table,.markmap-foreign th,.markmap-foreign td{border-collapse:collapse;border:var(--markmap-table-border)}.markmap-foreign img{display:inline-block}.markmap-foreign svg{fill:currentColor}.markmap-foreign&gt;div{width:var(--markmap-max-width);text-align:left}.markmap-foreign&gt;div&gt;div{display:inline-block}.markmap-highlight rect{fill:var(--markmap-highlight-node-bg)}.markmap-dark .markmap{--markmap-code-bg: #1a1b26;--markmap-code-color: #ddd;--markmap-circle-open-bg: #444;--markmap-text-color: #eee}</style><g transform="translate(27.853493072782044,324.7014546949704) scale(0.3672592768070078)"><path class="markmap-link" data-depth="4" data-path="1.3.5.6" d="M770,-178.125C810,-178.125,810,-191.812,850,-191.812" stroke-width="1.1875" stroke="rgb(255, 127, 14)"/><path class="markmap-link" data-depth="4" data-path="1.3.5.7" d="M770,-178.125C810,-178.125,810,-164.625,850,-164.625" stroke-width="1.1875" stroke="rgb(44, 160, 44)"/><path class="markmap-link" data-depth="3" data-path="1.3.4" d="M539,-200.922C579,-200.922,579,-224.094,619,-224.094" stroke-width="1.375" stroke="rgb(227, 119, 194)"/><path class="markmap-link" data-depth="3" data-path="1.3.5" d="M539,-200.922C579,-200.922,579,-178.125,619,-178.125" stroke-width="1.375" stroke="rgb(127, 127, 127)"/><path class="markmap-link" data-depth="4" data-path="1.8.9.10" d="M882,-105.156C922,-105.156,922,-132.437,962,-132.437" stroke-width="1.1875" stroke="rgb(140, 86, 75)"/><path class="markmap-link" data-depth="4" data-path="1.8.9.11" d="M882,-105.156C922,-105.156,922,-105.25,962,-105.25" stroke-width="1.1875" stroke="rgb(227, 119, 194)"/><path class="markmap-link" data-depth="4" data-path="1.8.9.12" d="M882,-105.156C922,-105.156,922,-78.062,962,-78.062" stroke-width="1.1875" stroke="rgb(127, 127, 127)"/><path class="markmap-link" data-depth="4" data-path="1.8.13.14" d="M883,-45.781C923,-45.781,923,-45.875,963,-45.875" stroke-width="1.1875" stroke="rgb(214, 39, 40)"/><path class="markmap-link" data-depth="4" data-path="1.8.15.16" d="M852,0.188C892,0.188,892,-13.5,932,-13.5" stroke-width="1.1875" stroke="rgb(255, 127, 14)"/><path class="markmap-link" data-depth="4" data-path="1.8.15.17" d="M852,0.188C892,0.188,892,13.688,932,13.688" stroke-width="1.1875" stroke="rgb(44, 160, 44)"/><path class="markmap-link" data-depth="3" data-path="1.8.9" d="M635,-52.297C675,-52.297,675,-105.156,715,-105.156" stroke-width="1.375" stroke="rgb(148, 103, 189)"/><path class="markmap-link" data-depth="3" data-path="1.8.13" d="M635,-52.297C675,-52.297,675,-45.781,715,-45.781" stroke-width="1.375" stroke="rgb(127, 127, 127)"/><path class="markmap-link" data-depth="3" data-path="1.8.15" d="M635,-52.297C675,-52.297,675,0.188,715,0.188" stroke-width="1.375" stroke="rgb(31, 119, 180)"/><path class="markmap-link" data-depth="3" data-path="1.18.19" d="M651,73.531C691,73.531,691,45.969,731,45.969" stroke-width="1.375" stroke="rgb(23, 190, 207)"/><path class="markmap-link" data-depth="3" data-path="1.18.20" d="M651,73.531C691,73.531,691,73.344,731,73.344" stroke-width="1.375" stroke="rgb(31, 119, 180)"/><path class="markmap-link" data-depth="3" data-path="1.18.21" d="M651,73.531C691,73.531,691,100.719,731,100.719" stroke-width="1.375" stroke="rgb(255, 127, 14)"/><path class="markmap-link" data-depth="4" data-path="1.22.23.24" d="M806,146.688C846,146.688,846,133,886,133" stroke-width="1.1875" stroke="rgb(227, 119, 194)"/><path class="markmap-link" data-depth="4" data-path="1.22.23.25" d="M806,146.688C846,146.688,846,160.188,886,160.188" stroke-width="1.1875" stroke="rgb(127, 127, 127)"/><path class="markmap-link" data-depth="4" data-path="1.22.26.27" d="M806,206.063C846,206.063,846,192.375,886,192.375" stroke-width="1.1875" stroke="rgb(148, 103, 189)"/><path class="markmap-link" data-depth="4" data-path="1.22.26.28" d="M806,206.063C846,206.063,846,219.563,886,219.563" stroke-width="1.1875" stroke="rgb(140, 86, 75)"/><path class="markmap-link" data-depth="3" data-path="1.22.23" d="M635,176.563C675,176.563,675,146.688,715,146.688" stroke-width="1.375" stroke="rgb(188, 189, 34)"/><path class="markmap-link" data-depth="3" data-path="1.22.26" d="M635,176.563C675,176.563,675,206.063,715,206.063" stroke-width="1.375" stroke="rgb(255, 127, 14)"/><path class="markmap-link" data-depth="3" data-path="1.29.30" d="M475,279.406C515,279.406,515,251.844,555,251.844" stroke-width="1.375" stroke="rgb(214, 39, 40)"/><path class="markmap-link" data-depth="3" data-path="1.29.31" d="M475,279.406C515,279.406,515,279.219,555,279.219" stroke-width="1.375" stroke="rgb(148, 103, 189)"/><path class="markmap-link" data-depth="3" data-path="1.29.32" d="M475,279.406C515,279.406,515,306.594,555,306.594" stroke-width="1.375" stroke="rgb(140, 86, 75)"/><path class="markmap-link" data-depth="2" data-path="1.2" d="M304,11.75C344,11.75,344,-256.656,384,-256.656" stroke-width="1.75" stroke="rgb(255, 127, 14)"/><path class="markmap-link" data-depth="2" data-path="1.3" d="M304,11.75C344,11.75,344,-200.922,384,-200.922" stroke-width="1.75" stroke="rgb(140, 86, 75)"/><path class="markmap-link" data-depth="2" data-path="1.8" d="M304,11.75C344,11.75,344,-52.297,384,-52.297" stroke-width="1.75" stroke="rgb(214, 39, 40)"/><path class="markmap-link" data-depth="2" data-path="1.18" d="M304,11.75C344,11.75,344,73.531,384,73.531" stroke-width="1.75" stroke="rgb(188, 189, 34)"/><path class="markmap-link" data-depth="2" data-path="1.22" d="M304,11.75C344,11.75,344,176.563,384,176.563" stroke-width="1.75" stroke="rgb(127, 127, 127)"/><path class="markmap-link" data-depth="2" data-path="1.29" d="M304,11.75C344,11.75,344,279.406,384,279.406" stroke-width="1.75" stroke="rgb(44, 160, 44)"/><g class="markmap-highlight"/><g data-depth="2" data-path="1.2" class="markmap-node" transform="translate(384, -278.53125)"><line stroke="#ff7f0e" stroke-width="1.75" x1="-1" x2="482" y1="21.875" y2="21.875"/><foreignObject class="markmap-foreign" x="8" y="0" style="opacity: 1;" width="464" height="21"><div xmlns="http://www.w3.org/1999/xhtml"><div xmlns="http://www.w3.org/1999/xhtml">兴奋性定义：心肌受刺激产生<strong>动作电位</strong>的能力 -&gt; 衡量指标：<strong>阈值</strong>   </div></div></foreignObject></g><g data-depth="3" data-path="1.3.4" class="markmap-node" transform="translate(619, -245.78125)"><line stroke="#e377c2" stroke-width="1.375" x1="-1" x2="467" y1="21.6875" y2="21.6875"/><foreignObject class="markmap-foreign" x="8" y="0" style="opacity: 1;" width="449" height="21"><div xmlns="http://www.w3.org/1999/xhtml"><div xmlns="http://www.w3.org/1999/xhtml">静息电位与阈电位<strong>差距</strong>：差距↑ -&gt; 所需刺激↑ -&gt; 兴奋性**↓**   </div></div></foreignObject></g><g data-depth="4" data-path="1.3.5.6" class="markmap-node" transform="translate(850, -213.40625)"><line stroke="#ff7f0e" stroke-width="1.1875" x1="-1" x2="625" y1="21.59375" y2="21.59375"/><foreignObject class="markmap-foreign" x="8" y="0" style="opacity: 1;" width="607" height="21"><div xmlns="http://www.w3.org/1999/xhtml"><div xmlns="http://www.w3.org/1999/xhtml">备用（关闭可激活）-&gt; 激活（开放）-&gt; 失活（关闭不可激活）-&gt; 复活（失活→备用）   </div></div></foreignObject></g><g data-depth="4" data-path="1.3.5.7" class="markmap-node" transform="translate(850, -186.21875)"><line stroke="#2ca02c" stroke-width="1.1875" x1="-1" x2="283" y1="21.59375" y2="21.59375"/><foreignObject class="markmap-foreign" x="8" y="0" style="opacity: 1;" width="265" height="21"><div xmlns="http://www.w3.org/1999/xhtml"><div xmlns="http://www.w3.org/1999/xhtml">Na⁺ 通道只有在<strong>备用</strong>状态才能被激活   </div></div></foreignObject></g><g data-depth="3" data-path="1.3.5" class="markmap-node" transform="translate(619, -199.8125)"><line stroke="#7f7f7f" stroke-width="1.375" x1="-1" x2="153" y1="21.6875" y2="21.6875"/><circle stroke-width="1.5" r="6" stroke="#7f7f7f" fill="var(--markmap-circle-open-bg)" cx="151" cy="21.6875"/><foreignObject class="markmap-foreign" x="8" y="0" style="opacity: 1;" width="135" height="21"><div xmlns="http://www.w3.org/1999/xhtml"><div xmlns="http://www.w3.org/1999/xhtml">0 期离子通道<strong>性状</strong>   </div></div></foreignObject></g><g data-depth="2" data-path="1.3" class="markmap-node" transform="translate(384, -222.796875)"><line stroke="#8c564b" stroke-width="1.75" x1="-1" x2="157" y1="21.875" y2="21.875"/><circle stroke-width="1.5" r="6" stroke="#8c564b" fill="var(--markmap-circle-open-bg)" cx="155" cy="21.875"/><foreignObject class="markmap-foreign" x="8" y="0" style="opacity: 1;" width="139" height="21"><div xmlns="http://www.w3.org/1999/xhtml"><div xmlns="http://www.w3.org/1999/xhtml">影响兴奋性的因素   </div></div></foreignObject></g><g data-depth="4" data-path="1.8.9.10" class="markmap-node" transform="translate(962, -154.03125)"><line stroke="#8c564b" stroke-width="1.1875" x1="-1" x2="587" y1="21.59375" y2="21.59375"/><foreignObject class="markmap-foreign" x="8" y="0" style="opacity: 1;" width="569" height="21"><div xmlns="http://www.w3.org/1999/xhtml"><div xmlns="http://www.w3.org/1999/xhtml">绝对不应期：0 期 -&gt; 复极至 <strong>-55mV</strong> -&gt; Na⁺ 通道<strong>完全失活</strong> -&gt; 对任何刺激<strong>均无反应</strong>   </div></div></foreignObject></g><g data-depth="4" data-path="1.8.9.11" class="markmap-node" transform="translate(962, -126.84375)"><line stroke="#e377c2" stroke-width="1.1875" x1="-1" x2="701" y1="21.59375" y2="21.59375"/><foreignObject class="markmap-foreign" x="8" y="0" style="opacity: 1;" width="683" height="21"><div xmlns="http://www.w3.org/1999/xhtml"><div xmlns="http://www.w3.org/1999/xhtml">局部反应期：<strong>-55mV → -60mV</strong> -&gt; Na⁺ 通道刚开始复活 -&gt; 强刺激仅产生<strong>局部反应</strong> -&gt; <strong>不能产生 AP</strong>   </div></div></foreignObject></g><g data-depth="4" data-path="1.8.9.12" class="markmap-node" transform="translate(962, -99.65625)"><line stroke="#7f7f7f" stroke-width="1.1875" x1="-1" x2="362" y1="21.59375" y2="21.59375"/><foreignObject class="markmap-foreign" x="8" y="0" style="opacity: 1;" width="344" height="21"><div xmlns="http://www.w3.org/1999/xhtml"><div xmlns="http://www.w3.org/1999/xhtml">ERP = 绝对不应期 + 局部反应期 = 0 期到 <strong>-60mV</strong>   </div></div></foreignObject></g><g data-depth="3" data-path="1.8.9" class="markmap-node" transform="translate(715, -126.84375)"><line stroke="#9467bd" stroke-width="1.375" x1="-1" x2="169" y1="21.6875" y2="21.6875"/><circle stroke-width="1.5" r="6" stroke="#9467bd" fill="var(--markmap-circle-open-bg)" cx="167" cy="21.6875"/><foreignObject class="markmap-foreign" x="8" y="0" style="opacity: 1;" width="151" height="21"><div xmlns="http://www.w3.org/1999/xhtml"><div xmlns="http://www.w3.org/1999/xhtml">有效不应期（ERP）   </div></div></foreignObject></g><g data-depth="4" data-path="1.8.13.14" class="markmap-node" transform="translate(963, -67.46875)"><line stroke="#d62728" stroke-width="1.1875" x1="-1" x2="648" y1="21.59375" y2="21.59375"/><foreignObject class="markmap-foreign" x="8" y="0" style="opacity: 1;" width="630" height="21"><div xmlns="http://www.w3.org/1999/xhtml"><div xmlns="http://www.w3.org/1999/xhtml"><strong>-60mV → -80mV</strong> -&gt; Na⁺ 通道<strong>大部分复活</strong> -&gt; 需<strong>阈上刺激</strong> -&gt; 可产生 AP（幅度小、0 期慢）   </div></div></foreignObject></g><g data-depth="3" data-path="1.8.13" class="markmap-node" transform="translate(715, -67.46875)"><line stroke="#7f7f7f" stroke-width="1.375" x1="-1" x2="170" y1="21.6875" y2="21.6875"/><circle stroke-width="1.5" r="6" stroke="#7f7f7f" fill="var(--markmap-circle-open-bg)" cx="168" cy="21.6875"/><foreignObject class="markmap-foreign" x="8" y="0" style="opacity: 1;" width="152" height="21"><div xmlns="http://www.w3.org/1999/xhtml"><div xmlns="http://www.w3.org/1999/xhtml">相对不应期（RRP）   </div></div></foreignObject></g><g data-depth="4" data-path="1.8.15.16" class="markmap-node" transform="translate(932, -35.09375)"><line stroke="#ff7f0e" stroke-width="1.1875" x1="-1" x2="620" y1="21.59375" y2="21.59375"/><foreignObject class="markmap-foreign" x="8" y="0" style="opacity: 1;" width="602" height="21"><div xmlns="http://www.w3.org/1999/xhtml"><div xmlns="http://www.w3.org/1999/xhtml"><strong>-80mV → -90mV</strong> -&gt; Na⁺ 通道完全<strong>复活至备用</strong> -&gt; 距阈电位<strong>近</strong> -&gt; <strong>阈下刺激</strong>即可产生 AP   </div></div></foreignObject></g><g data-depth="4" data-path="1.8.15.17" class="markmap-node" transform="translate(932, -7.90625)"><line stroke="#2ca02c" stroke-width="1.1875" x1="-1" x2="364" y1="21.59375" y2="21.59375"/><foreignObject class="markmap-foreign" x="8" y="0" style="opacity: 1;" width="346" height="21"><div xmlns="http://www.w3.org/1999/xhtml"><div xmlns="http://www.w3.org/1999/xhtml">兴奋性<strong>高于</strong>正常 -&gt; 但 AP 幅度和速度仍<strong>低于</strong>正常   </div></div></foreignObject></g><g data-depth="3" data-path="1.8.15" class="markmap-node" transform="translate(715, -21.5)"><line stroke="#1f77b4" stroke-width="1.375" x1="-1" x2="139" y1="21.6875" y2="21.6875"/><circle stroke-width="1.5" r="6" stroke="#1f77b4" fill="var(--markmap-circle-open-bg)" cx="137" cy="21.6875"/><foreignObject class="markmap-foreign" x="8" y="0" style="opacity: 1;" width="121" height="21"><div xmlns="http://www.w3.org/1999/xhtml"><div xmlns="http://www.w3.org/1999/xhtml">超常期（SNP）   </div></div></foreignObject></g><g data-depth="2" data-path="1.8" class="markmap-node" transform="translate(384, -74.171875)"><line stroke="#d62728" stroke-width="1.75" x1="-1" x2="253" y1="21.875" y2="21.875"/><circle stroke-width="1.5" r="6" stroke="#d62728" fill="var(--markmap-circle-open-bg)" cx="251" cy="21.875"/><foreignObject class="markmap-foreign" x="8" y="0" style="opacity: 1;" width="235" height="21"><div xmlns="http://www.w3.org/1999/xhtml"><div xmlns="http://www.w3.org/1999/xhtml">兴奋性的周期性变化（★必考）   </div></div></foreignObject></g><g data-depth="3" data-path="1.18.19" class="markmap-node" transform="translate(731, 24.28125)"><line stroke="#17becf" stroke-width="1.375" x1="-1" x2="290" y1="21.6875" y2="21.6875"/><foreignObject class="markmap-foreign" x="8" y="0" style="opacity: 1;" width="272" height="21"><div xmlns="http://www.w3.org/1999/xhtml"><div xmlns="http://www.w3.org/1999/xhtml">心肌 <strong>ERP 特别长</strong> = 收缩期 + 舒张早期   </div></div></foreignObject></g><g data-depth="3" data-path="1.18.20" class="markmap-node" transform="translate(731, 51.65625)"><line stroke="#1f77b4" stroke-width="1.375" x1="-1" x2="519" y1="21.6875" y2="21.6875"/><foreignObject class="markmap-foreign" x="8" y="0" style="opacity: 1;" width="501" height="21"><div xmlns="http://www.w3.org/1999/xhtml"><div xmlns="http://www.w3.org/1999/xhtml">保证心肌<strong>不发生完全强直收缩</strong> -&gt; 保持<strong>收缩与舒张交替</strong> -&gt; 实现泵血功能   </div></div></foreignObject></g><g data-depth="3" data-path="1.18.21" class="markmap-node" transform="translate(731, 79.03125)"><line stroke="#ff7f0e" stroke-width="1.375" x1="-1" x2="378" y1="21.6875" y2="21.6875"/><foreignObject class="markmap-foreign" x="8" y="0" style="opacity: 1;" width="360" height="21"><div xmlns="http://www.w3.org/1999/xhtml"><div xmlns="http://www.w3.org/1999/xhtml">骨骼肌 ERP 短 -&gt; 可发生强直收缩 -&gt; 维持持续张力   </div></div></foreignObject></g><g data-depth="2" data-path="1.18" class="markmap-node" transform="translate(384, 51.65625)"><line stroke="#bcbd22" stroke-width="1.75" x1="-1" x2="269" y1="21.875" y2="21.875"/><circle stroke-width="1.5" r="6" stroke="#bcbd22" fill="var(--markmap-circle-open-bg)" cx="267" cy="21.875"/><foreignObject class="markmap-foreign" x="8" y="0" style="opacity: 1;" width="251" height="21"><div xmlns="http://www.w3.org/1999/xhtml"><div xmlns="http://www.w3.org/1999/xhtml">ERP 特别长的生理意义（★核心）   </div></div></foreignObject></g><g data-depth="4" data-path="1.22.23.24" class="markmap-node" transform="translate(886, 111.40625)"><line stroke="#e377c2" stroke-width="1.1875" x1="-1" x2="320" y1="21.59375" y2="21.59375"/><foreignObject class="markmap-foreign" x="8" y="0" style="opacity: 1;" width="302" height="21"><div xmlns="http://www.w3.org/1999/xhtml"><div xmlns="http://www.w3.org/1999/xhtml">在 ERP 之后、下一次窦房结兴奋到达<strong>之前</strong>   </div></div></foreignObject></g><g data-depth="4" data-path="1.22.23.25" class="markmap-node" transform="translate(886, 138.59375)"><line stroke="#7f7f7f" stroke-width="1.1875" x1="-1" x2="430" y1="21.59375" y2="21.59375"/><foreignObject class="markmap-foreign" x="8" y="0" style="opacity: 1;" width="412" height="21"><div xmlns="http://www.w3.org/1999/xhtml"><div xmlns="http://www.w3.org/1999/xhtml">受到<strong>额外刺激</strong>（异位起搏点兴奋）-&gt; 产生<strong>提前</strong>的一次收缩   </div></div></foreignObject></g><g data-depth="3" data-path="1.22.23" class="markmap-node" transform="translate(715, 125)"><line stroke="#bcbd22" stroke-width="1.375" x1="-1" x2="93" y1="21.6875" y2="21.6875"/><circle stroke-width="1.5" r="6" stroke="#bcbd22" fill="var(--markmap-circle-open-bg)" cx="91" cy="21.6875"/><foreignObject class="markmap-foreign" x="8" y="0" style="opacity: 1;" width="75" height="21"><div xmlns="http://www.w3.org/1999/xhtml"><div xmlns="http://www.w3.org/1999/xhtml">期前收缩   </div></div></foreignObject></g><g data-depth="4" data-path="1.22.26.27" class="markmap-node" transform="translate(886, 170.78125)"><line stroke="#9467bd" stroke-width="1.1875" x1="-1" x2="269" y1="21.59375" y2="21.59375"/><foreignObject class="markmap-foreign" x="8" y="0" style="opacity: 1;" width="251" height="21"><div xmlns="http://www.w3.org/1999/xhtml"><div xmlns="http://www.w3.org/1999/xhtml">期前收缩后出现一段<strong>较长</strong>的舒张期   </div></div></foreignObject></g><g data-depth="4" data-path="1.22.26.28" class="markmap-node" transform="translate(886, 197.96875)"><line stroke="#8c564b" stroke-width="1.1875" x1="-1" x2="1167" y1="21.59375" y2="21.59375"/><foreignObject class="markmap-foreign" x="8" y="0" style="opacity: 1;" width="1149" height="21"><div xmlns="http://www.w3.org/1999/xhtml"><div xmlns="http://www.w3.org/1999/xhtml">原因：期前兴奋也有自己的 <strong>ERP</strong> -&gt; 下一次正常窦房结冲动到达时 -&gt; 恰好落在期前兴奋的 <strong>ERP 内</strong> -&gt; <strong>不能引起</strong>心室兴奋 -&gt; 需等再下一次窦房结冲动 -&gt; 形成代偿间歇   </div></div></foreignObject></g><g data-depth="3" data-path="1.22.26" class="markmap-node" transform="translate(715, 184.375)"><line stroke="#ff7f0e" stroke-width="1.375" x1="-1" x2="93" y1="21.6875" y2="21.6875"/><circle stroke-width="1.5" r="6" stroke="#ff7f0e" fill="var(--markmap-circle-open-bg)" cx="91" cy="21.6875"/><foreignObject class="markmap-foreign" x="8" y="0" style="opacity: 1;" width="75" height="21"><div xmlns="http://www.w3.org/1999/xhtml"><div xmlns="http://www.w3.org/1999/xhtml">代偿间歇   </div></div></foreignObject></g><g data-depth="2" data-path="1.22" class="markmap-node" transform="translate(384, 154.6875)"><line stroke="#7f7f7f" stroke-width="1.75" x1="-1" x2="253" y1="21.875" y2="21.875"/><circle stroke-width="1.5" r="6" stroke="#7f7f7f" fill="var(--markmap-circle-open-bg)" cx="251" cy="21.875"/><foreignObject class="markmap-foreign" x="8" y="0" style="opacity: 1;" width="235" height="21"><div xmlns="http://www.w3.org/1999/xhtml"><div xmlns="http://www.w3.org/1999/xhtml">期前收缩与代偿间歇（★必考）   </div></div></foreignObject></g><g data-depth="3" data-path="1.29.30" class="markmap-node" transform="translate(555, 230.15625)"><line stroke="#d62728" stroke-width="1.375" x1="-1" x2="435" y1="21.6875" y2="21.6875"/><foreignObject class="markmap-foreign" x="8" y="0" style="opacity: 1;" width="417" height="21"><div xmlns="http://www.w3.org/1999/xhtml"><div xmlns="http://www.w3.org/1999/xhtml">兴奋性变化：<strong>-55</strong> 绝对 → <strong>-60</strong> 局部 → <strong>-80</strong> 相对 → <strong>-90</strong> 超常   </div></div></foreignObject></g><g data-depth="3" data-path="1.29.31" class="markmap-node" transform="translate(555, 257.53125)"><line stroke="#9467bd" stroke-width="1.375" x1="-1" x2="268" y1="21.6875" y2="21.6875"/><foreignObject class="markmap-foreign" x="8" y="0" style="opacity: 1;" width="250" height="21"><div xmlns="http://www.w3.org/1999/xhtml"><div xmlns="http://www.w3.org/1999/xhtml">ERP 最长 = 不强制 = 收缩舒张交替   </div></div></foreignObject></g><g data-depth="3" data-path="1.29.32" class="markmap-node" transform="translate(555, 284.90625)"><line stroke="#8c564b" stroke-width="1.375" x1="-1" x2="465" y1="21.6875" y2="21.6875"/><foreignObject class="markmap-foreign" x="8" y="0" style="opacity: 1;" width="447" height="21"><div xmlns="http://www.w3.org/1999/xhtml"><div xmlns="http://www.w3.org/1999/xhtml">期前收缩 + 代偿间歇：额外刺激 → 提前跳 → 漏一跳 → 补回来   </div></div></foreignObject></g><g data-depth="2" data-path="1.29" class="markmap-node" transform="translate(384, 257.53125)"><line stroke="#2ca02c" stroke-width="1.75" x1="-1" x2="93" y1="21.875" y2="21.875"/><circle stroke-width="1.5" r="6" stroke="#2ca02c" fill="var(--markmap-circle-open-bg)" cx="91" cy="21.875"/><foreignObject class="markmap-foreign" x="8" y="0" style="opacity: 1;" width="75" height="21"><div xmlns="http://www.w3.org/1999/xhtml"><div xmlns="http://www.w3.org/1999/xhtml">记忆口诀   </div></div></foreignObject></g><g data-depth="1" data-path="1" class="markmap-node" transform="translate(0, -10.5)"><line stroke="#1f77b4" stroke-width="2.5" x1="-1" x2="306" y1="22.25" y2="22.25"/><circle stroke-width="1.5" r="6" stroke="#1f77b4" fill="var(--markmap-circle-open-bg)" cx="304" cy="22.25"/><foreignObject class="markmap-foreign" x="8" y="0" style="opacity: 1;" width="288" height="21"><div xmlns="http://www.w3.org/1999/xhtml"><div xmlns="http://www.w3.org/1999/xhtml">心肌的兴奋性与不应期 — 极简速记导图   </div></div></foreignObject></g></g></svg>