<svg xmlns="http://www.w3.org/2000/svg" class="w-full h-full leading-none markmap mm-dn9wym-1" style=""><style>.markmap{--markmap-max-width: 9999px;--markmap-a-color: #0097e6;--markmap-a-hover-color: #00a8ff;--markmap-code-bg: #f0f0f0;--markmap-code-color: #555;--markmap-highlight-bg: #ffeaa7;--markmap-table-border: 1px solid currentColor;--markmap-font: 300 16px/20px sans-serif;--markmap-circle-open-bg: #fff;--markmap-text-color: #333;--markmap-highlight-node-bg: #ff02;font:var(--markmap-font);color:var(--markmap-text-color)}.markmap-link{fill:none}.markmap-node&gt;circle{cursor:pointer}.markmap-foreign{display:inline-block}.markmap-foreign p{margin:0}.markmap-foreign a{color:var(--markmap-a-color)}.markmap-foreign a:hover{color:var(--markmap-a-hover-color)}.markmap-foreign code{padding:.25em;font-size:calc(1em - 2px);color:var(--markmap-code-color);background-color:var(--markmap-code-bg);border-radius:2px}.markmap-foreign pre{margin:0}.markmap-foreign pre&gt;code{display:block}.markmap-foreign del{text-decoration:line-through}.markmap-foreign em{font-style:italic}.markmap-foreign strong{font-weight:700}.markmap-foreign mark{background:var(--markmap-highlight-bg)}.markmap-foreign table,.markmap-foreign th,.markmap-foreign td{border-collapse:collapse;border:var(--markmap-table-border)}.markmap-foreign img{display:inline-block}.markmap-foreign svg{fill:currentColor}.markmap-foreign&gt;div{width:var(--markmap-max-width);text-align:left}.markmap-foreign&gt;div&gt;div{display:inline-block}.markmap-highlight rect{fill:var(--markmap-highlight-node-bg)}.markmap-dark .markmap{--markmap-code-bg: #1a1b26;--markmap-code-color: #ddd;--markmap-circle-open-bg: #444;--markmap-text-color: #eee}</style><g transform="translate(42.92921231853839,400.47872901168574) scale(0.46542189583536653)"><path class="markmap-link" data-depth="3" data-path="1.2.3" d="M390,-285.219C430,-285.219,430,-299.094,470,-299.094" stroke-width="1.375" stroke="rgb(148, 103, 189)"/><path class="markmap-link" data-depth="3" data-path="1.2.4" d="M390,-285.219C430,-285.219,430,-271.719,470,-271.719" stroke-width="1.375" stroke="rgb(227, 119, 194)"/><path class="markmap-link" data-depth="4" data-path="1.5.6.7" d="M561,-212.156C601,-212.156,601,-239.437,641,-239.437" stroke-width="1.1875" stroke="rgb(127, 127, 127)"/><path class="markmap-link" data-depth="4" data-path="1.5.6.8" d="M561,-212.156C601,-212.156,601,-212.25,641,-212.25" stroke-width="1.1875" stroke="rgb(188, 189, 34)"/><path class="markmap-link" data-depth="4" data-path="1.5.6.9" d="M561,-212.156C601,-212.156,601,-185.062,641,-185.062" stroke-width="1.1875" stroke="rgb(23, 190, 207)"/><path class="markmap-link" data-depth="4" data-path="1.5.10.11" d="M577,-139.187C617,-139.187,617,-152.875,657,-152.875" stroke-width="1.1875" stroke="rgb(140, 86, 75)"/><path class="markmap-link" data-depth="4" data-path="1.5.10.12" d="M577,-139.187C617,-139.187,617,-125.687,657,-125.687" stroke-width="1.1875" stroke="rgb(227, 119, 194)"/><path class="markmap-link" data-depth="4" data-path="1.5.13.14" d="M577,-79.812C617,-79.812,617,-93.5,657,-93.5" stroke-width="1.1875" stroke="rgb(127, 127, 127)"/><path class="markmap-link" data-depth="4" data-path="1.5.13.15" d="M577,-79.812C617,-79.812,617,-66.312,657,-66.312" stroke-width="1.1875" stroke="rgb(188, 189, 34)"/><path class="markmap-link" data-depth="5" data-path="1.5.16.17.18" d="M807,-7.031C847,-7.031,847,-34.172,887,-34.172" stroke-width="1.09375" stroke="rgb(255, 127, 14)"/><path class="markmap-link" data-depth="5" data-path="1.5.16.17.19" d="M807,-7.031C847,-7.031,847,-7.078,887,-7.078" stroke-width="1.09375" stroke="rgb(44, 160, 44)"/><path class="markmap-link" data-depth="5" data-path="1.5.16.17.20" d="M807,-7.031C847,-7.031,847,20.016,887,20.016" stroke-width="1.09375" stroke="rgb(214, 39, 40)"/><path class="markmap-link" data-depth="5" data-path="1.5.16.21.22" d="M808,79.25C848,79.25,848,52.109,888,52.109" stroke-width="1.09375" stroke="rgb(140, 86, 75)"/><path class="markmap-link" data-depth="5" data-path="1.5.16.21.23" d="M808,79.25C848,79.25,848,79.203,888,79.203" stroke-width="1.09375" stroke="rgb(227, 119, 194)"/><path class="markmap-link" data-depth="5" data-path="1.5.16.21.24" d="M808,79.25C848,79.25,848,106.297,888,106.297" stroke-width="1.09375" stroke="rgb(127, 127, 127)"/><path class="markmap-link" data-depth="4" data-path="1.5.16.17" d="M561,36.203C601,36.203,601,-7.031,641,-7.031" stroke-width="1.1875" stroke="rgb(31, 119, 180)"/><path class="markmap-link" data-depth="4" data-path="1.5.16.21" d="M561,36.203C601,36.203,601,79.25,641,79.25" stroke-width="1.1875" stroke="rgb(148, 103, 189)"/><path class="markmap-link" data-depth="3" data-path="1.5.6" d="M390,-87.789C430,-87.789,430,-212.156,470,-212.156" stroke-width="1.375" stroke="rgb(227, 119, 194)"/><path class="markmap-link" data-depth="3" data-path="1.5.10" d="M390,-87.789C430,-87.789,430,-139.187,470,-139.187" stroke-width="1.375" stroke="rgb(148, 103, 189)"/><path class="markmap-link" data-depth="3" data-path="1.5.13" d="M390,-87.789C430,-87.789,430,-79.812,470,-79.812" stroke-width="1.375" stroke="rgb(140, 86, 75)"/><path class="markmap-link" data-depth="3" data-path="1.5.16" d="M390,-87.789C430,-87.789,430,36.203,470,36.203" stroke-width="1.375" stroke="rgb(23, 190, 207)"/><path class="markmap-link" data-depth="3" data-path="1.25.26" d="M422,179.781C462,179.781,462,138.531,502,138.531" stroke-width="1.375" stroke="rgb(127, 127, 127)"/><path class="markmap-link" data-depth="3" data-path="1.25.27" d="M422,179.781C462,179.781,462,165.906,502,165.906" stroke-width="1.375" stroke="rgb(140, 86, 75)"/><path class="markmap-link" data-depth="3" data-path="1.25.28" d="M422,179.781C462,179.781,462,193.281,502,193.281" stroke-width="1.375" stroke="rgb(227, 119, 194)"/><path class="markmap-link" data-depth="3" data-path="1.25.29" d="M422,179.781C462,179.781,462,220.656,502,220.656" stroke-width="1.375" stroke="rgb(127, 127, 127)"/><path class="markmap-link" data-depth="3" data-path="1.30.31" d="M374,307.969C414,307.969,414,253.031,454,253.031" stroke-width="1.375" stroke="rgb(31, 119, 180)"/><path class="markmap-link" data-depth="3" data-path="1.30.32" d="M374,307.969C414,307.969,414,280.406,454,280.406" stroke-width="1.375" stroke="rgb(255, 127, 14)"/><path class="markmap-link" data-depth="3" data-path="1.30.33" d="M374,307.969C414,307.969,414,307.781,454,307.781" stroke-width="1.375" stroke="rgb(44, 160, 44)"/><path class="markmap-link" data-depth="3" data-path="1.30.34" d="M374,307.969C414,307.969,414,335.156,454,335.156" stroke-width="1.375" stroke="rgb(214, 39, 40)"/><path class="markmap-link" data-depth="3" data-path="1.30.35" d="M374,307.969C414,307.969,414,362.531,454,362.531" stroke-width="1.375" stroke="rgb(188, 189, 34)"/><path class="markmap-link" data-depth="2" data-path="1.2" d="M171,11.75C211,11.75,211,-285.219,251,-285.219" stroke-width="1.75" stroke="rgb(255, 127, 14)"/><path class="markmap-link" data-depth="2" data-path="1.5" d="M171,11.75C211,11.75,211,-87.789,251,-87.789" stroke-width="1.75" stroke="rgb(44, 160, 44)"/><path class="markmap-link" data-depth="2" data-path="1.25" d="M171,11.75C211,11.75,211,179.781,251,179.781" stroke-width="1.75" stroke="rgb(227, 119, 194)"/><path class="markmap-link" data-depth="2" data-path="1.30" d="M171,11.75C211,11.75,211,307.969,251,307.969" stroke-width="1.75" stroke="rgb(23, 190, 207)"/><g class="markmap-highlight"/><g data-depth="3" data-path="1.2.3" class="markmap-node" transform="translate(470, -320.78125)"><line stroke="#9467bd" stroke-width="1.375" x1="-1" x2="643" y1="21.6875" y2="21.6875"/><foreignObject class="markmap-foreign" x="8" y="0" style="opacity: 1;" width="625" height="21"><div xmlns="http://www.w3.org/1999/xhtml"><div xmlns="http://www.w3.org/1999/xhtml"><strong>定义</strong> -&gt; 细胞外信号（<strong>第一信使</strong>）与受体结合后 -&gt; 在**<mark>细胞内产生</mark>**的传递信号的小分子   </div></div></foreignObject></g><g data-depth="3" data-path="1.2.4" class="markmap-node" transform="translate(470, -293.40625)"><line stroke="#e377c2" stroke-width="1.375" x1="-1" x2="411" y1="21.6875" y2="21.6875"/><foreignObject class="markmap-foreign" x="8" y="0" style="opacity: 1;" width="393" height="21"><div xmlns="http://www.w3.org/1999/xhtml"><div xmlns="http://www.w3.org/1999/xhtml"><strong>特征</strong> -&gt; 浓度可<strong>快速升高和降低</strong> / 具有**<mark>信号放大效应</mark>**   </div></div></foreignObject></g><g data-depth="2" data-path="1.2" class="markmap-node" transform="translate(251, -307.09375)"><line stroke="#ff7f0e" stroke-width="1.75" x1="-1" x2="141" y1="21.875" y2="21.875"/><circle stroke-width="1.5" r="6" stroke="#ff7f0e" fill="var(--markmap-circle-open-bg)" cx="139" cy="21.875"/><foreignObject class="markmap-foreign" x="8" y="0" style="opacity: 1;" width="123" height="21"><div xmlns="http://www.w3.org/1999/xhtml"><div xmlns="http://www.w3.org/1999/xhtml"><strong>第二信使的概念</strong>   </div></div></foreignObject></g><g data-depth="4" data-path="1.5.6.7" class="markmap-node" transform="translate(641, -261.03125)"><line stroke="#7f7f7f" stroke-width="1.1875" x1="-1" x2="352" y1="21.59375" y2="21.59375"/><foreignObject class="markmap-foreign" x="8" y="0" style="opacity: 1;" width="334" height="21"><div xmlns="http://www.w3.org/1999/xhtml"><div xmlns="http://www.w3.org/1999/xhtml"><strong><mark>Ca²⁺</mark></strong>（钙离子）-&gt; 最重要的无机离子第二信使   </div></div></foreignObject></g><g data-depth="4" data-path="1.5.6.8" class="markmap-node" transform="translate(641, -233.84375)"><line stroke="#bcbd22" stroke-width="1.1875" x1="-1" x2="363" y1="21.59375" y2="21.59375"/><foreignObject class="markmap-foreign" x="8" y="0" style="opacity: 1;" width="345" height="21"><div xmlns="http://www.w3.org/1999/xhtml"><div xmlns="http://www.w3.org/1999/xhtml">来源 -&gt; 内质网释放（IP₃ 介导）/ 胞外 Ca²⁺ 内流   </div></div></foreignObject></g><g data-depth="4" data-path="1.5.6.9" class="markmap-node" transform="translate(641, -206.65625)"><line stroke="#17becf" stroke-width="1.1875" x1="-1" x2="473" y1="21.59375" y2="21.59375"/><foreignObject class="markmap-foreign" x="8" y="0" style="opacity: 1;" width="455" height="21"><div xmlns="http://www.w3.org/1999/xhtml"><div xmlns="http://www.w3.org/1999/xhtml">下游 -&gt; 与**钙调蛋白(CaM)**结合 -&gt; 激活 Ca²⁺/CaM 依赖性激酶   </div></div></foreignObject></g><g data-depth="3" data-path="1.5.6" class="markmap-node" transform="translate(470, -233.84375)"><line stroke="#e377c2" stroke-width="1.375" x1="-1" x2="93" y1="21.6875" y2="21.6875"/><circle stroke-width="1.5" r="6" stroke="#e377c2" fill="var(--markmap-circle-open-bg)" cx="91" cy="21.6875"/><foreignObject class="markmap-foreign" x="8" y="0" style="opacity: 1;" width="75" height="21"><div xmlns="http://www.w3.org/1999/xhtml"><div xmlns="http://www.w3.org/1999/xhtml"><strong><mark>无机离子</mark></strong>   </div></div></foreignObject></g><g data-depth="4" data-path="1.5.10.11" class="markmap-node" transform="translate(657, -174.46875)"><line stroke="#8c564b" stroke-width="1.1875" x1="-1" x2="347" y1="21.59375" y2="21.59375"/><foreignObject class="markmap-foreign" x="8" y="0" style="opacity: 1;" width="329" height="21"><div xmlns="http://www.w3.org/1999/xhtml"><div xmlns="http://www.w3.org/1999/xhtml"><strong><mark>二脂酰甘油 (DAG)</mark></strong> -&gt; 由 PIP₂ 经 PLC 水解产生   </div></div></foreignObject></g><g data-depth="4" data-path="1.5.10.12" class="markmap-node" transform="translate(657, -147.28125)"><line stroke="#e377c2" stroke-width="1.1875" x1="-1" x2="353" y1="21.59375" y2="21.59375"/><foreignObject class="markmap-foreign" x="8" y="0" style="opacity: 1;" width="335" height="21"><div xmlns="http://www.w3.org/1999/xhtml"><div xmlns="http://www.w3.org/1999/xhtml">定位 -&gt; 留在<strong>细胞膜</strong>上 -&gt; 与 Ca²⁺ 共同激活 <strong><mark>PKC</mark></strong>   </div></div></foreignObject></g><g data-depth="3" data-path="1.5.10" class="markmap-node" transform="translate(470, -160.875)"><line stroke="#9467bd" stroke-width="1.375" x1="-1" x2="109" y1="21.6875" y2="21.6875"/><circle stroke-width="1.5" r="6" stroke="#9467bd" fill="var(--markmap-circle-open-bg)" cx="107" cy="21.6875"/><foreignObject class="markmap-foreign" x="8" y="0" style="opacity: 1;" width="91" height="21"><div xmlns="http://www.w3.org/1999/xhtml"><div xmlns="http://www.w3.org/1999/xhtml"><strong><mark>脂质衍生物</mark></strong>   </div></div></foreignObject></g><g data-depth="4" data-path="1.5.13.14" class="markmap-node" transform="translate(657, -115.09375)"><line stroke="#7f7f7f" stroke-width="1.1875" x1="-1" x2="337" y1="21.59375" y2="21.59375"/><foreignObject class="markmap-foreign" x="8" y="0" style="opacity: 1;" width="319" height="21"><div xmlns="http://www.w3.org/1999/xhtml"><div xmlns="http://www.w3.org/1999/xhtml"><strong><mark>三磷酸肌醇 (IP₃)</mark></strong> -&gt; 由 PIP₂ 经 PLC 水解产生   </div></div></foreignObject></g><g data-depth="4" data-path="1.5.13.15" class="markmap-node" transform="translate(657, -87.90625)"><line stroke="#bcbd22" stroke-width="1.1875" x1="-1" x2="519" y1="21.59375" y2="21.59375"/><foreignObject class="markmap-foreign" x="8" y="0" style="opacity: 1;" width="501" height="21"><div xmlns="http://www.w3.org/1999/xhtml"><div xmlns="http://www.w3.org/1999/xhtml">定位 -&gt; 进入<strong>胞液</strong> -&gt; 与内质网 IP₃ 受体结合 -&gt; 促使内质网**<mark>释放 Ca²⁺</mark>**   </div></div></foreignObject></g><g data-depth="3" data-path="1.5.13" class="markmap-node" transform="translate(470, -101.5)"><line stroke="#8c564b" stroke-width="1.375" x1="-1" x2="109" y1="21.6875" y2="21.6875"/><circle stroke-width="1.5" r="6" stroke="#8c564b" fill="var(--markmap-circle-open-bg)" cx="107" cy="21.6875"/><foreignObject class="markmap-foreign" x="8" y="0" style="opacity: 1;" width="91" height="21"><div xmlns="http://www.w3.org/1999/xhtml"><div xmlns="http://www.w3.org/1999/xhtml"><strong><mark>糖类衍生物</mark></strong>   </div></div></foreignObject></g><g data-depth="5" data-path="1.5.16.17.18" class="markmap-node" transform="translate(887, -55.71875)"><line stroke="#ff7f0e" stroke-width="1.09375" x1="-1" x2="337" y1="21.546875" y2="21.546875"/><foreignObject class="markmap-foreign" x="8" y="0" style="opacity: 1;" width="319" height="21"><div xmlns="http://www.w3.org/1999/xhtml"><div xmlns="http://www.w3.org/1999/xhtml">合成 -&gt; 腺苷酸环化酶(AC) 催化 ATP → cAMP   </div></div></foreignObject></g><g data-depth="5" data-path="1.5.16.17.19" class="markmap-node" transform="translate(887, -28.625)"><line stroke="#2ca02c" stroke-width="1.09375" x1="-1" x2="353" y1="21.546875" y2="21.546875"/><foreignObject class="markmap-foreign" x="8" y="0" style="opacity: 1;" width="335" height="21"><div xmlns="http://www.w3.org/1999/xhtml"><div xmlns="http://www.w3.org/1999/xhtml">降解 -&gt; 磷酸二酯酶(PDE) 水解 cAMP → 5′-AMP   </div></div></foreignObject></g><g data-depth="5" data-path="1.5.16.17.20" class="markmap-node" transform="translate(887, -1.53125)"><line stroke="#d62728" stroke-width="1.09375" x1="-1" x2="238" y1="21.546875" y2="21.546875"/><foreignObject class="markmap-foreign" x="8" y="0" style="opacity: 1;" width="220" height="21"><div xmlns="http://www.w3.org/1999/xhtml"><div xmlns="http://www.w3.org/1999/xhtml">靶激酶 -&gt; <strong><mark>PKA</mark></strong>（蛋白激酶 A）   </div></div></foreignObject></g><g data-depth="4" data-path="1.5.16.17" class="markmap-node" transform="translate(641, -28.625)"><line stroke="#1f77b4" stroke-width="1.1875" x1="-1" x2="168" y1="21.59375" y2="21.59375"/><circle stroke-width="1.5" r="6" stroke="#1f77b4" fill="var(--markmap-circle-open-bg)" cx="166" cy="21.59375"/><foreignObject class="markmap-foreign" x="8" y="0" style="opacity: 1;" width="150" height="21"><div xmlns="http://www.w3.org/1999/xhtml"><div xmlns="http://www.w3.org/1999/xhtml"><strong><mark>cAMP</mark></strong>（环腺苷酸）   </div></div></foreignObject></g><g data-depth="5" data-path="1.5.16.21.22" class="markmap-node" transform="translate(888, 30.5625)"><line stroke="#8c564b" stroke-width="1.09375" x1="-1" x2="341" y1="21.546875" y2="21.546875"/><foreignObject class="markmap-foreign" x="8" y="0" style="opacity: 1;" width="323" height="21"><div xmlns="http://www.w3.org/1999/xhtml"><div xmlns="http://www.w3.org/1999/xhtml">合成 -&gt; 鸟苷酸环化酶(GC) 催化 GTP → cGMP   </div></div></foreignObject></g><g data-depth="5" data-path="1.5.16.21.23" class="markmap-node" transform="translate(888, 57.65625)"><line stroke="#e377c2" stroke-width="1.09375" x1="-1" x2="241" y1="21.546875" y2="21.546875"/><foreignObject class="markmap-foreign" x="8" y="0" style="opacity: 1;" width="223" height="21"><div xmlns="http://www.w3.org/1999/xhtml"><div xmlns="http://www.w3.org/1999/xhtml">靶激酶 -&gt; <strong><mark>PKG</mark></strong>（蛋白激酶 G）   </div></div></foreignObject></g><g data-depth="5" data-path="1.5.16.21.24" class="markmap-node" transform="translate(888, 84.75)"><line stroke="#7f7f7f" stroke-width="1.09375" x1="-1" x2="605" y1="21.546875" y2="21.546875"/><foreignObject class="markmap-foreign" x="8" y="0" style="opacity: 1;" width="587" height="21"><div xmlns="http://www.w3.org/1999/xhtml"><div xmlns="http://www.w3.org/1999/xhtml">特殊 -&gt; 视杆细胞中 G_T 激活 cGMP 磷酸二酯酶 -&gt; cGMP↓ → Na⁺通道关闭 → 感光   </div></div></foreignObject></g><g data-depth="4" data-path="1.5.16.21" class="markmap-node" transform="translate(641, 57.65625)"><line stroke="#9467bd" stroke-width="1.1875" x1="-1" x2="169" y1="21.59375" y2="21.59375"/><circle stroke-width="1.5" r="6" stroke="#9467bd" fill="var(--markmap-circle-open-bg)" cx="167" cy="21.59375"/><foreignObject class="markmap-foreign" x="8" y="0" style="opacity: 1;" width="151" height="21"><div xmlns="http://www.w3.org/1999/xhtml"><div xmlns="http://www.w3.org/1999/xhtml"><strong><mark>cGMP</mark></strong>（环鸟苷酸）   </div></div></foreignObject></g><g data-depth="3" data-path="1.5.16" class="markmap-node" transform="translate(470, 14.515625)"><line stroke="#17becf" stroke-width="1.375" x1="-1" x2="93" y1="21.6875" y2="21.6875"/><circle stroke-width="1.5" r="6" stroke="#17becf" fill="var(--markmap-circle-open-bg)" cx="91" cy="21.6875"/><foreignObject class="markmap-foreign" x="8" y="0" style="opacity: 1;" width="75" height="21"><div xmlns="http://www.w3.org/1999/xhtml"><div xmlns="http://www.w3.org/1999/xhtml"><strong><mark>核苷酸类</mark></strong>   </div></div></foreignObject></g><g data-depth="2" data-path="1.5" class="markmap-node" transform="translate(251, -109.6640625)"><line stroke="#2ca02c" stroke-width="1.75" x1="-1" x2="141" y1="21.875" y2="21.875"/><circle stroke-width="1.5" r="6" stroke="#2ca02c" fill="var(--markmap-circle-open-bg)" cx="139" cy="21.875"/><foreignObject class="markmap-foreign" x="8" y="0" style="opacity: 1;" width="123" height="21"><div xmlns="http://www.w3.org/1999/xhtml"><div xmlns="http://www.w3.org/1999/xhtml"><strong>四大类第二信使</strong>   </div></div></foreignObject></g><g data-depth="3" data-path="1.25.26" class="markmap-node" transform="translate(502, 116.84375)"><line stroke="#7f7f7f" stroke-width="1.375" x1="-1" x2="379" y1="21.6875" y2="21.6875"/><foreignObject class="markmap-foreign" x="8" y="0" style="opacity: 1;" width="361" height="21"><div xmlns="http://www.w3.org/1999/xhtml"><div xmlns="http://www.w3.org/1999/xhtml"><strong>cAMP</strong> -&gt; AC 催化 ATP -&gt; 被 <strong><mark>磷酸二酯酶(PDE)</mark></strong> 降解   </div></div></foreignObject></g><g data-depth="3" data-path="1.25.27" class="markmap-node" transform="translate(502, 144.21875)"><line stroke="#8c564b" stroke-width="1.375" x1="-1" x2="380" y1="21.6875" y2="21.6875"/><foreignObject class="markmap-foreign" x="8" y="0" style="opacity: 1;" width="362" height="21"><div xmlns="http://www.w3.org/1999/xhtml"><div xmlns="http://www.w3.org/1999/xhtml"><strong>cGMP</strong> -&gt; GC 催化 GTP -&gt; 被 cGMP 磷酸二酯酶降解   </div></div></foreignObject></g><g data-depth="3" data-path="1.25.28" class="markmap-node" transform="translate(502, 171.59375)"><line stroke="#e377c2" stroke-width="1.375" x1="-1" x2="438" y1="21.6875" y2="21.6875"/><foreignObject class="markmap-foreign" x="8" y="0" style="opacity: 1;" width="420" height="21"><div xmlns="http://www.w3.org/1999/xhtml"><div xmlns="http://www.w3.org/1999/xhtml"><strong>IP₃ + DAG</strong> -&gt; PLC 催化 <strong><mark>PIP₂</mark></strong> 水解产生 -&gt; 一个底物两个信使   </div></div></foreignObject></g><g data-depth="3" data-path="1.25.29" class="markmap-node" transform="translate(502, 198.96875)"><line stroke="#7f7f7f" stroke-width="1.375" x1="-1" x2="325" y1="21.6875" y2="21.6875"/><foreignObject class="markmap-foreign" x="8" y="0" style="opacity: 1;" width="307" height="21"><div xmlns="http://www.w3.org/1999/xhtml"><div xmlns="http://www.w3.org/1999/xhtml"><strong>Ca²⁺</strong> -&gt; 内质网释放（IP₃ 介导）/ 胞外内流   </div></div></foreignObject></g><g data-depth="2" data-path="1.25" class="markmap-node" transform="translate(251, 157.90625)"><line stroke="#e377c2" stroke-width="1.75" x1="-1" x2="173" y1="21.875" y2="21.875"/><circle stroke-width="1.5" r="6" stroke="#e377c2" fill="var(--markmap-circle-open-bg)" cx="171" cy="21.875"/><foreignObject class="markmap-foreign" x="8" y="0" style="opacity: 1;" width="155" height="21"><div xmlns="http://www.w3.org/1999/xhtml"><div xmlns="http://www.w3.org/1999/xhtml"><strong>第二信使的来源汇总</strong>   </div></div></foreignObject></g><g data-depth="3" data-path="1.30.31" class="markmap-node" transform="translate(454, 231.34375)"><line stroke="#1f77b4" stroke-width="1.375" x1="-1" x2="147" y1="21.6875" y2="21.6875"/><foreignObject class="markmap-foreign" x="8" y="0" style="opacity: 1;" width="129" height="21"><div xmlns="http://www.w3.org/1999/xhtml"><div xmlns="http://www.w3.org/1999/xhtml"><strong>无机离子</strong> -&gt; <strong><mark>Ca²⁺</mark></strong>   </div></div></foreignObject></g><g data-depth="3" data-path="1.30.32" class="markmap-node" transform="translate(454, 258.71875)"><line stroke="#ff7f0e" stroke-width="1.375" x1="-1" x2="114" y1="21.6875" y2="21.6875"/><foreignObject class="markmap-foreign" x="8" y="0" style="opacity: 1;" width="96" height="21"><div xmlns="http://www.w3.org/1999/xhtml"><div xmlns="http://www.w3.org/1999/xhtml"><strong>脂质</strong> -&gt; <strong><mark>DAG</mark></strong>   </div></div></foreignObject></g><g data-depth="3" data-path="1.30.33" class="markmap-node" transform="translate(454, 286.09375)"><line stroke="#2ca02c" stroke-width="1.375" x1="-1" x2="104" y1="21.6875" y2="21.6875"/><foreignObject class="markmap-foreign" x="8" y="0" style="opacity: 1;" width="86" height="21"><div xmlns="http://www.w3.org/1999/xhtml"><div xmlns="http://www.w3.org/1999/xhtml"><strong>糖类</strong> -&gt; <strong><mark>IP₃</mark></strong>   </div></div></foreignObject></g><g data-depth="3" data-path="1.30.34" class="markmap-node" transform="translate(454, 313.46875)"><line stroke="#d62728" stroke-width="1.375" x1="-1" x2="198" y1="21.6875" y2="21.6875"/><foreignObject class="markmap-foreign" x="8" y="0" style="opacity: 1;" width="180" height="21"><div xmlns="http://www.w3.org/1999/xhtml"><div xmlns="http://www.w3.org/1999/xhtml"><strong>核苷酸</strong> -&gt; <strong><mark>cAMP / cGMP</mark></strong>   </div></div></foreignObject></g><g data-depth="3" data-path="1.30.35" class="markmap-node" transform="translate(454, 340.84375)"><line stroke="#bcbd22" stroke-width="1.375" x1="-1" x2="399" y1="21.6875" y2="21.6875"/><foreignObject class="markmap-foreign" x="8" y="0" style="opacity: 1;" width="381" height="21"><div xmlns="http://www.w3.org/1999/xhtml"><div xmlns="http://www.w3.org/1999/xhtml"><strong>PIP₂ 裂解产物</strong> -&gt; <strong><mark>IP₃ + DAG</mark></strong>（一对双胞胎第二信使）   </div></div></foreignObject></g><g data-depth="2" data-path="1.30" class="markmap-node" transform="translate(251, 286.09375)"><line stroke="#17becf" stroke-width="1.75" x1="-1" x2="125" y1="21.875" y2="21.875"/><circle stroke-width="1.5" r="6" stroke="#17becf" fill="var(--markmap-circle-open-bg)" cx="123" cy="21.875"/><foreignObject class="markmap-foreign" x="8" y="0" style="opacity: 1;" width="107" height="21"><div xmlns="http://www.w3.org/1999/xhtml"><div xmlns="http://www.w3.org/1999/xhtml"><strong>考试必背速记</strong>   </div></div></foreignObject></g><g data-depth="1" data-path="1" class="markmap-node" transform="translate(0, -10.5)"><line stroke="#1f77b4" stroke-width="2.5" x1="-1" x2="173" y1="22.25" y2="22.25"/><circle stroke-width="1.5" r="6" stroke="#1f77b4" fill="var(--markmap-circle-open-bg)" cx="171" cy="22.25"/><foreignObject class="markmap-foreign" x="8" y="0" style="opacity: 1;" width="155" height="21"><div xmlns="http://www.w3.org/1999/xhtml"><div xmlns="http://www.w3.org/1999/xhtml">常见的第二信使大全   </div></div></foreignObject></g></g></svg>