<svg xmlns="http://www.w3.org/2000/svg" class="w-full h-full leading-none markmap mm-gpvzjv-1" style=""><style>.markmap{--markmap-max-width: 9999px;--markmap-a-color: #0097e6;--markmap-a-hover-color: #00a8ff;--markmap-code-bg: #f0f0f0;--markmap-code-color: #555;--markmap-highlight-bg: #ffeaa7;--markmap-table-border: 1px solid currentColor;--markmap-font: 300 16px/20px sans-serif;--markmap-circle-open-bg: #fff;--markmap-text-color: #333;--markmap-highlight-node-bg: #ff02;font:var(--markmap-font);color:var(--markmap-text-color)}.markmap-link{fill:none}.markmap-node&gt;circle{cursor:pointer}.markmap-foreign{display:inline-block}.markmap-foreign p{margin:0}.markmap-foreign a{color:var(--markmap-a-color)}.markmap-foreign a:hover{color:var(--markmap-a-hover-color)}.markmap-foreign code{padding:.25em;font-size:calc(1em - 2px);color:var(--markmap-code-color);background-color:var(--markmap-code-bg);border-radius:2px}.markmap-foreign pre{margin:0}.markmap-foreign pre&gt;code{display:block}.markmap-foreign del{text-decoration:line-through}.markmap-foreign em{font-style:italic}.markmap-foreign strong{font-weight:700}.markmap-foreign mark{background:var(--markmap-highlight-bg)}.markmap-foreign table,.markmap-foreign th,.markmap-foreign td{border-collapse:collapse;border:var(--markmap-table-border)}.markmap-foreign img{display:inline-block}.markmap-foreign svg{fill:currentColor}.markmap-foreign&gt;div{width:var(--markmap-max-width);text-align:left}.markmap-foreign&gt;div&gt;div{display:inline-block}.markmap-highlight rect{fill:var(--markmap-highlight-node-bg)}.markmap-dark .markmap{--markmap-code-bg: #1a1b26;--markmap-code-color: #ddd;--markmap-circle-open-bg: #444;--markmap-text-color: #eee}</style><g transform="translate(32.92826997708292,351.9933382586347) scale(0.4879721911887998)"><path class="markmap-link" data-depth="3" data-path="1.2.3" d="M535,-229.047C575,-229.047,575,-256.609,615,-256.609" stroke-width="1.375" stroke="rgb(148, 103, 189)"/><path class="markmap-link" data-depth="3" data-path="1.2.4" d="M535,-229.047C575,-229.047,575,-229.234,615,-229.234" stroke-width="1.375" stroke="rgb(140, 86, 75)"/><path class="markmap-link" data-depth="3" data-path="1.2.5" d="M535,-229.047C575,-229.047,575,-201.859,615,-201.859" stroke-width="1.375" stroke="rgb(227, 119, 194)"/><path class="markmap-link" data-depth="4" data-path="1.6.7.8" d="M908,-169.484C948,-169.484,948,-196.766,988,-196.766" stroke-width="1.1875" stroke="rgb(188, 189, 34)"/><path class="markmap-link" data-depth="4" data-path="1.6.7.9" d="M908,-169.484C948,-169.484,948,-169.578,988,-169.578" stroke-width="1.1875" stroke="rgb(23, 190, 207)"/><path class="markmap-link" data-depth="4" data-path="1.6.7.10" d="M908,-169.484C948,-169.484,948,-142.391,988,-142.391" stroke-width="1.1875" stroke="rgb(31, 119, 180)"/><path class="markmap-link" data-depth="4" data-path="1.6.11.12" d="M994,-96.516C1034,-96.516,1034,-110.203,1074,-110.203" stroke-width="1.1875" stroke="rgb(44, 160, 44)"/><path class="markmap-link" data-depth="4" data-path="1.6.11.13" d="M994,-96.516C1034,-96.516,1034,-83.016,1074,-83.016" stroke-width="1.1875" stroke="rgb(214, 39, 40)"/><path class="markmap-link" data-depth="4" data-path="1.6.14.15" d="M1010,-37.141C1050,-37.141,1050,-50.828,1090,-50.828" stroke-width="1.1875" stroke="rgb(140, 86, 75)"/><path class="markmap-link" data-depth="4" data-path="1.6.14.16" d="M1010,-37.141C1050,-37.141,1050,-23.641,1090,-23.641" stroke-width="1.1875" stroke="rgb(227, 119, 194)"/><path class="markmap-link" data-depth="3" data-path="1.6.7" d="M673,-89.437C713,-89.437,713,-169.484,753,-169.484" stroke-width="1.375" stroke="rgb(188, 189, 34)"/><path class="markmap-link" data-depth="3" data-path="1.6.11" d="M673,-89.437C713,-89.437,713,-96.516,753,-96.516" stroke-width="1.375" stroke="rgb(255, 127, 14)"/><path class="markmap-link" data-depth="3" data-path="1.6.14" d="M673,-89.437C713,-89.437,713,-37.141,753,-37.141" stroke-width="1.375" stroke="rgb(148, 103, 189)"/><path class="markmap-link" data-depth="3" data-path="1.6.17" d="M673,-89.437C713,-89.437,713,-9.766,753,-9.766" stroke-width="1.375" stroke="rgb(127, 127, 127)"/><path class="markmap-link" data-depth="3" data-path="1.18.19" d="M567,77.547C607,77.547,607,22.609,647,22.609" stroke-width="1.375" stroke="rgb(23, 190, 207)"/><path class="markmap-link" data-depth="3" data-path="1.18.20" d="M567,77.547C607,77.547,607,49.984,647,49.984" stroke-width="1.375" stroke="rgb(31, 119, 180)"/><path class="markmap-link" data-depth="3" data-path="1.18.21" d="M567,77.547C607,77.547,607,77.359,647,77.359" stroke-width="1.375" stroke="rgb(255, 127, 14)"/><path class="markmap-link" data-depth="3" data-path="1.18.22" d="M567,77.547C607,77.547,607,104.734,647,104.734" stroke-width="1.375" stroke="rgb(44, 160, 44)"/><path class="markmap-link" data-depth="3" data-path="1.18.23" d="M567,77.547C607,77.547,607,132.109,647,132.109" stroke-width="1.375" stroke="rgb(214, 39, 40)"/><path class="markmap-link" data-depth="3" data-path="1.24.25" d="M593,178.359C633,178.359,633,164.484,673,164.484" stroke-width="1.375" stroke="rgb(148, 103, 189)"/><path class="markmap-link" data-depth="3" data-path="1.24.26" d="M593,178.359C633,178.359,633,191.859,673,191.859" stroke-width="1.375" stroke="rgb(140, 86, 75)"/><path class="markmap-link" data-depth="3" data-path="1.27.28" d="M519,251.797C559,251.797,559,224.234,599,224.234" stroke-width="1.375" stroke="rgb(214, 39, 40)"/><path class="markmap-link" data-depth="3" data-path="1.27.29" d="M519,251.797C559,251.797,559,251.609,599,251.609" stroke-width="1.375" stroke="rgb(148, 103, 189)"/><path class="markmap-link" data-depth="3" data-path="1.27.30" d="M519,251.797C559,251.797,559,278.984,599,278.984" stroke-width="1.375" stroke="rgb(227, 119, 194)"/><path class="markmap-link" data-depth="2" data-path="1.2" d="M332,11.75C372,11.75,372,-229.047,412,-229.047" stroke-width="1.75" stroke="rgb(255, 127, 14)"/><path class="markmap-link" data-depth="2" data-path="1.6" d="M332,11.75C372,11.75,372,-89.437,412,-89.437" stroke-width="1.75" stroke="rgb(127, 127, 127)"/><path class="markmap-link" data-depth="2" data-path="1.18" d="M332,11.75C372,11.75,372,77.547,412,77.547" stroke-width="1.75" stroke="rgb(188, 189, 34)"/><path class="markmap-link" data-depth="2" data-path="1.24" d="M332,11.75C372,11.75,372,178.359,412,178.359" stroke-width="1.75" stroke="rgb(140, 86, 75)"/><path class="markmap-link" data-depth="2" data-path="1.27" d="M332,11.75C372,11.75,372,251.797,412,251.797" stroke-width="1.75" stroke="rgb(44, 160, 44)"/><g class="markmap-highlight"/><g data-depth="3" data-path="1.2.3" class="markmap-node" transform="translate(615, -278.296875)"><line stroke="#9467bd" stroke-width="1.375" x1="-1" x2="297" y1="21.6875" y2="21.6875"/><foreignObject class="markmap-foreign" x="8" y="0" style="opacity: 1;" width="279" height="21"><div xmlns="http://www.w3.org/1999/xhtml"><div xmlns="http://www.w3.org/1999/xhtml">α 细胞（<strong>25%</strong>）：<strong>胰高血糖素</strong> -&gt; 升血糖   </div></div></foreignObject></g><g data-depth="3" data-path="1.2.4" class="markmap-node" transform="translate(615, -250.921875)"><line stroke="#8c564b" stroke-width="1.375" x1="-1" x2="293" y1="21.6875" y2="21.6875"/><foreignObject class="markmap-foreign" x="8" y="0" style="opacity: 1;" width="275" height="21"><div xmlns="http://www.w3.org/1999/xhtml"><div xmlns="http://www.w3.org/1999/xhtml">β 细胞（<strong>60~70%</strong>）：<strong>胰岛素</strong> -&gt; 降血糖   </div></div></foreignObject></g><g data-depth="3" data-path="1.2.5" class="markmap-node" transform="translate(615, -223.546875)"><line stroke="#e377c2" stroke-width="1.375" x1="-1" x2="200" y1="21.6875" y2="21.6875"/><foreignObject class="markmap-foreign" x="8" y="0" style="opacity: 1;" width="182" height="21"><div xmlns="http://www.w3.org/1999/xhtml"><div xmlns="http://www.w3.org/1999/xhtml">δ 细胞（5%）：生长抑素   </div></div></foreignObject></g><g data-depth="2" data-path="1.2" class="markmap-node" transform="translate(412, -250.921875)"><line stroke="#ff7f0e" stroke-width="1.75" x1="-1" x2="125" y1="21.875" y2="21.875"/><circle stroke-width="1.5" r="6" stroke="#ff7f0e" fill="var(--markmap-circle-open-bg)" cx="123" cy="21.875"/><foreignObject class="markmap-foreign" x="8" y="0" style="opacity: 1;" width="107" height="21"><div xmlns="http://www.w3.org/1999/xhtml"><div xmlns="http://www.w3.org/1999/xhtml">胰岛细胞组成   </div></div></foreignObject></g><g data-depth="4" data-path="1.6.7.8" class="markmap-node" transform="translate(988, -218.359375)"><line stroke="#bcbd22" stroke-width="1.1875" x1="-1" x2="300" y1="21.59375" y2="21.59375"/><foreignObject class="markmap-foreign" x="8" y="0" style="opacity: 1;" width="282" height="21"><div xmlns="http://www.w3.org/1999/xhtml"><div xmlns="http://www.w3.org/1999/xhtml">减少来源：抑制糖原分解 + 抑制糖异生   </div></div></foreignObject></g><g data-depth="4" data-path="1.6.7.9" class="markmap-node" transform="translate(988, -191.171875)"><line stroke="#17becf" stroke-width="1.1875" x1="-1" x2="444" y1="21.59375" y2="21.59375"/><foreignObject class="markmap-foreign" x="8" y="0" style="opacity: 1;" width="426" height="21"><div xmlns="http://www.w3.org/1999/xhtml"><div xmlns="http://www.w3.org/1999/xhtml">增加去路：促进糖原合成 + 促进外周组织<strong>摄取和利用</strong>葡萄糖   </div></div></foreignObject></g><g data-depth="4" data-path="1.6.7.10" class="markmap-node" transform="translate(988, -163.984375)"><line stroke="#1f77b4" stroke-width="1.1875" x1="-1" x2="130" y1="21.59375" y2="21.59375"/><foreignObject class="markmap-foreign" x="8" y="0" style="opacity: 1;" width="112" height="21"><div xmlns="http://www.w3.org/1999/xhtml"><div xmlns="http://www.w3.org/1999/xhtml">缺乏 -&gt; <strong>糖尿病</strong>   </div></div></foreignObject></g><g data-depth="3" data-path="1.6.7" class="markmap-node" transform="translate(753, -191.171875)"><line stroke="#bcbd22" stroke-width="1.375" x1="-1" x2="157" y1="21.6875" y2="21.6875"/><circle stroke-width="1.5" r="6" stroke="#bcbd22" fill="var(--markmap-circle-open-bg)" cx="155" cy="21.6875"/><foreignObject class="markmap-foreign" x="8" y="0" style="opacity: 1;" width="139" height="21"><div xmlns="http://www.w3.org/1999/xhtml"><div xmlns="http://www.w3.org/1999/xhtml">糖代谢：<strong>降低血糖</strong>   </div></div></foreignObject></g><g data-depth="4" data-path="1.6.11.12" class="markmap-node" transform="translate(1074, -131.796875)"><line stroke="#2ca02c" stroke-width="1.1875" x1="-1" x2="253" y1="21.59375" y2="21.59375"/><foreignObject class="markmap-foreign" x="8" y="0" style="opacity: 1;" width="235" height="21"><div xmlns="http://www.w3.org/1999/xhtml"><div xmlns="http://www.w3.org/1999/xhtml">促葡萄糖入脂肪细胞合成脂肪酸   </div></div></foreignObject></g><g data-depth="4" data-path="1.6.11.13" class="markmap-node" transform="translate(1074, -104.609375)"><line stroke="#d62728" stroke-width="1.1875" x1="-1" x2="290" y1="21.59375" y2="21.59375"/><foreignObject class="markmap-foreign" x="8" y="0" style="opacity: 1;" width="272" height="21"><div xmlns="http://www.w3.org/1999/xhtml"><div xmlns="http://www.w3.org/1999/xhtml">抑制激素敏感性脂肪酶 -&gt; ↓脂肪分解   </div></div></foreignObject></g><g data-depth="3" data-path="1.6.11" class="markmap-node" transform="translate(753, -118.203125)"><line stroke="#ff7f0e" stroke-width="1.375" x1="-1" x2="243" y1="21.6875" y2="21.6875"/><circle stroke-width="1.5" r="6" stroke="#ff7f0e" fill="var(--markmap-circle-open-bg)" cx="241" cy="21.6875"/><foreignObject class="markmap-foreign" x="8" y="0" style="opacity: 1;" width="225" height="21"><div xmlns="http://www.w3.org/1999/xhtml"><div xmlns="http://www.w3.org/1999/xhtml">脂肪代谢：<strong>促进合成/减少分解</strong>   </div></div></foreignObject></g><g data-depth="4" data-path="1.6.14.15" class="markmap-node" transform="translate(1090, -72.421875)"><line stroke="#8c564b" stroke-width="1.1875" x1="-1" x2="205" y1="21.59375" y2="21.59375"/><foreignObject class="markmap-foreign" x="8" y="0" style="opacity: 1;" width="187" height="21"><div xmlns="http://www.w3.org/1999/xhtml"><div xmlns="http://www.w3.org/1999/xhtml">促氨基酸入细胞合成蛋白   </div></div></foreignObject></g><g data-depth="4" data-path="1.6.14.16" class="markmap-node" transform="translate(1090, -45.234375)"><line stroke="#e377c2" stroke-width="1.1875" x1="-1" x2="189" y1="21.59375" y2="21.59375"/><foreignObject class="markmap-foreign" x="8" y="0" style="opacity: 1;" width="171" height="21"><div xmlns="http://www.w3.org/1999/xhtml"><div xmlns="http://www.w3.org/1999/xhtml">抑制蛋白分解和糖异生   </div></div></foreignObject></g><g data-depth="3" data-path="1.6.14" class="markmap-node" transform="translate(753, -58.828125)"><line stroke="#9467bd" stroke-width="1.375" x1="-1" x2="259" y1="21.6875" y2="21.6875"/><circle stroke-width="1.5" r="6" stroke="#9467bd" fill="var(--markmap-circle-open-bg)" cx="257" cy="21.6875"/><foreignObject class="markmap-foreign" x="8" y="0" style="opacity: 1;" width="241" height="21"><div xmlns="http://www.w3.org/1999/xhtml"><div xmlns="http://www.w3.org/1999/xhtml">蛋白质代谢：<strong>促进合成/抑制分解</strong>   </div></div></foreignObject></g><g data-depth="3" data-path="1.6.17" class="markmap-node" transform="translate(753, -31.453125)"><line stroke="#7f7f7f" stroke-width="1.375" x1="-1" x2="170" y1="21.6875" y2="21.6875"/><foreignObject class="markmap-foreign" x="8" y="0" style="opacity: 1;" width="152" height="21"><div xmlns="http://www.w3.org/1999/xhtml"><div xmlns="http://www.w3.org/1999/xhtml">促生长：与 GH 协同   </div></div></foreignObject></g><g data-depth="2" data-path="1.6" class="markmap-node" transform="translate(412, -111.3125)"><line stroke="#7f7f7f" stroke-width="1.75" x1="-1" x2="263" y1="21.875" y2="21.875"/><circle stroke-width="1.5" r="6" stroke="#7f7f7f" fill="var(--markmap-circle-open-bg)" cx="261" cy="21.875"/><foreignObject class="markmap-foreign" x="8" y="0" style="opacity: 1;" width="245" height="21"><div xmlns="http://www.w3.org/1999/xhtml"><div xmlns="http://www.w3.org/1999/xhtml">★胰岛素——体内<strong>唯一</strong>降血糖激素   </div></div></foreignObject></g><g data-depth="3" data-path="1.18.19" class="markmap-node" transform="translate(647, 0.921875)"><line stroke="#17becf" stroke-width="1.375" x1="-1" x2="373" y1="21.6875" y2="21.6875"/><foreignObject class="markmap-foreign" x="8" y="0" style="opacity: 1;" width="355" height="21"><div xmlns="http://www.w3.org/1999/xhtml"><div xmlns="http://www.w3.org/1999/xhtml">① <strong>血糖浓度</strong>：血糖↑ -&gt; 胰岛素分泌↑（<strong>最重要</strong>）   </div></div></foreignObject></g><g data-depth="3" data-path="1.18.20" class="markmap-node" transform="translate(647, 28.296875)"><line stroke="#1f77b4" stroke-width="1.375" x1="-1" x2="235" y1="21.6875" y2="21.6875"/><foreignObject class="markmap-foreign" x="8" y="0" style="opacity: 1;" width="217" height="21"><div xmlns="http://www.w3.org/1999/xhtml"><div xmlns="http://www.w3.org/1999/xhtml">② 氨基酸/脂肪酸 -&gt; 刺激分泌   </div></div></foreignObject></g><g data-depth="3" data-path="1.18.21" class="markmap-node" transform="translate(647, 55.671875)"><line stroke="#ff7f0e" stroke-width="1.375" x1="-1" x2="482" y1="21.6875" y2="21.6875"/><foreignObject class="markmap-foreign" x="8" y="0" style="opacity: 1;" width="464" height="21"><div xmlns="http://www.w3.org/1999/xhtml"><div xmlns="http://www.w3.org/1999/xhtml">③ 促血糖升高的激素可促胰岛素分泌（胰高血糖素/TH/GH/GC）   </div></div></foreignObject></g><g data-depth="3" data-path="1.18.22" class="markmap-node" transform="translate(647, 83.046875)"><line stroke="#2ca02c" stroke-width="1.375" x1="-1" x2="216" y1="21.6875" y2="21.6875"/><foreignObject class="markmap-foreign" x="8" y="0" style="opacity: 1;" width="198" height="21"><div xmlns="http://www.w3.org/1999/xhtml"><div xmlns="http://www.w3.org/1999/xhtml">④ 副交感神经(+) -&gt; 促分泌   </div></div></foreignObject></g><g data-depth="3" data-path="1.18.23" class="markmap-node" transform="translate(647, 110.421875)"><line stroke="#d62728" stroke-width="1.375" x1="-1" x2="610" y1="21.6875" y2="21.6875"/><foreignObject class="markmap-foreign" x="8" y="0" style="opacity: 1;" width="592" height="21"><div xmlns="http://www.w3.org/1999/xhtml"><div xmlns="http://www.w3.org/1999/xhtml">临床联系：长期高血糖/高血脂/高氨基酸 -&gt; 胰岛素持续分泌 -&gt; β细胞<strong>衰竭</strong> -&gt; 糖尿病   </div></div></foreignObject></g><g data-depth="2" data-path="1.18" class="markmap-node" transform="translate(412, 55.671875)"><line stroke="#bcbd22" stroke-width="1.75" x1="-1" x2="157" y1="21.875" y2="21.875"/><circle stroke-width="1.5" r="6" stroke="#bcbd22" fill="var(--markmap-circle-open-bg)" cx="155" cy="21.875"/><foreignObject class="markmap-foreign" x="8" y="0" style="opacity: 1;" width="139" height="21"><div xmlns="http://www.w3.org/1999/xhtml"><div xmlns="http://www.w3.org/1999/xhtml">★胰岛素分泌调节   </div></div></foreignObject></g><g data-depth="3" data-path="1.24.25" class="markmap-node" transform="translate(673, 142.796875)"><line stroke="#9467bd" stroke-width="1.375" x1="-1" x2="273" y1="21.6875" y2="21.6875"/><foreignObject class="markmap-foreign" x="8" y="0" style="opacity: 1;" width="255" height="21"><div xmlns="http://www.w3.org/1999/xhtml"><div xmlns="http://www.w3.org/1999/xhtml">促进糖原分解 + 糖异生 -&gt; <strong>升高血糖</strong>   </div></div></foreignObject></g><g data-depth="3" data-path="1.24.26" class="markmap-node" transform="translate(673, 170.171875)"><line stroke="#8c564b" stroke-width="1.375" x1="-1" x2="269" y1="21.6875" y2="21.6875"/><foreignObject class="markmap-foreign" x="8" y="0" style="opacity: 1;" width="251" height="21"><div xmlns="http://www.w3.org/1999/xhtml"><div xmlns="http://www.w3.org/1999/xhtml">与胰岛素<strong>拮抗</strong>，共同维持血糖稳态   </div></div></foreignObject></g><g data-depth="2" data-path="1.24" class="markmap-node" transform="translate(412, 156.484375)"><line stroke="#8c564b" stroke-width="1.75" x1="-1" x2="183" y1="21.875" y2="21.875"/><circle stroke-width="1.5" r="6" stroke="#8c564b" fill="var(--markmap-circle-open-bg)" cx="181" cy="21.875"/><foreignObject class="markmap-foreign" x="8" y="0" style="opacity: 1;" width="165" height="21"><div xmlns="http://www.w3.org/1999/xhtml"><div xmlns="http://www.w3.org/1999/xhtml">胰高血糖素——升血糖   </div></div></foreignObject></g><g data-depth="3" data-path="1.27.28" class="markmap-node" transform="translate(599, 202.546875)"><line stroke="#d62728" stroke-width="1.375" x1="-1" x2="279" y1="21.6875" y2="21.6875"/><foreignObject class="markmap-foreign" x="8" y="0" style="opacity: 1;" width="261" height="21"><div xmlns="http://www.w3.org/1999/xhtml"><div xmlns="http://www.w3.org/1999/xhtml">1 型：β细胞破坏 -&gt; 胰岛素绝对缺乏   </div></div></foreignObject></g><g data-depth="3" data-path="1.27.29" class="markmap-node" transform="translate(599, 229.921875)"><line stroke="#9467bd" stroke-width="1.375" x1="-1" x2="274" y1="21.6875" y2="21.6875"/><foreignObject class="markmap-foreign" x="8" y="0" style="opacity: 1;" width="256" height="21"><div xmlns="http://www.w3.org/1999/xhtml"><div xmlns="http://www.w3.org/1999/xhtml">2 型：胰岛素抵抗 + β细胞功能减退   </div></div></foreignObject></g><g data-depth="3" data-path="1.27.30" class="markmap-node" transform="translate(599, 257.296875)"><line stroke="#e377c2" stroke-width="1.375" x1="-1" x2="288" y1="21.6875" y2="21.6875"/><foreignObject class="markmap-foreign" x="8" y="0" style="opacity: 1;" width="270" height="21"><div xmlns="http://www.w3.org/1999/xhtml"><div xmlns="http://www.w3.org/1999/xhtml">并发症：心血管/肾/视网膜/神经病变   </div></div></foreignObject></g><g data-depth="2" data-path="1.27" class="markmap-node" transform="translate(412, 229.921875)"><line stroke="#2ca02c" stroke-width="1.75" x1="-1" x2="109" y1="21.875" y2="21.875"/><circle stroke-width="1.5" r="6" stroke="#2ca02c" fill="var(--markmap-circle-open-bg)" cx="107" cy="21.875"/><foreignObject class="markmap-foreign" x="8" y="0" style="opacity: 1;" width="91" height="21"><div xmlns="http://www.w3.org/1999/xhtml"><div xmlns="http://www.w3.org/1999/xhtml">糖尿病概要   </div></div></foreignObject></g><g data-depth="1" data-path="1" class="markmap-node" transform="translate(0, -10.5)"><line stroke="#1f77b4" stroke-width="2.5" x1="-1" x2="334" y1="22.25" y2="22.25"/><circle stroke-width="1.5" r="6" stroke="#1f77b4" fill="var(--markmap-circle-open-bg)" cx="332" cy="22.25"/><foreignObject class="markmap-foreign" x="8" y="0" style="opacity: 1;" width="316" height="21"><div xmlns="http://www.w3.org/1999/xhtml"><div xmlns="http://www.w3.org/1999/xhtml">胰岛内分泌（胰岛素为主）— 微型速记导图   </div></div></foreignObject></g></g></svg>