<svg xmlns="http://www.w3.org/2000/svg" class="w-full h-full leading-none markmap mm-gpvzjv-1" style=""><style>.markmap{--markmap-max-width: 9999px;--markmap-a-color: #0097e6;--markmap-a-hover-color: #00a8ff;--markmap-code-bg: #f0f0f0;--markmap-code-color: #555;--markmap-highlight-bg: #ffeaa7;--markmap-table-border: 1px solid currentColor;--markmap-font: 300 16px/20px sans-serif;--markmap-circle-open-bg: #fff;--markmap-text-color: #333;--markmap-highlight-node-bg: #ff02;font:var(--markmap-font);color:var(--markmap-text-color)}.markmap-link{fill:none}.markmap-node&gt;circle{cursor:pointer}.markmap-foreign{display:inline-block}.markmap-foreign p{margin:0}.markmap-foreign a{color:var(--markmap-a-color)}.markmap-foreign a:hover{color:var(--markmap-a-hover-color)}.markmap-foreign code{padding:.25em;font-size:calc(1em - 2px);color:var(--markmap-code-color);background-color:var(--markmap-code-bg);border-radius:2px}.markmap-foreign pre{margin:0}.markmap-foreign pre&gt;code{display:block}.markmap-foreign del{text-decoration:line-through}.markmap-foreign em{font-style:italic}.markmap-foreign strong{font-weight:700}.markmap-foreign mark{background:var(--markmap-highlight-bg)}.markmap-foreign table,.markmap-foreign th,.markmap-foreign td{border-collapse:collapse;border:var(--markmap-table-border)}.markmap-foreign img{display:inline-block}.markmap-foreign svg{fill:currentColor}.markmap-foreign&gt;div{width:var(--markmap-max-width);text-align:left}.markmap-foreign&gt;div&gt;div{display:inline-block}.markmap-highlight rect{fill:var(--markmap-highlight-node-bg)}.markmap-dark .markmap{--markmap-code-bg: #1a1b26;--markmap-code-color: #ddd;--markmap-circle-open-bg: #444;--markmap-text-color: #eee}</style><g transform="translate(128.81542646891046,319.39314121035943) scale(0.3873118149714764)"><path class="markmap-link" data-depth="3" data-path="1.2.3" d="M514,-229.047C554,-229.047,554,-256.609,594,-256.609" stroke-width="1.375" stroke="rgb(148, 103, 189)"/><path class="markmap-link" data-depth="3" data-path="1.2.4" d="M514,-229.047C554,-229.047,554,-229.234,594,-229.234" stroke-width="1.375" stroke="rgb(140, 86, 75)"/><path class="markmap-link" data-depth="3" data-path="1.2.5" d="M514,-229.047C554,-229.047,554,-201.859,594,-201.859" stroke-width="1.375" stroke="rgb(227, 119, 194)"/><path class="markmap-link" data-depth="4" data-path="1.6.7.8" d="M877,-169.484C917,-169.484,917,-196.766,957,-196.766" stroke-width="1.1875" stroke="rgb(188, 189, 34)"/><path class="markmap-link" data-depth="4" data-path="1.6.7.9" d="M877,-169.484C917,-169.484,917,-169.578,957,-169.578" stroke-width="1.1875" stroke="rgb(23, 190, 207)"/><path class="markmap-link" data-depth="4" data-path="1.6.7.10" d="M877,-169.484C917,-169.484,917,-142.391,957,-142.391" stroke-width="1.1875" stroke="rgb(31, 119, 180)"/><path class="markmap-link" data-depth="4" data-path="1.6.11.12" d="M963,-96.516C1003,-96.516,1003,-110.203,1043,-110.203" stroke-width="1.1875" stroke="rgb(44, 160, 44)"/><path class="markmap-link" data-depth="4" data-path="1.6.11.13" d="M963,-96.516C1003,-96.516,1003,-83.016,1043,-83.016" stroke-width="1.1875" stroke="rgb(214, 39, 40)"/><path class="markmap-link" data-depth="4" data-path="1.6.14.15" d="M979,-37.141C1019,-37.141,1019,-50.828,1059,-50.828" stroke-width="1.1875" stroke="rgb(140, 86, 75)"/><path class="markmap-link" data-depth="4" data-path="1.6.14.16" d="M979,-37.141C1019,-37.141,1019,-23.641,1059,-23.641" stroke-width="1.1875" stroke="rgb(227, 119, 194)"/><path class="markmap-link" data-depth="3" data-path="1.6.7" d="M653,-89.437C693,-89.437,693,-169.484,733,-169.484" stroke-width="1.375" stroke="rgb(188, 189, 34)"/><path class="markmap-link" data-depth="3" data-path="1.6.11" d="M653,-89.437C693,-89.437,693,-96.516,733,-96.516" stroke-width="1.375" stroke="rgb(255, 127, 14)"/><path class="markmap-link" data-depth="3" data-path="1.6.14" d="M653,-89.437C693,-89.437,693,-37.141,733,-37.141" stroke-width="1.375" stroke="rgb(148, 103, 189)"/><path class="markmap-link" data-depth="3" data-path="1.6.17" d="M653,-89.437C693,-89.437,693,-9.766,733,-9.766" stroke-width="1.375" stroke="rgb(127, 127, 127)"/><path class="markmap-link" data-depth="3" data-path="1.18.19" d="M546,77.547C586,77.547,586,22.609,626,22.609" stroke-width="1.375" stroke="rgb(23, 190, 207)"/><path class="markmap-link" data-depth="3" data-path="1.18.20" d="M546,77.547C586,77.547,586,49.984,626,49.984" stroke-width="1.375" stroke="rgb(31, 119, 180)"/><path class="markmap-link" data-depth="3" data-path="1.18.21" d="M546,77.547C586,77.547,586,77.359,626,77.359" stroke-width="1.375" stroke="rgb(255, 127, 14)"/><path class="markmap-link" data-depth="3" data-path="1.18.22" d="M546,77.547C586,77.547,586,104.734,626,104.734" stroke-width="1.375" stroke="rgb(44, 160, 44)"/><path class="markmap-link" data-depth="3" data-path="1.18.23" d="M546,77.547C586,77.547,586,132.109,626,132.109" stroke-width="1.375" stroke="rgb(214, 39, 40)"/><path class="markmap-link" data-depth="3" data-path="1.24.25" d="M573,178.359C613,178.359,613,164.484,653,164.484" stroke-width="1.375" stroke="rgb(148, 103, 189)"/><path class="markmap-link" data-depth="3" data-path="1.24.26" d="M573,178.359C613,178.359,613,191.859,653,191.859" stroke-width="1.375" stroke="rgb(140, 86, 75)"/><path class="markmap-link" data-depth="3" data-path="1.27.28" d="M498,251.797C538,251.797,538,224.234,578,224.234" stroke-width="1.375" stroke="rgb(214, 39, 40)"/><path class="markmap-link" data-depth="3" data-path="1.27.29" d="M498,251.797C538,251.797,538,251.609,578,251.609" stroke-width="1.375" stroke="rgb(148, 103, 189)"/><path class="markmap-link" data-depth="3" data-path="1.27.30" d="M498,251.797C538,251.797,538,278.984,578,278.984" stroke-width="1.375" stroke="rgb(227, 119, 194)"/><path class="markmap-link" data-depth="2" data-path="1.2" d="M322,11.75C362,11.75,362,-229.047,402,-229.047" stroke-width="1.75" stroke="rgb(255, 127, 14)"/><path class="markmap-link" data-depth="2" data-path="1.6" d="M322,11.75C362,11.75,362,-89.437,402,-89.437" stroke-width="1.75" stroke="rgb(127, 127, 127)"/><path class="markmap-link" data-depth="2" data-path="1.18" d="M322,11.75C362,11.75,362,77.547,402,77.547" stroke-width="1.75" stroke="rgb(188, 189, 34)"/><path class="markmap-link" data-depth="2" data-path="1.24" d="M322,11.75C362,11.75,362,178.359,402,178.359" stroke-width="1.75" stroke="rgb(140, 86, 75)"/><path class="markmap-link" data-depth="2" data-path="1.27" d="M322,11.75C362,11.75,362,251.797,402,251.797" stroke-width="1.75" stroke="rgb(44, 160, 44)"/><g class="markmap-highlight"/><g data-depth="3" data-path="1.2.3" class="markmap-node" transform="translate(594, -278.296875)"><line stroke="#9467bd" stroke-width="1.375" x1="-1" x2="286" y1="21.6875" y2="21.6875"/><foreignObject class="markmap-foreign" x="8" y="0" style="opacity: 1;" width="268" height="21"><div xmlns="http://www.w3.org/1999/xhtml"><div xmlns="http://www.w3.org/1999/xhtml">α 细胞（<strong>25%</strong>）：<strong>胰高血糖素</strong> -&gt; 升血糖</div></div></foreignObject></g><g data-depth="3" data-path="1.2.4" class="markmap-node" transform="translate(594, -250.921875)"><line stroke="#8c564b" stroke-width="1.375" x1="-1" x2="283" y1="21.6875" y2="21.6875"/><foreignObject class="markmap-foreign" x="8" y="0" style="opacity: 1;" width="265" height="21"><div xmlns="http://www.w3.org/1999/xhtml"><div xmlns="http://www.w3.org/1999/xhtml">β 细胞（<strong>60~70%</strong>）：<strong>胰岛素</strong> -&gt; 降血糖</div></div></foreignObject></g><g data-depth="3" data-path="1.2.5" class="markmap-node" transform="translate(594, -223.546875)"><line stroke="#e377c2" stroke-width="1.375" x1="-1" x2="190" y1="21.6875" y2="21.6875"/><foreignObject class="markmap-foreign" x="8" y="0" style="opacity: 1;" width="172" height="21"><div xmlns="http://www.w3.org/1999/xhtml"><div xmlns="http://www.w3.org/1999/xhtml">δ 细胞（5%）：生长抑素</div></div></foreignObject></g><g data-depth="2" data-path="1.2" class="markmap-node" transform="translate(402, -250.921875)"><line stroke="#ff7f0e" stroke-width="1.75" x1="-1" x2="114" y1="21.875" y2="21.875"/><circle stroke-width="1.5" r="6" stroke="#ff7f0e" fill="var(--markmap-circle-open-bg)" cx="112" cy="21.875"/><foreignObject class="markmap-foreign" x="8" y="0" style="opacity: 1;" width="96" height="21"><div xmlns="http://www.w3.org/1999/xhtml"><div xmlns="http://www.w3.org/1999/xhtml">胰岛细胞组成</div></div></foreignObject></g><g data-depth="4" data-path="1.6.7.8" class="markmap-node" transform="translate(957, -218.359375)"><line stroke="#bcbd22" stroke-width="1.1875" x1="-1" x2="290" y1="21.59375" y2="21.59375"/><foreignObject class="markmap-foreign" x="8" y="0" style="opacity: 1;" width="272" height="21"><div xmlns="http://www.w3.org/1999/xhtml"><div xmlns="http://www.w3.org/1999/xhtml">减少来源：抑制糖原分解 + 抑制糖异生</div></div></foreignObject></g><g data-depth="4" data-path="1.6.7.9" class="markmap-node" transform="translate(957, -191.171875)"><line stroke="#17becf" stroke-width="1.1875" x1="-1" x2="434" y1="21.59375" y2="21.59375"/><foreignObject class="markmap-foreign" x="8" y="0" style="opacity: 1;" width="416" height="21"><div xmlns="http://www.w3.org/1999/xhtml"><div xmlns="http://www.w3.org/1999/xhtml">增加去路：促进糖原合成 + 促进外周组织<strong>摄取和利用</strong>葡萄糖</div></div></foreignObject></g><g data-depth="4" data-path="1.6.7.10" class="markmap-node" transform="translate(957, -163.984375)"><line stroke="#1f77b4" stroke-width="1.1875" x1="-1" x2="119" y1="21.59375" y2="21.59375"/><foreignObject class="markmap-foreign" x="8" y="0" style="opacity: 1;" width="101" height="21"><div xmlns="http://www.w3.org/1999/xhtml"><div xmlns="http://www.w3.org/1999/xhtml">缺乏 -&gt; <strong>糖尿病</strong></div></div></foreignObject></g><g data-depth="3" data-path="1.6.7" class="markmap-node" transform="translate(733, -191.171875)"><line stroke="#bcbd22" stroke-width="1.375" x1="-1" x2="146" y1="21.6875" y2="21.6875"/><circle stroke-width="1.5" r="6" stroke="#bcbd22" fill="var(--markmap-circle-open-bg)" cx="144" cy="21.6875"/><foreignObject class="markmap-foreign" x="8" y="0" style="opacity: 1;" width="128" height="21"><div xmlns="http://www.w3.org/1999/xhtml"><div xmlns="http://www.w3.org/1999/xhtml">糖代谢：<strong>降低血糖</strong></div></div></foreignObject></g><g data-depth="4" data-path="1.6.11.12" class="markmap-node" transform="translate(1043, -131.796875)"><line stroke="#2ca02c" stroke-width="1.1875" x1="-1" x2="242" y1="21.59375" y2="21.59375"/><foreignObject class="markmap-foreign" x="8" y="0" style="opacity: 1;" width="224" height="21"><div xmlns="http://www.w3.org/1999/xhtml"><div xmlns="http://www.w3.org/1999/xhtml">促葡萄糖入脂肪细胞合成脂肪酸</div></div></foreignObject></g><g data-depth="4" data-path="1.6.11.13" class="markmap-node" transform="translate(1043, -104.609375)"><line stroke="#d62728" stroke-width="1.1875" x1="-1" x2="279" y1="21.59375" y2="21.59375"/><foreignObject class="markmap-foreign" x="8" y="0" style="opacity: 1;" width="261" height="21"><div xmlns="http://www.w3.org/1999/xhtml"><div xmlns="http://www.w3.org/1999/xhtml">抑制激素敏感性脂肪酶 -&gt; ↓脂肪分解</div></div></foreignObject></g><g data-depth="3" data-path="1.6.11" class="markmap-node" transform="translate(733, -118.203125)"><line stroke="#ff7f0e" stroke-width="1.375" x1="-1" x2="232" y1="21.6875" y2="21.6875"/><circle stroke-width="1.5" r="6" stroke="#ff7f0e" fill="var(--markmap-circle-open-bg)" cx="230" cy="21.6875"/><foreignObject class="markmap-foreign" x="8" y="0" style="opacity: 1;" width="214" height="21"><div xmlns="http://www.w3.org/1999/xhtml"><div xmlns="http://www.w3.org/1999/xhtml">脂肪代谢：<strong>促进合成/减少分解</strong></div></div></foreignObject></g><g data-depth="4" data-path="1.6.14.15" class="markmap-node" transform="translate(1059, -72.421875)"><line stroke="#8c564b" stroke-width="1.1875" x1="-1" x2="194" y1="21.59375" y2="21.59375"/><foreignObject class="markmap-foreign" x="8" y="0" style="opacity: 1;" width="176" height="21"><div xmlns="http://www.w3.org/1999/xhtml"><div xmlns="http://www.w3.org/1999/xhtml">促氨基酸入细胞合成蛋白</div></div></foreignObject></g><g data-depth="4" data-path="1.6.14.16" class="markmap-node" transform="translate(1059, -45.234375)"><line stroke="#e377c2" stroke-width="1.1875" x1="-1" x2="178" y1="21.59375" y2="21.59375"/><foreignObject class="markmap-foreign" x="8" y="0" style="opacity: 1;" width="160" height="21"><div xmlns="http://www.w3.org/1999/xhtml"><div xmlns="http://www.w3.org/1999/xhtml">抑制蛋白分解和糖异生</div></div></foreignObject></g><g data-depth="3" data-path="1.6.14" class="markmap-node" transform="translate(733, -58.828125)"><line stroke="#9467bd" stroke-width="1.375" x1="-1" x2="248" y1="21.6875" y2="21.6875"/><circle stroke-width="1.5" r="6" stroke="#9467bd" fill="var(--markmap-circle-open-bg)" cx="246" cy="21.6875"/><foreignObject class="markmap-foreign" x="8" y="0" style="opacity: 1;" width="230" height="21"><div xmlns="http://www.w3.org/1999/xhtml"><div xmlns="http://www.w3.org/1999/xhtml">蛋白质代谢：<strong>促进合成/抑制分解</strong></div></div></foreignObject></g><g data-depth="3" data-path="1.6.17" class="markmap-node" transform="translate(733, -31.453125)"><line stroke="#7f7f7f" stroke-width="1.375" x1="-1" x2="159" y1="21.6875" y2="21.6875"/><foreignObject class="markmap-foreign" x="8" y="0" style="opacity: 1;" width="141" height="21"><div xmlns="http://www.w3.org/1999/xhtml"><div xmlns="http://www.w3.org/1999/xhtml">促生长：与 GH 协同</div></div></foreignObject></g><g data-depth="2" data-path="1.6" class="markmap-node" transform="translate(402, -111.3125)"><line stroke="#7f7f7f" stroke-width="1.75" x1="-1" x2="253" y1="21.875" y2="21.875"/><circle stroke-width="1.5" r="6" stroke="#7f7f7f" fill="var(--markmap-circle-open-bg)" cx="251" cy="21.875"/><foreignObject class="markmap-foreign" x="8" y="0" style="opacity: 1;" width="235" height="21"><div xmlns="http://www.w3.org/1999/xhtml"><div xmlns="http://www.w3.org/1999/xhtml">★胰岛素——体内<strong>唯一</strong>降血糖激素</div></div></foreignObject></g><g data-depth="3" data-path="1.18.19" class="markmap-node" transform="translate(626, 0.921875)"><line stroke="#17becf" stroke-width="1.375" x1="-1" x2="363" y1="21.6875" y2="21.6875"/><foreignObject class="markmap-foreign" x="8" y="0" style="opacity: 1;" width="345" height="21"><div xmlns="http://www.w3.org/1999/xhtml"><div xmlns="http://www.w3.org/1999/xhtml">① <strong>血糖浓度</strong>：血糖↑ -&gt; 胰岛素分泌↑（<strong>最重要</strong>）</div></div></foreignObject></g><g data-depth="3" data-path="1.18.20" class="markmap-node" transform="translate(626, 28.296875)"><line stroke="#1f77b4" stroke-width="1.375" x1="-1" x2="225" y1="21.6875" y2="21.6875"/><foreignObject class="markmap-foreign" x="8" y="0" style="opacity: 1;" width="207" height="21"><div xmlns="http://www.w3.org/1999/xhtml"><div xmlns="http://www.w3.org/1999/xhtml">② 氨基酸/脂肪酸 -&gt; 刺激分泌</div></div></foreignObject></g><g data-depth="3" data-path="1.18.21" class="markmap-node" transform="translate(626, 55.671875)"><line stroke="#ff7f0e" stroke-width="1.375" x1="-1" x2="472" y1="21.6875" y2="21.6875"/><foreignObject class="markmap-foreign" x="8" y="0" style="opacity: 1;" width="454" height="21"><div xmlns="http://www.w3.org/1999/xhtml"><div xmlns="http://www.w3.org/1999/xhtml">③ 促血糖升高的激素可促胰岛素分泌（胰高血糖素/TH/GH/GC）</div></div></foreignObject></g><g data-depth="3" data-path="1.18.22" class="markmap-node" transform="translate(626, 83.046875)"><line stroke="#2ca02c" stroke-width="1.375" x1="-1" x2="205" y1="21.6875" y2="21.6875"/><foreignObject class="markmap-foreign" x="8" y="0" style="opacity: 1;" width="187" height="21"><div xmlns="http://www.w3.org/1999/xhtml"><div xmlns="http://www.w3.org/1999/xhtml">④ 副交感神经(+) -&gt; 促分泌</div></div></foreignObject></g><g data-depth="3" data-path="1.18.23" class="markmap-node" transform="translate(626, 110.421875)"><line stroke="#d62728" stroke-width="1.375" x1="-1" x2="599" y1="21.6875" y2="21.6875"/><foreignObject class="markmap-foreign" x="8" y="0" style="opacity: 1;" width="581" height="21"><div xmlns="http://www.w3.org/1999/xhtml"><div xmlns="http://www.w3.org/1999/xhtml">临床联系：长期高血糖/高血脂/高氨基酸 -&gt; 胰岛素持续分泌 -&gt; β细胞<strong>衰竭</strong> -&gt; 糖尿病</div></div></foreignObject></g><g data-depth="2" data-path="1.18" class="markmap-node" transform="translate(402, 55.671875)"><line stroke="#bcbd22" stroke-width="1.75" x1="-1" x2="146" y1="21.875" y2="21.875"/><circle stroke-width="1.5" r="6" stroke="#bcbd22" fill="var(--markmap-circle-open-bg)" cx="144" cy="21.875"/><foreignObject class="markmap-foreign" x="8" y="0" style="opacity: 1;" width="128" height="21"><div xmlns="http://www.w3.org/1999/xhtml"><div xmlns="http://www.w3.org/1999/xhtml">★胰岛素分泌调节</div></div></foreignObject></g><g data-depth="3" data-path="1.24.25" class="markmap-node" transform="translate(653, 142.796875)"><line stroke="#9467bd" stroke-width="1.375" x1="-1" x2="263" y1="21.6875" y2="21.6875"/><foreignObject class="markmap-foreign" x="8" y="0" style="opacity: 1;" width="245" height="21"><div xmlns="http://www.w3.org/1999/xhtml"><div xmlns="http://www.w3.org/1999/xhtml">促进糖原分解 + 糖异生 -&gt; <strong>升高血糖</strong></div></div></foreignObject></g><g data-depth="3" data-path="1.24.26" class="markmap-node" transform="translate(653, 170.171875)"><line stroke="#8c564b" stroke-width="1.375" x1="-1" x2="258" y1="21.6875" y2="21.6875"/><foreignObject class="markmap-foreign" x="8" y="0" style="opacity: 1;" width="240" height="21"><div xmlns="http://www.w3.org/1999/xhtml"><div xmlns="http://www.w3.org/1999/xhtml">与胰岛素<strong>拮抗</strong>，共同维持血糖稳态</div></div></foreignObject></g><g data-depth="2" data-path="1.24" class="markmap-node" transform="translate(402, 156.484375)"><line stroke="#8c564b" stroke-width="1.75" x1="-1" x2="173" y1="21.875" y2="21.875"/><circle stroke-width="1.5" r="6" stroke="#8c564b" fill="var(--markmap-circle-open-bg)" cx="171" cy="21.875"/><foreignObject class="markmap-foreign" x="8" y="0" style="opacity: 1;" width="155" height="21"><div xmlns="http://www.w3.org/1999/xhtml"><div xmlns="http://www.w3.org/1999/xhtml">胰高血糖素——升血糖</div></div></foreignObject></g><g data-depth="3" data-path="1.27.28" class="markmap-node" transform="translate(578, 202.546875)"><line stroke="#d62728" stroke-width="1.375" x1="-1" x2="269" y1="21.6875" y2="21.6875"/><foreignObject class="markmap-foreign" x="8" y="0" style="opacity: 1;" width="251" height="21"><div xmlns="http://www.w3.org/1999/xhtml"><div xmlns="http://www.w3.org/1999/xhtml">1 型：β细胞破坏 -&gt; 胰岛素绝对缺乏</div></div></foreignObject></g><g data-depth="3" data-path="1.27.29" class="markmap-node" transform="translate(578, 229.921875)"><line stroke="#9467bd" stroke-width="1.375" x1="-1" x2="263" y1="21.6875" y2="21.6875"/><foreignObject class="markmap-foreign" x="8" y="0" style="opacity: 1;" width="245" height="21"><div xmlns="http://www.w3.org/1999/xhtml"><div xmlns="http://www.w3.org/1999/xhtml">2 型：胰岛素抵抗 + β细胞功能减退</div></div></foreignObject></g><g data-depth="3" data-path="1.27.30" class="markmap-node" transform="translate(578, 257.296875)"><line stroke="#e377c2" stroke-width="1.375" x1="-1" x2="277" y1="21.6875" y2="21.6875"/><foreignObject class="markmap-foreign" x="8" y="0" style="opacity: 1;" width="259" height="21"><div xmlns="http://www.w3.org/1999/xhtml"><div xmlns="http://www.w3.org/1999/xhtml">并发症：心血管/肾/视网膜/神经病变</div></div></foreignObject></g><g data-depth="2" data-path="1.27" class="markmap-node" transform="translate(402, 229.921875)"><line stroke="#2ca02c" stroke-width="1.75" x1="-1" x2="98" y1="21.875" y2="21.875"/><circle stroke-width="1.5" r="6" stroke="#2ca02c" fill="var(--markmap-circle-open-bg)" cx="96" cy="21.875"/><foreignObject class="markmap-foreign" x="8" y="0" style="opacity: 1;" width="80" height="21"><div xmlns="http://www.w3.org/1999/xhtml"><div xmlns="http://www.w3.org/1999/xhtml">糖尿病概要</div></div></foreignObject></g><g data-depth="1" data-path="1" class="markmap-node" transform="translate(0, -10.5)"><line stroke="#1f77b4" stroke-width="2.5" x1="-1" x2="324" y1="22.25" y2="22.25"/><circle stroke-width="1.5" r="6" stroke="#1f77b4" fill="var(--markmap-circle-open-bg)" cx="322" cy="22.25"/><foreignObject class="markmap-foreign" x="8" y="0" style="opacity: 1;" width="306" height="21"><div xmlns="http://www.w3.org/1999/xhtml"><div xmlns="http://www.w3.org/1999/xhtml">胰岛内分泌（胰岛素为主）— 微型速记导图</div></div></foreignObject></g></g></svg>