<svg xmlns="http://www.w3.org/2000/svg" class="w-full h-full leading-none markmap mm-gpvzjv-1" style=""><style>.markmap{--markmap-max-width: 9999px;--markmap-a-color: #0097e6;--markmap-a-hover-color: #00a8ff;--markmap-code-bg: #f0f0f0;--markmap-code-color: #555;--markmap-highlight-bg: #ffeaa7;--markmap-table-border: 1px solid currentColor;--markmap-font: 300 16px/20px sans-serif;--markmap-circle-open-bg: #fff;--markmap-text-color: #333;--markmap-highlight-node-bg: #ff02;font:var(--markmap-font);color:var(--markmap-text-color)}.markmap-link{fill:none}.markmap-node&gt;circle{cursor:pointer}.markmap-foreign{display:inline-block}.markmap-foreign p{margin:0}.markmap-foreign a{color:var(--markmap-a-color)}.markmap-foreign a:hover{color:var(--markmap-a-hover-color)}.markmap-foreign code{padding:.25em;font-size:calc(1em - 2px);color:var(--markmap-code-color);background-color:var(--markmap-code-bg);border-radius:2px}.markmap-foreign pre{margin:0}.markmap-foreign pre&gt;code{display:block}.markmap-foreign del{text-decoration:line-through}.markmap-foreign em{font-style:italic}.markmap-foreign strong{font-weight:700}.markmap-foreign mark{background:var(--markmap-highlight-bg)}.markmap-foreign table,.markmap-foreign th,.markmap-foreign td{border-collapse:collapse;border:var(--markmap-table-border)}.markmap-foreign img{display:inline-block}.markmap-foreign svg{fill:currentColor}.markmap-foreign&gt;div{width:var(--markmap-max-width);text-align:left}.markmap-foreign&gt;div&gt;div{display:inline-block}.markmap-highlight rect{fill:var(--markmap-highlight-node-bg)}.markmap-dark .markmap{--markmap-code-bg: #1a1b26;--markmap-code-color: #ddd;--markmap-circle-open-bg: #444;--markmap-text-color: #eee}</style><g transform="translate(22.996583678570687,332.7656526728699) scale(0.5201035672705046)"><path class="markmap-link" data-depth="3" data-path="1.2.3" d="M646,-295.406C686,-295.406,686,-309.281,726,-309.281" stroke-width="1.375" stroke="rgb(148, 103, 189)"/><path class="markmap-link" data-depth="3" data-path="1.2.4" d="M646,-295.406C686,-295.406,686,-281.906,726,-281.906" stroke-width="1.375" stroke="rgb(140, 86, 75)"/><path class="markmap-link" data-depth="3" data-path="1.5.6" d="M655,-167.219C695,-167.219,695,-249.531,735,-249.531" stroke-width="1.375" stroke="rgb(227, 119, 194)"/><path class="markmap-link" data-depth="3" data-path="1.5.7" d="M655,-167.219C695,-167.219,695,-222.156,735,-222.156" stroke-width="1.375" stroke="rgb(214, 39, 40)"/><path class="markmap-link" data-depth="3" data-path="1.5.8" d="M655,-167.219C695,-167.219,695,-194.781,735,-194.781" stroke-width="1.375" stroke="rgb(148, 103, 189)"/><path class="markmap-link" data-depth="3" data-path="1.5.9" d="M655,-167.219C695,-167.219,695,-167.406,735,-167.406" stroke-width="1.375" stroke="rgb(140, 86, 75)"/><path class="markmap-link" data-depth="3" data-path="1.5.10" d="M655,-167.219C695,-167.219,695,-140.031,735,-140.031" stroke-width="1.375" stroke="rgb(227, 119, 194)"/><path class="markmap-link" data-depth="3" data-path="1.5.11" d="M655,-167.219C695,-167.219,695,-112.656,735,-112.656" stroke-width="1.375" stroke="rgb(127, 127, 127)"/><path class="markmap-link" data-depth="3" data-path="1.5.12" d="M655,-167.219C695,-167.219,695,-85.281,735,-85.281" stroke-width="1.375" stroke="rgb(188, 189, 34)"/><path class="markmap-link" data-depth="3" data-path="1.13.14" d="M668,29.406C708,29.406,708,-52.906,748,-52.906" stroke-width="1.375" stroke="rgb(140, 86, 75)"/><path class="markmap-link" data-depth="3" data-path="1.13.15" d="M668,29.406C708,29.406,708,-25.531,748,-25.531" stroke-width="1.375" stroke="rgb(227, 119, 194)"/><path class="markmap-link" data-depth="3" data-path="1.13.16" d="M668,29.406C708,29.406,708,1.844,748,1.844" stroke-width="1.375" stroke="rgb(127, 127, 127)"/><path class="markmap-link" data-depth="3" data-path="1.13.17" d="M668,29.406C708,29.406,708,29.219,748,29.219" stroke-width="1.375" stroke="rgb(188, 189, 34)"/><path class="markmap-link" data-depth="3" data-path="1.13.18" d="M668,29.406C708,29.406,708,56.594,748,56.594" stroke-width="1.375" stroke="rgb(23, 190, 207)"/><path class="markmap-link" data-depth="3" data-path="1.13.19" d="M668,29.406C708,29.406,708,83.969,748,83.969" stroke-width="1.375" stroke="rgb(31, 119, 180)"/><path class="markmap-link" data-depth="3" data-path="1.13.20" d="M668,29.406C708,29.406,708,111.344,748,111.344" stroke-width="1.375" stroke="rgb(255, 127, 14)"/><path class="markmap-link" data-depth="3" data-path="1.21.22" d="M582,171.281C622,171.281,622,143.719,662,143.719" stroke-width="1.375" stroke="rgb(214, 39, 40)"/><path class="markmap-link" data-depth="3" data-path="1.21.23" d="M582,171.281C622,171.281,622,171.094,662,171.094" stroke-width="1.375" stroke="rgb(148, 103, 189)"/><path class="markmap-link" data-depth="3" data-path="1.21.24" d="M582,171.281C622,171.281,622,198.469,662,198.469" stroke-width="1.375" stroke="rgb(44, 160, 44)"/><path class="markmap-link" data-depth="3" data-path="1.25.26" d="M614,244.719C654,244.719,654,230.844,694,230.844" stroke-width="1.375" stroke="rgb(148, 103, 189)"/><path class="markmap-link" data-depth="3" data-path="1.25.27" d="M614,244.719C654,244.719,654,258.219,694,258.219" stroke-width="1.375" stroke="rgb(140, 86, 75)"/><path class="markmap-link" data-depth="3" data-path="1.28.29" d="M534,318.156C574,318.156,574,290.594,614,290.594" stroke-width="1.375" stroke="rgb(23, 190, 207)"/><path class="markmap-link" data-depth="3" data-path="1.28.30" d="M534,318.156C574,318.156,574,317.969,614,317.969" stroke-width="1.375" stroke="rgb(31, 119, 180)"/><path class="markmap-link" data-depth="3" data-path="1.28.31" d="M534,318.156C574,318.156,574,345.344,614,345.344" stroke-width="1.375" stroke="rgb(227, 119, 194)"/><path class="markmap-link" data-depth="2" data-path="1.2" d="M363,11.75C403,11.75,403,-295.406,443,-295.406" stroke-width="1.75" stroke="rgb(255, 127, 14)"/><path class="markmap-link" data-depth="2" data-path="1.5" d="M363,11.75C403,11.75,403,-167.219,443,-167.219" stroke-width="1.75" stroke="rgb(44, 160, 44)"/><path class="markmap-link" data-depth="2" data-path="1.13" d="M363,11.75C403,11.75,403,29.406,443,29.406" stroke-width="1.75" stroke="rgb(148, 103, 189)"/><path class="markmap-link" data-depth="2" data-path="1.21" d="M363,11.75C403,11.75,403,171.281,443,171.281" stroke-width="1.75" stroke="rgb(44, 160, 44)"/><path class="markmap-link" data-depth="2" data-path="1.25" d="M363,11.75C403,11.75,403,244.719,443,244.719" stroke-width="1.75" stroke="rgb(214, 39, 40)"/><path class="markmap-link" data-depth="2" data-path="1.28" d="M363,11.75C403,11.75,403,318.156,443,318.156" stroke-width="1.75" stroke="rgb(188, 189, 34)"/><g class="markmap-highlight"/><g data-depth="3" data-path="1.2.3" class="markmap-node" transform="translate(726, -330.96875)"><line stroke="#9467bd" stroke-width="1.375" x1="-1" x2="301" y1="21.6875" y2="21.6875"/><foreignObject class="markmap-foreign" x="8" y="0" style="opacity: 1;" width="283" height="21"><div xmlns="http://www.w3.org/1999/xhtml"><div xmlns="http://www.w3.org/1999/xhtml">甲状腺轴：TRH -&gt; TSH -&gt; TH（T₃/T₄）   </div></div></foreignObject></g><g data-depth="3" data-path="1.2.4" class="markmap-node" transform="translate(726, -303.59375)"><line stroke="#8c564b" stroke-width="1.375" x1="-1" x2="322" y1="21.6875" y2="21.6875"/><foreignObject class="markmap-foreign" x="8" y="0" style="opacity: 1;" width="304" height="21"><div xmlns="http://www.w3.org/1999/xhtml"><div xmlns="http://www.w3.org/1999/xhtml">肾上腺轴：CRH -&gt; ACTH -&gt; GC（皮质醇）   </div></div></foreignObject></g><g data-depth="2" data-path="1.2" class="markmap-node" transform="translate(443, -317.28125)"><line stroke="#ff7f0e" stroke-width="1.75" x1="-1" x2="205" y1="21.875" y2="21.875"/><circle stroke-width="1.5" r="6" stroke="#ff7f0e" fill="var(--markmap-circle-open-bg)" cx="203" cy="21.875"/><foreignObject class="markmap-foreign" x="8" y="0" style="opacity: 1;" width="187" height="21"><div xmlns="http://www.w3.org/1999/xhtml"><div xmlns="http://www.w3.org/1999/xhtml">★两大负反馈轴（必考）   </div></div></foreignObject></g><g data-depth="3" data-path="1.5.6" class="markmap-node" transform="translate(735, -271.21875)"><line stroke="#e377c2" stroke-width="1.375" x1="-1" x2="461" y1="21.6875" y2="21.6875"/><foreignObject class="markmap-foreign" x="8" y="0" style="opacity: 1;" width="443" height="21"><div xmlns="http://www.w3.org/1999/xhtml"><div xmlns="http://www.w3.org/1999/xhtml">下丘脑：<strong>TRH</strong> -&gt; 促TSH合成释放 + 促TSH糖基化（保证活性）   </div></div></foreignObject></g><g data-depth="3" data-path="1.5.7" class="markmap-node" transform="translate(735, -243.84375)"><line stroke="#d62728" stroke-width="1.375" x1="-1" x2="357" y1="21.6875" y2="21.6875"/><foreignObject class="markmap-foreign" x="8" y="0" style="opacity: 1;" width="339" height="21"><div xmlns="http://www.w3.org/1999/xhtml"><div xmlns="http://www.w3.org/1999/xhtml">腺垂体：<strong>TSH</strong> -&gt; 促甲状腺增殖 + 促TH合成分泌   </div></div></foreignObject></g><g data-depth="3" data-path="1.5.8" class="markmap-node" transform="translate(735, -216.46875)"><line stroke="#9467bd" stroke-width="1.375" x1="-1" x2="168" y1="21.6875" y2="21.6875"/><foreignObject class="markmap-foreign" x="8" y="0" style="opacity: 1;" width="150" height="21"><div xmlns="http://www.w3.org/1999/xhtml"><div xmlns="http://www.w3.org/1999/xhtml">甲状腺：分泌 <strong>T₃/T₄</strong>   </div></div></foreignObject></g><g data-depth="3" data-path="1.5.9" class="markmap-node" transform="translate(735, -189.09375)"><line stroke="#8c564b" stroke-width="1.375" x1="-1" x2="444" y1="21.6875" y2="21.6875"/><foreignObject class="markmap-foreign" x="8" y="0" style="opacity: 1;" width="426" height="21"><div xmlns="http://www.w3.org/1999/xhtml"><div xmlns="http://www.w3.org/1999/xhtml">负反馈：TH↑ -&gt; 抑制TSH（下调TRH受体）+ 抑制TRH合成   </div></div></foreignObject></g><g data-depth="3" data-path="1.5.10" class="markmap-node" transform="translate(735, -161.71875)"><line stroke="#e377c2" stroke-width="1.375" x1="-1" x2="249" y1="21.6875" y2="21.6875"/><foreignObject class="markmap-foreign" x="8" y="0" style="opacity: 1;" width="231" height="21"><div xmlns="http://www.w3.org/1999/xhtml"><div xmlns="http://www.w3.org/1999/xhtml">甲亢：T₃/T₄**↑** + TSH**↓**   </div></div></foreignObject></g><g data-depth="3" data-path="1.5.11" class="markmap-node" transform="translate(735, -134.34375)"><line stroke="#7f7f7f" stroke-width="1.375" x1="-1" x2="249" y1="21.6875" y2="21.6875"/><foreignObject class="markmap-foreign" x="8" y="0" style="opacity: 1;" width="231" height="21"><div xmlns="http://www.w3.org/1999/xhtml"><div xmlns="http://www.w3.org/1999/xhtml">甲减：T₃/T₄**↓** + TSH**↑**   </div></div></foreignObject></g><g data-depth="3" data-path="1.5.12" class="markmap-node" transform="translate(735, -106.96875)"><line stroke="#bcbd22" stroke-width="1.375" x1="-1" x2="286" y1="21.6875" y2="21.6875"/><foreignObject class="markmap-foreign" x="8" y="0" style="opacity: 1;" width="268" height="21"><div xmlns="http://www.w3.org/1999/xhtml"><div xmlns="http://www.w3.org/1999/xhtml">★缺碘→TH↓→TSH↑→<strong>甲状腺肿大</strong>   </div></div></foreignObject></g><g data-depth="2" data-path="1.5" class="markmap-node" transform="translate(443, -189.09375)"><line stroke="#2ca02c" stroke-width="1.75" x1="-1" x2="214" y1="21.875" y2="21.875"/><circle stroke-width="1.5" r="6" stroke="#2ca02c" fill="var(--markmap-circle-open-bg)" cx="212" cy="21.875"/><foreignObject class="markmap-foreign" x="8" y="0" style="opacity: 1;" width="196" height="21"><div xmlns="http://www.w3.org/1999/xhtml"><div xmlns="http://www.w3.org/1999/xhtml">甲状腺轴（TRH-TSH-TH）   </div></div></foreignObject></g><g data-depth="3" data-path="1.13.14" class="markmap-node" transform="translate(748, -74.59375)"><line stroke="#8c564b" stroke-width="1.375" x1="-1" x2="242" y1="21.6875" y2="21.6875"/><foreignObject class="markmap-foreign" x="8" y="0" style="opacity: 1;" width="224" height="21"><div xmlns="http://www.w3.org/1999/xhtml"><div xmlns="http://www.w3.org/1999/xhtml">下丘脑：<strong>CRH</strong> -&gt; 促 ACTH 分泌   </div></div></foreignObject></g><g data-depth="3" data-path="1.13.15" class="markmap-node" transform="translate(748, -47.21875)"><line stroke="#e377c2" stroke-width="1.375" x1="-1" x2="424" y1="21.6875" y2="21.6875"/><foreignObject class="markmap-foreign" x="8" y="0" style="opacity: 1;" width="406" height="21"><div xmlns="http://www.w3.org/1999/xhtml"><div xmlns="http://www.w3.org/1999/xhtml">腺垂体：<strong>ACTH</strong> -&gt; 维持肾上腺皮质结构 + 促 GC 合成分泌   </div></div></foreignObject></g><g data-depth="3" data-path="1.13.16" class="markmap-node" transform="translate(748, -19.84375)"><line stroke="#7f7f7f" stroke-width="1.375" x1="-1" x2="262" y1="21.6875" y2="21.6875"/><foreignObject class="markmap-foreign" x="8" y="0" style="opacity: 1;" width="244" height="21"><div xmlns="http://www.w3.org/1999/xhtml"><div xmlns="http://www.w3.org/1999/xhtml">肾上腺皮质：分泌 <strong>GC（皮质醇）</strong>   </div></div></foreignObject></g><g data-depth="3" data-path="1.13.17" class="markmap-node" transform="translate(748, 7.53125)"><line stroke="#bcbd22" stroke-width="1.375" x1="-1" x2="390" y1="21.6875" y2="21.6875"/><foreignObject class="markmap-foreign" x="8" y="0" style="opacity: 1;" width="372" height="21"><div xmlns="http://www.w3.org/1999/xhtml"><div xmlns="http://www.w3.org/1999/xhtml">生物钟：CRH清晨<strong>最高</strong> / 午夜<strong>最低</strong> -&gt; GC 呈昼夜节律   </div></div></foreignObject></g><g data-depth="3" data-path="1.13.18" class="markmap-node" transform="translate(748, 34.90625)"><line stroke="#17becf" stroke-width="1.375" x1="-1" x2="262" y1="21.6875" y2="21.6875"/><foreignObject class="markmap-foreign" x="8" y="0" style="opacity: 1;" width="244" height="21"><div xmlns="http://www.w3.org/1999/xhtml"><div xmlns="http://www.w3.org/1999/xhtml">负反馈：GC↑ -&gt; 抑制 CRH/ACTH   </div></div></foreignObject></g><g data-depth="3" data-path="1.13.19" class="markmap-node" transform="translate(748, 62.28125)"><line stroke="#1f77b4" stroke-width="1.375" x1="-1" x2="579" y1="21.6875" y2="21.6875"/><foreignObject class="markmap-foreign" x="8" y="0" style="opacity: 1;" width="561" height="21"><div xmlns="http://www.w3.org/1999/xhtml"><div xmlns="http://www.w3.org/1999/xhtml">★长期用GC药物 -&gt; ACTH↓ -&gt; 肾上腺皮质<strong>萎缩</strong> -&gt; 突然停药 -&gt; <strong>肾上腺危象/死亡</strong>   </div></div></foreignObject></g><g data-depth="3" data-path="1.13.20" class="markmap-node" transform="translate(748, 89.65625)"><line stroke="#ff7f0e" stroke-width="1.375" x1="-1" x2="280" y1="21.6875" y2="21.6875"/><foreignObject class="markmap-foreign" x="8" y="0" style="opacity: 1;" width="262" height="21"><div xmlns="http://www.w3.org/1999/xhtml"><div xmlns="http://www.w3.org/1999/xhtml">停药原则：<strong>逐渐减量 + 间断补ACTH</strong>   </div></div></foreignObject></g><g data-depth="2" data-path="1.13" class="markmap-node" transform="translate(443, 7.53125)"><line stroke="#9467bd" stroke-width="1.75" x1="-1" x2="227" y1="21.875" y2="21.875"/><circle stroke-width="1.5" r="6" stroke="#9467bd" fill="var(--markmap-circle-open-bg)" cx="225" cy="21.875"/><foreignObject class="markmap-foreign" x="8" y="0" style="opacity: 1;" width="209" height="21"><div xmlns="http://www.w3.org/1999/xhtml"><div xmlns="http://www.w3.org/1999/xhtml">肾上腺轴（CRH-ACTH-GC）   </div></div></foreignObject></g><g data-depth="3" data-path="1.21.22" class="markmap-node" transform="translate(662, 122.03125)"><line stroke="#d62728" stroke-width="1.375" x1="-1" x2="376" y1="21.6875" y2="21.6875"/><foreignObject class="markmap-foreign" x="8" y="0" style="opacity: 1;" width="358" height="21"><div xmlns="http://www.w3.org/1999/xhtml"><div xmlns="http://www.w3.org/1999/xhtml">长反馈：<strong>靶腺激素</strong> -&gt; 抑下丘脑/腺垂体（最重要）   </div></div></foreignObject></g><g data-depth="3" data-path="1.21.23" class="markmap-node" transform="translate(662, 149.40625)"><line stroke="#9467bd" stroke-width="1.375" x1="-1" x2="258" y1="21.6875" y2="21.6875"/><foreignObject class="markmap-foreign" x="8" y="0" style="opacity: 1;" width="240" height="21"><div xmlns="http://www.w3.org/1999/xhtml"><div xmlns="http://www.w3.org/1999/xhtml">短反馈：<strong>腺垂体激素</strong> -&gt; 抑下丘脑   </div></div></foreignObject></g><g data-depth="3" data-path="1.21.24" class="markmap-node" transform="translate(662, 176.78125)"><line stroke="#2ca02c" stroke-width="1.375" x1="-1" x2="258" y1="21.6875" y2="21.6875"/><foreignObject class="markmap-foreign" x="8" y="0" style="opacity: 1;" width="240" height="21"><div xmlns="http://www.w3.org/1999/xhtml"><div xmlns="http://www.w3.org/1999/xhtml">超短反馈：<strong>下丘脑激素</strong> -&gt; 抑自身   </div></div></foreignObject></g><g data-depth="2" data-path="1.21" class="markmap-node" transform="translate(443, 149.40625)"><line stroke="#2ca02c" stroke-width="1.75" x1="-1" x2="141" y1="21.875" y2="21.875"/><circle stroke-width="1.5" r="6" stroke="#2ca02c" fill="var(--markmap-circle-open-bg)" cx="139" cy="21.875"/><foreignObject class="markmap-foreign" x="8" y="0" style="opacity: 1;" width="123" height="21"><div xmlns="http://www.w3.org/1999/xhtml"><div xmlns="http://www.w3.org/1999/xhtml">★反馈层级对比   </div></div></foreignObject></g><g data-depth="3" data-path="1.25.26" class="markmap-node" transform="translate(694, 209.15625)"><line stroke="#9467bd" stroke-width="1.375" x1="-1" x2="421" y1="21.6875" y2="21.6875"/><foreignObject class="markmap-foreign" x="8" y="0" style="opacity: 1;" width="403" height="21"><div xmlns="http://www.w3.org/1999/xhtml"><div xmlns="http://www.w3.org/1999/xhtml">应激时：下丘脑-垂体-肾上腺轴大量激活 -&gt; GC 大量分泌   </div></div></foreignObject></g><g data-depth="3" data-path="1.25.27" class="markmap-node" transform="translate(694, 236.53125)"><line stroke="#8c564b" stroke-width="1.375" x1="-1" x2="349" y1="21.6875" y2="21.6875"/><foreignObject class="markmap-foreign" x="8" y="0" style="opacity: 1;" width="331" height="21"><div xmlns="http://www.w3.org/1999/xhtml"><div xmlns="http://www.w3.org/1999/xhtml"><strong>不受轴性负反馈影响</strong>（区别于日常节律调控）   </div></div></foreignObject></g><g data-depth="2" data-path="1.25" class="markmap-node" transform="translate(443, 222.84375)"><line stroke="#d62728" stroke-width="1.75" x1="-1" x2="173" y1="21.875" y2="21.875"/><circle stroke-width="1.5" r="6" stroke="#d62728" fill="var(--markmap-circle-open-bg)" cx="171" cy="21.875"/><foreignObject class="markmap-foreign" x="8" y="0" style="opacity: 1;" width="155" height="21"><div xmlns="http://www.w3.org/1999/xhtml"><div xmlns="http://www.w3.org/1999/xhtml">★应激反应的特殊性   </div></div></foreignObject></g><g data-depth="3" data-path="1.28.29" class="markmap-node" transform="translate(614, 268.90625)"><line stroke="#17becf" stroke-width="1.375" x1="-1" x2="504" y1="21.6875" y2="21.6875"/><foreignObject class="markmap-foreign" x="8" y="0" style="opacity: 1;" width="486" height="21"><div xmlns="http://www.w3.org/1999/xhtml"><div xmlns="http://www.w3.org/1999/xhtml">长期用泼尼松/地塞米松 -&gt; 必须<strong>缓慢减量</strong>（防肾上腺皮质功能不全）   </div></div></foreignObject></g><g data-depth="3" data-path="1.28.30" class="markmap-node" transform="translate(614, 296.28125)"><line stroke="#1f77b4" stroke-width="1.375" x1="-1" x2="409" y1="21.6875" y2="21.6875"/><foreignObject class="markmap-foreign" x="8" y="0" style="opacity: 1;" width="391" height="21"><div xmlns="http://www.w3.org/1999/xhtml"><div xmlns="http://www.w3.org/1999/xhtml">库欣综合征：GC过多 -&gt; 满月脸/水牛背/高血压/高血糖   </div></div></foreignObject></g><g data-depth="3" data-path="1.28.31" class="markmap-node" transform="translate(614, 323.65625)"><line stroke="#e377c2" stroke-width="1.375" x1="-1" x2="355" y1="21.6875" y2="21.6875"/><foreignObject class="markmap-foreign" x="8" y="0" style="opacity: 1;" width="337" height="21"><div xmlns="http://www.w3.org/1999/xhtml"><div xmlns="http://www.w3.org/1999/xhtml">艾迪生病：GC不足 -&gt; 低血糖/低血压/色素沉着   </div></div></foreignObject></g><g data-depth="2" data-path="1.28" class="markmap-node" transform="translate(443, 296.28125)"><line stroke="#bcbd22" stroke-width="1.75" x1="-1" x2="93" y1="21.875" y2="21.875"/><circle stroke-width="1.5" r="6" stroke="#bcbd22" fill="var(--markmap-circle-open-bg)" cx="91" cy="21.875"/><foreignObject class="markmap-foreign" x="8" y="0" style="opacity: 1;" width="75" height="21"><div xmlns="http://www.w3.org/1999/xhtml"><div xmlns="http://www.w3.org/1999/xhtml">临床联系   </div></div></foreignObject></g><g data-depth="1" data-path="1" class="markmap-node" transform="translate(0, -10.5)"><line stroke="#1f77b4" stroke-width="2.5" x1="-1" x2="365" y1="22.25" y2="22.25"/><circle stroke-width="1.5" r="6" stroke="#1f77b4" fill="var(--markmap-circle-open-bg)" cx="363" cy="22.25"/><foreignObject class="markmap-foreign" x="8" y="0" style="opacity: 1;" width="347" height="21"><div xmlns="http://www.w3.org/1999/xhtml"><div xmlns="http://www.w3.org/1999/xhtml">下丘脑-垂体-靶腺轴与反馈调节 — 微型速记导图   </div></div></foreignObject></g></g></svg>