<svg xmlns="http://www.w3.org/2000/svg" class="w-full h-full leading-none markmap mm-gpvzjv-1" style=""><style>.markmap{--markmap-max-width: 9999px;--markmap-a-color: #0097e6;--markmap-a-hover-color: #00a8ff;--markmap-code-bg: #f0f0f0;--markmap-code-color: #555;--markmap-highlight-bg: #ffeaa7;--markmap-table-border: 1px solid currentColor;--markmap-font: 300 16px/20px sans-serif;--markmap-circle-open-bg: #fff;--markmap-text-color: #333;--markmap-highlight-node-bg: #ff02;font:var(--markmap-font);color:var(--markmap-text-color)}.markmap-link{fill:none}.markmap-node&gt;circle{cursor:pointer}.markmap-foreign{display:inline-block}.markmap-foreign p{margin:0}.markmap-foreign a{color:var(--markmap-a-color)}.markmap-foreign a:hover{color:var(--markmap-a-hover-color)}.markmap-foreign code{padding:.25em;font-size:calc(1em - 2px);color:var(--markmap-code-color);background-color:var(--markmap-code-bg);border-radius:2px}.markmap-foreign pre{margin:0}.markmap-foreign pre&gt;code{display:block}.markmap-foreign del{text-decoration:line-through}.markmap-foreign em{font-style:italic}.markmap-foreign strong{font-weight:700}.markmap-foreign mark{background:var(--markmap-highlight-bg)}.markmap-foreign table,.markmap-foreign th,.markmap-foreign td{border-collapse:collapse;border:var(--markmap-table-border)}.markmap-foreign img{display:inline-block}.markmap-foreign svg{fill:currentColor}.markmap-foreign&gt;div{width:var(--markmap-max-width);text-align:left}.markmap-foreign&gt;div&gt;div{display:inline-block}.markmap-highlight rect{fill:var(--markmap-highlight-node-bg)}.markmap-dark .markmap{--markmap-code-bg: #1a1b26;--markmap-code-color: #ddd;--markmap-circle-open-bg: #444;--markmap-text-color: #eee}</style><g transform="translate(45.342479467360405,351.96660931363647) scale(0.35738906958104794)"><path class="markmap-link" data-depth="4" data-path="1.2.3.4" d="M1061,-419.562C1101,-419.562,1101,-446.844,1141,-446.844" stroke-width="1.1875" stroke="rgb(140, 86, 75)"/><path class="markmap-link" data-depth="4" data-path="1.2.3.5" d="M1061,-419.562C1101,-419.562,1101,-419.656,1141,-419.656" stroke-width="1.1875" stroke="rgb(255, 127, 14)"/><path class="markmap-link" data-depth="4" data-path="1.2.3.6" d="M1061,-419.562C1101,-419.562,1101,-392.469,1141,-392.469" stroke-width="1.1875" stroke="rgb(227, 119, 194)"/><path class="markmap-link" data-depth="5" data-path="1.2.7.10.11" d="M1441,-305.906C1481,-305.906,1481,-360.141,1521,-360.141" stroke-width="1.09375" stroke="rgb(31, 119, 180)"/><path class="markmap-link" data-depth="5" data-path="1.2.7.10.12" d="M1441,-305.906C1481,-305.906,1481,-333.047,1521,-333.047" stroke-width="1.09375" stroke="rgb(255, 127, 14)"/><path class="markmap-link" data-depth="5" data-path="1.2.7.10.13" d="M1441,-305.906C1481,-305.906,1481,-305.953,1521,-305.953" stroke-width="1.09375" stroke="rgb(44, 160, 44)"/><path class="markmap-link" data-depth="5" data-path="1.2.7.10.14" d="M1441,-305.906C1481,-305.906,1481,-278.859,1521,-278.859" stroke-width="1.09375" stroke="rgb(214, 39, 40)"/><path class="markmap-link" data-depth="5" data-path="1.2.7.10.15" d="M1441,-305.906C1481,-305.906,1481,-251.766,1521,-251.766" stroke-width="1.09375" stroke="rgb(148, 103, 189)"/><path class="markmap-link" data-depth="4" data-path="1.2.7.8" d="M896,-333C936,-333,936,-360.281,976,-360.281" stroke-width="1.1875" stroke="rgb(127, 127, 127)"/><path class="markmap-link" data-depth="4" data-path="1.2.7.9" d="M896,-333C936,-333,936,-333.094,976,-333.094" stroke-width="1.1875" stroke="rgb(188, 189, 34)"/><path class="markmap-link" data-depth="4" data-path="1.2.7.10" d="M896,-333C936,-333,936,-305.906,976,-305.906" stroke-width="1.1875" stroke="rgb(23, 190, 207)"/><path class="markmap-link" data-depth="4" data-path="1.2.16.17" d="M974,-205.937C1014,-205.937,1014,-219.625,1054,-219.625" stroke-width="1.1875" stroke="rgb(188, 189, 34)"/><path class="markmap-link" data-depth="4" data-path="1.2.16.18" d="M974,-205.937C1014,-205.937,1014,-192.437,1054,-192.437" stroke-width="1.1875" stroke="rgb(23, 190, 207)"/><path class="markmap-link" data-depth="3" data-path="1.2.3" d="M679,-312.562C719,-312.562,719,-419.562,759,-419.562" stroke-width="1.375" stroke="rgb(148, 103, 189)"/><path class="markmap-link" data-depth="3" data-path="1.2.7" d="M679,-312.562C719,-312.562,719,-333,759,-333" stroke-width="1.375" stroke="rgb(44, 160, 44)"/><path class="markmap-link" data-depth="3" data-path="1.2.16" d="M679,-312.562C719,-312.562,719,-205.937,759,-205.937" stroke-width="1.375" stroke="rgb(127, 127, 127)"/><path class="markmap-link" data-depth="3" data-path="1.19.20" d="M539,-132.312C579,-132.312,579,-173.562,619,-173.562" stroke-width="1.375" stroke="rgb(227, 119, 194)"/><path class="markmap-link" data-depth="3" data-path="1.19.21" d="M539,-132.312C579,-132.312,579,-146.187,619,-146.187" stroke-width="1.375" stroke="rgb(127, 127, 127)"/><path class="markmap-link" data-depth="3" data-path="1.19.22" d="M539,-132.312C579,-132.312,579,-118.812,619,-118.812" stroke-width="1.375" stroke="rgb(188, 189, 34)"/><path class="markmap-link" data-depth="3" data-path="1.19.23" d="M539,-132.312C579,-132.312,579,-91.437,619,-91.437" stroke-width="1.375" stroke="rgb(23, 190, 207)"/><path class="markmap-link" data-depth="3" data-path="1.24.25" d="M709,-17.812C749,-17.812,749,-59.062,789,-59.062" stroke-width="1.375" stroke="rgb(148, 103, 189)"/><path class="markmap-link" data-depth="3" data-path="1.24.26" d="M709,-17.812C749,-17.812,749,-31.687,789,-31.687" stroke-width="1.375" stroke="rgb(140, 86, 75)"/><path class="markmap-link" data-depth="3" data-path="1.24.27" d="M709,-17.812C749,-17.812,749,-4.312,789,-4.312" stroke-width="1.375" stroke="rgb(31, 119, 180)"/><path class="markmap-link" data-depth="3" data-path="1.24.28" d="M709,-17.812C749,-17.812,749,23.063,789,23.063" stroke-width="1.375" stroke="rgb(255, 127, 14)"/><path class="markmap-link" data-depth="3" data-path="1.29.30" d="M550,83C590,83,590,55.438,630,55.438" stroke-width="1.375" stroke="rgb(214, 39, 40)"/><path class="markmap-link" data-depth="3" data-path="1.29.31" d="M550,83C590,83,590,82.813,630,82.813" stroke-width="1.375" stroke="rgb(148, 103, 189)"/><path class="markmap-link" data-depth="3" data-path="1.29.32" d="M550,83C590,83,590,110.188,630,110.188" stroke-width="1.375" stroke="rgb(140, 86, 75)"/><path class="markmap-link" data-depth="4" data-path="1.33.36.37" d="M746,215.906C786,215.906,786,202.219,826,202.219" stroke-width="1.1875" stroke="rgb(140, 86, 75)"/><path class="markmap-link" data-depth="4" data-path="1.33.36.38" d="M746,215.906C786,215.906,786,229.406,826,229.406" stroke-width="1.1875" stroke="rgb(127, 127, 127)"/><path class="markmap-link" data-depth="3" data-path="1.33.34" d="M559,202.313C599,202.313,599,142.563,639,142.563" stroke-width="1.375" stroke="rgb(44, 160, 44)"/><path class="markmap-link" data-depth="3" data-path="1.33.35" d="M559,202.313C599,202.313,599,169.938,639,169.938" stroke-width="1.375" stroke="rgb(227, 119, 194)"/><path class="markmap-link" data-depth="3" data-path="1.33.36" d="M559,202.313C599,202.313,599,215.906,639,215.906" stroke-width="1.375" stroke="rgb(148, 103, 189)"/><path class="markmap-link" data-depth="3" data-path="1.33.39" d="M559,202.313C599,202.313,599,261.688,639,261.688" stroke-width="1.375" stroke="rgb(188, 189, 34)"/><path class="markmap-link" data-depth="3" data-path="1.40.41" d="M703,335.313C743,335.313,743,294.063,783,294.063" stroke-width="1.375" stroke="rgb(31, 119, 180)"/><path class="markmap-link" data-depth="3" data-path="1.40.42" d="M703,335.313C743,335.313,743,321.438,783,321.438" stroke-width="1.375" stroke="rgb(255, 127, 14)"/><path class="markmap-link" data-depth="3" data-path="1.40.43" d="M703,335.313C743,335.313,743,348.813,783,348.813" stroke-width="1.375" stroke="rgb(44, 160, 44)"/><path class="markmap-link" data-depth="3" data-path="1.40.44" d="M703,335.313C743,335.313,743,376.188,783,376.188" stroke-width="1.375" stroke="rgb(214, 39, 40)"/><path class="markmap-link" data-depth="2" data-path="1.2" d="M336,11.75C376,11.75,376,-312.562,416,-312.562" stroke-width="1.75" stroke="rgb(255, 127, 14)"/><path class="markmap-link" data-depth="2" data-path="1.19" d="M336,11.75C376,11.75,376,-132.312,416,-132.312" stroke-width="1.75" stroke="rgb(140, 86, 75)"/><path class="markmap-link" data-depth="2" data-path="1.24" d="M336,11.75C376,11.75,376,-17.812,416,-17.812" stroke-width="1.75" stroke="rgb(140, 86, 75)"/><path class="markmap-link" data-depth="2" data-path="1.29" d="M336,11.75C376,11.75,376,83,416,83" stroke-width="1.75" stroke="rgb(44, 160, 44)"/><path class="markmap-link" data-depth="2" data-path="1.33" d="M336,11.75C376,11.75,376,202.313,416,202.313" stroke-width="1.75" stroke="rgb(255, 127, 14)"/><path class="markmap-link" data-depth="2" data-path="1.40" d="M336,11.75C376,11.75,376,335.313,416,335.313" stroke-width="1.75" stroke="rgb(23, 190, 207)"/><g class="markmap-highlight"/><g data-depth="4" data-path="1.2.3.4" class="markmap-node" transform="translate(1141, -468.4375)"><line stroke="#8c564b" stroke-width="1.1875" x1="-1" x2="659" y1="21.59375" y2="21.59375"/><foreignObject class="markmap-foreign" x="8" y="0" style="opacity: 1;" width="641" height="21"><div xmlns="http://www.w3.org/1999/xhtml"><div xmlns="http://www.w3.org/1999/xhtml">前半段（2/3）：跨细胞 -&gt; <strong>H⁺-Na⁺ 交换</strong>（腔面）+ Na⁺ 泵（侧膜）-&gt; Cl⁻ 无重吸收 -&gt; 水被动   </div></div></foreignObject></g><g data-depth="4" data-path="1.2.3.5" class="markmap-node" transform="translate(1141, -441.25)"><line stroke="#ff7f0e" stroke-width="1.1875" x1="-1" x2="509" y1="21.59375" y2="21.59375"/><foreignObject class="markmap-foreign" x="8" y="0" style="opacity: 1;" width="491" height="21"><div xmlns="http://www.w3.org/1999/xhtml"><div xmlns="http://www.w3.org/1999/xhtml">后半段（1/3）：细胞旁 -&gt; Cl⁻ 顺浓度差 + Na⁺ 顺电位差被动 -&gt; 水被动   </div></div></foreignObject></g><g data-depth="4" data-path="1.2.3.6" class="markmap-node" transform="translate(1141, -414.0625)"><line stroke="#e377c2" stroke-width="1.1875" x1="-1" x2="173" y1="21.59375" y2="21.59375"/><foreignObject class="markmap-foreign" x="8" y="0" style="opacity: 1;" width="155" height="21"><div xmlns="http://www.w3.org/1999/xhtml"><div xmlns="http://www.w3.org/1999/xhtml">特点：<strong>等渗性重吸收</strong>   </div></div></foreignObject></g><g data-depth="3" data-path="1.2.3" class="markmap-node" transform="translate(759, -441.25)"><line stroke="#9467bd" stroke-width="1.375" x1="-1" x2="304" y1="21.6875" y2="21.6875"/><circle stroke-width="1.5" r="6" stroke="#9467bd" fill="var(--markmap-circle-open-bg)" cx="302" cy="21.6875"/><foreignObject class="markmap-foreign" x="8" y="0" style="opacity: 1;" width="286" height="21"><div xmlns="http://www.w3.org/1999/xhtml"><div xmlns="http://www.w3.org/1999/xhtml">近端小管：<strong>65~70%</strong> -&gt; 重吸收<strong>主要部位</strong>   </div></div></foreignObject></g><g data-depth="4" data-path="1.2.7.8" class="markmap-node" transform="translate(976, -381.875)"><line stroke="#7f7f7f" stroke-width="1.1875" x1="-1" x2="347" y1="21.59375" y2="21.59375"/><foreignObject class="markmap-foreign" x="8" y="0" style="opacity: 1;" width="329" height="21"><div xmlns="http://www.w3.org/1999/xhtml"><div xmlns="http://www.w3.org/1999/xhtml">降支细段：Na⁺/Cl⁻ 不易通透 -&gt; <strong>水被动重吸收</strong>   </div></div></foreignObject></g><g data-depth="4" data-path="1.2.7.9" class="markmap-node" transform="translate(976, -354.6875)"><line stroke="#bcbd22" stroke-width="1.1875" x1="-1" x2="347" y1="21.59375" y2="21.59375"/><foreignObject class="markmap-foreign" x="8" y="0" style="opacity: 1;" width="329" height="21"><div xmlns="http://www.w3.org/1999/xhtml"><div xmlns="http://www.w3.org/1999/xhtml">升支细段：水不易通透 -&gt; Na⁺/Cl⁻ <strong>被动重吸收</strong>   </div></div></foreignObject></g><g data-depth="5" data-path="1.2.7.10.11" class="markmap-node" transform="translate(1521, -381.6875)"><line stroke="#1f77b4" stroke-width="1.09375" x1="-1" x2="223" y1="21.546875" y2="21.546875"/><foreignObject class="markmap-foreign" x="8" y="0" style="opacity: 1;" width="205" height="21"><div xmlns="http://www.w3.org/1999/xhtml"><div xmlns="http://www.w3.org/1999/xhtml">2Cl⁻ -&gt; 经通道进入组织间液   </div></div></foreignObject></g><g data-depth="5" data-path="1.2.7.10.12" class="markmap-node" transform="translate(1521, -354.59375)"><line stroke="#ff7f0e" stroke-width="1.09375" x1="-1" x2="181" y1="21.546875" y2="21.546875"/><foreignObject class="markmap-foreign" x="8" y="0" style="opacity: 1;" width="163" height="21"><div xmlns="http://www.w3.org/1999/xhtml"><div xmlns="http://www.w3.org/1999/xhtml">1Na⁺ -&gt; 钠泵<strong>主动</strong>泵出   </div></div></foreignObject></g><g data-depth="5" data-path="1.2.7.10.13" class="markmap-node" transform="translate(1521, -327.5)"><line stroke="#2ca02c" stroke-width="1.09375" x1="-1" x2="219" y1="21.546875" y2="21.546875"/><foreignObject class="markmap-foreign" x="8" y="0" style="opacity: 1;" width="201" height="21"><div xmlns="http://www.w3.org/1999/xhtml"><div xmlns="http://www.w3.org/1999/xhtml">1K⁺ -&gt; 顺浓度梯度<strong>漏回</strong>管腔   </div></div></foreignObject></g><g data-depth="5" data-path="1.2.7.10.14" class="markmap-node" transform="translate(1521, -300.40625)"><line stroke="#d62728" stroke-width="1.09375" x1="-1" x2="309" y1="21.546875" y2="21.546875"/><foreignObject class="markmap-foreign" x="8" y="0" style="opacity: 1;" width="291" height="21"><div xmlns="http://www.w3.org/1999/xhtml"><div xmlns="http://www.w3.org/1999/xhtml">1Na⁺ -&gt; 顺电位差从细胞旁路<strong>被动</strong>重吸收   </div></div></foreignObject></g><g data-depth="5" data-path="1.2.7.10.15" class="markmap-node" transform="translate(1521, -273.3125)"><line stroke="#9467bd" stroke-width="1.09375" x1="-1" x2="441" y1="21.546875" y2="21.546875"/><foreignObject class="markmap-foreign" x="8" y="0" style="opacity: 1;" width="423" height="21"><div xmlns="http://www.w3.org/1999/xhtml"><div xmlns="http://www.w3.org/1999/xhtml">结果：重吸收 <strong>2Cl⁻</strong>（继发主动）+ <strong>2Na⁺</strong>（1 主动 + 1 被动）   </div></div></foreignObject></g><g data-depth="4" data-path="1.2.7.10" class="markmap-node" transform="translate(976, -327.5)"><line stroke="#17becf" stroke-width="1.1875" x1="-1" x2="467" y1="21.59375" y2="21.59375"/><circle stroke-width="1.5" r="6" stroke="#17becf" fill="var(--markmap-circle-open-bg)" cx="465" cy="21.59375"/><foreignObject class="markmap-foreign" x="8" y="0" style="opacity: 1;" width="449" height="21"><div xmlns="http://www.w3.org/1999/xhtml"><div xmlns="http://www.w3.org/1999/xhtml">升支粗段★：水<strong>不通透</strong> -&gt; <strong>Na⁺-K⁺-2Cl⁻ 同向转运体（NKCC2）</strong>   </div></div></foreignObject></g><g data-depth="3" data-path="1.2.7" class="markmap-node" transform="translate(759, -354.6875)"><line stroke="#2ca02c" stroke-width="1.375" x1="-1" x2="139" y1="21.6875" y2="21.6875"/><circle stroke-width="1.5" r="6" stroke="#2ca02c" fill="var(--markmap-circle-open-bg)" cx="137" cy="21.6875"/><foreignObject class="markmap-foreign" x="8" y="0" style="opacity: 1;" width="121" height="21"><div xmlns="http://www.w3.org/1999/xhtml"><div xmlns="http://www.w3.org/1999/xhtml">髓袢：<strong>15~20%</strong>   </div></div></foreignObject></g><g data-depth="4" data-path="1.2.16.17" class="markmap-node" transform="translate(1054, -241.21875)"><line stroke="#bcbd22" stroke-width="1.1875" x1="-1" x2="559" y1="21.59375" y2="21.59375"/><foreignObject class="markmap-foreign" x="8" y="0" style="opacity: 1;" width="541" height="21"><div xmlns="http://www.w3.org/1999/xhtml"><div xmlns="http://www.w3.org/1999/xhtml">远曲前段：<strong>Na⁺-Cl⁻ 同向转运体（NCC）</strong>-&gt; 水不通透 -&gt; 噻嗪类利尿药作用点   </div></div></foreignObject></g><g data-depth="4" data-path="1.2.16.18" class="markmap-node" transform="translate(1054, -214.03125)"><line stroke="#17becf" stroke-width="1.1875" x1="-1" x2="740" y1="21.59375" y2="21.59375"/><foreignObject class="markmap-foreign" x="8" y="0" style="opacity: 1;" width="722" height="21"><div xmlns="http://www.w3.org/1999/xhtml"><div xmlns="http://www.w3.org/1999/xhtml">远曲后段/集合管（主细胞）：Na⁺ 经 <strong>Na⁺ 通道</strong>进入 -&gt; Cl⁻ 经细胞旁被动 -&gt; 水受 <strong>ADH</strong> 调控（AQP-2↑）   </div></div></foreignObject></g><g data-depth="3" data-path="1.2.16" class="markmap-node" transform="translate(759, -227.625)"><line stroke="#7f7f7f" stroke-width="1.375" x1="-1" x2="217" y1="21.6875" y2="21.6875"/><circle stroke-width="1.5" r="6" stroke="#7f7f7f" fill="var(--markmap-circle-open-bg)" cx="215" cy="21.6875"/><foreignObject class="markmap-foreign" x="8" y="0" style="opacity: 1;" width="199" height="21"><div xmlns="http://www.w3.org/1999/xhtml"><div xmlns="http://www.w3.org/1999/xhtml">远曲小管/集合管：约 <strong>12%</strong>   </div></div></foreignObject></g><g data-depth="2" data-path="1.2" class="markmap-node" transform="translate(416, -334.4375)"><line stroke="#ff7f0e" stroke-width="1.75" x1="-1" x2="265" y1="21.875" y2="21.875"/><circle stroke-width="1.5" r="6" stroke="#ff7f0e" fill="var(--markmap-circle-open-bg)" cx="263" cy="21.875"/><foreignObject class="markmap-foreign" x="8" y="0" style="opacity: 1;" width="247" height="21"><div xmlns="http://www.w3.org/1999/xhtml"><div xmlns="http://www.w3.org/1999/xhtml">Na⁺/Cl⁻/水重吸收各段比例与机制   </div></div></foreignObject></g><g data-depth="3" data-path="1.19.20" class="markmap-node" transform="translate(619, -195.25)"><line stroke="#e377c2" stroke-width="1.375" x1="-1" x2="178" y1="21.6875" y2="21.6875"/><foreignObject class="markmap-foreign" x="8" y="0" style="opacity: 1;" width="160" height="21"><div xmlns="http://www.w3.org/1999/xhtml"><div xmlns="http://www.w3.org/1999/xhtml">总量：<strong>99%</strong> 被重吸收   </div></div></foreignObject></g><g data-depth="3" data-path="1.19.21" class="markmap-node" transform="translate(619, -167.875)"><line stroke="#7f7f7f" stroke-width="1.375" x1="-1" x2="267" y1="21.6875" y2="21.6875"/><foreignObject class="markmap-foreign" x="8" y="0" style="opacity: 1;" width="249" height="21"><div xmlns="http://www.w3.org/1999/xhtml"><div xmlns="http://www.w3.org/1999/xhtml">部位：近端小管为主（<strong>65~70%</strong>）   </div></div></foreignObject></g><g data-depth="3" data-path="1.19.22" class="markmap-node" transform="translate(619, -140.5)"><line stroke="#bcbd22" stroke-width="1.375" x1="-1" x2="269" y1="21.6875" y2="21.6875"/><foreignObject class="markmap-foreign" x="8" y="0" style="opacity: 1;" width="251" height="21"><div xmlns="http://www.w3.org/1999/xhtml"><div xmlns="http://www.w3.org/1999/xhtml">机制：被动重吸收，渗透压差驱动   </div></div></foreignObject></g><g data-depth="3" data-path="1.19.23" class="markmap-node" transform="translate(619, -113.125)"><line stroke="#17becf" stroke-width="1.375" x1="-1" x2="426" y1="21.6875" y2="21.6875"/><foreignObject class="markmap-foreign" x="8" y="0" style="opacity: 1;" width="408" height="21"><div xmlns="http://www.w3.org/1999/xhtml"><div xmlns="http://www.w3.org/1999/xhtml">通道：近端小管 <strong>AQP-1</strong> + 集合管 <strong>AQP-2</strong>（受 ADH 调节）   </div></div></foreignObject></g><g data-depth="2" data-path="1.19" class="markmap-node" transform="translate(416, -154.1875)"><line stroke="#8c564b" stroke-width="1.75" x1="-1" x2="125" y1="21.875" y2="21.875"/><circle stroke-width="1.5" r="6" stroke="#8c564b" fill="var(--markmap-circle-open-bg)" cx="123" cy="21.875"/><foreignObject class="markmap-foreign" x="8" y="0" style="opacity: 1;" width="107" height="21"><div xmlns="http://www.w3.org/1999/xhtml"><div xmlns="http://www.w3.org/1999/xhtml">水重吸收总结   </div></div></foreignObject></g><g data-depth="3" data-path="1.24.25" class="markmap-node" transform="translate(789, -80.75)"><line stroke="#9467bd" stroke-width="1.375" x1="-1" x2="365" y1="21.6875" y2="21.6875"/><foreignObject class="markmap-foreign" x="8" y="0" style="opacity: 1;" width="347" height="21"><div xmlns="http://www.w3.org/1999/xhtml"><div xmlns="http://www.w3.org/1999/xhtml">HCO₃⁻ 重吸收：<strong>80%</strong> 在近端小管 -&gt; 以 <strong>CO₂</strong> 形式   </div></div></foreignObject></g><g data-depth="3" data-path="1.24.26" class="markmap-node" transform="translate(789, -53.375)"><line stroke="#8c564b" stroke-width="1.375" x1="-1" x2="352" y1="21.6875" y2="21.6875"/><foreignObject class="markmap-foreign" x="8" y="0" style="opacity: 1;" width="334" height="21"><div xmlns="http://www.w3.org/1999/xhtml"><div xmlns="http://www.w3.org/1999/xhtml">H⁺ 分泌：近端小管为主要部位 -&gt; <strong>H⁺-Na⁺ 交换</strong>   </div></div></foreignObject></g><g data-depth="3" data-path="1.24.27" class="markmap-node" transform="translate(789, -26)"><line stroke="#1f77b4" stroke-width="1.375" x1="-1" x2="257" y1="21.6875" y2="21.6875"/><foreignObject class="markmap-foreign" x="8" y="0" style="opacity: 1;" width="239" height="21"><div xmlns="http://www.w3.org/1999/xhtml"><div xmlns="http://www.w3.org/1999/xhtml">集合管闰细胞：<strong>H⁺ 泵、H⁺-K⁺ 泵</strong>   </div></div></foreignObject></g><g data-depth="3" data-path="1.24.28" class="markmap-node" transform="translate(789, 1.375)"><line stroke="#ff7f0e" stroke-width="1.375" x1="-1" x2="377" y1="21.6875" y2="21.6875"/><foreignObject class="markmap-foreign" x="8" y="0" style="opacity: 1;" width="359" height="21"><div xmlns="http://www.w3.org/1999/xhtml"><div xmlns="http://www.w3.org/1999/xhtml">碳酸酐酶抑制剂（乙酰唑胺）-&gt; H⁺ 分泌↓ -&gt; 利尿   </div></div></foreignObject></g><g data-depth="2" data-path="1.24" class="markmap-node" transform="translate(416, -39.6875)"><line stroke="#8c564b" stroke-width="1.75" x1="-1" x2="295" y1="21.875" y2="21.875"/><circle stroke-width="1.5" r="6" stroke="#8c564b" fill="var(--markmap-circle-open-bg)" cx="293" cy="21.875"/><foreignObject class="markmap-foreign" x="8" y="0" style="opacity: 1;" width="277" height="21"><div xmlns="http://www.w3.org/1999/xhtml"><div xmlns="http://www.w3.org/1999/xhtml">H⁺ 分泌与 HCO₃⁻ 重吸收（<strong>排酸保碱</strong>）   </div></div></foreignObject></g><g data-depth="3" data-path="1.29.30" class="markmap-node" transform="translate(630, 33.75)"><line stroke="#d62728" stroke-width="1.375" x1="-1" x2="182" y1="21.6875" y2="21.6875"/><foreignObject class="markmap-foreign" x="8" y="0" style="opacity: 1;" width="164" height="21"><div xmlns="http://www.w3.org/1999/xhtml"><div xmlns="http://www.w3.org/1999/xhtml">近端小管：分泌 <strong>NH₄⁺</strong>   </div></div></foreignObject></g><g data-depth="3" data-path="1.29.31" class="markmap-node" transform="translate(630, 61.125)"><line stroke="#9467bd" stroke-width="1.375" x1="-1" x2="159" y1="21.6875" y2="21.6875"/><foreignObject class="markmap-foreign" x="8" y="0" style="opacity: 1;" width="141" height="21"><div xmlns="http://www.w3.org/1999/xhtml"><div xmlns="http://www.w3.org/1999/xhtml">集合管：分泌 <strong>NH₃</strong>   </div></div></foreignObject></g><g data-depth="3" data-path="1.29.32" class="markmap-node" transform="translate(630, 88.5)"><line stroke="#8c564b" stroke-width="1.375" x1="-1" x2="372" y1="21.6875" y2="21.6875"/><foreignObject class="markmap-foreign" x="8" y="0" style="opacity: 1;" width="354" height="21"><div xmlns="http://www.w3.org/1999/xhtml"><div xmlns="http://www.w3.org/1999/xhtml">H⁺ 分泌 ⇄ NH₃ 分泌 -&gt; <strong>相互促进</strong> -&gt; 促进排酸保碱   </div></div></foreignObject></g><g data-depth="2" data-path="1.29" class="markmap-node" transform="translate(416, 61.125)"><line stroke="#2ca02c" stroke-width="1.75" x1="-1" x2="136" y1="21.875" y2="21.875"/><circle stroke-width="1.5" r="6" stroke="#2ca02c" fill="var(--markmap-circle-open-bg)" cx="134" cy="21.875"/><foreignObject class="markmap-foreign" x="8" y="0" style="opacity: 1;" width="118" height="21"><div xmlns="http://www.w3.org/1999/xhtml"><div xmlns="http://www.w3.org/1999/xhtml">NH₃/NH₄⁺ 分泌   </div></div></foreignObject></g><g data-depth="3" data-path="1.33.34" class="markmap-node" transform="translate(639, 120.875)"><line stroke="#2ca02c" stroke-width="1.375" x1="-1" x2="427" y1="21.6875" y2="21.6875"/><foreignObject class="markmap-foreign" x="8" y="0" style="opacity: 1;" width="409" height="21"><div xmlns="http://www.w3.org/1999/xhtml"><div xmlns="http://www.w3.org/1999/xhtml">重吸收：原尿 K⁺ 几乎<strong>全部</strong>重吸收 -&gt; <strong>65~70%</strong> 在近端小管   </div></div></foreignObject></g><g data-depth="3" data-path="1.33.35" class="markmap-node" transform="translate(639, 148.25)"><line stroke="#e377c2" stroke-width="1.375" x1="-1" x2="349" y1="21.6875" y2="21.6875"/><foreignObject class="markmap-foreign" x="8" y="0" style="opacity: 1;" width="331" height="21"><div xmlns="http://www.w3.org/1999/xhtml"><div xmlns="http://www.w3.org/1999/xhtml">分泌主要部位：<strong>远端小管和集合管</strong>（主细胞）   </div></div></foreignObject></g><g data-depth="4" data-path="1.33.36.37" class="markmap-node" transform="translate(826, 180.625)"><line stroke="#8c564b" stroke-width="1.1875" x1="-1" x2="297" y1="21.59375" y2="21.59375"/><foreignObject class="markmap-foreign" x="8" y="0" style="opacity: 1;" width="279" height="21"><div xmlns="http://www.w3.org/1999/xhtml"><div xmlns="http://www.w3.org/1999/xhtml">Na⁺ 泵 -&gt; 细胞内 K⁺↑ -&gt; 顺<strong>浓度差</strong>分泌   </div></div></foreignObject></g><g data-depth="4" data-path="1.33.36.38" class="markmap-node" transform="translate(826, 207.8125)"><line stroke="#7f7f7f" stroke-width="1.1875" x1="-1" x2="293" y1="21.59375" y2="21.59375"/><foreignObject class="markmap-foreign" x="8" y="0" style="opacity: 1;" width="275" height="21"><div xmlns="http://www.w3.org/1999/xhtml"><div xmlns="http://www.w3.org/1999/xhtml">Na⁺ 重吸收 -&gt; 电位差 -&gt; 顺<strong>电位差</strong>分泌   </div></div></foreignObject></g><g data-depth="3" data-path="1.33.36" class="markmap-node" transform="translate(639, 194.21875)"><line stroke="#9467bd" stroke-width="1.375" x1="-1" x2="109" y1="21.6875" y2="21.6875"/><circle stroke-width="1.5" r="6" stroke="#9467bd" fill="var(--markmap-circle-open-bg)" cx="107" cy="21.6875"/><foreignObject class="markmap-foreign" x="8" y="0" style="opacity: 1;" width="91" height="21"><div xmlns="http://www.w3.org/1999/xhtml"><div xmlns="http://www.w3.org/1999/xhtml">分泌机制：   </div></div></foreignObject></g><g data-depth="3" data-path="1.33.39" class="markmap-node" transform="translate(639, 240)"><line stroke="#bcbd22" stroke-width="1.375" x1="-1" x2="400" y1="21.6875" y2="21.6875"/><foreignObject class="markmap-foreign" x="8" y="0" style="opacity: 1;" width="382" height="21"><div xmlns="http://www.w3.org/1999/xhtml"><div xmlns="http://www.w3.org/1999/xhtml">阿米洛利（保钾利尿剂）：抑制 Na⁺ 通道 -&gt; K⁺ 分泌↓   </div></div></foreignObject></g><g data-depth="2" data-path="1.33" class="markmap-node" transform="translate(416, 180.4375)"><line stroke="#ff7f0e" stroke-width="1.75" x1="-1" x2="145" y1="21.875" y2="21.875"/><circle stroke-width="1.5" r="6" stroke="#ff7f0e" fill="var(--markmap-circle-open-bg)" cx="143" cy="21.875"/><foreignObject class="markmap-foreign" x="8" y="0" style="opacity: 1;" width="127" height="21"><div xmlns="http://www.w3.org/1999/xhtml"><div xmlns="http://www.w3.org/1999/xhtml">K⁺ 重吸收与分泌   </div></div></foreignObject></g><g data-depth="3" data-path="1.40.41" class="markmap-node" transform="translate(783, 272.375)"><line stroke="#1f77b4" stroke-width="1.375" x1="-1" x2="264" y1="21.6875" y2="21.6875"/><foreignObject class="markmap-foreign" x="8" y="0" style="opacity: 1;" width="246" height="21"><div xmlns="http://www.w3.org/1999/xhtml"><div xmlns="http://www.w3.org/1999/xhtml">H⁺ ⇄ NH₃：<strong>相互促进</strong> -&gt; 排酸保碱   </div></div></foreignObject></g><g data-depth="3" data-path="1.40.42" class="markmap-node" transform="translate(783, 299.75)"><line stroke="#ff7f0e" stroke-width="1.375" x1="-1" x2="318" y1="21.6875" y2="21.6875"/><foreignObject class="markmap-foreign" x="8" y="0" style="opacity: 1;" width="300" height="21"><div xmlns="http://www.w3.org/1999/xhtml"><div xmlns="http://www.w3.org/1999/xhtml">H⁺-Na⁺ 交换 ⇄ K⁺-Na⁺ 交换：<strong>竞争性抑制</strong>   </div></div></foreignObject></g><g data-depth="3" data-path="1.40.43" class="markmap-node" transform="translate(783, 327.125)"><line stroke="#2ca02c" stroke-width="1.375" x1="-1" x2="325" y1="21.6875" y2="21.6875"/><foreignObject class="markmap-foreign" x="8" y="0" style="opacity: 1;" width="307" height="21"><div xmlns="http://www.w3.org/1999/xhtml"><div xmlns="http://www.w3.org/1999/xhtml">酸中毒 -&gt; H⁺ 分泌↑ -&gt; K⁺ 分泌↓ -&gt; <strong>高血钾</strong>   </div></div></foreignObject></g><g data-depth="3" data-path="1.40.44" class="markmap-node" transform="translate(783, 354.5)"><line stroke="#d62728" stroke-width="1.375" x1="-1" x2="325" y1="21.6875" y2="21.6875"/><foreignObject class="markmap-foreign" x="8" y="0" style="opacity: 1;" width="307" height="21"><div xmlns="http://www.w3.org/1999/xhtml"><div xmlns="http://www.w3.org/1999/xhtml">碱中毒 -&gt; H⁺ 分泌↓ -&gt; K⁺ 分泌↑ -&gt; <strong>低血钾</strong>   </div></div></foreignObject></g><g data-depth="2" data-path="1.40" class="markmap-node" transform="translate(416, 313.4375)"><line stroke="#17becf" stroke-width="1.75" x1="-1" x2="289" y1="21.875" y2="21.875"/><circle stroke-width="1.5" r="6" stroke="#17becf" fill="var(--markmap-circle-open-bg)" cx="287" cy="21.875"/><foreignObject class="markmap-foreign" x="8" y="0" style="opacity: 1;" width="271" height="21"><div xmlns="http://www.w3.org/1999/xhtml"><div xmlns="http://www.w3.org/1999/xhtml">★ H⁺/NH₃/K⁺ 三者分泌关系（必考）   </div></div></foreignObject></g><g data-depth="1" data-path="1" class="markmap-node" transform="translate(0, -10.5)"><line stroke="#1f77b4" stroke-width="2.5" x1="-1" x2="338" y1="22.25" y2="22.25"/><circle stroke-width="1.5" r="6" stroke="#1f77b4" fill="var(--markmap-circle-open-bg)" cx="336" cy="22.25"/><foreignObject class="markmap-foreign" x="8" y="0" style="opacity: 1;" width="320" height="21"><div xmlns="http://www.w3.org/1999/xhtml"><div xmlns="http://www.w3.org/1999/xhtml">肾小管物质转运：水与离子 — 微型速记导图   </div></div></foreignObject></g></g></svg>