<svg xmlns="http://www.w3.org/2000/svg" class="w-full h-full leading-none markmap mm-gpvzjv-1" style=""><style>.markmap{--markmap-max-width: 9999px;--markmap-a-color: #0097e6;--markmap-a-hover-color: #00a8ff;--markmap-code-bg: #f0f0f0;--markmap-code-color: #555;--markmap-highlight-bg: #ffeaa7;--markmap-table-border: 1px solid currentColor;--markmap-font: 300 16px/20px sans-serif;--markmap-circle-open-bg: #fff;--markmap-text-color: #333;--markmap-highlight-node-bg: #ff02;font:var(--markmap-font);color:var(--markmap-text-color)}.markmap-link{fill:none}.markmap-node&gt;circle{cursor:pointer}.markmap-foreign{display:inline-block}.markmap-foreign p{margin:0}.markmap-foreign a{color:var(--markmap-a-color)}.markmap-foreign a:hover{color:var(--markmap-a-hover-color)}.markmap-foreign code{padding:.25em;font-size:calc(1em - 2px);color:var(--markmap-code-color);background-color:var(--markmap-code-bg);border-radius:2px}.markmap-foreign pre{margin:0}.markmap-foreign pre&gt;code{display:block}.markmap-foreign del{text-decoration:line-through}.markmap-foreign em{font-style:italic}.markmap-foreign strong{font-weight:700}.markmap-foreign mark{background:var(--markmap-highlight-bg)}.markmap-foreign table,.markmap-foreign th,.markmap-foreign td{border-collapse:collapse;border:var(--markmap-table-border)}.markmap-foreign img{display:inline-block}.markmap-foreign svg{fill:currentColor}.markmap-foreign&gt;div{width:var(--markmap-max-width);text-align:left}.markmap-foreign&gt;div&gt;div{display:inline-block}.markmap-highlight rect{fill:var(--markmap-highlight-node-bg)}.markmap-dark .markmap{--markmap-code-bg: #1a1b26;--markmap-code-color: #ddd;--markmap-circle-open-bg: #444;--markmap-text-color: #eee}</style><g transform="translate(18.05298839130444,374.1144199946215) scale(0.4853362910020397)"><path class="markmap-link" data-depth="4" data-path="1.3.4.5" d="M1006,-524.031C1046,-524.031,1046,-551.312,1086,-551.312" stroke-width="1.1875" stroke="rgb(227, 119, 194)"/><path class="markmap-link" data-depth="4" data-path="1.3.4.6" d="M1006,-524.031C1046,-524.031,1046,-524.125,1086,-524.125" stroke-width="1.1875" stroke="rgb(127, 127, 127)"/><path class="markmap-link" data-depth="4" data-path="1.3.4.7" d="M1006,-524.031C1046,-524.031,1046,-496.937,1086,-496.937" stroke-width="1.1875" stroke="rgb(188, 189, 34)"/><path class="markmap-link" data-depth="3" data-path="1.3.4" d="M608,-453.094C648,-453.094,648,-524.031,688,-524.031" stroke-width="1.375" stroke="rgb(227, 119, 194)"/><path class="markmap-link" data-depth="3" data-path="1.3.8" d="M608,-453.094C648,-453.094,648,-464.656,688,-464.656" stroke-width="1.375" stroke="rgb(31, 119, 180)"/><path class="markmap-link" data-depth="3" data-path="1.3.9" d="M608,-453.094C648,-453.094,648,-437.281,688,-437.281" stroke-width="1.375" stroke="rgb(227, 119, 194)"/><path class="markmap-link" data-depth="3" data-path="1.3.10" d="M608,-453.094C648,-453.094,648,-409.906,688,-409.906" stroke-width="1.375" stroke="rgb(148, 103, 189)"/><path class="markmap-link" data-depth="3" data-path="1.3.11" d="M608,-453.094C648,-453.094,648,-382.531,688,-382.531" stroke-width="1.375" stroke="rgb(188, 189, 34)"/><path class="markmap-link" data-depth="4" data-path="1.12.15.16" d="M988,-263.219C1028,-263.219,1028,-290.5,1068,-290.5" stroke-width="1.1875" stroke="rgb(44, 160, 44)"/><path class="markmap-link" data-depth="4" data-path="1.12.15.17" d="M988,-263.219C1028,-263.219,1028,-263.312,1068,-263.312" stroke-width="1.1875" stroke="rgb(23, 190, 207)"/><path class="markmap-link" data-depth="4" data-path="1.12.15.18" d="M988,-263.219C1028,-263.219,1028,-236.125,1068,-236.125" stroke-width="1.1875" stroke="rgb(31, 119, 180)"/><path class="markmap-link" data-depth="4" data-path="1.12.19.20" d="M908,-190.25C948,-190.25,948,-203.937,988,-203.937" stroke-width="1.1875" stroke="rgb(44, 160, 44)"/><path class="markmap-link" data-depth="4" data-path="1.12.19.21" d="M908,-190.25C948,-190.25,948,-176.75,988,-176.75" stroke-width="1.1875" stroke="rgb(214, 39, 40)"/><path class="markmap-link" data-depth="3" data-path="1.12.13" d="M704,-247.125C744,-247.125,744,-350.156,784,-350.156" stroke-width="1.375" stroke="rgb(214, 39, 40)"/><path class="markmap-link" data-depth="3" data-path="1.12.14" d="M704,-247.125C744,-247.125,744,-322.781,784,-322.781" stroke-width="1.375" stroke="rgb(148, 103, 189)"/><path class="markmap-link" data-depth="3" data-path="1.12.15" d="M704,-247.125C744,-247.125,744,-263.219,784,-263.219" stroke-width="1.375" stroke="rgb(44, 160, 44)"/><path class="markmap-link" data-depth="3" data-path="1.12.19" d="M704,-247.125C744,-247.125,744,-190.25,784,-190.25" stroke-width="1.375" stroke="rgb(255, 127, 14)"/><path class="markmap-link" data-depth="3" data-path="1.12.22" d="M704,-247.125C744,-247.125,744,-144.469,784,-144.469" stroke-width="1.375" stroke="rgb(148, 103, 189)"/><path class="markmap-link" data-depth="3" data-path="1.23.24" d="M624,-70.844C664,-70.844,664,-112.094,704,-112.094" stroke-width="1.375" stroke="rgb(44, 160, 44)"/><path class="markmap-link" data-depth="3" data-path="1.23.25" d="M624,-70.844C664,-70.844,664,-84.719,704,-84.719" stroke-width="1.375" stroke="rgb(227, 119, 194)"/><path class="markmap-link" data-depth="3" data-path="1.23.26" d="M624,-70.844C664,-70.844,664,-57.344,704,-57.344" stroke-width="1.375" stroke="rgb(148, 103, 189)"/><path class="markmap-link" data-depth="3" data-path="1.23.27" d="M624,-70.844C664,-70.844,664,-29.969,704,-29.969" stroke-width="1.375" stroke="rgb(127, 127, 127)"/><path class="markmap-link" data-depth="3" data-path="1.28.29" d="M480,43.656C520,43.656,520,2.406,560,2.406" stroke-width="1.375" stroke="rgb(23, 190, 207)"/><path class="markmap-link" data-depth="3" data-path="1.28.30" d="M480,43.656C520,43.656,520,29.781,560,29.781" stroke-width="1.375" stroke="rgb(31, 119, 180)"/><path class="markmap-link" data-depth="3" data-path="1.28.31" d="M480,43.656C520,43.656,520,57.156,560,57.156" stroke-width="1.375" stroke="rgb(227, 119, 194)"/><path class="markmap-link" data-depth="3" data-path="1.28.32" d="M480,43.656C520,43.656,520,84.531,560,84.531" stroke-width="1.375" stroke="rgb(255, 127, 14)"/><path class="markmap-link" data-depth="3" data-path="1.33.34" d="M592,144.469C632,144.469,632,116.906,672,116.906" stroke-width="1.375" stroke="rgb(44, 160, 44)"/><path class="markmap-link" data-depth="3" data-path="1.33.35" d="M592,144.469C632,144.469,632,144.281,672,144.281" stroke-width="1.375" stroke="rgb(227, 119, 194)"/><path class="markmap-link" data-depth="3" data-path="1.33.36" d="M592,144.469C632,144.469,632,171.656,672,171.656" stroke-width="1.375" stroke="rgb(148, 103, 189)"/><path class="markmap-link" data-depth="3" data-path="1.37.38" d="M656,245.281C696,245.281,696,204.031,736,204.031" stroke-width="1.375" stroke="rgb(31, 119, 180)"/><path class="markmap-link" data-depth="3" data-path="1.37.39" d="M656,245.281C696,245.281,696,231.406,736,231.406" stroke-width="1.375" stroke="rgb(255, 127, 14)"/><path class="markmap-link" data-depth="3" data-path="1.37.40" d="M656,245.281C696,245.281,696,258.781,736,258.781" stroke-width="1.375" stroke="rgb(31, 119, 180)"/><path class="markmap-link" data-depth="3" data-path="1.37.41" d="M656,245.281C696,245.281,696,286.156,736,286.156" stroke-width="1.375" stroke="rgb(140, 86, 75)"/><path class="markmap-link" data-depth="4" data-path="1.42.44.45" d="M1007,391.688C1047,391.688,1047,350.813,1087,350.813" stroke-width="1.1875" stroke="rgb(127, 127, 127)"/><path class="markmap-link" data-depth="4" data-path="1.42.44.46" d="M1007,391.688C1047,391.688,1047,378,1087,378" stroke-width="1.1875" stroke="rgb(188, 189, 34)"/><path class="markmap-link" data-depth="4" data-path="1.42.44.47" d="M1007,391.688C1047,391.688,1047,405.188,1087,405.188" stroke-width="1.1875" stroke="rgb(23, 190, 207)"/><path class="markmap-link" data-depth="4" data-path="1.42.44.48" d="M1007,391.688C1047,391.688,1047,432.375,1087,432.375" stroke-width="1.1875" stroke="rgb(31, 119, 180)"/><path class="markmap-link" data-depth="3" data-path="1.42.43" d="M769,355.297C809,355.297,809,318.531,849,318.531" stroke-width="1.375" stroke="rgb(31, 119, 180)"/><path class="markmap-link" data-depth="3" data-path="1.42.44" d="M769,355.297C809,355.297,809,391.688,849,391.688" stroke-width="1.375" stroke="rgb(227, 119, 194)"/><path class="markmap-link" data-depth="3" data-path="1.49.50" d="M630,492.219C670,492.219,670,464.656,710,464.656" stroke-width="1.375" stroke="rgb(44, 160, 44)"/><path class="markmap-link" data-depth="3" data-path="1.49.51" d="M630,492.219C670,492.219,670,492.031,710,492.031" stroke-width="1.375" stroke="rgb(214, 39, 40)"/><path class="markmap-link" data-depth="3" data-path="1.49.52" d="M630,492.219C670,492.219,670,519.406,710,519.406" stroke-width="1.375" stroke="rgb(148, 103, 189)"/><path class="markmap-link" data-depth="3" data-path="1.53.54" d="M576,579.344C616,579.344,616,551.781,656,551.781" stroke-width="1.375" stroke="rgb(227, 119, 194)"/><path class="markmap-link" data-depth="3" data-path="1.53.55" d="M576,579.344C616,579.344,616,579.156,656,579.156" stroke-width="1.375" stroke="rgb(127, 127, 127)"/><path class="markmap-link" data-depth="3" data-path="1.53.56" d="M576,579.344C616,579.344,616,606.531,656,606.531" stroke-width="1.375" stroke="rgb(188, 189, 34)"/><path class="markmap-link" data-depth="2" data-path="1.2" d="M341,11.75C381,11.75,381,-556.594,421,-556.594" stroke-width="1.75" stroke="rgb(255, 127, 14)"/><path class="markmap-link" data-depth="2" data-path="1.3" d="M341,11.75C381,11.75,381,-453.094,421,-453.094" stroke-width="1.75" stroke="rgb(140, 86, 75)"/><path class="markmap-link" data-depth="2" data-path="1.12" d="M341,11.75C381,11.75,381,-247.125,421,-247.125" stroke-width="1.75" stroke="rgb(44, 160, 44)"/><path class="markmap-link" data-depth="2" data-path="1.23" d="M341,11.75C381,11.75,381,-70.844,421,-70.844" stroke-width="1.75" stroke="rgb(255, 127, 14)"/><path class="markmap-link" data-depth="2" data-path="1.28" d="M341,11.75C381,11.75,381,43.656,421,43.656" stroke-width="1.75" stroke="rgb(188, 189, 34)"/><path class="markmap-link" data-depth="2" data-path="1.33" d="M341,11.75C381,11.75,381,144.469,421,144.469" stroke-width="1.75" stroke="rgb(255, 127, 14)"/><path class="markmap-link" data-depth="2" data-path="1.37" d="M341,11.75C381,11.75,381,245.281,421,245.281" stroke-width="1.75" stroke="rgb(23, 190, 207)"/><path class="markmap-link" data-depth="2" data-path="1.42" d="M341,11.75C381,11.75,381,355.297,421,355.297" stroke-width="1.75" stroke="rgb(23, 190, 207)"/><path class="markmap-link" data-depth="2" data-path="1.49" d="M341,11.75C381,11.75,381,492.219,421,492.219" stroke-width="1.75" stroke="rgb(255, 127, 14)"/><path class="markmap-link" data-depth="2" data-path="1.53" d="M341,11.75C381,11.75,381,579.344,421,579.344" stroke-width="1.75" stroke="rgb(140, 86, 75)"/><g class="markmap-highlight"/><g data-depth="2" data-path="1.2" class="markmap-node" transform="translate(421, -578.46875)"><line stroke="#ff7f0e" stroke-width="1.75" x1="-1" x2="333" y1="21.875" y2="21.875"/><foreignObject class="markmap-foreign" x="8" y="0" style="opacity: 1;" width="315" height="21"><div xmlns="http://www.w3.org/1999/xhtml"><div xmlns="http://www.w3.org/1999/xhtml">压力感受性反射（减压反射）★必考论述题   </div></div></foreignObject></g><g data-depth="4" data-path="1.3.4.5" class="markmap-node" transform="translate(1086, -572.90625)"><line stroke="#e377c2" stroke-width="1.1875" x1="-1" x2="253" y1="21.59375" y2="21.59375"/><foreignObject class="markmap-foreign" x="8" y="0" style="opacity: 1;" width="235" height="21"><div xmlns="http://www.w3.org/1999/xhtml"><div xmlns="http://www.w3.org/1999/xhtml">实质：血管外膜下<strong>感觉神经末梢</strong>   </div></div></foreignObject></g><g data-depth="4" data-path="1.3.4.6" class="markmap-node" transform="translate(1086, -545.71875)"><line stroke="#7f7f7f" stroke-width="1.1875" x1="-1" x2="386" y1="21.59375" y2="21.59375"/><foreignObject class="markmap-foreign" x="8" y="0" style="opacity: 1;" width="368" height="21"><div xmlns="http://www.w3.org/1999/xhtml"><div xmlns="http://www.w3.org/1999/xhtml">感受的不是血压本身 -&gt; 而是血管壁的<strong>机械牵张程度</strong>   </div></div></foreignObject></g><g data-depth="4" data-path="1.3.4.7" class="markmap-node" transform="translate(1086, -518.53125)"><line stroke="#bcbd22" stroke-width="1.1875" x1="-1" x2="466" y1="21.59375" y2="21.59375"/><foreignObject class="markmap-foreign" x="8" y="0" style="opacity: 1;" width="448" height="21"><div xmlns="http://www.w3.org/1999/xhtml"><div xmlns="http://www.w3.org/1999/xhtml">牵张↑ -&gt; 传入冲动频率↑（在一定范围内与扩张程度成正比）   </div></div></foreignObject></g><g data-depth="3" data-path="1.3.4" class="markmap-node" transform="translate(688, -545.71875)"><line stroke="#e377c2" stroke-width="1.375" x1="-1" x2="320" y1="21.6875" y2="21.6875"/><circle stroke-width="1.5" r="6" stroke="#e377c2" fill="var(--markmap-circle-open-bg)" cx="318" cy="21.6875"/><foreignObject class="markmap-foreign" x="8" y="0" style="opacity: 1;" width="302" height="21"><div xmlns="http://www.w3.org/1999/xhtml"><div xmlns="http://www.w3.org/1999/xhtml">感受器：<strong>颈动脉窦</strong> + <strong>主动脉弓</strong> 压力感受器   </div></div></foreignObject></g><g data-depth="3" data-path="1.3.8" class="markmap-node" transform="translate(688, -486.34375)"><line stroke="#1f77b4" stroke-width="1.375" x1="-1" x2="345" y1="21.6875" y2="21.6875"/><foreignObject class="markmap-foreign" x="8" y="0" style="opacity: 1;" width="327" height="21"><div xmlns="http://www.w3.org/1999/xhtml"><div xmlns="http://www.w3.org/1999/xhtml">传入神经：窦神经（→<strong>舌咽神经</strong>）+ <strong>迷走神经</strong>   </div></div></foreignObject></g><g data-depth="3" data-path="1.3.9" class="markmap-node" transform="translate(688, -458.96875)"><line stroke="#e377c2" stroke-width="1.375" x1="-1" x2="189" y1="21.6875" y2="21.6875"/><foreignObject class="markmap-foreign" x="8" y="0" style="opacity: 1;" width="171" height="21"><div xmlns="http://www.w3.org/1999/xhtml"><div xmlns="http://www.w3.org/1999/xhtml">中枢：<strong>延髓心血管中枢</strong>   </div></div></foreignObject></g><g data-depth="3" data-path="1.3.10" class="markmap-node" transform="translate(688, -431.59375)"><line stroke="#9467bd" stroke-width="1.375" x1="-1" x2="412" y1="21.6875" y2="21.6875"/><foreignObject class="markmap-foreign" x="8" y="0" style="opacity: 1;" width="394" height="21"><div xmlns="http://www.w3.org/1999/xhtml"><div xmlns="http://www.w3.org/1999/xhtml">传出神经：心交感神经 + <strong>心迷走神经</strong> + 交感缩血管神经   </div></div></foreignObject></g><g data-depth="3" data-path="1.3.11" class="markmap-node" transform="translate(688, -404.21875)"><line stroke="#bcbd22" stroke-width="1.375" x1="-1" x2="172" y1="21.6875" y2="21.6875"/><foreignObject class="markmap-foreign" x="8" y="0" style="opacity: 1;" width="154" height="21"><div xmlns="http://www.w3.org/1999/xhtml"><div xmlns="http://www.w3.org/1999/xhtml">效应器：<strong>心脏</strong> + <strong>血管</strong>   </div></div></foreignObject></g><g data-depth="2" data-path="1.3" class="markmap-node" transform="translate(421, -474.96875)"><line stroke="#8c564b" stroke-width="1.75" x1="-1" x2="189" y1="21.875" y2="21.875"/><circle stroke-width="1.5" r="6" stroke="#8c564b" fill="var(--markmap-circle-open-bg)" cx="187" cy="21.875"/><foreignObject class="markmap-foreign" x="8" y="0" style="opacity: 1;" width="171" height="21"><div xmlns="http://www.w3.org/1999/xhtml"><div xmlns="http://www.w3.org/1999/xhtml">反射弧组成（五段式）   </div></div></foreignObject></g><g data-depth="3" data-path="1.12.13" class="markmap-node" transform="translate(784, -371.84375)"><line stroke="#d62728" stroke-width="1.375" x1="-1" x2="307" y1="21.6875" y2="21.6875"/><foreignObject class="markmap-foreign" x="8" y="0" style="opacity: 1;" width="289" height="21"><div xmlns="http://www.w3.org/1999/xhtml"><div xmlns="http://www.w3.org/1999/xhtml">血压**↑** -&gt; 动脉扩张 -&gt; 管壁牵张<strong>增强</strong>   </div></div></foreignObject></g><g data-depth="3" data-path="1.12.14" class="markmap-node" transform="translate(784, -344.46875)"><line stroke="#9467bd" stroke-width="1.375" x1="-1" x2="275" y1="21.6875" y2="21.6875"/><foreignObject class="markmap-foreign" x="8" y="0" style="opacity: 1;" width="257" height="21"><div xmlns="http://www.w3.org/1999/xhtml"><div xmlns="http://www.w3.org/1999/xhtml">-&gt; 压力感受器<strong>兴奋</strong> -&gt; 传入冲动<strong>增多</strong>   </div></div></foreignObject></g><g data-depth="4" data-path="1.12.15.16" class="markmap-node" transform="translate(1068, -312.09375)"><line stroke="#2ca02c" stroke-width="1.1875" x1="-1" x2="281" y1="21.59375" y2="21.59375"/><foreignObject class="markmap-foreign" x="8" y="0" style="opacity: 1;" width="263" height="21"><div xmlns="http://www.w3.org/1999/xhtml"><div xmlns="http://www.w3.org/1999/xhtml">心迷走紧张**↑**（心抑制区兴奋）   </div></div></foreignObject></g><g data-depth="4" data-path="1.12.15.17" class="markmap-node" transform="translate(1068, -284.90625)"><line stroke="#17becf" stroke-width="1.1875" x1="-1" x2="281" y1="21.59375" y2="21.59375"/><foreignObject class="markmap-foreign" x="8" y="0" style="opacity: 1;" width="263" height="21"><div xmlns="http://www.w3.org/1999/xhtml"><div xmlns="http://www.w3.org/1999/xhtml">心交感紧张**↓**（缩血管区抑制）   </div></div></foreignObject></g><g data-depth="4" data-path="1.12.15.18" class="markmap-node" transform="translate(1068, -257.71875)"><line stroke="#1f77b4" stroke-width="1.1875" x1="-1" x2="185" y1="21.59375" y2="21.59375"/><foreignObject class="markmap-foreign" x="8" y="0" style="opacity: 1;" width="167" height="21"><div xmlns="http://www.w3.org/1999/xhtml"><div xmlns="http://www.w3.org/1999/xhtml">交感缩血管紧张**↓**   </div></div></foreignObject></g><g data-depth="3" data-path="1.12.15" class="markmap-node" transform="translate(784, -284.90625)"><line stroke="#2ca02c" stroke-width="1.375" x1="-1" x2="206" y1="21.6875" y2="21.6875"/><circle stroke-width="1.5" r="6" stroke="#2ca02c" fill="var(--markmap-circle-open-bg)" cx="204" cy="21.6875"/><foreignObject class="markmap-foreign" x="8" y="0" style="opacity: 1;" width="188" height="21"><div xmlns="http://www.w3.org/1999/xhtml"><div xmlns="http://www.w3.org/1999/xhtml">-&gt; 延髓心血管中枢整合：   </div></div></foreignObject></g><g data-depth="4" data-path="1.12.19.20" class="markmap-node" transform="translate(988, -225.53125)"><line stroke="#2ca02c" stroke-width="1.1875" x1="-1" x2="374" y1="21.59375" y2="21.59375"/><foreignObject class="markmap-foreign" x="8" y="0" style="opacity: 1;" width="356" height="21"><div xmlns="http://www.w3.org/1999/xhtml"><div xmlns="http://www.w3.org/1999/xhtml">心率**↓** + 心肌收缩力**↓** -&gt; 心输出量**↓**   </div></div></foreignObject></g><g data-depth="4" data-path="1.12.19.21" class="markmap-node" transform="translate(988, -198.34375)"><line stroke="#d62728" stroke-width="1.1875" x1="-1" x2="222" y1="21.59375" y2="21.59375"/><foreignObject class="markmap-foreign" x="8" y="0" style="opacity: 1;" width="204" height="21"><div xmlns="http://www.w3.org/1999/xhtml"><div xmlns="http://www.w3.org/1999/xhtml">血管<strong>舒张</strong> -&gt; 外周阻力**↓**   </div></div></foreignObject></g><g data-depth="3" data-path="1.12.19" class="markmap-node" transform="translate(784, -211.9375)"><line stroke="#ff7f0e" stroke-width="1.375" x1="-1" x2="126" y1="21.6875" y2="21.6875"/><circle stroke-width="1.5" r="6" stroke="#ff7f0e" fill="var(--markmap-circle-open-bg)" cx="124" cy="21.6875"/><foreignObject class="markmap-foreign" x="8" y="0" style="opacity: 1;" width="108" height="21"><div xmlns="http://www.w3.org/1999/xhtml"><div xmlns="http://www.w3.org/1999/xhtml">-&gt; 传出效应：   </div></div></foreignObject></g><g data-depth="3" data-path="1.12.22" class="markmap-node" transform="translate(784, -166.15625)"><line stroke="#9467bd" stroke-width="1.375" x1="-1" x2="190" y1="21.6875" y2="21.6875"/><foreignObject class="markmap-foreign" x="8" y="0" style="opacity: 1;" width="172" height="21"><div xmlns="http://www.w3.org/1999/xhtml"><div xmlns="http://www.w3.org/1999/xhtml">-&gt; <strong>血压回降</strong>（负反馈）   </div></div></foreignObject></g><g data-depth="2" data-path="1.12" class="markmap-node" transform="translate(421, -269)"><line stroke="#2ca02c" stroke-width="1.75" x1="-1" x2="285" y1="21.875" y2="21.875"/><circle stroke-width="1.5" r="6" stroke="#2ca02c" fill="var(--markmap-circle-open-bg)" cx="283" cy="21.875"/><foreignObject class="markmap-foreign" x="8" y="0" style="opacity: 1;" width="267" height="21"><div xmlns="http://www.w3.org/1999/xhtml"><div xmlns="http://www.w3.org/1999/xhtml">反射过程（血压↑时）★箭头必考链   </div></div></foreignObject></g><g data-depth="3" data-path="1.23.24" class="markmap-node" transform="translate(704, -133.78125)"><line stroke="#2ca02c" stroke-width="1.375" x1="-1" x2="307" y1="21.6875" y2="21.6875"/><foreignObject class="markmap-foreign" x="8" y="0" style="opacity: 1;" width="289" height="21"><div xmlns="http://www.w3.org/1999/xhtml"><div xmlns="http://www.w3.org/1999/xhtml">血压**↓** -&gt; 牵张<strong>减弱</strong> -&gt; 传入冲动<strong>减少</strong>   </div></div></foreignObject></g><g data-depth="3" data-path="1.23.25" class="markmap-node" transform="translate(704, -106.40625)"><line stroke="#e377c2" stroke-width="1.375" x1="-1" x2="450" y1="21.6875" y2="21.6875"/><foreignObject class="markmap-foreign" x="8" y="0" style="opacity: 1;" width="432" height="21"><div xmlns="http://www.w3.org/1999/xhtml"><div xmlns="http://www.w3.org/1999/xhtml">-&gt; 心迷走紧张**↓** + 心交感紧张**↑** + 缩血管紧张**↑**   </div></div></foreignObject></g><g data-depth="3" data-path="1.23.26" class="markmap-node" transform="translate(704, -79.03125)"><line stroke="#9467bd" stroke-width="1.375" x1="-1" x2="310" y1="21.6875" y2="21.6875"/><foreignObject class="markmap-foreign" x="8" y="0" style="opacity: 1;" width="292" height="21"><div xmlns="http://www.w3.org/1999/xhtml"><div xmlns="http://www.w3.org/1999/xhtml">-&gt; 心率**↑** + 收缩力**↑** + 血管<strong>收缩</strong>   </div></div></foreignObject></g><g data-depth="3" data-path="1.23.27" class="markmap-node" transform="translate(704, -51.65625)"><line stroke="#7f7f7f" stroke-width="1.375" x1="-1" x2="110" y1="21.6875" y2="21.6875"/><foreignObject class="markmap-foreign" x="8" y="0" style="opacity: 1;" width="92" height="21"><div xmlns="http://www.w3.org/1999/xhtml"><div xmlns="http://www.w3.org/1999/xhtml">-&gt; <strong>血压回升</strong>   </div></div></foreignObject></g><g data-depth="2" data-path="1.23" class="markmap-node" transform="translate(421, -92.71875)"><line stroke="#ff7f0e" stroke-width="1.75" x1="-1" x2="205" y1="21.875" y2="21.875"/><circle stroke-width="1.5" r="6" stroke="#ff7f0e" fill="var(--markmap-circle-open-bg)" cx="203" cy="21.875"/><foreignObject class="markmap-foreign" x="8" y="0" style="opacity: 1;" width="187" height="21"><div xmlns="http://www.w3.org/1999/xhtml"><div xmlns="http://www.w3.org/1999/xhtml">血压↓时的反射（反向）   </div></div></foreignObject></g><g data-depth="3" data-path="1.28.29" class="markmap-node" transform="translate(560, -19.28125)"><line stroke="#17becf" stroke-width="1.375" x1="-1" x2="333" y1="21.6875" y2="21.6875"/><foreignObject class="markmap-foreign" x="8" y="0" style="opacity: 1;" width="315" height="21"><div xmlns="http://www.w3.org/1999/xhtml"><div xmlns="http://www.w3.org/1999/xhtml">对血压<strong>突然变化</strong>最敏感（缓慢变化不敏感）   </div></div></foreignObject></g><g data-depth="3" data-path="1.28.30" class="markmap-node" transform="translate(560, 8.09375)"><line stroke="#1f77b4" stroke-width="1.375" x1="-1" x2="299" y1="21.6875" y2="21.6875"/><foreignObject class="markmap-foreign" x="8" y="0" style="opacity: 1;" width="281" height="21"><div xmlns="http://www.w3.org/1999/xhtml"><div xmlns="http://www.w3.org/1999/xhtml">最敏感范围：MAP ≈ <strong>100 mmHg</strong> 附近   </div></div></foreignObject></g><g data-depth="3" data-path="1.28.31" class="markmap-node" transform="translate(560, 35.46875)"><line stroke="#e377c2" stroke-width="1.375" x1="-1" x2="338" y1="21.6875" y2="21.6875"/><foreignObject class="markmap-foreign" x="8" y="0" style="opacity: 1;" width="320" height="21"><div xmlns="http://www.w3.org/1999/xhtml"><div xmlns="http://www.w3.org/1999/xhtml">可进行<strong>重调定</strong>（长期高血压 -&gt; 调定点上移）   </div></div></foreignObject></g><g data-depth="3" data-path="1.28.32" class="markmap-node" transform="translate(560, 62.84375)"><line stroke="#ff7f0e" stroke-width="1.375" x1="-1" x2="141" y1="21.6875" y2="21.6875"/><foreignObject class="markmap-foreign" x="8" y="0" style="opacity: 1;" width="123" height="21"><div xmlns="http://www.w3.org/1999/xhtml"><div xmlns="http://www.w3.org/1999/xhtml"><strong>快速、双向</strong>调节   </div></div></foreignObject></g><g data-depth="2" data-path="1.28" class="markmap-node" transform="translate(421, 21.78125)"><line stroke="#bcbd22" stroke-width="1.75" x1="-1" x2="61" y1="21.875" y2="21.875"/><circle stroke-width="1.5" r="6" stroke="#bcbd22" fill="var(--markmap-circle-open-bg)" cx="59" cy="21.875"/><foreignObject class="markmap-foreign" x="8" y="0" style="opacity: 1;" width="43" height="21"><div xmlns="http://www.w3.org/1999/xhtml"><div xmlns="http://www.w3.org/1999/xhtml">特点   </div></div></foreignObject></g><g data-depth="3" data-path="1.33.34" class="markmap-node" transform="translate(672, 95.21875)"><line stroke="#2ca02c" stroke-width="1.375" x1="-1" x2="354" y1="21.6875" y2="21.6875"/><foreignObject class="markmap-foreign" x="8" y="0" style="opacity: 1;" width="336" height="21"><div xmlns="http://www.w3.org/1999/xhtml"><div xmlns="http://www.w3.org/1999/xhtml"><strong>缓冲</strong>动脉血压的<strong>突然波动</strong> -&gt; 维持血压<strong>相对稳定</strong>   </div></div></foreignObject></g><g data-depth="3" data-path="1.33.35" class="markmap-node" transform="translate(672, 122.59375)"><line stroke="#e377c2" stroke-width="1.375" x1="-1" x2="285" y1="21.6875" y2="21.6875"/><foreignObject class="markmap-foreign" x="8" y="0" style="opacity: 1;" width="267" height="21"><div xmlns="http://www.w3.org/1999/xhtml"><div xmlns="http://www.w3.org/1999/xhtml">是机体最重要的<strong>负反馈</strong>血压调节机制   </div></div></foreignObject></g><g data-depth="3" data-path="1.33.36" class="markmap-node" transform="translate(672, 149.96875)"><line stroke="#9467bd" stroke-width="1.375" x1="-1" x2="354" y1="21.6875" y2="21.6875"/><foreignObject class="markmap-foreign" x="8" y="0" style="opacity: 1;" width="336" height="21"><div xmlns="http://www.w3.org/1999/xhtml"><div xmlns="http://www.w3.org/1999/xhtml">经常性监视血压波动 -&gt; 使血压不致过高或过低   </div></div></foreignObject></g><g data-depth="2" data-path="1.33" class="markmap-node" transform="translate(421, 122.59375)"><line stroke="#ff7f0e" stroke-width="1.75" x1="-1" x2="173" y1="21.875" y2="21.875"/><circle stroke-width="1.5" r="6" stroke="#ff7f0e" fill="var(--markmap-circle-open-bg)" cx="171" cy="21.875"/><foreignObject class="markmap-foreign" x="8" y="0" style="opacity: 1;" width="155" height="21"><div xmlns="http://www.w3.org/1999/xhtml"><div xmlns="http://www.w3.org/1999/xhtml">生理意义（★必考）   </div></div></foreignObject></g><g data-depth="3" data-path="1.37.38" class="markmap-node" transform="translate(736, 182.34375)"><line stroke="#1f77b4" stroke-width="1.375" x1="-1" x2="236" y1="21.6875" y2="21.6875"/><foreignObject class="markmap-foreign" x="8" y="0" style="opacity: 1;" width="218" height="21"><div xmlns="http://www.w3.org/1999/xhtml"><div xmlns="http://www.w3.org/1999/xhtml">感受器：<strong>颈动脉体</strong> + <strong>主动脉体</strong>   </div></div></foreignObject></g><g data-depth="3" data-path="1.37.39" class="markmap-node" transform="translate(736, 209.71875)"><line stroke="#ff7f0e" stroke-width="1.375" x1="-1" x2="252" y1="21.6875" y2="21.6875"/><foreignObject class="markmap-foreign" x="8" y="0" style="opacity: 1;" width="234" height="21"><div xmlns="http://www.w3.org/1999/xhtml"><div xmlns="http://www.w3.org/1999/xhtml">刺激：<strong>PO₂↓</strong> / <strong>PCO₂↑</strong> / <strong>[H⁺]↑</strong>   </div></div></foreignObject></g><g data-depth="3" data-path="1.37.40" class="markmap-node" transform="translate(736, 237.09375)"><line stroke="#1f77b4" stroke-width="1.375" x1="-1" x2="285" y1="21.6875" y2="21.6875"/><foreignObject class="markmap-foreign" x="8" y="0" style="opacity: 1;" width="267" height="21"><div xmlns="http://www.w3.org/1999/xhtml"><div xmlns="http://www.w3.org/1999/xhtml">平时主要调节<strong>呼吸</strong>（呼吸加深加快）   </div></div></foreignObject></g><g data-depth="3" data-path="1.37.41" class="markmap-node" transform="translate(736, 264.46875)"><line stroke="#8c564b" stroke-width="1.375" x1="-1" x2="482" y1="21.6875" y2="21.6875"/><foreignObject class="markmap-foreign" x="8" y="0" style="opacity: 1;" width="464" height="21"><div xmlns="http://www.w3.org/1999/xhtml"><div xmlns="http://www.w3.org/1999/xhtml">严重缺氧/大失血时 -&gt; 升压效应 -&gt; <strong>血液重新分配</strong> -&gt; 保证<strong>心脑供血</strong>   </div></div></foreignObject></g><g data-depth="2" data-path="1.37" class="markmap-node" transform="translate(421, 223.40625)"><line stroke="#17becf" stroke-width="1.75" x1="-1" x2="237" y1="21.875" y2="21.875"/><circle stroke-width="1.5" r="6" stroke="#17becf" fill="var(--markmap-circle-open-bg)" cx="235" cy="21.875"/><foreignObject class="markmap-foreign" x="8" y="0" style="opacity: 1;" width="219" height="21"><div xmlns="http://www.w3.org/1999/xhtml"><div xmlns="http://www.w3.org/1999/xhtml">化学感受性反射（对比补充）   </div></div></foreignObject></g><g data-depth="3" data-path="1.42.43" class="markmap-node" transform="translate(849, 296.84375)"><line stroke="#1f77b4" stroke-width="1.375" x1="-1" x2="455" y1="21.6875" y2="21.6875"/><foreignObject class="markmap-foreign" x="8" y="0" style="opacity: 1;" width="437" height="21"><div xmlns="http://www.w3.org/1999/xhtml"><div xmlns="http://www.w3.org/1999/xhtml">链：血管紧张素原 -&gt; <strong>肾素</strong> -&gt; AngⅠ -&gt; <strong>ACE</strong> -&gt; AngⅡ -&gt; AngⅢ   </div></div></foreignObject></g><g data-depth="4" data-path="1.42.44.45" class="markmap-node" transform="translate(1087, 329.21875)"><line stroke="#7f7f7f" stroke-width="1.1875" x1="-1" x2="279" y1="21.59375" y2="21.59375"/><foreignObject class="markmap-foreign" x="8" y="0" style="opacity: 1;" width="261" height="21"><div xmlns="http://www.w3.org/1999/xhtml"><div xmlns="http://www.w3.org/1999/xhtml">收缩<strong>微动脉</strong> -&gt; 外周阻力↑ -&gt; 血压↑   </div></div></foreignObject></g><g data-depth="4" data-path="1.42.44.46" class="markmap-node" transform="translate(1087, 356.40625)"><line stroke="#bcbd22" stroke-width="1.1875" x1="-1" x2="199" y1="21.59375" y2="21.59375"/><foreignObject class="markmap-foreign" x="8" y="0" style="opacity: 1;" width="181" height="21"><div xmlns="http://www.w3.org/1999/xhtml"><div xmlns="http://www.w3.org/1999/xhtml">促进<strong>NE</strong>释放 -&gt; 缩血管↑   </div></div></foreignObject></g><g data-depth="4" data-path="1.42.44.47" class="markmap-node" transform="translate(1087, 383.59375)"><line stroke="#17becf" stroke-width="1.1875" x1="-1" x2="279" y1="21.59375" y2="21.59375"/><foreignObject class="markmap-foreign" x="8" y="0" style="opacity: 1;" width="261" height="21"><div xmlns="http://www.w3.org/1999/xhtml"><div xmlns="http://www.w3.org/1999/xhtml">刺激<strong>醛固酮</strong> -&gt; 水钠潴留 -&gt; 血容量↑   </div></div></foreignObject></g><g data-depth="4" data-path="1.42.44.48" class="markmap-node" transform="translate(1087, 410.78125)"><line stroke="#1f77b4" stroke-width="1.1875" x1="-1" x2="162" y1="21.59375" y2="21.59375"/><foreignObject class="markmap-foreign" x="8" y="0" style="opacity: 1;" width="144" height="21"><div xmlns="http://www.w3.org/1999/xhtml"><div xmlns="http://www.w3.org/1999/xhtml">刺激<strong>渴觉</strong> -&gt; 饮水↑   </div></div></foreignObject></g><g data-depth="3" data-path="1.42.44" class="markmap-node" transform="translate(849, 370)"><line stroke="#e377c2" stroke-width="1.375" x1="-1" x2="160" y1="21.6875" y2="21.6875"/><circle stroke-width="1.5" r="6" stroke="#e377c2" fill="var(--markmap-circle-open-bg)" cx="158" cy="21.6875"/><foreignObject class="markmap-foreign" x="8" y="0" style="opacity: 1;" width="142" height="21"><div xmlns="http://www.w3.org/1999/xhtml"><div xmlns="http://www.w3.org/1999/xhtml">AngⅡ（最重要）：   </div></div></foreignObject></g><g data-depth="2" data-path="1.42" class="markmap-node" transform="translate(421, 333.421875)"><line stroke="#17becf" stroke-width="1.75" x1="-1" x2="350" y1="21.875" y2="21.875"/><circle stroke-width="1.5" r="6" stroke="#17becf" fill="var(--markmap-circle-open-bg)" cx="348" cy="21.875"/><foreignObject class="markmap-foreign" x="8" y="0" style="opacity: 1;" width="332" height="21"><div xmlns="http://www.w3.org/1999/xhtml"><div xmlns="http://www.w3.org/1999/xhtml">肾素-血管紧张素系统（RAS）★体液调节核心   </div></div></foreignObject></g><g data-depth="3" data-path="1.49.50" class="markmap-node" transform="translate(710, 442.96875)"><line stroke="#2ca02c" stroke-width="1.375" x1="-1" x2="589" y1="21.6875" y2="21.6875"/><foreignObject class="markmap-foreign" x="8" y="0" style="opacity: 1;" width="571" height="21"><div xmlns="http://www.w3.org/1999/xhtml"><div xmlns="http://www.w3.org/1999/xhtml">Adr（肾上腺素）：<strong>强心</strong>为主 -&gt; <strong>β₁</strong>（心肌↑）+ β₂（舒张）+ α₁（收缩皮肤内脏）   </div></div></foreignObject></g><g data-depth="3" data-path="1.49.51" class="markmap-node" transform="translate(710, 470.34375)"><line stroke="#d62728" stroke-width="1.375" x1="-1" x2="639" y1="21.6875" y2="21.6875"/><foreignObject class="markmap-foreign" x="8" y="0" style="opacity: 1;" width="621" height="21"><div xmlns="http://www.w3.org/1999/xhtml"><div xmlns="http://www.w3.org/1999/xhtml">NE（去甲肾上腺素）：<strong>缩血管/升压</strong>为主 -&gt; <strong>α₁</strong>（全身缩）+ β₁（弱）+ β₂（几乎无作用）   </div></div></foreignObject></g><g data-depth="3" data-path="1.49.52" class="markmap-node" transform="translate(710, 497.71875)"><line stroke="#9467bd" stroke-width="1.375" x1="-1" x2="288" y1="21.6875" y2="21.6875"/><foreignObject class="markmap-foreign" x="8" y="0" style="opacity: 1;" width="270" height="21"><div xmlns="http://www.w3.org/1999/xhtml"><div xmlns="http://www.w3.org/1999/xhtml">肾上腺髓质分泌：80% Adr + 20% NE   </div></div></foreignObject></g><g data-depth="2" data-path="1.49" class="markmap-node" transform="translate(421, 470.34375)"><line stroke="#ff7f0e" stroke-width="1.75" x1="-1" x2="211" y1="21.875" y2="21.875"/><circle stroke-width="1.5" r="6" stroke="#ff7f0e" fill="var(--markmap-circle-open-bg)" cx="209" cy="21.875"/><foreignObject class="markmap-foreign" x="8" y="0" style="opacity: 1;" width="193" height="21"><div xmlns="http://www.w3.org/1999/xhtml"><div xmlns="http://www.w3.org/1999/xhtml">肾上腺素 vs 去甲肾上腺素   </div></div></foreignObject></g><g data-depth="3" data-path="1.53.54" class="markmap-node" transform="translate(656, 530.09375)"><line stroke="#e377c2" stroke-width="1.375" x1="-1" x2="447" y1="21.6875" y2="21.6875"/><foreignObject class="markmap-foreign" x="8" y="0" style="opacity: 1;" width="429" height="21"><div xmlns="http://www.w3.org/1999/xhtml"><div xmlns="http://www.w3.org/1999/xhtml">血压↑ -&gt; 牵张↑ -&gt; 迷走↑/交感↓ -&gt; 心慢+血管扩 -&gt; 血压↓   </div></div></foreignObject></g><g data-depth="3" data-path="1.53.55" class="markmap-node" transform="translate(656, 557.46875)"><line stroke="#7f7f7f" stroke-width="1.375" x1="-1" x2="447" y1="21.6875" y2="21.6875"/><foreignObject class="markmap-foreign" x="8" y="0" style="opacity: 1;" width="429" height="21"><div xmlns="http://www.w3.org/1999/xhtml"><div xmlns="http://www.w3.org/1999/xhtml">血压↓ -&gt; 牵张↓ -&gt; 迷走↓/交感↑ -&gt; 心快+血管缩 -&gt; 血压↑   </div></div></foreignObject></g><g data-depth="3" data-path="1.53.56" class="markmap-node" transform="translate(656, 584.84375)"><line stroke="#bcbd22" stroke-width="1.375" x1="-1" x2="242" y1="21.6875" y2="21.6875"/><foreignObject class="markmap-foreign" x="8" y="0" style="opacity: 1;" width="224" height="21"><div xmlns="http://www.w3.org/1999/xhtml"><div xmlns="http://www.w3.org/1999/xhtml">快、准、稳 -&gt; 负反馈维持稳态   </div></div></foreignObject></g><g data-depth="2" data-path="1.53" class="markmap-node" transform="translate(421, 557.46875)"><line stroke="#8c564b" stroke-width="1.75" x1="-1" x2="157" y1="21.875" y2="21.875"/><circle stroke-width="1.5" r="6" stroke="#8c564b" fill="var(--markmap-circle-open-bg)" cx="155" cy="21.875"/><foreignObject class="markmap-foreign" x="8" y="0" style="opacity: 1;" width="139" height="21"><div xmlns="http://www.w3.org/1999/xhtml"><div xmlns="http://www.w3.org/1999/xhtml">减压反射核心口诀   </div></div></foreignObject></g><g data-depth="1" data-path="1" class="markmap-node" transform="translate(0, -10.5)"><line stroke="#1f77b4" stroke-width="2.5" x1="-1" x2="343" y1="22.25" y2="22.25"/><circle stroke-width="1.5" r="6" stroke="#1f77b4" fill="var(--markmap-circle-open-bg)" cx="341" cy="22.25"/><foreignObject class="markmap-foreign" x="8" y="0" style="opacity: 1;" width="325" height="21"><div xmlns="http://www.w3.org/1999/xhtml"><div xmlns="http://www.w3.org/1999/xhtml">颈动脉窦-主动脉弓减压反射 — 极简速记导图   </div></div></foreignObject></g></g></svg>