<svg xmlns="http://www.w3.org/2000/svg" class="w-full h-full leading-none markmap mm-gpvzjv-1" style=""><style>.markmap{--markmap-max-width: 9999px;--markmap-a-color: #0097e6;--markmap-a-hover-color: #00a8ff;--markmap-code-bg: #f0f0f0;--markmap-code-color: #555;--markmap-highlight-bg: #ffeaa7;--markmap-table-border: 1px solid currentColor;--markmap-font: 300 16px/20px sans-serif;--markmap-circle-open-bg: #fff;--markmap-text-color: #333;--markmap-highlight-node-bg: #ff02;font:var(--markmap-font);color:var(--markmap-text-color)}.markmap-link{fill:none}.markmap-node&gt;circle{cursor:pointer}.markmap-foreign{display:inline-block}.markmap-foreign p{margin:0}.markmap-foreign a{color:var(--markmap-a-color)}.markmap-foreign a:hover{color:var(--markmap-a-hover-color)}.markmap-foreign code{padding:.25em;font-size:calc(1em - 2px);color:var(--markmap-code-color);background-color:var(--markmap-code-bg);border-radius:2px}.markmap-foreign pre{margin:0}.markmap-foreign pre&gt;code{display:block}.markmap-foreign del{text-decoration:line-through}.markmap-foreign em{font-style:italic}.markmap-foreign strong{font-weight:700}.markmap-foreign mark{background:var(--markmap-highlight-bg)}.markmap-foreign table,.markmap-foreign th,.markmap-foreign td{border-collapse:collapse;border:var(--markmap-table-border)}.markmap-foreign img{display:inline-block}.markmap-foreign svg{fill:currentColor}.markmap-foreign&gt;div{width:var(--markmap-max-width);text-align:left}.markmap-foreign&gt;div&gt;div{display:inline-block}.markmap-highlight rect{fill:var(--markmap-highlight-node-bg)}.markmap-dark .markmap{--markmap-code-bg: #1a1b26;--markmap-code-color: #ddd;--markmap-circle-open-bg: #444;--markmap-text-color: #eee}</style><g transform="translate(33.89085630032096,390.3400165979822) scale(0.4578848214790047)"><path class="markmap-link" data-depth="3" data-path="1.3.4" d="M748,-391.406C788,-391.406,788,-432.656,828,-432.656" stroke-width="1.375" stroke="rgb(227, 119, 194)"/><path class="markmap-link" data-depth="3" data-path="1.3.5" d="M748,-391.406C788,-391.406,788,-405.281,828,-405.281" stroke-width="1.375" stroke="rgb(127, 127, 127)"/><path class="markmap-link" data-depth="3" data-path="1.3.6" d="M748,-391.406C788,-391.406,788,-377.906,828,-377.906" stroke-width="1.375" stroke="rgb(188, 189, 34)"/><path class="markmap-link" data-depth="3" data-path="1.3.7" d="M748,-391.406C788,-391.406,788,-350.531,828,-350.531" stroke-width="1.375" stroke="rgb(23, 190, 207)"/><path class="markmap-link" data-depth="3" data-path="1.8.9" d="M651,-276.906C691,-276.906,691,-318.156,731,-318.156" stroke-width="1.375" stroke="rgb(148, 103, 189)"/><path class="markmap-link" data-depth="3" data-path="1.8.10" d="M651,-276.906C691,-276.906,691,-290.781,731,-290.781" stroke-width="1.375" stroke="rgb(23, 190, 207)"/><path class="markmap-link" data-depth="3" data-path="1.8.11" d="M651,-276.906C691,-276.906,691,-263.406,731,-263.406" stroke-width="1.375" stroke="rgb(31, 119, 180)"/><path class="markmap-link" data-depth="3" data-path="1.8.12" d="M651,-276.906C691,-276.906,691,-236.031,731,-236.031" stroke-width="1.375" stroke="rgb(23, 190, 207)"/><path class="markmap-link" data-depth="3" data-path="1.13.14" d="M747,-148.719C787,-148.719,787,-203.656,827,-203.656" stroke-width="1.375" stroke="rgb(140, 86, 75)"/><path class="markmap-link" data-depth="3" data-path="1.13.15" d="M747,-148.719C787,-148.719,787,-176.281,827,-176.281" stroke-width="1.375" stroke="rgb(227, 119, 194)"/><path class="markmap-link" data-depth="3" data-path="1.13.16" d="M747,-148.719C787,-148.719,787,-148.906,827,-148.906" stroke-width="1.375" stroke="rgb(127, 127, 127)"/><path class="markmap-link" data-depth="3" data-path="1.13.17" d="M747,-148.719C787,-148.719,787,-121.531,827,-121.531" stroke-width="1.375" stroke="rgb(188, 189, 34)"/><path class="markmap-link" data-depth="3" data-path="1.13.18" d="M747,-148.719C787,-148.719,787,-94.156,827,-94.156" stroke-width="1.375" stroke="rgb(23, 190, 207)"/><path class="markmap-link" data-depth="3" data-path="1.19.20" d="M551,-20.531C591,-20.531,591,-61.781,631,-61.781" stroke-width="1.375" stroke="rgb(227, 119, 194)"/><path class="markmap-link" data-depth="3" data-path="1.19.21" d="M551,-20.531C591,-20.531,591,-34.406,631,-34.406" stroke-width="1.375" stroke="rgb(127, 127, 127)"/><path class="markmap-link" data-depth="3" data-path="1.19.22" d="M551,-20.531C591,-20.531,591,-7.031,631,-7.031" stroke-width="1.375" stroke="rgb(188, 189, 34)"/><path class="markmap-link" data-depth="3" data-path="1.19.23" d="M551,-20.531C591,-20.531,591,20.344,631,20.344" stroke-width="1.375" stroke="rgb(23, 190, 207)"/><path class="markmap-link" data-depth="3" data-path="1.24.25" d="M587,107.656C627,107.656,627,52.719,667,52.719" stroke-width="1.375" stroke="rgb(148, 103, 189)"/><path class="markmap-link" data-depth="3" data-path="1.24.26" d="M587,107.656C627,107.656,627,80.094,667,80.094" stroke-width="1.375" stroke="rgb(140, 86, 75)"/><path class="markmap-link" data-depth="3" data-path="1.24.27" d="M587,107.656C627,107.656,627,107.469,667,107.469" stroke-width="1.375" stroke="rgb(31, 119, 180)"/><path class="markmap-link" data-depth="3" data-path="1.24.28" d="M587,107.656C627,107.656,627,134.844,667,134.844" stroke-width="1.375" stroke="rgb(255, 127, 14)"/><path class="markmap-link" data-depth="3" data-path="1.24.29" d="M587,107.656C627,107.656,627,162.219,667,162.219" stroke-width="1.375" stroke="rgb(148, 103, 189)"/><path class="markmap-link" data-depth="4" data-path="1.30.32.33" d="M646,254.156C686,254.156,686,226.875,726,226.875" stroke-width="1.1875" stroke="rgb(140, 86, 75)"/><path class="markmap-link" data-depth="4" data-path="1.30.32.34" d="M646,254.156C686,254.156,686,254.063,726,254.063" stroke-width="1.1875" stroke="rgb(227, 119, 194)"/><path class="markmap-link" data-depth="4" data-path="1.30.32.35" d="M646,254.156C686,254.156,686,281.25,726,281.25" stroke-width="1.1875" stroke="rgb(127, 127, 127)"/><path class="markmap-link" data-depth="3" data-path="1.30.31" d="M459,224.563C499,224.563,499,194.594,539,194.594" stroke-width="1.375" stroke="rgb(227, 119, 194)"/><path class="markmap-link" data-depth="3" data-path="1.30.32" d="M459,224.563C499,224.563,499,254.156,539,254.156" stroke-width="1.375" stroke="rgb(227, 119, 194)"/><path class="markmap-link" data-depth="3" data-path="1.36.37" d="M491,341.094C531,341.094,531,313.531,571,313.531" stroke-width="1.375" stroke="rgb(44, 160, 44)"/><path class="markmap-link" data-depth="3" data-path="1.36.38" d="M491,341.094C531,341.094,531,340.906,571,340.906" stroke-width="1.375" stroke="rgb(214, 39, 40)"/><path class="markmap-link" data-depth="3" data-path="1.36.39" d="M491,341.094C531,341.094,531,368.281,571,368.281" stroke-width="1.375" stroke="rgb(148, 103, 189)"/><path class="markmap-link" data-depth="3" data-path="1.40.41" d="M766,441.906C806,441.906,806,400.656,846,400.656" stroke-width="1.375" stroke="rgb(31, 119, 180)"/><path class="markmap-link" data-depth="3" data-path="1.40.42" d="M766,441.906C806,441.906,806,428.031,846,428.031" stroke-width="1.375" stroke="rgb(255, 127, 14)"/><path class="markmap-link" data-depth="3" data-path="1.40.43" d="M766,441.906C806,441.906,806,455.406,846,455.406" stroke-width="1.375" stroke="rgb(44, 160, 44)"/><path class="markmap-link" data-depth="3" data-path="1.40.44" d="M766,441.906C806,441.906,806,482.781,846,482.781" stroke-width="1.375" stroke="rgb(214, 39, 40)"/><path class="markmap-link" data-depth="2" data-path="1.2" d="M304,11.75C344,11.75,344,-419.156,384,-419.156" stroke-width="1.75" stroke="rgb(255, 127, 14)"/><path class="markmap-link" data-depth="2" data-path="1.3" d="M304,11.75C344,11.75,344,-391.406,384,-391.406" stroke-width="1.75" stroke="rgb(140, 86, 75)"/><path class="markmap-link" data-depth="2" data-path="1.8" d="M304,11.75C344,11.75,344,-276.906,384,-276.906" stroke-width="1.75" stroke="rgb(214, 39, 40)"/><path class="markmap-link" data-depth="2" data-path="1.13" d="M304,11.75C344,11.75,344,-148.719,384,-148.719" stroke-width="1.75" stroke="rgb(148, 103, 189)"/><path class="markmap-link" data-depth="2" data-path="1.19" d="M304,11.75C344,11.75,344,-20.531,384,-20.531" stroke-width="1.75" stroke="rgb(140, 86, 75)"/><path class="markmap-link" data-depth="2" data-path="1.24" d="M304,11.75C344,11.75,344,107.656,384,107.656" stroke-width="1.75" stroke="rgb(140, 86, 75)"/><path class="markmap-link" data-depth="2" data-path="1.30" d="M304,11.75C344,11.75,344,224.563,384,224.563" stroke-width="1.75" stroke="rgb(140, 86, 75)"/><path class="markmap-link" data-depth="2" data-path="1.36" d="M304,11.75C344,11.75,344,341.094,384,341.094" stroke-width="1.75" stroke="rgb(255, 127, 14)"/><path class="markmap-link" data-depth="2" data-path="1.40" d="M304,11.75C344,11.75,344,441.906,384,441.906" stroke-width="1.75" stroke="rgb(23, 190, 207)"/><g class="markmap-highlight"/><g data-depth="2" data-path="1.2" class="markmap-node" transform="translate(384, -441.03125)"><line stroke="#ff7f0e" stroke-width="1.75" x1="-1" x2="301" y1="21.875" y2="21.875"/><foreignObject class="markmap-foreign" x="8" y="0" style="opacity: 1;" width="283" height="21"><div xmlns="http://www.w3.org/1999/xhtml"><div xmlns="http://www.w3.org/1999/xhtml">血压定义：血管内血液对管壁的<strong>侧压力</strong>   </div></div></foreignObject></g><g data-depth="3" data-path="1.3.4" class="markmap-node" transform="translate(828, -454.34375)"><line stroke="#e377c2" stroke-width="1.375" x1="-1" x2="423" y1="21.6875" y2="21.6875"/><foreignObject class="markmap-foreign" x="8" y="0" style="opacity: 1;" width="405" height="21"><div xmlns="http://www.w3.org/1999/xhtml"><div xmlns="http://www.w3.org/1999/xhtml">前提：循环系统<strong>足够血液充盈</strong> -&gt; 平均充盈压 ≈ <strong>7mmHg</strong>   </div></div></foreignObject></g><g data-depth="3" data-path="1.3.5" class="markmap-node" transform="translate(828, -426.96875)"><line stroke="#7f7f7f" stroke-width="1.375" x1="-1" x2="319" y1="21.6875" y2="21.6875"/><foreignObject class="markmap-foreign" x="8" y="0" style="opacity: 1;" width="301" height="21"><div xmlns="http://www.w3.org/1999/xhtml"><div xmlns="http://www.w3.org/1999/xhtml">因素1：<strong>心脏射血</strong> -&gt; 能量来源 -&gt; 必要条件   </div></div></foreignObject></g><g data-depth="3" data-path="1.3.6" class="markmap-node" transform="translate(828, -399.59375)"><line stroke="#bcbd22" stroke-width="1.375" x1="-1" x2="498" y1="21.6875" y2="21.6875"/><foreignObject class="markmap-foreign" x="8" y="0" style="opacity: 1;" width="480" height="21"><div xmlns="http://www.w3.org/1999/xhtml"><div xmlns="http://www.w3.org/1999/xhtml">因素2：<strong>外周阻力</strong>（小/微动脉）-&gt; 阻止血液过快流走 -&gt; 维持舒张压   </div></div></foreignObject></g><g data-depth="3" data-path="1.3.7" class="markmap-node" transform="translate(828, -372.21875)"><line stroke="#17becf" stroke-width="1.375" x1="-1" x2="353" y1="21.6875" y2="21.6875"/><foreignObject class="markmap-foreign" x="8" y="0" style="opacity: 1;" width="335" height="21"><div xmlns="http://www.w3.org/1999/xhtml"><div xmlns="http://www.w3.org/1999/xhtml">辅助：大动脉<strong>弹性储器</strong>作用 -&gt; 缓冲 + 连续血流   </div></div></foreignObject></g><g data-depth="2" data-path="1.3" class="markmap-node" transform="translate(384, -413.28125)"><line stroke="#8c564b" stroke-width="1.75" x1="-1" x2="366" y1="21.875" y2="21.875"/><circle stroke-width="1.5" r="6" stroke="#8c564b" fill="var(--markmap-circle-open-bg)" cx="364" cy="21.875"/><foreignObject class="markmap-foreign" x="8" y="0" style="opacity: 1;" width="348" height="21"><div xmlns="http://www.w3.org/1999/xhtml"><div xmlns="http://www.w3.org/1999/xhtml">动脉血压形成：<strong>一个前提 + 两个因素 + 一个辅助</strong>   </div></div></foreignObject></g><g data-depth="3" data-path="1.8.9" class="markmap-node" transform="translate(731, -339.84375)"><line stroke="#9467bd" stroke-width="1.375" x1="-1" x2="215" y1="21.6875" y2="21.6875"/><foreignObject class="markmap-foreign" x="8" y="0" style="opacity: 1;" width="197" height="21"><div xmlns="http://www.w3.org/1999/xhtml"><div xmlns="http://www.w3.org/1999/xhtml">收缩压：<strong>100~120 mmHg</strong>   </div></div></foreignObject></g><g data-depth="3" data-path="1.8.10" class="markmap-node" transform="translate(731, -312.46875)"><line stroke="#17becf" stroke-width="1.375" x1="-1" x2="196" y1="21.6875" y2="21.6875"/><foreignObject class="markmap-foreign" x="8" y="0" style="opacity: 1;" width="178" height="21"><div xmlns="http://www.w3.org/1999/xhtml"><div xmlns="http://www.w3.org/1999/xhtml">舒张压：<strong>60~80 mmHg</strong>   </div></div></foreignObject></g><g data-depth="3" data-path="1.8.11" class="markmap-node" transform="translate(731, -285.09375)"><line stroke="#1f77b4" stroke-width="1.375" x1="-1" x2="320" y1="21.6875" y2="21.6875"/><foreignObject class="markmap-foreign" x="8" y="0" style="opacity: 1;" width="302" height="21"><div xmlns="http://www.w3.org/1999/xhtml"><div xmlns="http://www.w3.org/1999/xhtml">脉压：<strong>30~40 mmHg</strong>（收缩压 - 舒张压）   </div></div></foreignObject></g><g data-depth="3" data-path="1.8.12" class="markmap-node" transform="translate(731, -257.71875)"><line stroke="#17becf" stroke-width="1.375" x1="-1" x2="373" y1="21.6875" y2="21.6875"/><foreignObject class="markmap-foreign" x="8" y="0" style="opacity: 1;" width="355" height="21"><div xmlns="http://www.w3.org/1999/xhtml"><div xmlns="http://www.w3.org/1999/xhtml">平均动脉压：≈ <strong>舒张压 + 1/3脉压</strong> ≈ <strong>100 mmHg</strong>   </div></div></foreignObject></g><g data-depth="2" data-path="1.8" class="markmap-node" transform="translate(384, -298.78125)"><line stroke="#d62728" stroke-width="1.75" x1="-1" x2="269" y1="21.875" y2="21.875"/><circle stroke-width="1.5" r="6" stroke="#d62728" fill="var(--markmap-circle-open-bg)" cx="267" cy="21.875"/><foreignObject class="markmap-foreign" x="8" y="0" style="opacity: 1;" width="251" height="21"><div xmlns="http://www.w3.org/1999/xhtml"><div xmlns="http://www.w3.org/1999/xhtml">动脉血压正常值（安静健康青年）   </div></div></foreignObject></g><g data-depth="3" data-path="1.13.14" class="markmap-node" transform="translate(827, -225.34375)"><line stroke="#8c564b" stroke-width="1.375" x1="-1" x2="540" y1="21.6875" y2="21.6875"/><foreignObject class="markmap-foreign" x="8" y="0" style="opacity: 1;" width="522" height="21"><div xmlns="http://www.w3.org/1999/xhtml"><div xmlns="http://www.w3.org/1999/xhtml">搏出量**↑** -&gt; 收缩压**↑↑** -&gt; 脉压**↑<strong>（收缩压主要反映</strong>搏出量**）   </div></div></foreignObject></g><g data-depth="3" data-path="1.13.15" class="markmap-node" transform="translate(827, -197.96875)"><line stroke="#e377c2" stroke-width="1.375" x1="-1" x2="609" y1="21.6875" y2="21.6875"/><foreignObject class="markmap-foreign" x="8" y="0" style="opacity: 1;" width="591" height="21"><div xmlns="http://www.w3.org/1999/xhtml"><div xmlns="http://www.w3.org/1999/xhtml">心率**↑** -&gt; 舒张期缩短 -&gt; 舒张压**↑↑** -&gt; 脉压**↓<strong>（心率主要影响</strong>舒张压**）   </div></div></foreignObject></g><g data-depth="3" data-path="1.13.16" class="markmap-node" transform="translate(827, -170.59375)"><line stroke="#7f7f7f" stroke-width="1.375" x1="-1" x2="572" y1="21.6875" y2="21.6875"/><foreignObject class="markmap-foreign" x="8" y="0" style="opacity: 1;" width="554" height="21"><div xmlns="http://www.w3.org/1999/xhtml"><div xmlns="http://www.w3.org/1999/xhtml">外周阻力**↑** -&gt; 舒张压**↑↑** -&gt; 脉压**↓<strong>（舒张压反映</strong>外周阻力**大小）   </div></div></foreignObject></g><g data-depth="3" data-path="1.13.17" class="markmap-node" transform="translate(827, -143.21875)"><line stroke="#bcbd22" stroke-width="1.375" x1="-1" x2="521" y1="21.6875" y2="21.6875"/><foreignObject class="markmap-foreign" x="8" y="0" style="opacity: 1;" width="503" height="21"><div xmlns="http://www.w3.org/1999/xhtml"><div xmlns="http://www.w3.org/1999/xhtml">大动脉弹性**↓<strong>（老年）-&gt; 收缩压</strong>↑** + 舒张压**↓** -&gt; 脉压**↑↑**   </div></div></foreignObject></g><g data-depth="3" data-path="1.13.18" class="markmap-node" transform="translate(827, -115.84375)"><line stroke="#17becf" stroke-width="1.375" x1="-1" x2="473" y1="21.6875" y2="21.6875"/><foreignObject class="markmap-foreign" x="8" y="0" style="opacity: 1;" width="455" height="21"><div xmlns="http://www.w3.org/1999/xhtml"><div xmlns="http://www.w3.org/1999/xhtml">循环血量**↓** / 血管容量**↑** -&gt; 平均充盈压↓ -&gt; 血压**↓**   </div></div></foreignObject></g><g data-depth="2" data-path="1.13" class="markmap-node" transform="translate(384, -170.59375)"><line stroke="#9467bd" stroke-width="1.75" x1="-1" x2="365" y1="21.875" y2="21.875"/><circle stroke-width="1.5" r="6" stroke="#9467bd" fill="var(--markmap-circle-open-bg)" cx="363" cy="21.875"/><foreignObject class="markmap-foreign" x="8" y="0" style="opacity: 1;" width="347" height="21"><div xmlns="http://www.w3.org/1999/xhtml"><div xmlns="http://www.w3.org/1999/xhtml">影响动脉血压的五大因素（假定单一因素变化）   </div></div></foreignObject></g><g data-depth="3" data-path="1.19.20" class="markmap-node" transform="translate(631, -83.46875)"><line stroke="#e377c2" stroke-width="1.375" x1="-1" x2="269" y1="21.6875" y2="21.6875"/><foreignObject class="markmap-foreign" x="8" y="0" style="opacity: 1;" width="251" height="21"><div xmlns="http://www.w3.org/1999/xhtml"><div xmlns="http://www.w3.org/1999/xhtml">定义：<strong>右心房</strong>和胸腔内大静脉血压   </div></div></foreignObject></g><g data-depth="3" data-path="1.19.21" class="markmap-node" transform="translate(631, -56.09375)"><line stroke="#7f7f7f" stroke-width="1.375" x1="-1" x2="189" y1="21.6875" y2="21.6875"/><foreignObject class="markmap-foreign" x="8" y="0" style="opacity: 1;" width="171" height="21"><div xmlns="http://www.w3.org/1999/xhtml"><div xmlns="http://www.w3.org/1999/xhtml">正常值：<strong>4~12 cmH₂O</strong>   </div></div></foreignObject></g><g data-depth="3" data-path="1.19.22" class="markmap-node" transform="translate(631, -28.71875)"><line stroke="#bcbd22" stroke-width="1.375" x1="-1" x2="359" y1="21.6875" y2="21.6875"/><foreignObject class="markmap-foreign" x="8" y="0" style="opacity: 1;" width="341" height="21"><div xmlns="http://www.w3.org/1999/xhtml"><div xmlns="http://www.w3.org/1999/xhtml">取决于：心室<strong>射血能力</strong> 与 静脉<strong>回心血量</strong> 的平衡   </div></div></foreignObject></g><g data-depth="3" data-path="1.19.23" class="markmap-node" transform="translate(631, -1.34375)"><line stroke="#17becf" stroke-width="1.375" x1="-1" x2="365" y1="21.6875" y2="21.6875"/><foreignObject class="markmap-foreign" x="8" y="0" style="opacity: 1;" width="347" height="21"><div xmlns="http://www.w3.org/1999/xhtml"><div xmlns="http://www.w3.org/1999/xhtml">CVP <strong>↓</strong> -&gt; 血容量不足；CVP <strong>↑</strong> -&gt; 心衰/输液过量   </div></div></foreignObject></g><g data-depth="2" data-path="1.19" class="markmap-node" transform="translate(384, -42.40625)"><line stroke="#8c564b" stroke-width="1.75" x1="-1" x2="169" y1="21.875" y2="21.875"/><circle stroke-width="1.5" r="6" stroke="#8c564b" fill="var(--markmap-circle-open-bg)" cx="167" cy="21.875"/><foreignObject class="markmap-foreign" x="8" y="0" style="opacity: 1;" width="151" height="21"><div xmlns="http://www.w3.org/1999/xhtml"><div xmlns="http://www.w3.org/1999/xhtml">中心静脉压（CVP）   </div></div></foreignObject></g><g data-depth="3" data-path="1.24.25" class="markmap-node" transform="translate(667, 31.03125)"><line stroke="#9467bd" stroke-width="1.375" x1="-1" x2="330" y1="21.6875" y2="21.6875"/><foreignObject class="markmap-foreign" x="8" y="0" style="opacity: 1;" width="312" height="21"><div xmlns="http://www.w3.org/1999/xhtml"><div xmlns="http://www.w3.org/1999/xhtml">体循环平均充盈压**↑** -&gt; 回心血量**↑**   </div></div></foreignObject></g><g data-depth="3" data-path="1.24.26" class="markmap-node" transform="translate(667, 58.40625)"><line stroke="#8c564b" stroke-width="1.375" x1="-1" x2="415" y1="21.6875" y2="21.6875"/><foreignObject class="markmap-foreign" x="8" y="0" style="opacity: 1;" width="397" height="21"><div xmlns="http://www.w3.org/1999/xhtml"><div xmlns="http://www.w3.org/1999/xhtml">心肌收缩力**↑** -&gt; 舒张期<strong>抽吸力</strong>↑ -&gt; 回心血量**↑**   </div></div></foreignObject></g><g data-depth="3" data-path="1.24.27" class="markmap-node" transform="translate(667, 85.78125)"><line stroke="#1f77b4" stroke-width="1.375" x1="-1" x2="339" y1="21.6875" y2="21.6875"/><foreignObject class="markmap-foreign" x="8" y="0" style="opacity: 1;" width="321" height="21"><div xmlns="http://www.w3.org/1999/xhtml"><div xmlns="http://www.w3.org/1999/xhtml">卧→立位 -&gt; 下肢血管扩张 -&gt; 回心血量**↓**   </div></div></foreignObject></g><g data-depth="3" data-path="1.24.28" class="markmap-node" transform="translate(667, 113.15625)"><line stroke="#ff7f0e" stroke-width="1.375" x1="-1" x2="376" y1="21.6875" y2="21.6875"/><foreignObject class="markmap-foreign" x="8" y="0" style="opacity: 1;" width="358" height="21"><div xmlns="http://www.w3.org/1999/xhtml"><div xmlns="http://www.w3.org/1999/xhtml">骨骼肌运动**↑** -&gt; 挤压+抽吸 -&gt; 回心血量**↑**   </div></div></foreignObject></g><g data-depth="3" data-path="1.24.29" class="markmap-node" transform="translate(667, 140.53125)"><line stroke="#9467bd" stroke-width="1.375" x1="-1" x2="420" y1="21.6875" y2="21.6875"/><foreignObject class="markmap-foreign" x="8" y="0" style="opacity: 1;" width="402" height="21"><div xmlns="http://www.w3.org/1999/xhtml"><div xmlns="http://www.w3.org/1999/xhtml">吸气 -&gt; 胸内负压**↑** -&gt; 腔静脉扩张 -&gt; 回心血量**↑**   </div></div></foreignObject></g><g data-depth="2" data-path="1.24" class="markmap-node" transform="translate(384, 85.78125)"><line stroke="#8c564b" stroke-width="1.75" x1="-1" x2="205" y1="21.875" y2="21.875"/><circle stroke-width="1.5" r="6" stroke="#8c564b" fill="var(--markmap-circle-open-bg)" cx="203" cy="21.875"/><foreignObject class="markmap-foreign" x="8" y="0" style="opacity: 1;" width="187" height="21"><div xmlns="http://www.w3.org/1999/xhtml"><div xmlns="http://www.w3.org/1999/xhtml">影响静脉回心血量的因素   </div></div></foreignObject></g><g data-depth="3" data-path="1.30.31" class="markmap-node" transform="translate(539, 172.90625)"><line stroke="#e377c2" stroke-width="1.375" x1="-1" x2="308" y1="21.6875" y2="21.6875"/><foreignObject class="markmap-foreign" x="8" y="0" style="opacity: 1;" width="290" height="21"><div xmlns="http://www.w3.org/1999/xhtml"><div xmlns="http://www.w3.org/1999/xhtml">定义：微动脉 ↔ 微静脉之间的血液循环   </div></div></foreignObject></g><g data-depth="4" data-path="1.30.32.33" class="markmap-node" transform="translate(726, 205.28125)"><line stroke="#8c564b" stroke-width="1.1875" x1="-1" x2="362" y1="21.59375" y2="21.59375"/><foreignObject class="markmap-foreign" x="8" y="0" style="opacity: 1;" width="344" height="21"><div xmlns="http://www.w3.org/1999/xhtml"><div xmlns="http://www.w3.org/1999/xhtml">迂回通路（营养通路）：真毛细血管 -&gt; <strong>物质交换</strong>   </div></div></foreignObject></g><g data-depth="4" data-path="1.30.32.34" class="markmap-node" transform="translate(726, 232.46875)"><line stroke="#e377c2" stroke-width="1.1875" x1="-1" x2="322" y1="21.59375" y2="21.59375"/><foreignObject class="markmap-foreign" x="8" y="0" style="opacity: 1;" width="304" height="21"><div xmlns="http://www.w3.org/1999/xhtml"><div xmlns="http://www.w3.org/1999/xhtml">直捷通路：通血毛细血管 -&gt; <strong>保证回心血量</strong>   </div></div></foreignObject></g><g data-depth="4" data-path="1.30.32.35" class="markmap-node" transform="translate(726, 259.65625)"><line stroke="#7f7f7f" stroke-width="1.1875" x1="-1" x2="258" y1="21.59375" y2="21.59375"/><foreignObject class="markmap-foreign" x="8" y="0" style="opacity: 1;" width="240" height="21"><div xmlns="http://www.w3.org/1999/xhtml"><div xmlns="http://www.w3.org/1999/xhtml">动静脉短路：吻合支 -&gt; <strong>体温调节</strong>   </div></div></foreignObject></g><g data-depth="3" data-path="1.30.32" class="markmap-node" transform="translate(539, 232.46875)"><line stroke="#e377c2" stroke-width="1.375" x1="-1" x2="109" y1="21.6875" y2="21.6875"/><circle stroke-width="1.5" r="6" stroke="#e377c2" fill="var(--markmap-circle-open-bg)" cx="107" cy="21.6875"/><foreignObject class="markmap-foreign" x="8" y="0" style="opacity: 1;" width="91" height="21"><div xmlns="http://www.w3.org/1999/xhtml"><div xmlns="http://www.w3.org/1999/xhtml">三条通路：   </div></div></foreignObject></g><g data-depth="2" data-path="1.30" class="markmap-node" transform="translate(384, 202.6875)"><line stroke="#8c564b" stroke-width="1.75" x1="-1" x2="77" y1="21.875" y2="21.875"/><circle stroke-width="1.5" r="6" stroke="#8c564b" fill="var(--markmap-circle-open-bg)" cx="75" cy="21.875"/><foreignObject class="markmap-foreign" x="8" y="0" style="opacity: 1;" width="59" height="21"><div xmlns="http://www.w3.org/1999/xhtml"><div xmlns="http://www.w3.org/1999/xhtml">微循环   </div></div></foreignObject></g><g data-depth="3" data-path="1.36.37" class="markmap-node" transform="translate(571, 291.84375)"><line stroke="#2ca02c" stroke-width="1.375" x1="-1" x2="157" y1="21.6875" y2="21.6875"/><foreignObject class="markmap-foreign" x="8" y="0" style="opacity: 1;" width="139" height="21"><div xmlns="http://www.w3.org/1999/xhtml"><div xmlns="http://www.w3.org/1999/xhtml">动力：<strong>有效滤过压</strong>   </div></div></foreignObject></g><g data-depth="3" data-path="1.36.38" class="markmap-node" transform="translate(571, 319.21875)"><line stroke="#d62728" stroke-width="1.375" x1="-1" x2="589" y1="21.6875" y2="21.6875"/><foreignObject class="markmap-foreign" x="8" y="0" style="opacity: 1;" width="571" height="21"><div xmlns="http://www.w3.org/1999/xhtml"><div xmlns="http://www.w3.org/1999/xhtml">有效滤过压 =（<strong>毛细血管血压</strong> + 组织液胶渗压）-（<strong>血浆胶渗压</strong> + 组织液静水压）   </div></div></foreignObject></g><g data-depth="3" data-path="1.36.39" class="markmap-node" transform="translate(571, 346.59375)"><line stroke="#9467bd" stroke-width="1.375" x1="-1" x2="351" y1="21.6875" y2="21.6875"/><foreignObject class="markmap-foreign" x="8" y="0" style="opacity: 1;" width="333" height="21"><div xmlns="http://www.w3.org/1999/xhtml"><div xmlns="http://www.w3.org/1999/xhtml">正值 -&gt; <strong>滤过</strong>（生成）；负值 -&gt; <strong>重吸收</strong>（回流）   </div></div></foreignObject></g><g data-depth="2" data-path="1.36" class="markmap-node" transform="translate(384, 319.21875)"><line stroke="#ff7f0e" stroke-width="1.75" x1="-1" x2="109" y1="21.875" y2="21.875"/><circle stroke-width="1.5" r="6" stroke="#ff7f0e" fill="var(--markmap-circle-open-bg)" cx="107" cy="21.875"/><foreignObject class="markmap-foreign" x="8" y="0" style="opacity: 1;" width="91" height="21"><div xmlns="http://www.w3.org/1999/xhtml"><div xmlns="http://www.w3.org/1999/xhtml">组织液生成   </div></div></foreignObject></g><g data-depth="3" data-path="1.40.41" class="markmap-node" transform="translate(846, 378.96875)"><line stroke="#1f77b4" stroke-width="1.375" x1="-1" x2="523" y1="21.6875" y2="21.6875"/><foreignObject class="markmap-foreign" x="8" y="0" style="opacity: 1;" width="505" height="21"><div xmlns="http://www.w3.org/1999/xhtml"><div xmlns="http://www.w3.org/1999/xhtml">毛细血管血压**↑**（右心衰/炎症）-&gt; 有效滤过压↑ -&gt; 生成↑ -&gt; <strong>水肿</strong>   </div></div></foreignObject></g><g data-depth="3" data-path="1.40.42" class="markmap-node" transform="translate(846, 406.34375)"><line stroke="#ff7f0e" stroke-width="1.375" x1="-1" x2="694" y1="21.6875" y2="21.6875"/><foreignObject class="markmap-foreign" x="8" y="0" style="opacity: 1;" width="676" height="21"><div xmlns="http://www.w3.org/1999/xhtml"><div xmlns="http://www.w3.org/1999/xhtml">血浆胶体渗透压**↓**（肝病/肾病/营养不良 -&gt; 血浆蛋白↓）-&gt; 有效滤过压↑ -&gt; 生成↑ -&gt; <strong>水肿</strong>   </div></div></foreignObject></g><g data-depth="3" data-path="1.40.43" class="markmap-node" transform="translate(846, 433.71875)"><line stroke="#2ca02c" stroke-width="1.375" x1="-1" x2="640" y1="21.6875" y2="21.6875"/><foreignObject class="markmap-foreign" x="8" y="0" style="opacity: 1;" width="622" height="21"><div xmlns="http://www.w3.org/1999/xhtml"><div xmlns="http://www.w3.org/1999/xhtml">毛细血管壁通透性**↑**（过敏/烧伤 -&gt; 蛋白漏出）-&gt; 组织液胶渗压↑ -&gt; 生成↑ -&gt; <strong>水肿</strong>   </div></div></foreignObject></g><g data-depth="3" data-path="1.40.44" class="markmap-node" transform="translate(846, 461.09375)"><line stroke="#d62728" stroke-width="1.375" x1="-1" x2="435" y1="21.6875" y2="21.6875"/><foreignObject class="markmap-foreign" x="8" y="0" style="opacity: 1;" width="417" height="21"><div xmlns="http://www.w3.org/1999/xhtml"><div xmlns="http://www.w3.org/1999/xhtml">淋巴回流<strong>受阻</strong>（丝虫病）-&gt; 组织液积聚 -&gt; <strong>水肿（象皮肿）</strong>   </div></div></foreignObject></g><g data-depth="2" data-path="1.40" class="markmap-node" transform="translate(384, 420.03125)"><line stroke="#17becf" stroke-width="1.75" x1="-1" x2="384" y1="21.875" y2="21.875"/><circle stroke-width="1.5" r="6" stroke="#17becf" fill="var(--markmap-circle-open-bg)" cx="382" cy="21.875"/><foreignObject class="markmap-foreign" x="8" y="0" style="opacity: 1;" width="366" height="21"><div xmlns="http://www.w3.org/1999/xhtml"><div xmlns="http://www.w3.org/1999/xhtml">影响组织液生成的四大因素（→ 水肿机制★必考）   </div></div></foreignObject></g><g data-depth="1" data-path="1" class="markmap-node" transform="translate(0, -10.5)"><line stroke="#1f77b4" stroke-width="2.5" x1="-1" x2="306" y1="22.25" y2="22.25"/><circle stroke-width="1.5" r="6" stroke="#1f77b4" fill="var(--markmap-circle-open-bg)" cx="304" cy="22.25"/><foreignObject class="markmap-foreign" x="8" y="0" style="opacity: 1;" width="288" height="21"><div xmlns="http://www.w3.org/1999/xhtml"><div xmlns="http://www.w3.org/1999/xhtml">动脉血压与组织液生成 — 极简速记导图   </div></div></foreignObject></g></g></svg>