<svg xmlns="http://www.w3.org/2000/svg" class="w-full h-full leading-none markmap mm-gpvzjv-1" style=""><style>.markmap{--markmap-max-width: 9999px;--markmap-a-color: #0097e6;--markmap-a-hover-color: #00a8ff;--markmap-code-bg: #f0f0f0;--markmap-code-color: #555;--markmap-highlight-bg: #ffeaa7;--markmap-table-border: 1px solid currentColor;--markmap-font: 300 16px/20px sans-serif;--markmap-circle-open-bg: #fff;--markmap-text-color: #333;--markmap-highlight-node-bg: #ff02;font:var(--markmap-font);color:var(--markmap-text-color)}.markmap-link{fill:none}.markmap-node&gt;circle{cursor:pointer}.markmap-foreign{display:inline-block}.markmap-foreign p{margin:0}.markmap-foreign a{color:var(--markmap-a-color)}.markmap-foreign a:hover{color:var(--markmap-a-hover-color)}.markmap-foreign code{padding:.25em;font-size:calc(1em - 2px);color:var(--markmap-code-color);background-color:var(--markmap-code-bg);border-radius:2px}.markmap-foreign pre{margin:0}.markmap-foreign pre&gt;code{display:block}.markmap-foreign del{text-decoration:line-through}.markmap-foreign em{font-style:italic}.markmap-foreign strong{font-weight:700}.markmap-foreign mark{background:var(--markmap-highlight-bg)}.markmap-foreign table,.markmap-foreign th,.markmap-foreign td{border-collapse:collapse;border:var(--markmap-table-border)}.markmap-foreign img{display:inline-block}.markmap-foreign svg{fill:currentColor}.markmap-foreign&gt;div{width:var(--markmap-max-width);text-align:left}.markmap-foreign&gt;div&gt;div{display:inline-block}.markmap-highlight rect{fill:var(--markmap-highlight-node-bg)}.markmap-dark .markmap{--markmap-code-bg: #1a1b26;--markmap-code-color: #ddd;--markmap-circle-open-bg: #444;--markmap-text-color: #eee}</style><g transform="translate(15.238361455997307,359.8549636093647) scale(0.6306322425552012)"><path class="markmap-link" data-depth="3" data-path="1.2.3" d="M629,-260.437C669,-260.437,669,-288,709,-288" stroke-width="1.375" stroke="rgb(148, 103, 189)"/><path class="markmap-link" data-depth="3" data-path="1.2.4" d="M629,-260.437C669,-260.437,669,-260.625,709,-260.625" stroke-width="1.375" stroke="rgb(140, 86, 75)"/><path class="markmap-link" data-depth="3" data-path="1.2.5" d="M629,-260.437C669,-260.437,669,-233.25,709,-233.25" stroke-width="1.375" stroke="rgb(227, 119, 194)"/><path class="markmap-link" data-depth="4" data-path="1.6.7.8" d="M832,-173.687C872,-173.687,872,-200.969,912,-200.969" stroke-width="1.1875" stroke="rgb(188, 189, 34)"/><path class="markmap-link" data-depth="4" data-path="1.6.7.9" d="M832,-173.687C872,-173.687,872,-173.781,912,-173.781" stroke-width="1.1875" stroke="rgb(23, 190, 207)"/><path class="markmap-link" data-depth="4" data-path="1.6.7.10" d="M832,-173.687C872,-173.687,872,-146.594,912,-146.594" stroke-width="1.1875" stroke="rgb(31, 119, 180)"/><path class="markmap-link" data-depth="4" data-path="1.6.11.12" d="M832,-87.125C872,-87.125,872,-114.406,912,-114.406" stroke-width="1.1875" stroke="rgb(44, 160, 44)"/><path class="markmap-link" data-depth="4" data-path="1.6.11.13" d="M832,-87.125C872,-87.125,872,-87.219,912,-87.219" stroke-width="1.1875" stroke="rgb(214, 39, 40)"/><path class="markmap-link" data-depth="4" data-path="1.6.11.14" d="M832,-87.125C872,-87.125,872,-60.031,912,-60.031" stroke-width="1.1875" stroke="rgb(44, 160, 44)"/><path class="markmap-link" data-depth="4" data-path="1.6.16.17" d="M784,18.219C824,18.219,824,4.531,864,4.531" stroke-width="1.1875" stroke="rgb(140, 86, 75)"/><path class="markmap-link" data-depth="4" data-path="1.6.16.18" d="M784,18.219C824,18.219,824,31.719,864,31.719" stroke-width="1.1875" stroke="rgb(227, 119, 194)"/><path class="markmap-link" data-depth="3" data-path="1.6.7" d="M629,-77.547C669,-77.547,669,-173.687,709,-173.687" stroke-width="1.375" stroke="rgb(188, 189, 34)"/><path class="markmap-link" data-depth="3" data-path="1.6.11" d="M629,-77.547C669,-77.547,669,-87.125,709,-87.125" stroke-width="1.375" stroke="rgb(255, 127, 14)"/><path class="markmap-link" data-depth="3" data-path="1.6.15" d="M629,-77.547C669,-77.547,669,-27.75,709,-27.75" stroke-width="1.375" stroke="rgb(214, 39, 40)"/><path class="markmap-link" data-depth="3" data-path="1.6.16" d="M629,-77.547C669,-77.547,669,18.219,709,18.219" stroke-width="1.375" stroke="rgb(148, 103, 189)"/><path class="markmap-link" data-depth="4" data-path="1.19.20.21" d="M802,91.188C842,91.188,842,63.906,882,63.906" stroke-width="1.1875" stroke="rgb(127, 127, 127)"/><path class="markmap-link" data-depth="4" data-path="1.19.20.22" d="M802,91.188C842,91.188,842,91.094,882,91.094" stroke-width="1.1875" stroke="rgb(188, 189, 34)"/><path class="markmap-link" data-depth="4" data-path="1.19.20.23" d="M802,91.188C842,91.188,842,118.281,882,118.281" stroke-width="1.1875" stroke="rgb(23, 190, 207)"/><path class="markmap-link" data-depth="4" data-path="1.19.24.25" d="M783,164.156C823,164.156,823,150.469,863,150.469" stroke-width="1.1875" stroke="rgb(255, 127, 14)"/><path class="markmap-link" data-depth="4" data-path="1.19.24.26" d="M783,164.156C823,164.156,823,177.656,863,177.656" stroke-width="1.1875" stroke="rgb(44, 160, 44)"/><path class="markmap-link" data-depth="4" data-path="1.19.27.28" d="M767,223.531C807,223.531,807,209.844,847,209.844" stroke-width="1.1875" stroke="rgb(148, 103, 189)"/><path class="markmap-link" data-depth="4" data-path="1.19.27.29" d="M767,223.531C807,223.531,807,237.031,847,237.031" stroke-width="1.1875" stroke="rgb(140, 86, 75)"/><path class="markmap-link" data-depth="3" data-path="1.19.20" d="M577,157.547C617,157.547,617,91.188,657,91.188" stroke-width="1.375" stroke="rgb(227, 119, 194)"/><path class="markmap-link" data-depth="3" data-path="1.19.24" d="M577,157.547C617,157.547,617,164.156,657,164.156" stroke-width="1.375" stroke="rgb(31, 119, 180)"/><path class="markmap-link" data-depth="3" data-path="1.19.27" d="M577,157.547C617,157.547,617,223.531,657,223.531" stroke-width="1.375" stroke="rgb(214, 39, 40)"/><path class="markmap-link" data-depth="3" data-path="1.30.31" d="M529,283.188C569,283.188,569,269.313,609,269.313" stroke-width="1.375" stroke="rgb(227, 119, 194)"/><path class="markmap-link" data-depth="3" data-path="1.30.32" d="M529,283.188C569,283.188,569,296.688,609,296.688" stroke-width="1.375" stroke="rgb(227, 119, 194)"/><path class="markmap-link" data-depth="2" data-path="1.2" d="M304,11.75C344,11.75,344,-260.437,384,-260.437" stroke-width="1.75" stroke="rgb(255, 127, 14)"/><path class="markmap-link" data-depth="2" data-path="1.6" d="M304,11.75C344,11.75,344,-77.547,384,-77.547" stroke-width="1.75" stroke="rgb(127, 127, 127)"/><path class="markmap-link" data-depth="2" data-path="1.19" d="M304,11.75C344,11.75,344,157.547,384,157.547" stroke-width="1.75" stroke="rgb(140, 86, 75)"/><path class="markmap-link" data-depth="2" data-path="1.30" d="M304,11.75C344,11.75,344,283.188,384,283.188" stroke-width="1.75" stroke="rgb(140, 86, 75)"/><g class="markmap-highlight"/><g data-depth="3" data-path="1.2.3" class="markmap-node" transform="translate(709, -309.6875)"><line stroke="#9467bd" stroke-width="1.375" x1="-1" x2="481" y1="21.6875" y2="21.6875"/><foreignObject class="markmap-foreign" x="8" y="0" style="opacity: 1;" width="463" height="21"><div xmlns="http://www.w3.org/1999/xhtml"><div xmlns="http://www.w3.org/1999/xhtml">AP 区（膜内正/外负）与相邻静息区（膜内负/外正）-&gt; <strong>局部电流</strong>   </div></div></foreignObject></g><g data-depth="3" data-path="1.2.4" class="markmap-node" transform="translate(709, -282.3125)"><line stroke="#8c564b" stroke-width="1.375" x1="-1" x2="365" y1="21.6875" y2="21.6875"/><foreignObject class="markmap-foreign" x="8" y="0" style="opacity: 1;" width="347" height="21"><div xmlns="http://www.w3.org/1999/xhtml"><div xmlns="http://www.w3.org/1999/xhtml">局部电流 -&gt; 静息区<strong>去极化</strong>达阈电位 -&gt; 产生新 AP   </div></div></foreignObject></g><g data-depth="3" data-path="1.2.5" class="markmap-node" transform="translate(709, -254.9375)"><line stroke="#e377c2" stroke-width="1.375" x1="-1" x2="205" y1="21.6875" y2="21.6875"/><foreignObject class="markmap-foreign" x="8" y="0" style="opacity: 1;" width="187" height="21"><div xmlns="http://www.w3.org/1999/xhtml"><div xmlns="http://www.w3.org/1999/xhtml">特点：<strong>双向传导</strong>、不衰减   </div></div></foreignObject></g><g data-depth="2" data-path="1.2" class="markmap-node" transform="translate(384, -282.3125)"><line stroke="#ff7f0e" stroke-width="1.75" x1="-1" x2="247" y1="21.875" y2="21.875"/><circle stroke-width="1.5" r="6" stroke="#ff7f0e" fill="var(--markmap-circle-open-bg)" cx="245" cy="21.875"/><foreignObject class="markmap-foreign" x="8" y="0" style="opacity: 1;" width="229" height="21"><div xmlns="http://www.w3.org/1999/xhtml"><div xmlns="http://www.w3.org/1999/xhtml">无髓纤维传导——局部电流学说   </div></div></foreignObject></g><g data-depth="4" data-path="1.6.7.8" class="markmap-node" transform="translate(912, -222.5625)"><line stroke="#bcbd22" stroke-width="1.1875" x1="-1" x2="242" y1="21.59375" y2="21.59375"/><foreignObject class="markmap-foreign" x="8" y="0" style="opacity: 1;" width="224" height="21"><div xmlns="http://www.w3.org/1999/xhtml"><div xmlns="http://www.w3.org/1999/xhtml">裸露无髓鞘 -&gt; 可产生局部电流   </div></div></foreignObject></g><g data-depth="4" data-path="1.6.7.9" class="markmap-node" transform="translate(912, -195.375)"><line stroke="#17becf" stroke-width="1.1875" x1="-1" x2="209" y1="21.59375" y2="21.59375"/><foreignObject class="markmap-foreign" x="8" y="0" style="opacity: 1;" width="191" height="21"><div xmlns="http://www.w3.org/1999/xhtml"><div xmlns="http://www.w3.org/1999/xhtml"><strong>Na⁺ 通道密集</strong> -&gt; 阈电位<strong>低</strong>   </div></div></foreignObject></g><g data-depth="4" data-path="1.6.7.10" class="markmap-node" transform="translate(912, -168.1875)"><line stroke="#1f77b4" stroke-width="1.1875" x1="-1" x2="99" y1="21.59375" y2="21.59375"/><foreignObject class="markmap-foreign" x="8" y="0" style="opacity: 1;" width="81" height="21"><div xmlns="http://www.w3.org/1999/xhtml"><div xmlns="http://www.w3.org/1999/xhtml">可产生 AP   </div></div></foreignObject></g><g data-depth="3" data-path="1.6.7" class="markmap-node" transform="translate(709, -195.375)"><line stroke="#bcbd22" stroke-width="1.375" x1="-1" x2="125" y1="21.6875" y2="21.6875"/><circle stroke-width="1.5" r="6" stroke="#bcbd22" fill="var(--markmap-circle-open-bg)" cx="123" cy="21.6875"/><foreignObject class="markmap-foreign" x="8" y="0" style="opacity: 1;" width="107" height="21"><div xmlns="http://www.w3.org/1999/xhtml"><div xmlns="http://www.w3.org/1999/xhtml">郎飞结特征：   </div></div></foreignObject></g><g data-depth="4" data-path="1.6.11.12" class="markmap-node" transform="translate(912, -136)"><line stroke="#2ca02c" stroke-width="1.1875" x1="-1" x2="280" y1="21.59375" y2="21.59375"/><foreignObject class="markmap-foreign" x="8" y="0" style="opacity: 1;" width="262" height="21"><div xmlns="http://www.w3.org/1999/xhtml"><div xmlns="http://www.w3.org/1999/xhtml">胶质细胞多层包裹 -&gt; 电阻大/电容小   </div></div></foreignObject></g><g data-depth="4" data-path="1.6.11.13" class="markmap-node" transform="translate(912, -108.8125)"><line stroke="#d62728" stroke-width="1.1875" x1="-1" x2="208" y1="21.59375" y2="21.59375"/><foreignObject class="markmap-foreign" x="8" y="0" style="opacity: 1;" width="190" height="21"><div xmlns="http://www.w3.org/1999/xhtml"><div xmlns="http://www.w3.org/1999/xhtml">Na⁺ 通道<strong>稀疏</strong> -&gt; 阈电位高   </div></div></foreignObject></g><g data-depth="4" data-path="1.6.11.14" class="markmap-node" transform="translate(912, -81.625)"><line stroke="#2ca02c" stroke-width="1.1875" x1="-1" x2="117" y1="21.59375" y2="21.59375"/><foreignObject class="markmap-foreign" x="8" y="0" style="opacity: 1;" width="99" height="21"><div xmlns="http://www.w3.org/1999/xhtml"><div xmlns="http://www.w3.org/1999/xhtml"><strong>不能产生 AP</strong>   </div></div></foreignObject></g><g data-depth="3" data-path="1.6.11" class="markmap-node" transform="translate(709, -108.8125)"><line stroke="#ff7f0e" stroke-width="1.375" x1="-1" x2="125" y1="21.6875" y2="21.6875"/><circle stroke-width="1.5" r="6" stroke="#ff7f0e" fill="var(--markmap-circle-open-bg)" cx="123" cy="21.6875"/><foreignObject class="markmap-foreign" x="8" y="0" style="opacity: 1;" width="107" height="21"><div xmlns="http://www.w3.org/1999/xhtml"><div xmlns="http://www.w3.org/1999/xhtml">髓鞘区特征：   </div></div></foreignObject></g><g data-depth="3" data-path="1.6.15" class="markmap-node" transform="translate(709, -49.4375)"><line stroke="#d62728" stroke-width="1.375" x1="-1" x2="307" y1="21.6875" y2="21.6875"/><foreignObject class="markmap-foreign" x="8" y="0" style="opacity: 1;" width="289" height="21"><div xmlns="http://www.w3.org/1999/xhtml"><div xmlns="http://www.w3.org/1999/xhtml">传导方式：AP 沿相邻<strong>郎飞结</strong>跳跃式产生   </div></div></foreignObject></g><g data-depth="4" data-path="1.6.16.17" class="markmap-node" transform="translate(864, -17.0625)"><line stroke="#8c564b" stroke-width="1.1875" x1="-1" x2="307" y1="21.59375" y2="21.59375"/><foreignObject class="markmap-foreign" x="8" y="0" style="opacity: 1;" width="289" height="21"><div xmlns="http://www.w3.org/1999/xhtml"><div xmlns="http://www.w3.org/1999/xhtml"><strong>传导速度快</strong>（空间常数大/时间常数小）   </div></div></foreignObject></g><g data-depth="4" data-path="1.6.16.18" class="markmap-node" transform="translate(864, 10.125)"><line stroke="#e377c2" stroke-width="1.1875" x1="-1" x2="351" y1="21.59375" y2="21.59375"/><foreignObject class="markmap-foreign" x="8" y="0" style="opacity: 1;" width="333" height="21"><div xmlns="http://www.w3.org/1999/xhtml"><div xmlns="http://www.w3.org/1999/xhtml"><strong>节省能量</strong>（仅郎飞结消耗 ATP 维持离子梯度）   </div></div></foreignObject></g><g data-depth="3" data-path="1.6.16" class="markmap-node" transform="translate(709, -3.46875)"><line stroke="#9467bd" stroke-width="1.375" x1="-1" x2="77" y1="21.6875" y2="21.6875"/><circle stroke-width="1.5" r="6" stroke="#9467bd" fill="var(--markmap-circle-open-bg)" cx="75" cy="21.6875"/><foreignObject class="markmap-foreign" x="8" y="0" style="opacity: 1;" width="59" height="21"><div xmlns="http://www.w3.org/1999/xhtml"><div xmlns="http://www.w3.org/1999/xhtml">意义：   </div></div></foreignObject></g><g data-depth="2" data-path="1.6" class="markmap-node" transform="translate(384, -99.421875)"><line stroke="#7f7f7f" stroke-width="1.75" x1="-1" x2="247" y1="21.875" y2="21.875"/><circle stroke-width="1.5" r="6" stroke="#7f7f7f" fill="var(--markmap-circle-open-bg)" cx="245" cy="21.875"/><foreignObject class="markmap-foreign" x="8" y="0" style="opacity: 1;" width="229" height="21"><div xmlns="http://www.w3.org/1999/xhtml"><div xmlns="http://www.w3.org/1999/xhtml">★有髓纤维传导——跳跃式传导   </div></div></foreignObject></g><g data-depth="4" data-path="1.19.20.21" class="markmap-node" transform="translate(882, 42.3125)"><line stroke="#7f7f7f" stroke-width="1.1875" x1="-1" x2="245" y1="21.59375" y2="21.59375"/><foreignObject class="markmap-foreign" x="8" y="0" style="opacity: 1;" width="227" height="21"><div xmlns="http://www.w3.org/1999/xhtml"><div xmlns="http://www.w3.org/1999/xhtml">"无"：刺激 &lt; 阈值 -&gt; AP 不产生   </div></div></foreignObject></g><g data-depth="4" data-path="1.19.20.22" class="markmap-node" transform="translate(882, 69.5)"><line stroke="#bcbd22" stroke-width="1.1875" x1="-1" x2="317" y1="21.59375" y2="21.59375"/><foreignObject class="markmap-foreign" x="8" y="0" style="opacity: 1;" width="299" height="21"><div xmlns="http://www.w3.org/1999/xhtml"><div xmlns="http://www.w3.org/1999/xhtml">"全"：刺激 ≥ 阈值 -&gt; AP 立即达<strong>最大幅度</strong>   </div></div></foreignObject></g><g data-depth="4" data-path="1.19.20.23" class="markmap-node" transform="translate(882, 96.6875)"><line stroke="#17becf" stroke-width="1.1875" x1="-1" x2="211" y1="21.59375" y2="21.59375"/><foreignObject class="markmap-foreign" x="8" y="0" style="opacity: 1;" width="193" height="21"><div xmlns="http://www.w3.org/1999/xhtml"><div xmlns="http://www.w3.org/1999/xhtml">AP 幅度<strong>不随</strong>刺激强度变化   </div></div></foreignObject></g><g data-depth="3" data-path="1.19.20" class="markmap-node" transform="translate(657, 69.5)"><line stroke="#e377c2" stroke-width="1.375" x1="-1" x2="147" y1="21.6875" y2="21.6875"/><circle stroke-width="1.5" r="6" stroke="#e377c2" fill="var(--markmap-circle-open-bg)" cx="145" cy="21.6875"/><foreignObject class="markmap-foreign" x="8" y="0" style="opacity: 1;" width="129" height="21"><div xmlns="http://www.w3.org/1999/xhtml"><div xmlns="http://www.w3.org/1999/xhtml">① <strong>"全或无"现象</strong>   </div></div></foreignObject></g><g data-depth="4" data-path="1.19.24.25" class="markmap-node" transform="translate(863, 128.875)"><line stroke="#ff7f0e" stroke-width="1.1875" x1="-1" x2="259" y1="21.59375" y2="21.59375"/><foreignObject class="markmap-foreign" x="8" y="0" style="opacity: 1;" width="241" height="21"><div xmlns="http://www.w3.org/1999/xhtml"><div xmlns="http://www.w3.org/1999/xhtml">AP 幅度<strong>不因</strong>传导距离增大而减小   </div></div></foreignObject></g><g data-depth="4" data-path="1.19.24.26" class="markmap-node" transform="translate(863, 156.0625)"><line stroke="#2ca02c" stroke-width="1.1875" x1="-1" x2="138" y1="21.59375" y2="21.59375"/><foreignObject class="markmap-foreign" x="8" y="0" style="opacity: 1;" width="120" height="21"><div xmlns="http://www.w3.org/1999/xhtml"><div xmlns="http://www.w3.org/1999/xhtml">传导的"全或无"   </div></div></foreignObject></g><g data-depth="3" data-path="1.19.24" class="markmap-node" transform="translate(657, 142.46875)"><line stroke="#1f77b4" stroke-width="1.375" x1="-1" x2="128" y1="21.6875" y2="21.6875"/><circle stroke-width="1.5" r="6" stroke="#1f77b4" fill="var(--markmap-circle-open-bg)" cx="126" cy="21.6875"/><foreignObject class="markmap-foreign" x="8" y="0" style="opacity: 1;" width="110" height="21"><div xmlns="http://www.w3.org/1999/xhtml"><div xmlns="http://www.w3.org/1999/xhtml">② <strong>不衰减传导</strong>   </div></div></foreignObject></g><g data-depth="4" data-path="1.19.27.28" class="markmap-node" transform="translate(847, 188.25)"><line stroke="#9467bd" stroke-width="1.1875" x1="-1" x2="226" y1="21.59375" y2="21.59375"/><foreignObject class="markmap-foreign" x="8" y="0" style="opacity: 1;" width="208" height="21"><div xmlns="http://www.w3.org/1999/xhtml"><div xmlns="http://www.w3.org/1999/xhtml">锋电位不融合 -&gt; 脉冲式发放   </div></div></foreignObject></g><g data-depth="4" data-path="1.19.27.29" class="markmap-node" transform="translate(847, 215.4375)"><line stroke="#8c564b" stroke-width="1.1875" x1="-1" x2="205" y1="21.59375" y2="21.59375"/><foreignObject class="markmap-foreign" x="8" y="0" style="opacity: 1;" width="187" height="21"><div xmlns="http://www.w3.org/1999/xhtml"><div xmlns="http://www.w3.org/1999/xhtml">原因：<strong>绝对不应期</strong>的存在   </div></div></foreignObject></g><g data-depth="3" data-path="1.19.27" class="markmap-node" transform="translate(657, 201.84375)"><line stroke="#d62728" stroke-width="1.375" x1="-1" x2="112" y1="21.6875" y2="21.6875"/><circle stroke-width="1.5" r="6" stroke="#d62728" fill="var(--markmap-circle-open-bg)" cx="110" cy="21.6875"/><foreignObject class="markmap-foreign" x="8" y="0" style="opacity: 1;" width="94" height="21"><div xmlns="http://www.w3.org/1999/xhtml"><div xmlns="http://www.w3.org/1999/xhtml">③ <strong>不可总和</strong>   </div></div></foreignObject></g><g data-depth="2" data-path="1.19" class="markmap-node" transform="translate(384, 135.671875)"><line stroke="#8c564b" stroke-width="1.75" x1="-1" x2="195" y1="21.875" y2="21.875"/><circle stroke-width="1.5" r="6" stroke="#8c564b" fill="var(--markmap-circle-open-bg)" cx="193" cy="21.875"/><foreignObject class="markmap-foreign" x="8" y="0" style="opacity: 1;" width="177" height="21"><div xmlns="http://www.w3.org/1999/xhtml"><div xmlns="http://www.w3.org/1999/xhtml">★AP 三大特征（必考）   </div></div></foreignObject></g><g data-depth="3" data-path="1.30.31" class="markmap-node" transform="translate(609, 247.625)"><line stroke="#e377c2" stroke-width="1.375" x1="-1" x2="281" y1="21.6875" y2="21.6875"/><foreignObject class="markmap-foreign" x="8" y="0" style="opacity: 1;" width="263" height="21"><div xmlns="http://www.w3.org/1999/xhtml"><div xmlns="http://www.w3.org/1999/xhtml">无髓：局部电流连续传导/慢/耗能多   </div></div></foreignObject></g><g data-depth="3" data-path="1.30.32" class="markmap-node" transform="translate(609, 275)"><line stroke="#e377c2" stroke-width="1.375" x1="-1" x2="313" y1="21.6875" y2="21.6875"/><foreignObject class="markmap-foreign" x="8" y="0" style="opacity: 1;" width="295" height="21"><div xmlns="http://www.w3.org/1999/xhtml"><div xmlns="http://www.w3.org/1999/xhtml">有髓：跳跃式传导/快（郎飞结）/耗能少   </div></div></foreignObject></g><g data-depth="2" data-path="1.30" class="markmap-node" transform="translate(384, 261.3125)"><line stroke="#8c564b" stroke-width="1.75" x1="-1" x2="147" y1="21.875" y2="21.875"/><circle stroke-width="1.5" r="6" stroke="#8c564b" fill="var(--markmap-circle-open-bg)" cx="145" cy="21.875"/><foreignObject class="markmap-foreign" x="8" y="0" style="opacity: 1;" width="129" height="21"><div xmlns="http://www.w3.org/1999/xhtml"><div xmlns="http://www.w3.org/1999/xhtml">无髓 vs 有髓对比   </div></div></foreignObject></g><g data-depth="1" data-path="1" class="markmap-node" transform="translate(0, -10.5)"><line stroke="#1f77b4" stroke-width="2.5" x1="-1" x2="306" y1="22.25" y2="22.25"/><circle stroke-width="1.5" r="6" stroke="#1f77b4" fill="var(--markmap-circle-open-bg)" cx="304" cy="22.25"/><foreignObject class="markmap-foreign" x="8" y="0" style="opacity: 1;" width="288" height="21"><div xmlns="http://www.w3.org/1999/xhtml"><div xmlns="http://www.w3.org/1999/xhtml">动作电位的传导与特征 — 微型速记导图   </div></div></foreignObject></g></g></svg>