<svg xmlns="http://www.w3.org/2000/svg" class="w-full h-full leading-none markmap mm-rt305f-1" style=""><style>.markmap{--markmap-max-width: 9999px;--markmap-a-color: #0097e6;--markmap-a-hover-color: #00a8ff;--markmap-code-bg: #f0f0f0;--markmap-code-color: #555;--markmap-highlight-bg: #ffeaa7;--markmap-table-border: 1px solid currentColor;--markmap-font: 300 16px/20px sans-serif;--markmap-circle-open-bg: #fff;--markmap-text-color: #333;--markmap-highlight-node-bg: #ff02;font:var(--markmap-font);color:var(--markmap-text-color)}.markmap-link{fill:none}.markmap-node&gt;circle{cursor:pointer}.markmap-foreign{display:inline-block}.markmap-foreign p{margin:0}.markmap-foreign a{color:var(--markmap-a-color)}.markmap-foreign a:hover{color:var(--markmap-a-hover-color)}.markmap-foreign code{padding:.25em;font-size:calc(1em - 2px);color:var(--markmap-code-color);background-color:var(--markmap-code-bg);border-radius:2px}.markmap-foreign pre{margin:0}.markmap-foreign pre&gt;code{display:block}.markmap-foreign del{text-decoration:line-through}.markmap-foreign em{font-style:italic}.markmap-foreign strong{font-weight:700}.markmap-foreign mark{background:var(--markmap-highlight-bg)}.markmap-foreign table,.markmap-foreign th,.markmap-foreign td{border-collapse:collapse;border:var(--markmap-table-border)}.markmap-foreign img{display:inline-block}.markmap-foreign svg{fill:currentColor}.markmap-foreign&gt;div{width:var(--markmap-max-width);text-align:left}.markmap-foreign&gt;div&gt;div{display:inline-block}.markmap-highlight rect{fill:var(--markmap-highlight-node-bg)}.markmap-dark .markmap{--markmap-code-bg: #1a1b26;--markmap-code-color: #ddd;--markmap-circle-open-bg: #444;--markmap-text-color: #eee}</style><g transform="translate(47.202707499202916,385.8660868152045) scale(0.5526656880272117)"><path class="markmap-link" data-depth="3" data-path="1.2.3" d="M599,-190.25C639,-190.25,639,-217.812,679,-217.812" stroke-width="1.375" stroke="rgb(148, 103, 189)"/><path class="markmap-link" data-depth="3" data-path="1.2.4" d="M599,-190.25C639,-190.25,639,-190.437,679,-190.437" stroke-width="1.375" stroke="rgb(140, 86, 75)"/><path class="markmap-link" data-depth="3" data-path="1.2.5" d="M599,-190.25C639,-190.25,639,-163.062,679,-163.062" stroke-width="1.375" stroke="rgb(227, 119, 194)"/><path class="markmap-link" data-depth="3" data-path="1.6.7" d="M533,-75.75C573,-75.75,573,-130.687,613,-130.687" stroke-width="1.375" stroke="rgb(188, 189, 34)"/><path class="markmap-link" data-depth="3" data-path="1.6.8" d="M533,-75.75C573,-75.75,573,-103.312,613,-103.312" stroke-width="1.375" stroke="rgb(23, 190, 207)"/><path class="markmap-link" data-depth="3" data-path="1.6.9" d="M533,-75.75C573,-75.75,573,-75.937,613,-75.937" stroke-width="1.375" stroke="rgb(31, 119, 180)"/><path class="markmap-link" data-depth="3" data-path="1.6.10" d="M533,-75.75C573,-75.75,573,-48.562,613,-48.562" stroke-width="1.375" stroke="rgb(188, 189, 34)"/><path class="markmap-link" data-depth="3" data-path="1.6.11" d="M533,-75.75C573,-75.75,573,-21.187,613,-21.187" stroke-width="1.375" stroke="rgb(23, 190, 207)"/><path class="markmap-link" data-depth="3" data-path="1.12.13" d="M533,38.75C573,38.75,573,11.188,613,11.188" stroke-width="1.375" stroke="rgb(255, 127, 14)"/><path class="markmap-link" data-depth="3" data-path="1.12.14" d="M533,38.75C573,38.75,573,38.563,613,38.563" stroke-width="1.375" stroke="rgb(44, 160, 44)"/><path class="markmap-link" data-depth="3" data-path="1.12.15" d="M533,38.75C573,38.75,573,65.938,613,65.938" stroke-width="1.375" stroke="rgb(214, 39, 40)"/><path class="markmap-link" data-depth="3" data-path="1.16.17" d="M549,125.875C589,125.875,589,98.313,629,98.313" stroke-width="1.375" stroke="rgb(31, 119, 180)"/><path class="markmap-link" data-depth="3" data-path="1.16.18" d="M549,125.875C589,125.875,589,125.688,629,125.688" stroke-width="1.375" stroke="rgb(255, 127, 14)"/><path class="markmap-link" data-depth="3" data-path="1.16.19" d="M549,125.875C589,125.875,589,153.063,629,153.063" stroke-width="1.375" stroke="rgb(44, 160, 44)"/><path class="markmap-link" data-depth="3" data-path="1.20.21" d="M405,213C445,213,445,185.438,485,185.438" stroke-width="1.375" stroke="rgb(140, 86, 75)"/><path class="markmap-link" data-depth="3" data-path="1.20.22" d="M405,213C445,213,445,212.813,485,212.813" stroke-width="1.375" stroke="rgb(227, 119, 194)"/><path class="markmap-link" data-depth="3" data-path="1.20.23" d="M405,213C445,213,445,240.188,485,240.188" stroke-width="1.375" stroke="rgb(127, 127, 127)"/><path class="markmap-link" data-depth="2" data-path="1.2" d="M277,11.75C317,11.75,317,-190.25,357,-190.25" stroke-width="1.75" stroke="rgb(255, 127, 14)"/><path class="markmap-link" data-depth="2" data-path="1.6" d="M277,11.75C317,11.75,317,-75.75,357,-75.75" stroke-width="1.75" stroke="rgb(127, 127, 127)"/><path class="markmap-link" data-depth="2" data-path="1.12" d="M277,11.75C317,11.75,317,38.75,357,38.75" stroke-width="1.75" stroke="rgb(31, 119, 180)"/><path class="markmap-link" data-depth="2" data-path="1.16" d="M277,11.75C317,11.75,317,125.875,357,125.875" stroke-width="1.75" stroke="rgb(23, 190, 207)"/><path class="markmap-link" data-depth="2" data-path="1.20" d="M277,11.75C317,11.75,317,213,357,213" stroke-width="1.75" stroke="rgb(148, 103, 189)"/><g class="markmap-highlight"/><g data-depth="3" data-path="1.2.3" class="markmap-node" transform="translate(679, -239.5)"><line stroke="#9467bd" stroke-width="1.375" x1="-1" x2="487" y1="21.6875" y2="21.6875"/><foreignObject class="markmap-foreign" x="8" y="0" style="opacity: 1;" width="469" height="21"><div xmlns="http://www.w3.org/1999/xhtml"><div xmlns="http://www.w3.org/1999/xhtml">基本方式：<strong>反射</strong> -&gt; 反射弧（感受器→传入→中枢→传出→效应器）</div></div></foreignObject></g><g data-depth="3" data-path="1.2.4" class="markmap-node" transform="translate(679, -212.125)"><line stroke="#8c564b" stroke-width="1.375" x1="-1" x2="242" y1="21.6875" y2="21.6875"/><foreignObject class="markmap-foreign" x="8" y="0" style="opacity: 1;" width="224" height="21"><div xmlns="http://www.w3.org/1999/xhtml"><div xmlns="http://www.w3.org/1999/xhtml">特点：<strong>迅速、准确、局限、短暂</strong></div></div></foreignObject></g><g data-depth="3" data-path="1.2.5" class="markmap-node" transform="translate(679, -184.75)"><line stroke="#e377c2" stroke-width="1.375" x1="-1" x2="194" y1="21.6875" y2="21.6875"/><foreignObject class="markmap-foreign" x="8" y="0" style="opacity: 1;" width="176" height="21"><div xmlns="http://www.w3.org/1999/xhtml"><div xmlns="http://www.w3.org/1999/xhtml">例：缩手反射、膝跳反射</div></div></foreignObject></g><g data-depth="2" data-path="1.2" class="markmap-node" transform="translate(357, -212.125)"><line stroke="#ff7f0e" stroke-width="1.75" x1="-1" x2="244" y1="21.875" y2="21.875"/><circle stroke-width="1.5" r="6" stroke="#ff7f0e" fill="var(--markmap-circle-open-bg)" cx="242" cy="21.875"/><foreignObject class="markmap-foreign" x="8" y="0" style="opacity: 1;" width="226" height="21"><div xmlns="http://www.w3.org/1999/xhtml"><div xmlns="http://www.w3.org/1999/xhtml">★神经调节（先锋营）— 最主要</div></div></foreignObject></g><g data-depth="3" data-path="1.6.7" class="markmap-node" transform="translate(613, -152.375)"><line stroke="#bcbd22" stroke-width="1.375" x1="-1" x2="456" y1="21.6875" y2="21.6875"/><foreignObject class="markmap-foreign" x="8" y="0" style="opacity: 1;" width="438" height="21"><div xmlns="http://www.w3.org/1999/xhtml"><div xmlns="http://www.w3.org/1999/xhtml">方式：细胞分泌<strong>化学物质（激素等）</strong>-&gt; 体液运输 -&gt; 靶细胞受体</div></div></foreignObject></g><g data-depth="3" data-path="1.6.8" class="markmap-node" transform="translate(613, -125)"><line stroke="#17becf" stroke-width="1.375" x1="-1" x2="386" y1="21.6875" y2="21.6875"/><foreignObject class="markmap-foreign" x="8" y="0" style="opacity: 1;" width="368" height="21"><div xmlns="http://www.w3.org/1999/xhtml"><div xmlns="http://www.w3.org/1999/xhtml">分泌方式：远距分泌、旁分泌、自分泌、神经内分泌</div></div></foreignObject></g><g data-depth="3" data-path="1.6.9" class="markmap-node" transform="translate(613, -97.625)"><line stroke="#1f77b4" stroke-width="1.375" x1="-1" x2="652" y1="21.6875" y2="21.6875"/><foreignObject class="markmap-foreign" x="8" y="0" style="opacity: 1;" width="634" height="21"><div xmlns="http://www.w3.org/1999/xhtml"><div xmlns="http://www.w3.org/1999/xhtml">神经-体液调节：内分泌腺受神经支配 -&gt; 体液调节成为反射弧传出部分（如胃液头期分泌）</div></div></foreignObject></g><g data-depth="3" data-path="1.6.10" class="markmap-node" transform="translate(613, -70.25)"><line stroke="#bcbd22" stroke-width="1.375" x1="-1" x2="194" y1="21.6875" y2="21.6875"/><foreignObject class="markmap-foreign" x="8" y="0" style="opacity: 1;" width="176" height="21"><div xmlns="http://www.w3.org/1999/xhtml"><div xmlns="http://www.w3.org/1999/xhtml">特点：<strong>缓慢、弥散、持久</strong></div></div></foreignObject></g><g data-depth="3" data-path="1.6.11" class="markmap-node" transform="translate(613, -42.875)"><line stroke="#17becf" stroke-width="1.375" x1="-1" x2="146" y1="21.6875" y2="21.6875"/><foreignObject class="markmap-foreign" x="8" y="0" style="opacity: 1;" width="128" height="21"><div xmlns="http://www.w3.org/1999/xhtml"><div xmlns="http://www.w3.org/1999/xhtml">例：胰岛素降血糖</div></div></foreignObject></g><g data-depth="2" data-path="1.6" class="markmap-node" transform="translate(357, -97.625)"><line stroke="#7f7f7f" stroke-width="1.75" x1="-1" x2="178" y1="21.875" y2="21.875"/><circle stroke-width="1.5" r="6" stroke="#7f7f7f" fill="var(--markmap-circle-open-bg)" cx="176" cy="21.875"/><foreignObject class="markmap-foreign" x="8" y="0" style="opacity: 1;" width="160" height="21"><div xmlns="http://www.w3.org/1999/xhtml"><div xmlns="http://www.w3.org/1999/xhtml">★体液调节（主力军）</div></div></foreignObject></g><g data-depth="3" data-path="1.12.13" class="markmap-node" transform="translate(613, -10.5)"><line stroke="#ff7f0e" stroke-width="1.375" x1="-1" x2="589" y1="21.6875" y2="21.6875"/><foreignObject class="markmap-foreign" x="8" y="0" style="opacity: 1;" width="571" height="21"><div xmlns="http://www.w3.org/1999/xhtml"><div xmlns="http://www.w3.org/1999/xhtml">方式：细胞/组织<strong>不依赖神经体液</strong> -&gt; 凭借本身内在特性对环境变化产生适应性反应</div></div></foreignObject></g><g data-depth="3" data-path="1.12.14" class="markmap-node" transform="translate(613, 16.875)"><line stroke="#2ca02c" stroke-width="1.375" x1="-1" x2="258" y1="21.6875" y2="21.6875"/><foreignObject class="markmap-foreign" x="8" y="0" style="opacity: 1;" width="240" height="21"><div xmlns="http://www.w3.org/1999/xhtml"><div xmlns="http://www.w3.org/1999/xhtml">特点：<strong>强度弱、范围小、灵敏度低</strong></div></div></foreignObject></g><g data-depth="3" data-path="1.12.15" class="markmap-node" transform="translate(613, 44.25)"><line stroke="#d62728" stroke-width="1.375" x1="-1" x2="394" y1="21.6875" y2="21.6875"/><foreignObject class="markmap-foreign" x="8" y="0" style="opacity: 1;" width="376" height="21"><div xmlns="http://www.w3.org/1999/xhtml"><div xmlns="http://www.w3.org/1999/xhtml">例：肾血流量自身调节（70~180mmHg 范围内恒定）</div></div></foreignObject></g><g data-depth="2" data-path="1.12" class="markmap-node" transform="translate(357, 16.875)"><line stroke="#1f77b4" stroke-width="1.75" x1="-1" x2="178" y1="21.875" y2="21.875"/><circle stroke-width="1.5" r="6" stroke="#1f77b4" fill="var(--markmap-circle-open-bg)" cx="176" cy="21.875"/><foreignObject class="markmap-foreign" x="8" y="0" style="opacity: 1;" width="160" height="21"><div xmlns="http://www.w3.org/1999/xhtml"><div xmlns="http://www.w3.org/1999/xhtml">★自身调节（地方军）</div></div></foreignObject></g><g data-depth="3" data-path="1.16.17" class="markmap-node" transform="translate(629, 76.625)"><line stroke="#1f77b4" stroke-width="1.375" x1="-1" x2="266" y1="21.6875" y2="21.6875"/><foreignObject class="markmap-foreign" x="8" y="0" style="opacity: 1;" width="248" height="21"><div xmlns="http://www.w3.org/1999/xhtml"><div xmlns="http://www.w3.org/1999/xhtml">神经调节：反射弧 -&gt; <strong>快/准/局限/短</strong></div></div></foreignObject></g><g data-depth="3" data-path="1.16.18" class="markmap-node" transform="translate(629, 104)"><line stroke="#ff7f0e" stroke-width="1.375" x1="-1" x2="259" y1="21.6875" y2="21.6875"/><foreignObject class="markmap-foreign" x="8" y="0" style="opacity: 1;" width="241" height="21"><div xmlns="http://www.w3.org/1999/xhtml"><div xmlns="http://www.w3.org/1999/xhtml">体液调节：化学物质 -&gt; <strong>慢/散/持久</strong></div></div></foreignObject></g><g data-depth="3" data-path="1.16.19" class="markmap-node" transform="translate(629, 131.375)"><line stroke="#2ca02c" stroke-width="1.375" x1="-1" x2="243" y1="21.6875" y2="21.6875"/><foreignObject class="markmap-foreign" x="8" y="0" style="opacity: 1;" width="225" height="21"><div xmlns="http://www.w3.org/1999/xhtml"><div xmlns="http://www.w3.org/1999/xhtml">自身调节：组织自身 -&gt; <strong>弱/小/低</strong></div></div></foreignObject></g><g data-depth="2" data-path="1.16" class="markmap-node" transform="translate(357, 104)"><line stroke="#17becf" stroke-width="1.75" x1="-1" x2="194" y1="21.875" y2="21.875"/><circle stroke-width="1.5" r="6" stroke="#17becf" fill="var(--markmap-circle-open-bg)" cx="192" cy="21.875"/><foreignObject class="markmap-foreign" x="8" y="0" style="opacity: 1;" width="176" height="21"><div xmlns="http://www.w3.org/1999/xhtml"><div xmlns="http://www.w3.org/1999/xhtml">★三种调节方式全面对比</div></div></foreignObject></g><g data-depth="3" data-path="1.20.21" class="markmap-node" transform="translate(485, 163.75)"><line stroke="#8c564b" stroke-width="1.375" x1="-1" x2="114" y1="21.6875" y2="21.6875"/><foreignObject class="markmap-foreign" x="8" y="0" style="opacity: 1;" width="96" height="21"><div xmlns="http://www.w3.org/1999/xhtml"><div xmlns="http://www.w3.org/1999/xhtml">神经 = 快准短</div></div></foreignObject></g><g data-depth="3" data-path="1.20.22" class="markmap-node" transform="translate(485, 191.125)"><line stroke="#e377c2" stroke-width="1.375" x1="-1" x2="114" y1="21.6875" y2="21.6875"/><foreignObject class="markmap-foreign" x="8" y="0" style="opacity: 1;" width="96" height="21"><div xmlns="http://www.w3.org/1999/xhtml"><div xmlns="http://www.w3.org/1999/xhtml">体液 = 慢散久</div></div></foreignObject></g><g data-depth="3" data-path="1.20.23" class="markmap-node" transform="translate(485, 218.5)"><line stroke="#7f7f7f" stroke-width="1.375" x1="-1" x2="114" y1="21.6875" y2="21.6875"/><foreignObject class="markmap-foreign" x="8" y="0" style="opacity: 1;" width="96" height="21"><div xmlns="http://www.w3.org/1999/xhtml"><div xmlns="http://www.w3.org/1999/xhtml">自身 = 弱小低</div></div></foreignObject></g><g data-depth="2" data-path="1.20" class="markmap-node" transform="translate(357, 191.125)"><line stroke="#9467bd" stroke-width="1.75" x1="-1" x2="50" y1="21.875" y2="21.875"/><circle stroke-width="1.5" r="6" stroke="#9467bd" fill="var(--markmap-circle-open-bg)" cx="48" cy="21.875"/><foreignObject class="markmap-foreign" x="8" y="0" style="opacity: 1;" width="32" height="21"><div xmlns="http://www.w3.org/1999/xhtml"><div xmlns="http://www.w3.org/1999/xhtml">口诀</div></div></foreignObject></g><g data-depth="1" data-path="1" class="markmap-node" transform="translate(0, -10.5)"><line stroke="#1f77b4" stroke-width="2.5" x1="-1" x2="279" y1="22.25" y2="22.25"/><circle stroke-width="1.5" r="6" stroke="#1f77b4" fill="var(--markmap-circle-open-bg)" cx="277" cy="22.25"/><foreignObject class="markmap-foreign" x="8" y="0" style="opacity: 1;" width="261" height="21"><div xmlns="http://www.w3.org/1999/xhtml"><div xmlns="http://www.w3.org/1999/xhtml">生理功能的调节方式 — 微型速记导图</div></div></foreignObject></g></g></svg>