<svg xmlns="http://www.w3.org/2000/svg" class="w-full h-full leading-none markmap mm-gnmqwj-1" style=""><style>.markmap{--markmap-max-width: 9999px;--markmap-a-color: #0097e6;--markmap-a-hover-color: #00a8ff;--markmap-code-bg: #f0f0f0;--markmap-code-color: #555;--markmap-highlight-bg: #ffeaa7;--markmap-table-border: 1px solid currentColor;--markmap-font: 300 16px/20px sans-serif;--markmap-circle-open-bg: #fff;--markmap-text-color: #333;--markmap-highlight-node-bg: #ff02;font:var(--markmap-font);color:var(--markmap-text-color)}.markmap-link{fill:none}.markmap-node&gt;circle{cursor:pointer}.markmap-foreign{display:inline-block}.markmap-foreign p{margin:0}.markmap-foreign a{color:var(--markmap-a-color)}.markmap-foreign a:hover{color:var(--markmap-a-hover-color)}.markmap-foreign code{padding:.25em;font-size:calc(1em - 2px);color:var(--markmap-code-color);background-color:var(--markmap-code-bg);border-radius:2px}.markmap-foreign pre{margin:0}.markmap-foreign pre&gt;code{display:block}.markmap-foreign del{text-decoration:line-through}.markmap-foreign em{font-style:italic}.markmap-foreign strong{font-weight:700}.markmap-foreign mark{background:var(--markmap-highlight-bg)}.markmap-foreign table,.markmap-foreign th,.markmap-foreign td{border-collapse:collapse;border:var(--markmap-table-border)}.markmap-foreign img{display:inline-block}.markmap-foreign svg{fill:currentColor}.markmap-foreign&gt;div{width:var(--markmap-max-width);text-align:left}.markmap-foreign&gt;div&gt;div{display:inline-block}.markmap-highlight rect{fill:var(--markmap-highlight-node-bg)}.markmap-dark .markmap{--markmap-code-bg: #1a1b26;--markmap-code-color: #ddd;--markmap-circle-open-bg: #444;--markmap-text-color: #eee}</style><g transform="translate(24.98079863513314,370.35400965266035) scale(0.5196401957538382)"><path class="markmap-link" data-depth="3" data-path="1.2.3" d="M597,-252.031C637,-252.031,637,-306.969,677,-306.969" stroke-width="1.375" stroke="rgb(148, 103, 189)"/><path class="markmap-link" data-depth="3" data-path="1.2.4" d="M597,-252.031C637,-252.031,637,-279.594,677,-279.594" stroke-width="1.375" stroke="rgb(140, 86, 75)"/><path class="markmap-link" data-depth="3" data-path="1.2.5" d="M597,-252.031C637,-252.031,637,-252.219,677,-252.219" stroke-width="1.375" stroke="rgb(227, 119, 194)"/><path class="markmap-link" data-depth="3" data-path="1.2.6" d="M597,-252.031C637,-252.031,637,-224.844,677,-224.844" stroke-width="1.375" stroke="rgb(23, 190, 207)"/><path class="markmap-link" data-depth="3" data-path="1.2.7" d="M597,-252.031C637,-252.031,637,-197.469,677,-197.469" stroke-width="1.375" stroke="rgb(227, 119, 194)"/><path class="markmap-link" data-depth="4" data-path="1.8.10.11" d="M909,-78.344C949,-78.344,949,-132.812,989,-132.812" stroke-width="1.1875" stroke="rgb(214, 39, 40)"/><path class="markmap-link" data-depth="4" data-path="1.8.10.12" d="M909,-78.344C949,-78.344,949,-105.625,989,-105.625" stroke-width="1.1875" stroke="rgb(148, 103, 189)"/><path class="markmap-link" data-depth="4" data-path="1.8.10.13" d="M909,-78.344C949,-78.344,949,-78.437,989,-78.437" stroke-width="1.1875" stroke="rgb(140, 86, 75)"/><path class="markmap-link" data-depth="4" data-path="1.8.10.14" d="M909,-78.344C949,-78.344,949,-51.25,989,-51.25" stroke-width="1.1875" stroke="rgb(227, 119, 194)"/><path class="markmap-link" data-depth="4" data-path="1.8.10.15" d="M909,-78.344C949,-78.344,949,-24.062,989,-24.062" stroke-width="1.1875" stroke="rgb(127, 127, 127)"/><path class="markmap-link" data-depth="4" data-path="1.8.16.17" d="M789,21.813C829,21.813,829,8.125,869,8.125" stroke-width="1.1875" stroke="rgb(23, 190, 207)"/><path class="markmap-link" data-depth="4" data-path="1.8.16.18" d="M789,21.813C829,21.813,829,35.313,869,35.313" stroke-width="1.1875" stroke="rgb(31, 119, 180)"/><path class="markmap-link" data-depth="3" data-path="1.8.9" d="M613,-71.453C653,-71.453,653,-165.094,693,-165.094" stroke-width="1.375" stroke="rgb(255, 127, 14)"/><path class="markmap-link" data-depth="3" data-path="1.8.10" d="M613,-71.453C653,-71.453,653,-78.344,693,-78.344" stroke-width="1.375" stroke="rgb(44, 160, 44)"/><path class="markmap-link" data-depth="3" data-path="1.8.16" d="M613,-71.453C653,-71.453,653,21.813,693,21.813" stroke-width="1.375" stroke="rgb(188, 189, 34)"/><path class="markmap-link" data-depth="3" data-path="1.19.20" d="M549,67.781C589,67.781,589,67.594,629,67.594" stroke-width="1.375" stroke="rgb(44, 160, 44)"/><path class="markmap-link" data-depth="3" data-path="1.21.22" d="M501,127.906C541,127.906,541,100.344,581,100.344" stroke-width="1.375" stroke="rgb(148, 103, 189)"/><path class="markmap-link" data-depth="3" data-path="1.21.23" d="M501,127.906C541,127.906,541,127.719,581,127.719" stroke-width="1.375" stroke="rgb(140, 86, 75)"/><path class="markmap-link" data-depth="3" data-path="1.21.24" d="M501,127.906C541,127.906,541,155.094,581,155.094" stroke-width="1.375" stroke="rgb(227, 119, 194)"/><path class="markmap-link" data-depth="3" data-path="1.25.26" d="M538,187.656C578,187.656,578,187.469,618,187.469" stroke-width="1.375" stroke="rgb(188, 189, 34)"/><path class="markmap-link" data-depth="3" data-path="1.27.28" d="M613,274.781C653,274.781,653,219.844,693,219.844" stroke-width="1.375" stroke="rgb(31, 119, 180)"/><path class="markmap-link" data-depth="3" data-path="1.27.29" d="M613,274.781C653,274.781,653,247.219,693,247.219" stroke-width="1.375" stroke="rgb(255, 127, 14)"/><path class="markmap-link" data-depth="3" data-path="1.27.30" d="M613,274.781C653,274.781,653,274.594,693,274.594" stroke-width="1.375" stroke="rgb(44, 160, 44)"/><path class="markmap-link" data-depth="3" data-path="1.27.31" d="M613,274.781C653,274.781,653,301.969,693,301.969" stroke-width="1.375" stroke="rgb(214, 39, 40)"/><path class="markmap-link" data-depth="3" data-path="1.27.32" d="M613,274.781C653,274.781,653,329.344,693,329.344" stroke-width="1.375" stroke="rgb(148, 103, 189)"/><path class="markmap-link" data-depth="2" data-path="1.2" d="M341,11.75C381,11.75,381,-252.031,421,-252.031" stroke-width="1.75" stroke="rgb(255, 127, 14)"/><path class="markmap-link" data-depth="2" data-path="1.8" d="M341,11.75C381,11.75,381,-71.453,421,-71.453" stroke-width="1.75" stroke="rgb(31, 119, 180)"/><path class="markmap-link" data-depth="2" data-path="1.19" d="M341,11.75C381,11.75,381,67.781,421,67.781" stroke-width="1.75" stroke="rgb(255, 127, 14)"/><path class="markmap-link" data-depth="2" data-path="1.21" d="M341,11.75C381,11.75,381,127.906,421,127.906" stroke-width="1.75" stroke="rgb(214, 39, 40)"/><path class="markmap-link" data-depth="2" data-path="1.25" d="M341,11.75C381,11.75,381,187.656,421,187.656" stroke-width="1.75" stroke="rgb(127, 127, 127)"/><path class="markmap-link" data-depth="2" data-path="1.27" d="M341,11.75C381,11.75,381,274.781,421,274.781" stroke-width="1.75" stroke="rgb(23, 190, 207)"/><g class="markmap-highlight"/><g data-depth="3" data-path="1.2.3" class="markmap-node" transform="translate(677, -328.65625)"><line stroke="#9467bd" stroke-width="1.375" x1="-1" x2="354" y1="21.6875" y2="21.6875"/><foreignObject class="markmap-foreign" x="8" y="0" style="opacity: 1;" width="336" height="21"><div xmlns="http://www.w3.org/1999/xhtml"><div xmlns="http://www.w3.org/1999/xhtml">自动节律性：节律<strong>缓慢而不规则</strong>（不同于心脏）</div></div></foreignObject></g><g data-depth="3" data-path="1.2.4" class="markmap-node" transform="translate(677, -301.28125)"><line stroke="#8c564b" stroke-width="1.375" x1="-1" x2="290" y1="21.6875" y2="21.6875"/><foreignObject class="markmap-foreign" x="8" y="0" style="opacity: 1;" width="272" height="21"><div xmlns="http://www.w3.org/1999/xhtml"><div xmlns="http://www.w3.org/1999/xhtml">兴奋性低、收缩缓慢（不同于骨骼肌）</div></div></foreignObject></g><g data-depth="3" data-path="1.2.5" class="markmap-node" transform="translate(677, -273.90625)"><line stroke="#e377c2" stroke-width="1.375" x1="-1" x2="238" y1="21.6875" y2="21.6875"/><foreignObject class="markmap-foreign" x="8" y="0" style="opacity: 1;" width="220" height="21"><div xmlns="http://www.w3.org/1999/xhtml"><div xmlns="http://www.w3.org/1999/xhtml">伸展性大：胃 <strong>50ml → 1500ml</strong></div></div></foreignObject></g><g data-depth="3" data-path="1.2.6" class="markmap-node" transform="translate(677, -246.53125)"><line stroke="#17becf" stroke-width="1.375" x1="-1" x2="242" y1="21.6875" y2="21.6875"/><foreignObject class="markmap-foreign" x="8" y="0" style="opacity: 1;" width="224" height="21"><div xmlns="http://www.w3.org/1999/xhtml"><div xmlns="http://www.w3.org/1999/xhtml">紧张性：微弱而持续的收缩状态</div></div></foreignObject></g><g data-depth="3" data-path="1.2.7" class="markmap-node" transform="translate(677, -219.15625)"><line stroke="#e377c2" stroke-width="1.375" x1="-1" x2="403" y1="21.6875" y2="21.6875"/><foreignObject class="markmap-foreign" x="8" y="0" style="opacity: 1;" width="385" height="21"><div xmlns="http://www.w3.org/1999/xhtml"><div xmlns="http://www.w3.org/1999/xhtml">刺激敏感性：对<strong>牵张/化学/温度</strong>敏感 -&gt; 对<strong>电刺激</strong>不敏感</div></div></foreignObject></g><g data-depth="2" data-path="1.2" class="markmap-node" transform="translate(421, -273.90625)"><line stroke="#ff7f0e" stroke-width="1.75" x1="-1" x2="178" y1="21.875" y2="21.875"/><circle stroke-width="1.5" r="6" stroke="#ff7f0e" fill="var(--markmap-circle-open-bg)" cx="176" cy="21.875"/><foreignObject class="markmap-foreign" x="8" y="0" style="opacity: 1;" width="160" height="21"><div xmlns="http://www.w3.org/1999/xhtml"><div xmlns="http://www.w3.org/1999/xhtml">消化道平滑肌一般特性</div></div></foreignObject></g><g data-depth="3" data-path="1.8.9" class="markmap-node" transform="translate(693, -186.78125)"><line stroke="#ff7f0e" stroke-width="1.375" x1="-1" x2="319" y1="21.6875" y2="21.6875"/><foreignObject class="markmap-foreign" x="8" y="0" style="opacity: 1;" width="301" height="21"><div xmlns="http://www.w3.org/1999/xhtml"><div xmlns="http://www.w3.org/1999/xhtml">静息电位：<strong>-50~-60mV</strong> -&gt; K⁺ 平衡电位为主</div></div></foreignObject></g><g data-depth="4" data-path="1.8.10.11" class="markmap-node" transform="translate(989, -154.40625)"><line stroke="#d62728" stroke-width="1.1875" x1="-1" x2="385" y1="21.59375" y2="21.59375"/><foreignObject class="markmap-foreign" x="8" y="0" style="opacity: 1;" width="367" height="21"><div xmlns="http://www.w3.org/1999/xhtml"><div xmlns="http://www.w3.org/1999/xhtml">由 <strong>Cajal 间质细胞（ICC）<strong>产生 -&gt; 胃肠运动</strong>起搏细胞</strong></div></div></foreignObject></g><g data-depth="4" data-path="1.8.10.12" class="markmap-node" transform="translate(989, -127.21875)"><line stroke="#9467bd" stroke-width="1.1875" x1="-1" x2="326" y1="21.59375" y2="21.59375"/><foreignObject class="markmap-foreign" x="8" y="0" style="opacity: 1;" width="308" height="21"><div xmlns="http://www.w3.org/1999/xhtml"><div xmlns="http://www.w3.org/1999/xhtml">频率：胃 <strong>3次/min</strong> | 十二指肠 <strong>11~12次/min</strong></div></div></foreignObject></g><g data-depth="4" data-path="1.8.10.13" class="markmap-node" transform="translate(989, -100.03125)"><line stroke="#8c564b" stroke-width="1.1875" x1="-1" x2="257" y1="21.59375" y2="21.59375"/><foreignObject class="markmap-foreign" x="8" y="0" style="opacity: 1;" width="239" height="21"><div xmlns="http://www.w3.org/1999/xhtml"><div xmlns="http://www.w3.org/1999/xhtml">幅度 <strong>10~15mV</strong> | 时程数秒~十几秒</div></div></foreignObject></g><g data-depth="4" data-path="1.8.10.14" class="markmap-node" transform="translate(989, -72.84375)"><line stroke="#e377c2" stroke-width="1.1875" x1="-1" x2="268" y1="21.59375" y2="21.59375"/><foreignObject class="markmap-foreign" x="8" y="0" style="opacity: 1;" width="250" height="21"><div xmlns="http://www.w3.org/1999/xhtml"><div xmlns="http://www.w3.org/1999/xhtml">慢波 -&gt; 达<strong>机械阈</strong> -&gt; 平滑肌轻微收缩</div></div></foreignObject></g><g data-depth="4" data-path="1.8.10.15" class="markmap-node" transform="translate(989, -45.65625)"><line stroke="#7f7f7f" stroke-width="1.1875" x1="-1" x2="281" y1="21.59375" y2="21.59375"/><foreignObject class="markmap-foreign" x="8" y="0" style="opacity: 1;" width="263" height="21"><div xmlns="http://www.w3.org/1999/xhtml"><div xmlns="http://www.w3.org/1999/xhtml">慢波 -&gt; 达<strong>电阈</strong> -&gt; 触发 <strong>AP</strong> -&gt; 明显收缩</div></div></foreignObject></g><g data-depth="3" data-path="1.8.10" class="markmap-node" transform="translate(693, -100.03125)"><line stroke="#2ca02c" stroke-width="1.375" x1="-1" x2="218" y1="21.6875" y2="21.6875"/><circle stroke-width="1.5" r="6" stroke="#2ca02c" fill="var(--markmap-circle-open-bg)" cx="216" cy="21.6875"/><foreignObject class="markmap-foreign" x="8" y="0" style="opacity: 1;" width="200" height="21"><div xmlns="http://www.w3.org/1999/xhtml"><div xmlns="http://www.w3.org/1999/xhtml">★慢波电位（基本电节律）：</div></div></foreignObject></g><g data-depth="4" data-path="1.8.16.17" class="markmap-node" transform="translate(869, -13.46875)"><line stroke="#17becf" stroke-width="1.1875" x1="-1" x2="310" y1="21.59375" y2="21.59375"/><foreignObject class="markmap-foreign" x="8" y="0" style="opacity: 1;" width="292" height="21"><div xmlns="http://www.w3.org/1999/xhtml"><div xmlns="http://www.w3.org/1999/xhtml">去极缓慢/幅度小 -&gt; 主要由 <strong>Ca²⁺ 内流</strong>引起</div></div></foreignObject></g><g data-depth="4" data-path="1.8.16.18" class="markmap-node" transform="translate(869, 13.71875)"><line stroke="#1f77b4" stroke-width="1.1875" x1="-1" x2="208" y1="21.59375" y2="21.59375"/><foreignObject class="markmap-foreign" x="8" y="0" style="opacity: 1;" width="190" height="21"><div xmlns="http://www.w3.org/1999/xhtml"><div xmlns="http://www.w3.org/1999/xhtml">AP 频率 ∝ 收缩力（<strong>正比</strong>）</div></div></foreignObject></g><g data-depth="3" data-path="1.8.16" class="markmap-node" transform="translate(693, 0.125)"><line stroke="#bcbd22" stroke-width="1.375" x1="-1" x2="98" y1="21.6875" y2="21.6875"/><circle stroke-width="1.5" r="6" stroke="#bcbd22" fill="var(--markmap-circle-open-bg)" cx="96" cy="21.6875"/><foreignObject class="markmap-foreign" x="8" y="0" style="opacity: 1;" width="80" height="21"><div xmlns="http://www.w3.org/1999/xhtml"><div xmlns="http://www.w3.org/1999/xhtml">动作电位：</div></div></foreignObject></g><g data-depth="2" data-path="1.8" class="markmap-node" transform="translate(421, -93.328125)"><line stroke="#1f77b4" stroke-width="1.75" x1="-1" x2="194" y1="21.875" y2="21.875"/><circle stroke-width="1.5" r="6" stroke="#1f77b4" fill="var(--markmap-circle-open-bg)" cx="192" cy="21.875"/><foreignObject class="markmap-foreign" x="8" y="0" style="opacity: 1;" width="176" height="21"><div xmlns="http://www.w3.org/1999/xhtml"><div xmlns="http://www.w3.org/1999/xhtml">消化道平滑肌电生理特性</div></div></foreignObject></g><g data-depth="3" data-path="1.19.20" class="markmap-node" transform="translate(629, 45.90625)"><line stroke="#2ca02c" stroke-width="1.375" x1="-1" x2="337" y1="21.6875" y2="21.6875"/><foreignObject class="markmap-foreign" x="8" y="0" style="opacity: 1;" width="319" height="21"><div xmlns="http://www.w3.org/1999/xhtml"><div xmlns="http://www.w3.org/1999/xhtml">分泌量：<strong>6~8 L/d</strong> -&gt; 成分：水+消化酶+电解质</div></div></foreignObject></g><g data-depth="2" data-path="1.19" class="markmap-node" transform="translate(421, 45.90625)"><line stroke="#ff7f0e" stroke-width="1.75" x1="-1" x2="130" y1="21.875" y2="21.875"/><circle stroke-width="1.5" r="6" stroke="#ff7f0e" fill="var(--markmap-circle-open-bg)" cx="128" cy="21.875"/><foreignObject class="markmap-foreign" x="8" y="0" style="opacity: 1;" width="112" height="21"><div xmlns="http://www.w3.org/1999/xhtml"><div xmlns="http://www.w3.org/1999/xhtml">消化腺分泌概况</div></div></foreignObject></g><g data-depth="3" data-path="1.21.22" class="markmap-node" transform="translate(581, 78.65625)"><line stroke="#9467bd" stroke-width="1.375" x1="-1" x2="401" y1="21.6875" y2="21.6875"/><foreignObject class="markmap-foreign" x="8" y="0" style="opacity: 1;" width="383" height="21"><div xmlns="http://www.w3.org/1999/xhtml"><div xmlns="http://www.w3.org/1999/xhtml">副交感（迷走/盆）：<strong>ACh</strong> -&gt; 分泌↑/运动↑/括约肌<strong>舒张</strong></div></div></foreignObject></g><g data-depth="3" data-path="1.21.23" class="markmap-node" transform="translate(581, 106.03125)"><line stroke="#8c564b" stroke-width="1.375" x1="-1" x2="298" y1="21.6875" y2="21.6875"/><foreignObject class="markmap-foreign" x="8" y="0" style="opacity: 1;" width="280" height="21"><div xmlns="http://www.w3.org/1999/xhtml"><div xmlns="http://www.w3.org/1999/xhtml">交感：<strong>NA</strong> -&gt; 分泌↓/运动↓/括约肌<strong>收缩</strong></div></div></foreignObject></g><g data-depth="3" data-path="1.21.24" class="markmap-node" transform="translate(581, 133.40625)"><line stroke="#e377c2" stroke-width="1.375" x1="-1" x2="258" y1="21.6875" y2="21.6875"/><foreignObject class="markmap-foreign" x="8" y="0" style="opacity: 1;" width="240" height="21"><div xmlns="http://www.w3.org/1999/xhtml"><div xmlns="http://www.w3.org/1999/xhtml">壁内神经丛：可<strong>独立</strong>调节消化活动</div></div></foreignObject></g><g data-depth="2" data-path="1.21" class="markmap-node" transform="translate(421, 106.03125)"><line stroke="#d62728" stroke-width="1.75" x1="-1" x2="82" y1="21.875" y2="21.875"/><circle stroke-width="1.5" r="6" stroke="#d62728" fill="var(--markmap-circle-open-bg)" cx="80" cy="21.875"/><foreignObject class="markmap-foreign" x="8" y="0" style="opacity: 1;" width="64" height="21"><div xmlns="http://www.w3.org/1999/xhtml"><div xmlns="http://www.w3.org/1999/xhtml">神经支配</div></div></foreignObject></g><g data-depth="3" data-path="1.25.26" class="markmap-node" transform="translate(618, 165.78125)"><line stroke="#bcbd22" stroke-width="1.375" x1="-1" x2="391" y1="21.6875" y2="21.6875"/><foreignObject class="markmap-foreign" x="8" y="0" style="opacity: 1;" width="373" height="21"><div xmlns="http://www.w3.org/1999/xhtml"><div xmlns="http://www.w3.org/1999/xhtml">既存在于<strong>CNS</strong>又存在于<strong>胃肠道</strong> -&gt; 双重分布的肽类物质</div></div></foreignObject></g><g data-depth="2" data-path="1.25" class="markmap-node" transform="translate(421, 165.78125)"><line stroke="#7f7f7f" stroke-width="1.75" x1="-1" x2="119" y1="21.875" y2="21.875"/><circle stroke-width="1.5" r="6" stroke="#7f7f7f" fill="var(--markmap-circle-open-bg)" cx="117" cy="21.875"/><foreignObject class="markmap-foreign" x="8" y="0" style="opacity: 1;" width="101" height="21"><div xmlns="http://www.w3.org/1999/xhtml"><div xmlns="http://www.w3.org/1999/xhtml">★脑-肠肽定义</div></div></foreignObject></g><g data-depth="3" data-path="1.27.28" class="markmap-node" transform="translate(693, 198.15625)"><line stroke="#1f77b4" stroke-width="1.375" x1="-1" x2="755" y1="21.6875" y2="21.6875"/><foreignObject class="markmap-foreign" x="8" y="0" style="opacity: 1;" width="737" height="21"><div xmlns="http://www.w3.org/1999/xhtml"><div xmlns="http://www.w3.org/1999/xhtml">促胃液素：<strong>G 细胞</strong>（胃窦/十二指肠）-&gt; 蛋白质消化产物刺激 -&gt; <strong>胃酸/胃蛋白酶↑</strong> + 胃肠运动↑ + 上皮生长</div></div></foreignObject></g><g data-depth="3" data-path="1.27.29" class="markmap-node" transform="translate(693, 225.53125)"><line stroke="#ff7f0e" stroke-width="1.375" x1="-1" x2="616" y1="21.6875" y2="21.6875"/><foreignObject class="markmap-foreign" x="8" y="0" style="opacity: 1;" width="598" height="21"><div xmlns="http://www.w3.org/1999/xhtml"><div xmlns="http://www.w3.org/1999/xhtml">缩胆囊素：<strong>I 细胞</strong>（小肠上部）-&gt; 蛋白质/脂肪酸刺激 -&gt; <strong>胆囊收缩 + 胰酶↑</strong> + 肠运动↑</div></div></foreignObject></g><g data-depth="3" data-path="1.27.30" class="markmap-node" transform="translate(693, 252.90625)"><line stroke="#2ca02c" stroke-width="1.375" x1="-1" x2="600" y1="21.6875" y2="21.6875"/><foreignObject class="markmap-foreign" x="8" y="0" style="opacity: 1;" width="582" height="21"><div xmlns="http://www.w3.org/1999/xhtml"><div xmlns="http://www.w3.org/1999/xhtml">促胰液素：<strong>S 细胞</strong>（小肠上部）-&gt; 盐酸/脂肪酸刺激 -&gt; <strong>水/HCO₃⁻↑</strong> + 胃酸/胃运动↓</div></div></foreignObject></g><g data-depth="3" data-path="1.27.31" class="markmap-node" transform="translate(693, 280.28125)"><line stroke="#d62728" stroke-width="1.375" x1="-1" x2="586" y1="21.6875" y2="21.6875"/><foreignObject class="markmap-foreign" x="8" y="0" style="opacity: 1;" width="568" height="21"><div xmlns="http://www.w3.org/1999/xhtml"><div xmlns="http://www.w3.org/1999/xhtml">抑胃肽：<strong>K 细胞</strong>（小肠上部）-&gt; 葡萄糖/脂肪酸刺激 -&gt; <strong>胃酸↓/胃排空↓/胰岛素↑</strong></div></div></foreignObject></g><g data-depth="3" data-path="1.27.32" class="markmap-node" transform="translate(693, 307.65625)"><line stroke="#9467bd" stroke-width="1.375" x1="-1" x2="402" y1="21.6875" y2="21.6875"/><foreignObject class="markmap-foreign" x="8" y="0" style="opacity: 1;" width="384" height="21"><div xmlns="http://www.w3.org/1999/xhtml"><div xmlns="http://www.w3.org/1999/xhtml">胃动素：<strong>Mo 细胞</strong>（小肠）-&gt; 消化期刺激 <strong>胃和小肠运动</strong></div></div></foreignObject></g><g data-depth="2" data-path="1.27" class="markmap-node" transform="translate(421, 252.90625)"><line stroke="#17becf" stroke-width="1.75" x1="-1" x2="194" y1="21.875" y2="21.875"/><circle stroke-width="1.5" r="6" stroke="#17becf" fill="var(--markmap-circle-open-bg)" cx="192" cy="21.875"/><foreignObject class="markmap-foreign" x="8" y="0" style="opacity: 1;" width="176" height="21"><div xmlns="http://www.w3.org/1999/xhtml"><div xmlns="http://www.w3.org/1999/xhtml">★五大胃肠激素（必考）</div></div></foreignObject></g><g data-depth="1" data-path="1" class="markmap-node" transform="translate(0, -10.5)"><line stroke="#1f77b4" stroke-width="2.5" x1="-1" x2="343" y1="22.25" y2="22.25"/><circle stroke-width="1.5" r="6" stroke="#1f77b4" fill="var(--markmap-circle-open-bg)" cx="341" cy="22.25"/><foreignObject class="markmap-foreign" x="8" y="0" style="opacity: 1;" width="325" height="21"><div xmlns="http://www.w3.org/1999/xhtml"><div xmlns="http://www.w3.org/1999/xhtml">消化道平滑肌特性与胃肠激素 — 微型速记导图</div></div></foreignObject></g></g></svg>